<svg width="36" height="36" fill="none" xmlns="http://www.w3.org/2000/svg"><g clip-path="url(#clip0)"><path d="M28.247 31.128c.425.65.242 1.521-.408 1.947A17.93 17.93 0 0 1 18.008 36h-.009c-4.788 0-9.288-1.845-12.674-5.195C1.937 27.452.046 22.967 0 18.177A17.883 17.883 0 0 1 5.168 5.376 17.878 17.878 0 0 1 17.88 0h.12c3.759 0 7.37 1.163 10.449 3.368a18.106 18.106 0 0 1 6.556 8.676 1.406 1.406 0 0 1-2.65.944C30.182 6.89 24.42 2.813 17.997 2.813h-.1A15.084 15.084 0 0 0 7.173 7.348a15.09 15.09 0 0 0-4.36 10.801C2.893 26.443 9.705 33.187 18 33.187h.006a15.125 15.125 0 0 0 8.294-2.466 1.406 1.406 0 0 1 1.947.407zm7.752-11.651a6.406 6.406 0 0 1-6.398 6.398 6.399 6.399 0 0 1-5.38-2.939 7.935 7.935 0 0 1-6.222 3.01c-4.38 0-7.945-3.565-7.945-7.946s3.564-7.945 7.945-7.945c1.989 0 3.808.734 5.203 1.945v-.248a1.406 1.406 0 0 1 2.813 0v7.725a3.59 3.59 0 0 0 3.586 3.585 3.59 3.59 0 0 0 3.586-3.585 1.406 1.406 0 1 1 2.812 0zM23.132 18A5.139 5.139 0 0 0 18 12.867 5.139 5.139 0 0 0 12.867 18a5.139 5.139 0 0 0 5.132 5.133A5.138 5.138 0 0 0 23.132 18z" fill="#222"/></g><defs><clipPath id="clip0"><path d="M0 0h36v36H0V0z" fill="#fff"/></clipPath></defs></svg>