<svg width="25" height="25" fill="none" xmlns="http://www.w3.org/2000/svg"><path d="M12.5 9.246A3.261 3.261 0 0 0 9.246 12.5a3.261 3.261 0 0 0 3.254 3.254 3.261 3.261 0 0 0 3.255-3.254A3.261 3.261 0 0 0 12.5 9.246zm9.761 3.254c0-1.348.012-2.683-.063-4.028-.076-1.563-.433-2.95-1.575-4.092-1.145-1.145-2.53-1.5-4.092-1.575-1.348-.076-2.683-.063-4.028-.063-1.348 0-2.683-.013-4.029.063-1.562.076-2.949.432-4.091 1.575-1.145 1.145-1.5 2.53-1.575 4.092-.076 1.347-.064 2.683-.064 4.028 0 1.345-.012 2.683.064 4.028.076 1.563.432 2.95 1.575 4.092 1.145 1.145 2.529 1.5 4.091 1.575 1.348.075 2.684.063 4.029.063 1.347 0 2.683.012 4.028-.063 1.563-.076 2.95-.432 4.092-1.575 1.145-1.145 1.499-2.53 1.575-4.092.078-1.345.063-2.68.063-4.028zm-9.76 5.007A5 5 0 0 1 7.492 12.5 5 5 0 0 1 12.5 7.493a5 5 0 0 1 5.008 5.007 5 5 0 0 1-5.008 5.007zm5.212-9.05c-.647 0-1.17-.522-1.17-1.17 0-.646.523-1.169 1.17-1.169a1.168 1.168 0 0 1 .827 1.997 1.167 1.167 0 0 1-.827.342z" fill="#222" opacity=".5"/></svg>