<svg width="22" height="22" fill="none" xmlns="http://www.w3.org/2000/svg"><path d="M12.848 9.883a.86.86 0 1 0 0-1.719.86.86 0 0 0 0 1.719zM12.848 13.621a.86.86 0 1 0 0-1.719.86.86 0 0 0 0 1.72zM16.586 9.883a.86.86 0 1 0 0-1.719.86.86 0 0 0 0 1.719z" fill="#222"/><path d="M21.14 10.742a.86.86 0 0 0 .86-.86V5.157a3.441 3.441 0 0 0-3.438-3.437h-1.117v-.86a.86.86 0 0 0-1.719 0v.86h-3.91v-.86a.86.86 0 0 0-1.718 0v.86H6.23v-.86a.86.86 0 1 0-1.718 0v.86H3.437A3.441 3.441 0 0 0 0 5.156v13.407A3.441 3.441 0 0 0 3.437 22h10.829c.029 0 .058-.002.086-.004a.863.863 0 0 0 .704-.26l6.704-6.96a.86.86 0 0 0-.62-1.456h-4.124a3.441 3.441 0 0 0-3.438 3.438v3.523H3.438a1.72 1.72 0 0 1-1.72-1.718V5.155a1.72 1.72 0 0 1 1.72-1.719h1.074v.86a.86.86 0 1 0 1.718 0v-.86h3.868v.86a.86.86 0 0 0 1.718 0v-.86h3.91v.86a.86.86 0 0 0 1.72 0v-.86h1.116a1.72 1.72 0 0 1 1.72 1.72v4.726c0 .474.384.86.859.86zm-5.843 6.016a1.72 1.72 0 0 1 1.719-1.719h2.104l-3.823 3.97v-2.251z" fill="#222"/><path d="M5.371 9.883a.86.86 0 1 0 0-1.719.86.86 0 0 0 0 1.719zM9.11 13.621a.86.86 0 1 0 0-1.719.86.86 0 0 0 0 1.72zM5.371 17.36a.86.86 0 1 0 0-1.72.86.86 0 0 0 0 1.72zM5.371 13.621a.86.86 0 1 0 0-1.719.86.86 0 0 0 0 1.72zM9.11 17.36a.86.86 0 1 0 0-1.72.86.86 0 0 0 0 1.72zM9.11 9.883a.86.86 0 1 0 0-1.719.86.86 0 0 0 0 1.719z" fill="#222"/></svg>