<svg width="36" height="36" fill="none" xmlns="http://www.w3.org/2000/svg"><path d="M25.422 16.66H10.578a1.333 1.333 0 1 0 0 2.667h14.844c.733-.001 1.334-.601 1.334-1.334 0-.734-.6-1.334-1.334-1.334zM25.422 11.622H10.578a1.332 1.332 0 1 0 0 2.667h14.844c.733 0 1.334-.6 1.334-1.334 0-.733-.6-1.333-1.334-1.333zM25.422 21.696H10.578a1.332 1.332 0 1 0 0 2.667h14.844c.733 0 1.334-.6 1.334-1.334 0-.733-.6-1.333-1.334-1.333z" fill="#222"/><path d="M30.667 6.666C27.274 3.696 22.777 2.06 18 2.06c-4.778 0-9.274 1.622-12.667 4.6C1.896 9.674 0 13.696 0 17.992c0 3.386 1.23 6.704 3.481 9.423a5.263 5.263 0 0 1-1.807 2.044 1.772 1.772 0 0 0-.77 1.896 1.758 1.758 0 0 0 1.496 1.37c1.519.216 4.489.32 7.237-1.333.63-.377.837-1.2.46-1.83a1.337 1.337 0 0 0-1.83-.459c-1.141.682-2.356.963-3.408 1.045a8.379 8.379 0 0 0 1.43-2.518c.178-.475.067-1-.267-1.37-2.2-2.364-3.355-5.23-3.355-8.268C2.667 10.674 9.548 4.711 18 4.711s15.333 5.963 15.333 13.281c0 7.319-6.881 13.282-15.333 13.282-1.23 0-2.452-.126-3.63-.378a1.33 1.33 0 0 0-1.577 1.03 1.328 1.328 0 0 0 1.022 1.578c1.363.288 2.77.437 4.185.437 4.778 0 9.274-1.638 12.667-4.608C34.11 26.318 36 22.29 36 18c0-4.29-1.896-8.319-5.333-11.334z" fill="#222"/></svg>