<svg width="36" height="36" fill="none" xmlns="http://www.w3.org/2000/svg"><g clip-path="url(#clip0)" fill="#222"><path d="M17.993 5.475c-.739 0-1.343.604-1.343 1.343V17.44l-5.356 5.356a1.35 1.35 0 0 0 0 1.902c.261.262.604.396.947.396.344 0 .687-.134.948-.396l5.751-5.75c.03-.03.06-.068.09-.098.014-.015.022-.03.03-.045.014-.022.03-.037.044-.06.015-.014.023-.037.037-.059.008-.015.023-.037.03-.06.008-.022.023-.037.03-.06.008-.022.023-.037.03-.059.007-.022.015-.037.022-.06l.023-.067c.007-.022.007-.037.015-.06.007-.022.015-.044.015-.067.007-.022.007-.044.007-.074 0-.023.008-.037.008-.06.007-.045.007-.09.007-.134V6.818a1.335 1.335 0 0 0-1.335-1.343z"/><path d="M30.726 5.274a1.35 1.35 0 0 0-1.902 0l-4.095 4.095a1.35 1.35 0 0 0 0 1.902 1.35 1.35 0 0 0 1.902 0l3.11-3.11c5.043 6.005 4.745 15.009-.91 20.663-5.967 5.968-15.68 5.968-21.647 0-5.968-5.968-5.968-15.68 0-21.648 3.67-3.67 8.899-5.221 13.979-4.155a1.336 1.336 0 0 0 1.574-1.044A1.344 1.344 0 0 0 21.7.388 17.958 17.958 0 0 0 5.266 5.274 17.906 17.906 0 0 0 0 18c0 4.804 1.872 9.325 5.274 12.726A17.87 17.87 0 0 0 18 36a17.87 17.87 0 0 0 12.726-5.274A17.87 17.87 0 0 0 36 18a17.87 17.87 0 0 0-5.274-12.726z"/></g><defs><clipPath id="clip0"><path d="M0 0h36v36H0V0z" fill="#fff"/></clipPath></defs></svg>