<svg width="105" height="51" fill="none" xmlns="http://www.w3.org/2000/svg"><g clip-path="url(#clip0)"><path d="M10.688 35.775l-.737-2.32H5.387l-.737 2.32H2l4.712-13.101h1.84l4.713 13.101h-2.577zm-3.019-9.208l-1.62 4.791h3.24l-1.62-4.791zm9.718 9.208h-1.84l-3.46-9.582h2.503l1.914 5.914 1.914-5.915h2.503l-3.534 9.583zm5.817-4.042c.073 1.422.736 2.17 2.135 2.17a2.91 2.91 0 0 0 1.104-.224c.368-.15.663-.374.957-.674l1.473 1.423c-.442.524-1.031.898-1.62 1.198a5.45 5.45 0 0 1-1.914.374c-2.871 0-4.418-1.647-4.418-4.941 0-2.995 1.62-4.867 4.123-4.867s4.123 1.797 4.123 4.567v1.049l-5.963-.075zm1.84-3.669c-1.104 0-1.693.749-1.767 2.022h3.608c-.147-1.273-.81-2.022-1.84-2.022zm10.823 7.711v-5.84c.074-.898-.589-1.646-1.399-1.721-.81-.075-1.62.599-1.693 1.422v6.14h-2.356v-9.584H32.7v.899c.295-.3.663-.599 1.031-.749.442-.15.883-.3 1.325-.3 1.988 0 3.166 1.348 3.166 3.594v6.14h-2.356zm9.424 0v-.898c-.295.3-.663.599-1.03.749-.443.224-.884.3-1.4.3-1.987 0-3.165-1.349-3.165-3.595v-6.139h2.355v5.84c-.073.899.59 1.647 1.4 1.722.81.075 1.62-.599 1.693-1.422v-6.14h2.43v9.583H45.29zm5.89-4.042c.074 1.422.736 2.17 2.135 2.17a2.91 2.91 0 0 0 1.104-.224c.368-.15.663-.374.957-.674l1.473 1.423c-.442.524-1.03.898-1.62 1.198a5.45 5.45 0 0 1-1.914.374c-2.871 0-4.418-1.647-4.418-4.941 0-2.995 1.62-4.867 4.123-4.867 2.504 0 4.123 1.797 4.123 4.567v1.049l-5.963-.075zm1.84-3.669c-1.104 0-1.693.749-1.767 2.022h3.608c-.147-1.273-.81-2.022-1.84-2.022zm18.038 7.711V28.14l-2.43 5.016h-1.693l-2.503-5.016v7.636H61.93V22.674h2.503l3.387 7.112 3.387-7.112h2.503v13.101h-2.65zm6.258-4.042c.074 1.422.737 2.17 2.136 2.17a2.91 2.91 0 0 0 1.104-.224c.368-.15.662-.374.957-.674l1.472 1.423c-.441.524-1.03.898-1.62 1.198a5.45 5.45 0 0 1-1.913.374c-2.872 0-4.418-1.647-4.418-4.941 0-2.995 1.62-4.867 4.123-4.867s4.123 1.797 4.123 4.567v1.049l-5.964-.075zm1.767-3.669c-1.104 0-1.693.749-1.767 2.022h3.608c-.074-1.273-.736-2.022-1.84-2.022zm10.676 7.711v-.898c-.295.3-.59.599-.957.749-.442.15-.884.224-1.325.224a3.44 3.44 0 0 1-2.356-.898c-.442-.45-.737-1.123-.81-1.722-.074-.749-.148-1.572-.148-2.32v-.3c0-1.947.295-2.995.957-3.744.663-.599 1.473-.898 2.283-.823.442 0 .883.075 1.325.224.368.15.663.375.957.674V22.6h2.356V35.7l-2.282.075zm-1.694-7.561c-.588-.075-1.178.3-1.325.823-.22.674-.294 1.348-.22 2.022 0 1.872.441 2.62 1.62 2.62 1.177 0 1.619-.748 1.619-2.77 0-2.021-.516-2.695-1.694-2.695zm6.847-3.22c-.81 0-1.472-.673-1.472-1.497 0-.823.663-1.497 1.472-1.497.81 0 1.473.674 1.473 1.497 0 .824-.663 1.498-1.472 1.498zm1.178 10.781h-2.355v-9.582h2.355v9.582zm6.553 0v-.823c-.294.3-.589.524-.957.674a4.11 4.11 0 0 1-1.325.224c-1.988 0-3.166-1.123-3.166-2.994 0-1.722 1.252-2.77 3.239-2.77h2.209v-.524c0-1.049-.515-1.498-1.767-1.498-.663-.075-1.325.225-1.767.749l-1.472-1.497c.368-.45.81-.75 1.251-.974.663-.3 1.399-.374 2.062-.374 2.724 0 4.049 1.123 4.049 3.369v6.289l-2.356.15zm-.074-4.042h-1.84c-.81 0-1.325.374-1.325 1.048s.515 1.123 1.472 1.123c1.178 0 1.693-.45 1.693-1.647v-.524z" fill="#fff"/><path d="M57.008 10.9l2.247 7.1-6.292-4.231L46.67 18l2.248-7.1L43 6.741h7.416L52.963 0l2.621 6.741H63l-5.992 4.16zm-2.622-2.796l-1.498-4.231-1.498 4.23h-4.045l3.295 2.51-1.498 3.873 3.67-2.51 3.671 2.51-1.498-3.873 3.296-2.51h-3.895z" fill="#FEBD22"/><path opacity=".5" d="M40.532 51h4.27v-.75h-3.23c.56-.49 2.94-2.6 2.94-4.56 0-.87-.61-1.77-1.92-1.77-.98 0-1.83.6-2 1.64l.68.28c.14-.75.69-1.12 1.25-1.12.76 0 1.14.51 1.14 1.13 0 1.49-1.99 3.38-3.13 4.5V51zm6.374-3.5c0 2.11.71 3.58 2.29 3.58s2.25-1.47 2.25-3.58c0-2.1-.69-3.58-2.27-3.58s-2.27 1.48-2.27 3.58zm.85 0c0-1.79.4-2.83 1.42-2.83s1.42 1.02 1.42 2.83-.38 2.83-1.4 2.83c-.99 0-1.44-1.03-1.44-2.83zM53.45 51h4.27v-.75h-3.23c.56-.49 2.94-2.6 2.94-4.56 0-.87-.61-1.77-1.92-1.77-.98 0-1.83.6-2 1.64l.68.28c.14-.75.69-1.12 1.25-1.12.76 0 1.14.51 1.14 1.13 0 1.49-1.99 3.38-3.13 4.5V51zm6.373-3.5c0 2.11.71 3.58 2.29 3.58s2.25-1.47 2.25-3.58c0-2.1-.69-3.58-2.27-3.58s-2.27 1.48-2.27 3.58zm.85 0c0-1.79.4-2.83 1.42-2.83s1.42 1.02 1.42 2.83-.38 2.83-1.4 2.83c-.99 0-1.44-1.03-1.44-2.83z" fill="#fff"/></g><defs><clipPath id="clip0"><path fill="#fff" d="M0 0h105v51H0z"/></clipPath></defs></svg>