<svg width="36" height="36" fill="none" xmlns="http://www.w3.org/2000/svg"><g clip-path="url(#clip0)"><path d="M27.227 7.51c0-.776.628-1.404 1.404-1.404h3.157c.776 0 1.404.628 1.404 1.403v8.282a1.404 1.404 0 1 1-2.807 0V8.913H28.63a1.404 1.404 0 0 1-1.403-1.404zm8.214 26.769A3.484 3.484 0 0 1 32.417 36H3.579a3.556 3.556 0 0 1-3.084-1.761 3.435 3.435 0 0 1-.071-3.43l2.45-4.48V7.51c0-.775.628-1.403 1.403-1.403h2.597a1.404 1.404 0 1 1 0 2.807H5.68v16.56h24.704v-2.594a1.404 1.404 0 0 1 2.807 0v3.707l2.309 4.223a3.474 3.474 0 0 1-.06 3.47zm-2.403-2.123l-2.12-3.876H5.008l-2.12 3.876a.642.642 0 0 0 .023.651.78.78 0 0 0 .669.386h9.474c.04-.741.65-1.33 1.4-1.33h6.948c.75 0 1.362.589 1.4 1.33h9.616a.696.696 0 0 0 .61-.346.678.678 0 0 0 .011-.691zM10.546 4.926l.689-1.302a1.404 1.404 0 0 1 1.694-.671l1.614.551a5.57 5.57 0 0 1 1.176-.706l.301-1.647A1.404 1.404 0 0 1 17.401 0h1.229c.679 0 1.26.486 1.381 1.155l.299 1.658.081.04a10.273 10.273 0 0 1 .261.131l.058.032c.065.036.13.073.194.112l.016.01c.147.09.29.185.43.288l1.51-.592a1.404 1.404 0 0 1 1.693.548l.767 1.191c.395.615.252 1.431-.33 1.875l-1.393 1.064.005.08.004.083a5.57 5.57 0 0 1 .003.466l1.35.974c.542.39.734 1.108.459 1.716l-.568 1.256c-.299.664-1.056.988-1.742.748l-1.568-.548a5.563 5.563 0 0 1-1.266.777l-.259 1.615a1.404 1.404 0 0 1-1.385 1.182h-1.264c-.68 0-1.26-.486-1.381-1.155l-.299-1.658-.085-.041a5.644 5.644 0 0 1-.264-.134l-.041-.023a5.587 5.587 0 0 1-.668-.43l-1.526.605a1.404 1.404 0 0 1-1.746-.626l-.658-1.192c-.332-.6-.18-1.353.357-1.779L12.4 8.363l-.005-.09-.005-.085a5.391 5.391 0 0 1 0-.524l-1.378-.912a1.404 1.404 0 0 1-.466-1.827zm4.645 3.004c0 .054.002.108.004.162l.004.044.01.117.007.05c.005.038.011.075.018.113l.008.05.025.114a2.806 2.806 0 0 0 .784 1.37l.052.05c.037.034.075.066.113.098l.063.05.07.053.071.05c.027.019.055.036.082.054.038.023.075.046.113.067l.071.04a2.545 2.545 0 0 0 .442.187 2.8 2.8 0 0 0 2.665-.512l.056-.048.105-.097.028-.027a2.8 2.8 0 0 0 .765-1.414l.016-.086.009-.052c.007-.043.012-.086.017-.129l.001-.013a2.774 2.774 0 0 0 .01-.452l-.003-.045a3.306 3.306 0 0 0-.01-.118l-.007-.049a3.127 3.127 0 0 0-.018-.114l-.008-.047a2.808 2.808 0 0 0-.827-1.502l-.036-.034a2.93 2.93 0 0 0-.121-.105l-.052-.04a2.632 2.632 0 0 0-.084-.064l-.059-.042a3.037 3.037 0 0 0-.125-.08c-.022-.014-.044-.026-.067-.039a2.08 2.08 0 0 0-.152-.081 3.248 3.248 0 0 0-.364-.147 2.796 2.796 0 0 0-1.81.024l-.071.027c-.06.023-.118.048-.175.075l-.035.015a2.587 2.587 0 0 0-.107.056l-.024.013c-.112.062-.22.131-.322.207l-.013.01a2.767 2.767 0 0 0-.29.251l-.026.027a2.805 2.805 0 0 0-.76 1.48l-.002.01a2.65 2.65 0 0 0-.022.146l-.001.013a3.138 3.138 0 0 0-.012.14l-.002.019a2.697 2.697 0 0 0-.004.155z" fill="#222"/></g><defs><clipPath id="clip0"><path d="M0 0h36v36H0V0z" fill="#fff"/></clipPath></defs></svg>