<svg width="36" height="36" fill="none" xmlns="http://www.w3.org/2000/svg"><path d="M32.794 13.335h-1.65V7.74a3.784 3.784 0 0 0-3.781-3.78H3.78A3.784 3.784 0 0 0 0 7.74v15.27a3.784 3.784 0 0 0 3.78 3.78h10.465v2.595H11.04a1.33 1.33 0 0 0-1.327 1.326c0 .73.597 1.327 1.327 1.327h9.071a1.33 1.33 0 0 0 1.327-1.327 1.33 1.33 0 0 0-1.327-1.326h-3.205v-2.594h2.962a1.33 1.33 0 0 0 1.327-1.327 1.33 1.33 0 0 0-1.327-1.326H3.781a1.127 1.127 0 0 1-1.128-1.128V7.741c0-.619.501-1.127 1.128-1.127h23.582c.619 0 1.128.501 1.128 1.127v5.594H26.84a3.208 3.208 0 0 0-3.206 3.206v12.292a3.208 3.208 0 0 0 3.206 3.206h5.962a1.33 1.33 0 0 0 1.326-1.327 1.33 1.33 0 0 0-1.326-1.326H26.84a.552.552 0 0 1-.553-.553V16.541c0-.303.243-.553.553-.553h5.962c.302 0 .552.243.552.553v9.278c0 .73.597 1.326 1.327 1.326S36 26.55 36 25.82V16.54a3.208 3.208 0 0 0-3.206-3.206z" fill="#222"/></svg>