<svg width="36" height="36" fill="none" xmlns="http://www.w3.org/2000/svg"><g clip-path="url(#clip0)" fill="#222"><path d="M35.24 12.412a1.402 1.402 0 0 0-.502-.732c-.27-.335-.58-.64-.926-.907L21.087.935a1.396 1.396 0 0 0-.117-.081 5.59 5.59 0 0 0-5.94 0c-.04.025-.08.052-.117.081L2.186 10.773a5.66 5.66 0 0 0-2.184 4.45v15.153a5.63 5.63 0 0 0 5.624 5.623h17.294a1.406 1.406 0 1 0 0-2.812H5.627a2.815 2.815 0 0 1-2.812-2.812V15.223c0-.865.408-1.696 1.092-2.225l12.663-9.79a2.793 2.793 0 0 1 2.86 0l12.269 9.485-12.264 9.278c-.891.53-1.982.53-2.873-.002l-8.335-6.24a1.406 1.406 0 1 0-1.685 2.25l8.388 6.28c.032.025.066.048.1.07.916.57 1.943.854 2.97.854a5.615 5.615 0 0 0 2.97-.855c.036-.022.071-.046.105-.072l12.107-9.159.003.126v2.92a1.406 1.406 0 1 0 2.812 0v-2.92c0-.993-.27-1.964-.758-2.811z"/><path d="M35.584 26.942l-4.152-4.144a2.098 2.098 0 0 0-2.962 0l-4.152 4.144a1.406 1.406 0 1 0 1.986 1.99l2.24-2.236v7.898a1.406 1.406 0 0 0 2.813 0v-7.898l2.24 2.236c.275.274.634.411.994.411s.72-.137.995-.412c.548-.55.548-1.44-.002-1.989z"/></g><defs><clipPath id="clip0"><path d="M0 0h36v36H0V0z" fill="#fff"/></clipPath></defs></svg>