<svg width="36" height="36" fill="none" xmlns="http://www.w3.org/2000/svg"><g clip-path="url(#clip0)"><path d="M32.983 4.506l-1.491-1.491a3.168 3.168 0 0 0-4.037-.364C21.7-.886 14.298-.886 8.545 2.65a3.168 3.168 0 0 0-4.037.364L3.016 4.506a3.161 3.161 0 0 0-.364 4.037c-3.536 5.754-3.536 13.157 0 18.91a3.168 3.168 0 0 0 .364 4.037l1.492 1.491a3.167 3.167 0 0 0 4.037.364A18.061 18.061 0 0 0 18 35.998c3.289 0 6.578-.885 9.455-2.653a3.167 3.167 0 0 0 4.037-.364l1.49-1.491a3.168 3.168 0 0 0 .365-4.037c3.536-5.753 3.536-13.156 0-18.91a3.161 3.161 0 0 0-.364-4.037zm-2.983 0l1.491 1.491c.413.413.413 1.08 0 1.492l-5.387 5.387a9.495 9.495 0 0 0-2.982-2.983l5.387-5.387a1.056 1.056 0 0 1 1.491 0zM18 25.45c-4.162 0-7.452-3.27-7.452-7.452 0-4.171 3.28-7.452 7.452-7.452 4.17 0 7.451 3.278 7.451 7.452 0 4.168-3.277 7.452-7.451 7.452zm7.87-21.287l-4.774 4.773A9.752 9.752 0 0 0 18 8.437c-1.055 0-2.081.165-3.048.483l-4.814-4.761c4.845-2.741 10.888-2.74 15.731.004zM4.507 5.997l1.49-1.49a1.057 1.057 0 0 1 1.496.003l5.42 5.361a9.488 9.488 0 0 0-3.02 3.005L4.509 7.489a1.054 1.054 0 0 1 0-1.492zm-.343 4.131l4.773 4.774a9.752 9.752 0 0 0-.5 3.096c0 1.072.172 2.115.5 3.096l-4.773 4.774c-2.746-4.846-2.746-10.894 0-15.74zM5.999 31.49l-1.491-1.491a1.056 1.056 0 0 1 0-1.492l5.387-5.387a9.487 9.487 0 0 0 3.019 3.005L7.49 31.49a1.056 1.056 0 0 1-1.491 0zm4.139.347l4.814-4.761a9.755 9.755 0 0 0 3.048.483 9.751 9.751 0 0 0 3.096-.5l4.773 4.774c-4.843 2.744-10.886 2.745-15.731.004zM31.492 30L30 31.489a1.056 1.056 0 0 1-1.491 0l-5.387-5.386a9.467 9.467 0 0 0 2.982-2.983l5.387 5.387c.412.412.412 1.08 0 1.492zm.342-4.131l-4.773-4.774c.328-.98.5-2.024.5-3.096a9.754 9.754 0 0 0-.5-3.097l4.773-4.773c2.746 4.846 2.746 10.894 0 15.74z" fill="#222"/></g><defs><clipPath id="clip0"><path d="M0 0h36v36H0V0z" fill="#fff"/></clipPath></defs></svg>