<svg width="36" height="36" fill="none" xmlns="http://www.w3.org/2000/svg"><path d="M30.523 11.907h-6.946v-4.98c0-2.456-.735-4.237-2.19-5.306C19.103-.056 16 .887 15.868.931l-.936.297v7.087c0 1.714-.935 3.236-2.783 4.534a1.34 1.34 0 0 0-.326 1.863 1.34 1.34 0 0 0 1.863.327c2.567-1.804 3.925-4.127 3.925-6.724v-5.01c.668-.059 1.551-.014 2.204.46.728.535 1.099 1.596 1.099 3.148v7.65h9.618c1.52 0 2.76 1.21 2.805 2.724L31.34 29.822l-.008.044c-.089.698-.349 2.828-3.6 2.828H12.765a2.667 2.667 0 0 1-2.664-2.665V17.636a4.116 4.116 0 0 0-4.111-4.111H4.11A4.116 4.116 0 0 0 0 17.636V30.35a4.116 4.116 0 0 0 4.111 4.11 1.34 1.34 0 0 0 1.336-1.335 1.34 1.34 0 0 0-1.336-1.336c-.794 0-1.44-.645-1.44-1.44V17.637c0-.794.646-1.44 1.44-1.44H5.99c.794 0 1.44.646 1.44 1.44V30.35c0 .103.014.215.037.311a5.345 5.345 0 0 0 5.298 4.713h14.954c1.514 0 2.865-.364 3.889-1.054 1.32-.883 2.137-2.3 2.36-4.097l2.01-12.608c.016-.074.023-.156.023-.23a5.482 5.482 0 0 0-5.477-5.477z" fill="#222"/></svg>