<svg width="36" height="36" fill="none" xmlns="http://www.w3.org/2000/svg"><g clip-path="url(#clip0)" fill="#222"><path d="M32.858 0H3.146A3.144 3.144 0 0 0 .002 3.144v29.712A3.144 3.144 0 0 0 3.146 36h29.712a3.144 3.144 0 0 0 3.144-3.144V3.144A3.144 3.144 0 0 0 32.858 0zm.744 32.856c0 .41-.334.744-.744.744H21.59V22.332c0-.41.334-.744.744-.744h11.268v11.268zM22.334 19.188a3.144 3.144 0 0 0-3.144 3.144V33.6h-7.245V12.688c0-.41.333-.744.743-.744h20.914v7.244H22.334zm-9.646-9.644a3.144 3.144 0 0 0-3.143 3.144V33.6H3.146a.745.745 0 0 1-.744-.744V3.144c0-.41.334-.744.744-.744h29.712c.41 0 .744.334.744.744v6.4H12.689z"/><path d="M5.293 6.69a1.5 1.5 0 1 0 0-3 1.5 1.5 0 0 0 0 3zM14.743 16.095a1.5 1.5 0 1 0 0-3 1.5 1.5 0 0 0 0 3zM24.272 25.772a1.5 1.5 0 1 0 0-3 1.5 1.5 0 0 0 0 3z"/></g><defs><clipPath id="clip0"><path d="M0 0h36v36H0V0z" fill="#fff"/></clipPath></defs></svg>