<svg width="36" height="36" fill="none" xmlns="http://www.w3.org/2000/svg"><path d="M35.622 3.26a1.406 1.406 0 0 0-1.03-.448h-5.705c.009-.458.013-.927.013-1.406C28.9.63 28.27 0 27.494 0H8.51c-.777 0-1.407.63-1.407 1.406 0 .48.005.948.014 1.406H1.408A1.406 1.406 0 0 0 .006 4.32c.008.112.217 2.792 2.019 6.24A23.133 23.133 0 0 0 6.103 16.1c2.021 2.043 4.48 3.814 7.305 5.266 1.298 1.537 2.518 3.001 3.188 4.916v2.286c-.728.201-1.719.516-2.717.96-3.624 1.616-4.385 3.646-4.385 5.065 0 .776.63 1.406 1.406 1.406h14.063c.776 0 1.406-.63 1.406-1.406 0-1.383-.745-3.375-4.297-5.017a19.848 19.848 0 0 0-2.664-.988v-2.413c.66-1.876 1.865-3.297 3.145-4.788 3.765-1.928 6.85-4.4 9.167-7.35a1.406 1.406 0 1 0-2.21-1.737 21.914 21.914 0 0 1-2.883 3.012c1.18-2.675 1.866-5.79 2.137-9.688h4.137c-.08.307-.18.653-.306 1.03a1.406 1.406 0 1 0 2.667.892c.621-1.858.724-3.093.733-3.228a1.406 1.406 0 0 0-.373-1.059zM4.586 9.386a17.284 17.284 0 0 1-1.484-3.761H7.24c.272 3.907.96 7.028 2.146 9.707-2.01-1.737-3.616-3.724-4.8-5.946zm18.075 23.801h-9.48c.6-.492 1.363-.873 1.805-1.071 1.218-.548 2.466-.874 3.01-1.002 1.426.35 3.494 1.127 4.665 2.073zm.072-16.572c-.671 1.03-1.439 1.923-2.251 2.869-.87 1.011-1.756 2.043-2.506 3.244-.749-1.198-1.627-2.238-2.488-3.257-.8-.947-1.555-1.84-2.217-2.857-2.192-3.36-3.212-7.539-3.341-13.802h16.144c-.129 6.263-1.15 10.442-3.34 13.803z" fill="#222"/><path d="M16.596 9.796v3.915a1.406 1.406 0 0 0 2.812 0V7.1a1.406 1.406 0 0 0-2.213-1.152l-2.109 1.477a1.406 1.406 0 0 0 1.51 2.37z" fill="#222"/></svg>