<svg width="44" height="44" fill="none" xmlns="http://www.w3.org/2000/svg"><g filter="url(#filter0_d)"><g clip-path="url(#clip0)"><path d="M7.173 21.872c-.846 3.842-.192 7.079 1.842 9.113 2.164 2.163 5.196 2.352 7.359 2.128a1.407 1.407 0 0 1 .289 2.798c-.562.058-1.114.086-1.653.086-1.281 0-2.494-.163-3.62-.489-1.707-.494-3.175-1.346-4.363-2.534-1.405-1.405-2.334-3.184-2.762-5.29-.399-1.961-.344-4.12.162-6.418.24-1.087.576-2.18 1.001-3.267a22.016 22.016 0 0 1-1-3.268c-.507-2.297-.562-4.456-.163-6.418.428-2.105 1.357-3.885 2.762-5.29 1.17-1.17 2.614-2.016 4.29-2.512 1.574-.467 3.318-.615 5.184-.44a1.406 1.406 0 0 1-.262 2.8c-2.12-.199-5.094.012-7.224 2.141-2.034 2.035-2.688 5.271-1.841 9.114l.045.195c1.287-2.2 2.925-4.317 4.857-6.248a32.103 32.103 0 0 1 3.684-3.168 1.406 1.406 0 0 1 1.664 2.267 29.28 29.28 0 0 0-3.36 2.89c-2.425 2.425-4.336 5.153-5.588 7.937 1.252 2.784 3.163 5.512 5.588 7.937a29.306 29.306 0 0 0 3.297 2.844 1.406 1.406 0 1 1-1.67 2.262 32.091 32.091 0 0 1-3.615-3.117c-1.932-1.932-3.57-4.049-4.857-6.248l-.046.195zm31.403-3.873c.425-1.088.76-2.18 1-3.268.507-2.297.562-4.457.163-6.418-.428-2.106-1.358-3.885-2.762-5.29-1.17-1.17-2.614-2.016-4.29-2.512-1.574-.467-3.318-.615-5.184-.44a1.406 1.406 0 1 0 .262 2.8c2.12-.198 5.094.012 7.224 2.141 2.034 2.035 2.688 5.271 1.841 9.114l-.045.195c-1.287-2.2-2.925-4.317-4.857-6.248a32.042 32.042 0 0 0-3.684-3.168 1.406 1.406 0 1 0-1.664 2.267 29.198 29.198 0 0 1 3.36 2.89c2.425 2.425 4.335 5.153 5.588 7.937-1.252 2.784-3.163 5.512-5.589 7.937a29.3 29.3 0 0 1-3.28 2.832 1.406 1.406 0 1 0 1.671 2.261 32.101 32.101 0 0 0 3.598-3.104c1.932-1.932 3.57-4.049 4.857-6.248l.045.195c.847 3.842.193 7.079-1.842 9.113-2.198 2.199-5.29 2.363-7.498 2.113a1.405 1.405 0 1 0-.316 2.794c.61.07 1.21.104 1.794.104 3.233 0 6.033-1.046 8.01-3.022 1.403-1.404 2.333-3.184 2.76-5.29.4-1.96.345-4.12-.162-6.418a22.022 22.022 0 0 0-1-3.267zM22.01 31.075a1.406 1.406 0 1 0 0 2.812 1.406 1.406 0 0 0 0-2.812zm.07-26.435a1.406 1.406 0 1 0 0-2.813 1.406 1.406 0 0 0 0 2.813zm4.584 14.697c-.61 1.024-1.139 1.91-1.139 2.84v1.74a2.733 2.733 0 0 1-2.11 2.657c-.04.744-.722 1.337-1.475 1.337-.753 0-1.299-.591-1.333-1.334a2.73 2.73 0 0 1-2.112-2.66v-1.74c0-.985-.612-1.988-1.26-3.05-.783-1.281-1.667-2.732-1.692-4.511l-.001-.04v-.038-.034c.02-1.707.739-3.195 2.028-4.2 1.157-.9 2.69-1.376 4.432-1.376 3.763 0 6.3 2.239 6.335 5.578V14.61c-.02 1.957-.897 3.428-1.673 4.728zm-5.357 3.09v1.406h1.406v-1.406h-1.406zm4.219-7.87c-.013-2.542-2.468-2.817-3.524-2.817-1.758 0-3.636.74-3.648 2.816.007 1.019.626 2.033 1.281 3.106.37.608.764 1.253 1.077 1.953h2.601c.278-.615.616-1.183.936-1.719.681-1.143 1.27-2.13 1.277-3.34z" fill="#222"/></g></g><defs><filter id="filter0_d" x="0" y="0" width="44" height="44" filterUnits="userSpaceOnUse" color-interpolation-filters="sRGB"><feFlood flood-opacity="0" result="BackgroundImageFix"/><feColorMatrix in="SourceAlpha" values="0 0 0 0 0 0 0 0 0 0 0 0 0 0 0 0 0 0 127 0"/><feOffset dy="4"/><feGaussianBlur stdDeviation="2"/><feColorMatrix values="0 0 0 0 0 0 0 0 0 0 0 0 0 0 0 0 0 0 0.25 0"/><feBlend in2="BackgroundImageFix" result="effect1_dropShadow"/><feBlend in="SourceGraphic" in2="effect1_dropShadow" result="shape"/></filter><clipPath id="clip0"><path d="M4 0h36v36H4V0z" fill="#fff"/></clipPath></defs></svg>