<svg width="36" height="36" fill="none" xmlns="http://www.w3.org/2000/svg"><g clip-path="url(#clip0)"><path d="M28.275 18.029h1.784A3.034 3.034 0 0 0 32.898 20a3.031 3.031 0 0 0 3.029-3.027 3.031 3.031 0 0 0-3.029-3.027c-1.3 0-2.41.822-2.839 1.972h-1.184a5.429 5.429 0 0 0-2.36-4.89l5.195-5.19A3.031 3.031 0 0 0 36 3.087 3.031 3.031 0 0 0 32.97.059a3.032 3.032 0 0 0-3.029 3.027c0 .45.1.876.276 1.26l-5.83 5.826a5.373 5.373 0 0 0-.89-.075c-1.28 0-2.504.463-3.463 1.268v-4.84a3.032 3.032 0 0 0 1.975-2.838A3.031 3.031 0 0 0 18.98.661a3.031 3.031 0 0 0-3.028 3.027c0 1.299.822 2.409 1.974 2.838v5.235a4.54 4.54 0 0 0-2.263.615l-5.589-4.7c.115-.32.178-.663.178-1.02a3.031 3.031 0 0 0-3.03-3.028 3.032 3.032 0 0 0-3.028 3.027 3.031 3.031 0 0 0 3.029 3.028 3.01 3.01 0 0 0 1.492-.395l4.213 3.544a4.056 4.056 0 0 0-3.61 3.087H5.9a3.034 3.034 0 0 0-2.84-1.972 3.031 3.031 0 0 0-3.028 3.027 3.031 3.031 0 0 0 3.029 3.027c1.299 0 2.41-.822 2.838-1.972h3.47a4.052 4.052 0 0 0 3.877 2.914h.363l-9.256 9.248A3.031 3.031 0 0 0 0 32.913a3.031 3.031 0 0 0 3.029 3.028 3.031 3.031 0 0 0 3.029-3.028c0-.424-.089-.829-.247-1.196l10.773-10.764.008-.01h1.334v6.927a3.032 3.032 0 0 0-1.974 2.838 3.031 3.031 0 0 0 3.029 3.027 3.031 3.031 0 0 0 3.028-3.027 3.032 3.032 0 0 0-1.974-2.838v-6.927h2.545c.024.024.049.048.076.07l7.033 5.916a3.031 3.031 0 0 0 2.851 4.047 3.031 3.031 0 0 0 3.03-3.027 3.031 3.031 0 0 0-3.03-3.027 3.01 3.01 0 0 0-1.491.395l-5.627-4.733a5.452 5.452 0 0 0 2.853-2.555zm4.623-1.973a.92.92 0 0 1 .92.918.92.92 0 0 1-1.84 0 .92.92 0 0 1 .92-.918zm.073-13.887a.92.92 0 0 1 .92.918.92.92 0 0 1-1.84 0 .92.92 0 0 1 .92-.918zM3.03 33.831a.92.92 0 0 1-.92-.918.92.92 0 0 1 1.84 0 .92.92 0 0 1-.92.918zm15.952-2.205a.92.92 0 0 1-.92-.918.92.92 0 0 1 1.84 0 .92.92 0 0 1-.92.918zm0-28.856a.92.92 0 0 1 .92.918.92.92 0 0 1-1.84 0 .92.92 0 0 1 .92-.918zM6.303 6.655a.92.92 0 0 1 1.84 0 .92.92 0 0 1-1.84 0zM3.061 17.892a.92.92 0 0 1-.92-.918.92.92 0 0 1 1.84 0 .92.92 0 0 1-.92.918zm29.48 9.14a.92.92 0 0 1 .919.917.92.92 0 0 1-1.839 0 .92.92 0 0 1 .92-.918zm-9.017-8.199a.92.92 0 0 0-.024 0H13.246a1.946 1.946 0 0 1-1.934-1.952c0-1.077.868-1.953 1.934-1.953.407 0 .796.127 1.126.366a1.054 1.054 0 0 0 1.509-.285 2.447 2.447 0 0 1 3.326-.79 1.055 1.055 0 0 0 1.456-.373 3.296 3.296 0 0 1 2.834-1.638c1.812 0 3.285 1.486 3.285 3.313 0 1.812-1.462 3.298-3.258 3.312z" fill="#222"/></g><defs><clipPath id="clip0"><path d="M0 0h36v36H0V0z" fill="#fff"/></clipPath></defs></svg>