<svg width="36" height="36" fill="none" xmlns="http://www.w3.org/2000/svg"><path d="M33.54 14.836h-3.938V3.586a2.464 2.464 0 0 0-2.461-2.461H10.969a2.464 2.464 0 0 0-2.461 2.46v7.032H2.46A2.464 2.464 0 0 0 0 13.077v9.845a2.464 2.464 0 0 0 2.46 2.46h1.83v4.22c0 .935 1.136 1.41 1.8.745l4.964-4.964h2.727v1.757a2.464 2.464 0 0 0 2.461 2.461h8.704l4.964 4.965c.66.66 1.8.194 1.8-.746v-4.219h1.83a2.464 2.464 0 0 0 2.46-2.46v-9.844a2.464 2.464 0 0 0-2.46-2.461zM10.616 3.586c0-.194.158-.352.352-.352H27.14c.194 0 .351.158.351.352v11.25h-6.328v-1.758a2.464 2.464 0 0 0-2.46-2.461h-8.087V3.586zm0 19.687c-.28 0-.548.111-.746.31l-3.473 3.472v-2.727c0-.583-.472-1.055-1.054-1.055H2.46a.352.352 0 0 1-.352-.351v-9.844c0-.194.158-.352.352-.352h16.242c.194 0 .352.158.352.352v9.844a.352.352 0 0 1-.352.351h-8.086zm23.274 3.867a.352.352 0 0 1-.352.352h-2.883c-.582 0-1.054.472-1.054 1.055v2.727L26.128 27.8a1.054 1.054 0 0 0-.745-.31h-9.14a.352.352 0 0 1-.352-.35v-1.758h2.812a2.464 2.464 0 0 0 2.461-2.461v-5.977H33.54c.194 0 .352.158.352.352v9.843z" fill="#222"/><path d="M10.617 19.054a1.055 1.055 0 1 0 0-2.109 1.055 1.055 0 0 0 0 2.11zM14.836 19.054a1.055 1.055 0 1 0 0-2.109 1.055 1.055 0 0 0 0 2.11zM6.398 19.054a1.055 1.055 0 1 0 0-2.109 1.055 1.055 0 0 0 0 2.11zM24.328 23.273a1.055 1.055 0 1 0 0-2.11 1.055 1.055 0 0 0 0 2.11zM28.547 23.273a1.055 1.055 0 1 0 0-2.11 1.055 1.055 0 0 0 0 2.11zM19.055 8.508a1.055 1.055 0 1 0 0-2.11 1.055 1.055 0 0 0 0 2.11zM23.273 8.508a1.055 1.055 0 1 0 0-2.11 1.055 1.055 0 0 0 0 2.11zM14.836 8.508a1.055 1.055 0 1 0 0-2.11 1.055 1.055 0 0 0 0 2.11z" fill="#222"/></svg>