<svg width="36" height="36" fill="none" xmlns="http://www.w3.org/2000/svg"><path d="M36 6.198a5.94 5.94 0 0 0-1.753-4.23l-.177-.177c-2.33-2.33-6.123-2.33-8.46 0L8.69 18.726a1.357 1.357 0 0 0-.385.799l-.828 7.572c-.045.4.096.799.384 1.087a1.33 1.33 0 0 0 1.087.385l7.573-.828c.303-.03.584-.17.799-.385l6.522-6.523a1.332 1.332 0 1 0-1.886-1.886l-6.19 6.19-5.464.592.591-5.465L27.495 3.676a3.325 3.325 0 0 1 4.696 0l.178.178a3.325 3.325 0 0 1 0 4.696l-4.12 4.12a1.334 1.334 0 0 0-.391.938l.007 19.073c0 .34-.28.62-.621.62H3.284a.625.625 0 0 1-.622-.62V8.72c0-.34.281-.621.621-.621H16.07c.732 0 1.331-.6 1.331-1.331 0-.732-.599-1.331-1.331-1.331H3.283A3.28 3.28 0 0 0 0 8.713v23.96a3.286 3.286 0 0 0 3.283 3.284h23.961a3.286 3.286 0 0 0 3.284-3.284l-.008-18.518 3.727-3.727A5.94 5.94 0 0 0 36 6.198z" fill="#222"/></svg>