<svg width="36" height="36" fill="none" xmlns="http://www.w3.org/2000/svg"><g clip-path="url(#clip0)"><path d="M35.723 24.713a1.406 1.406 0 0 1-2.704-.773c.24-.839.221-1.722-.055-2.555l-3.166-9.55a4.334 4.334 0 0 0-4.12-2.976H10.322a4.335 4.335 0 0 0-4.121 2.976l-3.166 9.55a4.367 4.367 0 0 0 .243 3.34 4.308 4.308 0 0 0 2.511 2.192 4.267 4.267 0 0 0 3.306-.26 4.386 4.386 0 0 0 2.181-2.54l.209-.628a4.31 4.31 0 0 1 4.097-2.959h4.833a4.31 4.31 0 0 1 4.098 2.959l.209.628c.59 1.78 2.283 3.022 4.12 3.022.352 0 .705-.044 1.049-.13a1.406 1.406 0 0 1 .683 2.728 7.06 7.06 0 0 1-5.886-1.14 7.202 7.202 0 0 1-2.636-3.595l-.208-.628a1.503 1.503 0 0 0-1.428-1.032h-4.833c-.65 0-1.224.415-1.43 1.032l-.207.628a7.181 7.181 0 0 1-3.572 4.16 7.056 7.056 0 0 1-5.47.424A7.1 7.1 0 0 1 .763 25.98 7.16 7.16 0 0 1 .367 20.5l3.166-9.55a7.142 7.142 0 0 1 6.79-4.903h15.354c3.09 0 5.819 1.97 6.79 4.903l3.167 9.55a7.119 7.119 0 0 1 .09 4.213zM24.68 11.11a1.406 1.406 0 1 0 0 2.812 1.406 1.406 0 0 0 0-2.812zm0 8.437a1.406 1.406 0 1 0 0-2.812 1.406 1.406 0 0 0 0 2.812zm-2.812-5.625a1.406 1.406 0 1 0 0 2.812 1.406 1.406 0 0 0 0-2.812zm5.624 2.813a1.406 1.406 0 1 0 0-2.812 1.406 1.406 0 0 0 0 2.812zm-16.17 2.812c.777 0 1.406-.63 1.406-1.406v-1.406h1.406a1.406 1.406 0 1 0 0-2.813h-1.406v-1.406a1.406 1.406 0 1 0-2.812 0v1.406H8.509a1.406 1.406 0 0 0 0 2.813h1.406v1.406c0 .776.63 1.406 1.406 1.406z" fill="#222"/></g><defs><clipPath id="clip0"><path d="M0 0h36v36H0V0z" fill="#fff"/></clipPath></defs></svg>