<svg width="22" height="22" fill="none" xmlns="http://www.w3.org/2000/svg"><g clip-path="url(#clip0)" fill="#222"><path d="M12.503 20.124c-.22.035-.443.062-.667.082V16.91c.173.005.346.011.517.019a.858.858 0 1 0 .081-1.713c-.197-.01-.397-.017-.598-.022v-3.358h3.326c-.018.417-.05.83-.094 1.236a.858.858 0 1 0 1.705.188c.052-.468.087-.944.106-1.424h3.366a8.798 8.798 0 0 1-.025.243.858.858 0 0 0 1.704.201c.05-.43.076-.867.076-1.301 0-2.933-1.142-5.69-3.215-7.764A10.907 10.907 0 0 0 11.02 0h-.043C8.046 0 5.29 1.142 3.216 3.215A10.907 10.907 0 0 0 0 10.98c0 2.932 1.142 5.689 3.215 7.763a10.907 10.907 0 0 0 7.764 3.215l.021-.001.021.001c.588 0 1.179-.047 1.755-.14a.858.858 0 0 0-.273-1.693zM1.756 11.836h3.322c.054 1.35.236 2.652.534 3.85-.807.163-1.554.364-2.221.6a9.208 9.208 0 0 1-1.635-4.45zm16.821-6.21a9.207 9.207 0 0 1 1.667 4.495H16.88a19.222 19.222 0 0 0-.543-3.889 16.639 16.639 0 0 0 2.241-.607zm-2.755-1.043a12.22 12.22 0 0 0-.498-1.144 9.854 9.854 0 0 0-.518-.914 9.29 9.29 0 0 1 2.542 1.694c-.473.138-.984.26-1.526.364zm-5.701 2.138v3.4H6.795c.055-1.279.234-2.502.525-3.612.893.113 1.834.185 2.8.212zM7.876 4.846c.092-.221.189-.435.291-.64.565-1.129 1.248-1.914 1.954-2.272v3.07a27.381 27.381 0 0 1-2.245-.158zm3.96-2.912c.707.358 1.39 1.143 1.954 2.272.103.205.2.419.292.64-.723.082-1.476.136-2.246.159v-3.07zM6.633 3.44c-.18.361-.347.744-.498 1.144-.53-.103-1.03-.22-1.493-.355a9.297 9.297 0 0 1 2.491-1.676c-.175.275-.342.57-.5.887zM5.622 6.232a19.215 19.215 0 0 0-.544 3.889H1.756a9.208 9.208 0 0 1 1.659-4.484 16.72 16.72 0 0 0 2.207.595zm.497 11.1c.155.415.327.812.514 1.187.158.316.325.611.5.886a9.296 9.296 0 0 1-2.527-1.71c.47-.138.976-.26 1.513-.364zm4.002 2.69c-.706-.357-1.39-1.142-1.954-2.27a10.33 10.33 0 0 1-.31-.684 27.248 27.248 0 0 1 2.264-.159v3.114zm0-4.829c-.969.027-1.914.1-2.812.215-.284-1.1-.46-2.309-.514-3.572h3.326v3.357zm1.715-8.472a28.645 28.645 0 0 0 2.801-.212c.291 1.11.47 2.333.525 3.612h-3.326v-3.4z"/><circle cx="18" cy="18" r="2"/></g><defs><clipPath id="clip0"><path d="M0 0h22v22H0V0z" fill="#fff"/></clipPath></defs></svg>