<svg width="36" height="36" fill="none" xmlns="http://www.w3.org/2000/svg"><g clip-path="url(#clip0)"><path d="M34.585 7.216a1.363 1.363 0 0 0-.085-.088l-5.874-5.581A5.6 5.6 0 0 0 24.753 0H11.284a5.602 5.602 0 0 0-3.865 1.538L1.511 7.125c-.03.028-.058.057-.085.087-.8.9-1.266 1.994-1.39 3.122a1.413 1.413 0 0 0-.028.362A5.613 5.613 0 0 0 1 14.142l13.58 20.107.039.054A4.18 4.18 0 0 0 18 36h.041a4.18 4.18 0 0 0 3.38-1.751l8.491-12.576a1.406 1.406 0 1 0-2.33-1.573l-7.163 10.608 4.656-18.679h7.892a2.831 2.831 0 0 1-.29.526l-1.155 1.71a1.406 1.406 0 1 0 2.33 1.573l1.15-1.704a5.611 5.611 0 0 0-.417-6.918zM17.902 2.947l3.635 6.27h-7.173l3.538-6.27zM3.492 9.122l5.86-5.541a2.8 2.8 0 0 1 1.931-.769h3.467l-3.615 6.405H3.414c.025-.032.051-.064.078-.095zm-.166 3.44l-.009-.014a2.832 2.832 0 0 1-.284-.519h7.828l4.704 18.652-12.239-18.12zm14.667 16.251L13.761 12.03h8.416l-4.184 16.784zm6.794-19.596l-3.713-6.405h3.679a2.8 2.8 0 0 1 1.936.773l5.826 5.535.08.097h-7.808z" fill="#C19851"/></g><defs><clipPath id="clip0"><path d="M0 0h36v36H0V0z" fill="#fff"/></clipPath></defs></svg>