<svg width="36" height="36" fill="none" xmlns="http://www.w3.org/2000/svg"><g clip-path="url(#clip0)"><path d="M24.398 36a4.267 4.267 0 0 1-3.83-2.377l-2.12-3.97-1.204 2.296c-.03.06-.066.116-.104.17-.79 1.095-2.089 1.485-3.05 1.485h-.023c-1.075-.007-2.145-.468-2.936-1.266a4.365 4.365 0 0 1-1.274-3.094V11.036c0-1.66.936-3.126 2.442-3.826a4.178 4.178 0 0 1 4.463.573l9.263 6.898a1.406 1.406 0 0 1-1.68 2.256l-9.294-6.922a1.474 1.474 0 0 1-.068-.053c-.636-.537-1.308-.29-1.5-.201-.19.089-.813.443-.813 1.275v18.208c0 .907.746 1.543 1.415 1.547h.007c.273 0 .574-.113.724-.267l2.374-4.53a1.406 1.406 0 0 1 1.24-.754h.005c.52 0 .996.285 1.24.743l3.386 6.34c.01.017.02.035.028.054a1.44 1.44 0 0 0 1.896.681c.352-.163.618-.454.749-.82.127-.354.11-.735-.045-1.076l-3.417-6.08a1.406 1.406 0 0 1 1.226-2.096h4.821c.816-.041 1.142-.684 1.223-.881.083-.203.308-.911-.274-1.529a1.406 1.406 0 0 1 2.046-1.93c1.154 1.225 1.472 2.958.83 4.525-.638 1.558-2.072 2.565-3.742 2.627l-.052.001H25.9l2.264 4.029c.014.024.027.05.04.075.501 1.034.564 2.2.178 3.282a4.215 4.215 0 0 1-2.217 2.426 4.207 4.207 0 0 1-1.768.389zM11.448 5.523c.68-.374.93-1.229.556-1.91l-1.195-2.18a1.406 1.406 0 1 0-2.466 1.353l1.195 2.18a1.406 1.406 0 0 0 1.91.557zM8.472 8.72a1.406 1.406 0 0 0-.724-1.852l-2.25-.984A1.406 1.406 0 0 0 4.37 8.461l2.25.984a1.407 1.407 0 0 0 1.852-.725zm8.765-4.548l.773-2.32a1.406 1.406 0 1 0-2.668-.89l-.773 2.32a1.406 1.406 0 1 0 2.668.89zM20.96 7.74l1.898-1.406a1.406 1.406 0 0 0-1.674-2.26L19.285 5.48a1.406 1.406 0 0 0 1.675 2.26zM5.598 15.65l2.11-.844a1.406 1.406 0 1 0-1.045-2.611l-2.11.844a1.406 1.406 0 0 0 1.045 2.611z" fill="#C19851"/></g><defs><clipPath id="clip0"><path d="M0 0h36v36H0V0z" fill="#fff"/></clipPath></defs></svg>