<svg width="36" height="36" fill="none" xmlns="http://www.w3.org/2000/svg"><path d="M28.898 36H7.031a5.631 5.631 0 0 1-5.625-5.625V5.625A5.631 5.631 0 0 1 7.031 0h21.867a5.631 5.631 0 0 1 5.625 5.625v17.719a1.406 1.406 0 1 1-2.812 0V5.625a2.816 2.816 0 0 0-2.813-2.813H7.031A2.816 2.816 0 0 0 4.22 5.626v24.75a2.816 2.816 0 0 0 2.812 2.813h21.867a2.816 2.816 0 0 0 2.813-2.813 1.406 1.406 0 1 1 2.812 0A5.631 5.631 0 0 1 28.898 36zm0-29.18a1.406 1.406 0 1 0-2.812 0 1.406 1.406 0 0 0 2.812 0zm0 5.625a1.406 1.406 0 1 0-2.812 0 1.406 1.406 0 0 0 2.812 0zm0 5.625a1.406 1.406 0 1 0-2.812 0 1.406 1.406 0 0 0 2.812 0zm0 5.625a1.406 1.406 0 1 0-2.812 0 1.406 1.406 0 0 0 2.812 0zm0 5.625a1.406 1.406 0 1 0-2.812 0 1.406 1.406 0 0 0 2.812 0zM9.844 6.82a1.406 1.406 0 1 0-2.813 0 1.406 1.406 0 0 0 2.813 0zm0 5.625a1.406 1.406 0 1 0-2.812 0 1.406 1.406 0 0 0 2.812 0zm0 5.625a1.406 1.406 0 1 0-2.812 0 1.406 1.406 0 0 0 2.812 0zm0 5.625a1.406 1.406 0 1 0-2.812 0 1.406 1.406 0 0 0 2.812 0zm0 5.625a1.406 1.406 0 1 0-2.812 0 1.406 1.406 0 0 0 2.812 0zm6.733-5.5l5.841-3.402a2.688 2.688 0 0 0 1.348-2.348c0-.979-.504-1.856-1.348-2.347l-5.841-3.402a2.669 2.669 0 0 0-2.701-.007 2.687 2.687 0 0 0-1.36 2.355v6.803c0 .985.508 1.865 1.36 2.355.421.242.883.363 1.344.363.466 0 .932-.124 1.357-.37zm-1.416-2.431zm5.7-3.319l-5.533 3.221V14.85l5.533 3.221z" fill="#C19851"/></svg>