<svg width="36" height="34" fill="none" xmlns="http://www.w3.org/2000/svg"><path d="M36 5.89v12.657l-.002.045c-.001.03-.002.059-.005.088-.002.023-.006.046-.01.069-.002.022-.005.044-.01.066-.004.025-.01.05-.017.074-.005.02-.009.04-.015.059-.007.024-.015.047-.024.071-.007.02-.013.04-.021.059l-.029.063-.03.062c-.01.019-.02.037-.032.055-.012.022-.024.043-.038.064-.011.017-.024.033-.036.05l-.045.06c-.014.018-.03.034-.045.05l-.046.052c-.021.021-.043.04-.066.06-.01.01-.02.021-.032.03l-.004.004-.043.033c-.02.015-.04.031-.062.046-.014.01-.03.019-.045.028-.022.014-.044.029-.067.041-.015.009-.031.016-.047.024a1.528 1.528 0 0 1-.07.034l-.05.02a1.142 1.142 0 0 1-.2.063l-.052.01c-.029.006-.057.01-.086.014l-.044.005a1.331 1.331 0 0 1-.132.007h-.001-.001c-.045 0-.09-.002-.134-.007h-.013c-.04-.005-.08-.011-.12-.019l-.024-.004a1.407 1.407 0 0 1-.11-.03l-.027-.007a1.417 1.417 0 0 1-.237-.1l-.011-.007a1.376 1.376 0 0 1-.213-.143l-.007-.006a1.444 1.444 0 0 1-.09-.082l-.015-.015a1.364 1.364 0 0 1-.076-.083l-.007-.008-6.898-8.229-5.75 7.29a1.406 1.406 0 0 1-2.207-1.741l6.82-8.649a1.406 1.406 0 0 1 2.182-.032l5.532 6.6V5.89a2.816 2.816 0 0 0-2.813-2.813H5.625a2.816 2.816 0 0 0-2.813 2.813v18.454l5.944-7.252a1.407 1.407 0 0 1 1.088-.515h.007c.423.002.824.195 1.089.526l3.164 3.937a1.406 1.406 0 0 1-2.192 1.762l-2.079-2.587-6.099 7.442c.5.455 1.163.733 1.891.733h6.75a1.406 1.406 0 1 1 0 2.812h-6.75A5.631 5.631 0 0 1 0 25.578V5.891A5.631 5.631 0 0 1 5.625.266h24.75A5.631 5.631 0 0 1 36 5.89zM9.844 5.329a4.223 4.223 0 0 1 4.219 4.219 4.223 4.223 0 0 1-4.22 4.219 4.223 4.223 0 0 1-4.218-4.22 4.223 4.223 0 0 1 4.219-4.218zm0 2.813c-.776 0-1.406.63-1.406 1.406 0 .775.63 1.406 1.406 1.406.775 0 1.406-.63 1.406-1.406 0-.775-.63-1.406-1.406-1.406zM36 25.473v3.726a4.54 4.54 0 0 1-4.535 4.535h-2.567c-.776 0-1.406-.63-1.406-1.406v-9.984c0-.777.63-1.407 1.406-1.407h2.567A4.54 4.54 0 0 1 36 25.474zm-2.813 0c0-.95-.772-1.723-1.722-1.723h-1.16v7.172h1.16c.95 0 1.723-.773 1.723-1.723v-3.726zm-9.562-4.535c-.777 0-1.406.629-1.406 1.406v3.586h-2.813v-3.586a1.406 1.406 0 1 0-2.812 0v9.984a1.406 1.406 0 1 0 2.812 0v-3.586h2.813v3.586a1.406 1.406 0 1 0 2.812 0v-9.984c0-.777-.63-1.407-1.406-1.407z" fill="#C19851"/></svg>