<svg width="26" height="26" fill="none" xmlns="http://www.w3.org/2000/svg"><path d="M13 9.615A3.392 3.392 0 0 0 9.615 13 3.392 3.392 0 0 0 13 16.384 3.392 3.392 0 0 0 16.385 13 3.392 3.392 0 0 0 13 9.615zM23.151 13c0-1.402.013-2.79-.066-4.19-.079-1.624-.45-3.067-1.637-4.255-1.191-1.19-2.631-1.559-4.256-1.638-1.402-.078-2.79-.066-4.19-.066-1.401 0-2.79-.012-4.189.066-1.625.08-3.067.45-4.255 1.638-1.191 1.19-1.56 2.63-1.638 4.256-.079 1.401-.066 2.79-.066 4.189s-.013 2.79.066 4.19c.079 1.624.45 3.067 1.638 4.255 1.19 1.19 2.63 1.559 4.255 1.638 1.402.078 2.79.066 4.19.066 1.401 0 2.79.012 4.189-.066 1.625-.08 3.067-.45 4.256-1.638 1.19-1.19 1.558-2.63 1.637-4.256.081-1.399.066-2.787.066-4.189zM13 18.208A5.2 5.2 0 0 1 7.792 13 5.2 5.2 0 0 1 13 7.792 5.2 5.2 0 0 1 18.208 13 5.2 5.2 0 0 1 13 18.208zm5.42-9.413a1.215 1.215 0 0 1-1.215-1.216c0-.673.543-1.216 1.216-1.216a1.215 1.215 0 0 1 .86 2.077 1.214 1.214 0 0 1-.86.355z" fill="#fff"/></svg>