<svg width="36" height="36" fill="none" xmlns="http://www.w3.org/2000/svg"><path d="M18 36C8.074 36 0 27.926 0 18S8.074 0 18 0s18 8.074 18 18-8.074 18-18 18zm0-33.75C9.315 2.25 2.25 9.315 2.25 18c0 8.685 7.065 15.75 15.75 15.75 8.685 0 15.75-7.065 15.75-15.75 0-8.685-7.065-15.75-15.75-15.75z" fill="#222"/><path d="M18 19.501a4.505 4.505 0 0 1-4.5-4.5c0-2.481 2.019-4.5 4.5-4.5s4.5 2.019 4.5 4.5-2.019 4.5-4.5 4.5zm0-6.75c-1.24 0-2.25 1.01-2.25 2.25s1.01 2.25 2.25 2.25 2.25-1.01 2.25-2.25-1.01-2.25-2.25-2.25z" fill="#222"/><path d="M18 25.5a1.125 1.125 0 0 1-1.125-1.125v-6a1.125 1.125 0 0 1 2.25 0v6c0 .621-.504 1.125-1.125 1.125z" fill="#222"/></svg>