<svg width="22" height="22" fill="none" xmlns="http://www.w3.org/2000/svg"><path d="M14.61 5.285h-3.653a.86.86 0 0 0 0 1.719h2.867l-5.22 5.22a3.416 3.416 0 0 0-1.772-.494H3.438A3.441 3.441 0 0 0 0 15.168v3.395A3.441 3.441 0 0 0 3.438 22h3.394a3.441 3.441 0 0 0 3.438-3.438v-3.394c0-.625-.17-1.212-.462-1.717l5.231-5.232v2.867a.86.86 0 1 0 1.719 0V7.434a2.15 2.15 0 0 0-2.149-2.149zM8.55 18.562a1.72 1.72 0 0 1-1.718 1.72H3.438a1.72 1.72 0 0 1-1.72-1.72v-3.394a1.72 1.72 0 0 1 1.72-1.719h3.394a1.72 1.72 0 0 1 1.719 1.719v3.395zM8.68.86a.86.86 0 1 1 1.718 0 .86.86 0 0 1-1.718 0zM5.5.86a.86.86 0 1 1 1.719 0A.86.86 0 0 1 5.5.86zm-3.18 0a.86.86 0 1 1 1.719 0 .86.86 0 0 1-1.719 0zM0 2.922a.86.86 0 1 1 1.719 0 .86.86 0 0 1-1.719 0zM22 18.82a.86.86 0 1 1-1.719 0 .86.86 0 0 1 1.719 0zm-2.063 2.32a.86.86 0 1 1-1.718 0 .86.86 0 0 1 1.718 0zm.344-17.96a.86.86 0 1 1 1.719 0 .86.86 0 0 1-1.719 0zM11.86.86a.86.86 0 1 1 1.72 0 .86.86 0 0 1-1.72 0zm4.899 0a.86.86 0 1 1-1.719 0 .86.86 0 0 1 1.719 0zm-3.18 20.28a.86.86 0 1 1-1.718 0 .86.86 0 0 1 1.718 0zm3.18 0a.86.86 0 1 1-1.719 0 .86.86 0 0 1 1.719 0zM22 9.41a.86.86 0 1 1-1.719 0 .86.86 0 0 1 1.719 0zm0-3.18a.86.86 0 1 1-1.719 0 .86.86 0 0 1 1.719 0zm-22 0a.86.86 0 1 1 1.719 0A.86.86 0 0 1 0 6.23zm22 6.36a.86.86 0 1 1-1.719 0 .86.86 0 0 1 1.719 0zm0 3.18a.86.86 0 1 1-1.719 0 .86.86 0 0 1 1.719 0zM0 9.41a.86.86 0 1 1 1.719 0A.86.86 0 0 1 0 9.41zM19.938.86a.86.86 0 1 1-1.72 0 .86.86 0 0 1 1.72 0z" fill="#222"/></svg>