<svg width="36" height="36" fill="none" xmlns="http://www.w3.org/2000/svg"><path d="M18 5.625c-4.846 0-8.789 3.943-8.789 8.79 0 4.845 3.943 8.788 8.789 8.788.819 0 1.63-.113 2.41-.335a1.406 1.406 0 1 0-.77-2.705 5.983 5.983 0 0 1-7.617-5.749A5.983 5.983 0 0 1 18 8.438a5.983 5.983 0 0 1 5.726 7.696 1.406 1.406 0 1 0 2.694.808c.245-.817.37-1.668.37-2.528 0-4.846-3.944-8.789-8.79-8.789z" fill="#222"/><path d="M28.187 4.216A14.32 14.32 0 0 0 18 0 14.32 14.32 0 0 0 7.813 4.216 14.322 14.322 0 0 0 3.586 14.4c.003 2.803.781 5.432 2.38 8.038 1.384 2.257 3.182 4.226 5.086 6.31 1.866 2.045 3.796 4.159 5.338 6.597.257.408.706.655 1.188.655h.844c.482 0 .93-.247 1.189-.655 1.541-2.438 3.471-4.552 5.338-6.596 1.903-2.085 3.701-4.054 5.085-6.311 1.599-2.606 2.377-5.236 2.38-8.04a14.32 14.32 0 0 0-4.227-10.182zm-5.315 22.636c-1.66 1.818-3.368 3.688-4.872 5.839-1.504-2.151-3.212-4.021-4.872-5.839-3.608-3.951-6.724-7.364-6.73-12.452C6.407 8.01 11.61 2.812 18 2.812c6.39 0 11.594 5.199 11.601 11.585-.005 5.09-3.12 8.504-6.73 12.455z" fill="#222"/></svg>