<svg width="215" height="40" fill="none" xmlns="http://www.w3.org/2000/svg"><path fill-rule="evenodd" clip-rule="evenodd" d="M21.1 11.1L17.6 0l10.3 10.4 7-.4-4.1 4.5L34.9 30l-7.8-10.5-9.5 13.1 4.7-16.3-13.7-2.5 12.5-2.7z" fill="#fff"/><path fill-rule="evenodd" clip-rule="evenodd" d="M17.6 0l-3.1 7.5-5.9 6.3 7.1 8.2 1.9 10.6 9.4-3.5 7.9.9-17.3 10L.3 30V10L17.6 0z" fill="url(#paint0_linear)"/><path fill-rule="evenodd" clip-rule="evenodd" d="M8.6 13.8l9 18.8L.3 30l8.3-16.2z" fill="url(#paint1_linear)"/><path fill-rule="evenodd" clip-rule="evenodd" d="M17.6 32.6L24.3 15 8.6 13.8l9 18.8z" fill="url(#paint2_linear)"/><path fill-rule="evenodd" clip-rule="evenodd" d="M27 17.2l-9.4 15.4L34.9 30 27 17.2z" fill="url(#paint3_linear)"/><path fill-rule="evenodd" clip-rule="evenodd" d="M8.6 13.8L.3 10v20l8.3-16.2z" fill="url(#paint4_linear)"/><path fill-rule="evenodd" clip-rule="evenodd" d="M28.8 14.2l6.1-4.2v20l-6.1-15.8z" fill="url(#paint5_linear)"/><path fill-rule="evenodd" clip-rule="evenodd" d="M17.6 0l6.1 12.2-15.1 1.6 9-13.8z" fill="url(#paint6_linear)"/><path fill-rule="evenodd" clip-rule="evenodd" d="M17.6 40v-7.4L34.9 30 17.6 40z" fill="url(#paint7_linear)"/><path fill-rule="evenodd" clip-rule="evenodd" d="M8.6 13.8L.3 10 17.6 0l-9 13.8z" fill="url(#paint8_linear)"/><path fill-rule="evenodd" clip-rule="evenodd" d="M27.6 11.5l7.3-1.5L17.6 0l10 11.5z" fill="url(#paint9_linear)"/><path fill-rule="evenodd" clip-rule="evenodd" d="M17.6 40v-7.4L.3 30l17.3 10z" fill="url(#paint10_linear)"/><path fill-rule="evenodd" clip-rule="evenodd" d="M197.4 10.1l-.5-.1h-4.7v20h4.7V17.1l5 7.1h3l5-7.1V30h4.7V10h-5l-.1.1-6.1 9.1-6-9.1zM61.7 14h-7.4v-4h19.4v4h-7.4v16h-4.7c.1-5.3.1-10.7.1-16zm115.6 7.5l-4.7 8.5h5.7L189 10h-5.4l-5 9.1-5.8-9.1H167l7.5 11.5h2.8zM77 10v20h4.7v-5.2h5.8c2.5 0 5.1-.8 6.7-2.9 1-1.3 1.4-2.9 1.4-4.5s-.4-3.2-1.4-4.5c-1.6-2.1-4.2-3-6.8-3-3.5.1-6.9.1-10.4.1zm4.7 3.9h5.4c1.3 0 2.6.4 3.4 1.6.4.6.6 1.2.6 1.9s-.2 1.3-.6 1.9c-.8 1.1-2.1 1.5-3.4 1.5h-5.4v-6.9zm67.6 9.1l9.7-12.9.1-.1h5.1v20h-4.7V17l-9.7 12.9-.1.1h-5.1V10h4.7v13zm-20.1-9h-7.4v-4h19.4v4h-7.4v16h-4.7c.1-5.3.1-10.7.1-16zm-25.5 9l9.7-12.9.1-.1h5.1v20h-4.7V17l-9.7 12.9-.1.1H99V10h4.7v13z" fill="#fff"/><defs><linearGradient id="paint0_linear" x1="20.87" y1="31.225" x2="3.332" y2="7.318" gradientUnits="userSpaceOnUse"><stop stop-color="#A30F19"/><stop offset="1" stop-color="#FF3D3D"/></linearGradient><linearGradient id="paint1_linear" x1="11.735" y1="33.842" x2="-3.877" y2="8.266" gradientUnits="userSpaceOnUse"><stop stop-color="#A30F19"/><stop offset="1" stop-color="#FF3D3D"/></linearGradient><linearGradient id="paint2_linear" x1="31.939" y1="36.62" x2="6.619" y2="7.009" gradientUnits="userSpaceOnUse"><stop stop-color="#A30F19"/><stop offset="1" stop-color="#FF3D3D"/></linearGradient><linearGradient id="paint3_linear" x1="25.51" y1="27.554" x2="22.338" y2="12.329" gradientUnits="userSpaceOnUse"><stop stop-color="#A30F19"/><stop offset="1" stop-color="#FF3D3D"/></linearGradient><linearGradient id="paint4_linear" x1="5.593" y1="20.954" x2="-4.678" y2="19.101" gradientUnits="userSpaceOnUse"><stop stop-color="#A30F19"/><stop offset="1" stop-color="#FF3D3D"/></linearGradient><linearGradient id="paint5_linear" x1="28.403" y1="20.967" x2="37.57" y2="19.613" gradientUnits="userSpaceOnUse"><stop stop-color="#A30F19"/><stop offset="1" stop-color="#FF3D3D"/></linearGradient><linearGradient id="paint6_linear" x1="10.931" y1="5.048" x2="27.1" y2="18.785" gradientUnits="userSpaceOnUse"><stop stop-color="#A30F19"/><stop offset="1" stop-color="#FF3D3D"/></linearGradient><linearGradient id="paint7_linear" x1="36.387" y1="18.408" x2="20.111" y2="39.167" gradientUnits="userSpaceOnUse"><stop stop-color="#A30F19"/><stop offset="1" stop-color="#FF3D3D"/></linearGradient><linearGradient id="paint8_linear" x1="19.09" y1="10.062" x2="7.298" y2="4.166" gradientUnits="userSpaceOnUse"><stop stop-color="#A30F19"/><stop offset="1" stop-color="#FF3D3D"/></linearGradient><linearGradient id="paint9_linear" x1="24.701" y1=".301" x2="28.024" y2="10.142" gradientUnits="userSpaceOnUse"><stop stop-color="#A30F19"/><stop offset="1" stop-color="#FF3D3D"/></linearGradient><linearGradient id="paint10_linear" x1="14.269" y1="29.723" x2="5.814" y2="38.14" gradientUnits="userSpaceOnUse"><stop stop-color="#A30F19"/><stop offset="1" stop-color="#FF3D3D"/></linearGradient></defs></svg>