<svg width="21" height="21" fill="none" xmlns="http://www.w3.org/2000/svg"><path d="M21 10.5C21 4.71 16.29 0 10.5 0a10.45 10.45 0 0 0-7.268 2.922.622.622 0 0 0 .861.898A9.212 9.212 0 0 1 10.5 1.244c5.104 0 9.256 4.152 9.256 9.256a9.23 9.23 0 0 1-2.432 6.252 9.28 9.28 0 0 1-6.824 3.004 9.282 9.282 0 0 1-6.607-2.776l.033-.132.027-.106c.014-.053.03-.105.046-.158l.029-.093c.019-.06.04-.12.061-.179l.024-.067c.06-.163.128-.322.201-.478l.035-.068c.026-.054.052-.108.08-.161l.046-.083.079-.14.053-.089.08-.129.06-.09.082-.12c.02-.03.043-.06.065-.09l.085-.115.07-.088.088-.109.075-.086c.03-.034.06-.07.092-.104l.078-.083.096-.1.082-.08.1-.094a6.116 6.116 0 0 1 1.453-.993 6.226 6.226 0 0 1 .231-.106l.109-.047.127-.05.11-.042.131-.045.112-.037.134-.04.113-.031.138-.035.112-.027.143-.028c.037-.008.074-.016.112-.022.049-.009.098-.016.148-.024l.11-.016c.051-.007.104-.012.157-.018.034-.003.069-.008.104-.01.058-.006.117-.01.175-.013l.089-.005a6.05 6.05 0 0 1 .266-.006h1.532c1.798 0 3.485.797 4.63 2.187a.622.622 0 1 0 .96-.791 7.224 7.224 0 0 0-3.723-2.397 3.966 3.966 0 0 0 1.342-2.975A3.98 3.98 0 0 0 10.5 4.392a3.98 3.98 0 0 0-3.975 3.975c0 1.183.52 2.246 1.342 2.975l-.061.016c-.086.024-.17.049-.254.075l-.031.01c-.095.03-.188.062-.28.096-.03.01-.058.022-.087.033a6.684 6.684 0 0 0-.19.075l-.103.044a7.495 7.495 0 0 0-.54.26 6.756 6.756 0 0 0-.156.086l-.1.058a7.388 7.388 0 0 0-.162.099l-.088.054a7.085 7.085 0 0 0-.198.133l-.045.03c-.08.056-.158.114-.235.173l-.067.052a7.894 7.894 0 0 0-.162.13l-.084.071-.137.12-.087.08a6.914 6.914 0 0 0-.336.333l-.08.086a7.255 7.255 0 0 0-.123.14l-.07.08a7.077 7.077 0 0 0-.141.174c-.015.018-.03.036-.043.054-.06.077-.119.156-.175.236l-.045.064a7.01 7.01 0 0 0-.12.18l-.06.092a7.21 7.21 0 0 0-.097.158l-.06.104a7.198 7.198 0 0 0-.353.704l-.045.103a7.268 7.268 0 0 0-.08.202l-.03.077-.005.012A9.228 9.228 0 0 1 1.244 10.5.622.622 0 0 0 0 10.5c0 2.633.98 5.152 2.759 7.093A10.528 10.528 0 0 0 10.5 21c2.935 0 5.756-1.242 7.741-3.407A10.47 10.47 0 0 0 21 10.5zM10.5 5.636a2.734 2.734 0 0 1 2.731 2.731 2.734 2.734 0 0 1-2.731 2.731 2.734 2.734 0 0 1-2.73-2.73 2.734 2.734 0 0 1 2.73-2.732z" fill="#C42C2C"/></svg>