<svg width="36" height="36" fill="none" xmlns="http://www.w3.org/2000/svg"><path d="M34.445.948A4.204 4.204 0 0 0 30.922.09L14.473 3.545a4.235 4.235 0 0 0-3.364 4.13v15.778a6.925 6.925 0 0 0-4.148-1.375A6.969 6.969 0 0 0 0 29.04 6.969 6.969 0 0 0 6.961 36c3.824 0 6.938-3.1 6.96-6.918V13.237L33.189 9.14v9.813a6.924 6.924 0 0 0-4.149-1.375 6.969 6.969 0 0 0-6.96 6.961 6.969 6.969 0 0 0 9.163 6.605 1.406 1.406 0 1 0-.89-2.668 4.153 4.153 0 0 1-5.462-3.937 4.153 4.153 0 0 1 4.15-4.148 4.153 4.153 0 0 1 4.148 4.148v.01a1.406 1.406 0 1 0 2.812 0V4.219A4.202 4.202 0 0 0 34.445.95zM6.961 33.188a4.153 4.153 0 0 1-4.148-4.149 4.153 4.153 0 0 1 4.148-4.148 4.153 4.153 0 0 1 4.148 4.148 4.153 4.153 0 0 1-4.148 4.149zM33.188 6.264l-19.266 4.098V7.676c0-.664.471-1.243 1.125-1.378l16.45-3.455a1.4 1.4 0 0 1 1.173.287 1.4 1.4 0 0 1 .518 1.09v2.044z" fill="#222"/></svg>