<svg width="36" height="36" fill="none" xmlns="http://www.w3.org/2000/svg"><g clip-path="url(#clip0)" fill="#222"><path d="M19.101 32.97h-2.183c-.727 0-1.323.596-1.323 1.324 0 .728.588 1.323 1.323 1.323h2.183c.728 0 1.323-.595 1.323-1.323s-.595-1.323-1.323-1.323zM11.413 28.362H9.23a1.322 1.322 0 1 0 0 2.646h2.183c.727 0 1.323-.595 1.323-1.323 0-.727-.596-1.323-1.323-1.323zM19.101 19.138h-2.183a1.322 1.322 0 1 0 0 2.646h2.183c.728 0 1.323-.595 1.323-1.323s-.595-1.323-1.323-1.323zM26.782 28.362H24.6c-.727 0-1.323.596-1.323 1.323 0 .728.596 1.323 1.323 1.323h2.183c.728 0 1.323-.595 1.323-1.323 0-.727-.595-1.323-1.323-1.323zM11.413 23.754H9.23a1.322 1.322 0 1 0 0 2.646h2.183c.727 0 1.323-.595 1.323-1.323s-.596-1.323-1.323-1.323zM19.101 28.362h-2.183a1.322 1.322 0 1 0 0 2.646h2.183c.728 0 1.323-.595 1.323-1.323 0-.727-.595-1.323-1.323-1.323zM26.782 23.754H24.6c-.727 0-1.323.595-1.323 1.323S23.872 26.4 24.6 26.4h2.183c.728 0 1.323-.595 1.323-1.323s-.595-1.323-1.323-1.323zM19.101 23.754h-2.183a1.322 1.322 0 1 0 0 2.646h2.183c.728 0 1.323-.595 1.323-1.323s-.595-1.323-1.323-1.323zM11.413 19.138H9.23a1.322 1.322 0 1 0 0 2.646h2.183c.727 0 1.323-.595 1.323-1.323s-.596-1.323-1.323-1.323zM26.782 19.138H24.6c-.727 0-1.323.595-1.323 1.323s.596 1.323 1.323 1.323h2.183c.728 0 1.323-.595 1.323-1.323s-.595-1.323-1.323-1.323zM34.75 5.952c-1.316-1.551-3.05-2.455-4.241-3C27.657 1.638 24.57.866 20.785.513c-4.572-.404-9.049.14-13.29 1.618h-.007c-1.624.58-3.72 1.44-5.49 2.998C.6 6.363-.069 7.878.004 9.627c0 .022 0 .044.008.066.059.625.044 1.272.037 1.948-.008.287-.008.58-.008.882v.022c.044 2.183 1.522 3.646 3.675 3.646h5.168c1.036.022 1.933-.316 2.594-.963.676-.662 1.037-1.58 1.037-2.654V9.847c0-.727-.596-1.323-1.323-1.323-.728 0-1.323.596-1.323 1.323v2.727c0 .243-.045.566-.236.765-.183.176-.485.213-.705.205H3.71c-.706 0-1.007-.308-1.029-1.043 0-.265.007-.537.007-.816.015-.713.022-1.448-.044-2.198-.03-.94.309-1.676 1.103-2.374C5.173 5.856 6.967 5.128 8.37 4.63c3.888-1.353 7.99-1.853 12.18-1.478 3.469.324 6.284 1.022 8.857 2.205 1.543.706 2.572 1.419 3.322 2.301.434.522.64 1.08.64 1.764v3.197c-.023.882-.567.985-.971.985h-.044c-.544.022-1.088.015-1.669.008-.294 0-.595-.008-.904-.008h-2.558c-.757 0-1.029-.272-1.029-1.029 0-.294 0-.544-.007-.779a26.828 26.828 0 0 1 .03-1.845v-.073c0-1.162-.794-1.559-1.059-1.69-.03-.015-.059-.03-.088-.038-1.176-.485-2.44-.793-4.102-.984h-.014c-2.073-.214-3.97-.214-5.814-.008-.728.081-1.25.743-1.162 1.463.081.728.743 1.25 1.463 1.161 1.64-.19 3.352-.184 5.226.008 1.154.132 2.065.323 2.874.602a30.85 30.85 0 0 0-.007 1.419c0 .228.007.478.007.757 0 2.234 1.44 3.675 3.675 3.675h2.558c.294 0 .588 0 .875.007.286 0 .58.008.874.008.294 0 .596 0 .89-.015 2.073-.015 3.543-1.485 3.587-3.587V9.414a5.15 5.15 0 0 0-1.25-3.462z"/></g><defs><clipPath id="clip0"><path d="M0 0h36v36H0V0z" fill="#fff"/></clipPath></defs></svg>