<svg width="36" height="36" fill="none" xmlns="http://www.w3.org/2000/svg"><path d="M34.755 27.665a4.247 4.247 0 0 0 0-6.009 4.247 4.247 0 0 0-6.009 0l-2.255 2.255a1.61 1.61 0 0 1-2.27 0l-4.025-4.033c-.25-.25-.587-.389-.933-.389a1.3 1.3 0 0 0-.933.39 5.794 5.794 0 0 1-4.128 1.711 5.794 5.794 0 0 1-4.128-1.712l-3.643-3.643 8.249-8.249 3.643 3.644a5.811 5.811 0 0 1 1.697 3.782 1.327 1.327 0 0 0 1.322 1.25h.081a1.322 1.322 0 0 0 1.241-1.396 8.453 8.453 0 0 0-2.468-5.502L16.553 6.12l.404-.404a1.33 1.33 0 0 0 0-1.873 1.33 1.33 0 0 0-1.873 0L12.49 6.436 7.996 1.941a1.33 1.33 0 0 0-1.874 0 1.33 1.33 0 0 0 0 1.873l4.496 4.495-3.864 3.864L2.26 7.678a1.33 1.33 0 0 0-1.873 0 1.33 1.33 0 0 0 0 1.873l4.502 4.495-2.593 2.593a1.33 1.33 0 0 0 0 1.873c.258.257.595.39.933.39.338 0 .676-.133.933-.39l.404-.404 3.644 3.644a8.424 8.424 0 0 0 5.993 2.482 8.385 8.385 0 0 0 4.988-1.623l3.166 3.166a4.232 4.232 0 0 0 3.004 1.241 4.232 4.232 0 0 0 3.004-1.241l2.255-2.255a1.61 1.61 0 0 1 2.27 0 1.61 1.61 0 0 1 0 2.27l-2.255 2.255c-.8.8-1.241 1.865-1.241 3.004s.44 2.204 1.241 3.004c.257.257.595.39.933.39.338 0 .676-.133.933-.39a1.33 1.33 0 0 0 0-1.873 1.595 1.595 0 0 1 0-2.262l2.255-2.255z" fill="#222"/></svg>