<svg width="36" height="36" fill="none" xmlns="http://www.w3.org/2000/svg"><path d="M18 25.383c4.07 0 7.383-3.312 7.383-7.383a1.406 1.406 0 1 0-2.813 0c0 2.52-2.05 4.57-4.57 4.57-2.52 0-4.57-2.05-4.57-4.57V7.383c0-2.52 2.05-4.57 4.57-4.57 2.52 0 4.57 2.05 4.57 4.57v3.586a1.406 1.406 0 0 0 2.813 0V7.383C25.383 3.312 22.07 0 18 0c-4.07 0-7.383 3.312-7.383 7.383V18c0 4.07 3.312 7.383 7.383 7.383z" fill="#222"/><path d="M31.008 18a1.406 1.406 0 1 0-2.813 0c0 5.622-4.573 10.195-10.195 10.195S7.805 23.622 7.805 18a1.406 1.406 0 1 0-2.813 0c0 6.698 5.088 12.229 11.602 12.932v2.256h-4.149a1.406 1.406 0 1 0 0 2.812h11.25a1.406 1.406 0 1 0 0-2.813h-4.289v-2.255C25.92 30.23 31.008 24.698 31.008 18z" fill="#222"/></svg>