<svg width="22" height="22" fill="none" xmlns="http://www.w3.org/2000/svg"><path d="M16.8 16.2V1.933A1.936 1.936 0 0 0 14.868 0H7.133a1.936 1.936 0 0 0-1.934 1.934v14.265C5.2 19.398 7.801 22 11 22c3.199 0 5.8-2.602 5.8-5.8zm-10.312 0V1.933c0-.356.29-.645.645-.645h7.734c.356 0 .645.29.645.645v14.265A4.517 4.517 0 0 1 11 20.711a4.517 4.517 0 0 1-4.512-4.512z" fill="#222"/><path d="M14.223 16.2A3.226 3.226 0 0 0 11 12.976a3.226 3.226 0 0 0-3.223 3.222A3.226 3.226 0 0 0 11 19.422a3.226 3.226 0 0 0 3.223-3.223zm-5.157 0c0-1.067.868-1.934 1.934-1.934 1.066 0 1.934.867 1.934 1.933A1.936 1.936 0 0 1 11 18.133a1.936 1.936 0 0 1-1.934-1.934zM8.422 9.066H9.71a.645.645 0 0 0 0-1.289H8.42a.645.645 0 0 0 0 1.29zM12.29 9.066h1.288a.645.645 0 1 0 0-1.289H12.29a.645.645 0 1 0 0 1.29zM8.422 6.488H9.71a.645.645 0 0 0 0-1.289H8.42a.645.645 0 0 0 0 1.29zM12.29 6.488h1.288a.645.645 0 1 0 0-1.289H12.29a.645.645 0 1 0 0 1.29zM12.29 11.645h1.288a.645.645 0 1 0 0-1.29H12.29a.645.645 0 1 0 0 1.29zM8.422 11.645H9.71a.645.645 0 1 0 0-1.29H8.42a.644.644 0 1 0 0 1.29z" fill="#222"/><path d="M11 16.844a.645.645 0 1 0 0-1.29.645.645 0 0 0 0 1.29zM8.422 3.91a.645.645 0 1 0 0-1.289.645.645 0 0 0 0 1.29zM13.578 3.91a.645.645 0 1 0 0-1.289.645.645 0 0 0 0 1.29z" fill="#222"/></svg>