<svg width="22" height="22" fill="none" xmlns="http://www.w3.org/2000/svg"><path d="M17.703 10.742a.86.86 0 0 0 .86-.86V6.444a.86.86 0 0 0-.86-.86H4.297a.86.86 0 0 0-.86.86v9.11c0 .474.385.859.86.859h13.406a.86.86 0 0 0 .86-.86v-1.33a.86.86 0 1 0-1.72 0v.471H5.157v-7.39h11.688v2.58c0 .475.384.86.86.86z" fill="#222"/><path d="M5.156 18.133H3.438a1.72 1.72 0 0 1-1.72-1.719V5.586a1.72 1.72 0 0 1 1.72-1.719h1.718a.86.86 0 1 0 0-1.719H3.438A3.441 3.441 0 0 0 0 5.586v10.828a3.441 3.441 0 0 0 3.438 3.438h1.718a.86.86 0 0 0 0-1.72zM18.563 2.148h-1.72a.86.86 0 1 0 0 1.72h1.72a1.72 1.72 0 0 1 1.718 1.718v10.828a1.72 1.72 0 0 1-1.718 1.719h-1.72a.86.86 0 1 0 0 1.719h1.72A3.441 3.441 0 0 0 22 16.414V5.586a3.441 3.441 0 0 0-3.438-3.438z" fill="#222"/></svg>