<svg width="36" height="36" fill="none" xmlns="http://www.w3.org/2000/svg"><path d="M33.076 1.106H2.924A2.933 2.933 0 0 0 0 4.037v22.364a2.935 2.935 0 0 0 2.931 2.932h13.747v2.916h-4.24c-.727 0-1.322.596-1.322 1.323s.595 1.322 1.322 1.322h11.124c.727 0 1.322-.595 1.322-1.322 0-.727-.595-1.323-1.322-1.323h-4.24V28.01c0-.727-.595-1.322-1.322-1.322H2.924a.287.287 0 0 1-.286-.287V4.037c0-.154.124-.286.286-.286H33.07c.154 0 .286.125.286.286v22.364a.287.287 0 0 1-.286.287h-8.31c-.727 0-1.322.595-1.322 1.322 0 .728.595 1.323 1.322 1.323h8.31A2.935 2.935 0 0 0 36 26.4V4.037a2.933 2.933 0 0 0-2.924-2.931z" fill="#222"/><path d="M25.134 9.386a5.514 5.514 0 0 0-3.916-1.624c-1.168 0-2.285.36-3.218 1.029a5.516 5.516 0 0 0-3.225-1.036 5.496 5.496 0 0 0-3.916 1.623 5.5 5.5 0 0 0-1.624 3.924c0 1.476.58 2.865 1.624 3.916l5.745 5.745c.375.367.867.573 1.389.573.521 0 1.02-.206 1.388-.573l5.738-5.738a5.499 5.499 0 0 0 1.639-3.916 5.5 5.5 0 0 0-1.624-3.923zm-1.874 5.966l-5.253 5.253-5.267-5.268a2.903 2.903 0 0 1-.007-4.1 2.873 2.873 0 0 1 2.042-.845c.771 0 1.506.302 2.05.853l.235.235a1.312 1.312 0 0 0 1.866 0l.228-.228a2.88 2.88 0 0 1 2.05-.852c.77 0 1.498.3 2.042.845.543.543.845 1.27.845 2.05a2.78 2.78 0 0 1-.83 2.056z" fill="#222"/></svg>