<svg width="26" height="26" fill="none" xmlns="http://www.w3.org/2000/svg"><path fill-rule="evenodd" clip-rule="evenodd" d="M24.614 6.703c.18-.573 0-.99-.8-.99h-2.66c-.67 0-.98.366-1.16.756 0 0-1.369 3.33-3.28 5.49-.619.625-.903.833-1.238.833-.181 0-.414-.208-.414-.78V6.676c0-.676-.206-.989-.774-.989h-4.183c-.413 0-.67.313-.67.625 0 .65.954.807 1.057 2.629v3.957c0 .86-.152 1.016-.49 1.016-.904 0-3.098-3.357-4.414-7.182-.256-.758-.516-1.045-1.187-1.045H1.716c-.775 0-.903.365-.903.755 0 .703.903 4.242 4.207 8.926 2.194 3.2 5.318 4.919 8.132 4.919 1.704 0 1.91-.39 1.91-1.041v-2.42c0-.781.155-.911.697-.911.387 0 1.085.207 2.66 1.743 1.806 1.822 2.116 2.654 3.123 2.654H24.2c.774 0 1.136-.39.93-1.145-.233-.754-1.111-1.847-2.247-3.148-.62-.728-1.549-1.535-1.833-1.926-.387-.52-.284-.728 0-1.197-.025 0 3.228-4.632 3.563-6.195" fill="#fff"/></svg>