<svg width="36" height="36" fill="none" xmlns="http://www.w3.org/2000/svg"><path d="M17.132 9.377a2.715 2.715 0 0 0-2.746-.005 2.725 2.725 0 0 0-1.378 2.387v7.006c0 .998.515 1.89 1.378 2.387.43.247.9.37 1.37.37.472 0 .945-.125 1.376-.375l6.037-3.502a2.726 2.726 0 0 0 1.37-2.383c0-.994-.512-1.884-1.37-2.382l-6.037-3.503zm-1.312 9.28v-6.79l5.85 3.395-5.85 3.395z" fill="#222"/><path d="M34.594 16.598c.776 0 1.406-.63 1.406-1.406V8.16a5.631 5.631 0 0 0-5.625-5.625H5.625A5.631 5.631 0 0 0 0 8.16v14.062a5.631 5.631 0 0 0 5.625 5.625h10.969v2.804h-4.922a1.406 1.406 0 1 0 0 2.813h12.656a1.406 1.406 0 1 0 0-2.813h-4.922v-2.804h10.969A5.631 5.631 0 0 0 36 22.223a1.406 1.406 0 0 0-2.813 0 2.816 2.816 0 0 1-2.812 2.813H5.625a2.816 2.816 0 0 1-2.813-2.813V8.161a2.816 2.816 0 0 1 2.813-2.813h24.75a2.816 2.816 0 0 1 2.813 2.813v7.03c0 .778.63 1.407 1.406 1.407z" fill="#222"/></svg>