<svg width="36" height="36" fill="none" xmlns="http://www.w3.org/2000/svg"><g clip-path="url(#clip0)" fill="#FF9737"><path d="M7.081 19.322c-.919 1.807.125 2.671 2.507 4.147 2.025 1.251 4.823 1.708 6.62 1.891l-7.082 6.812c-2.061 1.976 1.257 5.145 3.317 3.212l5.575-5.378c2.134 2.053 4.18 4.022 5.575 5.385 2.061 1.941 5.378-1.201 3.34-3.212-.154-.145-7.556-7.246-7.105-6.811 1.82-.183 4.576-.667 6.576-1.891l-.001-.002c2.382-1.483 3.426-2.346 2.52-4.153-.547-1.026-2.023-1.884-3.988-.4 0 0-2.654 2.032-6.933 2.032-4.281 0-6.933-2.033-6.933-2.033-1.964-1.49-3.446-.625-3.988.4z"/><path d="M17.998 18.213c5.217 0 9.477-4.077 9.477-9.096 0-5.04-4.26-9.117-9.477-9.117C12.78 0 8.52 4.077 8.52 9.117c0 5.019 4.26 9.096 9.478 9.096zm0-13.595c2.564 0 4.655 2.012 4.655 4.499 0 2.466-2.091 4.477-4.655 4.477-2.563 0-4.654-2.011-4.654-4.477-.002-2.489 2.09-4.499 4.654-4.499z"/></g><defs><clipPath id="clip0"><path d="M0 0h36v36H0V0z" fill="#fff"/></clipPath></defs></svg>