<svg width="36" height="36" fill="none" xmlns="http://www.w3.org/2000/svg"><path fill-rule="evenodd" clip-rule="evenodd" d="M34.08 9.281c.25-.793 0-1.37-1.107-1.37h-3.682c-.929 0-1.358.505-1.608 1.045 0 0-1.895 4.613-4.54 7.603-.858.865-1.25 1.153-1.715 1.153-.25 0-.573-.288-.573-1.08V9.244c0-.937-.285-1.369-1.072-1.369h-5.79c-.573 0-.93.432-.93.865 0 .9 1.322 1.117 1.465 3.64v5.48c0 1.188-.211 1.406-.68 1.406-1.25 0-4.288-4.649-6.11-9.945-.355-1.05-.715-1.446-1.645-1.446H2.376c-1.072 0-1.251.504-1.251 1.045 0 .973 1.25 5.873 5.826 12.359 3.038 4.43 7.363 6.81 11.26 6.81 2.359 0 2.644-.54 2.644-1.441v-3.351c0-1.081.215-1.261.966-1.261.536 0 1.501.287 3.681 2.414 2.502 2.522 2.931 3.675 4.325 3.675h3.682c1.072 0 1.573-.54 1.287-1.585-.322-1.045-1.538-2.558-3.11-4.36-.858-1.008-2.145-2.125-2.538-2.666-.536-.72-.393-1.01 0-1.657-.036 0 4.468-6.414 4.933-8.579" fill="#447DB3"/></svg>