<svg width="178" height="56" viewBox="0 0 178 56" fill="none" xmlns="http://www.w3.org/2000/svg">
<path fill-rule="evenodd" clip-rule="evenodd" d="M66.847 15.2919C66.8458 15.2934 66.8447 15.2949 66.8437 15.2966C66.8226 15.3297 66.8003 15.362 66.7757 15.3927C66.7732 15.3956 66.7706 15.3981 66.7681 15.401C66.7464 15.427 66.7233 15.4516 66.6991 15.4752C66.689 15.4851 66.6785 15.4944 66.668 15.5038C66.6498 15.5201 66.6309 15.5357 66.6114 15.5506L66.6069 15.5541C66.5978 15.5612 66.5886 15.5683 66.5791 15.575C66.5499 15.5956 66.5199 15.615 66.4885 15.6323L66.4862 15.6338C66.453 15.6519 66.4185 15.6677 66.3832 15.682L66.3729 15.6859L66.3575 15.6915C66.3304 15.7017 66.3027 15.7107 66.2744 15.7184C66.2643 15.7212 66.2542 15.7239 66.244 15.7263C66.2163 15.7329 66.1883 15.7381 66.1597 15.7423C66.1498 15.7438 66.14 15.7456 66.1301 15.7468C66.0948 15.7509 66.0591 15.7533 66.0228 15.7536L66.0195 15.7538L66.0161 15.754L66.0143 15.7539H56.6902L52.2739 29.8747L52.2699 29.8874C52.2695 29.8889 52.2689 29.8902 52.2682 29.8916L52.2675 29.8932L52.2665 29.8959L52.2642 29.9026L52.2595 29.917C52.2559 29.9282 52.2521 29.9393 52.2479 29.9503L52.2454 29.9562C52.2438 29.9604 52.2421 29.9646 52.2403 29.9687L52.2345 29.9817L52.2298 29.9921L52.2223 30.0093C52.2183 30.0182 52.2143 30.0271 52.21 30.0357L52.2073 30.0412L52.2063 30.043C52.2035 30.0484 52.2006 30.0538 52.1975 30.0592L52.1924 30.0683L52.1866 30.0786L52.1826 30.0857C52.1768 30.0959 52.1711 30.1062 52.1649 30.1162L52.1582 30.1268C52.1529 30.1351 52.1471 30.1433 52.1413 30.1514L52.1357 30.1595L52.1327 30.164L52.1277 30.1712L52.1228 30.1785L52.1131 30.1912L52.109 30.1966L52.1009 30.2071C52.0979 30.2109 52.0948 30.2147 52.0916 30.2184L52.0782 30.2339L52.0626 30.2522L52.0545 30.2614L52.0351 30.2822L52.0271 30.2907C52.0251 30.2927 52.0231 30.2945 52.021 30.2963L52.0158 30.301L52.0143 30.3024L52.0091 30.3074L52.0091 30.3075L52.009 30.3075L52.0089 30.3076L52.0089 30.3076C52.0023 30.314 51.9956 30.3204 51.9888 30.3267C51.98 30.3347 51.9713 30.3426 51.9621 30.3502L51.9585 30.3535L51.9549 30.3568C51.9535 30.358 51.9521 30.3589 51.9507 30.3598L51.9487 30.3611L51.947 30.3623C51.9366 30.3708 51.9262 30.3791 51.9154 30.387C51.9119 30.3897 51.9086 30.3926 51.905 30.3951C51.899 30.3995 51.8928 30.4035 51.8866 30.4076L51.8769 30.414C51.8691 30.4193 51.8613 30.4244 51.8534 30.4293L51.8331 30.4418C51.8299 30.4437 51.8268 30.4457 51.8237 30.4477C51.8202 30.45 51.8167 30.4523 51.8131 30.4543L51.8105 30.4557L51.808 30.4569L51.8041 30.4588L51.7987 30.4614C51.7802 30.4715 51.7615 30.4808 51.7425 30.4896C51.7396 30.4909 51.7369 30.4924 51.7341 30.4939C51.7308 30.4956 51.7275 30.4974 51.724 30.4989L27.9263 40.9461L20.7437 55.451C20.7421 55.4542 20.7399 55.4569 20.7383 55.4601C20.7183 55.4996 20.6964 55.5377 20.6716 55.5737C20.6709 55.5746 20.67 55.5756 20.6693 55.5766C20.6464 55.6095 20.6212 55.6404 20.5947 55.6701L20.5884 55.6772C20.5841 55.6821 20.5798 55.6869 20.5755 55.6915C20.5491 55.7195 20.5213 55.7458 20.4921 55.7703C20.4874 55.7742 20.4826 55.778 20.4778 55.7817L20.4687 55.7887C20.4424 55.8094 20.4151 55.8288 20.3868 55.8468C20.3808 55.8507 20.375 55.8549 20.3688 55.8586C20.3351 55.879 20.3001 55.897 20.2642 55.9132L20.2476 55.9203L20.2428 55.9223C20.1686 55.9537 20.0902 55.976 20.009 55.9882L19.9964 55.99L19.9856 55.9914C19.9458 55.9964 19.9053 55.9999 19.8647 55.9999L19.8632 56C19.8179 56 19.7724 55.9956 19.7269 55.9891C19.7227 55.9886 19.7186 55.9889 19.7144 55.9882C19.707 55.987 19.6998 55.9854 19.6925 55.9838C19.6876 55.9826 19.6826 55.9815 19.6776 55.9805L19.6652 55.9781C19.6528 55.9757 19.6404 55.9733 19.628 55.9702C19.603 55.964 19.5786 55.9563 19.5545 55.9482L19.5433 55.9448L19.5432 55.9448L19.5364 55.9427L19.528 55.9399C19.4927 55.9269 19.4585 55.9121 19.4253 55.8954L19.4241 55.8949L19.4184 55.8916L19.4139 55.8891C19.3887 55.8759 19.3641 55.8622 19.3404 55.8471C19.3351 55.8438 19.33 55.8402 19.3249 55.8366L19.3128 55.828C19.2958 55.8164 19.2787 55.8049 19.2626 55.7921C19.2545 55.7859 19.2468 55.7793 19.2391 55.7726L19.2243 55.7597L19.204 55.7422L19.1953 55.7344L19.1911 55.7306C19.1779 55.718 19.1655 55.7048 19.1531 55.6915L19.153 55.6915L19.153 55.6914L19.1502 55.6885L19.1404 55.678C19.1354 55.6728 19.1304 55.6676 19.1257 55.6621L19.1166 55.6514L19.1054 55.6376L19.101 55.632L19.0881 55.6153L19.0821 55.6075L19.0815 55.6068C19.0764 55.6003 19.0713 55.5937 19.0665 55.5869C19.0554 55.5716 19.0455 55.5557 19.0355 55.5398L19.0283 55.5285C19.0235 55.521 19.0187 55.5134 19.0143 55.5057C19.006 55.4912 18.9987 55.4764 18.9911 55.4616L18.9885 55.4566L18.9885 55.4565L18.9786 55.4371C18.9756 55.4311 18.9727 55.4251 18.97 55.4191C18.9641 55.4062 18.9591 55.393 18.9538 55.3799L18.9529 55.3775C18.9464 55.3614 18.9399 55.3453 18.9343 55.3289C18.9312 55.3199 18.9286 55.3108 18.9259 55.3017L18.9234 55.2929C18.9179 55.2742 18.9123 55.2557 18.9078 55.2366L18.9057 55.2271L18.903 55.2133L18.9003 55.1993L18.8993 55.194C18.8959 55.1771 18.8926 55.1602 18.8902 55.1431C18.8892 55.1356 18.8885 55.1281 18.8878 55.1205L18.8858 55.0971L18.8846 55.085L18.8846 55.0849C18.8835 55.0729 18.8823 55.0608 18.8818 55.0485C18.8811 55.0276 18.8816 55.0066 18.882 54.9855C18.8822 54.9745 18.8818 54.9637 18.8825 54.9525C18.8841 54.9245 18.8872 54.8963 18.8912 54.8681L18.8916 54.8627C18.8918 54.8604 18.892 54.8582 18.8923 54.8559L18.8929 54.8527L18.8943 54.8431L22.9969 27.9171L0.405148 11.3272C0.401026 11.3241 0.397247 11.3209 0.393468 11.3177L0.384825 11.3106C0.370402 11.2994 0.35611 11.288 0.342212 11.2759C0.330149 11.2655 0.318742 11.2548 0.307335 11.2439C0.295928 11.233 0.284783 11.2221 0.274032 11.2107C0.261838 11.198 0.250169 11.185 0.238893 11.1717C0.229715 11.161 0.220799 11.15 0.212014 11.1389C0.200869 11.1248 0.190118 11.1103 0.179891 11.0956C0.171762 11.084 0.163895 11.0721 0.15629 11.06C0.147112 11.0454 0.138065 11.0308 0.129673 11.0158C0.122069 11.0023 0.114857 10.9885 0.107777 10.9746C0.100828 10.9606 0.09401 10.9464 0.0875853 10.9321C0.0806362 10.9165 0.0740804 10.9006 0.0679179 10.8846C0.0626733 10.8712 0.057822 10.8579 0.053233 10.8442C0.0474639 10.8271 0.0422193 10.8101 0.037368 10.7926C0.0335656 10.779 0.0301566 10.7652 0.0268787 10.7513C0.0229453 10.7342 0.019274 10.717 0.0162583 10.6997C0.0135049 10.6843 0.0111448 10.6688 0.0091781 10.6532C0.00721136 10.6373 0.00537574 10.6215 0.00406459 10.6055C0.0024912 10.5873 0.00183562 10.569 0.00131116 10.5507L0.000686251 10.5394C0.000343332 10.5344 0 10.5294 0 10.5242C0 10.5205 0.000332781 10.5168 0.000666408 10.5132L0.00104893 10.5087C0.00131116 10.4893 0.0024912 10.4697 0.00393347 10.4502L0.00429601 10.4448L0.0042963 10.4448C0.00507539 10.433 0.00584806 10.4213 0.00721137 10.4097C0.00930858 10.3912 0.0124541 10.3728 0.0155999 10.3544L0.0156028 10.3544L0.0177856 10.3417C0.019443 10.3318 0.0211014 10.322 0.0232075 10.3123C0.0267476 10.2955 0.0313367 10.2788 0.0359257 10.2621L0.0374844 10.2563C0.0410117 10.2432 0.0445289 10.23 0.0486439 10.2172C0.0524994 10.2053 0.0569346 10.1936 0.0613572 10.1819L0.061362 10.1819L0.0647712 10.1729L0.0667483 10.1676L0.0667558 10.1676C0.0721101 10.1533 0.0774518 10.1391 0.0835207 10.1252C0.0884041 10.1142 0.0937571 10.1033 0.0991028 10.0925L0.102008 10.0866C0.110268 10.0697 0.118529 10.0531 0.127576 10.0368C0.13251 10.0279 0.137908 10.0192 0.143295 10.0104L0.143302 10.0104L0.148161 10.0025C0.158519 9.98581 0.168877 9.96926 0.180153 9.95311L0.183846 9.94732C0.185301 9.94496 0.186758 9.94259 0.188413 9.94027C0.191305 9.93633 0.194357 9.93267 0.197414 9.929C0.199901 9.92602 0.202391 9.92303 0.204803 9.91988C0.215948 9.90519 0.227355 9.89076 0.239286 9.87672C0.249513 9.86467 0.260002 9.85302 0.270754 9.84164C0.281637 9.83012 0.292519 9.81887 0.303926 9.80788C0.316382 9.79583 0.329232 9.78418 0.342212 9.7728C0.352964 9.7634 0.363846 9.75426 0.375122 9.74526C0.38902 9.73414 0.40305 9.72342 0.417472 9.71322C0.429273 9.70488 0.441204 9.69681 0.453398 9.68886C0.467559 9.67973 0.48185 9.67086 0.496404 9.66252C0.51004 9.65458 0.523938 9.64716 0.537968 9.63988C0.551604 9.63286 0.565371 9.62611 0.579269 9.61976C0.594872 9.61261 0.610737 9.60599 0.626864 9.59963C0.639976 9.59447 0.653087 9.58957 0.66633 9.58507C0.683375 9.57911 0.70042 9.57382 0.717859 9.56892C0.731363 9.56508 0.744868 9.56151 0.758505 9.55833C0.775418 9.55436 0.792463 9.55065 0.809771 9.5476C0.82498 9.54496 0.840321 9.54257 0.855661 9.54059C0.871264 9.5386 0.886998 9.53675 0.902863 9.53543C0.920957 9.53397 0.939051 9.53317 0.957145 9.53264L0.968325 9.53201C0.973292 9.53167 0.978266 9.53132 0.983368 9.53132H8.58755L2.31341 1.61249C2.30975 1.60794 2.30651 1.6032 2.30328 1.59847L2.29649 1.5888C2.28561 1.57423 2.27486 1.55954 2.26476 1.54431C2.25598 1.53121 2.24785 1.51784 2.23985 1.50433L2.238 1.50119C2.23036 1.48822 2.22276 1.47532 2.21572 1.46197C2.20786 1.44714 2.20052 1.43218 2.19343 1.41709C2.18688 1.40319 2.18059 1.38915 2.17469 1.37499C2.16826 1.3595 2.16236 1.34374 2.15672 1.32799C2.15148 1.3133 2.1465 1.29847 2.14191 1.28351C2.13732 1.26815 2.13312 1.25279 2.12919 1.2373C2.12499 1.22115 2.12132 1.205 2.11804 1.18859C2.11516 1.17389 2.11254 1.15906 2.11031 1.14424C2.10769 1.12702 2.10532 1.10981 2.10362 1.09234C2.10218 1.07764 2.10113 1.06308 2.10034 1.04839C2.09942 1.03104 2.09864 1.0137 2.09864 0.996225C2.09864 0.980603 2.09916 0.964981 2.09982 0.949359C2.10047 0.933075 2.10126 0.916791 2.10283 0.900375C2.10441 0.882767 2.1069 0.865292 2.10939 0.847817C2.10998 0.843685 2.11042 0.839576 2.11086 0.835471V0.835468C2.11148 0.829577 2.11211 0.823694 2.11319 0.817765C2.11363 0.815208 2.11426 0.812692 2.1149 0.810172L2.1149 0.810168L2.1149 0.810164L2.1149 0.81016L2.11634 0.803996C2.11965 0.78638 2.12395 0.769013 2.12828 0.751531L2.12828 0.751524L2.12866 0.749982L2.13122 0.739632L2.13122 0.739629C2.13385 0.728891 2.13647 0.718169 2.13955 0.70775C2.14357 0.693923 2.1484 0.680277 2.15322 0.666663L2.15322 0.666655L2.15323 0.666647L2.1562 0.658236L2.16017 0.646844L2.16018 0.646832L2.16018 0.646829C2.16387 0.636178 2.16755 0.62555 2.1718 0.61521C2.17668 0.603152 2.18222 0.591342 2.18777 0.579519L2.19212 0.570198L2.19689 0.559816C2.20194 0.548779 2.20699 0.537718 2.21258 0.527039C2.21819 0.51631 2.22442 0.505891 2.23067 0.495426L2.23644 0.485734L2.24079 0.478243L2.2408 0.478224C2.24756 0.466576 2.25428 0.454992 2.26162 0.443767C2.26818 0.433872 2.27529 0.424213 2.28241 0.414548L2.28241 0.414546L2.28241 0.414543L2.28242 0.414541L2.28242 0.414538L2.28242 0.414536L2.28242 0.414534L2.28876 0.405904L2.29297 0.400054C2.30138 0.38835 2.30979 0.376646 2.31878 0.365525C2.32554 0.357147 2.33279 0.349055 2.34006 0.340934L2.34789 0.332163L2.35465 0.324554L2.35466 0.32455L2.35466 0.324547C2.36428 0.313698 2.37388 0.302878 2.38408 0.292579C2.39137 0.285213 2.39904 0.278146 2.40669 0.271097L2.41423 0.264115C2.42826 0.251009 2.44229 0.238035 2.45698 0.225855L2.46162 0.221687C2.46334 0.220073 2.46505 0.218472 2.46694 0.216985C2.47118 0.213536 2.47562 0.210426 2.48006 0.207319L2.48006 0.207318L2.48006 0.207316C2.48346 0.204939 2.48685 0.202564 2.49015 0.200039C2.5047 0.188919 2.51939 0.178063 2.5346 0.167736C2.54758 0.158999 2.56082 0.150791 2.57406 0.142715C2.58783 0.134242 2.60173 0.126034 2.61602 0.118223C2.63071 0.11028 2.64552 0.102866 2.66047 0.095717C2.67437 0.0890976 2.68813 0.0826105 2.7023 0.076653C2.71764 0.070166 2.73298 0.0642085 2.74858 0.0585158C2.76339 0.0530878 2.77808 0.0480571 2.79316 0.0434235C2.80811 0.0387899 2.82318 0.0345534 2.83826 0.0307142C2.85452 0.0264777 2.87078 0.0226385 2.8873 0.0193287C2.90159 0.0165486 2.91588 0.0140332 2.93031 0.0117826C2.94761 0.00900243 2.96505 0.00661943 2.98262 0.00489838C2.99678 0.00357449 3.01107 0.00251538 3.02523 0.00172105C3.04267 0.000661943 3.06011 0 3.07768 0C3.09302 0 3.10836 0.000529555 3.1237 0.0011915C3.13983 0.00185344 3.15582 0.00264777 3.17208 0.00423644C3.18978 0.00595749 3.20735 0.00847287 3.22505 0.0111206C3.22929 0.0117565 3.2335 0.0122157 3.23771 0.0126745C3.24314 0.0132665 3.24856 0.013858 3.25403 0.0148275L32.619 5.30998L32.6361 5.31342C32.6454 5.3152 32.6545 5.31746 32.6636 5.31972L32.6768 5.32295L32.6925 5.32648C32.7022 5.32859 32.7119 5.3307 32.7216 5.33354L32.7244 5.33442L32.7267 5.33526L32.7279 5.33566C32.7416 5.33974 32.7551 5.34459 32.7685 5.34946L32.778 5.35287L32.7905 5.35712L32.7905 5.35715C32.8004 5.36047 32.8103 5.36379 32.8198 5.3677C32.8294 5.37158 32.8386 5.37605 32.8479 5.38052L32.8619 5.38716L32.8747 5.39294L32.8747 5.39297C32.8857 5.39791 32.8967 5.40285 32.9073 5.40847C32.9154 5.4128 32.9233 5.41759 32.9312 5.42238L32.9431 5.42952L32.9564 5.43725C32.9678 5.4438 32.9792 5.45035 32.99 5.45759L32.9979 5.46311L33.0076 5.47034L33.0194 5.47904L33.0228 5.48155L33.0355 5.49072C33.0462 5.49842 33.0569 5.50613 33.0671 5.51438C33.0797 5.52467 33.0916 5.53561 33.1035 5.54658L33.1105 5.55304L33.1201 5.56153C33.1261 5.56679 33.1322 5.57206 33.1378 5.57767C33.1519 5.59156 33.1651 5.6064 33.1783 5.62118L33.1805 5.62374L33.1891 5.63301L33.1891 5.63304C33.1936 5.63783 33.1981 5.64262 33.2023 5.6477L33.2108 5.65789L33.2121 5.65935L42.1411 16.6786L57.1625 8.58938L57.1646 8.58834L57.1658 8.58779L57.1764 8.58247L57.1849 8.57845L57.1966 8.57283C57.2116 8.56555 57.2265 8.55826 57.2418 8.55178L57.2476 8.54906C57.25 8.54791 57.2523 8.54677 57.2547 8.54582L57.2606 8.54348L57.275 8.53834L57.286 8.53443C57.3002 8.52914 57.3144 8.52398 57.3288 8.51934C57.3452 8.51405 57.3618 8.50955 57.3786 8.50518C57.3921 8.50173 57.4055 8.49816 57.419 8.49525L57.4284 8.49297C57.4324 8.49194 57.4365 8.49091 57.4406 8.49008C57.4465 8.48889 57.4525 8.4885 57.4586 8.48744C57.4629 8.48664 57.4674 8.48611 57.4718 8.48545C57.4853 8.48333 57.4988 8.48121 57.5123 8.47963C57.5202 8.4787 57.5281 8.47724 57.5361 8.47645C57.5399 8.47605 57.5437 8.47618 57.5475 8.47592C57.5532 8.47552 57.559 8.47552 57.5648 8.47512C57.5795 8.4742 57.594 8.4734 57.6087 8.47314C57.6247 8.47287 57.6408 8.47327 57.657 8.4738C57.6739 8.47433 57.6907 8.47512 57.7076 8.47658C57.7215 8.47777 57.7352 8.47949 57.749 8.48121C57.7683 8.48373 57.7874 8.48664 57.8066 8.49022L57.8136 8.49134L57.8207 8.49247C57.8246 8.49326 57.8285 8.49428 57.8324 8.49531L57.8422 8.49776C57.8611 8.50213 57.8799 8.50677 57.8986 8.51233L57.9159 8.51722L57.9213 8.51868C57.9273 8.52053 57.9328 8.52318 57.9387 8.52517C57.9549 8.53059 57.9709 8.53642 57.9868 8.54278L57.992 8.54474L57.9993 8.54757L58.0073 8.55085C58.0147 8.55403 58.0218 8.55743 58.029 8.56084L58.0361 8.56422C58.0482 8.56978 58.0601 8.57534 58.0719 8.58143C58.0793 8.58514 58.0866 8.58885 58.094 8.59282C58.1059 8.5993 58.1173 8.60645 58.129 8.61347C58.1347 8.61691 58.1406 8.61969 58.1464 8.62327L66.5378 13.9188C66.542 13.9213 66.5457 13.9245 66.5498 13.9272C66.5658 13.9376 66.5811 13.9486 66.5964 13.96L66.6027 13.9646C66.6123 13.9716 66.6219 13.9787 66.6312 13.9862L66.6394 13.993L66.6541 14.0057L66.6668 14.0171L66.6669 14.0171L66.6671 14.0173L66.6731 14.0227L66.6733 14.0228L66.6734 14.0229C66.6841 14.0325 66.6949 14.0422 66.7051 14.0523C66.7089 14.056 66.7126 14.0599 66.7162 14.0638L66.732 14.0809L66.7346 14.0836L66.7347 14.0837L66.7347 14.0838L66.7348 14.0838C66.747 14.0968 66.7591 14.1098 66.7704 14.1235C66.7784 14.1332 66.7856 14.1432 66.7932 14.1531C66.8049 14.1684 66.8167 14.1836 66.8275 14.1993C66.8334 14.208 66.8389 14.217 66.8444 14.226L66.8504 14.2359L66.8552 14.2436C66.8625 14.2554 66.8698 14.2671 66.8765 14.2793C66.8829 14.291 66.8886 14.3029 66.8944 14.3149L66.8946 14.3152L66.9001 14.3267L66.9046 14.3358C66.9092 14.345 66.9137 14.3542 66.9178 14.3636C66.9257 14.3818 66.9322 14.4003 66.939 14.419L66.9475 14.4418L66.9512 14.4527C66.9571 14.4713 66.962 14.4903 66.967 14.5094L66.9719 14.5282C66.9735 14.5343 66.9751 14.5404 66.9764 14.5465C66.9796 14.5613 66.9821 14.5765 66.9846 14.5917L66.9857 14.5986L66.9867 14.6047L66.9868 14.605C66.9889 14.6181 66.9911 14.6312 66.9927 14.6444C66.9945 14.6594 66.9954 14.6745 66.9965 14.6896C66.9978 14.7082 66.999 14.7269 66.9992 14.7456C66.9993 14.7506 67 14.7556 67 14.7607C67 14.7691 66.9989 14.7774 66.9987 14.7858C66.9982 14.8056 66.9974 14.8253 66.9957 14.845C66.9946 14.8589 66.9929 14.8727 66.9912 14.8863L66.9891 14.9024L66.9871 14.9164C66.9858 14.9246 66.9844 14.9328 66.983 14.941L66.9801 14.9558L66.9762 14.9744L66.9736 14.9855C66.97 15.0018 66.9659 15.0179 66.9613 15.0341C66.9567 15.0505 66.9515 15.0665 66.9461 15.0825C66.9414 15.0965 66.9364 15.1106 66.9309 15.1245C66.924 15.142 66.9166 15.1592 66.9087 15.1762C66.9032 15.1884 66.8976 15.2006 66.8914 15.2126C66.8824 15.2307 66.8726 15.2481 66.8623 15.2655L66.8595 15.2706L66.857 15.2753C66.8549 15.2792 66.8529 15.2831 66.8505 15.2869L66.8496 15.2884L66.8471 15.2917L66.847 15.2919ZM50.8 27L56 11L43 17.7369L50.8 27ZM5 2L31 6.6L23.5715 25L5 2ZM25 26.1818L49 28L32.3847 8L25 26.1818ZM27.5385 39L25 28L47 29.8333L27.5385 39ZM22 49L26 39.8462L24.2857 32L22 49ZM19 22L4 11H10.2728L19 22ZM63 14L57.989 11L57 14H63Z" fill="white"/>
<path fill-rule="evenodd" clip-rule="evenodd" d="M36.9999 46.4312C36.9999 44.1234 37.839 42.1414 39.5173 40.4849C41.1885 38.8284 43.1967 38.0002 45.5421 38.0002C47.8593 38.0002 49.8465 38.8355 51.5037 40.5061C53.1679 42.1767 53.9999 44.1836 53.9999 46.5267C53.9999 48.884 53.1643 50.8838 51.4931 52.5261C49.8149 54.1755 47.7891 55.0002 45.4157 55.0002C43.3161 55.0002 41.4308 54.2675 39.7595 52.8022C37.9198 51.1811 36.9999 49.0575 36.9999 46.4312ZM39.9999 46.4624C39.9999 48.0752 40.5512 49.4014 41.6538 50.4409C42.7499 51.4804 44.016 52.0002 45.4519 52.0002C47.0096 52.0002 48.3237 51.471 49.3942 50.4126C50.4647 49.3415 50.9999 48.0374 50.9999 46.5002C50.9999 44.944 50.4711 43.6399 49.4134 42.5878C48.3621 41.5294 47.0608 41.0002 45.5096 41.0002C43.9647 41.0002 42.6602 41.5294 41.5961 42.5878C40.532 43.6336 39.9999 44.9251 39.9999 46.4624ZM55.9999 44.2699H58.4243V45.169C59.2681 44.3898 60.2192 44.0002 61.2777 44.0002C62.4934 44.0002 63.4409 44.3565 64.1203 45.0691C64.7067 45.6752 64.9999 46.6642 64.9999 48.0361V54.0002H62.5756V48.5656C62.5756 47.6066 62.4326 46.9439 62.1465 46.5776C61.8676 46.2046 61.3599 46.0182 60.6233 46.0182C59.8223 46.0182 59.2538 46.2646 58.9177 46.7574C58.5887 47.2436 58.4243 48.0928 58.4243 49.3049V54.0002H55.9999V44.2699ZM69.9999 37.0002V54.0002H67.9999V37.0002H69.9999ZM74.9999 44.0002V54.0002H72.9999V44.0002H74.9999ZM72.9999 40.4848C72.9999 40.0821 73.1467 39.734 73.4402 39.4405C73.7337 39.1469 74.0853 39.0002 74.4948 39.0002C74.9112 39.0002 75.2661 39.1469 75.5597 39.4405C75.8532 39.7271 75.9999 40.0787 75.9999 40.4951C75.9999 40.9114 75.8532 41.2664 75.5597 41.5599C75.273 41.8534 74.9214 42.0002 74.5051 42.0002C74.0887 42.0002 73.7337 41.8534 73.4402 41.5599C73.1467 41.2664 72.9999 40.908 72.9999 40.4848ZM77.9999 44.2699H80.4243V45.169C81.2681 44.3898 82.2192 44.0002 83.2776 44.0002C84.4934 44.0002 85.4409 44.3565 86.1203 45.0691C86.7067 45.6752 86.9999 46.6642 86.9999 48.0361V54.0002H84.5756V48.5656C84.5756 47.6066 84.4326 46.9439 84.1465 46.5776C83.8676 46.2046 83.3599 46.0182 82.6233 46.0182C81.8223 46.0182 81.2538 46.2646 80.9177 46.7574C80.5887 47.2436 80.4243 48.0928 80.4243 49.3049V54.0002H77.9999V44.2699ZM98.9044 50.0614H91.4946C91.5583 50.9166 91.8343 51.5972 92.3227 52.1032C92.811 52.6021 93.4373 52.8515 94.2016 52.8515C94.7961 52.8515 95.288 52.709 95.6772 52.4239C96.0594 52.1388 96.4946 51.6115 96.983 50.8418L98.9999 51.9749C98.6885 52.5094 98.3595 52.9673 98.0127 53.3486C97.6659 53.7299 97.2943 54.0434 96.898 54.2893C96.5017 54.5352 96.0735 54.7151 95.6135 54.8291C95.1535 54.9432 94.6546 55.0002 94.1167 55.0002C92.5739 55.0002 91.3354 54.5013 90.4012 53.5036C89.467 52.4987 88.9999 51.166 88.9999 49.5055C88.9999 47.8593 89.4529 46.5266 90.3587 45.5075C91.2717 44.5026 92.4819 44.0002 93.9893 44.0002C95.5109 44.0002 96.714 44.4884 97.5987 45.4647C98.4762 46.4339 98.915 47.7773 98.915 49.4948L98.9044 50.0614ZM96.9999 48.0002C96.6533 46.6668 95.8163 46.0002 94.4889 46.0002C94.1865 46.0002 93.9026 46.0465 93.6371 46.1391C93.3716 46.2317 93.1301 46.365 92.9125 46.5391C92.695 46.7131 92.5088 46.9224 92.3539 47.1669C92.1991 47.4113 92.0811 47.6891 91.9999 48.0002H96.9999ZM102 54.0002V39.0002H105.256C106.817 39.0002 108.05 39.1491 108.955 39.4471C109.926 39.7385 110.807 40.234 111.598 40.9335C113.199 42.3454 114 44.2009 114 46.5002C114 48.8059 113.166 50.6712 111.497 52.096C110.66 52.8085 109.782 53.3039 108.864 53.5824C108.007 53.8609 106.791 54.0002 105.216 54.0002H102ZM104 52.0002H105.157C106.31 52.0002 107.269 51.8908 108.033 51.672C108.797 51.4399 109.488 51.0719 110.105 50.568C111.368 49.527 112 48.1711 112 46.5002C112 44.816 111.376 43.4502 110.127 42.4025C109.003 41.4676 107.346 41.0002 105.157 41.0002H104V52.0002ZM119 44.0002V54.0002H117V44.0002H119ZM116 40.4848C116 40.0821 116.147 39.734 116.44 39.4405C116.734 39.1469 117.085 39.0002 117.495 39.0002C117.911 39.0002 118.266 39.1469 118.56 39.4405C118.853 39.7271 119 40.0787 119 40.4951C119 40.9114 118.853 41.2664 118.56 41.5599C118.273 41.8534 117.921 42.0002 117.505 42.0002C117.089 42.0002 116.734 41.8534 116.44 41.5599C116.147 41.2664 116 40.908 116 40.4848ZM123.5 44.0002L126 49.7802L128.49 44.0002H131L125.98 55.0002L121 44.0002H123.5ZM132 49.42C132 47.9163 132.484 46.6371 133.453 45.5823C134.422 44.5276 135.603 44.0002 136.995 44.0002C138.394 44.0002 139.581 44.5311 140.556 45.593C141.519 46.6549 142 47.959 142 49.5055C142 51.0663 141.516 52.374 140.547 53.4288C139.571 54.4764 138.375 55.0002 136.957 55.0002C135.551 55.0002 134.374 54.4657 133.424 53.3967C132.475 52.3419 132 51.0164 132 49.42ZM134 48.957C134 49.8914 134.269 50.6306 134.808 51.1746C135.361 51.725 136.09 52.0002 136.995 52.0002C137.907 52.0002 138.636 51.7282 139.181 51.1842C139.727 50.6402 140 49.9138 140 49.005C140 48.0962 139.727 47.3698 139.181 46.8258C138.629 46.2754 137.9 46.0002 136.995 46.0002C136.104 46.0002 135.382 46.2754 134.829 46.8258C134.276 47.3762 134 48.0866 134 48.957ZM145 44.2699H147.119V45.139C147.509 44.7061 147.854 44.4098 148.155 44.2499C148.463 44.0834 148.827 44.0002 149.248 44.0002C149.807 44.0002 150.391 44.1933 151 44.5796L150.03 46.6375C149.628 46.3312 149.235 46.178 148.852 46.178C147.697 46.178 147.119 47.1037 147.119 48.9552V54.0002H145V44.2699ZM160 44.7378V47.9341C159.489 47.2642 159.031 46.8045 158.627 46.5551C158.229 46.2985 157.761 46.1703 157.224 46.1703C156.381 46.1703 155.682 46.4874 155.124 47.1217C154.567 47.7559 154.288 48.5506 154.288 49.5055C154.288 50.4819 154.557 51.2836 155.094 51.9108C155.638 52.5379 156.332 52.8515 157.174 52.8515C157.711 52.8515 158.186 52.7268 158.597 52.4773C158.995 52.235 159.463 51.7647 160 51.0663V54.2412C159.091 54.7472 158.182 55.0002 157.274 55.0002C155.774 55.0002 154.521 54.4799 153.512 53.4394C152.504 52.3918 152 51.0912 152 49.5376C152 47.984 152.511 46.6727 153.532 45.6037C154.554 44.5347 155.808 44.0002 157.293 44.0002C158.249 44.0002 159.151 44.2461 160 44.7378ZM165 44.0002V54.0002H163V44.0002H165ZM162 40.4848C162 40.0821 162.147 39.734 162.44 39.4405C162.734 39.1469 163.085 39.0002 163.495 39.0002C163.911 39.0002 164.266 39.1469 164.56 39.4405C164.853 39.7271 165 40.0787 165 40.4951C165 40.9114 164.853 41.2664 164.56 41.5599C164.273 41.8534 163.921 42.0002 163.505 42.0002C163.089 42.0002 162.734 41.8534 162.44 41.5599C162.147 41.2664 162 40.908 162 40.4848ZM168 49.42C168 47.9163 168.484 46.6371 169.453 45.5823C170.422 44.5276 171.603 44.0002 172.995 44.0002C174.394 44.0002 175.581 44.5311 176.556 45.593C177.519 46.6549 178 47.959 178 49.5055C178 51.0663 177.516 52.374 176.547 53.4288C175.571 54.4764 174.375 55.0002 172.957 55.0002C171.551 55.0002 170.374 54.4657 169.424 53.3967C168.475 52.3419 168 51.0164 168 49.42ZM170 48.957C170 49.8914 170.269 50.6306 170.808 51.1746C171.361 51.725 172.09 52.0002 172.995 52.0002C173.907 52.0002 174.636 51.7282 175.181 51.1842C175.727 50.6402 176 49.9138 176 49.005C176 48.0962 175.727 47.3698 175.181 46.8258C174.629 46.2754 173.9 46.0002 172.995 46.0002C172.104 46.0002 171.382 46.2754 170.829 46.8258C170.276 47.3762 170 48.0866 170 48.957Z" fill="white"/>
</svg>
