<svg width="76" height="31" viewBox="0 0 76 31" fill="none" xmlns="http://www.w3.org/2000/svg">
<path fill-rule="evenodd" clip-rule="evenodd" d="M28.8944 0.874222H14.2718V0.874909H0.608551V23.6474H14.271V18.6084C14.271 18.6084 14.2618 18.6084 14.2618 18.6176C14.233 18.5995 14.2011 18.5868 14.1676 18.5801C14.1522 18.5801 14.135 18.5787 14.1149 18.577C14.0865 18.5747 14.052 18.5718 14.0079 18.5718C13.9702 18.5718 13.9357 18.5745 13.9061 18.5768C13.8838 18.5786 13.8642 18.5801 13.8481 18.5801L13.8426 18.5816C13.807 18.5906 13.771 18.5998 13.7351 18.6176C12.8864 16.7938 12.0018 14.9867 11.0819 13.1971C10.1672 11.4354 9.22612 9.68731 8.25882 7.95342L7.63796 13.8399C7.55306 14.6408 7.48748 15.4326 7.4404 16.2148C7.39332 17.0161 7.3555 17.8079 7.33659 18.6176C7.18155 18.5832 7.03396 18.5646 6.90159 18.548C6.88968 18.5465 6.87788 18.545 6.86622 18.5435C6.71573 18.5248 6.5745 18.5156 6.43327 18.5156C6.31449 18.5156 6.19571 18.5234 6.06983 18.5317C6.05627 18.5326 6.04262 18.5335 6.02888 18.5343C5.88805 18.5523 5.72791 18.5801 5.55851 18.6176C6.05705 16.0746 6.49 13.579 6.83805 11.1014C7.18923 8.68809 7.47167 6.26549 7.68504 3.83647H8.49421C9.61401 6.05326 10.6586 8.12069 11.6653 10.0209C12.5129 11.6526 13.3819 13.2735 14.2718 14.883V14.8823C14.3471 15.0313 14.4223 15.171 14.5068 15.3108C15.5009 13.5125 16.4671 11.6992 17.4051 9.87161C18.4277 7.87064 19.4284 5.85871 20.4068 3.83618H21.2252C21.4367 6.35492 21.6909 8.86997 21.9877 11.3803C22.2721 13.7987 22.6047 16.2114 22.9852 18.6169C22.7687 18.5607 22.5619 18.5241 22.3546 18.4962C22.1567 18.4588 21.9499 18.4496 21.7523 18.4496C21.563 18.4473 21.374 18.4629 21.1878 18.4962C20.9664 18.5263 20.7466 18.5665 20.5291 18.6169C20.4631 16.8474 20.3408 15.0778 20.1714 13.2804C20.0116 11.4826 19.7859 9.65694 19.5224 7.81294L16.4547 13.7739C16.0009 14.6517 15.568 15.54 15.1562 16.4379C14.8082 17.2198 14.5068 17.9366 14.2718 18.6073V23.6463H28.8944V18.8778C27.3135 18.738 26.0528 18.1971 25.0835 17.2568C23.9637 16.1484 23.3992 14.6489 23.3992 12.7213C23.3992 10.8303 23.9919 9.33115 25.1777 8.23192C26.1281 7.35652 27.3702 6.82562 28.8944 6.65794V0.874222ZM14.2718 14.8823V0.874909H14.2718V14.8823C14.2718 14.8823 14.2718 14.8823 14.2718 14.8823ZM28.8944 0.874222H34.1357V7.42183C33.4673 7.16096 32.8276 6.95625 32.1975 6.82562C31.4931 6.67022 30.7736 6.59222 30.052 6.59303C29.6651 6.59048 29.2785 6.61229 28.8944 6.65834V0.874222ZM40.2803 0.874222H34.136V7.42223L34.1361 7.42227C34.2206 7.45929 34.3051 7.49632 34.3992 7.53375C34.293 7.73684 34.2049 7.94873 34.1361 8.167V16.3069L34.136 16.3069V8.16709C34.1251 8.19398 34.1174 8.22087 34.1092 8.24952L34.1092 8.24958L34.1092 8.24963L34.1092 8.24966C34.1032 8.27059 34.097 8.29246 34.089 8.31596C34.0137 8.6047 33.9478 8.92133 33.9007 9.2754H33.7031C33.308 8.62342 32.7998 8.14828 32.1978 7.83166C31.5955 7.51503 30.8805 7.35652 30.0524 7.35652C29.6384 7.35652 29.2525 7.40311 28.8948 7.47759V17.8996C29.2807 17.9928 29.6854 18.0398 30.1272 18.0398C30.8612 18.0398 31.548 17.8904 32.1882 17.6017C32.8372 17.3129 33.4488 16.8657 34.0323 16.2607L34.1361 16.3073V16.3069L34.2394 16.3535C34.1924 16.5303 34.1642 16.6984 34.136 16.8748V18.0581C35.1281 15.9078 36.1035 13.7501 37.0621 11.585C38.0853 9.28392 39.136 6.83697 40.2414 4.2626L40.2417 4.26169L40.242 4.26103L40.2427 4.25938L40.2806 4.17113V4.16993C40.328 4.05868 40.375 3.94703 40.4211 3.83538L40.4676 3.84385C40.5535 3.85955 40.6337 3.87421 40.7136 3.88198L40.7237 3.88307C40.8045 3.89189 40.8853 3.9007 40.9486 3.9007C41.0366 3.89902 41.1245 3.89277 41.2118 3.88198C41.2942 3.872 41.3758 3.85643 41.456 3.83538C42.4445 6.32278 43.4579 8.80042 44.4959 11.268C45.5405 13.7281 46.6102 16.1778 47.7048 18.6165C47.4228 18.5791 47.1689 18.5603 46.9238 18.5424C46.6984 18.5242 46.4724 18.5149 46.2462 18.5145C46.0302 18.5145 45.8133 18.5237 45.5783 18.5424L45.5528 18.5445C45.343 18.5618 45.1165 18.5805 44.8725 18.6165C44.5623 17.5921 44.2424 16.6331 43.9226 15.7294C43.5934 14.8166 43.2631 13.9412 42.915 13.1215C42.5114 13.0936 42.097 13.0753 41.683 13.0658C41.2685 13.0566 40.8452 13.0474 40.4215 13.0474H40.2807V23.6475H51.2899V12.7965H51.29V23.6475H59.0525V18.6177H59.0528V23.6475H66.8247V18.6177C66.3076 18.6177 65.7898 18.6177 65.253 18.6269C64.715 18.6354 64.1607 18.6524 63.5894 18.67L63.5893 18.67L63.589 18.67L63.5888 18.67L63.5885 18.67L63.4753 18.6735C63.553 17.7557 63.6124 16.8366 63.6536 15.9166C63.6914 14.9476 63.7103 13.8858 63.7103 12.7404C63.7103 11.4643 63.691 10.3555 63.6536 9.39647C63.6162 8.43743 63.5594 7.57119 63.4753 6.78858L65.2257 6.81646C65.7615 6.82601 66.2981 6.83517 66.8247 6.83518V0.874222H59.0529H59.0528V6.83518H59.1466C59.4325 6.83518 59.7136 6.83283 59.9911 6.83051L59.9913 6.83051C60.2617 6.82825 60.5286 6.82602 60.7931 6.82602C61.3207 6.81646 61.8377 6.79814 62.3366 6.77942C62.3187 6.87682 62.3091 6.97387 62.3003 7.06309L62.2988 7.07773C62.2896 7.18008 62.2896 7.27328 62.2896 7.37563C62.2896 7.46883 62.2896 7.57158 62.2988 7.67394L62.3023 7.71132C62.3108 7.80295 62.32 7.90134 62.3366 7.99973C61.8803 7.90067 61.4184 7.82912 60.9533 7.78546C60.4636 7.7293 59.9373 7.71058 59.3627 7.71058H59.0529V7.71047H57.6981V11.9298H59.0525V11.9299H59.5233C59.9091 11.9299 60.3039 11.9203 60.7179 11.8925C61.1035 11.8754 61.5138 11.8338 61.9408 11.7905L62.0357 11.7809C62.0168 11.902 62.0075 11.9952 62.0075 12.0697C62.0075 12.1127 62.0051 12.1533 62.0027 12.1927L62.0027 12.1929C62.0004 12.23 61.9982 12.2662 61.9982 12.3023C61.9982 12.4138 62.0075 12.6002 62.0264 12.8519V12.9451C61.8912 12.9343 61.7601 12.9235 61.6332 12.9131L61.6332 12.9131C61.2118 12.8784 60.8367 12.8476 60.5111 12.8332C60.0878 12.8049 59.7393 12.7957 59.4762 12.7957H59.0529V12.7955H57.6981V14.6399C57.6981 15.0015 57.706 15.4269 57.7148 15.9014L57.717 16.0183C57.725 16.4825 57.7401 16.9682 57.7562 17.4861L57.7562 17.4864L57.7641 17.7412H59.0525V17.7415H59.4195C59.9091 17.7415 60.398 17.7132 60.897 17.6666C61.3959 17.62 61.894 17.5451 62.4026 17.4527C62.3837 17.5276 62.3745 17.6013 62.3745 17.6853C62.3652 17.7785 62.3652 17.8992 62.3652 18.0673C62.3652 18.2437 62.3652 18.3743 62.3745 18.4492C62.3791 18.4894 62.3815 18.5273 62.3838 18.5631L62.3838 18.5633L62.3838 18.5634L62.3838 18.5635L62.3838 18.5637C62.3863 18.6025 62.3886 18.6387 62.3934 18.6727C61.8944 18.6539 61.3766 18.6352 60.8406 18.6261C60.3131 18.6169 59.7582 18.6169 59.1941 18.6169H59.0525V18.6177C58.544 18.6177 58.0178 18.6177 57.4904 18.6269C56.9264 18.6357 56.3534 18.6535 55.771 18.6716H55.7709L55.7119 18.6735C55.7914 17.756 55.848 16.8368 55.8817 15.9166C55.9196 14.9476 55.9385 13.8858 55.9385 12.7404C55.9413 11.6255 55.9223 10.5106 55.8817 9.39647C55.8536 8.43743 55.7968 7.57119 55.7119 6.78858L57.4534 6.81646C57.9989 6.82601 58.5355 6.83517 59.0525 6.83518V0.874222H51.29V6.83518H51.4303C51.7222 6.83518 52.0065 6.83281 52.286 6.83048H52.286H52.2861H52.2862H52.2862H52.2863H52.2864H52.2864H52.2865H52.2865H52.2866H52.2866H52.2867H52.2868H52.2868C52.5572 6.82823 52.8231 6.82602 53.0869 6.82602L53.1238 6.82535C53.6378 6.81602 54.1431 6.80686 54.6296 6.78858C54.6106 6.89133 54.601 6.99369 54.5925 7.08689C54.5833 7.18008 54.5833 7.28284 54.5833 7.38519C54.5833 7.46883 54.5833 7.57158 54.6014 7.67394L54.6296 7.99973C54.1314 7.90653 53.6321 7.83206 53.1339 7.78546C52.635 7.7293 52.1453 7.71058 51.6564 7.71058H51.29V7.71047H49.9541L49.9519 7.81178L49.9519 7.81259L49.9518 7.81438C49.9434 8.20538 49.9352 8.58094 49.9352 8.9491V11.9294H51.2895V11.9299H51.7594C52.1582 11.9309 52.557 11.9184 52.9549 11.8925C53.3505 11.8753 53.7622 11.8336 54.19 11.7902L54.2815 11.7809C54.2634 11.902 54.2541 11.9952 54.2541 12.0697C54.2449 12.1533 54.2449 12.2278 54.2449 12.3023C54.2449 12.4138 54.2541 12.6002 54.2722 12.8519V12.9451C54.1206 12.9332 53.9751 12.9212 53.8353 12.9098L53.8353 12.9098C53.4289 12.8765 53.0706 12.8471 52.7485 12.8332C52.3248 12.8049 51.9767 12.7957 51.7039 12.7957H51.2899V12.7965H49.9352V14.6409C49.9352 15.4885 49.9444 16.2332 49.9633 16.9039C49.9708 17.4944 49.9958 18.0845 50.0382 18.6735C49.8973 18.6456 49.7372 18.6173 49.5682 18.6081C49.3984 18.5894 49.2105 18.5894 48.9936 18.5894C48.7872 18.5894 48.5888 18.5894 48.4295 18.6081C48.2635 18.6171 48.1071 18.6443 47.9505 18.6716L47.9504 18.6716L47.9398 18.6735C48.0224 17.7561 48.0821 16.8369 48.1189 15.9166C48.1567 14.9476 48.1756 13.8858 48.1756 12.7404C48.1784 11.6255 48.1595 10.5106 48.1189 9.39647C48.0907 8.43743 48.0247 7.57119 47.9398 6.78858L49.7275 6.81646C50.2549 6.82601 50.781 6.83517 51.2895 6.83518V0.874222H40.2807H40.2806V4.16993L40.2803 4.17073V0.874222ZM51.2895 11.9294V7.71058H51.29V11.9294H51.2895ZM59.0525 17.7412V12.7957H59.0529V17.7412H59.0525ZM59.0525 11.9298H59.0529V7.71058H59.0525V11.9298ZM66.9096 6.83518H66.8251V0.874222H75.8868V23.6467H66.8251V18.6169H66.9667C67.5308 18.6169 68.0772 18.6169 68.6132 18.6261C69.1407 18.6352 69.6577 18.6539 70.1567 18.6727C70.1567 18.6128 70.1489 18.5456 70.1402 18.4701L70.1402 18.47L70.1378 18.4492C70.1378 18.4198 70.1363 18.3819 70.1346 18.3359L70.1346 18.3352C70.1319 18.2642 70.1285 18.1741 70.1285 18.0673C70.1285 17.9709 70.1316 17.8902 70.1341 17.8212C70.1361 17.7699 70.1378 17.7251 70.1378 17.6853C70.1378 17.6013 70.147 17.5276 70.1659 17.4527C69.6573 17.5451 69.1592 17.62 68.6603 17.6666C68.1613 17.7132 67.6724 17.7415 67.1828 17.7415H66.8251V12.7957H67.2391C67.5022 12.7957 67.8507 12.8049 68.2836 12.8332C68.5926 12.8471 68.9542 12.8766 69.3641 12.9101L69.3642 12.9101C69.5036 12.9214 69.6486 12.9333 69.799 12.9451V12.8519C69.7801 12.6002 69.7708 12.4138 69.7708 12.3023V12.0697L69.7775 12.0142C69.7851 11.95 69.7942 11.8737 69.8086 11.7809L69.6329 11.7984C69.2294 11.8388 68.853 11.8764 68.4917 11.8925C68.068 11.9203 67.6729 11.9299 67.287 11.9299H66.8251V7.71058H67.1353C67.7002 7.71058 68.2362 7.7293 68.7259 7.78546C69.1877 7.82909 69.6465 7.90065 70.0995 7.99973C70.0945 7.93838 70.0865 7.87702 70.0787 7.81731C70.0723 7.7681 70.0661 7.72 70.0617 7.67394C70.0525 7.57158 70.0525 7.46883 70.0525 7.37563C70.0525 7.27328 70.0525 7.18008 70.0617 7.07773C70.0661 7.03363 70.0726 6.98749 70.0793 6.94023V6.94017L70.0794 6.94009C70.0868 6.88749 70.0945 6.83351 70.0995 6.77942C69.6006 6.79814 69.0836 6.81646 68.5561 6.82602C68.2916 6.82602 68.0246 6.82825 67.7542 6.83051L67.754 6.83051C67.4766 6.83283 67.1954 6.83518 66.9096 6.83518ZM65.4606 7.71047H66.825V11.9298H65.4606V7.71047ZM66.825 12.7955H65.4606V14.6399C65.4606 15.0011 65.4685 15.426 65.4773 15.8999L65.4773 15.9014L65.4795 16.0183C65.4864 16.2165 65.4921 16.4187 65.4978 16.6256L65.4979 16.6263L65.4979 16.6269L65.4979 16.6274L65.4979 16.6278V16.6282C65.5079 16.9838 65.5182 17.3534 65.5362 17.7412H66.825V12.7955ZM40.2807 12.0789H40.4034C40.7515 12.0789 41.0995 12.0698 41.4383 12.0602C41.7864 12.051 42.1159 12.0323 42.4261 12.014L40.3088 6.74205L40.2807 6.80685V12.0784L40.2807 12.0784V6.80697L38.1349 12.0135L38.1835 12.0158C38.5531 12.0333 38.9225 12.0509 39.2833 12.0597C39.455 12.0645 39.6243 12.0669 39.7924 12.0693L39.7926 12.0693L39.7928 12.0693L39.7929 12.0693L39.793 12.0693L39.7931 12.0693L39.7933 12.0693L39.7934 12.0693C39.9565 12.0716 40.1186 12.0739 40.2807 12.0784V12.0789ZM40.2806 23.6464V13.0471C39.8855 13.0471 39.4807 13.0563 39.076 13.0655C38.606 13.075 38.1352 13.0933 37.6363 13.1212L36.7893 15.3942C36.595 15.9042 36.4162 16.4197 36.2529 16.9403C36.0871 17.4965 35.9303 18.0554 35.7826 18.6166C35.6244 18.5794 35.4641 18.5516 35.3025 18.5334L35.2623 18.531C35.1173 18.5227 34.9788 18.5146 34.8321 18.5146C34.6909 18.5146 34.5404 18.5238 34.3895 18.5334C34.3442 18.5383 34.2987 18.5457 34.2532 18.5532C34.214 18.5596 34.1748 18.566 34.1356 18.5708V18.5708C34.0641 18.5779 33.9929 18.5923 33.9159 18.6078L33.8721 18.6166C33.9597 18.4441 34.0388 18.2705 34.1177 18.0976L34.1178 18.0975L34.1178 18.0974L34.1179 18.0973L34.1179 18.0972L34.1357 18.0583V16.875C34.1282 16.9278 34.1204 16.9744 34.1129 17.02L34.1075 17.0522C34.0789 17.294 34.06 17.5361 34.0508 17.7974C33.345 18.1702 32.6489 18.4585 31.9432 18.6445C31.2282 18.8221 30.5035 18.9145 29.7506 18.9145C29.4497 18.9145 29.1672 18.9058 28.8944 18.8779V23.6464H34.1357V23.6464H40.2806ZM34.1357 23.6464H34.1356V18.5708L34.1357 18.5708V23.6464ZM28.8944 7.47773C28.0004 7.66373 27.2668 8.09227 26.6834 8.76296C25.8738 9.70368 25.4694 10.9985 25.4694 12.6469C25.4694 14.2954 25.8927 15.6089 26.7397 16.5775C27.3232 17.2482 28.0386 17.6954 28.8944 17.8997V7.47773Z" fill="#CC2229"/>
<path fill-rule="evenodd" clip-rule="evenodd" d="M19.3239 24.7506L19.3239 24.7506L19.3239 24.7892L18.8742 27.3375C19.0333 27.1345 19.1832 26.9611 19.3239 26.8257L19.3239 26.8256C19.4177 26.7191 19.5022 26.6328 19.5772 26.5652C19.774 26.4009 19.9239 26.3138 20.0365 26.3138C20.1491 26.3138 20.2521 26.372 20.3367 26.4781C20.4208 26.5941 20.4585 26.7286 20.4585 26.8933C20.4585 27.1249 20.3743 27.318 20.2148 27.472C20.0461 27.6268 19.8116 27.7332 19.5026 27.8001C19.5495 27.8678 19.6149 27.9743 19.6994 28.1183C19.8493 28.3796 19.9804 28.553 20.0834 28.6207L20.402 28.3024L20.4954 28.4089L19.8489 29.1911H19.802C19.7179 29.1911 19.6333 29.1622 19.5583 29.1135C19.4666 29.0404 19.3874 28.9521 19.3239 28.8522L19.3239 28.8523L19.3147 28.8428C19.2178 28.6928 19.1332 28.5347 19.0618 28.3702C18.9492 28.1478 18.8554 27.9839 18.7712 27.8873L18.6121 28.8049C18.5841 28.9976 18.5464 29.1041 18.5183 29.1425C18.4903 29.1813 18.425 29.1908 18.3216 29.1908H18.1059C18.0498 29.1908 18.0029 29.1908 17.9749 29.1714C17.9607 29.1714 17.952 29.1604 17.9445 29.151L17.9432 29.1494C17.9412 29.1468 17.9392 29.1445 17.9372 29.1425V29.0265C17.9372 28.9999 17.9415 28.9689 17.9474 28.9272L17.9474 28.9271C17.95 28.908 17.953 28.8865 17.9561 28.8622L18.5652 25.3877C18.5744 25.3489 18.5744 25.3295 18.5744 25.3006C18.5837 25.2812 18.5837 25.2618 18.5837 25.2523C18.583 25.2195 18.5766 25.187 18.5648 25.1565C18.5559 25.1384 18.5377 25.1272 18.5179 25.1276C18.4899 25.1276 18.4618 25.1276 18.4338 25.1371C18.4169 25.1371 18.3967 25.1441 18.375 25.1516C18.3605 25.1566 18.3454 25.1617 18.3304 25.1652L18.2743 25.0018C18.4149 24.9436 18.5929 24.8664 18.7993 24.7702C19.0526 24.6542 19.2025 24.596 19.2397 24.596C19.2774 24.596 19.2962 24.596 19.3151 24.6154C19.3147 24.615 19.3147 24.6249 19.3239 24.6249V24.6251C19.324 24.6337 19.3259 24.6423 19.328 24.6517L19.328 24.6517L19.328 24.6518L19.328 24.6518C19.3306 24.6635 19.3335 24.6765 19.3335 24.6924C19.3335 24.6924 19.3335 24.7118 19.3239 24.7506ZM19.3239 27.0573L19.3239 27.0572C19.4553 26.9226 19.5676 26.8549 19.6521 26.8549C19.6991 26.8533 19.7427 26.8796 19.7643 26.9226C19.7939 26.9718 19.8101 27.0282 19.8112 27.0861C19.8112 27.2697 19.7363 27.4142 19.5772 27.5302C19.5022 27.5884 19.4177 27.6272 19.3239 27.6561L19.3239 27.6562C19.2113 27.6851 19.0898 27.7045 18.9492 27.7045H18.8931C18.8776 27.7045 18.865 27.7016 18.8536 27.699C18.8443 27.6969 18.8358 27.695 18.8273 27.695C19.0053 27.4242 19.1648 27.222 19.3055 27.0767L19.3239 27.0573ZM17.9368 26.5074V26.7291C17.9317 26.8239 17.9061 26.9164 17.8619 26.9998C17.8058 27.0956 17.7304 27.1443 17.6278 27.1443H17.5621C17.534 27.1348 17.5056 27.1348 17.4868 27.1348C17.3369 27.1348 17.2054 27.2801 17.084 27.5694C16.9714 27.8493 16.8495 28.3128 16.7373 28.9398L16.7093 29.0946C16.7 29.1334 16.6904 29.1623 16.672 29.1722C16.6439 29.1916 16.6063 29.1916 16.5405 29.1916H16.25C16.1658 29.1916 16.1189 29.1916 16.1001 29.1722C16.0812 29.1627 16.072 29.1433 16.072 29.1045C16.072 29.095 16.072 29.0851 16.0812 29.0756V29.0562L16.278 27.6276C16.3061 27.4823 16.3249 27.3577 16.3345 27.2607C16.3389 27.2108 16.3432 27.1716 16.3465 27.141C16.3504 27.1063 16.353 27.0827 16.353 27.0671C16.353 27.0188 16.353 27.0003 16.3437 26.9809C16.3437 26.9615 16.3345 26.952 16.3253 26.952C16.3065 26.952 16.2688 26.9809 16.2219 27.0287C16.2096 27.048 16.1941 27.0705 16.1762 27.0964L16.1762 27.0965C16.1401 27.1489 16.0941 27.2156 16.044 27.2995L15.9221 27.2029C16.0909 26.9231 16.25 26.7006 16.4095 26.5466C16.5598 26.3919 16.6816 26.3147 16.7846 26.3147C16.8503 26.3147 16.8876 26.3341 16.9064 26.3729C16.9345 26.4117 16.9441 26.4794 16.9441 26.5859C16.9441 26.701 16.9345 26.8657 16.9064 27.0774C16.8938 27.2201 16.8727 27.3797 16.849 27.5595L16.849 27.5598C16.8373 27.6482 16.8249 27.7416 16.8127 27.8402H16.8315C17.0283 27.2421 17.197 26.8364 17.3281 26.6247C17.4595 26.4216 17.5906 26.3151 17.7308 26.3151C17.7966 26.3151 17.8527 26.344 17.8903 26.3828C17.9088 26.4203 17.9272 26.4591 17.9368 26.5074ZM17.9275 29.1135C17.9275 29.0941 17.9275 29.0652 17.9367 29.0264V29.1424C17.9275 29.1329 17.9275 29.123 17.9275 29.1135ZM14.5438 28.9399V28.9391C14.6376 28.8714 14.7221 28.7463 14.7971 28.5432C14.9189 28.244 14.9842 27.9064 14.9842 27.52C14.9842 27.2402 14.9562 27.0177 14.9001 26.8638C14.844 26.709 14.769 26.6322 14.666 26.6322C14.6229 26.6344 14.581 26.6477 14.5442 26.671V26.439C14.7037 26.3614 14.8536 26.323 14.9942 26.323C15.2099 26.323 15.369 26.4101 15.4816 26.5744C15.5942 26.7478 15.6503 26.9896 15.6503 27.2984C15.6503 27.52 15.6223 27.733 15.5658 27.9258C15.5189 28.128 15.4251 28.3121 15.3125 28.4859C15.1534 28.7364 14.9658 28.9391 14.741 29.0839C14.6774 29.1232 14.6117 29.1587 14.5442 29.1903V28.9395L14.5438 28.9399ZM14.4131 28.9977C14.4624 28.9971 14.5094 28.9763 14.5438 28.9399V29.1904L14.5442 29.1903V29.1908C14.3966 29.2586 14.2372 29.2946 14.0756 29.2965C13.8696 29.2965 13.7101 29.2094 13.5979 29.0459C13.4949 28.8718 13.4388 28.6307 13.4388 28.3026C13.4388 28.0227 13.4857 27.752 13.5795 27.5014C13.6796 27.2526 13.8261 27.0265 14.0107 26.8357C14.1698 26.6722 14.3293 26.5463 14.5073 26.4592C14.5117 26.4539 14.5189 26.4513 14.5261 26.4487C14.5327 26.4463 14.5393 26.444 14.5438 26.4394V26.6714C14.45 26.7288 14.3566 26.8641 14.2812 27.0858C14.169 27.3859 14.1125 27.7516 14.1125 28.1767C14.1125 28.438 14.1406 28.6402 14.1879 28.7855C14.244 28.9201 14.3189 28.9977 14.4131 28.9977ZM6.82087 29.1711V28.8335H6.84892C6.93349 28.8335 7.02687 28.8141 7.13027 28.7658C7.23367 28.7175 7.3555 28.6399 7.47694 28.5433L7.55228 28.6593C7.31783 28.8715 7.11183 29.0262 6.92427 29.1228C6.89083 29.1412 6.8563 29.1573 6.82087 29.1711ZM6.82087 27.5306V27.7717C7.07416 27.666 7.27094 27.5595 7.40239 27.4444C7.60879 27.2805 7.70217 27.0774 7.70217 26.8364C7.70217 26.6816 7.65528 26.5565 7.57112 26.46C7.47734 26.363 7.34628 26.3147 7.19599 26.3147C7.07416 26.3147 6.9431 26.3531 6.82087 26.4113V26.6725C6.86776 26.6048 6.92427 26.566 6.98038 26.566C7.02988 26.5643 7.07646 26.5902 7.10221 26.6337C7.13027 26.6721 7.13989 26.739 7.13989 26.8166C7.13989 27.0283 7.08338 27.2124 6.96154 27.3767C6.92427 27.4341 6.86776 27.4918 6.82087 27.5306ZM8.33023 26.6901H8.03005L8.07694 26.5167C8.24567 26.4585 8.42401 26.3426 8.60196 26.1597C8.7799 25.976 8.93901 25.735 9.09852 25.4357H9.24881C9.20396 25.5646 9.16938 25.6969 9.14541 25.8316C9.11949 25.9386 9.09339 26.0648 9.06412 26.2063L9.06411 26.2063L9.06409 26.2064L9.06408 26.2065C9.05127 26.2684 9.03785 26.3333 9.02357 26.4007H9.46402L9.41713 26.6901H8.97628L8.64845 28.6403C8.64845 28.6451 8.64614 28.6499 8.64384 28.6548C8.64153 28.6596 8.63923 28.6645 8.63923 28.6692V28.6981C8.63923 28.727 8.64845 28.7563 8.65807 28.7757C8.6769 28.7951 8.69534 28.8046 8.71417 28.8046C8.76107 28.8046 8.81717 28.7757 8.89252 28.708C8.96746 28.6403 9.05163 28.5438 9.15463 28.4187L9.24841 28.5339C9.05163 28.7951 8.8825 28.978 8.74223 29.0845C8.59234 29.2004 8.45167 29.2479 8.32061 29.2479C8.19878 29.2479 8.11421 29.219 8.05811 29.1522C7.99278 29.094 7.96473 28.9974 7.96473 28.8715C7.96473 28.8335 7.96473 28.7757 7.97394 28.7175L8.002 28.5145L8.33023 26.6901ZM9.55775 27.1535L9.65153 27.2501C9.70762 27.1472 9.77325 27.0502 9.84751 26.9603C9.8944 26.9021 9.93207 26.8733 9.95051 26.8733C9.96935 26.8733 9.97856 26.8827 9.97856 26.8827C9.98778 26.8927 9.98778 26.9021 9.98778 26.9215V26.9409V26.9603L9.74411 28.601C9.73489 28.6588 9.72527 28.717 9.71605 28.7653V28.9193C9.71605 29.0352 9.73489 29.1124 9.78178 29.1706C9.81905 29.228 9.88518 29.2569 9.96935 29.2569C10.11 29.2569 10.2787 29.1611 10.4663 28.9676C10.6631 28.7653 10.8879 28.4652 11.1412 28.0607C11.1128 28.2824 11.0939 28.4471 11.0847 28.5428L11.0784 28.6068C11.0717 28.6738 11.0663 28.7282 11.0663 28.7653C11.0663 28.9292 11.0939 29.0546 11.1504 29.1322C11.1977 29.2185 11.2723 29.2573 11.3757 29.2573C11.4879 29.2573 11.6474 29.181 11.8253 29.0357C12.0129 28.8908 12.2381 28.6592 12.491 28.3699C12.7912 28.0224 12.9972 27.7231 13.119 27.4911C13.2405 27.26 13.297 27.0384 13.297 26.8254C13.297 26.6611 13.2689 26.536 13.2032 26.4489C13.1471 26.3519 13.0529 26.3037 12.9499 26.3037C12.8189 26.3037 12.7155 26.3619 12.6125 26.4584C12.5187 26.5645 12.4718 26.671 12.4718 26.7961C12.4718 26.8931 12.5187 26.9702 12.6125 27.0276C12.6226 27.0382 12.6358 27.045 12.6501 27.047C12.669 27.0664 12.6878 27.0858 12.697 27.1246C12.7159 27.1539 12.7159 27.2022 12.7159 27.2505C12.7159 27.3764 12.6882 27.5204 12.6129 27.6946C12.5475 27.868 12.4445 28.0612 12.3039 28.2733C12.2101 28.4281 12.1163 28.5527 12.0321 28.6303C11.948 28.7174 11.873 28.7657 11.8165 28.7657C11.7792 28.7657 11.7604 28.7463 11.7416 28.7269C11.7231 28.7079 11.7135 28.6786 11.7135 28.6303V28.582C11.7231 28.5726 11.7231 28.5626 11.7231 28.5532L12.0041 26.6611C12.0041 26.6425 12.0041 26.6132 12.0133 26.5843C12.0225 26.536 12.0225 26.5071 12.0225 26.4877C12.0225 26.43 12.0129 26.3912 11.9848 26.3718C11.9664 26.3524 11.9195 26.3429 11.8726 26.3429H11.5724C11.4598 26.3429 11.3849 26.4489 11.3568 26.6805C11.3476 26.7098 11.3476 26.7193 11.3476 26.7387L11.2069 27.6269C11.029 27.9357 10.8695 28.1767 10.7384 28.3604C10.6074 28.5338 10.5136 28.6208 10.4667 28.6208C10.4383 28.6208 10.4194 28.6114 10.4102 28.6014C10.401 28.5915 10.401 28.5626 10.401 28.5238V28.4475L10.6166 27.0384C10.6306 26.9805 10.6393 26.9229 10.6468 26.8732C10.6494 26.8563 10.6518 26.8402 10.6543 26.8254C10.6543 26.7887 10.657 26.7548 10.6595 26.7237L10.6595 26.7237C10.6616 26.6975 10.6635 26.6733 10.6635 26.6512C10.6635 26.536 10.6354 26.4588 10.5885 26.4007C10.5513 26.333 10.4855 26.3041 10.401 26.3041C10.2699 26.3041 10.1297 26.3718 9.9982 26.5071C9.85753 26.6512 9.71686 26.8642 9.55775 27.1535ZM5.89351 24.8662H5.89384V25.1646L5.89351 25.1646V24.8662ZM5.89351 25.1646V25.1655H5.97767L6.02456 24.8662H5.89384V24.8653H4.67549L4.61938 25.1646C4.78811 25.1749 4.90954 25.2224 4.98489 25.3C5.05943 25.3871 5.0971 25.513 5.0971 25.6764C5.0971 25.7635 5.0971 25.8605 5.07827 25.9757C5.06865 26.0993 5.04989 26.2219 5.02216 26.3426L4.7312 28.013L2.80988 24.8658H1.77909L1.72258 25.1464C1.87247 25.1559 1.9943 25.1852 2.08809 25.2327C2.1737 25.2823 2.23998 25.3609 2.27565 25.4552L1.81636 28.013C1.75985 28.351 1.67569 28.5822 1.58191 28.7081C1.48813 28.8241 1.33824 28.8913 1.13184 28.9008L1.08521 29.1893H1.08495V29.191L1.08521 29.1893H2.5105L2.56661 28.8992C2.37905 28.8703 2.2484 28.8133 2.17305 28.7357C2.10772 28.6486 2.07005 28.5232 2.07005 28.3304C2.07005 28.2682 2.07631 28.1995 2.08356 28.1198L2.08889 28.0605C2.09677 27.9694 2.11169 27.8713 2.12763 27.7666L2.13578 27.7129L2.46361 25.8597L4.53482 29.2376H4.78811C4.80694 29.113 4.82538 28.9776 4.84421 28.8331C4.85435 28.7799 4.86331 28.724 4.87244 28.6671C4.88821 28.5688 4.90452 28.4671 4.92838 28.3696L5.33156 26.1399C5.39728 25.773 5.47223 25.513 5.57523 25.3677C5.64778 25.2557 5.76388 25.1817 5.89351 25.1646ZM6.82086 26.6716V26.4103L6.81645 26.4126C6.78063 26.4312 6.7448 26.4499 6.71746 26.478C6.54874 26.5845 6.38963 26.7385 6.23934 26.9415C6.08945 27.1339 5.97683 27.3564 5.89267 27.5879V27.5917C5.89209 27.5945 5.89094 27.5974 5.88966 27.6007C5.88703 27.6074 5.88384 27.6155 5.88384 27.6269C5.79851 27.865 5.75403 28.1165 5.75239 28.3703C5.75239 28.6304 5.79915 28.8423 5.89267 28.997V28.997L5.89269 28.9971L5.89306 28.9977V28.9975C5.89778 29.0024 5.90241 29.0097 5.907 29.0168C5.9116 29.024 5.91616 29.0311 5.92072 29.0358C6.03334 29.1906 6.19245 29.2674 6.40807 29.2674C6.55065 29.2667 6.69138 29.234 6.82046 29.1716V28.834C6.70961 28.8348 6.60511 28.7808 6.53952 28.6887C6.46458 28.5822 6.4269 28.4382 6.4269 28.2446C6.4269 28.2154 6.42922 28.1863 6.43154 28.1573C6.43383 28.1285 6.43612 28.0998 6.43612 28.0712C6.43612 28.0223 6.44302 27.9731 6.45073 27.9181L6.45496 27.8876C6.58641 27.8492 6.70825 27.8104 6.82046 27.7716V27.5305C6.72451 27.6099 6.61247 27.666 6.49263 27.6948C6.56798 27.318 6.64292 27.0278 6.71787 26.845C6.75554 26.7674 6.78359 26.7096 6.82086 26.6716ZM5.89306 28.9975L5.89269 28.9971L5.89267 28.997V27.5917C5.89292 27.5905 5.89306 27.5893 5.89306 27.5881V28.9975ZM38.6308 30.7531H37.291V30.5517C37.4036 30.5323 37.4878 30.5034 37.5439 30.4741C37.6096 30.4258 37.6749 30.3581 37.7314 30.2524C37.7783 30.1748 37.8344 30.0493 37.8905 29.8954C37.947 29.7311 38.0032 29.5578 38.0593 29.3543C38.0873 29.2478 38.1062 29.1227 38.125 28.9873C38.1438 28.8519 38.1438 28.6786 38.1438 28.4656C38.1438 27.9835 38.125 27.5972 38.0689 27.3078C38.022 27.0177 37.9567 26.8732 37.8721 26.8732C37.8344 26.8732 37.8064 26.8926 37.7599 26.9314C37.713 26.9702 37.6661 27.0379 37.6096 27.1242L37.4781 27.0466C37.5908 26.815 37.7126 26.6322 37.8533 26.4968C37.9939 26.3614 38.1346 26.2937 38.2657 26.2937C38.4248 26.2937 38.5466 26.439 38.6312 26.7378C38.725 27.0379 38.7722 27.4519 38.7722 27.993V27.9932C38.7722 28.1182 38.7722 28.263 38.763 28.4276C38.7538 28.601 38.7442 28.7847 38.7346 28.9869L38.7819 28.861C39.1285 27.9542 39.2969 27.3937 39.2969 27.172C39.2969 27.0944 39.278 27.0173 39.2403 26.931C39.2027 26.8439 39.1846 26.7762 39.1846 26.7279C39.1846 26.6029 39.2223 26.4964 39.2872 26.4192C39.358 26.3357 39.4615 26.2895 39.569 26.2933C39.6716 26.2933 39.7561 26.3321 39.8219 26.3998C39.8876 26.4774 39.9245 26.574 39.9245 26.6796C39.9245 26.8926 39.7658 27.2979 39.4375 27.9059C39.3179 28.1303 39.2197 28.3225 39.1384 28.4816C39.1112 28.5347 39.086 28.5842 39.0624 28.6299C38.8838 29.0001 38.7181 29.3768 38.5654 29.7592C38.4436 30.0873 38.3779 30.3003 38.3779 30.3866C38.3779 30.4737 38.4717 30.5319 38.6496 30.5702H38.6588L38.6308 30.7531ZM37.394 26.69H37.291V26.4006H37.4409L37.394 26.69ZM37.291 26.4007V26.6901H36.9535L36.6257 28.6403C36.6257 28.6451 36.6234 28.6499 36.6211 28.6548C36.6188 28.6596 36.6165 28.6645 36.6165 28.6692V28.6981C36.6165 28.727 36.6257 28.7563 36.6353 28.7757C36.6541 28.7951 36.673 28.8046 36.6918 28.8046C36.7387 28.8046 36.7948 28.7757 36.8697 28.708C36.9451 28.6403 37.0293 28.5438 37.1323 28.4187L37.2256 28.5339C37.0289 28.7951 36.8601 28.978 36.7199 29.0845C36.5696 29.2004 36.4289 29.2479 36.2978 29.2479C36.176 29.2479 36.0914 29.219 36.0353 29.1522C35.9696 29.094 35.9416 28.9974 35.9416 28.8715C35.9416 28.8335 35.9416 28.7757 35.9508 28.7175L35.9788 28.5145L36.3067 26.6901H36.0065L36.0534 26.5167C36.2221 26.4585 36.4 26.3426 36.5784 26.1597C36.7563 25.976 36.9158 25.735 37.0749 25.4357H37.2248C37.1803 25.5646 37.1459 25.697 37.1218 25.8316C37.0959 25.9386 37.0698 26.0648 37.0405 26.2063C37.0277 26.2683 37.0143 26.3332 37 26.4007H37.291ZM37.291 30.7538V30.5516L37.2865 30.5527C37.2503 30.5618 37.2141 30.571 37.1687 30.571L37.1407 30.7538H37.291ZM34.2074 27.1632L34.2074 27.163L34.2074 27.1348V27.1343C34.3761 26.8739 34.526 26.6716 34.6759 26.5263C34.8262 26.381 34.9572 26.3134 35.0694 26.3134C35.1536 26.3134 35.2285 26.3521 35.285 26.4198C35.3412 26.4974 35.3692 26.594 35.3692 26.7191C35.3692 26.7621 35.3619 26.8205 35.3535 26.8875L35.3504 26.9127C35.344 26.9598 35.3329 27.0206 35.3203 27.0892C35.3149 27.119 35.3092 27.1503 35.3035 27.1826L35.0221 28.6305C35.0129 28.64 35.0129 28.6499 35.0129 28.6594V28.6883C35.0129 28.7271 35.0221 28.756 35.0314 28.7754C35.0502 28.7948 35.069 28.8043 35.0971 28.8043C35.1344 28.8043 35.1812 28.7754 35.247 28.7172C35.3255 28.647 35.3977 28.5695 35.4626 28.4857L35.5656 28.6008C35.4065 28.8233 35.2566 28.9872 35.1155 29.0932C34.9744 29.1993 34.8342 29.2472 34.6843 29.2472C34.5721 29.2472 34.4967 29.2183 34.4406 29.1514C34.3845 29.0837 34.3657 28.9773 34.3657 28.8419C34.3657 28.7845 34.3657 28.7362 34.3749 28.6685C34.3749 28.6103 34.3841 28.5525 34.4029 28.4857L34.6654 27.124C34.6654 27.1193 34.6678 27.1144 34.6701 27.1096C34.6724 27.1047 34.6747 27.0999 34.6747 27.0951C34.6747 27.077 34.6783 27.0591 34.681 27.0457C34.6826 27.0377 34.6839 27.0313 34.6839 27.0274C34.6843 26.9975 34.6779 26.968 34.665 26.9411C34.6462 26.9217 34.6278 26.9123 34.6089 26.9123C34.5809 26.9123 34.5432 26.9411 34.4871 26.9993C34.4744 27.0175 34.4603 27.0364 34.4453 27.0566C34.4048 27.1111 34.3571 27.1752 34.3092 27.2598L34.2074 27.1632ZM34.2075 26.7767L34.2074 26.7772V26.4879L34.2068 26.4852C34.1974 26.4474 34.1882 26.4102 34.1698 26.3828C34.1276 26.3393 34.0703 26.315 34.0107 26.3151C33.87 26.3151 33.7293 26.4216 33.6075 26.6247C33.4764 26.8364 33.3077 27.2421 33.1109 27.8402H33.0829C33.1253 27.5872 33.1597 27.3328 33.1859 27.0774C33.2139 26.8657 33.2236 26.701 33.2236 26.5859C33.2236 26.4794 33.2139 26.4117 33.1859 26.3729C33.167 26.3341 33.1206 26.3147 33.064 26.3147C32.961 26.3147 32.8392 26.3919 32.6893 26.5466C32.5298 26.7006 32.3707 26.9231 32.202 27.2029L32.3238 27.2995C32.3739 27.2156 32.4199 27.1489 32.456 27.0965L32.456 27.0965C32.4739 27.0705 32.4894 27.048 32.5018 27.0287C32.5482 26.9809 32.5767 26.952 32.6048 26.952C32.614 26.952 32.6236 26.9615 32.6236 26.9809C32.6328 27.0003 32.6328 27.0188 32.6328 27.0671C32.6328 27.0831 32.6301 27.1074 32.626 27.1435V27.1435C32.6227 27.1737 32.6184 27.2122 32.614 27.2607C32.6009 27.3839 32.5822 27.5063 32.5579 27.6276L32.3611 29.0562C32.3611 29.0562 32.3611 29.0661 32.3519 29.0756V29.1045C32.3519 29.1433 32.3611 29.1627 32.3799 29.1722C32.3988 29.1916 32.4456 29.1916 32.5298 29.1916H32.8204C32.8857 29.1916 32.9234 29.1916 32.9422 29.1722C32.9703 29.1623 32.9799 29.1334 32.9891 29.0946L33.0172 28.9398C33.1298 28.3128 33.2512 27.8493 33.3638 27.5694C33.4857 27.2801 33.6167 27.1348 33.7666 27.1348C33.7854 27.1348 33.8139 27.1348 33.8419 27.1443H33.9073C34.0107 27.1443 34.0856 27.0956 34.1417 26.9998C34.1761 26.9302 34.1983 26.8549 34.2075 26.7774V26.7767ZM34.2075 26.4882V26.7767C34.2166 26.7187 34.2166 26.661 34.2166 26.5944C34.2166 26.5557 34.2166 26.5171 34.2075 26.4882ZM34.9665 25.4167C34.9665 25.2425 35.0134 25.0985 35.0979 24.9726C35.1821 24.8566 35.2855 24.7992 35.4069 24.7992C35.5007 24.7992 35.5756 24.8281 35.6321 24.9049C35.679 24.9726 35.7071 25.0597 35.7071 25.1757C35.7071 25.3585 35.6694 25.5038 35.5853 25.6289C35.5011 25.7448 35.3977 25.803 35.2763 25.803C35.1894 25.8046 35.1065 25.7654 35.051 25.6966C34.9945 25.6284 34.9665 25.5327 34.9665 25.4167ZM26.297 28.8335V28.834C26.186 28.8349 26.0814 28.7808 26.0157 28.6887C25.9503 28.5822 25.9127 28.4382 25.9127 28.2446C25.9127 28.1864 25.9127 28.1286 25.9219 28.0712C25.9219 28.0207 25.9289 27.9699 25.9369 27.9126L25.9403 27.8876C26.0604 27.8533 26.1792 27.8146 26.2966 27.7716V27.5305C26.2032 27.6077 26.0998 27.6659 25.978 27.6948C26.0533 27.318 26.1283 27.0278 26.2032 26.845C26.226 26.7827 26.2576 26.7244 26.297 26.6717V26.6725C26.3531 26.6048 26.4 26.566 26.4561 26.566C26.5122 26.566 26.5498 26.5854 26.5779 26.6337C26.6064 26.6721 26.6248 26.739 26.6248 26.8166C26.6247 27.018 26.5624 27.2142 26.4468 27.3767L26.445 27.379C26.3987 27.4356 26.3523 27.4924 26.297 27.5306V27.7717C26.5498 27.666 26.747 27.5595 26.8873 27.4444C27.0845 27.2805 27.1875 27.0774 27.1875 26.8364C27.1875 26.6816 27.1406 26.5565 27.0468 26.46C26.953 26.363 26.8312 26.3147 26.6717 26.3147C26.5499 26.3147 26.428 26.3436 26.297 26.4112V26.4103C26.2866 26.4175 26.275 26.4246 26.2626 26.4322C26.2414 26.4452 26.2179 26.4595 26.1944 26.478C26.0349 26.5845 25.8758 26.7385 25.7163 26.9415C25.5664 27.1438 25.4442 27.3762 25.36 27.6267C25.2754 27.8678 25.2382 28.1187 25.2382 28.3701C25.2382 28.6594 25.2943 28.8906 25.4069 29.0358C25.5191 29.1906 25.6786 29.2674 25.8942 29.2674C26.0337 29.2666 26.1713 29.2339 26.297 29.1716V29.1711C26.336 29.1593 26.3736 29.1432 26.4092 29.1228C26.5875 29.0262 26.8031 28.8715 27.0372 28.6593L26.9622 28.5433C26.8312 28.6399 26.7186 28.7175 26.6156 28.7658C26.5034 28.8141 26.4096 28.8335 26.3346 28.8335H26.297ZM26.297 29.1711L26.297 29.1711V28.834L26.297 28.834V29.1711ZM26.297 26.4113L26.297 26.4112V26.6716L26.297 26.6717V26.4113ZM28.4992 29.1135C28.6679 29.007 28.8178 28.8336 28.9493 28.6112L28.8459 28.5047C28.7333 28.6302 28.6303 28.7272 28.5645 28.7754C28.4896 28.8237 28.4146 28.8423 28.3397 28.8423C28.2175 28.8423 28.1145 28.7849 28.0584 28.669C27.993 28.5625 27.9554 28.3891 27.9554 28.1666C27.9554 27.7902 28.0022 27.4617 28.0868 27.1822C28.1714 26.9028 28.2555 26.7575 28.3493 26.7575C28.3962 26.7575 28.4615 26.8058 28.5553 26.9123C28.6587 27.0093 28.7525 27.0567 28.8555 27.0567C28.9493 27.0567 29.0242 27.0279 29.0711 26.961C29.1272 26.8933 29.1553 26.8062 29.1553 26.6997C29.1586 26.5949 29.1134 26.4947 29.0334 26.4298C28.9581 26.3526 28.8647 26.3138 28.7521 26.3138C28.5549 26.3138 28.3581 26.3914 28.1521 26.5557C27.9457 26.7191 27.7774 26.9321 27.6367 27.202C27.5356 27.4057 27.454 27.619 27.3931 27.8389C27.337 28.042 27.3089 28.2442 27.3089 28.4378C27.3089 28.7177 27.3654 28.9199 27.4776 29.0652C27.5898 29.2092 27.7494 29.2868 27.965 29.2868C28.1525 29.2868 28.3305 29.2286 28.4992 29.1135ZM30.8802 27.9164C30.6365 28.3411 30.4021 28.6791 30.1772 28.9202C29.9616 29.162 29.7837 29.2871 29.6522 29.2871C29.5872 29.2903 29.5246 29.2615 29.4835 29.2095C29.4458 29.1521 29.427 29.075 29.427 28.9685C29.427 28.9297 29.427 28.8719 29.4366 28.7951C29.4458 28.7175 29.4647 28.6209 29.4835 28.5243L29.6991 27.2411C29.7087 27.1734 29.7179 27.1251 29.7272 27.0863V27C29.7272 26.9712 29.7272 26.9518 29.7179 26.9418C29.7087 26.9224 29.6991 26.913 29.6807 26.913C29.6618 26.913 29.6338 26.9418 29.5961 26.9906C29.573 27.0261 29.5391 27.0766 29.4966 27.1397L29.4965 27.1399L29.4958 27.1409L29.4958 27.141L29.4089 27.2704L29.2963 27.1738C29.4931 26.8457 29.6618 26.624 29.7837 26.508C29.9055 26.3921 30.0366 26.3244 30.1772 26.3244C30.2614 26.3244 30.3275 26.3533 30.374 26.4115C30.4113 26.4697 30.4397 26.5468 30.4397 26.6525C30.4397 26.7202 30.4117 26.8944 30.3648 27.1837L30.3556 27.2126L30.168 28.2358C30.1588 28.2746 30.1588 28.3134 30.1588 28.3423C30.1492 28.3811 30.1492 28.4005 30.1492 28.4199C30.1492 28.4587 30.1588 28.4967 30.168 28.5157C30.1772 28.5351 30.1961 28.5446 30.2149 28.5446C30.2714 28.5446 30.3836 28.4294 30.5335 28.1875C30.6834 27.9465 30.8337 27.6472 30.9836 27.2902L31.077 26.759C31.077 26.7551 31.0786 26.7495 31.0805 26.7429C31.0833 26.7335 31.0866 26.7221 31.0866 26.7107C31.1335 26.4697 31.2273 26.3537 31.3772 26.3537H31.5739C31.63 26.3537 31.6769 26.3632 31.7054 26.3731C31.7334 26.3925 31.7523 26.4119 31.7523 26.4408C31.7523 26.4891 31.7431 26.5568 31.7242 26.6727V26.7107L31.4429 28.3906C31.4376 28.4016 31.4354 28.4157 31.4326 28.4328C31.4306 28.4458 31.4282 28.4605 31.424 28.4769C31.424 28.5028 31.4199 28.5201 31.4172 28.5315C31.4158 28.5372 31.4148 28.5414 31.4148 28.5446C31.4148 28.5735 31.424 28.6028 31.4333 28.6222C31.4425 28.6317 31.4521 28.6416 31.4613 28.6416C31.499 28.6416 31.5367 28.6222 31.5928 28.5739C31.6323 28.5331 31.6853 28.4583 31.7627 28.3489L31.8084 28.2845L31.9114 28.4005C31.7238 28.6899 31.5455 28.902 31.3772 29.0568C31.1992 29.2107 31.0585 29.2883 30.9271 29.2883C30.8678 29.2893 30.8118 29.2603 30.7772 29.2107C30.7399 29.1633 30.7207 29.0956 30.7207 28.9986C30.7207 28.9756 30.7229 28.9526 30.7252 28.9286V28.9285V28.9285V28.9285V28.9285V28.9285C30.7277 28.902 30.7303 28.8743 30.7303 28.8438C30.7333 28.8249 30.7354 28.8059 30.7374 28.7869C30.7416 28.7482 30.7457 28.7094 30.7584 28.6705L30.8802 27.9164ZM22.3885 27.8195L22.126 28.9294C22.3697 29.0553 22.6041 29.1519 22.8206 29.2093C23.0454 29.277 23.2514 29.3058 23.4389 29.3058C23.8417 29.3058 24.17 29.1808 24.4325 28.9389C24.7042 28.6884 24.8356 28.3891 24.8356 28.0321C24.8356 27.8195 24.7888 27.6169 24.7042 27.4332C24.62 27.2503 24.4233 26.9994 24.1327 26.6803L24.0201 26.5652C23.6357 26.1504 23.4389 25.8317 23.4389 25.6092C23.4389 25.4458 23.4858 25.3199 23.5704 25.2328C23.6453 25.1366 23.7672 25.0883 23.9079 25.0883C24.108 25.0856 24.2981 25.1781 24.4233 25.3389C24.5635 25.5032 24.6481 25.7347 24.7042 26.0529L24.9479 26.0818L25.107 24.8172H24.9663C24.9367 24.8257 24.895 24.8451 24.8369 24.8722L24.8368 24.8722L24.8368 24.8723L24.7884 24.8948L24.6946 24.9431C24.6385 24.9336 24.5162 24.9047 24.3479 24.8465C24.1792 24.7986 24.0385 24.7697 23.9263 24.7697C23.6073 24.7697 23.3356 24.8948 23.1107 25.1366C22.8951 25.3777 22.7825 25.6769 22.7825 26.034C22.7825 26.4009 23.0542 26.8644 23.5792 27.4142C23.6761 27.5237 23.7569 27.6074 23.8128 27.6654L23.8225 27.6755C23.9632 27.8294 24.0569 27.9553 24.1038 28.0519C24.1507 28.1481 24.1788 28.2447 24.1788 28.3511C24.1788 28.534 24.1135 28.6793 23.982 28.7953C23.8509 28.9104 23.6914 28.9686 23.4947 28.9686C23.2225 28.9686 23.0262 28.8716 22.8855 28.6888C22.7536 28.4952 22.6791 28.2059 22.6602 27.81L22.3885 27.8195ZM42.3994 26.381C42.5019 26.5069 42.6711 26.6035 42.9051 26.6803C42.5208 26.7963 42.2302 26.9511 42.0427 27.1517C41.8555 27.3638 41.7617 27.6251 41.7617 27.9338C41.7617 28.3391 41.9028 28.6673 42.2026 28.9083C42.4931 29.1502 42.8867 29.2753 43.3933 29.2753C43.6745 29.2761 43.9526 29.2137 44.208 29.0924C44.4521 28.9665 44.6485 28.7833 44.8176 28.5513C44.899 28.4423 44.9651 28.3221 45.014 28.1943C45.0517 28.0692 45.0797 27.9532 45.0797 27.8372C45.0797 27.7596 45.0609 27.6738 45.0328 27.5962C45.014 27.5186 44.9671 27.4315 44.9114 27.3357H45.0701C45.323 27.3357 45.5106 27.278 45.6508 27.1521C45.7919 27.0262 45.8576 26.8433 45.8576 26.6217C45.8576 26.4958 45.8388 26.3992 45.8011 26.341C45.7542 26.2741 45.6885 26.2452 45.6048 26.2452C45.5496 26.2451 45.4962 26.2654 45.4545 26.3026C45.4168 26.3509 45.3979 26.4091 45.3979 26.4768C45.3979 26.5346 45.4264 26.5928 45.4733 26.6597C45.5206 26.7174 45.5486 26.7562 45.5486 26.7756C45.5486 26.8144 45.5302 26.8433 45.5018 26.8627C45.4733 26.8821 45.436 26.8916 45.3795 26.8916C45.3515 26.8916 45.2396 26.8821 45.0328 26.8627C44.8365 26.8334 44.6485 26.8239 44.471 26.8239C44.208 26.8239 44.0021 26.9015 43.8433 27.0555C43.6838 27.2103 43.6085 27.4129 43.6085 27.6643C43.6092 27.7477 43.6356 27.8288 43.6838 27.8958C43.7403 27.9536 43.7965 27.9924 43.871 27.9924C43.9275 27.9924 43.9744 27.9631 44.0121 27.9148C44.059 27.8665 44.0778 27.8088 44.0778 27.732C44.0778 27.6837 44.0497 27.6255 43.9932 27.5772C43.9459 27.5194 43.9179 27.4806 43.9179 27.4612C43.9179 27.4082 43.9423 27.3583 43.9836 27.3267C44.0305 27.2974 44.087 27.2879 44.1716 27.2879C44.3772 27.2879 44.5371 27.3366 44.6489 27.4323C44.7615 27.5293 44.818 27.6647 44.818 27.8476C44.8159 27.9863 44.7804 28.1223 44.7146 28.2434C44.6397 28.3788 44.5455 28.4939 44.4148 28.6004C44.2895 28.701 44.1506 28.7823 44.0025 28.8415C43.8522 28.8997 43.7027 28.9286 43.5524 28.9286C43.243 28.9286 42.9997 28.8229 42.8117 28.6198C42.6338 28.4081 42.54 28.1377 42.54 27.7993C42.54 27.5293 42.5961 27.3077 42.7184 27.1335C42.849 26.97 42.9993 26.883 43.1957 26.883C43.2237 26.883 43.2706 26.883 43.3271 26.8924H43.4209C43.4859 26.8924 43.5331 26.8825 43.5612 26.8536C43.5893 26.8248 43.6081 26.776 43.6081 26.7183C43.6081 26.6605 43.5985 26.6225 43.5704 26.6031C43.5516 26.5738 43.5047 26.5643 43.4301 26.5643H43.3833C43.2426 26.5643 43.13 26.516 43.0554 26.4095C42.9805 26.303 42.9428 26.1685 42.9428 25.9848C42.9428 25.7244 43.0085 25.5122 43.158 25.3285C43.2987 25.1453 43.4678 25.0487 43.6738 25.0487C43.7676 25.0487 43.8514 25.078 43.9171 25.1263C43.9828 25.1746 44.0393 25.2513 44.0862 25.3673C44.0901 25.3796 44.0958 25.3954 44.1024 25.4139L44.1026 25.4143L44.1026 25.4145C44.1116 25.4395 44.1224 25.4695 44.1331 25.5027C44.198 25.6856 44.301 25.7726 44.4421 25.7726C44.5196 25.7749 44.5945 25.7433 44.6481 25.6856C44.7046 25.6179 44.7327 25.5415 44.7327 25.435C44.7327 25.2707 44.6389 25.1263 44.4329 24.9909C44.2261 24.8654 43.9732 24.808 43.6734 24.808C43.2422 24.808 42.8955 24.9042 42.6238 25.1073C42.3617 25.3095 42.2302 25.5795 42.2302 25.9084C42.2302 26.1012 42.2867 26.256 42.3994 26.381ZM70.2728 28.8335H70.3009C70.3847 28.8335 70.4784 28.8141 70.5818 28.7658C70.6852 28.7175 70.8067 28.6399 70.9381 28.5433L71.0135 28.6593C70.7694 28.8715 70.5634 29.0262 70.3762 29.1228L70.3601 29.1314L70.3489 29.1375C70.3234 29.1515 70.3006 29.164 70.2728 29.1711V28.8335ZM70.2728 27.7717C70.5257 27.666 70.7229 27.5595 70.8636 27.4444C71.0608 27.2805 71.1634 27.0774 71.1634 26.8364C71.1634 26.6816 71.1161 26.5565 71.0231 26.46C70.9289 26.363 70.8067 26.3147 70.648 26.3147C70.5172 26.3155 70.3886 26.3486 70.2728 26.4113V26.6725C70.3197 26.6048 70.3758 26.566 70.4315 26.566C70.4881 26.566 70.5257 26.5854 70.5538 26.6337C70.5822 26.6721 70.5915 26.739 70.5915 26.8166C70.5915 27.0283 70.535 27.2124 70.4223 27.3767C70.3762 27.4341 70.3294 27.4918 70.2728 27.5306V27.7717ZM73.1126 27.2695C73.1126 27.255 73.1149 27.2381 73.1172 27.2212C73.1195 27.2043 73.1218 27.1874 73.1218 27.1729C73.131 27.144 73.131 27.1147 73.131 27.0858C73.1315 27.0529 73.125 27.0202 73.1122 26.9901C73.103 26.9806 73.0842 26.9707 73.0557 26.9707C72.9992 26.9707 72.9335 27.0181 72.8405 27.1341C72.7467 27.2501 72.568 27.5105 72.3058 27.9064L72.1471 28.814C72.1095 28.9969 72.0814 29.1133 72.0437 29.1421C72.0157 29.1809 71.95 29.1904 71.8466 29.1904H71.6313C71.5656 29.1904 71.5187 29.1904 71.4999 29.1809C71.4718 29.1715 71.463 29.1521 71.463 29.1327V29.0361C71.4673 29.0113 71.4694 28.9865 71.4718 28.9591V28.959C71.474 28.933 71.4764 28.9047 71.4811 28.8718L71.7628 27.2505L71.7639 27.2458C71.7728 27.2085 71.7816 27.1713 71.7816 27.1345C71.7816 27.1186 71.7844 27.1056 71.7869 27.0939C71.789 27.0843 71.7909 27.0756 71.7909 27.0668C71.7909 27.0514 71.7881 27.0383 71.7855 27.0265C71.7835 27.017 71.7816 27.0083 71.7816 27C71.7724 26.9806 71.7628 26.9711 71.7536 26.9711C71.7159 26.9711 71.6221 27.0767 71.4718 27.3087L71.435 27.357L71.3127 27.2699C71.5091 26.9517 71.6782 26.7193 71.8373 26.5653C71.9876 26.4106 72.1287 26.3235 72.2405 26.3235C72.3251 26.3235 72.3908 26.3524 72.4285 26.4106C72.4662 26.4688 72.485 26.5653 72.485 26.6805V26.7965C72.4805 26.8155 72.4782 26.8368 72.4759 26.8581V26.8582C72.4735 26.8803 72.4711 26.9026 72.4662 26.9224L72.3816 27.4722C72.6156 27.0957 72.8409 26.8159 73.0469 26.6231C73.2529 26.42 73.4312 26.323 73.5815 26.323C73.6653 26.323 73.731 26.3618 73.7779 26.4295C73.8248 26.4972 73.8532 26.6037 73.8532 26.7383C73.8532 26.7612 73.8512 26.7821 73.849 26.8038L73.849 26.804V26.8041V26.8042V26.8043V26.8044V26.8044V26.8045V26.8046C73.8465 26.8284 73.844 26.8534 73.844 26.8836C73.8332 26.9411 73.8238 26.9989 73.816 27.0569L73.4881 28.5437C73.4836 28.5578 73.4813 28.5697 73.479 28.5815C73.4766 28.5939 73.4742 28.6063 73.4693 28.6213V28.6795C73.4693 28.7083 73.4693 28.7277 73.4785 28.7471C73.4877 28.7566 73.5066 28.7665 73.5162 28.7665C73.5539 28.7665 73.6 28.7277 73.6657 28.6601C73.7154 28.6013 73.7707 28.5263 73.8349 28.4391C73.8555 28.4111 73.8771 28.3817 73.8997 28.3513L74.0124 28.4665C73.8348 28.7471 73.6657 28.9494 73.5162 29.0753C73.3659 29.2098 73.2156 29.2775 73.0661 29.2775C72.9723 29.2775 72.9066 29.2486 72.8689 29.1913C72.8228 29.1331 72.804 29.046 72.804 28.9205C72.804 28.8247 72.8313 28.6601 72.8786 28.419V28.3996L73.1126 27.2695ZM74.4432 26.6901H74.7522L74.4239 28.5145L74.3959 28.7175C74.3867 28.7757 74.3867 28.8335 74.3867 28.8715C74.3867 28.9974 74.4147 29.094 74.4712 29.1522C74.5369 29.219 74.6215 29.2479 74.7429 29.2479C74.8744 29.2479 75.0147 29.2004 75.165 29.0845C75.306 28.978 75.4743 28.7951 75.6715 28.5339L75.5778 28.4187C75.4743 28.5438 75.3902 28.6403 75.3156 28.708C75.2407 28.7757 75.1842 28.8046 75.1373 28.8046C75.1185 28.8046 75.0996 28.7951 75.0808 28.7757C75.0712 28.7563 75.062 28.727 75.062 28.6981V28.6692C75.062 28.6597 75.062 28.6498 75.0712 28.6403L75.399 26.6901H75.8302L75.8867 26.4007H75.4459C75.468 26.269 75.4937 26.1472 75.5168 26.0377C75.5326 25.963 75.5471 25.894 75.5585 25.8316C75.5895 25.6977 75.6271 25.5656 75.6711 25.4357H75.5208C75.3621 25.735 75.193 25.976 75.0239 26.1597C74.8463 26.3426 74.6676 26.4585 74.4901 26.5167L74.4432 26.6901ZM70.2727 26.4103V26.6716C70.235 26.7096 70.207 26.7674 70.1789 26.845C70.0943 27.0278 70.0202 27.318 69.9448 27.6948C70.0755 27.6659 70.1789 27.6077 70.2727 27.5305V27.7716C70.1601 27.8104 70.0378 27.8492 69.9072 27.8876C69.9029 27.9193 69.9006 27.9489 69.8984 27.9773C69.8959 28.0096 69.8935 28.0405 69.8883 28.0712V28.2446C69.8883 28.4382 69.9164 28.5822 69.9917 28.6887C70.0572 28.781 70.1618 28.8351 70.2727 28.834V29.1716C70.1465 29.2329 70.009 29.2656 69.8695 29.2674C69.6543 29.2674 69.4852 29.1906 69.3725 29.0358C69.2699 28.8906 69.2138 28.6594 69.2138 28.3701C69.2138 28.1187 69.2515 27.8678 69.3353 27.6267C69.4198 27.3762 69.5325 27.1438 69.6916 26.9415C69.8419 26.7385 70.0014 26.5845 70.1697 26.478C70.207 26.4487 70.235 26.4297 70.2727 26.4103ZM63.918 28.8335L63.9181 28.834C63.8072 28.8351 63.7025 28.781 63.6371 28.6887C63.5714 28.5822 63.5337 28.4382 63.5337 28.2446C63.5337 28.1864 63.5337 28.1286 63.5429 28.0712C63.5429 28.0223 63.5498 27.9731 63.5576 27.918L63.5618 27.8876C63.6932 27.8492 63.8147 27.8104 63.9181 27.7716L63.918 27.7717C64.1709 27.666 64.3673 27.5595 64.5084 27.4444C64.7152 27.2805 64.8082 27.0774 64.8082 26.8364C64.8082 26.6816 64.7617 26.557 64.6679 26.46C64.5741 26.363 64.4519 26.3147 64.3024 26.3147C64.1709 26.3147 64.0487 26.3436 63.9181 26.4103C63.9076 26.4176 63.8958 26.4247 63.8832 26.4324L63.883 26.4325L63.8828 26.4327L63.8827 26.4327C63.8616 26.4455 63.8381 26.4598 63.8147 26.478C63.6556 26.5845 63.4961 26.7385 63.3458 26.9415C63.1871 27.1438 63.0648 27.3762 62.9803 27.6267C62.9057 27.8678 62.8588 28.1187 62.8588 28.3701C62.8588 28.6594 62.9153 28.8906 63.0271 29.0358C63.1398 29.1906 63.2989 29.2674 63.5149 29.2674C63.6545 29.2666 63.7922 29.2339 63.9181 29.1716L63.918 29.1711C63.9571 29.1594 63.9947 29.1432 64.0303 29.1228C64.2086 29.0262 64.4238 28.8715 64.6587 28.6593L64.5833 28.5433C64.4519 28.6399 64.3401 28.7175 64.2367 28.7658C64.1333 28.8141 64.0395 28.8335 63.9557 28.8335H63.918ZM63.918 26.6716V26.4113L63.9181 26.4103V26.6716L63.918 26.6716ZM63.918 26.6716C63.89 26.7096 63.8615 26.7674 63.8243 26.845C63.7489 27.0278 63.674 27.318 63.5995 27.6948C63.7209 27.6659 63.8335 27.6077 63.9181 27.5305L63.918 27.5306L63.9181 27.7716V27.5305C63.9746 27.4918 64.0215 27.434 64.0675 27.3767C64.1898 27.2124 64.2459 27.0283 64.2459 26.8166C64.2459 26.739 64.227 26.6721 64.199 26.6337C64.1709 26.5854 64.1333 26.566 64.0768 26.566C64.021 26.566 63.9742 26.6048 63.918 26.6725V26.6716ZM65.7929 28.814L65.9516 27.9158C66.2141 27.5105 66.3924 27.2501 66.4858 27.1341C66.5788 27.0181 66.6541 26.9607 66.701 26.9607C66.7295 26.9607 66.7483 26.9706 66.7575 26.9801L66.7576 26.9802C66.7672 26.9996 66.7764 27.0181 66.7764 27.047C66.7764 27.0854 66.7764 27.1242 66.7672 27.163C66.7672 27.1904 66.7585 27.2266 66.7498 27.2634L66.7497 27.2635L66.7483 27.2695L66.4674 28.8714C66.4674 28.8748 66.4661 28.8809 66.4644 28.8886L66.4644 28.8886L66.4643 28.8887C66.4614 28.9022 66.4574 28.9207 66.4574 28.939C66.4393 29.036 66.4393 29.0938 66.4393 29.1326C66.4393 29.152 66.4489 29.1714 66.477 29.1809C66.495 29.1904 66.5419 29.1904 66.6077 29.1904H66.8145C66.9639 29.1904 67.0581 29.074 67.105 28.8235V28.814L67.2733 27.9063C67.5362 27.501 67.7142 27.2501 67.808 27.1341C67.901 27.0181 67.9763 26.9607 68.0232 26.9607C68.0512 26.9607 68.0797 26.9702 68.0889 26.9896C68.1077 26.9995 68.1077 27.0276 68.1077 27.0664V27.1535L68.1027 27.1731C68.0952 27.2022 68.0889 27.2263 68.0889 27.2501L67.8549 28.3988C67.8172 28.5527 67.7984 28.6687 67.7891 28.7364C67.7799 28.8041 67.7799 28.8709 67.7799 28.9192C67.7799 29.0447 67.7988 29.1318 67.8364 29.19C67.8837 29.2474 67.9486 29.2763 68.0424 29.2763C68.1927 29.2763 68.3422 29.2086 68.4925 29.0835C68.6328 28.9481 68.8019 28.7459 68.9794 28.4652L68.8676 28.35C68.8433 28.3825 68.8202 28.4136 68.7982 28.4433L68.7944 28.4484L68.7943 28.4486L68.7939 28.4492C68.7329 28.5316 68.6803 28.6026 68.6328 28.6588C68.5678 28.7265 68.5206 28.7653 68.4925 28.7653C68.4737 28.7653 68.464 28.7554 68.4548 28.7459C68.4452 28.7265 68.436 28.7071 68.436 28.6782V28.62C68.4409 28.6101 68.4433 28.5978 68.4457 28.5855C68.448 28.5736 68.4503 28.5618 68.4548 28.5523L68.7827 27.0561C68.8015 27.0086 68.8107 26.9508 68.8107 26.8926C68.8199 26.8443 68.8199 26.7861 68.8199 26.7378C68.8199 26.6033 68.8015 26.4968 68.7542 26.4291C68.7069 26.3614 68.632 26.3226 68.5482 26.3226C68.3979 26.3226 68.2204 26.4196 68.0136 26.6227C67.8076 26.8154 67.5916 27.0953 67.3483 27.4717L67.414 27.0759C67.4173 27.0489 67.4217 27.0217 67.4261 26.9949C67.4342 26.9459 67.4421 26.898 67.4421 26.8542L67.445 26.8341C67.4534 26.7749 67.4609 26.723 67.4609 26.6714C67.4609 26.5554 67.4421 26.4683 67.3952 26.4101C67.3575 26.3519 67.2918 26.323 67.208 26.323C67.0673 26.323 66.8982 26.4196 66.6922 26.6132C66.495 26.8154 66.2702 27.0953 66.0269 27.4717L66.1207 26.9219C66.1207 26.9025 66.1228 26.8808 66.1249 26.859C66.127 26.8372 66.1291 26.8154 66.1291 26.796C66.1391 26.7576 66.1391 26.7188 66.1391 26.6801C66.1391 26.5649 66.1203 26.4683 66.0734 26.4101C66.0361 26.3519 65.9796 26.323 65.8951 26.323C65.774 26.323 65.6422 26.4101 65.4827 26.5649C65.3332 26.7188 65.1548 26.9512 64.9677 27.2695L65.0899 27.3566L65.1172 27.3178C65.2675 27.0759 65.3709 26.9607 65.4085 26.9607C65.4178 26.9607 65.4266 26.9702 65.4358 26.9896C65.4358 26.9984 65.4377 27.0093 65.4398 27.0211C65.4423 27.0354 65.445 27.0511 65.445 27.0664C65.445 27.0694 65.4441 27.0734 65.4429 27.0788L65.4429 27.079C65.4402 27.0912 65.4358 27.1107 65.4358 27.144C65.4262 27.1828 65.4178 27.2216 65.4178 27.2505L65.136 28.8718L65.13 28.9127V28.9128C65.1229 28.9601 65.1172 28.9981 65.1172 29.036C65.108 29.0744 65.108 29.1037 65.108 29.1326C65.108 29.152 65.1176 29.1714 65.1456 29.1809C65.1737 29.1904 65.2113 29.1904 65.2771 29.1904H65.4923C65.6053 29.1904 65.671 29.1809 65.6991 29.1421C65.7364 29.1033 65.764 28.9968 65.7929 28.814ZM61.5744 30.5029H61.5471V30.7151C61.7062 30.6767 61.8377 30.6288 61.9587 30.5607C62.2028 30.4352 62.3242 30.2713 62.3242 30.0683C62.3242 29.8656 62.1371 29.6336 61.7716 29.3732C61.7382 29.3503 61.7079 29.3274 61.683 29.3084L61.6827 29.3082L61.6826 29.3081L61.6826 29.3081C61.6658 29.2953 61.6514 29.2844 61.6401 29.2766C61.6324 29.2713 61.624 29.266 61.6153 29.2604C61.5922 29.2458 61.5669 29.2299 61.5471 29.2089V30.0877C61.6778 30.1942 61.7435 30.2713 61.7435 30.3287C61.7435 30.3964 61.687 30.4546 61.5744 30.5029ZM61.5471 28.4288V28.4284C61.5558 28.4239 61.5624 28.4192 61.569 28.4146C61.5762 28.4095 61.5834 28.4045 61.5932 28.3995C61.6309 28.3607 61.6686 28.293 61.7058 28.1965C61.7716 28.0136 61.8281 27.8295 61.8653 27.6372C61.903 27.4436 61.9211 27.2607 61.9211 27.0672C61.9211 26.8843 61.903 26.7489 61.8561 26.6618C61.8185 26.5756 61.7624 26.5273 61.6778 26.5273C61.6309 26.5273 61.5932 26.5467 61.5471 26.5756V26.3626C61.6968 26.305 61.8554 26.2758 62.0152 26.2763C62.109 26.2763 62.2212 26.2858 62.3339 26.3044C62.4561 26.3238 62.5779 26.3432 62.7182 26.3721V26.7774C62.6849 26.7655 62.65 26.759 62.6148 26.758C62.5875 26.7485 62.5403 26.7485 62.503 26.7485H62.4276C62.5016 26.9221 62.54 27.1096 62.5403 27.2991C62.5403 27.5596 62.4745 27.8101 62.3242 28.0231C62.1747 28.2447 61.9679 28.4189 61.7058 28.5634C61.6526 28.5845 61.5998 28.6069 61.5475 28.6305V28.4285L61.5471 28.4288ZM61.0501 28.6885L61.0502 28.6886V26.6611C61.1801 26.5477 61.3253 26.4535 61.4814 26.3821C61.5079 26.3813 61.5255 26.3728 61.5439 26.3638L61.5471 26.3623V26.5753C61.4718 26.643 61.406 26.7581 61.3403 26.9323C61.2369 27.1927 61.1816 27.511 61.1816 27.8585C61.1816 28.0521 61.2088 28.1961 61.2561 28.3026C61.3034 28.4091 61.3784 28.4574 61.4629 28.4574C61.4909 28.4574 61.5192 28.448 61.5471 28.4288V28.6307L61.5475 28.6305V28.6308C61.5208 28.6375 61.494 28.6492 61.4639 28.6624L61.4639 28.6624L61.4639 28.6625C61.4516 28.6678 61.4388 28.6734 61.4253 28.6791C61.2842 28.7274 61.2092 28.7855 61.2092 28.8425C61.2092 28.8813 61.2469 28.9391 61.3219 29.0167C61.3784 29.0749 61.4533 29.1426 61.5471 29.2094V30.0882C61.532 30.0766 61.5154 30.065 61.498 30.0527C61.4719 30.0344 61.4438 30.0146 61.4156 29.9916C61.2902 29.9002 61.1682 29.8036 61.0501 29.7023L61.0502 29.7016C61.0276 29.6784 61.0039 29.6551 60.9802 29.6319C60.935 29.5876 60.8898 29.5433 60.853 29.4994C60.7035 29.5576 60.5813 29.634 60.4967 29.7404C60.4111 29.8345 60.3643 29.9591 60.366 30.088C60.366 30.2234 60.4318 30.3385 60.572 30.4355C60.6943 30.5131 60.853 30.5614 61.0502 30.5614L61.0501 30.5617H61.1159C61.2934 30.5613 61.4345 30.5423 61.5471 30.5035V30.7157C61.3968 30.7446 61.2373 30.764 61.0501 30.764L61.0502 30.7637H61.0125C60.6374 30.7637 60.3376 30.7154 60.0943 30.6097C60.0415 30.5899 59.9911 30.5638 59.944 30.5321V29.8564L59.9909 29.8081C60.1496 29.6628 60.4129 29.4994 60.7504 29.3252L60.7496 29.3228L60.7496 29.3227C60.7406 29.2946 60.7315 29.2662 60.7315 29.2381C60.7223 29.2187 60.7223 29.1907 60.7223 29.1614C60.7188 29.0621 60.7523 28.9651 60.8161 28.8906C60.8775 28.8099 60.9581 28.7469 61.0502 28.7077L61.0501 28.7084C61.0594 28.7084 61.069 28.7084 61.0782 28.6989C61.069 28.6989 61.0594 28.6989 61.0501 28.6894V28.6885ZM61.0314 26.6807C61.0378 26.6745 61.0441 26.6683 61.0502 26.6611L61.0501 26.6619V28.6885C60.8913 28.6101 60.7579 28.4862 60.6659 28.3315C60.57 28.1546 60.5213 27.9546 60.5248 27.752C60.5248 27.5692 60.5625 27.3859 60.6562 27.1928C60.7408 27.0099 60.863 26.8357 61.0217 26.6904L61.0314 26.6808L61.0314 26.6807ZM60.1177 28.5665L60.1176 28.5666C60.0527 28.6344 59.9947 28.6951 59.944 28.7557V28.5234C59.957 28.51 59.97 28.4946 59.984 28.4782C60.0001 28.4591 60.0176 28.4385 60.0378 28.4177L60.1404 28.5428L60.1177 28.5665ZM59.944 26.323H60.0474L59.944 26.8931V26.323ZM59.9439 26.8935V26.3235C59.8689 26.3136 59.8124 26.3136 59.7659 26.3148C59.5585 26.3155 59.3525 26.3515 59.1564 26.4213C59.0365 26.4696 58.9206 26.5278 58.8098 26.5954V26.5941L58.784 26.613C58.7292 26.6529 58.6808 26.6882 58.6319 26.7386C58.3413 26.99 58.1253 27.2698 57.975 27.5786C57.8255 27.8972 57.7501 28.2253 57.7501 28.5824C57.7501 28.7854 57.7878 28.9493 57.8535 29.0748C57.9193 29.2003 58.003 29.2576 58.1157 29.2576C58.1814 29.2576 58.2471 29.2287 58.3317 29.1619C58.425 29.1037 58.5565 28.9683 58.734 28.766L58.8094 28.6884V28.4185C58.688 28.5531 58.5942 28.6113 58.5285 28.6113C58.4627 28.6113 58.4062 28.5725 58.3593 28.4862C58.3132 28.3991 58.2944 28.2926 58.2944 28.1572C58.2944 27.7713 58.3878 27.4432 58.585 27.1633C58.6603 27.0668 58.7344 26.9805 58.8097 26.9223V26.9236C58.9504 26.8076 59.1095 26.7494 59.2878 26.7494H59.3255L59.0814 28.14L58.8566 28.381L58.8474 28.3905C58.8427 28.3952 58.8358 28.3999 58.8289 28.4046C58.8216 28.4096 58.8144 28.4146 58.8097 28.4194V28.6894L59.0157 28.4669L59.0115 28.5027L59.0115 28.5028C59.0042 28.5653 58.9977 28.621 58.9977 28.67C58.9884 28.7277 58.9884 28.7859 58.9884 28.8342C58.9884 28.9783 59.0073 29.0848 59.0542 29.1525C59.091 29.2193 59.1568 29.2581 59.2506 29.2581C59.3351 29.2581 59.4377 29.2098 59.5503 29.1236C59.6349 29.0559 59.7663 28.9395 59.9439 28.7566V28.5247L59.8028 28.67C59.7379 28.7282 59.691 28.7571 59.6722 28.7571C59.6533 28.7571 59.6437 28.7476 59.6345 28.7377C59.6253 28.7277 59.6253 28.7088 59.6253 28.6795V28.6019C59.6306 28.5912 59.6329 28.5775 59.6355 28.5626C59.6377 28.5504 59.64 28.5373 59.6441 28.5243L59.9439 26.8935ZM58.8097 26.9223V26.5955L58.8098 26.5954V26.9223L58.8097 26.9223ZM59.944 29.8564V30.5321C59.8125 30.4545 59.7476 30.3579 59.7476 30.2428C59.7476 30.1169 59.8125 29.9914 59.944 29.8564ZM53.2614 28.6884V28.4184C53.2662 28.4136 53.2734 28.4086 53.2806 28.4036C53.2875 28.3989 53.2944 28.3942 53.2991 28.3895V28.38L53.524 28.139L53.7768 26.7484H53.7392C53.5616 26.7484 53.4017 26.8066 53.2618 26.9226V26.5945C53.3652 26.5268 53.4867 26.4686 53.6085 26.4203C53.8043 26.3497 54.0103 26.3137 54.2177 26.3138C54.2742 26.3138 54.3588 26.3138 54.4798 26.3233H54.4986L54.0955 28.5241C54.0911 28.5377 54.0888 28.5513 54.0867 28.564C54.0843 28.5783 54.0821 28.5914 54.0774 28.6017V28.6793C54.0774 28.7086 54.0774 28.7276 54.0858 28.7375C54.0951 28.747 54.1055 28.7569 54.1147 28.7569C54.1419 28.7569 54.1892 28.728 54.255 28.6698C54.3207 28.6116 54.396 28.5245 54.4798 28.4192L54.5924 28.5443C54.3115 28.8436 54.1151 29.0367 54.0021 29.1238C53.8895 29.2101 53.7861 29.2584 53.7023 29.2584C53.6203 29.2619 53.5423 29.222 53.4955 29.1527C53.4578 29.085 53.4298 28.9785 53.4298 28.8345C53.4298 28.8114 53.4319 28.7861 53.4341 28.7596C53.4365 28.7307 53.439 28.7004 53.439 28.6702C53.4482 28.612 53.4578 28.5443 53.467 28.4671L53.2614 28.6884ZM56.6682 27.2212C56.6659 27.2381 56.6636 27.255 56.6636 27.2695L56.4304 28.3996V28.419C56.3831 28.6601 56.355 28.8247 56.355 28.9205C56.355 29.046 56.3738 29.1331 56.4207 29.1913C56.4584 29.2486 56.5241 29.2775 56.6171 29.2775C56.7674 29.2775 56.9177 29.2098 57.0672 29.0753C57.2175 28.9494 57.3858 28.7471 57.5641 28.4665L57.4515 28.3513C57.4233 28.3889 57.3969 28.4248 57.3718 28.4587C57.3137 28.5376 57.2634 28.6058 57.2175 28.6601C57.1518 28.7277 57.1049 28.7665 57.0672 28.7665C57.0576 28.7665 57.0387 28.7566 57.0295 28.7471C57.0203 28.7277 57.0203 28.7083 57.0203 28.6795V28.6213C57.0252 28.6063 57.0276 28.5939 57.03 28.5815C57.0323 28.5697 57.0346 28.5578 57.0391 28.5437L57.367 27.0569C57.3748 26.9989 57.3842 26.9411 57.395 26.8836C57.395 26.8531 57.3975 26.828 57.4 26.804C57.4021 26.7822 57.4042 26.7613 57.4042 26.7383C57.4042 26.6037 57.3758 26.4972 57.3289 26.4295C57.2828 26.3618 57.2171 26.323 57.1325 26.323C56.9822 26.323 56.8047 26.42 56.5979 26.6231C56.3919 26.8159 56.1674 27.0957 55.9326 27.4722L56.0172 26.9224C56.0221 26.9026 56.0245 26.8804 56.0269 26.8582V26.8582C56.0292 26.8368 56.0315 26.8155 56.036 26.7965V26.6805C56.036 26.5653 56.0172 26.4688 55.9795 26.4106C55.9418 26.3524 55.8761 26.3235 55.7923 26.3235C55.6797 26.3235 55.5386 26.4106 55.3891 26.5653C55.2292 26.7193 55.0609 26.9517 54.8637 27.2699L54.986 27.357L55.0236 27.3087C55.1731 27.0767 55.2669 26.9711 55.3046 26.9711C55.3138 26.9711 55.3234 26.9806 55.3326 27C55.3326 27.0083 55.3345 27.017 55.3365 27.0265C55.3391 27.0383 55.3419 27.0514 55.3419 27.0668C55.3419 27.0756 55.34 27.0843 55.3379 27.0939C55.3354 27.1056 55.3326 27.1186 55.3326 27.1345C55.3326 27.1714 55.3238 27.2086 55.3149 27.2458L55.3138 27.2505L55.0329 28.8718C55.0284 28.9031 55.026 28.9302 55.0238 28.9551C55.0213 28.9841 55.019 29.0101 55.014 29.0361V29.1327C55.014 29.1521 55.0236 29.1715 55.0517 29.1809C55.0705 29.1904 55.1174 29.1904 55.1831 29.1904H55.3984C55.501 29.1904 55.5667 29.1809 55.5947 29.1421C55.6324 29.1133 55.6605 28.9969 55.6981 28.814L55.8568 27.9064C56.1198 27.5105 56.2977 27.2501 56.3915 27.1341C56.4853 27.0181 56.551 26.9707 56.6067 26.9707C56.6352 26.9707 56.654 26.9806 56.6632 26.9901C56.676 27.0202 56.6824 27.0529 56.682 27.0858C56.682 27.1147 56.682 27.144 56.6728 27.1729C56.6728 27.1874 56.6705 27.2043 56.6682 27.2212ZM52.3801 24.8662H52.5585L52.502 25.1469C52.4551 25.1469 52.4174 25.1469 52.3797 25.1564V25.1555L52.3798 25.1555V24.8662H52.3801ZM52.3798 24.8662H52.3797V25.1555C52.2395 25.1642 52.1269 25.2129 52.0612 25.2806C51.9682 25.3772 51.8928 25.5604 51.846 25.8312L51.4336 28.1471C51.4155 28.2122 51.4062 28.2772 51.397 28.3422L51.3959 28.3502C51.3867 28.4084 51.3867 28.4567 51.3867 28.5041V28.5042C51.3867 28.6495 51.4243 28.746 51.4901 28.8042C51.5654 28.8517 51.6961 28.8905 51.8932 28.9L51.8367 29.1902H50.0276L50.0841 28.9C50.2713 28.8711 50.4028 28.8232 50.4873 28.7366C50.5619 28.6495 50.6276 28.486 50.6745 28.2441L51.1622 25.5418L49.2501 29.1906H49.0253L48.6502 25.6475L48.0967 27.7806C48.059 27.9259 48.0318 28.0514 48.0129 28.167C47.9941 28.2829 47.9849 28.3799 47.9849 28.4377C47.9849 28.5723 48.0129 28.6788 48.0787 28.737C48.1532 28.8047 48.2847 28.862 48.4714 28.9004L48.4149 29.1906H47.0755L47.132 28.9004C47.2731 28.8909 47.3849 28.8335 47.4787 28.7176C47.5725 28.6016 47.6478 28.4282 47.7039 28.1958L48.3131 25.8312C48.3387 25.7603 48.349 25.7059 48.3576 25.6603L48.36 25.6475C48.3631 25.6278 48.3663 25.6104 48.3691 25.5949L48.3691 25.5948C48.3746 25.5645 48.3788 25.5413 48.3788 25.5224C48.3788 25.3871 48.3412 25.2905 48.2566 25.2323C48.172 25.1749 48.0318 25.146 47.8346 25.146L47.8815 24.8653H49.2686L49.606 27.9449L51.2183 24.8653H52.3798V24.8662ZM53.2614 26.9223V26.5941C53.1957 26.6329 53.1396 26.6804 53.0727 26.7382C52.7917 26.9896 52.5765 27.2694 52.4262 27.5781C52.4074 27.6169 52.3885 27.6557 52.3793 27.6846V27.6869C52.2602 27.9694 52.2 28.2744 52.2025 28.5824C52.2025 28.7855 52.2306 28.9494 52.2963 29.0748C52.3241 29.1133 52.3523 29.1517 52.3793 29.1805V29.1809C52.4262 29.2287 52.4915 29.2576 52.5577 29.2576C52.6238 29.2576 52.6979 29.2287 52.7825 29.1619C52.8671 29.1037 53.0081 28.9683 53.1857 28.766L53.261 28.6884V28.4185C53.1388 28.5531 53.0458 28.6113 52.9705 28.6113C52.9143 28.6113 52.8578 28.5725 52.8109 28.4862C52.7641 28.3991 52.7452 28.2926 52.7452 28.1572C52.7452 27.7713 52.8394 27.4432 53.0366 27.1633C53.1019 27.0667 53.1769 26.9805 53.2614 26.9223ZM52.3793 27.6869V29.1805C52.3796 29.1808 52.3798 29.1811 52.3801 29.1813V27.6851C52.3798 27.6857 52.3796 27.6863 52.3793 27.6869Z" fill="black"/>
</svg>
