<svg width="104" height="15" viewBox="0 0 104 15" fill="none" xmlns="http://www.w3.org/2000/svg">
<path d="M7.60845 12L2.90617 14.4721L3.80423 9.23607L0 5.52786L5.25731 4.76393L7.60845 0L9.95959 4.76393L15.2169 5.52786L11.4127 9.23607L12.3107 14.4721L7.60845 12Z" fill="#FF7100"/>
<path d="M51.6085 12L46.9062 14.4721L47.8042 9.23607L44 5.52786L49.2573 4.76393L51.6085 0L53.9596 4.76393L59.2169 5.52786L55.4127 9.23607L56.3107 14.4721L51.6085 12Z" fill="#FF7100"/>
<path d="M29.6085 12L24.9062 14.4721L25.8042 9.23607L22 5.52786L27.2573 4.76393L29.6085 0L31.9596 4.76393L37.2169 5.52786L33.4127 9.23607L34.3107 14.4721L29.6085 12Z" fill="#FF7100"/>
<path d="M73.6085 12L68.9062 14.4721L69.8042 9.23607L66 5.52786L71.2573 4.76393L73.6085 0L75.9596 4.76393L81.2169 5.52786L77.4127 9.23607L78.3107 14.4721L73.6085 12Z" fill="#FF7100"/>
<path d="M95.6085 12L90.9062 14.4721L91.8042 9.23607L88 5.52786L93.2573 4.76393L95.6085 0L97.9596 4.76393L103.217 5.52786L99.4127 9.23607L100.311 14.4721L95.6085 12Z" fill="#FF7100"/>
</svg>
