<svg width="49" height="32" viewBox="0 0 49 32" fill="none" xmlns="http://www.w3.org/2000/svg">
<path d="M6.89015 14.8203C6.54251 14.8384 6.26503 15.0332 6.20813 15.2975H7.64076C7.59399 15.029 7.24324 14.804 6.89015 14.8203Z" fill="black"/>
<path d="M5.8387 14.7033C6.01244 14.5585 6.22005 14.471 6.44852 14.4311C6.9897 14.3357 7.53871 14.5741 7.83493 15.0354C7.95568 15.2243 8.03125 15.4263 8.04689 15.6491H8.59589C8.59503 15.6335 8.59416 15.6153 8.59242 15.5954C8.57331 15.3379 8.50295 15.0943 8.37786 14.8724C8.15547 14.4762 7.8384 14.1849 7.41362 14.008C7.10958 13.8823 6.79686 13.8381 6.47544 13.8771C5.87171 13.9491 5.40349 14.249 5.07339 14.7614C4.818 15.1567 4.72505 15.5928 4.8015 16.0531C4.92051 16.777 5.32705 17.2937 6.01591 17.5521C6.73518 17.8235 7.39451 17.6804 7.98 17.1862C8.02778 17.1455 8.02951 17.0961 7.98347 17.0579C7.88705 16.9738 7.79671 16.8854 7.71158 16.7909C7.66901 16.7458 7.63948 16.7519 7.59952 16.7901C7.49093 16.8958 7.36237 16.9686 7.22338 17.0285C6.73605 17.24 6.12276 17.1316 5.74662 16.7588C5.43911 16.4545 5.29751 16.0878 5.33226 15.6535C5.36353 15.2616 5.54335 14.9478 5.8387 14.7033Z" fill="black"/>
<path d="M9.54751 15.7039C9.54247 15.6104 9.53659 15.5143 9.52231 15.4216C9.41309 14.7445 9.114 14.1669 8.63261 13.7029C8.13441 13.2241 7.52448 12.9576 6.81961 12.9122C6.52136 12.8929 6.21303 12.9305 5.90891 13.024C5.10322 13.2704 4.49917 13.7921 4.11439 14.575C3.93208 14.9472 3.83294 15.3509 3.82034 15.7755H4.27317C4.27485 15.7012 4.27905 15.627 4.28998 15.5536C4.42356 14.7069 4.85034 14.0752 5.56025 13.6758C5.90891 13.4792 6.28024 13.3796 6.66502 13.3796C6.84985 13.3796 7.03972 13.4024 7.23127 13.4478C7.67402 13.5526 8.06384 13.7781 8.38981 14.1162C8.67965 14.4168 8.88633 14.7733 9.00226 15.1752C9.05939 15.3692 9.093 15.5719 9.10224 15.7755H9.55087C9.55003 15.7528 9.54835 15.7283 9.54751 15.7039Z" fill="black"/>
<path d="M20.7449 13.9104C20.2383 13.8208 19.725 13.8895 19.215 13.8751C19.11 13.8714 19.1025 13.9556 19.1025 14.0406C19.1025 14.2949 19.1025 14.5482 19.1025 14.8034C19.1025 15.0703 19.1042 15.3372 19.1017 15.605C19.1 15.7208 19.1375 15.7769 19.2517 15.7751C19.7316 15.7561 20.2116 15.8068 20.6907 15.738C21.1607 15.6711 21.4774 15.3236 21.489 14.8468C21.4999 14.3528 21.229 13.9954 20.7449 13.9104Z" fill="black"/>
<path fill-rule="evenodd" clip-rule="evenodd" d="M1.25396 0H47.4555C48.1489 0 48.7095 0.561138 48.7095 1.2533V30.2972C48.7095 30.9893 48.1489 31.5505 47.4555 31.5505H1.25396C0.560573 31.5505 0 30.9885 0 30.2963V1.2533C0 0.561138 0.560573 0 1.25396 0ZM10.0454 19.5143C10.3309 19.5143 10.562 19.2833 10.562 18.9971V12.5539C10.562 12.2686 10.3309 12.0376 10.0454 12.0376H3.59883C3.31337 12.0376 3.08224 12.2686 3.08224 12.5539V18.9971C3.08224 19.2833 3.31337 19.5143 3.59883 19.5143H10.0454ZM16.8396 13.6816C16.8431 13.8221 16.7991 13.8721 16.655 13.8695C16.4339 13.8665 16.2124 13.8673 15.9909 13.868H15.9909H15.9909H15.9909H15.9909H15.9908H15.9908C15.7018 13.869 15.4127 13.8699 15.1242 13.8626C14.925 13.8574 14.8793 13.9264 14.8802 14.1152C14.8841 15.2782 14.8836 16.4403 14.8831 17.6021C14.8829 17.9893 14.8828 18.3765 14.8828 18.7637C14.8828 18.8989 14.8828 18.9659 14.8493 18.9994C14.8163 19.0322 14.751 19.0327 14.6215 19.0335C14.508 19.0341 14.3947 19.0331 14.2814 19.032C14.0692 19.03 13.8572 19.028 13.6452 19.037C13.4468 19.0465 13.3994 18.9689 13.3994 18.781C13.4041 17.5899 13.4036 16.3988 13.4031 15.2069V15.2067V15.2065V15.2063V15.2061V15.2058L13.4029 14.1324C13.4029 13.8669 13.402 13.8669 13.1415 13.8669C12.9901 13.8669 12.8387 13.8664 12.6872 13.8658H12.6871H12.6871H12.6871H12.6871H12.6871H12.6869C12.3406 13.8645 11.9942 13.8632 11.6487 13.8686C11.4762 13.8721 11.4089 13.8161 11.415 13.6385C11.4253 13.3265 11.4262 13.0127 11.415 12.7015C11.4081 12.5205 11.4823 12.4723 11.6513 12.4731C12.2597 12.4775 12.868 12.4769 13.4761 12.4762H13.4763H13.4764H13.4765H13.4767H13.4768H13.4769C13.6978 12.476 13.9186 12.4757 14.1394 12.4757C14.3621 12.4757 14.5849 12.4761 14.8076 12.4765C15.4016 12.4775 15.9955 12.4785 16.5895 12.4723C16.7827 12.4705 16.8482 12.53 16.8396 12.724C16.8249 13.0437 16.8293 13.3627 16.8396 13.6816ZM22.4142 19.0298H22.4147C22.5942 19.0301 22.7737 19.0305 22.9534 19.0291C22.9669 19.0296 22.9815 19.0315 22.9964 19.0334C23.0486 19.0402 23.1044 19.0474 23.1319 18.9998C23.1645 18.9433 23.1258 18.898 23.089 18.855C23.078 18.8422 23.0673 18.8296 23.0586 18.817C22.6144 18.1636 22.1694 17.5103 21.7175 16.8621C21.6244 16.7276 21.6459 16.6802 21.7917 16.6181C22.1573 16.4578 22.4445 16.2027 22.6627 15.8657C22.9499 15.426 22.9879 14.9347 22.9611 14.4313C22.9249 13.7616 22.6325 13.2358 22.0633 12.8729C21.5468 12.5445 20.9603 12.4902 20.3721 12.4807C19.769 12.4711 19.1659 12.4732 18.563 12.4754H18.5628H18.5627H18.5625H18.5623C18.3043 12.4763 18.0463 12.4773 17.7883 12.4773C17.508 12.4773 17.5072 12.479 17.5072 12.7514V15.7553V18.7584C17.5072 19.0308 17.508 19.0325 17.7875 19.0325C17.8979 19.0328 18.0084 19.0321 18.1189 19.0315L18.1195 19.0315H18.1196H18.1196H18.1197H18.1198C18.3409 19.0301 18.562 19.0288 18.7827 19.0351C18.9569 19.0403 19.0181 18.9799 19.0156 18.8032C19.0109 18.5113 19.0115 18.2191 19.0121 17.9269C19.0126 17.6765 19.0132 17.4261 19.0104 17.1758C19.0078 17.0224 19.0535 16.9552 19.2165 16.9621C19.439 16.9733 19.6632 16.9715 19.8857 16.9621C20.0229 16.9569 20.1082 17.0103 20.1833 17.1241C20.3709 17.4067 20.5606 17.6879 20.7502 17.969L20.7505 17.9694C20.953 18.2696 21.1554 18.5696 21.3553 18.8713C21.4295 18.9842 21.5131 19.0351 21.6511 19.0334C21.9053 19.0288 22.1596 19.0293 22.414 19.0298H22.414H22.4141H22.4141H22.4142ZM29.6129 16.486C29.5896 17.2997 29.3266 18.041 28.6513 18.5685C28.2537 18.8771 27.7923 19.04 27.2956 19.0926C26.6738 19.1572 26.0597 19.1408 25.469 18.9064C24.5807 18.553 24.14 17.8574 23.9796 16.9488C23.9433 16.748 23.933 16.5446 23.9339 16.3412C23.935 15.9671 23.9346 15.593 23.9342 15.2189C23.934 15.0318 23.9339 14.8448 23.9339 14.6577C23.9339 14.4721 23.9343 14.2864 23.9347 14.1006C23.9358 13.6361 23.9368 13.1714 23.9313 12.7071C23.9287 12.5321 23.9839 12.4692 24.1598 12.4744C24.4979 12.4839 24.8368 12.4847 25.1731 12.4735C25.3629 12.4666 25.412 12.5434 25.4103 12.7209C25.4051 13.8932 25.4043 15.0672 25.4103 16.2395C25.4103 16.6566 25.4862 17.0575 25.7941 17.3686C26.227 17.8048 26.754 17.8367 27.3007 17.6651C27.8018 17.5074 28.0243 17.11 28.1071 16.6196C28.139 16.4299 28.1476 16.2412 28.1476 16.049C28.145 15.2227 28.1454 14.3959 28.1457 13.5694V13.5679L28.1459 12.7407C28.1459 12.4787 28.1468 12.4778 28.415 12.477C28.5143 12.477 28.6137 12.4774 28.7131 12.4779H28.7133H28.7133H28.7134C28.9455 12.479 29.1778 12.4801 29.4102 12.4753C29.5586 12.4727 29.6275 12.514 29.6275 12.6795C29.6251 13.1314 29.6266 13.5837 29.6281 14.036V14.0361V14.0362V14.0363C29.6307 14.853 29.6334 15.67 29.6129 16.486ZM33.4308 19.1084C33.8215 19.0791 34.2035 19.005 34.552 18.8162C35.2428 18.4412 35.5636 17.8594 35.5662 17.0681C35.5688 16.3458 35.2626 15.839 34.6356 15.5045C34.2605 15.3046 33.8586 15.1873 33.4515 15.077C33.3981 15.0625 33.3445 15.0485 33.2909 15.0344L33.2906 15.0343C32.9991 14.9577 32.7072 14.881 32.4356 14.7434C32.239 14.6443 32.1096 14.4926 32.1174 14.2633C32.1268 14.0176 32.2735 13.8685 32.4951 13.7858C32.7297 13.6996 32.9711 13.6944 33.2126 13.7366C33.6723 13.8177 34.088 14.0082 34.4692 14.2728C34.5787 14.3486 34.6399 14.3374 34.7132 14.2262L34.743 14.1814C34.9132 13.9249 35.0829 13.6691 35.2704 13.4263C35.3902 13.2729 35.3532 13.1979 35.2091 13.0988C34.3916 12.5359 33.4938 12.3135 32.508 12.4299C31.637 12.5325 30.7504 13.0919 30.6556 14.1806C30.5986 14.8305 30.7366 15.4123 31.3058 15.8174C31.6558 16.0662 32.0584 16.1886 32.4602 16.3109L32.4787 16.3165C32.6086 16.3559 32.7404 16.3901 32.8723 16.4242L32.8723 16.4242C33.1727 16.5021 33.4735 16.58 33.7534 16.7208C34.0207 16.8561 34.1035 16.9906 34.0837 17.2629C34.0647 17.5138 33.9034 17.6422 33.6826 17.7206C33.4049 17.8198 33.1186 17.8155 32.8332 17.7732C32.2967 17.6905 31.8276 17.4517 31.411 17.113C31.2937 17.0173 31.2178 17.0302 31.1282 17.144C30.9246 17.3974 30.7159 17.6474 30.502 17.8922C30.3899 18.0197 30.4132 18.0973 30.5417 18.1999C31.3032 18.8093 32.1769 19.0937 33.1445 19.1084C33.1764 19.1084 33.2085 19.1091 33.2405 19.1097C33.3044 19.1111 33.3682 19.1124 33.4308 19.1084ZM39.1921 17.6508V17.6508C39.1919 18.0142 39.1917 18.3776 39.1917 18.7409C39.1917 18.8865 39.1917 18.9597 39.1551 18.9966C39.1179 19.034 39.0431 19.034 38.8925 19.034C38.7916 19.0343 38.6904 19.0335 38.5892 19.0327C38.3779 19.031 38.1663 19.0293 37.9559 19.0375C37.7739 19.0435 37.7135 18.9823 37.7144 18.797C37.7194 17.5007 37.7185 16.2051 37.7175 14.9085V14.9081L37.717 14.1294C37.717 13.9989 37.717 13.9334 37.6842 13.9005C37.6513 13.8674 37.5851 13.8674 37.4522 13.8674H35.9783C35.7438 13.8665 35.7343 13.8571 35.7326 13.6148C35.7319 13.5016 35.7328 13.388 35.7337 13.2744V13.2742C35.7353 13.082 35.7368 12.8895 35.7308 12.6977C35.7257 12.5305 35.786 12.4745 35.9525 12.4753C36.545 12.479 37.1376 12.4783 37.7298 12.4776H37.7301H37.7302C37.9671 12.4773 38.2038 12.4771 38.4406 12.4771C38.6691 12.4771 38.8976 12.4774 39.1262 12.4777H39.1265C39.7206 12.4786 40.3147 12.4795 40.9088 12.4745C41.0873 12.4727 41.1615 12.5227 41.1546 12.7124C41.1399 13.0304 41.1442 13.3494 41.1529 13.6683C41.1563 13.8183 41.0977 13.8709 40.9511 13.8691C40.7412 13.867 40.5314 13.8678 40.3215 13.8686H40.3214C40.0276 13.8698 39.7339 13.871 39.4401 13.864C39.2486 13.8588 39.1866 13.9139 39.1874 14.1105C39.1933 15.2902 39.1927 16.4705 39.1921 17.6508ZM44.2998 17.0425C44.6578 17.0413 45.0159 17.0401 45.3736 17.0469C45.5556 17.0486 45.6237 16.9771 45.6263 16.7995C45.6306 16.397 45.5978 15.9979 45.4762 15.6126C45.1821 14.6756 44.5741 14.08 43.5858 13.9455C42.5983 13.8119 41.7704 14.1179 41.1762 14.9463C40.7631 15.5229 40.6432 16.1832 40.7157 16.8745C40.8019 17.7046 41.1995 18.3571 41.9282 18.7803C42.5069 19.1173 43.1408 19.1958 43.7937 19.1001C44.3585 19.0156 44.8475 18.7682 45.2451 18.3519C45.3529 18.2381 45.3753 18.1502 45.2382 18.039C45.0398 17.8796 44.8475 17.7123 44.6647 17.5348C44.5698 17.4425 44.5051 17.4391 44.4111 17.5296C44.1826 17.7451 43.9084 17.8701 43.5996 17.9287C42.9985 18.0442 42.4284 17.758 42.2301 17.2443C42.1706 17.09 42.2051 17.0391 42.3698 17.0417C42.7222 17.0465 43.0747 17.0455 43.4277 17.0444C43.5792 17.0439 43.7308 17.0434 43.8825 17.0434C44.0215 17.0434 44.1607 17.043 44.2998 17.0425Z" fill="black"/>
<path d="M43.207 15.3224C42.7009 15.2041 42.1693 15.4991 42.0287 16.1475C42.0042 16.2585 42.0794 16.2519 42.1456 16.2519C42.4171 16.2535 42.6886 16.2527 42.9601 16.2527C43.2447 16.2527 43.5268 16.2527 43.8113 16.2519C43.8776 16.2519 43.9528 16.2585 43.9299 16.1483C43.8481 15.7892 43.6347 15.4227 43.207 15.3224Z" fill="black"/>
</svg>
