<svg data-name="Layer 1" xmlns="http://www.w3.org/2000/svg" viewBox="0 0 140 48.89"><path d="M11.9 48.71l-1-3.12H4.67l-1 3.12H.1l6.37-17.53h2.58l6.4 17.53h-3.57zM7.79 36.36l-2.21 6.37h4.36l-2.15-6.37zm13.26 12.35h-2.5l-4.73-12.83h3.37l2.61 7.93 2.58-7.93h3.37l-4.7 12.83zm7.87-5.41c.08 1.93 1 2.86 2.92 2.86a3.6 3.6 0 0 0 1.47-.28 3.77 3.77 0 0 0 1.3-.93l2 1.9a6.63 6.63 0 0 1-2.21 1.56 7.29 7.29 0 0 1-2.63.48c-3.94 0-5.95-2.24-5.95-6.6 0-4 2.15-6.51 5.58-6.51s5.58 2.41 5.58 6.12v1.42h-8zm2.44-4.9c-1.47 0-2.35 1-2.44 2.72h4.87c-.11-1.76-1-2.72-2.44-2.72zm14.76 10.31v-7.76a2.15 2.15 0 1 0-4.28 0v7.76h-3.2V35.88h3.12v1.19a4.4 4.4 0 0 1 1.39-1 4.55 4.55 0 0 1 1.84-.37c2.69 0 4.31 1.81 4.31 4.79v8.19h-3.17zm12.8 0v-1.19a4.4 4.4 0 0 1-1.39 1 4.59 4.59 0 0 1-1.87.37c-2.66 0-4.28-1.81-4.28-4.79v-8.19h3.2v7.76a2.15 2.15 0 1 0 4.28 0v-7.76h3.19v12.83h-3.14zm8-5.41c.08 1.93 1 2.86 2.92 2.86a3.6 3.6 0 0 0 1.47-.28 3.77 3.77 0 0 0 1.3-.93l2 1.9a6.63 6.63 0 0 1-2.21 1.56 7.29 7.29 0 0 1-2.63.48c-3.94 0-5.95-2.24-5.95-6.6 0-4 2.15-6.51 5.58-6.51s5.58 2.41 5.58 6.12v1.42h-8zm2.44-4.9c-1.47 0-2.35 1-2.44 2.72h4.87c-.08-1.76-1-2.72-2.44-2.72zm24.5 10.31V38.49l-3.34 6.66H88.2l-3.37-6.66v10.22H81.4V31.18h3.37l4.59 9.49 4.56-9.49h3.37v17.53h-3.43zm8.53-5.41c.08 1.93 1 2.86 2.92 2.86a3.6 3.6 0 0 0 1.47-.28 3.77 3.77 0 0 0 1.3-.93l2 1.9a6.63 6.63 0 0 1-2.21 1.56 7.29 7.29 0 0 1-2.63.48c-3.94 0-5.95-2.24-5.95-6.6 0-4 2.15-6.51 5.58-6.51s5.58 2.41 5.58 6.12v1.42h-8zm2.44-4.9c-1.47 0-2.35 1-2.44 2.72h4.87c-.08-1.76-.93-2.72-2.44-2.72zm14.42 10.31v-1.22a3.88 3.88 0 0 1-1.33 1 4.46 4.46 0 0 1-1.78.34 4.56 4.56 0 0 1-3.2-1.16 4.35 4.35 0 0 1-1.1-2.32 20.7 20.7 0 0 1-.2-3.09v-.4c0-2.63.37-4.05 1.3-5a4.49 4.49 0 0 1 3.11-1.12 4.6 4.6 0 0 1 1.81.34 3.18 3.18 0 0 1 1.25.93v-5.83h3.2v17.53h-3.12zm-2.27-10.08a1.77 1.77 0 0 0-1.84 1.13 7.64 7.64 0 0 0-.31 2.72c0 2.52.62 3.48 2.15 3.48s2.18-1 2.18-3.68-.59-3.65-2.18-3.65zm9.35-4.33a2 2 0 0 1-2-2 2 2 0 1 1 2 2zm1.61 14.42h-3.2V35.88h3.2v12.83zm8.89 0v-1.1a3.83 3.83 0 0 1-1.33.93 4.78 4.78 0 0 1-1.81.28c-2.72 0-4.33-1.47-4.33-4 0-2.32 1.67-3.74 4.39-3.74h3v-.65c0-1.42-.71-2-2.44-2a2.72 2.72 0 0 0-2.41 1l-2-2a5 5 0 0 1 1.73-1.3 7.08 7.08 0 0 1 2.83-.48c3.68 0 5.55 1.53 5.55 4.53v8.44h-3.17zm-.08-5.41h-2.55c-1.13 0-1.78.51-1.78 1.44s.65 1.47 2 1.47c1.64 0 2.32-.65 2.32-2.24v-.68z" fill="#fff" data-name="&lt;Группа&gt;"/><path d="M74.69 15.24l2.95 9.86-8.36-5.86-8.36 5.92 2.95-9.86L56 9.38h9.86L69.32.03l3.46 9.35h9.86l-7.95 5.86zm-3.46-3.94l-2-5.92-2 5.92h-5.41l4.42 3.46-2 5.41 4.93-3.46 4.93 3.46-2-5.41 4.42-3.46h-5.38z" fill="#febd22"/></svg>