<svg id="Layer_1" data-name="Layer 1" xmlns="http://www.w3.org/2000/svg" viewBox="0 0 317.95 77.47"><defs><style>.cls-1{fill:#fff}</style></defs><path class="cls-1" d="M267.52 535v33h-9.37v-4.72a12.2 12.2 0 0 1-10.35 5.08c-9.37 0-15.56-6.8-15.56-17 0-10 6.06-16.66 15.25-16.72a12.51 12.51 0 0 1 10.66 5.15V535h9.37zm-9.37 17.7v-2.2c-.49-4.78-3.67-8-8.15-8-4.9 0-8.27 3.8-8.33 9.13s3.37 9.13 8.33 9.13c4.47-.03 7.65-3.28 8.14-8.05zM309.54 547.25V568h-9.44v-18c0-4.17-2.45-6.74-6.49-6.74-4.72.06-7.53 3.61-7.53 8.45V568h-9.43v-33h9.43v5.76c2.33-4.1 6.25-6.06 11.39-6.13 7.35.01 12.07 4.91 12.07 12.62zM335.88 566.12a17.39 17.39 0 0 1-8.39 2.27c-6.06 0-10.54-3.86-10.54-10.9v-30.08h9.37v9.07h9V543h-9v12.86c0 3.12 1.22 4.59 3.31 4.53a10.74 10.74 0 0 0 4.29-1.22zM373.79 535v33h-9.37v-4.72a12.2 12.2 0 0 1-10.35 5.08c-9.37 0-15.56-6.8-15.56-17 0-10 6.06-16.66 15.25-16.72a12.51 12.51 0 0 1 10.66 5.15V535h9.37zm-9.37 17.7v-2.2c-.49-4.78-3.67-8-8.15-8-4.9 0-8.27 3.8-8.33 9.13s3.37 9.13 8.33 9.13c4.48-.03 7.66-3.28 8.15-8.05zM415.81 547.25V568h-9.43v-18c0-4.17-2.45-6.74-6.49-6.74-4.72.06-7.53 3.61-7.53 8.45V568h-9.43v-33h9.43v5.76c2.33-4.1 6.25-6.06 11.39-6.13 7.35.01 12.06 4.91 12.06 12.62zM456.43 535v33h-9.37v-4.72a12.2 12.2 0 0 1-10.35 5.08c-9.37 0-15.56-6.8-15.56-17 0-10 6.06-16.66 15.25-16.72a12.51 12.51 0 0 1 10.66 5.15V535h9.37zm-9.37 17.7v-2.2c-.49-4.78-3.67-8-8.15-8-4.9 0-8.27 3.8-8.33 9.13s3.37 9.13 8.33 9.13c4.47-.03 7.65-3.28 8.14-8.05z" transform="translate(-138.48 -524.05)"/><path d="M211.14 581.48a38.73 38.73 0 1 0-15.24 15.24l20 4.81z" transform="translate(-138.48 -524.05)" fill="#d53541"/><path class="cls-1" d="M191.24 549.63h-32V554h32a1.62 1.62 0 0 1 1.77 1.17v13.43a1.62 1.62 0 0 1-1.77 1.17h-28.05a1.62 1.62 0 0 1-1.77-1.17v-3.35a1.62 1.62 0 0 1 1.77-1.17h23.55v-4.38h-23.55c-3.39 0-6.15 2.49-6.15 5.55v3.35c0 3.06 2.76 5.55 6.15 5.55h28.05c3.39 0 6.15-2.49 6.15-5.55v-13.42c0-3.06-2.76-5.55-6.15-5.55z" transform="translate(-138.48 -524.05)"/><path class="cls-1" d="M35.91 55.79h20.81v4.38H35.91z"/><path class="cls-1" d="M324.71 588.9c.12-.09.23-.05.26 0l.35.65a.17.17 0 0 1-.09.23 4.57 4.57 0 0 1-2.46.65 4.25 4.25 0 0 1-3.16-1.19 4 4 0 0 1-1.08-2.91 4 4 0 0 1 .89-2.6 4.52 4.52 0 0 1 5.78-.8.17.17 0 0 1 .09.23l-.37.66a.16.16 0 0 1-.26.05 3.36 3.36 0 0 0-1.87-.54 2.91 2.91 0 0 0-2.27 1 3 3 0 0 0-.7 2 3.14 3.14 0 0 0 .8 2.2 2.89 2.89 0 0 0 2.18.84 3.56 3.56 0 0 0 1.91-.47zM334.28 583.44a4.39 4.39 0 0 1 6 0 4.22 4.22 0 0 1 0 5.83 4.39 4.39 0 0 1-6 0 4.22 4.22 0 0 1 0-5.83zm.87 5a2.91 2.91 0 0 0 4.26 0 3.28 3.28 0 0 0 0-4.26 2.91 2.91 0 0 0-4.26 0 3.28 3.28 0 0 0 0 4.3zM351.75 583.74a2.94 2.94 0 0 1 2.76-1.48 2.92 2.92 0 0 1 3.23 3.35v4.52a.17.17 0 0 1-.17.16h-.93a.17.17 0 0 1-.17-.16v-4.24a2.63 2.63 0 0 0-.65-2 2.13 2.13 0 0 0-1.55-.51 2.21 2.21 0 0 0-2.06 1.2 4.51 4.51 0 0 0-.45 2.08v3.47a.16.16 0 0 1-.16.16h-1a.17.17 0 0 1-.17-.16v-7.56a.19.19 0 0 1 .17-.17h.89a.19.19 0 0 1 .17.17v1.17h.05zM371 588.24a1.41 1.41 0 0 0-1.12-1.24c-.51-.23-1.27-.44-1.9-.73a2 2 0 0 1-1.29-1.9c0-1.33 1-2.13 2.88-2.13a5 5 0 0 1 2.44.58.16.16 0 0 1 .09.23l-.35.72a.13.13 0 0 1-.23.05 3.93 3.93 0 0 0-1.9-.51c-1.08 0-1.61.37-1.61 1.06a1.21 1.21 0 0 0 1 1.06c.59.26 1.38.47 1.9.73a2.13 2.13 0 0 1 1.45 2c0 1.43-1.13 2.32-2.91 2.32a5.3 5.3 0 0 1-2.72-.66.13.13 0 0 1-.07-.21l.35-.72a.14.14 0 0 1 .23-.07 4.05 4.05 0 0 0 2.16.63c.94-.02 1.6-.37 1.6-1.21zM381.3 582.57a.17.17 0 0 1 .16-.17h.94a.17.17 0 0 1 .17.17v4.26a3 3 0 0 0 .31 1.54 2.21 2.21 0 0 0 2 1 2.14 2.14 0 0 0 2-.94 2.87 2.87 0 0 0 .31-1.55v-4.26a.19.19 0 0 1 .17-.17h.94a.17.17 0 0 1 .16.17V587a3.65 3.65 0 0 1-.58 2.23 4.28 4.28 0 0 1-6.09 0 3.65 3.65 0 0 1-.58-2.23v-4.38zM398.1 578.4h.9a.17.17 0 0 1 .16.17v11.55a.16.16 0 0 1-.16.16h-.9a.17.17 0 0 1-.17-.16v-11.55a.19.19 0 0 1 .17-.17zM410.17 587.51a2.39 2.39 0 0 0 .26 1.27 1.29 1.29 0 0 0 1.24.58 2.32 2.32 0 0 0 1.43-.49c.12-.09.21-.07.26 0l.31.68a.16.16 0 0 1-.07.23 3.89 3.89 0 0 1-2.25.66 2.34 2.34 0 0 1-1.94-.77 3.26 3.26 0 0 1-.54-2v-4.26H408a.17.17 0 0 1-.17-.16v-.68a.19.19 0 0 1 .17-.17h.93v-1.52a.19.19 0 0 1 .17-.17h.9a.19.19 0 0 1 .17.17v1.52h2.74a.19.19 0 0 1 .17.17v.68a.17.17 0 0 1-.17.16h-2.74v4.1zM421.69 578.64a.77.77 0 1 1 .77.77.76.76 0 0 1-.77-.77zm.31 3.75h1a.17.17 0 0 1 .16.17v7.56a.16.16 0 0 1-.16.16h-1a.17.17 0 0 1-.17-.16v-7.56a.19.19 0 0 1 .17-.17zM433.91 583.74a2.94 2.94 0 0 1 2.76-1.48 2.92 2.92 0 0 1 3.23 3.35v4.52a.17.17 0 0 1-.17.16h-.93a.17.17 0 0 1-.17-.16v-4.24a2.63 2.63 0 0 0-.65-2 2.13 2.13 0 0 0-1.55-.51 2.21 2.21 0 0 0-2.06 1.2 4.51 4.51 0 0 0-.45 2.08v3.47a.16.16 0 0 1-.16.16h-1a.17.17 0 0 1-.17-.16v-7.56a.19.19 0 0 1 .17-.17h.89a.19.19 0 0 1 .17.17v1.17h.05zM454.14 592.62a2.85 2.85 0 0 0 .59-2v-1a3.44 3.44 0 0 1-2.36.79 3.28 3.28 0 0 1-2.55-1.08 4.52 4.52 0 0 1-1-3 4.58 4.58 0 0 1 1-3 3.32 3.32 0 0 1 2.57-1.08 3.55 3.55 0 0 1 2.36.82h.05v-.51a.17.17 0 0 1 .16-.17h.91a.17.17 0 0 1 .17.17v8a3.87 3.87 0 0 1-1 2.9 3.72 3.72 0 0 1-2.72.91 5.3 5.3 0 0 1-2.88-.84.14.14 0 0 1-.07-.21l.35-.7a.16.16 0 0 1 .26 0 4.12 4.12 0 0 0 2.36.75 2.33 2.33 0 0 0 1.8-.75zm.59-4.08v-4.33a3.32 3.32 0 0 0-2.22-.91 2.14 2.14 0 0 0-1.75.8 3.49 3.49 0 0 0-.68 2.22 3.61 3.61 0 0 0 .66 2.27 2.13 2.13 0 0 0 1.75.79 3.32 3.32 0 0 0 2.25-.84z" transform="translate(-138.48 -524.05)"/></svg>