<svg id="Layer_1" data-name="Layer 1" xmlns="http://www.w3.org/2000/svg" viewBox="0 0 353.08 86.03"><defs><style>.cls-1{fill:#201600}.cls-3{fill:#fff}</style></defs><path class="cls-1" d="M254.41 320.58v36.6H244v-5.24a13.55 13.55 0 0 1-11.5 5.65c-10.41 0-17.28-7.55-17.28-18.84 0-11.09 6.73-18.5 16.94-18.57 5.17 0 9.18 2 11.84 5.71v-5.31h10.41zM244 340.24v-2.45c-.54-5.31-4.08-8.91-9-8.91-5.44 0-9.18 4.22-9.25 10.14s3.74 10.14 9.25 10.14c4.92-.01 8.45-3.61 9-8.92zM301.07 334.19v23h-10.48v-19.94c0-4.63-2.72-7.48-7.21-7.48-5.24.07-8.37 4-8.37 9.39v18h-10.47v-36.6H275V327c2.58-4.56 6.94-6.73 12.65-6.8 8.18-.03 13.42 5.42 13.42 13.99zM330.32 355.14a19.3 19.3 0 0 1-9.32 2.52c-6.73 0-11.7-4.29-11.7-12.11v-33.4h10.41v10.07h10v7.28h-10v14.28c0 3.47 1.36 5.1 3.67 5a11.93 11.93 0 0 0 4.76-1.36zM372.43 320.58v36.6H362v-5.24a13.55 13.55 0 0 1-11.5 5.65c-10.41 0-17.28-7.55-17.28-18.84 0-11.09 6.73-18.5 16.94-18.57 5.17 0 9.18 2 11.84 5.71v-5.31h10.41zM362 340.24v-2.45c-.54-5.31-4.08-8.91-9-8.91-5.44 0-9.18 4.22-9.25 10.14s3.74 10.14 9.25 10.14c4.94-.01 8.47-3.61 9-8.92zM419.09 334.19v23h-10.48v-19.94c0-4.63-2.72-7.48-7.21-7.48-5.24.07-8.37 4-8.37 9.39v18h-10.47v-36.6H393V327c2.58-4.56 6.94-6.73 12.65-6.8 8.2-.03 13.44 5.42 13.44 13.99zM464.19 320.58v36.6h-10.41v-5.24a13.55 13.55 0 0 1-11.5 5.65c-10.41 0-17.28-7.55-17.28-18.84 0-11.09 6.73-18.5 16.94-18.57 5.17 0 9.18 2 11.84 5.71v-5.31h10.41zm-10.41 19.66v-2.45c-.54-5.31-4.08-8.91-9-8.91-5.44 0-9.18 4.22-9.25 10.14s3.74 10.14 9.25 10.14c4.92-.01 8.46-3.61 9-8.92z" transform="translate(-111.11 -308.42)"/><path d="M191.8 372.19a43 43 0 1 0-16.92 16.92l22.26 5.34z" transform="translate(-111.11 -308.42)" fill="#d53541"/><path class="cls-3" d="M169.7 336.82h-35.55v4.86h35.55a1.8 1.8 0 0 1 2 1.3v14.91a1.8 1.8 0 0 1-2 1.3h-31.15a1.8 1.8 0 0 1-2-1.3v-3.72a1.8 1.8 0 0 1 2-1.3h26.15V348h-26.15c-3.76 0-6.83 2.76-6.83 6.16v3.72c0 3.4 3.06 6.16 6.83 6.16h31.15c3.76 0 6.83-2.76 6.83-6.16V343c0-3.41-3.06-6.18-6.83-6.18z" transform="translate(-111.11 -308.42)"/><path class="cls-3" d="M39.88 61.96h23.11v4.86H39.88z"/><path class="cls-1" d="M317.92 380.44c.14-.1.25-.06.29 0l.39.72a.19.19 0 0 1-.1.25 5.07 5.07 0 0 1-2.73.72 4.72 4.72 0 0 1-3.51-1.32 4.47 4.47 0 0 1-1.2-3.24 4.41 4.41 0 0 1 1-2.89 5 5 0 0 1 6.41-.89.19.19 0 0 1 .1.25l-.41.74a.18.18 0 0 1-.29.06 3.73 3.73 0 0 0-2.07-.6 3.23 3.23 0 0 0-2.52 1.1 3.34 3.34 0 0 0-.77 2.23 3.49 3.49 0 0 0 .89 2.44 3.21 3.21 0 0 0 2.42.93 4 4 0 0 0 2.1-.5zM328.55 374.37a4.87 4.87 0 0 1 6.67 0 4.68 4.68 0 0 1 0 6.47 4.87 4.87 0 0 1-6.67 0 4.68 4.68 0 0 1 0-6.47zm1 5.6a3.23 3.23 0 0 0 4.73 0 3.64 3.64 0 0 0 0-4.73 3.23 3.23 0 0 0-4.73 0 3.64 3.64 0 0 0-.03 4.76zM348 374.7a3.26 3.26 0 0 1 3.06-1.65 3.24 3.24 0 0 1 3.59 3.72v5a.19.19 0 0 1-.19.17h-1a.19.19 0 0 1-.19-.17v-4.71a2.92 2.92 0 0 0-.72-2.23 2.37 2.37 0 0 0-1.72-.56 2.46 2.46 0 0 0-2.29 1.34 5 5 0 0 0-.5 2.31v3.86a.17.17 0 0 1-.17.17h-1.07a.19.19 0 0 1-.19-.17v-8.38a.21.21 0 0 1 .19-.19h1a.21.21 0 0 1 .19.19v1.3h.01zM369.27 379.7a1.57 1.57 0 0 0-1.24-1.38c-.56-.25-1.41-.48-2.11-.81a2.23 2.23 0 0 1-1.43-2.11c0-1.47 1.14-2.36 3.2-2.36a5.57 5.57 0 0 1 2.71.64.17.17 0 0 1 .1.25l-.39.79a.15.15 0 0 1-.25.06 4.36 4.36 0 0 0-2.11-.56c-1.2 0-1.78.41-1.78 1.18a1.35 1.35 0 0 0 1.07 1.18c.66.29 1.53.52 2.11.81a2.37 2.37 0 0 1 1.61 2.19c0 1.59-1.26 2.58-3.24 2.58a5.88 5.88 0 0 1-3-.74.15.15 0 0 1-.08-.23l.39-.79a.15.15 0 0 1 .25-.08 4.5 4.5 0 0 0 2.4.7c1.11-.02 1.79-.39 1.79-1.32zM380.77 373.4a.19.19 0 0 1 .17-.19h1a.19.19 0 0 1 .19.19v4.73a3.29 3.29 0 0 0 .35 1.71 2.46 2.46 0 0 0 2.27 1.07 2.37 2.37 0 0 0 2.25-1 3.18 3.18 0 0 0 .35-1.72v-4.79a.21.21 0 0 1 .19-.19h1a.19.19 0 0 1 .17.19v4.86a4.06 4.06 0 0 1-.64 2.48 4.75 4.75 0 0 1-6.76 0 4.06 4.06 0 0 1-.64-2.48v-4.86zM399.41 368.77h1a.19.19 0 0 1 .17.19v12.83a.17.17 0 0 1-.17.17h-1a.19.19 0 0 1-.19-.17V369a.21.21 0 0 1 .19-.23zM412.83 378.89a2.65 2.65 0 0 0 .29 1.41 1.43 1.43 0 0 0 1.38.64 2.58 2.58 0 0 0 1.59-.54c.14-.1.23-.08.29 0l.35.76a.18.18 0 0 1-.08.25 4.32 4.32 0 0 1-2.5.74 2.59 2.59 0 0 1-2.15-.85 3.62 3.62 0 0 1-.6-2.25v-4.73h-1a.19.19 0 0 1-.19-.17v-.75a.21.21 0 0 1 .19-.19h1v-1.69a.21.21 0 0 1 .19-.19h1a.21.21 0 0 1 .19.19v1.69h3a.21.21 0 0 1 .19.19v.76a.19.19 0 0 1-.19.17h-3v4.55zM425.62 369a.85.85 0 1 1 .85.85.84.84 0 0 1-.85-.85zm.35 4.17h1a.19.19 0 0 1 .17.19v8.39a.17.17 0 0 1-.17.17h-1a.19.19 0 0 1-.19-.17v-8.35a.21.21 0 0 1 .22-.19zM439.19 374.7a3.26 3.26 0 0 1 3.06-1.65 3.24 3.24 0 0 1 3.59 3.72v5a.19.19 0 0 1-.19.17h-1a.19.19 0 0 1-.19-.17v-4.71a2.92 2.92 0 0 0-.72-2.23 2.37 2.37 0 0 0-1.72-.56 2.46 2.46 0 0 0-2.29 1.34 5 5 0 0 0-.5 2.31v3.86a.17.17 0 0 1-.17.17h-1.07a.19.19 0 0 1-.19-.17v-8.38a.21.21 0 0 1 .19-.19h1a.21.21 0 0 1 .19.19v1.3h.06zM461.65 384.57a3.16 3.16 0 0 0 .66-2.17v-1.12a3.82 3.82 0 0 1-2.62.87 3.64 3.64 0 0 1-2.83-1.2 5 5 0 0 1-1.14-3.35 5.09 5.09 0 0 1 1.1-3.33 3.68 3.68 0 0 1 2.85-1.2 3.94 3.94 0 0 1 2.62.91h.06v-.58a.19.19 0 0 1 .17-.19h1a.19.19 0 0 1 .19.19v8.84a4.3 4.3 0 0 1-1.1 3.22 4.13 4.13 0 0 1-3 1 5.89 5.89 0 0 1-3.2-.93.16.16 0 0 1-.08-.23l.39-.78a.18.18 0 0 1 .29 0 4.57 4.57 0 0 0 2.62.83 2.59 2.59 0 0 0 2.02-.78zm.66-4.54v-4.81a3.69 3.69 0 0 0-2.46-1 2.38 2.38 0 0 0-1.94.89 3.88 3.88 0 0 0-.76 2.46 4 4 0 0 0 .74 2.52 2.37 2.37 0 0 0 1.94.87 3.69 3.69 0 0 0 2.48-.96z" transform="translate(-111.11 -308.42)"/></svg>