<svg fill="#fff" xmlns="http://www.w3.org/2000/svg" viewBox="0 0 512 512"><path d="M141.073 464.247a10.072 10.072 0 0 0-7.069-2.93c-2.63 0-5.21 1.07-7.07 2.93s-2.93 4.44-2.93 7.07 1.069 5.21 2.93 7.07a10.077 10.077 0 0 0 7.07 2.93c2.63 0 5.21-1.07 7.069-2.93a10.077 10.077 0 0 0 2.931-7.07c.001-2.63-1.07-5.21-2.931-7.07zM505.039 322.137a44.412 44.412 0 0 0-57.503-15.888l-107.382 53.812c-4.938 2.475-6.935 8.483-4.46 13.42 2.475 4.937 8.479 6.934 13.421 4.46l107.382-53.812a24.462 24.462 0 0 1 31.672 8.75c3.688 5.791 4.776 12.641 3.064 19.291-1.712 6.649-5.974 12.121-12 15.411l-144.357 78.79a122.607 122.607 0 0 1-58.567 14.943H172.005c-5.522 0-10 4.477-10 10s4.478 10 10 10H276.31c23.743 0 47.31-6.012 68.149-17.388l144.357-78.79c10.782-5.885 18.724-16.084 21.787-27.98 3.063-11.892 1.035-24.657-5.564-35.019z"/><path d="M298.389 361.305l-44.311-35.104c-22.853-18.105-51.494-28.075-80.648-28.075H96.87v-.602c0-5.523-4.478-10-10-10H10c-5.522 0-10 4.477-10 10s4.478 10 10 10h66.868v164.483H10c-5.522 0-10 4.477-10 10s4.478 10 10 10h76.868c5.522 0 10-4.477 10-10V318.126h76.56c24.665 0 48.897 8.435 68.229 23.751l44.31 35.104c5.387 4.267 8.024 10.876 7.057 17.681-.969 6.804-5.346 12.415-11.708 15.011a19.112 19.112 0 0 1-17.801-1.776l-56.608-37.595c-4.599-3.056-10.808-1.803-13.862 2.798-3.056 4.601-1.803 10.807 2.798 13.862l56.608 37.595a39.093 39.093 0 0 0 36.418 3.634c13.02-5.31 21.976-16.792 23.957-30.712 1.982-13.92-3.415-27.443-14.437-36.174z"/><path d="M51.119 339.481c-3.739-4.063-10.064-4.327-14.13-.587l-.092.084c-4.063 3.74-4.327 10.066-.587 14.13a9.973 9.973 0 0 0 7.361 3.229 9.968 9.968 0 0 0 6.769-2.642l.092-.084c4.063-3.74 4.327-10.066.587-14.13zM448.58 95.819a41.425 41.425 0 0 0 7.101-23.242V61.66c0-22.976-18.692-41.668-41.668-41.668-22.977 0-41.668 18.692-41.668 41.668v10.916a41.425 41.425 0 0 0 7.101 23.242c-14.677 3.451-27.26 12.39-35.435 24.543-8.175-12.152-20.758-21.092-35.435-24.543a41.425 41.425 0 0 0 7.101-23.242V61.66c0-22.976-18.692-41.668-41.668-41.668-22.977 0-41.668 18.692-41.668 41.668v10.916a41.425 41.425 0 0 0 7.101 23.242c-14.677 3.451-27.26 12.39-35.435 24.543-8.175-12.152-20.758-21.092-35.435-24.543a41.425 41.425 0 0 0 7.101-23.242V61.66c0-22.976-18.692-41.668-41.668-41.668S92.336 38.685 92.336 61.66v10.916a41.425 41.425 0 0 0 7.101 23.242c-26.009 6.115-45.435 29.496-45.435 57.344v82.837c0 5.524 4.478 10.001 10 10.001h420.013c5.522 0 10-4.477 10-10v-82.837c0-27.848-19.426-51.228-45.435-57.344zM112.336 61.66c0-11.947 9.72-21.668 21.668-21.668 11.947 0 21.668 9.72 21.668 21.668v10.916c0 11.947-9.72 21.668-21.668 21.668-11.947 0-21.668-9.72-21.668-21.668V61.66zm81.67 164.338H74.002v-72.836c0-21.46 17.459-38.918 38.918-38.918h11.083v36.934c0 5.523 4.478 10 10 10s10-4.477 10-10v-36.934h11.083c21.46 0 38.918 17.458 38.918 38.918v72.836zM252.341 61.66c0-11.947 9.72-21.668 21.668-21.668s21.668 9.72 21.668 21.668v10.916c0 11.947-9.72 21.668-21.668 21.668-11.947 0-21.668-9.72-21.668-21.668V61.66zm81.669 164.338H214.007v-72.836c0-21.46 17.458-38.918 38.918-38.918h11.083v36.934c0 5.523 4.478 10 10 10s10-4.477 10-10v-36.934h11.083c21.46 0 38.918 17.458 38.918 38.918v72.836zM392.345 61.66c0-11.947 9.72-21.668 21.668-21.668 11.947 0 21.668 9.72 21.668 21.668v10.916c0 11.947-9.72 21.668-21.668 21.668-11.947 0-21.668-9.72-21.668-21.668V61.66zm81.67 164.338H354.011v-72.836c0-21.46 17.459-38.918 38.918-38.918h11.083v36.934c0 5.523 4.478 10 10 10s10-4.477 10-10v-36.934h11.083c21.46 0 38.918 17.458 38.918 38.918v72.836z"/></svg>