<svg width="1440" height="784" viewBox="0 0 1440 784" fill="none" xmlns="http://www.w3.org/2000/svg">
<path opacity="0.57885" d="M1520.66 86.0073C1581.92 166.575 1561.52 287.988 1475.09 357.192L1162.76 607.271C1076.34 676.474 956.606 667.262 895.342 586.694C834.078 506.127 854.479 384.714 940.908 315.51L1253.23 65.431C1339.66 -3.77246 1459.39 5.43989 1520.66 86.0073Z" fill="#E3E3E3" fill-opacity="0.501925"/>
<mask id="mask0" mask-type="alpha" maskUnits="userSpaceOnUse" x="859" y="19" width="697" height="635">
<path d="M1520.66 86.0073C1581.92 166.575 1561.52 287.988 1475.09 357.192L1162.76 607.271C1076.34 676.474 956.606 667.262 895.342 586.694C834.078 506.127 854.479 384.714 940.908 315.51L1253.23 65.431C1339.66 -3.77246 1459.39 5.43989 1520.66 86.0073Z" fill="white"/>
</mask>
<g mask="url(#mask0)">
</g>
<path opacity="0.57885" d="M-87.4293 120.556C-17.0231 47.8423 106.078 49.698 187.525 124.701L481.848 395.74C563.295 470.743 572.245 590.492 501.839 663.206C431.432 735.92 308.331 734.064 226.884 659.061L-67.4386 388.023C-148.885 313.019 -157.836 193.271 -87.4293 120.556Z" fill="#E3E3E3" fill-opacity="0.501925"/>
<mask id="mask1" mask-type="alpha" maskUnits="userSpaceOnUse" x="-135" y="67" width="685" height="650">
<path d="M-87.4293 120.556C-17.0231 47.8423 106.078 49.698 187.525 124.701L481.848 395.74C563.295 470.743 572.245 590.492 501.839 663.206C431.432 735.92 308.331 734.064 226.884 659.061L-67.4386 388.023C-148.885 313.019 -157.836 193.271 -87.4293 120.556Z" fill="white"/>
</mask>
<g mask="url(#mask1)">
</g>
</svg>
