<svg width="147" height="46" viewBox="0 0 147 46" fill="none" xmlns="http://www.w3.org/2000/svg">
<path fill-rule="evenodd" clip-rule="evenodd" d="M54.8895 12.5571C54.8878 12.5599 54.8857 12.5622 54.8839 12.565C54.8666 12.5922 54.8483 12.6188 54.8281 12.644L54.8218 12.6509C54.8041 12.6722 54.7851 12.6924 54.7652 12.7118C54.7578 12.719 54.7502 12.7258 54.7426 12.7326L54.7397 12.7352C54.7247 12.7486 54.7092 12.7614 54.6932 12.7737L54.6796 12.7842L54.6766 12.7865L54.6667 12.7937C54.6427 12.8107 54.618 12.8266 54.5923 12.8408L54.5904 12.842C54.5631 12.8569 54.5348 12.8699 54.5059 12.8816C54.5018 12.8833 54.4976 12.8848 54.4935 12.8863L54.4848 12.8894C54.4625 12.8978 54.4398 12.9052 54.4165 12.9115C54.4082 12.9138 54.3999 12.9161 54.3915 12.918C54.3688 12.9235 54.3458 12.9277 54.3223 12.9312C54.3142 12.9324 54.3062 12.9339 54.298 12.9349C54.269 12.9383 54.2397 12.9402 54.2099 12.9404L54.2072 12.9406L54.2044 12.9408L54.2029 12.9407H46.5471L42.9212 24.5393L42.921 24.5399L42.9177 24.5504L42.9164 24.5537L42.9163 24.5538L42.9149 24.5573L42.913 24.5629L42.9106 24.5701C42.9072 24.5808 42.9037 24.5915 42.8996 24.602L42.8976 24.6069L42.8942 24.6153L42.8908 24.6229L42.8848 24.6364C42.8795 24.6483 42.8743 24.6605 42.8685 24.6722L42.8663 24.6767L42.8655 24.6781C42.8619 24.6852 42.858 24.692 42.8541 24.6989L42.8493 24.7074C42.8434 24.7177 42.8377 24.7282 42.8315 24.7383L42.826 24.747C42.8216 24.7538 42.8169 24.7605 42.8122 24.7672L42.8075 24.7738L42.805 24.7775L42.8012 24.7832L42.7969 24.7895L42.789 24.7999L42.779 24.813C42.7747 24.8184 42.7701 24.8237 42.7655 24.829L42.7603 24.835C42.7539 24.8426 42.7475 24.8502 42.7408 24.8576L42.7249 24.8746L42.7183 24.8816C42.7153 24.8847 42.7121 24.8872 42.7091 24.8901L42.7078 24.8913L42.7036 24.8953L42.7035 24.8954L42.7035 24.8954L42.7034 24.8955L42.7034 24.8955L42.7033 24.8956C42.7008 24.898 42.6983 24.9005 42.6958 24.9029C42.6928 24.9057 42.6899 24.9084 42.6869 24.9112C42.6797 24.9178 42.6725 24.9242 42.665 24.9305C42.6629 24.9323 42.6611 24.9342 42.659 24.936C42.657 24.9377 42.6546 24.9388 42.6526 24.9404C42.6441 24.9474 42.6355 24.9543 42.6266 24.9608L42.6227 24.9639L42.6181 24.9674C42.6132 24.971 42.6081 24.9743 42.603 24.9776L42.595 24.983C42.5832 24.9909 42.5712 24.9985 42.559 25.0058C42.5534 25.0091 42.5483 25.0129 42.5427 25.016L42.5384 25.0182L42.5352 25.0197L42.5308 25.0219C42.5156 25.0302 42.5002 25.0378 42.4846 25.0451L42.4778 25.0485L42.4743 25.0503L42.4694 25.0527L22.9297 33.6343L17.0322 45.549C17.0309 45.5516 17.0291 45.5539 17.0278 45.5565C17.0113 45.5889 16.9933 45.6203 16.973 45.6498L16.9722 45.6508L16.9712 45.6522C16.9523 45.6792 16.9316 45.7046 16.9099 45.729L16.9046 45.7349L16.8941 45.7466C16.8724 45.7696 16.8496 45.7912 16.8256 45.8113C16.8204 45.8156 16.8151 45.8197 16.8098 45.8238L16.8064 45.8264C16.7848 45.8434 16.7624 45.8594 16.7392 45.8742L16.733 45.8783L16.7293 45.8808L16.7244 45.8839C16.6967 45.9006 16.668 45.9154 16.6385 45.9287C16.6327 45.9313 16.6269 45.9337 16.621 45.9362C16.56 45.9619 16.4956 45.9803 16.429 45.9903L16.4159 45.9921L16.4097 45.9929C16.3771 45.9971 16.3443 45.9999 16.3109 45.9999H16.3105L16.3093 46C16.272 46 16.2347 45.9964 16.1973 45.9911L16.1926 45.9908C16.1908 45.9907 16.189 45.9906 16.1871 45.9903C16.1768 45.9887 16.167 45.986 16.1568 45.984L16.1466 45.982L16.1361 45.9799C16.1294 45.9786 16.1228 45.9772 16.1161 45.9755C16.0956 45.9704 16.0756 45.9641 16.0558 45.9575C16.0485 45.9551 16.0412 45.9532 16.034 45.9506C16.005 45.94 15.977 45.9278 15.9497 45.9141L15.9487 45.9137L15.9445 45.9113L15.9403 45.9089C15.9197 45.8981 15.8994 45.8868 15.88 45.8744C15.8751 45.8714 15.8705 45.8681 15.8659 45.8648L15.8573 45.8587L15.8545 45.8568C15.8414 45.8479 15.8284 45.839 15.8161 45.8293L15.8095 45.824L15.8039 45.8193L15.7891 45.8065L15.7847 45.8026L15.7728 45.7924L15.7646 45.7852L15.7574 45.7787C15.7457 45.7676 15.7348 45.7559 15.7239 45.7441L15.7158 45.7355C15.7117 45.7312 15.7076 45.7269 15.7037 45.7225L15.696 45.7134L15.6852 45.6999L15.6728 45.684L15.6674 45.677L15.6618 45.6698L15.6551 45.6607L15.6494 45.6525L15.6439 45.6445C15.6391 45.637 15.6344 45.6295 15.6297 45.622L15.6238 45.6127C15.6198 45.6065 15.6159 45.6003 15.6122 45.5939C15.6054 45.5821 15.5994 45.5699 15.5932 45.5577C15.5872 45.5462 15.5812 45.5347 15.5758 45.5228C15.5737 45.5181 15.5716 45.5133 15.5697 45.5085L15.5655 45.4981L15.5655 45.498L15.5626 45.4906L15.5618 45.4886C15.5564 45.4754 15.5512 45.4622 15.5465 45.4488C15.544 45.4413 15.5418 45.4338 15.5397 45.4263L15.5376 45.4192C15.5331 45.4038 15.5285 45.3886 15.5248 45.373C15.5231 45.3662 15.5219 45.3594 15.5206 45.3525L15.5187 45.3423L15.5154 45.3257C15.5135 45.3159 15.5117 45.306 15.5104 45.2961C15.5092 45.2874 15.5084 45.2787 15.5077 45.2699L15.5067 45.2583L15.5058 45.2484L15.5044 45.2336C15.504 45.2286 15.5037 45.2235 15.5035 45.2184C15.5031 45.2088 15.5031 45.199 15.5032 45.1893L15.5035 45.1714L15.5036 45.1667L15.5037 45.1504L15.5038 45.1462L15.504 45.1396C15.5053 45.1165 15.5079 45.0934 15.5111 45.0702C15.5116 45.0668 15.5116 45.0636 15.5121 45.0602L15.5125 45.0576L15.5137 45.0497L18.8823 22.9319L0.332658 9.30446C0.329275 9.30198 0.326173 9.29935 0.323071 9.29672L0.315971 9.29087C0.304129 9.28163 0.292395 9.27227 0.280983 9.26238C0.271079 9.25379 0.261712 9.24498 0.252346 9.23606C0.24298 9.22714 0.23383 9.21812 0.225002 9.20877C0.21499 9.19833 0.205408 9.18767 0.19615 9.17679C0.188614 9.16798 0.181293 9.15896 0.17408 9.14982C0.164929 9.13819 0.156102 9.12633 0.147704 9.11426C0.14103 9.10469 0.13457 9.09491 0.128326 9.08501C0.12079 9.07305 0.113362 9.06098 0.106472 9.04869C0.100228 9.0376 0.0943069 9.02629 0.0884935 9.01487C0.0827877 9.00334 0.0771896 8.9917 0.0719144 8.97996C0.0662086 8.96713 0.0608258 8.95408 0.055766 8.94092C0.0514597 8.92994 0.0474764 8.91895 0.0437085 8.90775C0.0389716 8.89372 0.0346653 8.87969 0.030682 8.86534C0.02756 8.85414 0.024761 8.84283 0.0220695 8.83141C0.0188399 8.81738 0.0158255 8.80324 0.0133494 8.789C0.0110886 8.77638 0.00915079 8.76366 0.00753594 8.75083C0.0059211 8.73778 0.00441391 8.72484 0.00333735 8.71168C0.00204547 8.69667 0.00150719 8.68166 0.00107656 8.66666L0.000563464 8.65738C0.000281902 8.65326 0 8.64914 0 8.64491C0 8.64181 0.000273067 8.63882 0.000546915 8.63583L0.000547231 8.63582L0.000861251 8.63218C0.00107656 8.6162 0.00204547 8.6001 0.00322969 8.58412L0.00352729 8.57964C0.00416709 8.56996 0.00480154 8.56036 0.0059211 8.55084C0.0076436 8.53562 0.0102274 8.5205 0.0128111 8.50538L0.0146037 8.49493L0.0146046 8.49493C0.015965 8.48685 0.0173264 8.47877 0.0190552 8.4708C0.021961 8.457 0.0257276 8.4433 0.0294945 8.4296L0.0294978 8.42959L0.0307802 8.42481L0.030785 8.42479C0.0336788 8.414 0.0365646 8.40324 0.0399405 8.39272C0.0431087 8.38295 0.0467536 8.37331 0.0503877 8.3637L0.0531822 8.35629L0.0548012 8.35198L0.0548027 8.35198C0.0592021 8.34026 0.0635906 8.32857 0.0685771 8.31714C0.0725848 8.30812 0.0769779 8.29919 0.0813651 8.29026L0.0837566 8.28539C0.090539 8.27158 0.0973213 8.25787 0.10475 8.2445C0.108799 8.23724 0.11323 8.23004 0.117651 8.22285L0.121652 8.21633C0.130156 8.20263 0.138661 8.18904 0.14792 8.17577L0.150952 8.17101L0.150959 8.171C0.152151 8.16907 0.153346 8.16713 0.154702 8.16522C0.157076 8.16198 0.159581 8.15898 0.16209 8.15597L0.168159 8.14847C0.17731 8.1364 0.186676 8.12455 0.196473 8.11302C0.20487 8.10313 0.213482 8.09356 0.22231 8.0842C0.231246 8.07474 0.240181 8.0655 0.249547 8.05647C0.259775 8.04658 0.270325 8.03701 0.280983 8.02765C0.289811 8.01993 0.298746 8.01243 0.308005 8.00504C0.319416 7.9959 0.330936 7.98709 0.342778 7.97872C0.352467 7.97187 0.362264 7.96523 0.372276 7.95871C0.383902 7.95121 0.395637 7.94392 0.407587 7.93707C0.418783 7.93054 0.430195 7.92445 0.441714 7.91847C0.45291 7.91271 0.464214 7.90716 0.475626 7.90194C0.488437 7.89607 0.501463 7.89063 0.514705 7.88541C0.52547 7.88117 0.536236 7.87715 0.547109 7.87345C0.561105 7.86856 0.5751 7.86421 0.589418 7.86018C0.600507 7.85703 0.611596 7.85409 0.622792 7.85148C0.636679 7.84822 0.650675 7.84518 0.664885 7.84268C0.677374 7.8405 0.689969 7.83854 0.702565 7.83691C0.715376 7.83528 0.728295 7.83376 0.741321 7.83267C0.756178 7.83147 0.771035 7.83082 0.785891 7.83039L0.795075 7.82987C0.799152 7.82958 0.803234 7.8293 0.807422 7.8293H7.05106L1.89949 1.32455C1.89649 1.32081 1.89383 1.31692 1.89118 1.31304L1.89118 1.31303L1.89118 1.31303L1.89117 1.31303L1.89117 1.31303L1.89117 1.31303L1.89117 1.31303L1.8856 1.30508C1.87666 1.29312 1.86784 1.28105 1.85955 1.26854C1.85233 1.25778 1.84566 1.24679 1.83909 1.2357L1.83757 1.23312L1.83757 1.23312C1.8313 1.22246 1.82506 1.21187 1.81928 1.2009C1.81282 1.18872 1.8068 1.17643 1.80098 1.16404C1.7956 1.15262 1.79043 1.14109 1.78559 1.12945C1.78031 1.11673 1.77547 1.10379 1.77084 1.09085C1.76653 1.07878 1.76244 1.0666 1.75867 1.05431C1.75491 1.0417 1.75146 1.02908 1.74823 1.01636C1.74479 1.00309 1.74177 0.989823 1.73908 0.976338C1.73671 0.964267 1.73456 0.952087 1.73273 0.939907C1.73058 0.92577 1.72864 0.911633 1.72724 0.897278C1.72605 0.885207 1.72519 0.873245 1.72455 0.861174C1.72379 0.846928 1.72315 0.832682 1.72315 0.818327C1.72315 0.805495 1.72358 0.792663 1.72412 0.779831C1.72465 0.766455 1.7253 0.753079 1.72659 0.739594C1.72788 0.72513 1.72993 0.710776 1.73197 0.696421L1.73318 0.686279C1.73369 0.681439 1.73421 0.676606 1.7351 0.671735C1.73545 0.669636 1.73597 0.667569 1.7365 0.665499L1.7365 0.665497L1.7365 0.665496L1.7365 0.665494L1.7365 0.665492L1.7365 0.66549L1.7365 0.665488L1.73768 0.660425C1.7404 0.645957 1.74393 0.631693 1.74748 0.617336L1.74749 0.61733L1.7478 0.616056L1.7499 0.607552L1.7499 0.607549C1.75206 0.598729 1.75421 0.589923 1.75674 0.581366C1.76004 0.570002 1.76401 0.558789 1.76797 0.5476L1.77041 0.540694L1.77367 0.531339C1.7767 0.522585 1.77973 0.51385 1.78322 0.505351C1.78723 0.495445 1.79178 0.485744 1.79633 0.476031L1.79991 0.468377L1.80382 0.459854L1.80382 0.459849L1.80382 0.459845L1.80382 0.459841C1.80796 0.450778 1.81211 0.441694 1.8167 0.432925C1.82131 0.424112 1.82642 0.415554 1.83156 0.406958L1.83629 0.398996L1.83987 0.392843C1.84542 0.38327 1.85093 0.373749 1.85696 0.364523C1.86236 0.356391 1.8682 0.348453 1.87405 0.34051L1.87925 0.333421L1.88271 0.328613C1.88961 0.319 1.89652 0.309387 1.9039 0.300253C1.90945 0.293369 1.9154 0.286722 1.92138 0.280049L1.9278 0.272848L1.93336 0.266593C1.94126 0.257681 1.94914 0.248793 1.95751 0.240333C1.9635 0.234283 1.9698 0.228479 1.97607 0.22269L1.97608 0.222689L1.97608 0.222686L1.98228 0.216952C1.99379 0.206186 2.00531 0.195529 2.01737 0.185524L2.02119 0.1821C2.0226 0.180775 2.024 0.179459 2.02555 0.178238C2.02903 0.175404 2.03268 0.17285 2.03632 0.170299L2.03633 0.170296L2.04461 0.164318C2.05656 0.155183 2.06862 0.146266 2.0811 0.137783C2.09176 0.130606 2.10264 0.123864 2.11351 0.11723C2.12481 0.11027 2.13622 0.103528 2.14796 0.0971118C2.16002 0.0905869 2.17218 0.0844971 2.18445 0.0786247C2.19587 0.0731873 2.20717 0.0678586 2.2188 0.062965C2.23139 0.0576363 2.24399 0.0527427 2.2568 0.0480665C2.26896 0.0436079 2.28102 0.0394755 2.2934 0.0356693C2.30568 0.0318631 2.31806 0.0283832 2.33044 0.0252295C2.34379 0.0217496 2.35714 0.0185959 2.3707 0.0158772C2.38243 0.0135935 2.39417 0.0115273 2.40601 0.00967856C2.42022 0.00739485 2.43454 0.00543739 2.44897 0.00402367C2.46059 0.00293619 2.47233 0.00206621 2.48395 0.00141372C2.49827 0.000543739 2.51259 0 2.52702 0C2.53961 0 2.55221 0.000434991 2.5648 0.00097873C2.57805 0.00152247 2.59118 0.00217496 2.60453 0.00347993C2.61906 0.00489365 2.63349 0.00695986 2.64802 0.00913482L2.65841 0.0104112C2.66287 0.0108975 2.66733 0.0113833 2.67181 0.0121798L26.7827 4.36177L26.7968 4.36459C26.8044 4.36606 26.8119 4.36791 26.8193 4.36977L26.8302 4.37242L26.8431 4.37532L26.8431 4.37533L26.8431 4.37533L26.8432 4.37533L26.8432 4.37534C26.8511 4.37707 26.8591 4.3788 26.867 4.38112C26.8688 4.38156 26.8705 4.38232 26.8722 4.38286C26.8835 4.38621 26.8945 4.39021 26.9056 4.39421L26.9133 4.397L26.9235 4.40049C26.9317 4.40323 26.9398 4.40596 26.9477 4.40918C26.9555 4.41237 26.9631 4.41605 26.9708 4.41972L26.9822 4.42517L26.9927 4.42991C27.0017 4.43398 27.0108 4.43805 27.0195 4.44267C27.0262 4.44623 27.0326 4.45017 27.0391 4.45411L27.0489 4.45997L27.0598 4.46633C27.0692 4.47171 27.0785 4.47708 27.0874 4.48302C27.0924 4.48633 27.0971 4.48992 27.1019 4.49349L27.1115 4.50064L27.1143 4.5027L27.1247 4.51023C27.1335 4.51656 27.1423 4.52289 27.1507 4.52967C27.1611 4.53812 27.1708 4.54711 27.1806 4.55611L27.1863 4.56143L27.1942 4.5684L27.1943 4.56844C27.1992 4.57275 27.2041 4.57706 27.2087 4.58165C27.2203 4.59301 27.2311 4.60514 27.2418 4.61723L27.2418 4.61724L27.2419 4.61728L27.2419 4.61735L27.2438 4.6195L27.2508 4.6271C27.2545 4.63105 27.2582 4.63499 27.2617 4.63918L27.2687 4.64756L27.2698 4.64875L34.6012 13.7003L46.9349 7.05556L46.9366 7.05471L46.9376 7.05425C46.9459 7.0499 46.9545 7.0461 46.9629 7.04197C46.9752 7.03598 46.9875 7.03 47.0001 7.02467L47.0048 7.02244C47.0067 7.0215 47.0087 7.02056 47.0106 7.01978C47.0161 7.01752 47.0216 7.01558 47.0272 7.01364L47.0363 7.01043C47.048 7.00608 47.0596 7.00184 47.0714 6.99803C47.0849 6.99368 47.0986 6.98998 47.1123 6.98639L47.1303 6.98182L47.1455 6.97824L47.1532 6.97637C47.1565 6.97552 47.1599 6.97467 47.1633 6.974L47.1694 6.97302L47.1713 6.97277L47.178 6.97182L47.1854 6.97069L47.1889 6.97019C47.2 6.96845 47.2111 6.96671 47.2222 6.96541L47.2306 6.96424L47.2361 6.96346L47.2416 6.9628C47.2448 6.96247 47.2479 6.96258 47.251 6.96236L47.2548 6.96216L47.2652 6.96171C47.273 6.96122 47.2807 6.96077 47.2885 6.96046L47.3013 6.96008C47.3144 6.95986 47.3277 6.96019 47.3409 6.96062L47.3593 6.96136C47.367 6.96174 47.3747 6.96224 47.3825 6.96291C47.3939 6.96388 47.4052 6.9653 47.4165 6.96671C47.4323 6.96878 47.448 6.97117 47.4637 6.97411C47.4676 6.97487 47.4715 6.97519 47.4754 6.97596C47.4786 6.97661 47.4818 6.97745 47.485 6.97829L47.493 6.9803C47.5085 6.98389 47.5239 6.9877 47.5393 6.99227L47.5535 6.99629L47.5579 6.99749C47.5607 6.99833 47.5633 6.99936 47.5658 7.0004L47.5723 7.00282C47.5855 7.00727 47.5986 7.01206 47.6118 7.01728L47.62 7.02047L47.6286 7.02391C47.6346 7.02652 47.6405 7.02931 47.6463 7.0321L47.6522 7.0349C47.6621 7.03946 47.6719 7.04403 47.6816 7.04903L47.6818 7.04913C47.6878 7.05214 47.6938 7.05516 47.6997 7.05839C47.7095 7.06371 47.7189 7.06959 47.7285 7.07535L47.735 7.07901L47.7384 7.08084L47.7428 7.0834L54.6328 11.4333C54.6347 11.4345 54.6365 11.4358 54.6383 11.4371L54.6426 11.4402C54.6557 11.4488 54.6683 11.4578 54.6809 11.4671L54.6861 11.4709L54.6861 11.471C54.694 11.4767 54.7019 11.4825 54.7094 11.4887C54.7195 11.4968 54.7291 11.5054 54.7387 11.514L54.7387 11.5141L54.7388 11.5141L54.7389 11.5142L54.7455 11.5201C54.7539 11.5276 54.7622 11.5351 54.7701 11.5429C54.7755 11.5482 54.7805 11.5537 54.7855 11.5592L54.7922 11.5664L54.7944 11.5688L54.8067 11.5819C54.8125 11.5883 54.8182 11.5948 54.8238 11.6014C54.8283 11.6069 54.8325 11.6125 54.8367 11.6181L54.8425 11.6258C54.8521 11.6383 54.8618 11.6508 54.8706 11.6637C54.8755 11.6709 54.88 11.6783 54.8845 11.6857L54.8894 11.6938L54.8934 11.7002L54.8935 11.7003C54.8995 11.7099 54.9054 11.7195 54.9109 11.7294C54.9146 11.7361 54.918 11.743 54.9213 11.7499L54.9302 11.7684L54.934 11.7759C54.9377 11.7835 54.9415 11.791 54.9448 11.7987C54.9504 11.8117 54.9552 11.8249 54.96 11.8382L54.9622 11.8442L54.9656 11.8534C54.9679 11.8595 54.9702 11.8656 54.9722 11.8719C54.9766 11.8857 54.9803 11.8998 54.984 11.9139L54.9851 11.9184L54.9892 11.9337C54.9905 11.9387 54.9918 11.9438 54.9929 11.9489L54.9958 11.9639L54.9996 11.9859V11.9859L55.0005 11.9917L55.0014 11.9971C55.0032 12.0078 55.0049 12.0185 55.0062 12.0294C55.007 12.0355 55.0076 12.0417 55.0081 12.048L55.0094 12.0664L55.0101 12.0774L55.0109 12.0916L55.0115 12.1058L55.0116 12.1124L55.0119 12.118C55.0121 12.1202 55.0123 12.1225 55.0123 12.1248C55.0123 12.1288 55.012 12.1327 55.0117 12.1366V12.1366L55.0112 12.1455C55.0108 12.1617 55.0101 12.1779 55.0087 12.1941C55.0079 12.2055 55.0065 12.2168 55.0051 12.228C55.0032 12.243 55.001 12.2579 54.9983 12.273C54.996 12.2852 54.9934 12.2974 54.9906 12.3095C54.9876 12.3229 54.9843 12.3361 54.9805 12.3494C54.9767 12.3629 54.9724 12.376 54.968 12.3892C54.9641 12.4007 54.9601 12.4123 54.9555 12.4237C54.9498 12.438 54.9438 12.4522 54.9373 12.4662C54.9328 12.4762 54.9282 12.4862 54.9231 12.4961C54.9157 12.5109 54.9076 12.5252 54.8992 12.5395L54.8949 12.5475C54.8932 12.5508 54.8915 12.554 54.8895 12.5571ZM41.8271 22.6211L45.9492 9.43507L35.6438 14.9871L41.8271 22.6211ZM4.50176 1.99922L25.5271 5.7918L19.5199 20.9621L4.50176 1.99922ZM20.9129 21.8366L40.3271 23.3451L26.8865 6.75117L20.9129 21.8366ZM22.8909 31.8726L20.81 23.4646L38.8443 24.8659L22.8909 31.8726ZM17.8911 40.166L21.4829 32.9095L19.9435 26.6895L17.8911 40.166ZM15.3725 18.3366L3.29041 9.46052H8.34293L15.3725 18.3366ZM51.3896 11.3092L47.771 9.02466L47.0568 11.3092H51.3896Z" fill="url(#paint0_linear)"/>
<path fill-rule="evenodd" clip-rule="evenodd" d="M30.6626 38.1454C30.6626 36.3593 31.3277 34.8252 32.6579 33.5432C33.9826 32.2611 35.5744 31.6201 37.4333 31.6201C39.27 31.6201 40.8451 32.2666 42.1587 33.5596C43.4778 34.8526 44.1373 36.4059 44.1373 38.2194C44.1373 40.0439 43.475 41.5916 42.1503 42.8627C40.8201 44.1393 39.2144 44.7776 37.3332 44.7776C35.669 44.7776 34.1746 44.2105 32.8499 43.0764C31.3917 41.8217 30.6626 40.1781 30.6626 38.1454ZM32.6245 38.1701C32.6245 39.5727 33.1032 40.726 34.0605 41.63C35.0122 42.534 36.1115 42.986 37.3582 42.986C38.7107 42.986 39.8517 42.5258 40.7811 41.6053C41.7106 40.6739 42.1754 39.5398 42.1754 38.2029C42.1754 36.8497 41.7162 35.7155 40.7978 34.8006C39.885 33.8801 38.7552 33.4199 37.4083 33.4199C36.0669 33.4199 34.9343 33.8801 34.0104 34.8006C33.0865 35.7101 32.6245 36.8332 32.6245 38.1701ZM46.3702 36.5428H48.257V37.2825C48.9137 36.6415 49.654 36.321 50.4777 36.321C51.4239 36.321 52.1613 36.6141 52.6901 37.2003C53.1465 37.6989 53.3747 38.5125 53.3747 39.6412V44.5475H51.4879V40.0767C51.4879 39.2878 51.3766 38.7426 51.1539 38.4413C50.9369 38.1345 50.5417 37.9811 49.9684 37.9811C49.3451 37.9811 48.9026 38.1838 48.641 38.5892C48.385 38.9892 48.257 39.6877 48.257 40.6849V44.5475H46.3702V36.5428ZM57.7698 30.6667V44.5475H55.8914V30.6667H57.7698ZM62.1734 36.5428V44.5475H60.2949V36.5428H62.1734ZM60.0111 33.2144C60.0111 32.8912 60.1307 32.6118 60.3701 32.3762C60.6094 32.1406 60.896 32.0228 61.23 32.0228C61.5695 32.0228 61.8589 32.1406 62.0982 32.3762C62.3376 32.6063 62.4572 32.8884 62.4572 33.2226C62.4572 33.5569 62.3376 33.8418 62.0982 34.0774C61.8645 34.3129 61.5778 34.4307 61.2383 34.4307C60.8988 34.4307 60.6094 34.3129 60.3701 34.0774C60.1307 33.8418 60.0111 33.5541 60.0111 33.2144ZM64.6985 36.5428H66.5852V37.2825C67.242 36.6415 67.9822 36.321 68.806 36.321C69.7522 36.321 70.4896 36.6141 71.0184 37.2003C71.4748 37.6989 71.703 38.5125 71.703 39.6412V44.5475H69.8162V40.0767C69.8162 39.2878 69.7048 38.7426 69.4822 38.4413C69.2652 38.1345 68.87 37.9811 68.2967 37.9811C67.6733 37.9811 67.2309 38.1838 66.9693 38.5892C66.7133 38.9892 66.5852 39.6877 66.5852 40.6849V44.5475H64.6985V36.5428ZM81.6249 40.9807H75.7976C75.8477 41.6382 76.0647 42.1614 76.4488 42.5504C76.8328 42.934 77.3254 43.1257 77.9265 43.1257C78.394 43.1257 78.7808 43.0161 79.0869 42.797C79.3875 42.5778 79.7298 42.1724 80.1138 41.5807L81.7001 42.4518C81.4552 42.8627 81.1964 43.2148 80.9236 43.5079C80.6509 43.801 80.3587 44.0421 80.047 44.2311C79.7353 44.4201 79.3986 44.5585 79.0368 44.6461C78.6751 44.7338 78.2827 44.7776 77.8597 44.7776C76.6463 44.7776 75.6724 44.3941 74.9377 43.627C74.203 42.8545 73.8356 41.83 73.8356 40.5534C73.8356 39.2878 74.1919 38.2632 74.9043 37.4797C75.6223 36.7072 76.574 36.321 77.7595 36.321C78.9561 36.321 79.9023 36.6963 80.598 37.4469C81.2882 38.192 81.6333 39.2248 81.6333 40.5452L81.6249 40.9807ZM79.6964 39.4686C79.4348 38.4824 78.8031 37.9893 77.8012 37.9893C77.5731 37.9893 77.3588 38.0235 77.1584 38.092C76.958 38.1605 76.7758 38.2591 76.6116 38.3879C76.4474 38.5166 76.3068 38.6714 76.19 38.8522C76.0731 39.033 75.984 39.2385 75.9228 39.4686H79.6964ZM84.1834 44.5475V31.8584H86.8884C88.1852 31.8584 89.2093 31.9844 89.9607 32.2364C90.7677 32.483 91.4996 32.9021 92.1563 33.4939C93.4866 34.6883 94.1517 36.2579 94.1517 38.2029C94.1517 40.1534 93.4587 41.7313 92.0729 42.9367C91.3771 43.5394 90.648 43.9585 89.8855 44.1941C89.1731 44.4297 88.1629 44.5475 86.855 44.5475H84.1834ZM86.1286 42.7477H87.0052C87.8791 42.7477 88.6054 42.6573 89.1842 42.4765C89.7631 42.2847 90.2862 41.9806 90.7538 41.5642C91.7111 40.7041 92.1897 39.5836 92.1897 38.2029C92.1897 36.8113 91.7166 35.6827 90.7705 34.817C89.9189 34.0445 88.6638 33.6582 87.0052 33.6582H86.1286V42.7477ZM98.263 36.5428V44.5475H96.3845V36.5428H98.263ZM96.1007 33.2144C96.1007 32.8912 96.2204 32.6118 96.4597 32.3762C96.699 32.1406 96.9856 32.0228 97.3196 32.0228C97.6591 32.0228 97.9485 32.1406 98.1879 32.3762C98.4272 32.6063 98.5468 32.8884 98.5468 33.2226C98.5468 33.5569 98.4272 33.8418 98.1879 34.0774C97.9541 34.3129 97.6675 34.4307 97.3279 34.4307C96.9884 34.4307 96.699 34.3129 96.4597 34.0774C96.2204 33.8418 96.1007 33.5541 96.1007 33.2144ZM101.798 36.5428L103.902 41.0383L105.998 36.5428H108.11L103.885 45.0981L99.6944 36.5428H101.798ZM108.815 40.4876C108.815 39.3316 109.235 38.3481 110.076 37.5373C110.916 36.7264 111.94 36.321 113.148 36.321C114.361 36.321 115.391 36.7291 116.237 37.5455C117.072 38.3618 117.489 39.3645 117.489 40.5534C117.489 41.7533 117.069 42.7586 116.228 43.5695C115.382 44.3749 114.344 44.7776 113.114 44.7776C111.896 44.7776 110.874 44.3667 110.05 43.5449C109.227 42.734 108.815 41.7149 108.815 40.4876ZM110.735 40.5205C110.735 41.3204 110.952 41.9532 111.386 42.4189C111.832 42.8901 112.419 43.1257 113.148 43.1257C113.883 43.1257 114.47 42.8929 114.909 42.4272C115.349 41.9615 115.569 41.3396 115.569 40.5616C115.569 39.7836 115.349 39.1618 114.909 38.696C114.464 38.2249 113.877 37.9893 113.148 37.9893C112.43 37.9893 111.848 38.2249 111.403 38.696C110.958 39.1672 110.735 39.7754 110.735 40.5205ZM119.622 36.5428H121.5V37.2578C121.845 36.9017 122.151 36.6579 122.419 36.5264C122.691 36.3894 123.014 36.321 123.387 36.321C123.882 36.321 124.4 36.4798 124.94 36.7976L124.08 38.4906C123.724 38.2386 123.376 38.1125 123.036 38.1125C122.012 38.1125 121.5 38.8741 121.5 40.3972V44.5475H119.622V36.5428ZM132.341 36.888V39.3453C131.912 38.8303 131.528 38.4769 131.188 38.2851C130.855 38.0879 130.462 37.9893 130.011 37.9893C129.304 37.9893 128.717 38.2331 128.25 38.7207C127.782 39.2083 127.548 39.8192 127.548 40.5534C127.548 41.304 127.774 41.9204 128.225 42.4025C128.681 42.8847 129.263 43.1257 129.97 43.1257C130.42 43.1257 130.818 43.0298 131.163 42.8381C131.497 42.6518 131.89 42.2902 132.341 41.7533V44.1941C131.578 44.5831 130.816 44.7776 130.053 44.7776C128.795 44.7776 127.743 44.3777 126.897 43.5777C126.051 42.7723 125.628 41.7724 125.628 40.578C125.628 39.3836 126.057 38.3755 126.914 37.5537C127.771 36.7319 128.823 36.321 130.07 36.321C130.871 36.321 131.628 36.51 132.341 36.888ZM136.185 36.5428V44.5475H134.306V36.5428H136.185ZM134.022 33.2144C134.022 32.8912 134.142 32.6118 134.381 32.3762C134.621 32.1406 134.907 32.0228 135.241 32.0228C135.581 32.0228 135.87 32.1406 136.11 32.3762C136.349 32.6063 136.469 32.8884 136.469 33.2226C136.469 33.5569 136.349 33.8418 136.11 34.0774C135.876 34.3129 135.589 34.4307 135.25 34.4307C134.91 34.4307 134.621 34.3129 134.381 34.0774C134.142 33.8418 134.022 33.5541 134.022 33.2144ZM138.326 40.4876C138.326 39.3316 138.746 38.3481 139.586 37.5373C140.427 36.7264 141.451 36.321 142.659 36.321C143.872 36.321 144.902 36.7291 145.748 37.5455C146.583 38.3618 147 39.3645 147 40.5534C147 41.7533 146.58 42.7586 145.739 43.5695C144.893 44.3749 143.855 44.7776 142.625 44.7776C141.406 44.7776 140.385 44.3667 139.561 43.5449C138.738 42.734 138.326 41.7149 138.326 40.4876ZM140.246 40.5205C140.246 41.3204 140.463 41.9532 140.897 42.4189C141.342 42.8901 141.93 43.1257 142.659 43.1257C143.393 43.1257 143.981 42.8929 144.42 42.4272C144.86 41.9615 145.08 41.3396 145.08 40.5616C145.08 39.7836 144.86 39.1618 144.42 38.696C143.975 38.2249 143.388 37.9893 142.659 37.9893C141.941 37.9893 141.359 38.2249 140.914 38.696C140.469 39.1672 140.246 39.7754 140.246 40.5205Z" fill="#575C6B"/>
<defs>
<linearGradient id="paint0_linear" x1="0" y1="0" x2="0" y2="46" gradientUnits="userSpaceOnUse">
<stop stop-color="#FAD961"/>
<stop offset="1" stop-color="#F76B1C"/>
</linearGradient>
</defs>
</svg>
