<?xml version="1.0" standalone="no"?>
<!DOCTYPE svg PUBLIC "-//W3C//DTD SVG 20010904//EN"
 "http://www.w3.org/TR/2001/REC-SVG-20010904/DTD/svg10.dtd">
<svg version="1.0" xmlns="http://www.w3.org/2000/svg"
 width="512.000000pt" height="512.000000pt" viewBox="0 0 512.000000 512.000000"
 preserveAspectRatio="xMidYMid meet">
<metadata>
Created by potrace 1.11, written by Peter Selinger 2001-2013
</metadata>
<g transform="translate(0.000000,512.000000) scale(0.100000,-0.100000)"
fill="#000000" stroke="none">
<path d="M2369 5116 c-2 -2 -33 -6 -69 -10 -58 -5 -191 -25 -274 -41 -16 -4
-64 -15 -105 -26 -262 -70 -416 -135 -696 -293 -11 -6 -54 -35 -97 -63 -437
-298 -781 -732 -963 -1219 -36 -95 -98 -303 -109 -361 -2 -15 -9 -53 -15 -83
-30 -161 -36 -242 -35 -470 0 -183 4 -253 19 -355 16 -103 21 -129 42 -214 8
-36 16 -72 18 -80 2 -9 18 -61 35 -116 200 -622 631 -1149 1198 -1464 251
-139 564 -248 827 -287 22 -3 51 -8 65 -10 121 -20 466 -26 610 -11 299 30
585 112 859 245 63 31 122 55 130 55 14 -2 190 -44 561 -134 132 -33 146 -36
183 -44 12 -2 137 -32 277 -66 322 -77 291 -72 285 -46 -3 12 -21 85 -40 163
-30 125 -50 210 -60 254 -4 19 -25 107 -126 520 -45 184 -81 344 -81 354 1 11
25 69 55 130 45 91 137 323 153 386 36 141 47 187 59 250 8 41 17 98 21 125 3
28 8 61 10 75 9 49 12 456 4 525 -16 133 -20 160 -36 240 -23 118 -58 247 -99
364 -70 202 -165 391 -287 573 -303 455 -755 806 -1275 992 -101 36 -306 92
-373 102 -19 3 -46 7 -60 9 -14 3 -41 7 -60 10 -19 3 -53 7 -75 11 -43 6 -470
15 -476 10z"/>
</g>
</svg>
