<?xml version="1.0" encoding="utf-8"?>
<!-- Generator: Adobe Illustrator 25.0.0, SVG Export Plug-In . SVG Version: 6.00 Build 0)  -->
<svg version="1.1" id="Слой_1" xmlns="http://www.w3.org/2000/svg" xmlns:xlink="http://www.w3.org/1999/xlink" x="0px" y="0px"
	 viewBox="0 0 16 16" style="enable-background:new 0 0 16 16;" xml:space="preserve">
<style type="text/css">
	.st0{fill:url(#SVGID_1_);}
</style>
<linearGradient id="SVGID_1_" gradientUnits="userSpaceOnUse" x1="-3.4103" y1="18.9926" x2="21.2913" y2="0.522">
	<stop  offset="0" style="stop-color:#5199FF"/>
	<stop  offset="1" style="stop-color:#0351C1"/>
</linearGradient>
<path class="st0" d="M0,8.7c0.6-0.5,1.4-1,2.4-1.4c0.8-0.4,1.6-0.6,2.3-0.8c0.3-1,0.9-2.5,2-3.9C7.5,1.4,8.3,0.6,9,0
	c0.4,1.5,0.9,3,1.3,4.5C9.5,5.1,8.5,5.9,7.5,6.9c-1.1,1.1-2,2.2-2.6,3.2c1.2-1.2,3.2-2.8,5.8-3.9c2-0.9,3.9-1.3,5.3-1.5
	c-0.7,0.8-1.3,1.7-2,2.8c-0.6,0.9-1.1,1.8-1.5,2.7c0.4,2,0.8,3.9,1.2,5.9l-5.8-3.7C8.1,11.6,8.6,11,9,10.3c0.5-0.7,1-1.3,1.5-1.9
	c-0.9,0.6-2,1.3-3,2.2c-2.1,1.8-3.7,3.6-4.8,5.2c-0.1-0.9-0.1-2.2,0.1-3.6c0.2-1,0.4-1.8,0.6-2.4C2.4,9.4,1.2,9.1,0,8.7z"/>
</svg>
