<?xml version="1.0" encoding="utf-8"?>
<!-- Generator: Adobe Illustrator 25.0.0, SVG Export Plug-In . SVG Version: 6.00 Build 0)  -->
<svg version="1.1" id="Слой_1" xmlns="http://www.w3.org/2000/svg" xmlns:xlink="http://www.w3.org/1999/xlink" x="0px" y="0px"
	 viewBox="0 0 32 32" style="enable-background:new 0 0 32 32;" xml:space="preserve">
<style type="text/css">
	.st0{fill:url(#SVGID_1_);}
</style>
<linearGradient id="SVGID_1_" gradientUnits="userSpaceOnUse" x1="-6.9172" y1="38.0783" x2="42.6951" y2="0.9808">
	<stop  offset="0" style="stop-color:#5199FF"/>
	<stop  offset="1" style="stop-color:#0351C1"/>
</linearGradient>
<path class="st0" d="M0,17.4c1.3-0.9,2.9-1.9,4.8-2.8c1.7-0.8,3.2-1.2,4.6-1.6c0.7-2.1,1.9-4.9,3.9-7.9c1.6-2.3,3.3-4,4.7-5.1
	c0.9,3,1.8,6,2.7,9.1c-1.7,1.2-3.7,2.7-5.8,4.8c-2.2,2.2-4,4.5-5.3,6.4c2.5-2.4,6.4-5.6,11.6-7.9c4.1-1.8,7.8-2.6,10.6-3
	c-1.3,1.6-2.7,3.4-4.1,5.6c-1.2,1.9-2.2,3.7-3.1,5.3c0.8,3.9,1.6,7.8,2.3,11.8l-11.6-7.5c0.7-1.2,1.5-2.5,2.5-3.9c1-1.4,2-2.7,3-3.7
	c-1.9,1.1-4,2.6-6.1,4.3c-4.2,3.5-7.4,7.3-9.6,10.5c-0.2-1.9-0.2-4.4,0.3-7.2c0.3-1.9,0.8-3.6,1.3-4.9C4.7,18.9,2.3,18.1,0,17.4z"/>
</svg>
