<?xml version="1.0" encoding="utf-8"?>
<!-- Generator: Adobe Illustrator 25.0.0, SVG Export Plug-In . SVG Version: 6.00 Build 0)  -->
<svg version="1.1" id="Слой_1" xmlns="http://www.w3.org/2000/svg" xmlns:xlink="http://www.w3.org/1999/xlink" x="0px" y="0px"
	 viewBox="0 0 48 48" style="enable-background:new 0 0 48 48;" xml:space="preserve">
<style type="text/css">
	.st0{fill:url(#SVGID_1_);}
</style>
<linearGradient id="SVGID_1_" gradientUnits="userSpaceOnUse" x1="-10.3758" y1="57.1175" x2="64.0427" y2="1.4712">
	<stop  offset="0" style="stop-color:#5199FF"/>
	<stop  offset="1" style="stop-color:#0351C1"/>
</linearGradient>
<path class="st0" d="M0,26.1c1.9-1.4,4.4-2.9,7.3-4.2c2.5-1.1,4.8-1.9,6.8-2.3c1-3.1,2.8-7.4,5.9-11.8c2.5-3.5,5-6,7.1-7.7
	c1.4,4.5,2.7,9.1,4.1,13.6c-2.6,1.8-5.6,4.1-8.7,7.2c-3.4,3.3-5.9,6.7-7.9,9.6c3.7-3.6,9.5-8.4,17.5-11.9c6.1-2.7,11.7-3.9,15.9-4.5
	c-2,2.4-4.1,5.2-6.1,8.4c-1.8,2.8-3.3,5.5-4.6,8c1.2,5.9,2.3,11.8,3.5,17.6L23.4,36.7c1.1-1.8,2.3-3.8,3.8-5.8
	c1.5-2.1,3.1-4,4.5-5.6c-2.8,1.7-5.9,3.8-9.1,6.5c-6.4,5.3-11,11-14.4,15.8C8,44.8,7.9,41.1,8.6,36.7c0.5-2.9,1.2-5.4,1.9-7.4
	C7,28.3,3.5,27.2,0,26.1z"/>
</svg>
