<svg width="303" height="488" viewBox="0 0 303 488" fill="none" xmlns="http://www.w3.org/2000/svg">
<path opacity="0.05" d="M1.36902 344.464H39.9623C40.6454 344.464 41.2146 345.033 41.2146 345.716V370.427C41.2146 371.11 40.6454 371.679 39.9623 371.679L92.7862 371.679C93.4692 371.679 94.0384 372.249 94.0384 372.932V397.642C94.0384 398.326 93.4692 398.895 92.7862 398.895L10.8181 398.895C10.1351 398.895 9.56583 398.326 9.56583 397.642V372.932C9.56583 372.249 10.1351 371.679 10.8181 371.679H1.36902C0.685944 371.679 0.11676 371.11 0.11676 370.427V345.716C0.173676 345.033 0.685944 344.464 1.36902 344.464ZM1.36902 199.618H75.2541C75.9372 199.618 76.5064 200.188 76.5064 200.871V224.898C76.5064 225.581 75.9372 226.151 75.2541 226.151H114.872C115.555 226.151 116.124 226.72 116.124 227.403V251.43C116.124 252.113 115.555 252.683 114.872 252.683H33.0178C32.3347 252.683 31.7655 252.113 31.7655 251.43L31.7655 227.403C31.7655 226.72 32.3347 226.151 33.0178 226.151H1.36902C0.685944 226.151 0.11676 225.581 0.11676 224.898V200.871C0.173676 200.188 0.685944 199.618 1.36902 199.618ZM1.36902 281.606H18.3888C19.0718 281.606 19.6411 282.176 19.6411 282.859V306.203C19.6411 306.886 19.0718 307.455 18.3888 307.455H60.5112C59.8282 307.455 59.2589 306.886 59.2589 306.203V282.859C59.2589 282.176 59.8282 281.606 60.5112 281.606L134.51 281.606C135.193 281.606 135.762 282.176 135.762 282.859V306.203C135.762 306.886 135.193 307.455 134.51 307.455H88.1185C88.8016 307.455 89.3708 308.025 89.3708 308.708V332.052C89.3708 332.735 88.8016 333.304 88.1185 333.304L15.1442 333.304C14.4611 333.304 13.8919 332.735 13.8919 332.052V308.708C13.8919 308.025 14.4611 307.455 15.1442 307.455H1.42596C0.742889 307.455 0.173645 306.886 0.173645 306.203V282.859C0.173645 282.176 0.685944 281.606 1.36902 281.606ZM1.71057 163.293H30.684V139.835C30.684 138.867 31.4809 138.127 32.3917 138.127H91.5339C92.5015 138.127 93.2415 138.924 93.2415 139.835V163.464C93.2415 164.432 92.4446 165.172 91.5339 165.172H32.2209V188.63C32.2209 189.597 31.424 190.338 30.5132 190.338H1.71057C0.742889 190.338 0.00289917 189.541 0.00289917 188.63V165.001C-0.0540161 164.09 0.742889 163.293 1.71057 163.293ZM134.169 431.121V416.26C134.169 415.236 134.966 414.438 135.99 414.438H188.472C187.448 414.438 186.651 413.641 186.651 412.617V397.756C186.651 396.731 187.448 395.934 188.472 395.934H217.047C218.072 395.934 218.869 396.731 218.869 397.756V412.617C218.869 413.641 218.072 414.438 217.047 414.438H209.078C210.103 414.438 210.9 415.236 210.9 416.26V431.121C210.9 432.146 210.103 432.943 209.078 432.943H135.99C134.966 432.943 134.169 432.146 134.169 431.121ZM145.212 350.271L145.212 335.525C145.212 335.012 145.61 334.614 146.122 334.614H173.103C173.616 334.614 174.014 335.012 174.014 335.525L174.014 350.271C174.014 350.784 173.616 351.182 173.103 351.182H220.064C220.577 351.182 220.975 351.581 220.975 352.093V366.84C220.975 367.352 220.577 367.751 220.064 367.751H153.238C152.725 367.751 152.327 367.352 152.327 366.84V352.093C152.327 351.581 152.725 351.182 153.238 351.182H146.122C145.61 351.182 145.212 350.784 145.212 350.271ZM214.258 196.373H196.555C197.068 196.373 197.466 196.771 197.466 197.284V210.322C197.466 210.835 197.068 211.233 196.555 211.233L136.673 211.233C136.161 211.233 135.762 210.835 135.762 210.322V197.284C135.762 196.771 136.161 196.373 136.673 196.373H175.38C174.868 196.373 174.47 195.974 174.47 195.462V182.424C174.47 181.911 174.868 181.513 175.38 181.513L214.258 181.513C214.771 181.513 215.169 181.911 215.169 182.424V195.462C215.169 195.974 214.771 196.373 214.258 196.373ZM142.422 314.117V300.566C142.422 299.712 143.105 299.086 143.902 299.086H209.135C209.989 299.086 210.615 299.769 210.615 300.566V314.117C210.615 314.971 209.932 315.597 209.135 315.597H143.902C143.048 315.597 142.422 314.971 142.422 314.117ZM101.609 358.869C100.471 358.869 99.503 357.958 99.503 356.762L99.503 336.948C99.503 335.81 100.414 334.842 101.609 334.842H121.418C122.556 334.842 123.524 335.753 123.524 336.948L123.524 356.762C123.524 357.901 122.613 358.869 121.418 358.869H101.609ZM114.417 199.618H94.0954C93.1277 199.618 92.3877 198.821 92.3877 197.91V177.584C92.3877 176.616 93.1846 175.876 94.0954 175.876H114.417C115.384 175.876 116.124 176.673 116.124 177.584V197.91C116.124 198.878 115.384 199.618 114.417 199.618ZM303 332.393H288.542V346.855H303V332.393ZM270.099 346.855H288.542V361.317H269.188V346.855H255.641V332.393H270.099V346.855ZM200.142 257.864V245.85C200.142 245.338 200.54 244.939 201.052 244.939H213.063C213.575 244.939 213.974 245.338 213.974 245.85V257.864C213.974 258.376 213.575 258.775 213.063 258.775H201.052C200.54 258.775 200.142 258.319 200.142 257.864ZM266.797 212.087H256.551C256.039 212.087 255.641 211.689 255.641 211.176V200.928C255.641 200.415 256.039 200.017 256.551 200.017H266.797C267.31 200.017 267.708 200.415 267.708 200.928V211.176C267.708 211.689 267.31 212.087 266.797 212.087ZM222.057 326.187V316.85C222.057 316.451 222.398 316.11 222.797 316.11H232.132C232.53 316.11 232.872 316.451 232.872 316.85V326.187C232.872 326.586 232.53 326.928 232.132 326.928H222.797C222.398 326.871 222.057 326.586 222.057 326.187ZM198.092 130.839H207.428C207.826 130.839 208.168 131.181 208.168 131.58V140.917C208.168 141.316 207.826 141.657 207.428 141.657H198.092C197.694 141.657 197.352 141.316 197.352 140.917V131.58C197.352 131.181 197.637 130.839 198.092 130.839ZM266.342 10.8179H257.007C256.608 10.8179 256.267 10.4763 256.267 10.0777V0.74017C256.267 0.341617 256.608 0 257.007 0L266.342 0C266.741 0 267.082 0.341617 267.082 0.74017V10.0777C267.082 10.4763 266.741 10.8179 266.342 10.8179ZM197.808 477.182H230.481C230.88 477.182 231.221 477.524 231.221 477.922V487.26C231.221 487.658 230.88 488 230.481 488H197.808C197.409 488 197.068 487.658 197.068 487.26V477.922C197.068 477.524 197.409 477.182 197.808 477.182ZM25.9025 261.451H18.5595C18.1611 261.451 17.8765 261.109 17.8765 260.768V253.423C17.8765 253.024 18.218 252.74 18.5595 252.74H25.9025C26.301 252.74 26.5856 253.081 26.5856 253.423V260.768C26.6425 261.166 26.301 261.451 25.9025 261.451Z" fill="url(#paint0_linear)"/>
<defs>
<linearGradient id="paint0_linear" x1="151.5" y1="0" x2="151.5" y2="1029.68" gradientUnits="userSpaceOnUse">
<stop stop-color="#5199FF"/>
<stop offset="1" stop-color="#0351C1"/>
</linearGradient>
</defs>
</svg>
