<svg width="269" height="488" viewBox="0 0 269 488" fill="none" xmlns="http://www.w3.org/2000/svg">
<path opacity="0.05" d="M216.56 256.667C215.951 256.667 215.508 257.166 215.508 257.72V270.471C215.508 271.08 216.006 271.524 216.56 271.524H242.419C243.028 271.524 243.471 271.025 243.471 270.471V257.72C243.471 257.111 242.972 256.667 242.419 256.667H216.56ZM137.987 235.712C138.485 235.712 138.873 235.324 138.873 234.825V220.19C138.873 219.691 138.485 219.303 137.987 219.303H123.369C122.87 219.303 122.483 219.691 122.483 220.19V234.825C122.483 235.324 122.87 235.712 123.369 235.712H137.987ZM157.201 113.421H236.826C237.491 113.421 238.044 112.867 238.044 112.202V88.8079C238.044 88.1427 237.491 87.5883 236.826 87.5883H267.613C268.277 87.5883 268.831 87.034 268.831 86.3687V62.9749C268.831 62.3097 268.277 61.7553 267.613 61.7553H195.795C195.131 61.7553 194.577 62.3097 194.577 62.9749V86.3687C194.577 87.034 195.131 87.5883 195.795 87.5883H157.257C156.592 87.5883 156.038 88.1427 156.038 88.8079V112.202C156.038 112.867 156.537 113.421 157.201 113.421ZM179.239 26.3874H236.771C237.712 26.3874 238.432 25.6113 238.432 24.7243V1.66307C238.432 0.720663 237.657 0 236.771 0H179.239C178.298 0 177.578 0.776099 177.578 1.66307V24.6689C177.578 25.6113 178.298 26.3874 179.239 26.3874ZM267.336 26.3874H239.318C238.377 26.3874 237.657 27.1635 237.657 28.0504V51.0562C237.657 51.9986 238.432 52.7193 239.318 52.7193H267.336C268.277 52.7193 268.997 51.9432 268.997 51.0562V28.0504C269.053 27.108 268.277 26.3874 267.336 26.3874ZM60.577 58.5955H77.7977C77.2993 58.5955 76.9117 58.9835 76.9117 59.4824V72.1772C76.9117 72.6761 77.2993 73.0642 77.7977 73.0642H136.049C136.547 73.0642 136.935 72.6761 136.935 72.1772V59.4824C136.935 58.9835 136.547 58.5955 136.049 58.5955H98.3961C98.8944 58.5955 99.282 58.2074 99.282 57.7085V44.9583C99.282 44.4594 98.8944 44.0713 98.3961 44.0713H60.577C60.0786 44.0713 59.691 44.4594 59.691 44.9583V57.6531C59.691 58.152 60.0786 58.5955 60.577 58.5955ZM157.699 61.7553H177.467C178.409 61.7553 179.128 60.9792 179.128 60.0922V40.2463C179.128 39.3039 178.353 38.5832 177.467 38.5832H157.699C156.758 38.5832 156.038 39.3593 156.038 40.2463V60.0368C156.038 60.9792 156.758 61.7553 157.699 61.7553ZM122.428 84.872V99.507C122.428 100.006 122.815 100.394 123.313 100.394H137.932C138.43 100.394 138.818 100.006 138.818 99.507V84.872C138.818 84.3731 138.43 83.985 137.932 83.985H123.313C122.815 83.985 122.428 84.3731 122.428 84.872ZM97.6762 251.9V266.535C97.6762 267.532 98.5068 268.364 99.5035 268.364H146.902C147.899 268.364 148.729 267.532 148.729 266.535V251.9C148.729 250.902 147.899 250.07 146.902 250.07H99.5035C98.5068 250.07 97.6762 250.902 97.6762 251.9ZM267.558 437.664H251.001C250.337 437.664 249.783 438.219 249.783 438.884V461.613C249.783 462.278 250.337 462.832 251.001 462.832H210.081C210.746 462.832 211.3 462.278 211.3 461.613V438.884C211.3 438.219 210.746 437.664 210.081 437.664H138.098C137.433 437.664 136.88 438.219 136.88 438.884V461.613C136.88 462.278 137.433 462.832 138.098 462.832H183.226C182.562 462.832 182.008 463.387 182.008 464.052V486.78C182.008 487.446 182.562 488 183.226 488H254.213C254.877 488 255.431 487.446 255.431 486.78V464.052C255.431 463.387 254.877 462.832 254.213 462.832H267.558C268.222 462.832 268.776 462.278 268.776 461.613V438.884C268.776 438.219 268.222 437.664 267.558 437.664ZM50.8315 294.363H63.2348C64.0654 294.363 64.6745 293.698 64.6745 292.922V280.504C64.6745 279.673 64.01 279.063 63.2348 279.063H50.8315C50.0009 279.063 49.3918 279.728 49.3918 280.504V292.922C49.3365 293.754 50.0009 294.363 50.8315 294.363ZM24.0868 279.895H2.49174C1.10744 279.895 0 281.003 0 282.389V287.877C0 289.263 1.10744 290.372 2.49174 290.372H24.0868C25.4711 290.372 26.5786 289.263 26.5786 287.877V282.389C26.5786 281.003 25.4711 279.895 24.0868 279.895Z" fill="url(#paint0_linear)"/>
<defs>
<linearGradient id="paint0_linear" x1="134.5" y1="0" x2="134.5" y2="1029.68" gradientUnits="userSpaceOnUse">
<stop stop-color="#5199FF"/>
<stop offset="1" stop-color="#0351C1"/>
</linearGradient>
</defs>
</svg>
