<svg width="91" height="79" viewBox="0 0 91 79" fill="none" xmlns="http://www.w3.org/2000/svg">
<path d="M23.3408 0H18.7158V0.61867H23.3408V0Z" fill="url(#paint0_linear)"/>
<path d="M1.609 7.01572H0.998047C0.999635 5.16088 1.72589 3.38201 3.01825 2.06755C4.3106 0.753085 6.06406 0.00980463 7.89575 0H16.2048V0.61867H7.89575C6.2261 0.628471 4.62804 1.30657 3.45026 2.50501C2.27248 3.70345 1.61059 5.32496 1.609 7.01572Z" fill="url(#paint1_linear)"/>
<path d="M80.0315 2.16553H7.89585C5.25384 2.16553 3.11206 4.33434 3.11206 7.00971V19.0367C3.11206 21.712 5.25384 23.8808 7.89585 23.8808H80.0315C82.6736 23.8808 84.8154 21.712 84.8154 19.0367V7.00971C84.8154 4.33434 82.6736 2.16553 80.0315 2.16553Z" fill="url(#paint2_linear)"/>
<path d="M34.2033 9.75L35.2542 11.903L37.6064 12.2494L35.9018 13.926L36.305 16.3017L34.2033 15.1819L32.1016 16.3017L32.5049 13.926L30.8003 12.2494L33.1525 11.903L34.2033 9.75Z" fill="white"/>
<path d="M43.747 9.75L44.7979 11.903L47.1501 12.2494L45.4455 13.926L45.8487 16.3017L43.747 15.1819L41.6453 16.3017L42.0486 13.926L40.344 12.2494L42.6962 11.903L43.747 9.75Z" fill="white"/>
<path d="M53.2897 9.75L54.3406 11.903L56.6928 12.2494L54.9943 13.926L55.3914 16.3017L53.2897 15.1819L51.1881 16.3017L51.5913 13.926L49.8867 12.2494L52.2389 11.903L53.2897 9.75Z" fill="white"/>
<path d="M62.8325 9.75L63.8833 11.903L66.2355 12.2494L64.537 13.926L64.9342 16.3017L62.8325 15.1819L60.7308 16.3017L61.134 13.926L59.4294 12.2494L61.7816 11.903L62.8325 9.75Z" fill="white"/>
<path opacity="0.3" d="M72.3755 11.1484L72.8764 12.1815C72.9212 12.2712 72.9869 12.3485 73.0678 12.4067C73.1487 12.4649 73.2424 12.5023 73.3408 12.5156L74.4649 12.6827L73.6523 13.4869C73.5816 13.5565 73.5286 13.6423 73.4977 13.7371C73.4669 13.8319 73.4591 13.9329 73.4752 14.0314L73.6646 15.1697L72.6626 14.6624C72.5729 14.6189 72.4749 14.5956 72.3755 14.5943C72.2777 14.5939 72.1814 14.6173 72.0944 14.6624L71.0863 15.2006L71.2574 14.0437C71.2734 13.9452 71.2657 13.8443 71.2348 13.7495C71.204 13.6547 71.1509 13.5688 71.0802 13.4993L70.2677 12.695L71.3918 12.528C71.493 12.516 71.5895 12.4786 71.6728 12.4191C71.756 12.3597 71.8232 12.2802 71.8684 12.1877L72.3693 11.1545L72.3755 11.1484ZM72.3693 9.75635L71.3185 11.9093L68.9663 12.2558L70.6709 13.9386L70.2677 16.3081L72.3693 15.1883L74.471 16.3081L74.0678 13.9386L75.7724 12.2558L73.4202 11.9093L72.3693 9.75635Z" fill="white"/>
<path opacity="0.2" d="M18.0129 20.4532C22.0653 20.4532 25.3505 17.1266 25.3505 13.023C25.3505 8.9194 22.0653 5.59277 18.0129 5.59277C13.9604 5.59277 10.6753 8.9194 10.6753 13.023C10.6753 17.1266 13.9604 20.4532 18.0129 20.4532Z" fill="white"/>
<path d="M24.0731 13.0229C24.0746 14.3882 23.6262 15.7149 22.7988 16.7927C21.9714 17.8706 20.8124 18.638 19.5055 18.9733C18.1986 19.3086 16.8185 19.1926 15.5841 18.6437C14.3497 18.0948 13.3315 17.1443 12.6909 15.9431C12.2068 15.0481 11.9546 14.0434 11.9578 13.0229C12.0078 11.4298 12.6679 9.91883 13.7984 8.80977C14.929 7.70071 16.4414 7.08057 18.0154 7.08057C19.5895 7.08057 21.1018 7.70071 22.2324 8.80977C23.363 9.91883 24.0231 11.4298 24.0731 13.0229Z" fill="white"/>
<path d="M23.3404 15.943C22.8224 16.9162 22.054 17.7293 21.1166 18.2961C20.1791 18.8629 19.1077 19.1621 18.0159 19.1621C16.9241 19.1621 15.8527 18.8629 14.9152 18.2961C13.9778 17.7293 13.2094 16.9162 12.6914 15.943C14.2679 14.8776 16.1206 14.3091 18.0159 14.3091C19.9112 14.3091 21.7639 14.8776 23.3404 15.943Z" fill="#263238"/>
<path d="M20.7136 10.9503C20.7136 11.4912 20.5552 12.0199 20.2585 12.4696C19.9618 12.9192 19.54 13.2697 19.0466 13.4767C18.5531 13.6837 18.0102 13.7378 17.4863 13.6323C16.9625 13.5268 16.4813 13.2664 16.1037 12.8839C15.726 12.5015 15.4688 12.0143 15.3646 11.4838C15.2604 10.9534 15.3139 10.4036 15.5183 9.90389C15.7227 9.40422 16.0688 8.97714 16.5129 8.67667C16.957 8.3762 17.4791 8.21582 18.0132 8.21582C18.7294 8.21582 19.4162 8.50392 19.9227 9.01674C20.4291 9.52956 20.7136 10.2251 20.7136 10.9503Z" fill="#FFC3BD"/>
<path d="M75.058 77.6304H62.8328V78.249H75.058V77.6304Z" fill="url(#paint3_linear)"/>
<path d="M80.0315 54.3687H7.89585C5.25384 54.3687 3.11206 56.5375 3.11206 59.2128V71.2398C3.11206 73.9152 5.25384 76.084 7.89585 76.084H80.0315C82.6736 76.084 84.8154 73.9152 84.8154 71.2398V59.2128C84.8154 56.5375 82.6736 54.3687 80.0315 54.3687Z" fill="url(#paint4_linear)"/>
<path d="M34.2033 61.9473L35.2542 64.1064L37.6064 64.4467L35.9018 66.1295L36.305 68.499L34.2033 67.3792L32.1016 68.499L32.5049 66.1295L30.8003 64.4467L33.1525 64.1064L34.2033 61.9473Z" fill="white"/>
<path d="M43.747 61.9473L44.7979 64.1064L47.1501 64.4467L45.4455 66.1295L45.8487 68.499L43.747 67.3792L41.6453 68.499L42.0486 66.1295L40.344 64.4467L42.6962 64.1064L43.747 61.9473Z" fill="white"/>
<path d="M53.2897 61.9473L54.3406 64.1064L56.6928 64.4467L54.9943 66.1295L55.3914 68.499L53.2897 67.3792L51.1881 68.499L51.5913 66.1295L49.8867 64.4467L52.2389 64.1064L53.2897 61.9473Z" fill="white"/>
<path d="M62.8325 61.9473L63.8833 64.1064L66.2355 64.4467L64.537 66.1295L64.9342 68.499L62.8325 67.3792L60.7308 68.499L61.134 66.1295L59.4294 64.4467L61.7816 64.1064L62.8325 61.9473Z" fill="white"/>
<path d="M72.3762 61.9473L73.427 64.1064L75.7792 64.4467L74.0807 66.1295L74.4779 68.499L72.3762 67.3792L70.2745 68.499L70.6777 66.1295L68.9731 64.4467L71.3253 64.1064L72.3762 61.9473Z" fill="white"/>
<path opacity="0.2" d="M23.2062 70.4791C26.0717 67.5774 26.0717 62.8728 23.2062 59.9711C20.3407 57.0694 15.6948 57.0694 12.8293 59.9711C9.96382 62.8728 9.96381 67.5774 12.8293 70.4791C15.6948 73.3808 20.3407 73.3808 23.2062 70.4791Z" fill="white"/>
<path d="M24.0731 65.2202C24.076 66.586 23.6285 67.9136 22.8016 68.9925C21.9747 70.0715 20.8157 70.84 19.5084 71.176C18.2012 71.5121 16.8205 71.3966 15.5855 70.8478C14.3505 70.299 13.3317 69.3483 12.6909 68.1465C12.2068 67.2493 11.9546 66.2426 11.9578 65.2202C12.0078 63.6271 12.6679 62.1161 13.7984 61.007C14.929 59.898 16.4414 59.2778 18.0154 59.2778C19.5895 59.2778 21.1018 59.898 22.2324 61.007C23.363 62.1161 24.0231 63.6271 24.0731 65.2202Z" fill="white"/>
<path opacity="0.5" d="M23.3404 68.1466C22.821 69.1181 22.0521 69.9295 21.1148 70.4949C20.1776 71.0604 19.1069 71.3589 18.0159 71.3589C16.9249 71.3589 15.8542 71.0604 14.917 70.4949C13.9797 69.9295 13.2108 69.1181 12.6914 68.1466C14.2679 67.0812 16.1206 66.5127 18.0159 66.5127C19.9112 66.5127 21.7639 67.0812 23.3404 68.1466Z" fill="url(#paint5_linear)"/>
<path d="M20.7136 63.1229C20.7148 63.664 20.5575 64.1933 20.2615 64.6438C19.9655 65.0943 19.5441 65.4457 19.0508 65.6536C18.5575 65.8616 18.0143 65.9166 17.4901 65.8118C16.9659 65.707 16.4841 65.447 16.1058 65.0648C15.7276 64.6827 15.4698 64.1954 15.3651 63.6648C15.2604 63.1342 15.3135 62.5841 15.5177 62.084C15.7219 61.584 16.068 61.1566 16.5123 60.8558C16.9565 60.5551 17.4788 60.3945 18.0132 60.3945C18.7283 60.3945 19.4142 60.6818 19.9205 61.1933C20.4268 61.7047 20.712 62.3987 20.7136 63.1229Z" fill="#FFB573"/>
<path d="M80.0315 28.2671H7.89585C5.25384 28.2671 3.11206 30.4359 3.11206 33.1113V45.1382C3.11206 47.8136 5.25384 49.9824 7.89585 49.9824H80.0315C82.6736 49.9824 84.8154 47.8136 84.8154 45.1382V33.1113C84.8154 30.4359 82.6736 28.2671 80.0315 28.2671Z" fill="url(#paint6_linear)"/>
<path d="M82.5979 40.9805L77.4658 49.9821H90.2959L82.5979 40.9805Z" fill="url(#paint7_linear)"/>
<path d="M34.2033 35.8462L35.2542 38.0053L37.6064 38.3518L35.9018 40.0284L36.305 42.3979L34.2033 41.2781L32.1016 42.3979L32.5049 40.0284L30.8003 38.3518L33.1525 38.0053L34.2033 35.8462Z" fill="white"/>
<path d="M43.747 35.8462L44.7979 38.0053L47.1501 38.3518L45.4455 40.0284L45.8487 42.3979L43.747 41.2781L41.6453 42.3979L42.0486 40.0284L40.344 38.3518L42.6962 38.0053L43.747 35.8462Z" fill="white"/>
<path opacity="0.3" d="M53.29 37.2441L53.791 38.2772C53.835 38.3681 53.9003 38.4466 53.9813 38.5059C54.0623 38.5653 54.1563 38.6036 54.2553 38.6175L55.3734 38.7907L54.5608 39.595C54.4901 39.6645 54.437 39.7504 54.4062 39.8452C54.3753 39.94 54.3676 40.0409 54.3836 40.1394L54.573 41.2778L53.571 40.7395C53.4828 40.6913 53.3842 40.6658 53.2839 40.6653C53.1854 40.665 53.0886 40.6906 53.0029 40.7395L51.9948 41.2778L52.1842 40.1394C52.2002 40.0409 52.1925 39.94 52.1616 39.8452C52.1308 39.7504 52.0777 39.6645 52.007 39.595L51.1944 38.7907L52.3186 38.6237C52.4176 38.6097 52.5116 38.5714 52.5926 38.5121C52.6735 38.4528 52.7389 38.3743 52.7829 38.2834L53.2839 37.2502L53.29 37.2441ZM53.2839 35.8521L52.233 38.0112L49.8809 38.3577L51.5854 40.0343L51.1822 42.4038L53.2839 41.284L55.3856 42.4038L54.9824 40.0343L56.6869 38.3577L54.3347 38.0112L53.2839 35.8521Z" fill="white"/>
<path opacity="0.3" d="M62.8325 37.2444L63.3335 38.2776C63.3775 38.3684 63.4428 38.4469 63.5238 38.5063C63.6047 38.5656 63.6988 38.6039 63.7978 38.6178L64.922 38.7849L64.1094 39.5891C64.0387 39.6587 63.9856 39.7445 63.9548 39.8393C63.9239 39.9341 63.9162 40.0351 63.9322 40.1336L64.1216 41.2719L63.1196 40.7337C63.0314 40.6854 62.9328 40.66 62.8325 40.6594C62.734 40.6591 62.6372 40.6847 62.5514 40.7337L61.5434 41.2719L61.7328 40.1336C61.7488 40.0351 61.741 39.9341 61.7102 39.8393C61.6793 39.7445 61.6263 39.6587 61.5556 39.5891L60.743 38.7849L61.8672 38.6178C61.9661 38.6039 62.0602 38.5656 62.1412 38.5063C62.2221 38.4469 62.2875 38.3684 62.3315 38.2776L62.8325 37.2444ZM62.8325 35.8462L61.7816 38.0053L59.4294 38.3518L61.134 40.0284L60.7308 42.3979L62.8325 41.2781L64.9342 42.3979L64.537 40.0284L66.2416 38.3518L63.8894 38.0053L62.8386 35.8462H62.8325Z" fill="white"/>
<path opacity="0.3" d="M72.3762 37.2444L72.8772 38.2776C72.9212 38.3684 72.9865 38.4469 73.0675 38.5063C73.1484 38.5656 73.2425 38.6039 73.3415 38.6178L74.4657 38.7849L73.6531 39.5891C73.5824 39.6587 73.5293 39.7445 73.4985 39.8393C73.4676 39.9341 73.4599 40.0351 73.4759 40.1336L73.6653 41.2719L72.6633 40.7337C72.5751 40.6854 72.4765 40.66 72.3762 40.6594C72.2777 40.6591 72.1809 40.6847 72.0951 40.7337L71.0871 41.2719L71.2765 40.1336C71.2925 40.0351 71.2847 39.9341 71.2539 39.8393C71.223 39.7445 71.17 39.6587 71.0993 39.5891L70.2867 38.7849L71.4109 38.6178C71.5098 38.6039 71.6039 38.5656 71.6849 38.5063C71.7658 38.4469 71.8312 38.3684 71.8752 38.2776L72.3762 37.2444ZM72.3762 35.8462L71.3253 38.0053L68.9731 38.3518L70.6777 40.0284L70.2745 42.3979L72.3762 41.2781L74.4779 42.3979L74.0746 40.0284L75.7792 38.3518L73.427 38.0053L72.3762 35.8462Z" fill="white"/>
<path opacity="0.2" d="M18.0129 46.5548C22.0653 46.5548 25.3505 43.2282 25.3505 39.1246C25.3505 35.021 22.0653 31.6943 18.0129 31.6943C13.9604 31.6943 10.6753 35.021 10.6753 39.1246C10.6753 43.2282 13.9604 46.5548 18.0129 46.5548Z" fill="white"/>
<path d="M24.0732 39.125C24.0747 40.4902 23.6263 41.8169 22.7989 42.8948C21.9715 43.9727 20.8125 44.7401 19.5056 45.0754C18.1987 45.4107 16.8186 45.2947 15.5842 44.7458C14.3498 44.1968 13.3316 43.2464 12.691 42.0451C12.2069 41.1501 11.9547 40.1455 11.9579 39.125C11.9321 38.3031 12.0697 37.4843 12.3625 36.7172C12.6554 35.9502 13.0974 35.2506 13.6625 34.6599C14.2275 34.0693 14.904 33.5997 15.6518 33.279C16.3996 32.9582 17.2034 32.793 18.0155 32.793C18.8276 32.793 19.6314 32.9582 20.3792 33.279C21.127 33.5997 21.8035 34.0693 22.3686 34.6599C22.9336 35.2506 23.3757 35.9502 23.6685 36.7172C23.9613 37.4843 24.0989 38.3031 24.0732 39.125Z" fill="white"/>
<path d="M23.3404 42.045C22.821 43.0165 22.0521 43.8279 21.1148 44.3934C20.1776 44.9588 19.1069 45.2573 18.0159 45.2573C16.9249 45.2573 15.8542 44.9588 14.917 44.3934C13.9797 43.8279 13.2108 43.0165 12.6914 42.045C14.2679 40.9797 16.1206 40.4111 18.0159 40.4111C19.9112 40.4111 21.7639 40.9797 23.3404 42.045Z" fill="url(#paint8_linear)"/>
<path d="M20.7136 37.0275C20.7136 37.5683 20.5552 38.097 20.2585 38.5467C19.9618 38.9964 19.54 39.3469 19.0466 39.5539C18.5531 39.7608 18.0102 39.815 17.4863 39.7095C16.9625 39.604 16.4813 39.3435 16.1037 38.9611C15.726 38.5787 15.4688 38.0914 15.3646 37.561C15.2604 37.0305 15.3139 36.4807 15.5183 35.981C15.7227 35.4814 16.0688 35.0543 16.5129 34.7538C16.957 34.4534 17.4791 34.293 18.0132 34.293C18.368 34.2922 18.7195 34.3623 19.0475 34.4995C19.3755 34.6366 19.6735 34.838 19.9245 35.0921C20.1754 35.3462 20.3743 35.6479 20.5097 35.9801C20.6451 36.3122 20.7144 36.6682 20.7136 37.0275Z" fill="#B55B52"/>
<defs>
<linearGradient id="paint0_linear" x1="21.0283" y1="0" x2="21.0283" y2="1.30539" gradientUnits="userSpaceOnUse">
<stop stop-color="#5199FF"/>
<stop offset="1" stop-color="#0351C1"/>
</linearGradient>
<linearGradient id="paint1_linear" x1="8.60141" y1="0" x2="8.60141" y2="14.8032" gradientUnits="userSpaceOnUse">
<stop stop-color="#5199FF"/>
<stop offset="1" stop-color="#0351C1"/>
</linearGradient>
<linearGradient id="paint2_linear" x1="43.9637" y1="2.16553" x2="43.9637" y2="47.9849" gradientUnits="userSpaceOnUse">
<stop stop-color="#5199FF"/>
<stop offset="1" stop-color="#0351C1"/>
</linearGradient>
<linearGradient id="paint3_linear" x1="68.9454" y1="77.6304" x2="68.9454" y2="78.9358" gradientUnits="userSpaceOnUse">
<stop stop-color="#5199FF"/>
<stop offset="1" stop-color="#0351C1"/>
</linearGradient>
<linearGradient id="paint4_linear" x1="43.9637" y1="54.3687" x2="43.9637" y2="100.188" gradientUnits="userSpaceOnUse">
<stop stop-color="#5199FF"/>
<stop offset="1" stop-color="#0351C1"/>
</linearGradient>
<linearGradient id="paint5_linear" x1="18.0159" y1="66.5127" x2="18.0159" y2="76.7382" gradientUnits="userSpaceOnUse">
<stop stop-color="#5199FF"/>
<stop offset="1" stop-color="#0351C1"/>
</linearGradient>
<linearGradient id="paint6_linear" x1="43.9637" y1="28.2671" x2="43.9637" y2="74.0864" gradientUnits="userSpaceOnUse">
<stop stop-color="#5199FF"/>
<stop offset="1" stop-color="#0351C1"/>
</linearGradient>
<linearGradient id="paint7_linear" x1="83.8809" y1="40.9805" x2="83.8809" y2="59.974" gradientUnits="userSpaceOnUse">
<stop stop-color="#5199FF"/>
<stop offset="1" stop-color="#0351C1"/>
</linearGradient>
<linearGradient id="paint8_linear" x1="18.0159" y1="40.4111" x2="18.0159" y2="50.6366" gradientUnits="userSpaceOnUse">
<stop stop-color="#5199FF"/>
<stop offset="1" stop-color="#0351C1"/>
</linearGradient>
</defs>
</svg>
