<svg width="88" height="88" viewBox="0 0 88 88" fill="none" xmlns="http://www.w3.org/2000/svg">
<path d="M81.1203 30.6924H6.88082C5.38754 30.6924 4.177 31.9055 4.177 33.4021V77.5484C4.177 79.0449 5.38754 80.258 6.88082 80.258H81.1203C82.6136 80.258 83.8241 79.0449 83.8241 77.5484V33.4021C83.8241 31.9055 82.6136 30.6924 81.1203 30.6924Z" fill="white"/>
<path d="M81.1212 80.4224H6.87867C6.12153 80.4215 5.39563 80.1198 4.86026 79.5832C4.32488 79.0467 4.02375 78.3192 4.02295 77.5605V33.4141C4.02375 32.6554 4.32488 31.9279 4.86026 31.3914C5.39563 30.8548 6.12153 30.5531 6.87867 30.5522H81.1212C81.8786 30.5531 82.6048 30.8547 83.1407 31.3912C83.6765 31.9276 83.9783 32.6551 83.9799 33.4141V77.5605C83.9783 78.3195 83.6765 79.047 83.1407 79.5834C82.6048 80.1199 81.8786 80.4216 81.1212 80.4224ZM6.87867 30.8445C6.20316 30.8461 5.55577 31.1158 5.07811 31.5945C4.60045 32.0732 4.33139 32.7219 4.32979 33.3989V77.5452C4.33059 78.2225 4.59939 78.8717 5.07723 79.3506C5.55506 79.8294 6.20291 80.0988 6.87867 80.0996H81.1212C81.7972 80.0996 82.4455 79.8305 82.9235 79.3515C83.4015 78.8724 83.6701 78.2227 83.6701 77.5452V33.3989C83.6693 32.7217 83.4005 32.0725 82.9226 31.5936C82.4448 31.1147 81.7969 30.8453 81.1212 30.8445H6.87867Z" fill="url(#paint0_linear)"/>
<path d="M82.8522 80.2577H5.14945C4.84401 80.2574 4.5421 80.3231 4.26425 80.4502C3.98641 80.5774 3.73915 80.763 3.53931 80.9945L0.67144 84.3222C0.404686 84.6312 0.232186 85.0105 0.174484 85.415C0.116782 85.8195 0.17631 86.232 0.345983 86.6036C0.515656 86.9751 0.788321 87.2899 1.13149 87.5105C1.47466 87.7311 1.87388 87.8482 2.28158 87.8478H85.7201C86.1278 87.8482 86.527 87.7311 86.8702 87.5105C87.2133 87.2899 87.486 86.9751 87.6557 86.6036C87.8254 86.232 87.8849 85.8195 87.8272 85.415C87.7695 85.0105 87.597 84.6312 87.3302 84.3222L84.4593 80.9945C84.2598 80.7634 84.013 80.578 83.7358 80.4509C83.4585 80.3237 83.1572 80.2579 82.8522 80.2577Z" fill="white"/>
<path d="M85.7193 88H2.28074C1.84371 87.9999 1.41591 87.8739 1.04822 87.6372C0.680541 87.4004 0.388448 87.0628 0.206684 86.6645C0.0249202 86.2662 -0.0388675 85.8239 0.0229099 85.3904C0.0846873 84.9568 0.269427 84.5501 0.555161 84.2187L3.42303 80.894C3.63725 80.6458 3.9022 80.4467 4.19992 80.3102C4.49765 80.1736 4.82118 80.1027 5.14861 80.1024H82.8484C83.1763 80.1023 83.5004 80.1729 83.7987 80.3095C84.097 80.4461 84.3624 80.6454 84.577 80.894L87.4448 84.2187C87.7306 84.5501 87.9153 84.9568 87.9771 85.3904C88.0389 85.8239 87.9751 86.2662 87.7933 86.6645C87.6115 87.0628 87.3195 87.4004 86.9518 87.6372C86.5841 87.8739 86.1563 87.9999 85.7193 88ZM5.14861 80.4221C4.86541 80.4218 4.5855 80.4829 4.32805 80.6012C4.07059 80.7194 3.84167 80.892 3.65696 81.1071L0.786052 84.4348C0.538276 84.7214 0.378009 85.0734 0.324382 85.4487C0.270755 85.8241 0.326034 86.207 0.483615 86.5517C0.641197 86.8965 0.894429 87.1885 1.21309 87.3929C1.53175 87.5974 1.90238 87.7056 2.28074 87.7047H85.7193C86.0974 87.705 86.4676 87.5964 86.7858 87.3917C87.104 87.187 87.3568 86.895 87.514 86.5503C87.6712 86.2057 87.7262 85.8231 87.6725 85.448C87.6187 85.0729 87.4585 84.7212 87.2109 84.4348L84.343 81.1071C84.1577 80.8919 83.9283 80.7193 83.6703 80.6011C83.4124 80.4829 83.132 80.4218 82.8484 80.4221H5.14861Z" fill="url(#paint1_linear)"/>
<path d="M1.53086 85.6865C1.33577 85.6861 1.14531 85.7461 0.985474 85.8582C0.825635 85.9702 0.704199 86.129 0.637743 86.3128C0.571287 86.4967 0.56305 86.6966 0.614148 86.8852C0.665246 87.0739 0.773192 87.2422 0.923259 87.3671C1.30235 87.6816 1.78002 87.852 2.27213 87.8482H85.7167C86.2396 87.8523 86.7454 87.6613 87.1355 87.3123C87.2705 87.1808 87.3632 87.0118 87.4017 86.827C87.4403 86.6423 87.4228 86.4502 87.3516 86.2755C87.2804 86.1008 87.1588 85.9514 87.0023 85.8464C86.8457 85.7415 86.6615 85.6858 86.4732 85.6865H1.53086Z" fill="url(#paint2_linear)"/>
<path d="M82.2825 77.5453V33.399C82.2825 32.755 81.7615 32.2329 81.1189 32.2329L6.87642 32.2329C6.23381 32.2329 5.71288 32.755 5.71288 33.399V77.5453C5.71288 78.1893 6.23381 78.7114 6.87642 78.7114H81.1189C81.7615 78.7114 82.2825 78.1893 82.2825 77.5453Z" fill="url(#paint3_linear)"/>
<path opacity="0.3" d="M80.5346 77.8771H7.46779C7.22608 77.8771 6.99426 77.7808 6.82334 77.6096C6.65242 77.4383 6.5564 77.2059 6.5564 76.9637V33.9895C6.5564 33.7473 6.65242 33.515 6.82334 33.3437C6.99426 33.1724 7.22608 33.0762 7.46779 33.0762H80.5346C80.7763 33.0762 81.0081 33.1724 81.179 33.3437C81.35 33.515 81.446 33.7473 81.446 33.9895V76.9607C81.4464 77.0809 81.4231 77.2 81.3775 77.3111C81.3319 77.4223 81.2648 77.5233 81.1801 77.6085C81.0955 77.6936 80.9949 77.7612 80.8841 77.8073C80.7733 77.8533 80.6545 77.8771 80.5346 77.8771ZM7.46779 33.2314C7.36726 33.2314 7.26771 33.2513 7.17482 33.2898C7.08194 33.3284 6.99754 33.3849 6.92645 33.4562C6.85536 33.5274 6.79897 33.612 6.7605 33.7051C6.72202 33.7982 6.70222 33.8979 6.70222 33.9987V76.9607C6.70303 77.1636 6.78404 77.358 6.92752 77.5012C7.07101 77.6444 7.26528 77.7248 7.46779 77.7248H80.5346C80.7366 77.724 80.9301 77.6433 81.0729 77.5001C81.2157 77.357 81.2963 77.1631 81.2971 76.9607V33.9895C81.2971 33.7866 81.2169 33.5919 81.074 33.4481C80.9311 33.3043 80.7371 33.2231 80.5346 33.2223L7.46779 33.2314Z" fill="white"/>
<path d="M55.803 49.3126C55.803 50.8349 70.5069 50.8349 70.5069 49.3126C70.5069 40.8639 55.803 40.8639 55.803 49.3126Z" fill="url(#paint4_linear)"/>
<path d="M63.1541 50.6103C61.4576 50.625 59.7618 50.5294 58.0776 50.3241C55.8903 50.0196 55.6472 49.6025 55.6472 49.3133C55.6472 44.8469 59.545 42.8131 63.1632 42.8131C66.7845 42.8131 70.6792 44.8469 70.6792 49.3133C70.6701 50.5463 64.4088 50.6103 63.1541 50.6103ZM55.9662 49.3133C55.9662 49.7182 58.4665 50.2814 63.1541 50.2814C67.8417 50.2814 70.342 49.7182 70.342 49.3133C70.342 45.0722 66.6174 43.1419 63.1541 43.1419C59.6908 43.1419 55.9662 45.0722 55.9662 49.3133Z" fill="white"/>
<path d="M71.7176 30.1875C72.8538 32.5775 74.1875 38.1034 74.3941 42.4907C74.4021 42.6524 74.3671 42.8134 74.2927 42.9571C74.2182 43.1008 74.1069 43.2221 73.9703 43.3085C73.8337 43.3949 73.6765 43.4434 73.5151 43.449C73.3536 43.4545 73.1935 43.4169 73.0513 43.3401C72.7178 43.1559 72.355 43.0312 71.9789 42.9717C71.5384 42.9047 71.2011 42.2867 71.192 41.5407L71.0462 30.5803C71.0401 29.9927 71.4928 29.7217 71.7176 30.1875Z" fill="white"/>
<path d="M73.4805 43.6138C73.3054 43.6133 73.1332 43.5694 72.9792 43.486C72.6615 43.3109 72.3163 43.1915 71.9585 43.1328C71.4359 43.0536 71.0471 42.3899 71.0471 41.5527L70.9043 30.5922C70.881 30.4297 70.9119 30.2641 70.9921 30.121C71.0722 29.9779 71.1973 29.8653 71.3478 29.8006C71.4581 29.7841 71.5707 29.8072 71.6657 29.8656C71.7607 29.9241 71.8321 30.0143 71.8673 30.1203C72.9944 32.492 74.3463 38.0362 74.559 42.4813C74.5647 42.626 74.5413 42.7704 74.4903 42.9058C74.4392 43.0413 74.3615 43.1651 74.2617 43.2699C74.162 43.3747 74.0422 43.4584 73.9096 43.5159C73.7769 43.5734 73.6341 43.6036 73.4896 43.6047L73.4805 43.6138ZM71.4238 30.1081H71.4086C71.3235 30.1294 71.199 30.2969 71.202 30.5922L71.3478 41.5527C71.3478 42.2133 71.6516 42.7705 72.004 42.8314C72.3975 42.8933 72.7769 43.0242 73.1251 43.218C73.2436 43.2811 73.3767 43.3116 73.5108 43.3064C73.6449 43.3013 73.7752 43.2605 73.8885 43.1885C74.0018 43.1164 74.094 43.0155 74.1557 42.8961C74.2175 42.7767 74.2466 42.643 74.24 42.5087C74.0304 38.0879 72.6937 32.6077 71.5787 30.2634C71.5605 30.2238 71.5149 30.1081 71.4238 30.1081Z" fill="url(#paint5_linear)"/>
<path d="M71.9294 44.6376C71.9294 46.8175 54.3758 46.8175 54.3758 44.6376V20.3906C54.3446 15.2029 55.5387 10.0815 57.8604 5.4448C59.3187 2.57376 61.1445 0.156372 63.1526 0.156372C65.1607 0.156372 66.9866 2.57376 68.4448 5.4448C70.7665 10.0815 71.9606 15.2029 71.9294 20.3906V44.6376Z" fill="white"/>
<path d="M63.1532 46.4268C61.1203 46.4477 59.0889 46.3103 57.0772 46.0158C55.1451 45.6961 54.2063 45.2455 54.2063 44.6366V20.3896C54.1859 15.1769 55.3911 10.0327 57.7243 5.37379C59.5471 1.8086 61.3699 0.00012207 63.1532 0.00012207C64.9365 0.00012207 66.7715 1.8086 68.5821 5.37379C70.91 10.034 72.11 15.1782 72.0849 20.3896V44.6366C72.0849 46.3751 64.0676 46.4268 63.1532 46.4268ZM63.1532 0.31067C61.4884 0.31067 59.7537 2.0613 57.9886 5.51384C55.6829 10.1307 54.4943 15.2268 54.5192 20.3896V44.6366C54.5192 45.4678 58.3076 46.1163 63.1441 46.1163C67.9806 46.1163 71.769 45.4678 71.769 44.6366V20.3896C71.7948 15.2317 70.6094 10.14 68.3087 5.52602C66.5527 2.0613 64.8302 0.31067 63.1532 0.31067Z" fill="url(#paint6_linear)"/>
<path d="M63.1531 11.8648C60.3217 11.8648 57.7181 11.0914 56.0107 9.73356L56.2021 9.48999C57.8305 10.7778 60.431 11.5451 63.1531 11.5451C65.8751 11.5451 68.4756 10.7778 70.104 9.48999L70.2954 9.73356C68.588 11.0914 65.9845 11.8648 63.1531 11.8648Z" fill="url(#paint7_linear)"/>
<path d="M54.9547 30.1873C52.9922 32.6413 50.7015 38.4077 50.4403 42.8406C50.4297 42.999 50.4605 43.1573 50.5296 43.3002C50.5987 43.443 50.7037 43.5653 50.8343 43.655C50.965 43.7448 51.1167 43.7988 51.2745 43.8119C51.4324 43.825 51.5909 43.7966 51.7345 43.7296C52.6061 43.3183 53.5427 43.0627 54.5021 42.9745C54.8598 42.9409 55.1926 42.7764 55.4369 42.5125C55.6812 42.2485 55.82 41.9036 55.8266 41.5436L56.0666 30.5831C56.0668 30.4535 56.0268 30.3269 55.9523 30.221C55.8777 30.115 55.7722 30.0348 55.6503 29.9914C55.5283 29.948 55.396 29.9435 55.2714 29.9786C55.1469 30.0137 55.0362 30.0866 54.9547 30.1873Z" fill="white"/>
<path d="M51.3506 43.9827C51.1403 43.9823 50.935 43.9187 50.7612 43.8001C50.6052 43.6958 50.4791 43.5524 50.3954 43.3842C50.3117 43.2159 50.2734 43.0287 50.2843 42.841C50.5395 38.3686 52.8848 32.5352 54.8413 30.0995C54.9432 29.9709 55.0827 29.8776 55.2403 29.8326C55.3978 29.7876 55.5655 29.7932 55.7197 29.8486C55.8739 29.9041 56.0069 30.0065 56.1 30.1416C56.1931 30.2767 56.2416 30.4377 56.2387 30.6018L55.9957 41.5623C55.9886 41.96 55.8357 42.3411 55.5662 42.6331C55.2967 42.925 54.9295 43.1074 54.5344 43.1455C53.5862 43.2284 52.6604 43.48 51.8002 43.8884C51.6594 43.9536 51.5057 43.9858 51.3506 43.9827ZM55.0722 30.2822C53.1552 32.6843 50.8433 38.4355 50.5911 42.8502C50.5834 42.9845 50.611 43.1185 50.6713 43.2387C50.7315 43.359 50.8223 43.4612 50.9344 43.5352C51.0413 43.6083 51.1653 43.6521 51.2943 43.6622C51.4233 43.6724 51.5527 43.6485 51.6696 43.593C52.5587 43.1678 53.5166 42.9059 54.498 42.8197C54.8177 42.7891 55.1151 42.6414 55.3331 42.405C55.5511 42.1685 55.6745 41.8598 55.6798 41.538L55.9198 30.5775C55.9244 30.4788 55.8974 30.3813 55.8427 30.2991C55.788 30.217 55.7086 30.1545 55.616 30.1208C55.5219 30.0848 55.4188 30.0802 55.3219 30.1076C55.225 30.1351 55.1396 30.1931 55.0782 30.273L55.0722 30.2822Z" fill="url(#paint8_linear)"/>
<path d="M65.9505 30.7928C68.7659 30.7928 71.0483 27.5186 71.0483 23.4797C71.0483 19.4408 68.7659 16.1666 65.9505 16.1666C63.1351 16.1666 60.8528 19.4408 60.8528 23.4797C60.8528 27.5186 63.1351 30.7928 65.9505 30.7928Z" fill="url(#paint9_linear)"/>
<path d="M66.4342 29.5992C68.6037 29.5992 70.3624 26.8593 70.3624 23.4796C70.3624 20.0998 68.6037 17.36 66.4342 17.36C64.2648 17.36 62.5061 20.0998 62.5061 23.4796C62.5061 26.8593 64.2648 29.5992 66.4342 29.5992Z" fill="white"/>
<path d="M21.388 78.8786C21.3443 78.8786 21.3022 78.8614 21.271 78.8306C21.2397 78.7999 21.2218 78.7581 21.221 78.7142C21.221 78.5559 21.221 78.358 21.221 78.1357C21.1693 76.4216 21.063 72.8595 23.2534 70.8287C24.5871 69.5835 26.5739 69.0842 29.1592 69.346C37.2798 70.1711 41.8034 67.9151 45.291 61.3053C46.8404 58.3703 50.2004 57.9563 53.1685 57.6031C55.4379 57.326 57.5797 57.0673 58.5458 55.7246C59.1351 54.9056 59.2627 53.7243 58.9377 52.1168C58.9332 52.0954 58.9331 52.0733 58.9374 52.0518C58.9416 52.0304 58.95 52.01 58.9622 51.9919C58.9743 51.9737 58.99 51.9582 59.0082 51.9462C59.0264 51.9342 59.0468 51.9259 59.0683 51.9219C59.0892 51.9175 59.1109 51.9173 59.1319 51.9214C59.153 51.9254 59.173 51.9337 59.1908 51.9456C59.2086 51.9575 59.2239 51.9728 59.2357 51.9907C59.2475 52.0086 59.2557 52.0287 59.2597 52.0498C59.606 53.7548 59.4602 55.0183 58.8131 55.9164C57.762 57.3748 55.5503 57.6457 53.208 57.9289C50.17 58.2973 47.05 58.6778 45.5826 61.4606C42.0191 68.2104 37.4044 70.5151 29.1258 69.6809C26.6377 69.4282 24.7359 69.8971 23.4751 71.0753C21.3972 73.0178 21.5005 76.4794 21.5491 78.1448C21.5491 78.3701 21.5643 78.5711 21.5643 78.7324C21.5596 78.775 21.5387 78.8141 21.5057 78.8414C21.4728 78.8686 21.4306 78.882 21.388 78.8786Z" fill="white"/>
<path d="M57.2363 78.8791C57.1936 78.8783 57.1527 78.8612 57.1222 78.8312C57.0917 78.8012 57.0738 78.7606 57.0723 78.7177V78.5442C57.0206 75.4996 56.9507 71.3559 61.5533 70.7623C64.2875 70.4121 65.8946 69.7515 66.487 68.7467C67.0794 67.742 66.5721 66.4055 66.0708 65.1328C65.6333 64.0246 65.1837 62.8799 65.4632 61.9086C65.9089 60.4019 66.7078 59.0239 67.7933 57.8898C69.0268 56.4741 69.7073 55.6947 67.3316 52.163C67.3081 52.1264 67.2998 52.0822 67.3083 52.0395C67.3168 51.9969 67.3415 51.9593 67.3771 51.9346C67.3951 51.9226 67.4152 51.9142 67.4364 51.91C67.4576 51.9058 67.4794 51.9058 67.5005 51.9101C67.5217 51.9143 67.5418 51.9227 67.5597 51.9347C67.5777 51.9468 67.593 51.9623 67.605 51.9803C70.1204 55.7221 69.3366 56.6202 68.0394 58.106C66.9881 59.2069 66.2134 60.5427 65.7791 62.003C65.524 62.8646 65.9341 63.9089 66.3685 65.0111C66.9002 66.3598 67.447 67.7512 66.7635 68.9142C66.1164 70.0133 64.4212 70.7257 61.5989 71.0911C57.291 71.6452 57.3457 75.6305 57.4064 78.5381V78.7116C57.4068 78.7332 57.403 78.7547 57.3951 78.7748C57.3872 78.7949 57.3755 78.8132 57.3605 78.8288C57.3456 78.8443 57.3277 78.8568 57.308 78.8654C57.2882 78.8741 57.267 78.8787 57.2454 78.8791H57.2363Z" fill="white"/>
<path d="M23.2098 46.0614H23.1065C22.8966 45.5293 22.5377 45.0692 22.0732 44.7366C21.6086 44.4039 21.0581 44.2127 20.4878 44.1859C20.1811 44.17 19.8738 44.2008 19.5764 44.2773C19.3158 43.6605 18.8605 43.1464 18.2803 42.8139C17.7001 42.4814 17.0271 42.3489 16.3645 42.4367C15.7019 42.5245 15.0864 42.8277 14.6124 43.2999C14.1384 43.7721 13.832 44.3871 13.7404 45.0506C13.1283 45.0717 12.5477 45.3281 12.1191 45.7665C11.6905 46.205 11.4466 46.7919 11.438 47.4056C11.4294 48.0194 11.6567 48.6129 12.0729 49.0632C12.4891 49.5135 13.0623 49.7861 13.6736 49.8245L23.0154 50.2812C23.2917 50.2946 23.5679 50.2533 23.8282 50.1597C24.0886 50.0661 24.328 49.9221 24.5328 49.7358C24.7376 49.5495 24.9038 49.3245 25.0219 49.0739C25.14 48.8232 25.2076 48.5517 25.221 48.2748C25.2343 47.9979 25.1932 47.7211 25.0998 47.4602C25.0064 47.1993 24.8627 46.9593 24.6767 46.7541C24.4908 46.5488 24.2664 46.3823 24.0163 46.264C23.7662 46.1456 23.4952 46.0778 23.2189 46.0644L23.2098 46.0614Z" fill="white"/>
<path d="M36.6533 36.344C37.2969 36.3424 37.9296 36.5107 38.4877 36.832C39.0457 37.1533 39.5095 37.6163 39.8322 38.1744C40.155 38.7324 40.3254 39.3658 40.3262 40.0108C40.3271 40.6558 40.1584 41.2896 39.8371 41.8485L36.9176 39.7995L35.3986 36.5632C35.7955 36.417 36.2153 36.3427 36.6381 36.344H36.6533ZM36.6381 36.0151C36.0564 36.0142 35.4817 36.1421 34.9551 36.3896L36.6442 40.0188L39.9192 42.3144C40.3384 41.714 40.5852 41.0099 40.6327 40.2787C40.6801 39.5474 40.5265 38.8172 40.1883 38.1675C39.8502 37.5177 39.3407 36.9735 38.7152 36.594C38.0898 36.2144 37.3723 36.0142 36.6412 36.0151H36.6381Z" fill="white"/>
<path d="M36.6609 40.0179L39.9207 42.3135C39.7878 42.5049 39.6384 42.6842 39.4741 42.8494C39.0619 43.2651 38.5636 43.5852 38.0145 43.787C37.4654 43.9888 36.8788 44.0674 36.2961 44.0172C35.7134 43.9671 35.1488 43.7894 34.642 43.4968C34.1353 43.2041 33.6988 42.8036 33.3633 42.3235C33.0278 41.8434 32.8015 41.2954 32.7004 40.7181C32.5992 40.1408 32.6257 39.5483 32.7779 38.9824C32.9302 38.4165 33.2044 37.8909 33.5814 37.4428C33.9583 36.9947 34.4288 36.6349 34.9596 36.3888L36.6609 40.0179Z" fill="white"/>
<path d="M25.9233 64.8306C25.6862 64.8313 25.4566 64.747 25.2761 64.5929C25.0955 64.4388 24.976 64.225 24.939 63.9903L23.8636 57.414C23.8206 57.1512 23.8834 56.882 24.0384 56.6657C24.1933 56.4493 24.4277 56.3034 24.6899 56.2601L35.6024 54.4699C35.8641 54.4277 36.132 54.4911 36.3472 54.6463C36.5624 54.8015 36.7075 55.0359 36.7507 55.298L37.8262 61.8743C37.8683 62.137 37.8051 62.4058 37.6503 62.6219C37.4955 62.8381 37.2617 62.9842 36.9998 63.0282L26.0874 64.8184C26.0331 64.827 25.9782 64.8311 25.9233 64.8306ZM35.7634 54.7835H35.654L24.7294 56.5859C24.5539 56.6158 24.3973 56.7136 24.2932 56.8583C24.1892 57.003 24.1462 57.183 24.1734 57.3592L25.2489 63.9385C25.2794 64.1149 25.3775 64.2722 25.5223 64.3769C25.594 64.4286 25.6753 64.4655 25.7613 64.4853C25.8474 64.5052 25.9365 64.5077 26.0236 64.4926L36.936 62.7024C37.1117 62.6733 37.2686 62.5755 37.3723 62.4305C37.476 62.2855 37.5179 62.1051 37.489 61.9291L36.4135 55.3498C36.3996 55.2624 36.3685 55.1787 36.3221 55.1035C36.2757 55.0282 36.2149 54.9629 36.1431 54.9114C36.032 54.8323 35.8996 54.7887 35.7634 54.7865V54.7835Z" fill="white"/>
<path d="M32.8532 59.3141L29.165 57.9166L29.803 61.8198L32.8532 59.3141Z" fill="white"/>
<path d="M77.8307 54.0078H75.616V60.6876H77.8307V54.0078Z" fill="white"/>
<path d="M77.8307 61.1536H75.616V62.411H77.8307V61.1536Z" fill="white"/>
<path d="M77.8307 63.1744H75.616V63.8016H77.8307V63.1744Z" fill="white"/>
<path d="M77.8307 64.9501H75.616V65.2642H77.8307V64.9501Z" fill="white"/>
<path d="M74.5132 54.6236L76.7218 50.7905L78.9304 54.6236H74.5132Z" fill="white"/>
<path d="M46.9068 43.2607H45.5093V47.4775H46.9068V43.2607Z" fill="white"/>
<path d="M46.9068 47.7725H45.5093V48.5671H46.9068V47.7725Z" fill="white"/>
<path d="M46.9068 49.0511H45.5093V49.4476H46.9068V49.0511Z" fill="white"/>
<path d="M46.9068 50.172H45.5093V50.3702H46.9068V50.172Z" fill="white"/>
<path d="M44.8127 43.6508L46.2072 41.2273L47.6047 43.6508H44.8127Z" fill="white"/>
<path d="M78.6537 18.7511H76.8765V24.1095H78.6537V18.7511Z" fill="url(#paint10_linear)"/>
<path d="M78.6537 24.4847H76.8765V25.4925H78.6537V24.4847Z" fill="url(#paint11_linear)"/>
<path d="M78.6537 26.1072H76.8765V26.6134H78.6537V26.1072Z" fill="url(#paint12_linear)"/>
<path d="M78.6537 27.5323H76.8765V27.7855H78.6537V27.5323Z" fill="url(#paint13_linear)"/>
<path d="M75.9919 19.2448L77.7631 16.1698L79.5342 19.2448H75.9919Z" fill="url(#paint14_linear)"/>
<defs>
<linearGradient id="paint0_linear" x1="44.0014" y1="30.5522" x2="44.0014" y2="135.778" gradientUnits="userSpaceOnUse">
<stop stop-color="#5199FF"/>
<stop offset="1" stop-color="#0351C1"/>
</linearGradient>
<linearGradient id="paint1_linear" x1="44" y1="80.1024" x2="44" y2="96.7664" gradientUnits="userSpaceOnUse">
<stop stop-color="#5199FF"/>
<stop offset="1" stop-color="#0351C1"/>
</linearGradient>
<linearGradient id="paint2_linear" x1="44.0014" y1="85.6865" x2="44.0014" y2="90.2478" gradientUnits="userSpaceOnUse">
<stop stop-color="#5199FF"/>
<stop offset="1" stop-color="#0351C1"/>
</linearGradient>
<linearGradient id="paint3_linear" x1="82.2825" y1="55.4721" x2="-79.2794" y2="55.4721" gradientUnits="userSpaceOnUse">
<stop stop-color="#5199FF"/>
<stop offset="1" stop-color="#0351C1"/>
</linearGradient>
<linearGradient id="paint4_linear" x1="63.1549" y1="42.9761" x2="63.1549" y2="58.7551" gradientUnits="userSpaceOnUse">
<stop stop-color="#5199FF"/>
<stop offset="1" stop-color="#0351C1"/>
</linearGradient>
<linearGradient id="paint5_linear" x1="72.7283" y1="29.7954" x2="72.7283" y2="58.9523" gradientUnits="userSpaceOnUse">
<stop stop-color="#5199FF"/>
<stop offset="1" stop-color="#0351C1"/>
</linearGradient>
<linearGradient id="paint6_linear" x1="63.1457" y1="0.00012207" x2="63.1457" y2="97.9648" gradientUnits="userSpaceOnUse">
<stop stop-color="#5199FF"/>
<stop offset="1" stop-color="#0351C1"/>
</linearGradient>
<linearGradient id="paint7_linear" x1="63.1531" y1="9.48999" x2="63.1531" y2="14.5008" gradientUnits="userSpaceOnUse">
<stop stop-color="#5199FF"/>
<stop offset="1" stop-color="#0351C1"/>
</linearGradient>
<linearGradient id="paint8_linear" x1="53.2607" y1="29.8025" x2="53.2607" y2="59.7233" gradientUnits="userSpaceOnUse">
<stop stop-color="#5199FF"/>
<stop offset="1" stop-color="#0351C1"/>
</linearGradient>
<linearGradient id="paint9_linear" x1="65.9505" y1="16.1666" x2="65.9505" y2="47.0278" gradientUnits="userSpaceOnUse">
<stop stop-color="#5199FF"/>
<stop offset="1" stop-color="#0351C1"/>
</linearGradient>
<linearGradient id="paint10_linear" x1="77.7651" y1="18.7511" x2="77.7651" y2="30.0574" gradientUnits="userSpaceOnUse">
<stop stop-color="#5199FF"/>
<stop offset="1" stop-color="#0351C1"/>
</linearGradient>
<linearGradient id="paint11_linear" x1="77.7651" y1="24.4847" x2="77.7651" y2="26.6111" gradientUnits="userSpaceOnUse">
<stop stop-color="#5199FF"/>
<stop offset="1" stop-color="#0351C1"/>
</linearGradient>
<linearGradient id="paint12_linear" x1="77.7651" y1="26.1072" x2="77.7651" y2="27.1753" gradientUnits="userSpaceOnUse">
<stop stop-color="#5199FF"/>
<stop offset="1" stop-color="#0351C1"/>
</linearGradient>
<linearGradient id="paint13_linear" x1="77.7651" y1="27.5323" x2="77.7651" y2="28.0664" gradientUnits="userSpaceOnUse">
<stop stop-color="#5199FF"/>
<stop offset="1" stop-color="#0351C1"/>
</linearGradient>
<linearGradient id="paint14_linear" x1="77.7631" y1="16.1698" x2="77.7631" y2="22.6581" gradientUnits="userSpaceOnUse">
<stop stop-color="#5199FF"/>
<stop offset="1" stop-color="#0351C1"/>
</linearGradient>
</defs>
</svg>
