<svg width="112" height="80" viewBox="0 0 112 80" fill="none" xmlns="http://www.w3.org/2000/svg">
<path d="M51.021 55.7745H100.355C103.082 55.7511 105.697 54.6691 107.663 52.7506C109.629 50.8321 110.797 48.2225 110.928 45.4573L111.995 18.5236C112.018 18.0912 111.953 17.6586 111.805 17.2526C111.657 16.8465 111.428 16.4756 111.133 16.1627C110.839 15.8498 110.484 15.6016 110.091 15.4334C109.698 15.2652 109.275 15.1805 108.848 15.1847H55.896C55.0144 15.1915 54.169 15.5417 53.5345 16.1631C52.9 16.7844 52.5248 17.6295 52.4864 18.5236L51.4157 45.4573C51.286 48.2222 50.1187 50.8317 48.1533 52.7504C46.1879 54.669 43.5737 55.751 40.8472 55.7745H51.021Z" fill="url(#paint0_linear)"/>
<path opacity="0.7" d="M51.021 55.7745H100.355C103.082 55.7511 105.697 54.6691 107.663 52.7506C109.629 50.8321 110.797 48.2225 110.928 45.4573L111.995 18.5236C112.018 18.0912 111.953 17.6586 111.805 17.2526C111.657 16.8465 111.428 16.4756 111.133 16.1627C110.839 15.8498 110.484 15.6016 110.091 15.4334C109.698 15.2652 109.275 15.1805 108.848 15.1847H55.896C55.0144 15.1915 54.169 15.5417 53.5345 16.1631C52.9 16.7844 52.5248 17.6295 52.4864 18.5236L51.4157 45.4573C51.286 48.2222 50.1187 50.8317 48.1533 52.7504C46.1879 54.669 43.5737 55.751 40.8472 55.7745H51.021Z" fill="white"/>
<path opacity="0.6" d="M103.682 27.0758H60.0449C59.9033 27.0771 59.7631 27.0488 59.6329 26.9925C59.5027 26.9362 59.3853 26.8532 59.2882 26.7487C59.1911 26.6442 59.1163 26.5204 59.0686 26.3852C59.0208 26.25 59.0011 26.1062 59.0107 25.9628L59.1276 23.0802C59.1407 22.7876 59.2641 22.5112 59.4722 22.3082C59.6803 22.1052 59.9572 21.9911 60.2458 21.9895H103.883C104.022 21.9884 104.161 22.0161 104.289 22.0711C104.418 22.126 104.534 22.2071 104.63 22.3092C104.727 22.4113 104.801 22.5324 104.85 22.665C104.899 22.7976 104.921 22.9389 104.914 23.0802L104.8 25.9628C104.791 26.2588 104.669 26.5397 104.461 26.747C104.253 26.9544 103.974 27.0721 103.682 27.0758Z" fill="white"/>
<path opacity="0.6" d="M103.76 32.5168H59.5417C59.4395 32.5202 59.3376 32.5017 59.2428 32.4626C59.148 32.4235 59.0624 32.3646 58.9914 32.2898C58.9205 32.2149 58.8658 32.1258 58.8309 32.0282C58.796 31.9305 58.7817 31.8265 58.7889 31.7229L58.8328 30.6322C58.843 30.4192 58.9332 30.2183 59.0847 30.0707C59.2363 29.9231 59.4377 29.8399 59.6477 29.8383H103.866C103.966 29.838 104.066 29.8588 104.158 29.8993C104.25 29.9398 104.333 29.9991 104.402 30.0736C104.47 30.1481 104.523 30.2362 104.557 30.3323C104.59 30.4284 104.604 30.5305 104.597 30.6322L104.557 31.7229C104.546 31.9324 104.458 32.1302 104.31 32.2772C104.163 32.4241 103.967 32.5097 103.76 32.5168Z" fill="white"/>
<path opacity="0.6" d="M103.597 36.5903H59.3787C59.2764 36.5932 59.1746 36.5743 59.08 36.5347C58.9854 36.4951 58.9 36.4358 58.8293 36.3607C58.7587 36.2855 58.7045 36.1961 58.67 36.0982C58.6356 36.0004 58.6218 35.8963 58.6295 35.7927L58.6734 34.702C58.6827 34.4894 58.7721 34.2885 58.923 34.1408C59.074 33.9931 59.275 33.9098 59.4846 33.9081H103.703C103.803 33.9078 103.903 33.9286 103.995 33.9691C104.087 34.0096 104.17 34.0689 104.239 34.1434C104.307 34.2179 104.36 34.306 104.394 34.4021C104.427 34.4982 104.441 34.6003 104.434 34.702L104.39 35.7927C104.382 36.0028 104.295 36.202 104.148 36.35C104.001 36.498 103.804 36.5839 103.597 36.5903Z" fill="white"/>
<path d="M92.0056 5.49436C91.7153 4.82397 91.359 4.1851 90.9421 3.58749L91.2418 3.37231C91.6732 3.99013 92.0406 4.65153 92.3381 5.34597L92.0056 5.49436Z" fill="url(#paint1_linear)"/>
<path d="M92.8889 10.3071L92.625 16.8347L92.9896 16.8499L93.2534 10.3223L92.8889 10.3071Z" fill="url(#paint2_linear)"/>
<path d="M90.5754 45.4574L91.9714 10.3175C92.0361 8.98033 91.8312 7.64382 91.3692 6.38985C90.9073 5.13589 90.198 3.99087 89.2848 3.02495C88.3717 2.05904 87.2739 1.29255 86.0587 0.772468C84.8435 0.252382 83.5365 -0.0103566 82.2178 0.000346402H22.7351C24.054 -0.0108929 25.3612 0.251481 26.5767 0.771381C27.7921 1.29128 28.8901 2.05775 29.8034 3.02378C30.7166 3.98981 31.4259 5.13505 31.8877 6.38925C32.3494 7.64346 32.5539 8.9802 32.4887 10.3175L31.0964 45.4574C30.8698 51.1558 37.9155 55.7746 43.5213 55.7746H100.329C99.0101 55.7859 97.7029 55.5235 96.4874 55.0036C95.272 54.4837 94.174 53.7172 93.2607 52.7512C92.3474 51.7851 91.6382 50.6399 91.1764 49.3857C90.7147 48.1315 90.5101 46.7948 90.5754 45.4574Z" fill="url(#paint3_linear)"/>
<path d="M79.7763 79.0617H3.35917C2.9317 79.0651 2.50801 78.9802 2.11391 78.8121C1.71981 78.644 1.36353 78.3962 1.06678 78.0838C0.770024 77.7715 0.538999 77.4011 0.387774 76.9952C0.23655 76.5892 0.168291 76.1563 0.187149 75.7228L2.34324 21.4139C2.38885 20.5178 2.76981 19.6732 3.40826 19.0526C4.04672 18.432 4.8945 18.0824 5.77838 18.0751H82.1955C82.623 18.0716 83.0467 18.1565 83.4408 18.3246C83.8349 18.4927 84.1912 18.7405 84.4879 19.0529C84.7847 19.3653 85.0157 19.7357 85.1669 20.1416C85.3181 20.5475 85.3864 20.9804 85.3676 21.4139L83.2151 75.7228C83.1677 76.6189 82.7857 77.4631 82.1469 78.0834C81.508 78.7037 80.6603 79.0535 79.7763 79.0617Z" fill="white"/>
<path d="M79.7756 79.2469H3.35845C2.90522 79.25 2.45613 79.1592 2.03859 78.9802C1.62105 78.8013 1.24381 78.5378 0.929886 78.2059C0.615961 77.874 0.371933 77.4807 0.212695 77.0499C0.0534583 76.6191 -0.0176501 76.1599 0.00370613 75.7003L2.1598 21.3914C2.20456 20.4451 2.60428 19.552 3.27699 18.8953C3.9497 18.2386 4.84442 17.868 5.77766 17.8596H82.1948C82.6483 17.8555 83.0979 17.9456 83.5159 18.1242C83.934 18.3028 84.3116 18.5662 84.6258 18.8983C84.9399 19.2304 85.1839 19.6242 85.3427 20.0555C85.5016 20.4867 85.572 20.9464 85.5496 21.4063L83.3971 75.7151C83.3523 76.6621 82.9521 77.5558 82.2786 78.2126C81.6051 78.8694 80.7095 79.2395 79.7756 79.2469ZM5.77766 18.2306C4.93886 18.2391 4.13494 18.5726 3.53035 19.1629C2.92576 19.7532 2.56621 20.5557 2.52524 21.4063L0.369146 75.7151C0.349222 76.1249 0.411966 76.5345 0.553528 76.9188C0.69509 77.3031 0.912484 77.654 1.19238 77.9499C1.47228 78.2459 1.80879 78.4807 2.18126 78.6399C2.55373 78.7992 2.95431 78.8795 3.35845 78.8759H79.7756C80.615 78.8684 81.4199 78.5354 82.0252 77.945C82.6306 77.3545 82.9907 76.5515 83.0317 75.7003L85.1841 21.3914C85.204 20.9816 85.1413 20.5721 84.9997 20.1878C84.8582 19.8035 84.6408 19.4526 84.3609 19.1566C84.081 18.8607 83.7445 18.6259 83.372 18.4666C82.9995 18.3074 82.5989 18.2271 82.1948 18.2306H5.77766Z" fill="url(#paint4_linear)"/>
<path d="M80.0436 21.0248H7.68652C7.06168 21.0297 6.46242 21.2774 6.01183 21.7169C5.56124 22.1564 5.29352 22.7543 5.26365 23.3879L3.51685 67.5058H80.5297L82.2801 23.3879C82.2951 23.0814 82.2482 22.775 82.1423 22.4876C82.0363 22.2001 81.8737 21.9377 81.6642 21.7164C81.4548 21.4951 81.203 21.3196 80.9243 21.2006C80.6456 21.0817 80.3459 21.0219 80.0436 21.0248Z" fill="url(#paint5_linear)"/>
<path opacity="0.3" d="M14.4533 17.8595L12.7247 61.5025C12.7113 61.7915 12.7561 62.0803 12.8565 62.3511C12.9568 62.622 13.1106 62.8691 13.3083 63.0775C13.5061 63.2859 13.7437 63.4511 14.0065 63.5631C14.2694 63.675 14.552 63.7312 14.837 63.7284H69.9161C70.5054 63.7244 71.0708 63.4915 71.4962 63.0775C71.9216 62.6636 72.1748 62.1 72.2037 61.5025L73.9359 17.8595H14.4533Z" fill="black"/>
<path d="M72.0533 0H22.7189C19.9921 0.0225147 17.3774 1.10429 15.4118 3.02309C13.4463 4.94188 12.2792 7.55198 12.1504 10.3172L10.0893 62.2554C10.0764 62.5443 10.1216 62.8329 10.2221 63.1035C10.3227 63.3741 10.4765 63.621 10.6741 63.8293C10.8717 64.0376 11.1091 64.2028 11.3717 64.3149C11.6343 64.427 11.9167 64.4836 12.2016 64.4813H67.2953C67.8843 64.4764 68.4492 64.2432 68.8744 63.8294C69.2997 63.4157 69.5531 62.8526 69.5829 62.2554L71.644 10.3172C71.7746 7.55196 72.9427 4.94236 74.9087 3.02383C76.8746 1.10531 79.4893 0.0233602 82.2162 0H72.0533Z" fill="url(#paint6_linear)"/>
<path opacity="0.7" d="M72.0533 0H22.7189C19.9921 0.0225147 17.3774 1.10429 15.4118 3.02309C13.4463 4.94188 12.2792 7.55198 12.1504 10.3172L10.0893 62.2554C10.0764 62.5443 10.1216 62.8329 10.2221 63.1035C10.3227 63.3741 10.4765 63.621 10.6741 63.8293C10.8717 64.0376 11.1091 64.2028 11.3717 64.3149C11.6343 64.427 11.9167 64.4836 12.2016 64.4813H67.2953C67.8843 64.4764 68.4492 64.2432 68.8744 63.8294C69.2997 63.4157 69.5531 62.8526 69.5829 62.2554L71.644 10.3172C71.7746 7.55196 72.9427 4.94236 74.9087 3.02383C76.8746 1.10531 79.4893 0.0233602 82.2162 0H72.0533Z" fill="white"/>
<path d="M83.5442 67.6904H0.508892C0.460432 67.6904 0.413959 67.6709 0.379692 67.6361C0.345425 67.6013 0.326172 67.5541 0.326172 67.505C0.326172 67.4558 0.345425 67.4086 0.379692 67.3738C0.413959 67.339 0.460432 67.3195 0.508892 67.3195H83.5442C83.5926 67.3195 83.6391 67.339 83.6734 67.3738C83.7076 67.4086 83.7269 67.4558 83.7269 67.505C83.7269 67.5541 83.7076 67.6013 83.6734 67.6361C83.6391 67.6709 83.5926 67.6904 83.5442 67.6904Z" fill="url(#paint7_linear)"/>
<path opacity="0.1" d="M66.2932 35.8481H15.497C15.3362 35.8492 15.1768 35.8172 15.0286 35.7537C14.8804 35.6903 14.7465 35.5969 14.635 35.4793C14.5236 35.3616 14.4369 35.2221 14.3802 35.0692C14.3236 34.9164 14.2983 34.7535 14.3057 34.5904L15.0914 14.8427C15.1073 14.5064 15.2494 14.189 15.4887 13.9558C15.7279 13.7226 16.0461 13.5913 16.3778 13.5888H67.1739C67.3346 13.5871 67.4939 13.6187 67.6421 13.6817C67.7903 13.7447 67.9242 13.8378 68.0357 13.9552C68.1473 14.0726 68.234 14.2118 68.2907 14.3644C68.3473 14.5171 68.3727 14.6798 68.3652 14.8427L67.5796 34.5793C67.5673 34.9182 67.4268 35.2393 67.1871 35.4757C66.9475 35.712 66.6273 35.8454 66.2932 35.8481Z" fill="url(#paint8_linear)"/>
<path opacity="0.6" d="M43.3486 58.1086H14.6067C14.4451 58.1099 14.2849 58.0775 14.1361 58.0133C13.9873 57.9492 13.8531 57.8547 13.7417 57.7358C13.6304 57.6168 13.5443 57.4759 13.4888 57.3218C13.4333 57.1677 13.4095 57.0036 13.419 56.8398L14.1134 39.537C14.131 39.2032 14.2729 38.8887 14.5104 38.6573C14.7479 38.4258 15.0632 38.2947 15.3924 38.2904H44.1489C44.3095 38.2892 44.4688 38.3213 44.6168 38.3848C44.7648 38.4482 44.8985 38.5417 45.0097 38.6594C45.1209 38.7772 45.2072 38.9167 45.2634 39.0695C45.3196 39.2223 45.3445 39.3852 45.3366 39.5481L44.6532 56.8398C44.639 57.1813 44.4954 57.5041 44.2522 57.7405C44.0091 57.977 43.6853 58.1089 43.3486 58.1086Z" fill="url(#paint9_linear)"/>
<path d="M32.3875 48.1918L26.9936 44.9568L26.7378 51.4305L32.3875 48.1918Z" fill="white"/>
<path d="M65.4098 58.108H48.3584C48.1975 58.1092 48.0382 58.0771 47.89 58.0137C47.7418 57.9503 47.6078 57.8569 47.4964 57.7392C47.3849 57.6215 47.2982 57.482 47.2416 57.3292C47.1849 57.1764 47.1596 57.0134 47.167 56.8503L47.8541 39.5364C47.8708 39.1994 48.0136 38.8815 48.2534 38.6478C48.4931 38.4141 48.8117 38.2821 49.1441 38.2787H66.1955C66.3563 38.2775 66.5157 38.3096 66.6639 38.373C66.8121 38.4364 66.946 38.5298 67.0575 38.6475C67.169 38.7652 67.2557 38.9047 67.3123 39.0575C67.3689 39.2103 67.3943 39.3733 67.3868 39.5364L66.6998 56.8392C66.6867 57.1785 66.5453 57.4996 66.3051 57.7359C66.0649 57.9721 65.7443 58.1054 65.4098 58.108Z" fill="white"/>
<path opacity="0.3" d="M49.4215 55.3184L49.988 41.0688C49.9945 40.9182 50.0576 40.7758 50.1643 40.6709C50.271 40.566 50.4132 40.5066 50.5617 40.5049H64.6019C64.6737 40.5048 64.7447 40.5195 64.8108 40.5482C64.8768 40.5768 64.9364 40.6188 64.9859 40.6715C65.0355 40.7242 65.074 40.7867 65.099 40.8549C65.1241 40.9232 65.1352 40.996 65.1318 41.0688L64.5653 55.3184C64.5597 55.4693 64.4969 55.6122 64.39 55.7173C64.2831 55.8224 64.1404 55.8815 63.9916 55.8823H49.9514C49.8796 55.8824 49.8086 55.8677 49.7425 55.839C49.6765 55.8104 49.6169 55.7684 49.5674 55.7157C49.5178 55.663 49.4793 55.6005 49.4543 55.5323C49.4292 55.464 49.4181 55.3912 49.4215 55.3184Z" fill="url(#paint10_linear)"/>
<path d="M59.9361 49.037L59.1686 50.2835L56.6617 45.6165L50.3359 55.8817H63.6124L59.9361 49.037Z" fill="url(#paint11_linear)"/>
<path d="M63.514 43.8185C63.4951 44.2974 63.2943 44.7504 62.9537 45.0824C62.613 45.4144 62.159 45.5996 61.6868 45.5992C61.4593 45.601 61.2339 45.5556 61.0243 45.4658C60.8147 45.376 60.6254 45.2437 60.468 45.0769C60.3106 44.9102 60.1884 44.7125 60.1089 44.4961C60.0294 44.2797 59.9943 44.0491 60.0058 43.8185C60.0256 43.3401 60.2268 42.8881 60.5674 42.5569C60.9079 42.2257 61.3614 42.041 61.833 42.0414C62.0601 42.0397 62.2853 42.0849 62.4946 42.1745C62.704 42.2641 62.8931 42.3961 63.0504 42.5625C63.2078 42.7288 63.3301 42.926 63.4098 43.1419C63.4895 43.3579 63.5249 43.5881 63.514 43.8185Z" fill="white"/>
<path opacity="0.6" d="M59.4757 31.1449L8.78188 34.5172C8.6216 34.5288 8.46067 34.5071 8.30889 34.4536C8.15711 34.4 8.01765 34.3157 7.89902 34.2057C7.78038 34.0956 7.68505 33.9622 7.61882 33.8136C7.5526 33.665 7.51686 33.5042 7.5138 33.3411L7.02411 13.5861C7.0185 13.2493 7.13985 12.923 7.36334 12.6741C7.58683 12.4251 7.89557 12.2723 8.22641 12.2468L58.9239 8.87451C59.084 8.86289 59.2447 8.88454 59.3963 8.93813C59.5479 8.99172 59.6871 9.07613 59.8055 9.18621C59.9238 9.29628 60.0188 9.42971 60.0846 9.57832C60.1505 9.72694 60.1857 9.88762 60.1883 10.0505L60.6817 29.8056C60.6872 30.143 60.5653 30.4697 60.3411 30.7188C60.1168 30.9678 59.8072 31.1203 59.4757 31.1449Z" fill="white"/>
<path d="M33.8948 19.4766L34.5818 20.775C34.5893 20.7914 34.6012 20.8052 34.616 20.815C34.6309 20.8249 34.6482 20.8303 34.6659 20.8307L36.1277 20.9494C36.1485 20.9511 36.1684 20.9587 36.1851 20.9715C36.2018 20.9843 36.2146 21.0016 36.2219 21.0215C36.2292 21.0414 36.2307 21.063 36.2263 21.0837C36.2219 21.1045 36.2118 21.1235 36.1971 21.1386L35.1665 22.2516C35.1539 22.2653 35.1447 22.2819 35.1396 22.2999C35.1345 22.318 35.1337 22.337 35.1373 22.3554L35.4224 23.8134C35.4264 23.8343 35.4249 23.8559 35.4179 23.8759C35.4109 23.896 35.3987 23.9137 35.3827 23.9274C35.3666 23.941 35.3473 23.95 35.3266 23.9535C35.3059 23.9569 35.2847 23.9547 35.2652 23.947L33.9423 23.3349C33.9265 23.3267 33.9089 23.3225 33.8912 23.3225C33.8734 23.3225 33.8559 23.3267 33.84 23.3349L32.5537 24.1176C32.5362 24.128 32.5162 24.1333 32.4959 24.1329C32.4756 24.1324 32.4559 24.1263 32.4389 24.1152C32.4218 24.104 32.4082 24.0883 32.3994 24.0697C32.3906 24.0512 32.3871 24.0305 32.3892 24.01L32.6012 22.5261C32.6043 22.5085 32.603 22.4904 32.5972 22.4735C32.5914 22.4566 32.5815 22.4415 32.5683 22.4296L31.472 21.4539C31.457 21.4388 31.4463 21.4199 31.4411 21.3992C31.4359 21.3784 31.4363 21.3566 31.4423 21.3361C31.4483 21.3155 31.4597 21.297 31.4752 21.2825C31.4907 21.268 31.5098 21.258 31.5304 21.2536L32.9922 20.942C33.0101 20.9377 33.0269 20.9294 33.0414 20.9179C33.0559 20.9064 33.0678 20.8918 33.0762 20.8752L33.6938 19.4877C33.7012 19.4673 33.7144 19.4496 33.7316 19.4367C33.7488 19.4238 33.7694 19.4163 33.7907 19.4151C33.8121 19.4139 33.8333 19.4191 33.8518 19.43C33.8703 19.4409 33.8853 19.4571 33.8948 19.4766Z" fill="url(#paint12_linear)"/>
<path d="M42.7412 18.8866L43.4246 20.1888C43.4342 20.2041 43.4471 20.217 43.4623 20.2267C43.4774 20.2363 43.4945 20.2424 43.5123 20.2445L44.9741 20.3632C44.9946 20.3654 45.0141 20.3736 45.0303 20.3866C45.0464 20.3996 45.0587 20.417 45.0656 20.4368C45.0724 20.4565 45.0737 20.4779 45.0691 20.4983C45.0646 20.5188 45.0544 20.5375 45.0398 20.5524L44.0129 21.6653C44.0004 21.6783 43.9911 21.6943 43.986 21.7117C43.9809 21.7292 43.9801 21.7477 43.9837 21.7655L44.2687 23.2272C44.2724 23.2482 44.2704 23.2699 44.2629 23.2898C44.2555 23.3098 44.2428 23.3273 44.2264 23.3406C44.2099 23.3539 44.1902 23.3625 44.1694 23.3654C44.1485 23.3682 44.1273 23.3654 44.108 23.357L42.7887 22.7449C42.7729 22.7368 42.7553 22.7325 42.7376 22.7325C42.7198 22.7325 42.7023 22.7368 42.6864 22.7449L41.4001 23.5314C41.3823 23.5421 41.3619 23.5475 41.3412 23.5469C41.3206 23.5464 41.3005 23.5399 41.2833 23.5283C41.2662 23.5166 41.2526 23.5003 41.2441 23.4812C41.2357 23.462 41.2327 23.4409 41.2356 23.4201L41.4476 21.9362C41.4499 21.9177 41.4478 21.899 41.4414 21.8815C41.4351 21.8641 41.4246 21.8484 41.411 21.836L40.333 20.8529C40.3178 20.8385 40.3068 20.8201 40.3013 20.7997C40.2957 20.7794 40.2957 20.7579 40.3014 20.7376C40.3071 20.7173 40.3181 20.699 40.3334 20.6846C40.3486 20.6703 40.3674 20.6605 40.3878 20.6563L41.8495 20.3446C41.8677 20.3408 41.8846 20.3323 41.8987 20.3199C41.9128 20.3076 41.9235 20.2918 41.9299 20.2741L42.5475 18.8904C42.5573 18.8733 42.5713 18.859 42.588 18.849C42.6048 18.839 42.6239 18.8335 42.6433 18.8332C42.6628 18.8328 42.682 18.8375 42.6992 18.8469C42.7163 18.8562 42.7308 18.8699 42.7412 18.8866Z" fill="url(#paint13_linear)"/>
<path d="M51.5894 18.2973L52.2728 19.5995C52.2809 19.6153 52.2929 19.6287 52.3076 19.6385C52.3223 19.6482 52.3393 19.654 52.3568 19.6551L53.8186 19.7738C53.8394 19.7755 53.8594 19.7832 53.876 19.7959C53.8927 19.8087 53.9055 19.8261 53.9128 19.846C53.9201 19.8658 53.9216 19.8874 53.9172 19.9082C53.9128 19.9289 53.9027 19.948 53.888 19.9631L52.8575 21.076C52.8448 21.0898 52.8356 21.1063 52.8305 21.1244C52.8255 21.1424 52.8247 21.1615 52.8282 21.1799L53.1133 22.6379C53.1178 22.6587 53.1166 22.6804 53.1097 22.7006C53.1028 22.7208 53.0905 22.7386 53.0742 22.7521C53.0579 22.7655 53.0382 22.7741 53.0174 22.7769C52.9965 22.7797 52.9753 22.7765 52.9561 22.7677L51.6369 22.1593C51.6207 22.1502 51.6024 22.1454 51.5839 22.1454C51.5654 22.1454 51.5472 22.1502 51.5309 22.1593L50.2446 22.9421C50.2271 22.9525 50.2071 22.9578 50.1868 22.9573C50.1666 22.9569 50.1468 22.9507 50.1298 22.9396C50.1127 22.9285 50.0991 22.9127 50.0903 22.8942C50.0815 22.8756 50.078 22.855 50.0801 22.8345L50.2921 21.3505C50.2952 21.333 50.2939 21.3148 50.2881 21.2979C50.2823 21.281 50.2724 21.2659 50.2592 21.2541L49.1629 20.2784C49.1479 20.2633 49.1373 20.2444 49.132 20.2236C49.1268 20.2028 49.1272 20.181 49.1332 20.1605C49.1392 20.14 49.1506 20.1215 49.1661 20.107C49.1816 20.0924 49.2007 20.0825 49.2213 20.0781L50.6831 19.7664C50.7012 19.7626 50.7182 19.7546 50.7328 19.743C50.7474 19.7314 50.7591 19.7166 50.7671 19.6997L51.3847 18.3122C51.3925 18.2918 51.4058 18.274 51.4231 18.261C51.4404 18.248 51.461 18.2403 51.4824 18.2387C51.5039 18.2371 51.5254 18.2418 51.5443 18.2522C51.5633 18.2626 51.5789 18.2782 51.5894 18.2973Z" fill="url(#paint14_linear)"/>
<path d="M25.0542 20.0632L25.7376 21.3653C25.7472 21.3806 25.7601 21.3936 25.7752 21.4032C25.7904 21.4128 25.8075 21.4189 25.8253 21.421L27.287 21.5397C27.3076 21.542 27.3271 21.5501 27.3432 21.5631C27.3594 21.5761 27.3717 21.5935 27.3785 21.6133C27.3854 21.6331 27.3866 21.6544 27.3821 21.6749C27.3775 21.6953 27.3674 21.7141 27.3528 21.7289L26.3259 22.8419C26.3134 22.8549 26.3041 22.8708 26.299 22.8883C26.2939 22.9057 26.2931 22.9242 26.2967 22.942L26.5817 24.4037C26.5854 24.4248 26.5834 24.4464 26.5759 24.4664C26.5684 24.4863 26.5558 24.5039 26.5394 24.5172C26.5229 24.5305 26.5032 24.539 26.4824 24.5419C26.4615 24.5448 26.4403 24.5419 26.4209 24.5336L25.1017 23.9215C25.0858 23.9133 25.0683 23.9091 25.0505 23.9091C25.0328 23.9091 25.0152 23.9133 24.9994 23.9215L23.713 24.7079C23.6953 24.7186 23.6749 24.724 23.6542 24.7235C23.6336 24.7229 23.6135 24.7164 23.5963 24.7048C23.5791 24.6932 23.5655 24.6769 23.5571 24.6577C23.5487 24.6386 23.5457 24.6174 23.5486 24.5966L23.7605 23.1127C23.7629 23.0942 23.7608 23.0755 23.7544 23.058C23.7481 23.0406 23.7376 23.025 23.724 23.0125L22.6459 22.0368C22.6308 22.0224 22.6198 22.004 22.6142 21.9837C22.6087 21.9634 22.6087 21.9419 22.6144 21.9216C22.62 21.9013 22.6311 21.8829 22.6463 21.8686C22.6616 21.8542 22.6804 21.8444 22.7008 21.8402L24.1625 21.5286C24.18 21.5242 24.1963 21.516 24.2102 21.5044C24.2241 21.4929 24.2353 21.4783 24.2429 21.4618L24.8605 20.0743C24.8696 20.0568 24.8831 20.042 24.8995 20.0313C24.9159 20.0206 24.9348 20.0144 24.9543 20.0132C24.9737 20.0121 24.9932 20.0161 25.0107 20.0249C25.0282 20.0336 25.0432 20.0468 25.0542 20.0632Z" fill="url(#paint15_linear)"/>
<path d="M16.2047 20.6533L16.8917 21.9518C16.8988 21.9684 16.9106 21.9825 16.9255 21.9923C16.9405 22.0022 16.9579 22.0075 16.9758 22.0074L18.4375 22.1261C18.458 22.1284 18.4775 22.1365 18.4937 22.1495C18.5099 22.1626 18.5221 22.18 18.529 22.1997C18.5359 22.2195 18.5371 22.2408 18.5326 22.2613C18.528 22.2817 18.5179 22.3005 18.5033 22.3153L17.4764 23.4283C17.4638 23.442 17.4546 23.4586 17.4495 23.4767C17.4444 23.4947 17.4436 23.5137 17.4472 23.5322L17.7322 24.9939C17.7355 25.0144 17.7334 25.0355 17.7261 25.055C17.7188 25.0745 17.7065 25.0917 17.6906 25.1049C17.6747 25.118 17.6556 25.1267 17.6353 25.13C17.615 25.1333 17.5943 25.1311 17.5751 25.1237L16.2522 24.5116C16.2363 24.5034 16.2188 24.4992 16.201 24.4992C16.1833 24.4992 16.1657 24.5034 16.1499 24.5116L14.8635 25.3055C14.8463 25.3175 14.8259 25.3241 14.805 25.3245C14.7841 25.3248 14.7636 25.3188 14.746 25.3073C14.7284 25.2958 14.7145 25.2793 14.7062 25.2598C14.6979 25.2404 14.6954 25.2188 14.6991 25.1979L14.911 23.714C14.9142 23.6964 14.9128 23.6782 14.9071 23.6613C14.9013 23.6444 14.8913 23.6293 14.8781 23.6175L13.7818 22.6418C13.7666 22.6271 13.7557 22.6085 13.7504 22.5879C13.745 22.5673 13.7454 22.5456 13.7514 22.5252C13.7575 22.5048 13.769 22.4865 13.7847 22.4724C13.8004 22.4583 13.8196 22.4489 13.8403 22.4452L15.302 22.1298C15.32 22.1266 15.3368 22.1188 15.3508 22.1071C15.3649 22.0954 15.3758 22.0803 15.3824 22.0631L16.0037 20.6756C16.0098 20.6545 16.022 20.6358 16.0385 20.6218C16.0551 20.6077 16.0754 20.599 16.0969 20.5966C16.1184 20.5942 16.14 20.5983 16.1592 20.6084C16.1784 20.6185 16.1942 20.6341 16.2047 20.6533Z" fill="url(#paint16_linear)"/>
<defs>
<linearGradient id="paint0_linear" x1="76.4232" y1="15.1846" x2="76.4232" y2="100.829" gradientUnits="userSpaceOnUse">
<stop stop-color="#5199FF"/>
<stop offset="1" stop-color="#0351C1"/>
</linearGradient>
<linearGradient id="paint1_linear" x1="91.6401" y1="3.37231" x2="91.6401" y2="7.84984" gradientUnits="userSpaceOnUse">
<stop stop-color="#5199FF"/>
<stop offset="1" stop-color="#0351C1"/>
</linearGradient>
<linearGradient id="paint2_linear" x1="92.7569" y1="13.5709" x2="93.5262" y2="13.602" gradientUnits="userSpaceOnUse">
<stop stop-color="#5199FF"/>
<stop offset="1" stop-color="#0351C1"/>
</linearGradient>
<linearGradient id="paint3_linear" x1="61.532" y1="0" x2="61.532" y2="117.685" gradientUnits="userSpaceOnUse">
<stop stop-color="#5199FF"/>
<stop offset="1" stop-color="#0351C1"/>
</linearGradient>
<linearGradient id="paint4_linear" x1="42.7768" y1="17.8595" x2="42.7768" y2="147.387" gradientUnits="userSpaceOnUse">
<stop stop-color="#5199FF"/>
<stop offset="1" stop-color="#0351C1"/>
</linearGradient>
<linearGradient id="paint5_linear" x1="42.8998" y1="21.0247" x2="42.8998" y2="119.1" gradientUnits="userSpaceOnUse">
<stop stop-color="#5199FF"/>
<stop offset="1" stop-color="#0351C1"/>
</linearGradient>
<linearGradient id="paint6_linear" x1="46.1517" y1="0" x2="46.1517" y2="136.056" gradientUnits="userSpaceOnUse">
<stop stop-color="#5199FF"/>
<stop offset="1" stop-color="#0351C1"/>
</linearGradient>
<linearGradient id="paint7_linear" x1="42.0265" y1="67.3195" x2="42.0265" y2="68.1022" gradientUnits="userSpaceOnUse">
<stop stop-color="#5199FF"/>
<stop offset="1" stop-color="#0351C1"/>
</linearGradient>
<linearGradient id="paint8_linear" x1="41.3355" y1="13.5887" x2="41.3355" y2="60.556" gradientUnits="userSpaceOnUse">
<stop stop-color="#5199FF"/>
<stop offset="1" stop-color="#0351C1"/>
</linearGradient>
<linearGradient id="paint9_linear" x1="29.3775" y1="38.2904" x2="29.3775" y2="80.1069" gradientUnits="userSpaceOnUse">
<stop stop-color="#5199FF"/>
<stop offset="1" stop-color="#0351C1"/>
</linearGradient>
<linearGradient id="paint10_linear" x1="57.2766" y1="40.5049" x2="57.2766" y2="72.9513" gradientUnits="userSpaceOnUse">
<stop stop-color="#5199FF"/>
<stop offset="1" stop-color="#0351C1"/>
</linearGradient>
<linearGradient id="paint11_linear" x1="56.9742" y1="45.6165" x2="56.9742" y2="67.2761" gradientUnits="userSpaceOnUse">
<stop stop-color="#5199FF"/>
<stop offset="1" stop-color="#0351C1"/>
</linearGradient>
<linearGradient id="paint12_linear" x1="33.8331" y1="19.4149" x2="33.8331" y2="29.3699" gradientUnits="userSpaceOnUse">
<stop stop-color="#5199FF"/>
<stop offset="1" stop-color="#0351C1"/>
</linearGradient>
<linearGradient id="paint13_linear" x1="42.6845" y1="18.8331" x2="42.6845" y2="28.7793" gradientUnits="userSpaceOnUse">
<stop stop-color="#5199FF"/>
<stop offset="1" stop-color="#0351C1"/>
</linearGradient>
<linearGradient id="paint14_linear" x1="51.524" y1="18.2384" x2="51.524" y2="28.1954" gradientUnits="userSpaceOnUse">
<stop stop-color="#5199FF"/>
<stop offset="1" stop-color="#0351C1"/>
</linearGradient>
<linearGradient id="paint15_linear" x1="24.9974" y1="20.0131" x2="24.9974" y2="29.9521" gradientUnits="userSpaceOnUse">
<stop stop-color="#5199FF"/>
<stop offset="1" stop-color="#0351C1"/>
</linearGradient>
<linearGradient id="paint16_linear" x1="16.1409" y1="20.5959" x2="16.1409" y2="30.5732" gradientUnits="userSpaceOnUse">
<stop stop-color="#5199FF"/>
<stop offset="1" stop-color="#0351C1"/>
</linearGradient>
</defs>
</svg>
