<svg width="118" height="48" viewBox="0 0 118 48" fill="none" xmlns="http://www.w3.org/2000/svg">
<path d="M9.12462 10.1212C8.58183 9.72884 7.98728 9.54552 6.9791 9.49315C6.51372 9.46696 6.25538 9.46696 5.86764 9.46696C5.76435 9.46696 5.71259 9.51934 5.71259 9.65003V15.8489C5.71259 17.5753 5.79024 18.0201 6.61724 18.3598C7.31508 18.6476 7.90964 18.6738 8.50419 18.6738C9.66765 18.6738 11.632 18.0458 11.632 15.3257C11.632 13.704 11.0892 11.5072 9.12462 10.1212ZM5.71259 8.0286C5.71259 8.23785 5.79024 8.29023 5.89352 8.31617C6.12621 8.36879 6.51396 8.39473 7.10851 8.39473C7.9614 8.39473 8.53031 8.29023 8.96957 7.8979C9.64057 7.34845 10.0295 6.40716 10.0295 5.12568C10.0295 3.37306 9.02134 1.07148 6.79817 1.07148C6.43631 1.07148 6.20362 1.07148 5.94528 1.12386C5.76411 1.17623 5.71259 1.28074 5.71259 1.56856V8.02884V8.0286ZM2.61042 7.58317C2.61042 3.60657 2.61042 2.87526 2.55866 2.03824C2.50689 1.14908 2.30008 0.730564 1.44719 0.547495C1.24038 0.495362 0.800157 0.468933 0.439015 0.468933C0.154799 0.468933 -0.000488281 0.416558 -0.000488281 0.233489C-0.000488281 0.05042 0.180441 -0.00171231 0.568183 -0.00219727C1.93822 -0.00219727 3.56683 0.0763646 4.08374 0.0763646C5.35025 0.0763646 6.35867 -0.00219777 7.23744 -0.00195529C11.9162 -0.00195529 12.7435 2.53507 12.7435 3.9213C12.7435 6.066 11.5285 7.34748 10.1074 8.49851C12.2273 9.23055 14.8121 11.0879 14.8121 14.1482C14.8121 16.9468 12.6665 19.85 7.91035 19.85C7.60026 19.85 6.85066 19.7976 6.10081 19.7715C5.32533 19.7193 4.54985 19.6929 4.1621 19.6929C3.87765 19.6929 3.30897 19.6929 2.68854 19.7191C2.09399 19.7191 1.42203 19.7712 0.904882 19.7712C0.569382 19.7712 0.387732 19.6926 0.387732 19.5096C0.387732 19.3789 0.491258 19.3003 0.801595 19.3003C1.11464 19.3005 1.42673 19.2654 1.73213 19.1958C2.24904 19.0911 2.37916 18.5169 2.48173 17.7572C2.6109 16.6588 2.6109 14.5924 2.6109 12.1861V7.58317H2.61042ZM18.3008 9.38791C18.3008 6.01387 18.3267 5.38707 18.2749 4.67977C18.2231 3.89511 18.0163 3.68562 17.2924 3.4766C17.1114 3.42398 16.7237 3.39804 16.4136 3.39804C16.1549 3.39804 16.0257 3.31956 16.0259 3.16259C16.0259 3.00571 16.1809 2.95334 16.5169 2.95334C17.7319 2.95334 19.257 3.00571 19.9289 3.00571C20.4978 3.00571 22.0229 2.95334 22.8502 2.95334C23.1857 2.95334 23.3412 3.00571 23.3412 3.16259C23.3412 3.31948 23.212 3.39804 22.9796 3.39804C22.721 3.39804 22.5918 3.42423 22.3086 3.4766C21.7138 3.58111 21.5331 3.89511 21.4811 4.67977C21.4296 5.38585 21.4296 6.01338 21.4296 9.38791V12.5013C21.4296 15.7444 22.05 17 23.1614 17.8891C24.1696 18.7002 25.2554 18.7783 26.0309 18.7783C27.0135 18.7783 28.1764 18.4907 29.0809 17.6013C30.3474 16.3981 30.3989 14.4627 30.3989 12.1871V9.38864C30.3989 6.01459 30.373 5.38779 30.3471 4.68049C30.2954 3.92203 30.1144 3.68634 29.3907 3.47733C29.2098 3.42471 28.822 3.39877 28.5635 3.39877C28.3049 3.39877 28.1748 3.32045 28.1748 3.16356C28.1748 3.00668 28.3298 2.95431 28.6402 2.95431C29.8034 2.95431 31.3285 3.00668 31.3543 3.00668C31.6132 3.00668 33.1382 2.95431 34.0168 2.95431C34.3271 2.95431 34.4824 3.00668 34.4824 3.16356C34.4824 3.32045 34.353 3.39901 34.0947 3.39901C33.8363 3.39901 33.7069 3.4252 33.4237 3.47757C32.8032 3.58208 32.6484 3.89608 32.5964 4.68073C32.5705 5.38682 32.5447 6.01435 32.5447 9.38888V11.7688C32.5432 14.2534 32.2851 16.87 30.3721 18.4645C28.7693 19.8246 27.0374 20.0598 25.5641 20.0598C24.3748 20.0598 22.0229 20.0076 20.3694 18.5431C19.2061 17.523 18.3013 15.8758 18.3013 12.6582V9.38864L18.3008 9.38791ZM36.6011 19.4844C36.2392 19.3277 36.1618 19.222 36.1618 18.7259C36.1618 17.5227 36.2651 16.1367 36.2907 15.7706C36.2907 15.4311 36.394 15.195 36.5752 15.195C36.782 15.195 36.8079 15.4042 36.8079 15.5613C36.8079 15.8489 36.8855 16.3198 37.0147 16.7121C37.506 18.361 39.212 18.9094 40.6333 18.9094C42.5984 18.9094 43.7868 17.6539 43.7868 16.0849C43.7868 15.1171 43.5538 14.1494 41.5377 12.946L40.2197 12.1614C37.5319 10.5656 36.6528 9.07439 36.6528 7.11301C36.6528 4.39292 39.2379 2.64054 42.3913 2.64054C43.8647 2.64054 45.0274 2.8498 45.6227 3.00668C45.8295 3.05882 45.9328 3.13738 45.9328 3.2945C45.9328 3.58232 45.8554 4.20985 45.8554 5.96173C45.8554 6.43238 45.7518 6.66782 45.5709 6.66782C45.4158 6.66782 45.3383 6.53705 45.3385 6.2755C45.3385 6.06624 45.2349 5.3861 44.7439 4.8107C44.4084 4.39243 43.6842 3.76466 42.2106 3.76466C40.582 3.76515 39.1094 4.62812 39.1094 6.14529C39.1094 7.13944 39.4713 7.92385 41.5133 9.07464L42.444 9.59766C45.4425 11.2707 46.3742 12.9719 46.3742 14.986C46.3742 16.6336 45.7535 17.9684 44.0993 19.1447C43.0137 19.9293 41.5142 20.0598 40.2995 20.0598C38.9815 20.0598 37.5853 19.9295 36.6032 19.4846L36.6011 19.4844ZM50.1977 9.38864C50.1977 6.01459 50.1977 5.38779 50.172 4.68049C50.1203 3.92203 49.8876 3.6604 49.3966 3.50352C49.138 3.42495 48.8535 3.39901 48.5693 3.39901C48.3369 3.39901 48.2072 3.34663 48.2072 3.13738C48.2072 3.00668 48.3881 2.95431 48.7502 2.95431C49.6034 2.95431 51.1541 3.00668 51.8004 3.00668C52.3693 3.00668 53.8427 2.95431 54.7217 2.95431C55.0059 2.95431 55.187 3.00668 55.187 3.13738C55.187 3.34663 55.0579 3.39901 54.8249 3.39901C54.592 3.39901 54.4116 3.42495 54.1539 3.47757C53.5335 3.58208 53.3526 3.89608 53.3008 4.68073C53.2493 5.38682 53.2493 6.01435 53.2493 9.38888V13.3121C53.2493 15.4568 53.2493 17.2354 53.3526 18.1772C53.4302 18.7785 53.5855 19.1187 54.2572 19.2232C54.5673 19.2758 55.0845 19.3018 55.4205 19.3018C55.679 19.3018 55.7823 19.4325 55.7823 19.5375C55.7823 19.6943 55.6014 19.7727 55.3428 19.7727C53.8436 19.7727 52.2926 19.6941 51.6722 19.6941C51.1553 19.6941 49.6043 19.7727 48.7006 19.7727C48.4162 19.7727 48.2611 19.6941 48.2611 19.5375C48.2611 19.4327 48.3388 19.3018 48.623 19.3018C48.9585 19.3018 49.2175 19.2756 49.4244 19.2232C49.8897 19.1187 50.0189 18.8049 50.0954 18.151C50.1986 17.2356 50.1986 15.4568 50.1986 13.3121V9.38864H50.1977ZM61.0557 16.7381C61.1072 18.4643 61.3912 18.9873 61.8311 19.1444C62.2189 19.2751 62.6584 19.3013 63.0202 19.3013C63.2788 19.3013 63.408 19.406 63.408 19.537C63.408 19.72 63.2012 19.7722 62.8911 19.7722C61.4178 19.7722 60.3576 19.6936 59.9435 19.6936C59.7367 19.6936 58.6511 19.7722 57.4879 19.7722C57.1775 19.7722 56.9709 19.7462 56.9709 19.537C56.9709 19.4063 57.126 19.3013 57.3328 19.3013C57.6431 19.3013 58.0565 19.2751 58.3671 19.1968C58.9614 19.0399 59.0381 18.4381 59.0649 16.5026L59.2718 3.32045C59.2718 2.87575 59.4268 2.56198 59.6595 2.56198C59.9437 2.56198 60.254 2.90145 60.642 3.2945C60.9265 3.58232 64.3388 7.11325 67.6473 10.3826C69.1985 11.9257 72.2228 15.0645 72.5599 15.3775H72.6632L72.4303 5.4906C72.4049 4.13056 72.1978 3.73823 71.6553 3.52898C71.3198 3.39828 70.776 3.39828 70.4659 3.39828C70.1817 3.39828 70.1038 3.29377 70.1038 3.16284C70.1038 2.97977 70.3365 2.95358 70.6725 2.95358C71.8616 2.95358 73.0766 3.00596 73.5679 3.00596C73.8264 3.00596 74.6791 2.95358 75.7908 2.95358C76.1011 2.95358 76.3077 2.97977 76.3077 3.16284C76.3077 3.29353 76.1785 3.39828 75.92 3.39828C75.687 3.39828 75.5063 3.39828 75.2219 3.47684C74.6014 3.65991 74.4205 4.05224 74.3946 5.30778L74.1361 19.327C74.1361 19.8238 73.9551 20.0331 73.774 20.0331C73.3862 20.0331 73.0761 19.7976 72.8434 19.562C71.4216 18.2283 68.5778 15.4818 66.2003 13.154C63.7188 10.7477 61.3147 8.05357 60.875 7.66125H60.7976L61.0564 16.7374L61.0557 16.7381ZM80.2877 9.38791C80.2877 6.01387 80.2877 5.38707 80.2616 4.67977C80.21 3.9213 80.0032 3.68562 79.279 3.4766C79.0983 3.42398 78.7106 3.39804 78.3746 3.39804C78.1417 3.39804 77.9869 3.31948 77.9869 3.16259C77.9869 3.00571 78.1678 2.95334 78.5038 2.95334C79.6929 2.95334 81.1399 3.00571 81.7869 3.00571C82.5106 3.00571 87.5513 3.03166 87.9908 3.00571C88.4044 2.97953 88.7662 2.90121 88.9472 2.87502C89.0766 2.84883 89.2057 2.77051 89.309 2.77051C89.4384 2.77051 89.4641 2.87502 89.4641 2.97977C89.4641 3.13665 89.3349 3.39852 89.2829 4.41838C89.2573 4.65382 89.2053 5.62154 89.154 5.88293C89.1281 5.98744 89.0763 6.24907 88.8954 6.24907C88.7404 6.24907 88.7142 6.14456 88.7142 5.96149C88.7142 5.80461 88.6886 5.41204 88.5594 5.15041C88.3783 4.75808 88.1973 4.44432 87.06 4.33957C86.6703 4.28792 83.9564 4.237 83.4912 4.237C83.3879 4.237 83.3362 4.31557 83.3362 4.44626V9.93785C83.3362 10.0688 83.3621 10.1735 83.4912 10.1735C84.0081 10.1735 86.9553 10.1735 87.4722 10.1214C88.0152 10.0688 88.3509 10.0167 88.5578 9.78194C88.7387 9.62481 88.8163 9.49412 88.9199 9.49412C89.0234 9.49412 89.1008 9.59863 89.1008 9.72981C89.1008 9.86098 89.0483 10.2262 88.9196 11.3505C88.8676 11.7952 88.8161 12.6841 88.8161 12.8413C88.8161 13.0243 88.7902 13.3383 88.5836 13.3383C88.4286 13.3383 88.3764 13.2598 88.3764 13.1553C88.3507 12.9196 88.3507 12.6322 88.2989 12.3442C88.1698 11.8992 87.8851 11.5598 87.0322 11.4812C86.6186 11.4286 84.0338 11.3765 83.4653 11.3765C83.3618 11.3765 83.3359 11.4812 83.3359 11.6121V13.3905C83.3359 14.1489 83.3103 16.032 83.3359 16.6859C83.3877 18.2036 84.0853 18.5431 86.412 18.5431C87.0065 18.5431 87.963 18.5169 88.5575 18.2552C89.1262 17.9936 89.3845 17.523 89.54 16.6076C89.592 16.3719 89.6436 16.2682 89.7989 16.2682C89.9798 16.2682 90.0057 16.556 90.0057 16.7912C90.0057 17.2883 89.8245 18.8054 89.6941 19.2499C89.5391 19.8253 89.3325 19.8253 88.4794 19.8253C86.7734 19.8253 85.4033 19.7991 84.2919 19.747C83.1802 19.7208 82.3268 19.6943 81.6558 19.6943C81.397 19.6943 80.906 19.7205 80.3634 19.7205C79.8204 19.7467 79.2517 19.7727 78.7863 19.7727C78.5021 19.7727 78.3468 19.6941 78.3468 19.5375C78.3468 19.4327 78.4245 19.3018 78.7089 19.3018C79.0444 19.3018 79.3032 19.2756 79.5103 19.2232C79.9757 19.1187 80.1046 18.7004 80.1813 18.0462C80.2848 17.1047 80.2848 15.3523 80.2848 13.3121V9.38864L80.2877 9.38791ZM92.8469 19.4844C92.485 19.3275 92.4074 19.2227 92.4074 18.7259C92.4074 17.5227 92.5107 16.1367 92.5368 15.7706C92.5368 15.4311 92.6401 15.195 92.821 15.195C93.0278 15.195 93.0537 15.4042 93.0537 15.5613C93.0537 15.8489 93.1316 16.3198 93.2607 16.7121C93.7515 18.361 95.458 18.9094 96.8793 18.9094C98.8444 18.9094 100.033 17.6539 100.033 16.0849C100.033 15.1171 99.8003 14.1494 97.784 12.946L96.466 12.1614C93.7784 10.5656 92.8994 9.07439 92.8994 7.11301C92.8994 4.39292 95.4844 2.64054 98.6381 2.64054C100.111 2.64054 101.274 2.8498 101.869 3.00668C102.076 3.05882 102.18 3.13738 102.18 3.2945C102.18 3.58232 102.102 4.20985 102.102 5.96173C102.102 6.43238 101.998 6.66782 101.817 6.66782C101.662 6.66782 101.585 6.53705 101.585 6.2755C101.585 6.06624 101.482 5.3861 100.99 4.8107C100.655 4.39243 99.9307 3.76466 98.4572 3.76466C96.8276 3.76466 95.355 4.62763 95.355 6.14456C95.355 7.13871 95.7168 7.92312 97.7591 9.07391L98.6896 9.59693C101.688 11.27 102.62 12.9712 102.62 14.9852C102.62 16.6328 101.999 17.9677 100.345 19.1439C99.2595 19.9286 97.7603 20.059 96.545 20.059C95.227 20.059 93.8311 19.9288 92.8488 19.4839L92.8469 19.4844ZM105.721 19.4839C105.36 19.327 105.282 19.2222 105.282 18.7254C105.282 17.5222 105.385 16.1363 105.411 15.7701C105.411 15.4307 105.514 15.1945 105.696 15.1945C105.902 15.1945 105.928 15.4037 105.928 15.5609C105.928 15.8484 106.006 16.3193 106.135 16.7116C106.626 18.3605 108.332 18.909 109.753 18.909C111.718 18.909 112.907 17.6534 112.907 16.0844C112.907 15.1166 112.675 14.1489 110.658 12.9455L109.34 12.1609C106.651 10.5656 105.772 9.07439 105.772 7.11301C105.772 4.39292 108.357 2.64054 111.511 2.64054C112.984 2.64054 114.147 2.8498 114.742 3.00668C114.949 3.05882 115.052 3.13738 115.052 3.2945C115.052 3.58232 114.975 4.20985 114.975 5.96173C114.975 6.43238 114.871 6.66782 114.69 6.66782C114.535 6.66782 114.457 6.53705 114.458 6.2755C114.458 6.06624 114.354 5.3861 113.863 4.8107C113.528 4.39243 112.803 3.76466 111.33 3.76466C109.7 3.76466 108.228 4.62763 108.228 6.14456C108.228 7.13871 108.589 7.92312 110.632 9.07391L111.562 9.59693C114.561 11.27 115.492 12.9712 115.492 14.9852C115.492 16.6328 114.872 17.9677 113.217 19.1439C112.132 19.9286 110.633 20.059 109.417 20.059C108.099 20.059 106.703 19.9288 105.721 19.4839ZM3.66988 35.5229C3.66988 31.5463 3.66988 30.815 3.61811 29.978C3.56635 29.0886 3.30778 28.6444 2.73934 28.5132C2.45489 28.4346 2.11891 28.4084 1.80881 28.4084C1.55024 28.4084 1.39519 28.3563 1.39519 28.1473C1.39519 27.9902 1.602 27.9378 2.01562 27.9378C2.99816 27.9378 4.62629 28.0164 5.37613 28.0164C6.02317 28.0164 7.54753 27.9378 8.52959 27.9378C8.86509 27.9378 9.07262 27.9902 9.07262 28.1473C9.07262 28.3563 8.91757 28.4084 8.659 28.4084C8.40042 28.4084 8.19361 28.4346 7.88351 28.4875C7.18567 28.6179 6.97886 29.0629 6.9271 29.9782C6.87534 30.8152 6.87534 31.5473 6.87534 35.5232V40.1263C6.87534 42.6633 6.87534 44.73 6.97862 45.8543C7.05627 46.5604 7.2372 47.031 8.01292 47.1358C8.37478 47.1879 8.94345 47.2403 9.33096 47.2403C9.61541 47.2403 9.74458 47.3189 9.74458 47.4496C9.74458 47.6326 9.53777 47.7112 9.25355 47.7112C7.5473 47.7112 5.91892 47.6326 5.22084 47.6326C4.62629 47.6326 2.99792 47.7112 1.96386 47.7112C1.62836 47.7112 1.44695 47.6326 1.44695 47.4496C1.44695 47.3189 1.55024 47.2403 1.86058 47.2403C2.1737 47.2404 2.48586 47.2053 2.79135 47.1358C3.30826 47.031 3.46235 46.5863 3.54095 45.8279C3.67012 44.7297 3.67012 42.6631 3.67012 40.1261V35.5229H3.66988ZM16.8265 44.6771C16.8783 46.4033 17.162 46.9263 17.602 47.0834C17.9897 47.2141 18.4292 47.2403 18.7911 47.2403C19.0497 47.2403 19.1788 47.3448 19.1788 47.476C19.1788 47.6591 18.972 47.7112 18.6619 47.7112C17.1886 47.7112 16.1287 47.6326 15.7143 47.6326C15.5075 47.6326 14.4219 47.7112 13.2587 47.7112C12.9484 47.7112 12.7418 47.685 12.7418 47.476C12.7418 47.3451 12.8968 47.2403 13.1036 47.2403C13.414 47.2403 13.8274 47.2141 14.1377 47.1358C14.7323 46.9789 14.8087 46.3773 14.8355 44.4419L15.0424 31.2597C15.0424 30.815 15.1974 30.5012 15.4301 30.5012C15.7146 30.5012 16.0247 30.8407 16.4126 31.2333C16.6971 31.5211 20.1094 35.052 23.4179 38.3213C24.9688 39.8644 27.9934 43.003 28.3293 43.3163H28.4326L28.2011 33.4311C28.175 32.0701 27.9684 31.678 27.4254 31.4685C27.0899 31.338 26.5466 31.338 26.2363 31.338C25.9521 31.338 25.8744 31.2333 25.8744 31.1023C25.8744 30.9193 26.1074 30.8931 26.4431 30.8931C27.6322 30.8931 28.8472 30.9457 29.3382 30.9457C29.5968 30.9457 30.4497 30.8931 31.5614 30.8931C31.8715 30.8931 32.0783 30.9193 32.0783 31.1023C32.0783 31.233 31.9489 31.338 31.6906 31.338C31.4576 31.338 31.2769 31.338 30.9925 31.4163C30.3721 31.5997 30.1911 31.992 30.1652 33.2473L29.9071 47.2665C29.9071 47.7633 29.7265 47.9726 29.5455 47.9726C29.1578 47.9726 28.8477 47.7374 28.6148 47.5015C27.1932 46.1678 24.3491 43.4213 21.9714 41.0935C19.4896 38.6875 17.0863 35.9933 16.646 35.6012H16.5684L16.827 44.6771H16.8265ZM36.9886 47.4234C36.627 47.2665 36.5491 47.1615 36.5491 46.6647C36.5491 45.4615 36.6524 44.0755 36.6782 43.7094C36.6782 43.3699 36.7815 43.134 36.9627 43.134C37.1695 43.134 37.1954 43.3432 37.1954 43.5001C37.1954 43.7879 37.273 44.2588 37.4022 44.6509C37.8932 46.2997 39.5995 46.8477 41.0208 46.8477C42.9859 46.8477 44.1743 45.5924 44.1743 44.0231C44.1743 43.0557 43.9416 42.0877 41.9255 40.8848L40.6074 40.1001C37.9191 38.5044 37.0404 37.0136 37.0404 35.052C37.0404 32.3319 39.6251 30.5796 42.7788 30.5796C44.2524 30.5796 45.4149 30.7888 46.0102 30.9459C46.217 30.9983 46.3205 31.0766 46.3205 31.2335C46.3205 31.5213 46.2429 32.1489 46.2429 33.9007C46.2429 34.3716 46.1396 34.6068 45.9584 34.6068C45.8034 34.6068 45.7259 34.4761 45.7257 34.2145C45.7257 34.0053 45.6224 33.3254 45.1312 32.75C44.7957 32.3314 44.0715 31.7039 42.5979 31.7039C40.9683 31.7039 39.496 32.5669 39.496 34.0841C39.496 35.0782 39.8578 35.8629 41.8998 37.0134L42.8306 37.5364C45.8292 39.2095 46.7607 40.9105 46.7607 42.9242C46.7607 44.5731 46.1403 45.9067 44.486 47.0829C43.4005 47.8676 41.901 47.9983 40.686 47.9983C39.368 47.9983 37.9723 47.8676 36.9898 47.4229L36.9886 47.4234ZM52.7583 37.3267C52.7583 33.9526 52.7583 33.3258 52.7326 32.6188C52.6809 31.8603 52.4482 31.5987 51.9571 31.4418C51.6986 31.3632 51.4141 31.3373 51.1299 31.3373C50.897 31.3373 50.7678 31.2847 50.7678 31.0757C50.7678 30.945 50.9487 30.8924 51.3108 30.8924C52.164 30.8924 53.7147 30.945 54.361 30.945C54.9299 30.945 56.403 30.8924 57.2822 30.8924C57.5665 30.8924 57.7476 30.945 57.7476 31.0757C57.7476 31.2849 57.6185 31.3373 57.3855 31.3373C57.1526 31.3373 56.9721 31.3635 56.7145 31.4156C56.0941 31.5204 55.9132 31.8344 55.8614 32.6188C55.8099 33.3251 55.8099 33.9524 55.8099 37.3267V41.2509C55.8099 43.3959 55.8099 45.1742 55.9132 46.1159C55.9908 46.7175 56.1461 47.0575 56.8178 47.162C57.1279 47.2146 57.6451 47.2405 57.981 47.2405C58.2396 47.2405 58.3427 47.3712 58.3427 47.4762C58.3427 47.6331 58.162 47.7114 57.9032 47.7114C56.4039 47.7114 54.853 47.6329 54.2326 47.6329C53.7156 47.6329 52.1647 47.7114 51.261 47.7114C50.9765 47.7114 50.8215 47.6329 50.8215 47.4762C50.8215 47.3715 50.8991 47.2405 51.1836 47.2405C51.5191 47.2405 51.7779 47.2144 51.9849 47.162C52.4503 47.0575 52.5795 46.7437 52.6559 46.0898C52.7592 45.1744 52.7592 43.3959 52.7592 41.2512V37.3274L52.7583 37.3267ZM67.416 39.7861C67.416 42.1403 67.4419 43.8403 67.4678 44.285C67.4934 44.8345 67.5457 45.6186 67.7263 45.8543C68.0108 46.2728 68.9155 46.7435 70.6979 46.7435C72.7658 46.7435 74.2911 46.3776 75.6611 45.2265C77.1345 43.9974 77.6001 42.0094 77.6001 39.708C77.6001 36.8834 76.4884 35.0525 75.4802 34.1631C73.3862 32.2798 70.9047 32.0446 69.1213 32.0446C68.6557 32.0446 67.9061 32.0967 67.7251 32.2015C67.5183 32.28 67.4407 32.3848 67.4407 32.6462C67.4148 33.4049 67.4148 35.2358 67.4148 36.9879V39.7864L67.416 39.7861ZM64.363 37.3274C64.363 33.9534 64.363 33.3266 64.3368 32.6195C64.2851 31.861 64.0783 31.6254 63.3543 31.4163C63.1731 31.3642 62.7854 31.338 62.4497 31.338C62.217 31.338 62.0619 31.2595 62.0619 31.1023C62.0619 30.9452 62.2428 30.8931 62.5788 30.8931C63.7679 30.8931 65.2149 30.9457 65.8619 30.9457C66.5598 30.9457 68.1884 30.8931 69.5587 30.8931C72.402 30.8931 76.2277 30.8931 78.7092 33.4301C79.847 34.5811 80.8552 36.4378 80.8552 39.0808C80.8552 41.8794 79.6661 43.9979 78.3737 45.2794C77.3398 46.3254 74.9355 47.8947 70.748 47.8947C69.9208 47.8947 68.9387 47.8162 68.034 47.7638C67.1294 47.6852 66.3019 47.6331 65.7335 47.6331C65.4749 47.6331 64.9836 47.6593 64.4411 47.6593C63.8983 47.6852 63.3294 47.7114 62.864 47.7114C62.5798 47.7114 62.4247 47.6329 62.4247 47.4762C62.4247 47.3715 62.5024 47.2405 62.7864 47.2405C63.1219 47.2405 63.3809 47.2144 63.588 47.162C64.0533 47.0575 64.1825 46.6392 64.259 45.9853C64.3622 45.0437 64.3622 43.2913 64.3622 41.2512V37.3279L64.363 37.3274ZM86.6696 37.3279C86.6696 33.9538 86.6696 33.3271 86.6437 32.62C86.592 31.8615 86.3854 31.6258 85.6612 31.4168C85.4805 31.3647 85.0925 31.3385 84.7565 31.3385C84.5241 31.3385 84.3688 31.2599 84.3688 31.1028C84.3688 30.9457 84.55 30.8936 84.8857 30.8936C86.0748 30.8936 87.5218 30.9462 88.1688 30.9462C88.8925 30.9462 93.9332 30.9721 94.3727 30.9462C94.7865 30.92 95.1482 30.8417 95.3291 30.8155C95.4585 30.7891 95.5877 30.7107 95.6912 30.7107C95.8204 30.7107 95.8462 30.8155 95.8462 30.92C95.8462 31.0769 95.7171 31.3388 95.6651 32.3586C95.6394 32.5938 95.5874 33.5618 95.5359 33.8232C95.51 33.9277 95.4585 34.1895 95.2773 34.1895C95.1223 34.1895 95.0962 34.085 95.0962 33.9017C95.0962 33.7448 95.0703 33.3525 94.9411 33.0909C94.7599 32.6986 94.579 32.3848 93.4419 32.28C93.0542 32.2277 90.34 32.1755 89.8746 32.1755C89.7713 32.1755 89.7195 32.2539 89.7195 32.3848V37.8773C89.7195 38.008 89.7454 38.1125 89.8746 38.1125C90.3915 38.1125 93.3386 38.1126 93.8555 38.0604C94.3981 38.008 94.7343 37.9559 94.9411 37.721C95.1223 37.5641 95.1997 37.4331 95.3032 37.4331C95.4067 37.4331 95.4839 37.5376 95.4839 37.6683C95.4839 37.799 95.4319 38.1652 95.3032 39.29C95.251 39.7347 95.1995 40.6236 95.1995 40.781C95.1995 40.9638 95.1736 41.2781 94.967 41.2781C94.8117 41.2781 94.7597 41.1995 94.7597 41.0948C94.7338 40.8596 94.7338 40.5717 94.6823 40.2839C94.5531 39.8392 94.2684 39.4993 93.4158 39.4207C93.0024 39.3683 90.4171 39.3162 89.8487 39.3162C89.7449 39.3162 89.7193 39.4207 89.7193 39.5516V41.3302C89.7193 42.0887 89.6934 43.9717 89.7193 44.6257C89.7713 46.1426 90.4689 46.4826 92.7956 46.4826C93.3899 46.4826 94.3466 46.4564 94.9411 46.1948C95.5098 45.9336 95.7686 45.4625 95.9237 44.5471C95.9757 44.3117 96.0269 44.2077 96.1825 44.2077C96.3632 44.2077 96.3893 44.4952 96.3893 44.7307C96.3893 45.2273 96.2081 46.7432 96.0777 47.1889C95.9227 47.7643 95.7161 47.7643 94.8632 47.7643C93.157 47.7643 91.7869 47.7383 90.6757 47.6857C89.564 47.6598 88.7106 47.6336 88.0396 47.6336C87.7808 47.6336 87.2898 47.6598 86.7473 47.6598C86.2045 47.6857 85.6358 47.7119 85.1699 47.7119C84.886 47.7119 84.7309 47.6334 84.7309 47.4767C84.7309 47.372 84.8083 47.241 85.0925 47.241C85.428 47.241 85.6873 47.2148 85.8939 47.1625C86.3593 47.058 86.4884 46.6397 86.5649 45.9857C86.6682 45.0444 86.6682 43.2921 86.6682 41.2519V37.3286L86.6696 37.3279ZM105.021 39.0551C105.021 39.2903 105.073 39.3688 105.228 39.4474C105.719 39.6045 106.391 39.6566 106.96 39.6566C107.865 39.6566 108.175 39.5781 108.562 39.2903C109.26 38.7934 110.036 37.8257 110.036 35.9948C110.036 32.8562 107.916 32.0453 106.572 32.0453C106.003 32.0453 105.461 32.0713 105.228 32.1239C105.073 32.1763 105.021 32.2543 105.021 32.4377V39.0551ZM102.126 37.3286C102.126 33.9546 102.126 33.3278 102.1 32.6207C102.048 31.8623 101.842 31.6266 101.118 31.4176C100.937 31.3654 100.549 31.3392 100.213 31.3392C99.9806 31.3392 99.8255 31.2607 99.8255 31.1035C99.8255 30.9464 100.006 30.8943 100.342 30.8943C101.532 30.8943 102.978 30.9469 103.444 30.9469C104.22 30.9469 106.288 30.8943 106.986 30.8943C108.433 30.8943 110.088 31.0252 111.303 31.8361C111.95 32.2808 112.905 33.4054 112.905 34.8961C112.905 36.5449 111.975 38.0085 109.752 39.8133C111.768 42.3241 113.37 44.3384 114.741 45.7243C116.007 47.0058 116.809 47.1106 117.171 47.1889C117.404 47.2413 117.533 47.2413 117.714 47.2413C117.895 47.2413 117.998 47.372 117.998 47.477C117.998 47.66 117.843 47.7122 117.559 47.7122H115.387C114.121 47.7122 113.5 47.5815 112.906 47.2675C111.923 46.7706 111.071 45.7243 109.804 43.9982C108.899 42.795 107.943 41.304 107.658 40.9641C107.529 40.8334 107.399 40.8072 107.244 40.8072L105.202 40.7551C105.099 40.7551 105.021 40.8072 105.021 40.9381V41.2519C105.021 43.318 105.047 45.0444 105.151 45.986C105.228 46.6407 105.332 47.0584 106.029 47.1627C106.365 47.2153 106.857 47.2413 107.141 47.2413C107.322 47.2413 107.425 47.372 107.425 47.477C107.425 47.6338 107.244 47.7122 106.96 47.7122C105.642 47.7122 103.754 47.6336 103.419 47.6336C102.979 47.6336 101.532 47.7122 100.627 47.7122C100.343 47.7122 100.187 47.6336 100.187 47.477C100.187 47.3722 100.265 47.2413 100.549 47.2413C100.885 47.2413 101.144 47.2151 101.351 47.1627C101.816 47.0582 101.945 46.6399 102.022 45.986C102.125 45.0444 102.125 43.2921 102.125 41.2519V37.3286" fill="#1B1B1B"/>
</svg>
