<svg width="129" height="32" viewBox="0 0 129 32" fill="none" xmlns="http://www.w3.org/2000/svg">
<path d="M78.5845 9.09963C76.509 9.09963 74.8788 9.54041 73.2477 10.4203C73.2477 5.7234 73.2477 1.4673 73.3966 0L63.4618 1.76059V2.64131L64.4996 2.78795C65.8327 3.08124 66.2797 3.81447 66.5734 5.57675C66.8722 9.09963 66.7224 27.888 66.5734 30.9709C69.2422 31.5584 72.0601 31.9992 74.8779 31.9992C82.7364 31.9992 87.4807 27.1548 87.4807 19.5216C87.4807 13.5041 83.626 9.09963 78.5845 9.09963ZM75.1742 30.3835C74.5808 30.3835 73.8385 30.3835 73.3949 30.2377C73.2459 28.183 73.0987 19.5216 73.2459 11.8893C74.1356 11.5951 74.7281 11.4485 75.4704 11.4485C78.7344 11.4485 80.5136 15.2647 80.5136 19.9607C80.5127 25.8341 78.2883 30.3835 75.1742 30.3835ZM26.0961 0.586581H0V1.90723L1.48299 2.05388C3.4095 2.34717 4.15184 3.52118 4.44724 6.30998C4.89334 11.5943 4.74435 21.1364 4.44724 25.6849C4.15099 28.4746 3.41035 29.7961 1.48299 29.941L0 30.236V31.41H16.7547V30.236L14.9754 29.941C13.048 29.7952 12.3066 28.4746 12.0103 25.6849C11.8613 23.776 11.7132 20.6931 11.7132 16.8778L15.2717 17.0244C17.4961 17.0244 18.533 18.7858 18.9783 21.2805H20.3131V10.8619H18.9783C18.5322 13.3574 17.4961 15.118 15.2717 15.118L11.714 15.2655C11.714 10.2745 11.8622 5.5776 12.0112 2.7888H17.1999C21.2045 2.7888 23.28 5.28346 24.7621 9.6879L26.2451 9.24712L26.0961 0.586581Z" fill="#1B1B1B"/>
<path d="M34.548 8.80632C41.962 8.80632 45.6686 13.7973 45.6686 20.4023C45.6686 26.714 41.5168 32 34.1027 32C26.6895 32 22.9829 27.0081 22.9829 20.4023C22.9829 14.0906 27.1339 8.80632 34.548 8.80632ZM34.1027 10.2745C30.8405 10.2745 29.9509 14.6781 29.9509 20.4023C29.9509 25.9799 31.4339 30.5301 34.3998 30.5301C37.8076 30.5301 38.699 26.1266 38.699 20.4023C38.699 14.8247 37.2177 10.2745 34.1027 10.2745ZM89.4073 20.5498C89.4073 14.5314 93.262 8.80632 100.824 8.80632C107.05 8.80632 110.017 13.3574 110.017 19.3749H96.2271C96.0782 24.8059 98.747 28.7696 104.086 28.7696C106.458 28.7696 107.644 28.1838 109.128 27.1556L109.72 27.8888C108.237 29.9436 104.975 32 100.824 32C94.1516 31.9991 89.4073 27.3023 89.4073 20.5498ZM96.2271 17.761L103.196 17.6135C103.196 14.6781 102.751 10.2745 100.231 10.2745C97.711 10.2745 96.3744 14.3839 96.2271 17.761ZM127.664 9.98118C125.884 9.24626 123.513 8.80632 120.844 8.80632C115.359 8.80632 111.947 12.0351 111.947 15.8521C111.947 19.6691 114.465 21.283 118.028 22.4579C121.733 23.7777 122.772 24.8059 122.772 26.5673C122.772 28.3288 121.437 29.9427 119.064 29.9427C116.248 29.9427 114.171 28.3288 112.541 23.9243L111.502 24.2193L111.651 30.6776C113.43 31.4109 116.692 31.9991 119.51 31.9991C125.293 31.9991 129 29.062 129 24.5126C129 21.4297 127.368 19.6691 123.513 18.2001C119.361 16.5861 117.879 15.5588 117.879 13.6499C117.879 11.7418 119.216 10.4203 120.995 10.4203C123.662 10.4203 125.442 12.0351 126.778 15.9987L127.815 15.7054L127.664 9.98118ZM64.9432 9.39375C62.4233 7.9273 57.9743 8.65968 55.6026 13.9448L55.7499 8.80717L45.8168 10.7153V11.596L46.8545 11.7426C48.1902 11.8901 48.7819 12.6233 48.9309 14.5323C49.2271 18.0551 49.079 24.221 48.9309 27.3031C48.7819 29.0628 48.1902 29.9436 46.8545 30.0911L45.8168 30.2386V31.4126H59.6055V30.2386L57.8262 30.0911C56.3441 29.9436 55.8988 29.0628 55.7499 27.3031C55.4536 24.5135 55.4536 18.9359 55.6026 15.413C56.3432 14.3848 59.6055 13.5049 62.5706 15.413L64.9432 9.39375Z" fill="#1B1B1B"/>
</svg>
