<svg width="120" height="23" viewBox="0 0 120 23" fill="none" xmlns="http://www.w3.org/2000/svg">
<path d="M11.4313 22.2812C17.386 22.2812 22.2132 17.5001 22.2132 11.6022C22.2132 5.70428 17.386 0.923096 11.4313 0.923096C5.47663 0.923096 0.649414 5.70428 0.649414 11.6022C0.649414 17.5001 5.47663 22.2812 11.4313 22.2812Z" fill="#1EA3FF"/>
<path d="M26.9844 13.2394V5.64868H30.403V12.2347C30.403 13.5371 30.5533 14.8022 32.2814 14.8022C34.0095 14.8022 34.1598 13.5371 34.1598 12.2347V5.64868H37.5784V13.2022C37.5784 16.1417 35.7001 17.7417 32.2814 17.7417C28.7876 17.7789 26.9844 16.1417 26.9844 13.2394Z" fill="#1A1A1A"/>
<path d="M38.48 16.03L40.133 13.7603C40.734 14.5045 41.7859 15.137 42.9505 15.137C43.8521 15.137 44.3781 14.7649 44.3781 14.0579C44.3781 13.2393 43.6267 12.9789 42.3119 12.6068C40.5838 12.0859 39.0435 11.1928 39.0435 9.14632C39.0435 6.91376 40.9219 5.38818 43.5516 5.38818C45.3924 5.38818 46.7448 5.94632 47.6465 6.76493L46.1062 9.03469C45.6178 8.47655 44.7913 7.99283 43.7394 7.99283C42.8378 7.99283 42.4621 8.36493 42.4621 8.81144C42.4621 9.55562 43.3638 9.74167 44.3405 10.0766C46.294 10.6719 47.7967 11.5649 47.7967 13.7603C47.7967 16.03 46.1438 17.7417 43.1384 17.7417C40.9219 17.7789 39.2313 16.8486 38.48 16.03Z" fill="#1A1A1A"/>
<path d="M52.38 5.64868H56.1367L60.6073 17.5184H57.0383L56.4748 15.8068H51.9667L51.4032 17.5184H47.9094C47.947 17.5184 52.38 5.64868 52.38 5.64868ZM55.6108 13.1278L54.6716 10.2626C54.4837 9.70449 54.3335 8.99752 54.2583 8.47659H54.1456C54.0705 8.99752 53.9202 9.70449 53.7324 10.2626L52.7932 13.1278H55.6108Z" fill="#1A1A1A"/>
<path d="M65.5662 8.40217H62.5984V5.64868H71.9527V8.40217H68.9849V17.5184H65.5662V8.40217Z" fill="#1A1A1A"/>
<path d="M72.1782 11.6022C72.1782 8.66262 74.282 5.42542 78.7525 5.42542C83.2231 5.42542 85.3269 8.69983 85.3269 11.6022C85.3269 14.5045 83.2231 17.7417 78.7525 17.7417C74.282 17.7789 72.1782 14.5417 72.1782 11.6022ZM81.8331 11.6022C81.8331 9.48123 80.4431 8.36495 78.7525 8.36495C77.0996 8.36495 75.7096 9.48123 75.7096 11.6022C75.7096 13.7231 77.0996 14.8022 78.7525 14.8022C80.4055 14.8022 81.8331 13.7231 81.8331 11.6022Z" fill="#1A1A1A"/>
<path d="M86.5664 5.64868H90.9994C95.2445 5.64868 97.6488 7.88124 97.6488 11.6022C97.6488 15.2487 95.1694 17.5557 90.9994 17.5557H86.5664V5.64868ZM90.0226 14.8022H90.774C92.9905 14.8022 94.1551 13.7603 94.1551 11.6022C94.1551 9.44403 92.9905 8.40217 90.774 8.40217H90.0226V14.8022Z" fill="#1A1A1A"/>
<path d="M101.631 5.64868H105.388L109.858 17.5184H106.29L105.726 15.8068H101.218L100.654 17.5184H97.1606C97.1982 17.5184 101.631 5.64868 101.631 5.64868ZM104.862 13.1278L103.923 10.2626C103.735 9.70449 103.585 8.99752 103.51 8.47659H103.397C103.322 8.99752 103.171 9.70449 102.984 10.2626L102.044 13.1278H104.862Z" fill="#1A1A1A"/>
<path d="M111.511 13.3138L107.041 5.68591H110.798L112.413 8.62545C112.751 9.25801 113.239 10.1882 113.352 10.8208H113.427C113.54 10.1882 113.991 9.25801 114.366 8.62545L115.982 5.68591H119.626L115.155 13.3138V17.5557H111.549V13.3138H111.511Z" fill="#1A1A1A"/>
</svg>
