<svg width="143" height="32" viewBox="0 0 143 32" fill="none" xmlns="http://www.w3.org/2000/svg">
<path d="M73.7487 31.8616H72.3637L72.2766 31.7694V30.4636C72.2766 29.5189 72.3499 28.6083 72.3499 28.6083H72.3142C72.2515 28.9166 72.1703 29.2207 72.0709 29.5189L71.5386 30.9992L71.3665 31.1175H70.4108L70.2308 30.9992L69.7104 29.4848C69.6113 29.2003 69.528 28.9103 69.4611 28.6163H69.4334C69.4334 28.6163 69.5204 29.4848 69.5204 30.4496V31.7774L69.4215 31.8697H68.0167L67.9336 31.7774V25.6197L68.0167 25.5194H69.4947L69.6035 25.5776L70.7907 28.6645L70.8976 29.0656H70.947L71.0697 28.6645L72.2074 25.5776L72.3142 25.5194H73.7586L73.8516 25.6197V31.7774" fill="#1B1B1B"/>
<path d="M82.2885 31.7272L80.2189 25.5695L80.1338 25.5114H79.0436L78.9506 25.5695L76.875 31.7272L76.972 31.8576H78.5034L78.5944 31.7894L78.8635 31.0412L78.9783 30.965H80.1654L80.302 31.0412L80.5493 31.7894L80.6383 31.8576H82.2014L82.2885 31.7272ZM79.9636 29.6854L79.8686 29.7716H79.2968L79.1999 29.6854L79.372 28.8991C79.5046 28.2974 79.5897 27.6595 79.5897 27.6595H79.6134C79.6134 27.6595 79.6846 28.3074 79.8113 28.8991L79.9636 29.6854Z" fill="#1B1B1B"/>
<path d="M90.1711 26.9093L88.9365 27.489L88.7505 27.4168C88.5427 27.0477 88.3251 26.8451 88.0362 26.8451H87.3318C86.9935 26.8451 86.8035 27.0156 86.8035 27.2684V30.1045L87.3318 30.5057H88.0223L88.5091 30.1045V29.6853L88.3864 29.589H87.6523L87.5594 29.4787V28.4116L87.6523 28.3073H90.0761L90.1612 28.4116V30.1065C90.1612 31.2839 89.3876 31.9979 88.0303 31.9979H87.3397C85.9547 31.9979 85.187 31.2679 85.187 30.1065V27.2784C85.187 26.1311 85.9943 25.3829 87.3397 25.3829H88.1153C89.1046 25.3829 89.6982 25.7841 90.2028 26.7348" fill="#1B1B1B"/>
<path d="M98.4199 31.7272L96.3464 25.5695L96.2652 25.5114H95.1711L95.0761 25.5695L92.9946 31.7272L93.0936 31.8576H94.619L94.714 31.7894L94.9831 31.0412L95.1058 30.965H96.2929L96.4255 31.0412L96.6807 31.7894L96.7698 31.8576H98.3368L98.4199 31.7272ZM96.0951 29.6854L95.9962 29.7716H95.4283L95.3333 29.6854L95.4975 28.8991C95.6321 28.2974 95.7172 27.6595 95.7172 27.6595H95.7429C95.7429 27.6595 95.8161 28.3074 95.9408 28.8991L96.0951 29.6854Z" fill="#1B1B1B"/>
<path d="M103.451 30.2289L103.556 30.3753H105.483L105.578 30.4736V31.7673L105.483 31.8616H101.01L100.929 31.7272L103.23 27.13L103.121 26.9856H101.388L101.289 26.9034V25.6076L101.388 25.5114H105.654L105.749 25.6497" fill="#1B1B1B"/>
<path d="M110.555 31.8616H109.083L108.998 31.7673V25.6116L109.083 25.5114H110.555L110.66 25.6116V31.7673" fill="#1B1B1B"/>
<path d="M119.045 31.8616H117.8L117.686 31.7774L116.21 28.9914L116.012 28.5321H115.972C115.972 28.5321 116.036 29.3344 116.036 30.1587V31.7634L115.925 31.8556H114.498L114.413 31.7634V25.6057L114.498 25.5054H115.749L115.883 25.5956L117.349 28.4298L117.563 28.9192H117.605C117.605 28.9192 117.557 28.1349 117.557 27.2404V25.6057L117.638 25.5054H119.045L119.14 25.6057V31.7634" fill="#1B1B1B"/>
<path d="M127.102 31.8616H122.967L122.885 31.7673V25.6116L122.967 25.5114H127.102L127.209 25.6116V26.9034L127.102 26.9856H124.668L124.548 27.0959V27.7999L124.668 27.9062H126.665L126.775 27.9925V29.2982L126.665 29.3805H124.668L124.548 29.4908V30.267L124.668 30.3753H127.102L127.209 30.4736V31.7673" fill="#1B1B1B"/>
<path d="M130.846 28.0647C130.612 28.3338 130.321 28.5451 129.995 28.6825L129.832 28.6444L129.401 27.8541L129.462 27.7438L129.945 27.1541L129.803 27.0718H129.72L129.591 26.9615V25.6217L129.72 25.5114H131.182L131.305 25.6217V26.5664C131.305 27.2002 131.168 27.6896 130.855 28.0647" fill="#1B1B1B"/>
<path d="M135.367 32H135.068C134.658 32.0192 134.251 31.9239 133.891 31.7244C133.532 31.5248 133.233 31.2288 133.028 30.8687L133.042 30.6581L134.082 29.9561L134.28 29.9802C134.341 30.135 134.445 30.2681 134.581 30.3627C134.716 30.4574 134.876 30.5092 135.04 30.5117H135.353L135.867 30.0444C135.867 29.6011 135.367 29.5389 134.704 29.3083C133.633 28.9252 133.042 28.4839 133.042 27.3687C133.042 26.1251 133.865 25.377 135.218 25.377H135.361C136.318 25.377 137.013 25.7962 137.401 26.4942L137.387 26.7128L136.352 27.4168L136.154 27.3787C135.972 27.0337 135.731 26.8492 135.394 26.8492H135.224C134.917 26.8492 134.724 26.9956 134.724 27.3165C134.724 27.7177 135.329 27.8581 135.828 28.0165C136.993 28.3916 137.549 28.877 137.549 30.0103C137.549 31.2478 136.773 32 135.372 32" fill="#1B1B1B"/>
<path d="M138.62 21.3173V20.8219H138.946L139.294 21.0606L138.912 21.3213L138.62 21.3173ZM138.625 21.5219H138.899L139.314 22.2219H139.585L139.138 21.5139L139.534 21.0726C139.534 20.7537 139.35 20.6173 138.98 20.6173H138.374V22.2219H138.616L138.625 21.5219ZM138.914 22.8116C139.188 22.8116 139.456 22.7293 139.684 22.575C139.912 22.4207 140.089 22.2014 140.194 21.9449C140.299 21.6883 140.326 21.406 140.273 21.1337C140.219 20.8613 140.087 20.6111 139.894 20.4148C139.7 20.2184 139.453 20.0847 139.185 20.0305C138.916 19.9763 138.637 20.0041 138.384 20.1104C138.131 20.2167 137.915 20.3966 137.763 20.6275C137.611 20.8584 137.529 21.1299 137.529 21.4076C137.528 21.5924 137.563 21.7757 137.632 21.9468C137.701 22.1178 137.803 22.2733 137.931 22.404C138.06 22.5347 138.214 22.638 138.382 22.708C138.551 22.778 138.732 22.8132 138.914 22.8116ZM137.796 21.4076C137.803 21.186 137.874 20.9713 138 20.7902C138.126 20.6091 138.302 20.4697 138.506 20.3893C138.71 20.3089 138.932 20.2911 139.146 20.3381C139.36 20.3852 139.555 20.4949 139.708 20.6537C139.86 20.8125 139.964 21.0133 140.004 21.2312C140.045 21.449 140.022 21.6741 139.937 21.8786C139.853 22.083 139.71 22.2577 139.529 22.3808C139.347 22.5039 139.133 22.57 138.914 22.5709C138.765 22.5724 138.616 22.5431 138.478 22.4847C138.34 22.4264 138.215 22.3402 138.11 22.2315C138.006 22.1228 137.924 21.9937 137.87 21.8521C137.816 21.7105 137.791 21.5593 137.796 21.4076Z" fill="#1B1B1B"/>
<path d="M56.2361 21.8629C55.3813 21.9452 54.4395 21.8449 53.9349 21.6463C51.8317 20.8159 51.1016 18.9746 50.9373 14.4957L51.0956 14.0946L51.5309 13.894H58.0603C58.2189 13.894 58.3711 13.831 58.4843 13.7185C58.5975 13.606 58.6627 13.453 58.6658 13.2923V12.7206C58.5827 9.2988 56.6753 6.44259 53.2424 6.48471C49.5226 6.52884 47.1206 9.49336 47.1206 14.9771C47.1206 20.3085 49.7601 23.0985 53.8795 23.0985C55.063 23.1008 56.2377 22.8924 57.35 22.4827C57.6923 22.332 58.023 22.1557 58.3393 21.9552V21.197C57.692 21.5551 56.9813 21.7801 56.2479 21.8589L56.2361 21.8629ZM51.5309 12.5943C51.3702 12.5943 51.216 12.5297 51.1021 12.4146C50.9882 12.2996 50.924 12.1435 50.9235 11.9805V12.0106C50.9235 8.77329 51.9722 7.63201 53.2147 7.63201C54.3564 7.63201 55.3022 8.95782 55.3022 11.804V11.9805C55.3011 12.1433 55.2367 12.2991 55.123 12.4141C55.0092 12.529 54.8553 12.5938 54.6947 12.5943H51.5309Z" fill="#1B1B1B"/>
<path d="M91.0318 21.8629C90.1771 21.9451 89.2372 21.8449 88.7327 21.6463C86.6255 20.8159 85.8993 18.9746 85.7311 14.4957L85.8914 14.0946L86.3267 13.894H92.8561C92.9349 13.8953 93.0131 13.8808 93.0863 13.8511C93.1595 13.8215 93.2261 13.7774 93.2822 13.7213C93.3384 13.6653 93.383 13.5985 93.4135 13.5249C93.4439 13.4512 93.4596 13.3721 93.4596 13.2923V12.7206C93.3903 9.29879 91.4731 6.44258 88.0481 6.48871C84.3283 6.52883 81.9263 9.48533 81.9263 14.9771C81.9263 20.3084 84.5638 23.0985 88.6872 23.0985C89.8694 23.1014 91.0429 22.8929 92.1537 22.4827L93.143 21.9552V21.197C92.4967 21.5558 91.7865 21.7808 91.0536 21.8589L91.0318 21.8629ZM86.3267 12.5943C86.1658 12.5943 86.0113 12.5297 85.8972 12.4147C85.783 12.2998 85.7183 12.1436 85.7173 11.9805V12.0106C85.7173 8.77328 86.7679 7.632 88.0125 7.632C89.1541 7.632 90.0999 8.95781 90.0999 11.804V11.9805C90.0999 12.1429 90.0364 12.2987 89.9233 12.4138C89.8102 12.5288 89.6567 12.5937 89.4964 12.5943H86.3267Z" fill="#1B1B1B"/>
<path d="M116.774 21.8629C115.925 21.9451 114.993 21.8448 114.476 21.6462C112.373 20.8158 111.641 18.9746 111.479 14.4957L111.635 14.0945L112.071 13.8939H118.6C118.757 13.8939 118.908 13.8305 119.02 13.7177C119.131 13.6049 119.193 13.4518 119.193 13.2922V12.7366C119.108 9.31478 117.199 6.45857 113.772 6.5047C110.046 6.54482 107.638 9.50132 107.638 14.9931C107.638 20.3244 110.276 23.1145 114.397 23.1145C115.581 23.1171 116.756 22.9087 117.868 22.4987L118.847 21.9712V21.213C118.199 21.572 117.487 21.797 116.752 21.8749L116.774 21.8629ZM112.071 12.5942C111.91 12.5937 111.756 12.5288 111.643 12.4139C111.53 12.2989 111.466 12.1431 111.465 11.9804V12.0105C111.465 8.77322 112.514 7.63194 113.756 7.63194C114.898 7.63194 115.844 8.95775 115.844 11.8039V11.9804C115.844 12.1412 115.782 12.2955 115.671 12.4102C115.56 12.525 115.409 12.5911 115.25 12.5942H112.071Z" fill="#1B1B1B"/>
<path d="M59.7047 9.02598C59.7047 8.25175 59.7264 7.86865 59.3188 8.00705L59.2595 7.87266L62.5558 6.25C62.914 6.09555 63.1791 6.34627 63.1613 6.86376V8.22167L63.2345 8.40419L63.4324 8.18356L64.115 7.49357C64.8154 6.93797 65.6247 6.51476 66.6674 6.51476C69.5997 6.51476 71.887 9.10019 71.887 14.7745C71.887 20.6454 69.4572 23.1265 65.7078 23.1265C65.3438 23.1289 64.9801 23.1048 64.6195 23.0543C64.2065 22.9704 63.7988 22.8612 63.3987 22.7274L63.2998 22.8257L63.3156 27.479C63.3156 27.812 63.3374 28.2813 63.7608 28.4819V28.6303L59.2437 28.6444V28.4899C59.6691 28.2894 59.6888 27.822 59.6888 27.4871L59.7047 9.02598ZM68.181 14.9109C68.187 10.2776 67.2728 8.62482 65.2942 8.62482C64.7303 8.62482 64.0497 8.95176 63.5946 9.31882C63.4897 9.39704 63.3196 9.59762 63.3216 10.1372V20.3104C63.3216 21.0225 63.4086 21.219 63.6777 21.3013C64.1869 21.4385 64.712 21.506 65.2388 21.5019C67.077 21.5019 68.1949 19.9253 68.1949 14.9149" fill="#1B1B1B"/>
<path d="M19.2994 10.8312V21.6162C19.2994 21.9512 19.3211 22.4065 19.7426 22.6191V22.7735L15.2353 22.7655V22.6091C15.6587 22.4085 15.6765 21.9492 15.6765 21.6182V8.84549C15.6765 8.35809 15.6053 8.12743 15.2808 8.24376L15.2195 8.10336L18.5198 6.48872C18.874 6.33227 19.1431 6.587 19.1272 7.10449V8.89965L19.2044 9.06613L19.5131 8.70308C20.9238 7.03629 22.3187 6.49674 23.6385 6.49674C25.8763 6.49674 27.477 8.33402 27.477 11.4931V21.6102C27.477 21.9411 27.4928 22.3944 27.9221 22.601V22.7575H23.3971V22.603C23.8225 22.4025 23.8423 21.9411 23.8423 21.6002V11.6796C23.8423 9.91256 23.2091 9.09621 21.8359 9.09621C21.2087 9.09621 20.35 9.46528 19.7208 9.93663L19.5051 10.1091C19.3587 10.2275 19.2855 10.412 19.2855 10.8011" fill="#1B1B1B"/>
<path d="M98.2636 10.8312V21.6202C98.2636 21.9551 98.2874 22.4085 98.7128 22.6231V22.7795H94.1916V22.6231C94.6111 22.4225 94.6329 21.9632 94.6329 21.6322V8.8595C94.6329 8.3721 94.5597 8.14143 94.2371 8.25777L94.1738 8.11736L97.4742 6.4947C97.8303 6.33825 98.0954 6.59298 98.0816 7.11047V8.90563L98.1588 9.07211L98.4694 8.70906C99.8802 7.04227 101.277 6.50272 102.589 6.50272C104.833 6.50272 106.433 8.34 106.433 11.4991V21.6162C106.433 21.9471 106.451 22.4004 106.877 22.607V22.7635H102.349V22.609C102.775 22.4085 102.795 21.9471 102.795 21.6061V11.6856C102.795 9.91854 102.161 9.1022 100.792 9.1022C100.163 9.1022 99.3044 9.47126 98.6752 9.94261L98.4615 10.1151C98.3111 10.2334 98.2399 10.418 98.2399 10.8071" fill="#1B1B1B"/>
<path d="M28.4187 7.68009H29.2339C29.3927 7.68428 29.5437 7.75121 29.6546 7.86661C29.7655 7.98202 29.8275 8.13677 29.8275 8.29787V19.129C29.8275 21.2832 30.8168 23.1405 33.3731 23.1405C34.2168 23.1569 35.0528 22.9764 35.8167 22.613C36.2776 22.395 36.6995 22.1009 37.0652 21.7425V20.9863C36.4412 21.374 35.729 21.5916 34.9976 21.6182C33.8104 21.6182 33.4602 20.5491 33.4602 19.0528V8.29987C33.4602 8.21983 33.4759 8.14059 33.5065 8.06679C33.537 7.99299 33.5818 7.92611 33.6382 7.87007C33.6946 7.81404 33.7614 7.76997 33.8348 7.74045C33.9082 7.71093 33.9867 7.69654 34.0656 7.69814H35.5516C36.6873 7.69814 36.6794 7.69814 36.6794 7.25086V6.68724C36.6794 6.41245 36.6794 6.44053 36.0858 6.44053H34.0716C33.9151 6.43745 33.7659 6.37306 33.6552 6.26088C33.5445 6.14869 33.481 5.99742 33.478 5.8388V2.33272C33.478 1.84331 33.478 1.86738 32.9873 1.86738C32.6945 1.86738 32.3937 1.89546 31.9564 2.46911C30.5358 4.34049 29.0538 5.67834 27.9458 6.20385C27.368 6.48064 27.4096 6.3944 27.4096 7.03424C27.4096 7.67407 27.4096 7.6821 28.0922 7.6821" fill="#1B1B1B"/>
<path d="M41.6517 9.10613V9.27462V9.50328L41.7625 9.66775L42.0335 9.29267C42.6707 7.84852 44.1507 6.14763 45.9037 6.12958C46.1655 6.11565 46.4272 6.15731 46.6722 6.25191C46.9171 6.3465 47.1399 6.49193 47.3262 6.67888C47.5125 6.86583 47.6582 7.09017 47.7539 7.33753C47.8497 7.58489 47.8934 7.8498 47.8823 8.11528C47.8823 8.91759 47.2749 9.93652 46.4379 9.96059C44.8293 10.0308 44.7067 8.88951 43.937 8.88951C43.1317 8.88951 42.3956 10.9815 42.1562 11.8079C41.8285 13.1084 41.661 14.4451 41.6576 15.7873V16.2467V21.7886C41.6576 22.1175 41.6814 22.5688 42.0988 22.7754V22.9319H37.7459V22.7754C38.1654 22.5749 38.1871 22.1175 38.1871 21.7886V8.82533C38.1871 8.33592 38.1139 8.10526 37.8013 8.2236L37.7419 8.08119L41.0383 6.45852C41.3964 6.30007 41.6616 6.55881 41.6438 7.0763" fill="#1B1B1B"/>
<path d="M76.5048 9.27462V9.50327L76.6136 9.66775L76.8847 9.29267C77.5238 7.84852 79.0057 6.14763 80.7568 6.12958C81.0186 6.11565 81.2803 6.15731 81.5253 6.25191C81.7702 6.3465 81.993 6.49193 82.1793 6.67888C82.3655 6.86583 82.5112 7.09017 82.607 7.33753C82.7028 7.58489 82.7465 7.8498 82.7354 8.11528C82.7354 8.91759 82.1299 9.93652 81.2871 9.96059C79.6824 10.0308 79.5538 8.88951 78.792 8.88951C77.9848 8.88951 77.2487 10.9815 77.0113 11.8079C76.6855 13.1088 76.5181 14.4452 76.5127 15.7873V16.2467V21.6321C76.5127 21.9631 76.5404 22.4224 76.9618 22.615V22.7694H72.597V22.615C73.0145 22.4144 73.0363 21.9631 73.0363 21.6321V8.82533C73.0363 8.33592 72.967 8.10526 72.6544 8.2236L72.5891 8.08119L75.8914 6.45852C76.2436 6.30007 76.5166 6.55881 76.4969 7.0763" fill="#1B1B1B"/>
<path d="M136.771 9.27473V9.50339L136.888 9.66786L137.155 9.29279C137.792 7.84863 139.274 6.14774 141.027 6.12969C141.289 6.11545 141.551 6.1569 141.796 6.25138C142.041 6.34586 142.264 6.49129 142.451 6.6783C142.637 6.86532 142.783 7.08979 142.878 7.33728C142.974 7.58478 143.017 7.84983 143.006 8.1154C143.006 8.91771 142.402 9.93664 141.562 9.96071C139.959 10.0309 139.828 8.88963 139.065 8.88963C138.261 8.88963 137.521 10.9816 137.284 11.808C136.954 13.1083 136.786 14.445 136.783 15.7875V16.2468V21.6323C136.783 21.9632 136.807 22.4225 137.228 22.6211V22.7755H132.864V22.6211C133.289 22.4205 133.307 21.9632 133.307 21.6323V8.82544C133.307 8.33603 133.236 8.10537 132.921 8.22371L132.858 8.0813L136.16 6.45864C136.51 6.30018 136.777 6.55892 136.765 7.07641" fill="#1B1B1B"/>
<path d="M123.713 18.8782C123.713 20.3404 124.374 21.1428 125.717 21.1428C126.346 21.1428 127.179 20.7697 127.8 20.2983L128.022 20.1258C128.171 20.0075 128.242 19.829 128.242 19.4318L128.23 8.7411C128.23 8.31788 128.161 8.08721 127.848 8.21157L127.781 8.06916L131.081 6.45051C131.437 6.29406 131.7 6.54879 131.688 7.06628V20.6453C131.688 21.2069 131.649 21.8067 132.084 21.6622L132.14 21.8006L128.855 23.1024C128.694 23.0992 128.54 23.0322 128.427 22.9156C128.314 22.799 128.25 22.6422 128.25 22.4786V21.6001L128.176 21.4316L127.864 21.7966C126.629 23.0001 125.44 23.2267 124.122 23.2267C121.55 23.2267 120.268 21.3413 120.268 18.461V8.76918C120.268 8.34796 120.201 8.1173 119.882 8.23765L119.823 8.09724L123.125 6.47859C123.477 6.31813 123.742 6.57687 123.719 7.09436" fill="#1B1B1B"/>
<path d="M10.6845 9.16836L10.5361 9.15833C10.3382 9.58957 9.87722 9.62367 9.54679 9.62367H5.21363C5.0536 9.62431 4.89957 9.56192 4.78404 9.44966C4.6685 9.33741 4.60048 9.18405 4.59433 9.02194V3.2353C4.59535 3.07247 4.65935 2.91654 4.77256 2.80103C4.88577 2.68551 5.03917 2.61962 5.19978 2.61753L10.7201 2.6075C12.5009 2.6075 12.7502 3.31353 13.0489 4.50295H13.2112L13.7335 0H13.5832C13.3853 0.427228 12.9322 0.447286 12.5938 0.447286L0 0.455309V0.60173C0.421444 0.802307 0.44123 1.26363 0.44123 1.60461V21.554C0.44123 21.8749 0.379893 22.3884 0.0277005 22.595V22.7514H13.13C13.7454 22.7514 14.1312 22.7514 14.1194 23.1967L14.2697 23.2228L14.7822 18.6817L14.6219 18.6657C14.1174 19.8952 13.039 20.5611 11.2444 20.5772H5.19781C5.0367 20.5772 4.8822 20.5123 4.76829 20.3968C4.65437 20.2813 4.59037 20.1247 4.59037 19.9614V12.3836C4.59344 12.2184 4.6598 12.061 4.77539 11.9446C4.89099 11.8281 5.04674 11.7619 5.20968 11.7598H9.19855C9.8139 11.7598 10.2017 11.7478 10.1879 12.2091L10.3382 12.2292" fill="#1B1B1B"/>
</svg>
