<svg width="124" height="48" viewBox="0 0 124 48" fill="none" xmlns="http://www.w3.org/2000/svg">
<path d="M49.2405 9.28292C49.2405 11.0755 49.2748 11.3324 50.2681 11.4174L50.8158 11.4693C50.9174 11.5378 50.8848 11.845 50.781 11.8953C49.8064 11.8615 49.2236 11.845 48.5383 11.845C47.853 11.845 47.2545 11.8623 46.1587 11.8953C46.0562 11.845 46.0215 11.5534 46.1587 11.4693L46.7754 11.4174C47.7521 11.3324 47.8373 11.0751 47.8373 9.28292V1.64828C47.8373 1.11921 47.8373 1.10189 47.3231 1.10189H46.3815C45.6458 1.10189 44.7038 1.13571 44.276 1.5287C43.8647 1.90437 43.694 2.27921 43.5064 2.70684C43.37 2.80993 43.129 2.72416 43.0612 2.58725C43.3348 1.81942 43.5915 0.726223 43.7122 0.0429239C43.7639 0.00869706 43.9854 -0.00697304 44.0375 0.0429239C44.1396 0.589728 44.7046 0.572408 45.4924 0.572408H52.4257C53.3491 0.572408 53.5041 0.537769 53.7607 0.0944703C53.8467 0.0598311 54.0344 0.0771507 54.0695 0.145604C53.8806 0.845811 53.7608 2.2289 53.812 2.74189C53.7442 2.87798 53.4524 2.87798 53.3677 2.77571C53.316 2.34932 53.197 1.71715 52.9395 1.52952C52.5455 1.2388 51.8962 1.10272 50.955 1.10272H49.7394C49.2252 1.10272 49.2426 1.12004 49.2426 1.68334V9.28292H49.241H49.2405ZM60.1699 6.3287C59.3482 6.3287 59.3135 6.36334 59.3135 6.87509V9.28292C59.3135 11.0763 59.3994 11.3159 60.358 11.4182L60.8544 11.4693C60.9561 11.5378 60.923 11.845 60.8197 11.8961C59.8963 11.8615 59.3126 11.8442 58.6455 11.8442C57.9098 11.8442 57.3278 11.8788 56.6611 11.8961C56.5578 11.8442 56.5235 11.5716 56.626 11.4693L56.9174 11.4182C57.8767 11.247 57.9098 11.0759 57.9098 9.28292V3.13447C57.9098 1.34231 57.7907 1.05158 56.9 0.98313L56.4557 0.949316C56.3524 0.881275 56.3871 0.573646 56.4896 0.522099C57.3286 0.539419 57.9106 0.573646 58.6464 0.573646C59.3135 0.573646 59.8971 0.555914 60.6328 0.522099C60.7362 0.573646 60.7701 0.881275 60.6676 0.949316L60.341 0.98313C59.349 1.08622 59.3143 1.34189 59.3143 3.13488V5.09901C59.3143 5.62849 59.349 5.64581 60.1707 5.64581H65.0671C65.888 5.64581 65.9227 5.62849 65.9227 5.09901V3.13488C65.9227 1.34231 65.888 1.08622 64.8786 0.98313L64.5533 0.949316C64.4516 0.881275 64.4847 0.573646 64.588 0.522099C65.2778 0.555142 65.9682 0.572328 66.6588 0.573646C67.3255 0.573646 67.9083 0.555914 68.678 0.522099C68.7813 0.573646 68.8156 0.881275 68.7127 0.949316L68.3531 0.98313C67.3598 1.08622 67.3247 1.34189 67.3247 3.13488V9.28292C67.3247 11.0763 67.3598 11.2974 68.3527 11.4182L68.7643 11.4693C68.8677 11.5378 68.8321 11.845 68.73 11.8961C68.0401 11.8634 67.3495 11.846 66.6588 11.8442C65.9578 11.8442 65.3411 11.8615 64.588 11.8961C64.4847 11.8442 64.4516 11.5716 64.5533 11.4693L64.8786 11.4182C65.9231 11.247 65.9231 11.0759 65.9231 9.28292V6.87509C65.9231 6.36334 65.888 6.3287 65.0675 6.3287H60.1699ZM73.0527 3.13488C73.0527 1.35756 73.0175 1.10189 72.0082 0.98313L71.7333 0.948079C71.6316 0.88045 71.6664 0.572821 71.768 0.522099C72.5038 0.555914 73.0857 0.573646 73.7884 0.573646H77.007C78.102 0.573646 79.1126 0.573646 79.3176 0.522099C79.4193 0.811996 79.523 2.04169 79.5904 2.79303C79.523 2.89612 79.2498 2.92993 79.163 2.82767C78.9063 2.02396 78.7521 1.42643 77.8618 1.20416C77.5018 1.12004 76.9537 1.10272 76.2014 1.10272H74.9693C74.4551 1.10272 74.4551 1.13653 74.4551 1.7856V5.20045C74.4551 5.6788 74.5076 5.6788 75.0206 5.6788H76.0126C76.7318 5.6788 77.2625 5.64499 77.4687 5.57736C77.6737 5.50849 77.794 5.4054 77.88 4.97942L78.0176 4.27839C78.102 4.17694 78.3929 4.17695 78.462 4.29571C78.462 4.70519 78.3942 5.37158 78.3942 6.01942C78.3942 6.63468 78.462 7.28375 78.462 7.65942C78.3942 7.77901 78.1024 7.77901 78.0176 7.67674L77.8626 7.01117C77.794 6.70354 77.675 6.44746 77.3323 6.36169C77.0922 6.29282 76.6817 6.2755 76.0138 6.2755H75.0218C74.5084 6.2755 74.4559 6.29282 74.4559 6.73736V9.14478C74.4559 10.0508 74.5084 10.6314 74.7825 10.9209C74.9867 11.1258 75.3467 11.3139 76.8537 11.3139C78.1714 11.3139 78.6682 11.2462 79.0456 11.0582C79.3531 10.8862 79.8152 10.2895 80.2612 9.40086C80.3802 9.31674 80.6212 9.36705 80.689 9.52045C80.5691 10.1192 80.1405 11.4339 79.9177 11.8945C78.3776 11.8607 76.8549 11.8433 75.3301 11.8433H73.7901C73.0543 11.8433 72.4724 11.8607 71.4618 11.8945C71.3592 11.8433 71.3237 11.5699 71.427 11.4685L71.9925 11.4165C72.9671 11.3324 73.0535 11.0743 73.0535 9.2821V3.13488H73.0527ZM3.77718 24.2644C2.95547 24.2644 2.92158 24.2982 2.92158 24.8112V27.219C2.92158 29.0124 3.0059 29.2508 3.96483 29.3543L4.46166 29.4046C4.56334 29.473 4.53027 29.7798 4.42694 29.8322C3.50314 29.7976 2.92116 29.7802 2.2528 29.7802C1.51707 29.7802 0.935097 29.8149 0.267977 29.8322C0.164643 29.7802 0.13075 29.5077 0.233257 29.4046L0.524657 29.3543C1.48359 29.1823 1.51666 29.012 1.51666 27.219V21.0706C1.51666 19.278 1.39762 18.9877 0.507297 18.9188L0.0629633 18.8854C-0.04037 18.8169 -0.00606334 18.5089 0.0968567 18.4586C0.935923 18.4759 1.5179 18.5089 2.25363 18.5089C2.9224 18.5089 3.50396 18.4916 4.2397 18.4586C4.34303 18.5089 4.37734 18.8178 4.27442 18.8854L3.9483 18.9192C2.9563 19.0223 2.9224 19.2784 2.9224 21.071V23.0355C2.9224 23.5646 2.9563 23.5819 3.778 23.5819H8.67435C9.49523 23.5819 9.52995 23.5646 9.52995 23.0355V21.071C9.52995 19.2784 9.49523 19.0227 8.48628 18.9192L8.16016 18.8854C8.05848 18.8169 8.09155 18.5089 8.19488 18.4586C8.98228 18.4924 9.56467 18.5089 10.2657 18.5089C10.9336 18.5089 11.5164 18.4916 12.2861 18.4586C12.3894 18.5089 12.4233 18.8178 12.3208 18.8854L11.9608 18.9192C10.9688 19.0223 10.9336 19.2784 10.9336 21.071V27.2194C10.9336 29.0128 10.9684 29.2347 11.9608 29.3547L12.3712 29.405C12.4745 29.4734 12.4398 29.7802 12.3373 29.8326C11.647 29.7998 10.956 29.7825 10.2649 29.7807C9.56384 29.7807 8.94715 29.798 8.19406 29.8326C8.09072 29.7807 8.05683 29.5081 8.15934 29.405L8.48587 29.3547C9.52912 29.1827 9.52912 29.0124 9.52912 27.2194V24.8112C9.52912 24.2986 9.4944 24.2648 8.67352 24.2648H3.77718V24.2644ZM24.7807 22.7955C24.7807 21.7369 24.7456 19.7728 24.4554 19.2598C24.3356 19.0553 24.0264 18.9353 23.5998 18.9015L23.1716 18.8668C23.0683 18.7473 23.103 18.525 23.2055 18.4574C23.8555 18.4922 24.5063 18.5096 25.1573 18.5093C25.8773 18.5093 26.339 18.492 26.9548 18.4574C27.0921 18.5423 27.0747 18.7654 26.9887 18.8668L26.5783 18.9015C26.1513 18.9353 25.826 19.0891 25.7227 19.3122C25.483 19.8751 25.483 21.8384 25.483 22.7955V24.7262C25.483 26.2124 25.2432 27.7827 24.2843 28.8075C23.5486 29.6099 22.2821 30.0545 21.0148 30.0545C19.8327 30.0545 18.653 29.8322 17.8136 29.1147C16.9055 28.3633 16.4785 27.1155 16.4785 25.0838V21.0532C16.4785 19.2772 16.4438 18.9873 15.4518 18.9015L15.0236 18.8668C14.9202 18.7984 14.955 18.5085 15.0587 18.4574C15.9143 18.492 16.4959 18.5093 17.1803 18.5093C17.883 18.5093 18.4484 18.492 19.2859 18.4574C19.3892 18.5093 19.4223 18.7992 19.3206 18.8668L18.9101 18.9015C17.9169 18.9877 17.883 19.2772 17.883 21.0532V24.7419C17.883 27.4924 18.7386 29.3019 21.3583 29.3019C23.8404 29.3019 24.7815 27.3551 24.7815 24.7592V22.7955H24.7807ZM32.2492 23.325C32.2492 23.7856 32.3005 23.7856 32.8147 23.7856H33.979C34.68 23.7856 35.2277 23.7518 35.4331 23.6842C35.6208 23.6157 35.7584 23.5295 35.8609 23.0854L36.0159 22.4025C36.1003 22.3002 36.3921 22.3002 36.4603 22.4025C36.4603 22.812 36.3917 23.4957 36.3917 24.1275C36.3917 24.7427 36.4603 25.3906 36.4603 25.7848C36.3917 25.8862 36.135 25.8862 36.0159 25.7848L35.8436 25.1176C35.7576 24.8104 35.6208 24.5708 35.2959 24.4693C35.0566 24.4009 34.6288 24.3835 33.9782 24.3835H32.8138C32.2997 24.3835 32.2484 24.4009 32.2484 24.845V27.2182C32.2484 29.012 32.2831 29.2677 33.2929 29.3534L33.8749 29.4046C33.9782 29.4722 33.9435 29.7794 33.841 29.8314C32.8296 29.7967 32.2484 29.7794 31.5631 29.7794C30.81 29.7794 30.228 29.7967 29.4237 29.8314C29.3203 29.7794 29.2865 29.5068 29.389 29.4046L29.8168 29.3534C30.8088 29.2326 30.8439 29.0112 30.8439 27.2182V21.0697C30.8439 19.2772 30.8092 19.0367 29.8168 18.918L29.5427 18.8842C29.441 18.8157 29.4741 18.5077 29.5766 18.4574C30.2971 18.4912 30.8778 18.5077 31.5631 18.5077H34.7127C35.8089 18.5077 36.8013 18.5077 37.0245 18.4574C37.0245 19.2425 37.041 20.0627 37.0761 20.7122C37.0245 20.8141 36.7847 20.8648 36.6653 20.7625C36.5281 19.9939 36.3226 19.3625 35.467 19.1402C35.0897 19.0372 34.525 19.0372 33.8058 19.0372H32.7626C32.2484 19.0372 32.2484 19.0718 32.2484 19.7209V23.325H32.2492ZM42.535 23.325C42.535 23.7856 42.5863 23.7856 43.1001 23.7856H44.2648C44.9654 23.7856 45.5135 23.7518 45.7198 23.6842C45.9074 23.6157 46.0451 23.5295 46.1484 23.0854L46.3022 22.4025C46.3865 22.3002 46.6787 22.3002 46.7469 22.4025C46.7469 22.812 46.6779 23.4957 46.6779 24.1275C46.6779 24.7427 46.7469 25.3906 46.7469 25.7848C46.6779 25.8862 46.4216 25.8862 46.3022 25.7848L46.1302 25.1176C46.0438 24.8104 45.9074 24.5708 45.5821 24.4693C45.3432 24.4009 44.915 24.3835 44.2648 24.3835H43.1001C42.5863 24.3835 42.535 24.4009 42.535 24.845V27.2182C42.535 29.012 42.5698 29.2677 43.5795 29.3534L44.1611 29.4046C44.2644 29.4722 44.2297 29.7794 44.1272 29.8314C43.1158 29.7967 42.535 29.7794 41.8497 29.7794C41.0966 29.7794 40.5147 29.7967 39.7103 29.8314C39.607 29.7794 39.5727 29.5068 39.6756 29.4046L40.1042 29.3534C41.0962 29.2326 41.1314 29.0112 41.1314 27.2182V21.0697C41.1314 19.2772 41.0966 19.0367 40.1042 18.918L39.8302 18.8842C39.7277 18.8157 39.7616 18.5077 39.8641 18.4574C40.5841 18.4912 41.1652 18.5077 41.8506 18.5077H45.0014C46.0967 18.5077 47.0891 18.5077 47.3119 18.4574C47.3119 19.2425 47.3285 20.0627 47.3632 20.7122C47.3119 20.8141 47.0718 20.8648 46.9519 20.7625C46.8147 19.9939 46.6093 19.3625 45.7532 19.1402C45.3763 19.0372 44.8108 19.0372 44.0925 19.0372H43.048C42.535 19.0372 42.535 19.0718 42.535 19.7209V23.325ZM51.5064 21.1044C51.5064 19.2945 51.4717 19.0042 50.4619 18.918L50.0341 18.8842C49.9308 18.8165 49.9664 18.5089 50.068 18.4574C50.9245 18.492 51.5064 18.5085 52.2248 18.5085C52.9093 18.5085 53.4917 18.492 54.3477 18.4574C54.451 18.5085 54.4841 18.8165 54.3816 18.8842L53.9546 18.918C52.9448 19.0029 52.9101 19.2945 52.9101 21.1044V27.1852C52.9101 28.9951 52.9448 29.2347 53.9546 29.3543L54.3816 29.4046C54.4849 29.473 54.451 29.7811 54.3477 29.8314C53.4921 29.7967 52.9093 29.7811 52.2248 29.7811C51.5064 29.7811 50.9245 29.7976 50.068 29.8314C49.9664 29.7811 49.9316 29.5068 50.0341 29.4046L50.4619 29.3543C51.4717 29.2334 51.5064 28.9951 51.5064 27.1852V21.104V21.1044ZM67.9092 26.878C67.9092 27.3906 67.9091 29.4219 67.9604 29.8668C67.9265 29.9683 67.8232 30.0545 67.6351 30.0545C67.4301 29.7638 66.9324 29.1658 65.4436 27.4755L61.4727 22.9675C61.011 22.438 59.8467 21.0367 59.4867 20.6611H59.4528C59.3837 20.866 59.3664 21.259 59.3664 21.7716V25.4949C59.3664 26.2974 59.3837 28.5176 59.6743 29.0297C59.7776 29.2186 60.1195 29.3205 60.5485 29.3543L61.0788 29.4062C61.1805 29.5431 61.1648 29.7481 61.0441 29.833C60.3769 29.8008 59.7091 29.7837 59.0411 29.7819C58.3211 29.7819 57.8594 29.7992 57.26 29.833C57.141 29.7489 57.1228 29.5085 57.2261 29.4062L57.6878 29.3543C58.0822 29.3031 58.3549 29.2017 58.4413 29.012C58.6802 28.3988 58.6629 26.3151 58.6629 25.4945V20.5584C58.6629 20.0813 58.6455 19.7221 58.2872 19.3287C58.0474 19.0895 57.6366 18.9699 57.2261 18.9192L56.9347 18.8846C56.8314 18.7831 56.8314 18.5262 56.9686 18.4586C57.6891 18.5097 58.5951 18.5097 58.9039 18.5097C59.1779 18.5097 59.4693 18.4924 59.6908 18.4586C60.0339 19.3287 62.053 21.584 62.6181 22.2153L64.2784 24.0776C65.4606 25.3922 66.2996 26.3481 67.104 27.1683H67.1379C67.2057 27.0829 67.2057 26.8087 67.2057 26.4495V22.7947C67.2057 21.9922 67.1883 19.772 66.863 19.2598C66.7613 19.1064 66.4873 19.0042 65.802 18.918L65.5106 18.8833C65.3915 18.7819 65.4089 18.5081 65.5453 18.4574C66.3327 18.4912 66.9151 18.5085 67.5657 18.5085C68.3022 18.5085 68.7478 18.4912 69.3294 18.4574C69.4658 18.5415 69.4658 18.7819 69.3641 18.8833L69.1244 18.918C68.5763 19.0042 68.2336 19.1394 68.165 19.2772C67.8736 19.8908 67.9087 22.0095 67.9087 22.7947V26.878H67.9092ZM81.7963 28.0388C81.7963 28.7217 81.8997 29.132 82.2068 29.2516C82.2196 29.266 82.2293 29.2828 82.2354 29.3011C82.2415 29.3193 82.2438 29.3386 82.2422 29.3578C82.2406 29.3769 82.235 29.3956 82.226 29.4126C82.2169 29.4295 82.2045 29.4445 82.1894 29.4565C81.984 29.4565 81.6769 29.5242 81.3508 29.6091C80.4447 29.8495 79.2113 30.0545 78.2863 30.0545C76.2502 30.0545 74.3832 29.4912 73.0647 28.1584C72.0384 27.1336 71.4907 25.7848 71.4907 24.2809C71.4907 22.8293 71.9697 21.3613 73.0308 20.2334C74.1778 19.0376 75.8728 18.2351 78.4578 18.2351C79.4341 18.2351 80.3401 18.4227 80.632 18.4912C80.956 18.5596 81.4867 18.6788 81.6926 18.6446C81.6926 19.2087 81.7959 20.0974 81.9501 21.1209C81.8988 21.2569 81.5901 21.2747 81.4872 21.1732C81.0089 19.3283 79.7239 18.7473 77.978 18.7473C74.6572 18.7473 73.2011 21.1056 73.2011 23.6668C73.2011 26.9452 74.8953 29.5242 78.3376 29.5242C79.3986 29.5242 80.0322 29.3019 80.2203 29.0116C80.3046 28.892 80.3918 28.5844 80.3918 28.0388V27.3551C80.3918 25.92 80.3393 25.8186 79.2783 25.6978L78.5244 25.6136C78.388 25.5452 78.4053 25.2372 78.5244 25.1868C79.022 25.2215 79.9628 25.2372 80.9726 25.2372C81.6405 25.2372 82.2225 25.2207 82.7871 25.1868C82.9078 25.2545 82.9243 25.5114 82.804 25.6136L82.53 25.6475C81.81 25.7336 81.7943 26.2116 81.7943 27.0825V28.0388H81.7963ZM90.8487 27.219C90.8487 29.0116 90.8835 29.2685 91.8767 29.3534L92.4244 29.4054C92.526 29.4739 92.4921 29.7807 92.3896 29.8322C91.4146 29.7984 90.833 29.7811 90.1469 29.7811C89.4632 29.7811 88.8639 29.7984 87.7673 29.8322C87.6648 29.7811 87.6309 29.4903 87.7673 29.4054L88.3849 29.3534C89.3595 29.2689 89.4459 29.0112 89.4459 27.219V19.5844C89.4459 19.0553 89.4459 19.038 88.9325 19.038H87.991C87.2544 19.038 86.3132 19.0718 85.8846 19.4648C85.4742 19.84 85.3035 20.2169 85.115 20.6429C84.9773 20.746 84.7384 20.6602 84.6694 20.5242C84.9451 19.7563 85.201 18.6631 85.3208 17.9798C85.3721 17.9456 85.5949 17.9291 85.6461 17.9798C85.7486 18.5266 86.3141 18.5093 87.1019 18.5093H94.0343C94.9585 18.5093 95.1127 18.4747 95.3694 18.031C95.4545 17.9967 95.643 18.0141 95.6777 18.0825C95.4884 18.7835 95.3689 20.1658 95.4194 20.6784C95.3524 20.8157 95.0614 20.8157 94.975 20.7122C94.9238 20.2854 94.8047 19.6536 94.5472 19.4656C94.1533 19.1749 93.5036 19.0388 92.562 19.0388H91.3468C90.8339 19.0388 90.8496 19.0561 90.8496 19.619V27.219H90.8487ZM97.4608 24.2644C97.4608 20.8495 100.028 18.2355 103.555 18.2355C107.51 18.2355 109.494 21.0871 109.494 24.0945C109.494 27.5435 106.859 30.0545 103.555 30.0545C99.754 30.0537 97.4608 27.3386 97.4608 24.2648V24.2644ZM107.784 24.6227C107.784 21.8046 106.533 18.7646 103.264 18.7646C101.484 18.7646 99.1729 19.9774 99.1729 23.7172C99.1729 26.245 100.405 29.5242 103.778 29.5242C105.83 29.5242 107.784 27.9877 107.784 24.6227ZM122.472 26.878C122.472 27.3906 122.472 29.4219 122.522 29.8668C122.488 29.9683 122.384 30.0545 122.197 30.0545C121.991 29.7638 121.495 29.1658 120.006 27.4755L116.035 22.9679C115.572 22.4384 114.409 21.0372 114.049 20.6615H114.015C113.946 20.8664 113.929 21.2594 113.929 21.772V25.4953C113.929 26.2978 113.946 28.518 114.237 29.0301C114.34 29.219 114.683 29.3209 115.111 29.3547L115.641 29.4066C115.744 29.5435 115.726 29.7485 115.606 29.8334C114.939 29.8012 114.272 29.7842 113.604 29.7823C112.884 29.7823 112.422 29.7996 111.823 29.8334C111.704 29.7493 111.686 29.5089 111.789 29.4066L112.251 29.3547C112.645 29.3035 112.918 29.2021 113.005 29.0124C113.244 28.3992 113.227 26.3155 113.227 25.4949V20.5584C113.227 20.0813 113.21 19.7221 112.85 19.3287C112.61 19.0895 112.2 18.9699 111.789 18.9192L111.498 18.8846C111.396 18.7831 111.396 18.5262 111.532 18.4586C112.252 18.5097 113.158 18.5097 113.467 18.5097C113.741 18.5097 114.032 18.4924 114.254 18.4586C114.597 19.3287 116.616 21.584 117.181 22.2153L118.843 24.0776C120.023 25.3922 120.863 26.3481 121.666 27.1683H121.7C121.769 27.0829 121.769 26.8087 121.769 26.4495V22.7947C121.769 21.9922 121.752 19.772 121.426 19.2598C121.323 19.1064 121.05 19.0042 120.365 18.918L120.074 18.8833C119.955 18.7819 119.972 18.5081 120.109 18.4574C120.896 18.4912 121.478 18.5085 122.129 18.5085C122.865 18.5085 123.309 18.4912 123.892 18.4574C124.028 18.5415 124.028 18.7819 123.927 18.8833L123.686 18.918C123.138 19.0042 122.795 19.1394 122.727 19.2772C122.436 19.8908 122.471 22.0095 122.471 22.7947V26.878H122.472ZM42.4209 45.1547C42.4209 46.9473 42.4557 47.1704 43.5506 47.2891L44.0144 47.3415C44.116 47.4264 44.083 47.7163 43.9792 47.7675C43.0029 47.7337 42.4391 47.7163 41.7538 47.7163C41.0355 47.7163 40.4188 47.7337 39.6657 47.7675C39.5623 47.7163 39.5293 47.4429 39.631 47.3415L39.991 47.2891C40.9834 47.1539 41.0181 46.9473 41.0181 45.1547V38.8524C41.0181 37.4017 40.9834 37.111 40.2137 37.0252L39.5971 36.9572C39.4764 36.8541 39.4937 36.5984 39.631 36.5303C40.539 36.4099 41.6001 36.3943 43.0211 36.3943C44.4422 36.3943 45.504 36.5815 46.3084 37.0763C47.0953 37.5716 47.6781 38.4602 47.6781 39.6392C47.6781 41.2095 46.7027 41.9959 45.9657 42.3551C45.2126 42.7134 44.3045 42.8668 43.6035 42.8668C43.4828 42.8149 43.4828 42.5588 43.5861 42.525C45.4354 42.1831 46.1033 41.1411 46.1033 39.6557C46.1033 37.9992 45.1266 36.9233 43.3464 36.9233C42.44 36.9233 42.4226 36.9922 42.4226 37.5386V45.1551L42.4209 45.1547ZM50.1313 42.1996C50.1313 38.7848 52.6997 36.1703 56.2263 36.1703C60.1815 36.1703 62.1659 39.0223 62.1659 42.0289C62.1659 45.4776 59.5301 47.9885 56.2263 47.9885C52.4257 47.9893 50.1313 45.2747 50.1313 42.1996ZM60.4543 42.5588C60.4543 39.7398 59.2039 36.6998 55.9341 36.6998C54.1547 36.6998 51.8429 37.9134 51.8429 41.6528C51.8429 44.1815 53.0754 47.459 56.4478 47.459C58.5021 47.4602 60.4543 45.9238 60.4543 42.5588ZM67.8128 47.9893C66.3745 47.9893 65.4672 47.5452 65.1411 47.3567C64.936 46.9815 64.7141 45.7691 64.6794 44.9666C64.7645 44.8479 65.022 44.8128 65.0898 44.9163C65.3461 45.7864 66.0483 47.4603 68.0344 47.4603C69.472 47.4603 70.1738 46.5213 70.1738 45.4957C70.1738 44.7435 70.02 43.9073 68.7701 43.104L67.1441 42.0454C66.2872 41.4813 65.294 40.5077 65.294 39.1081C65.294 37.485 66.5604 36.1703 68.7875 36.1703C69.3182 36.1703 69.9349 36.2718 70.3788 36.3926C70.602 36.4602 70.8418 36.4941 70.9781 36.4941C71.1331 36.9035 71.2881 37.8607 71.2881 38.5774C71.2191 38.6805 70.9451 38.7316 70.8591 38.6293C70.6367 37.8095 70.1746 36.6986 68.5312 36.6986C66.8535 36.6986 66.4935 37.8095 66.4935 38.5947C66.4935 39.5844 67.3152 40.3031 67.9492 40.6953L69.319 41.5489C70.3974 42.2145 71.4584 43.2062 71.4584 44.8285C71.4584 46.7089 70.0374 47.9893 67.8128 47.9893ZM79.9752 45.1547C79.9752 46.9473 80.0099 47.2042 81.0023 47.2891L81.55 47.3415C81.6517 47.4091 81.6186 47.7163 81.5161 47.7675C80.5406 47.7337 79.9578 47.7163 79.2725 47.7163C78.5889 47.7163 77.9887 47.7337 76.893 47.7675C76.7905 47.7163 76.7566 47.4264 76.893 47.3415L77.5088 47.2891C78.4855 47.205 78.5707 46.9473 78.5707 45.1547V37.5205C78.5707 36.991 78.5707 36.9737 78.0565 36.9737H77.1157C76.38 36.9737 75.438 37.0075 75.0102 37.4009C74.5998 37.7757 74.4282 38.1522 74.2398 38.5782C74.1034 38.6813 73.8632 38.5955 73.7942 38.4594C74.0691 37.6912 74.3249 36.598 74.4456 35.9151C74.4969 35.8805 74.7197 35.864 74.7709 35.9151C74.8726 36.4619 75.438 36.4446 76.225 36.4446H83.1591C84.0841 36.4446 84.2375 36.4099 84.4946 35.9662C84.5793 35.9316 84.7686 35.9493 84.8025 36.0169C84.6149 36.718 84.4946 38.0998 84.5462 38.6137C84.4772 38.7497 84.1862 38.7497 84.1007 38.6475C84.0502 38.2215 83.9304 37.5889 83.6737 37.4017C83.279 37.111 82.6292 36.9745 81.6876 36.9745H80.4716C79.9578 36.9745 79.9752 36.9922 79.9752 37.5559V45.1547Z" fill="#1B1B1B"/>
</svg>
