<svg width="69" height="67" viewBox="0 0 69 67" fill="none" xmlns="http://www.w3.org/2000/svg">
<path d="M68.2953 0H13.748V52.3743H68.2953V0Z" fill="url(#paint0_linear)"/>
<path opacity="0.1" d="M31.554 2.60547H13.748V12.4633H31.554V2.60547Z" fill="#1B1B1B"/>
<path opacity="0.2" d="M31.554 22.3213H13.748V32.1791H31.554V22.3213Z" fill="#1B1B1B"/>
<path opacity="0.1" d="M31.554 32.1792H13.748V42.037H31.554V32.1792Z" fill="#1B1B1B"/>
<path d="M31.554 2.60547H67.3912V50.4146C67.3912 50.7531 67.2518 51.0778 67.0037 51.3172C66.7557 51.5565 66.4192 51.691 66.0684 51.691H32.8768C32.5259 51.691 32.1895 51.5565 31.9414 51.3172C31.6933 51.0778 31.554 50.7531 31.554 50.4146V2.60547Z" fill="white"/>
<path opacity="0.3" d="M68.2953 0H13.748V2.60589H68.2953V0Z" fill="#1B1B1B"/>
<path opacity="0.8" d="M15.872 1.83349C16.1752 1.83349 16.421 1.59641 16.421 1.30395C16.421 1.0115 16.1752 0.774414 15.872 0.774414C15.5688 0.774414 15.323 1.0115 15.323 1.30395C15.323 1.59641 15.5688 1.83349 15.872 1.83349Z" fill="url(#paint1_linear)"/>
<path opacity="0.8" d="M18.3774 1.83349C18.6806 1.83349 18.9263 1.59641 18.9263 1.30395C18.9263 1.0115 18.6806 0.774414 18.3774 0.774414C18.0742 0.774414 17.8284 1.0115 17.8284 1.30395C17.8284 1.59641 18.0742 1.83349 18.3774 1.83349Z" fill="url(#paint2_linear)"/>
<path opacity="0.8" d="M20.8788 1.83349C21.182 1.83349 21.4278 1.59641 21.4278 1.30395C21.4278 1.0115 21.182 0.774414 20.8788 0.774414C20.5756 0.774414 20.3298 1.0115 20.3298 1.30395C20.3298 1.59641 20.5756 1.83349 20.8788 1.83349Z" fill="url(#paint3_linear)"/>
<path opacity="0.2" d="M56.0278 7.52002H35.143C34.6884 7.52002 34.3198 7.87565 34.3198 8.31433V24.1559C34.3198 24.5946 34.6884 24.9502 35.143 24.9502H56.0278C56.4824 24.9502 56.851 24.5946 56.851 24.1559V8.31433C56.851 7.87565 56.4824 7.52002 56.0278 7.52002Z" fill="url(#paint4_linear)"/>
<path opacity="0.2" d="M64.6057 6.13428H48.5644C48.2151 6.13428 47.9319 6.40755 47.9319 6.74464V18.9129C47.9319 19.25 48.2151 19.5233 48.5644 19.5233H64.6057C64.955 19.5233 65.2382 19.25 65.2382 18.9129V6.74464C65.2382 6.40755 64.955 6.13428 64.6057 6.13428Z" fill="url(#paint5_linear)"/>
<path opacity="0.2" d="M55.6318 30.5742H39.5905C39.2412 30.5742 38.958 30.8475 38.958 31.1846V43.3529C38.958 43.6899 39.2412 43.9632 39.5905 43.9632H55.6318C55.9811 43.9632 56.2643 43.6899 56.2643 43.3529V31.1846C56.2643 30.8475 55.9811 30.5742 55.6318 30.5742Z" fill="url(#paint6_linear)"/>
<path opacity="0.7" d="M68.2953 0H13.748V52.3743H68.2953V0Z" fill="white"/>
<path d="M63.2865 4.83252H8.73926V57.2068H63.2865V4.83252Z" fill="url(#paint7_linear)"/>
<path opacity="0.1" d="M26.5452 7.43848H8.73926V17.2963H26.5452V7.43848Z" fill="#1B1B1B"/>
<path opacity="0.2" d="M26.5452 27.1509H8.73926V37.0087H26.5452V27.1509Z" fill="#1B1B1B"/>
<path opacity="0.1" d="M26.5452 37.0093H8.73926V46.8671H26.5452V37.0093Z" fill="#1B1B1B"/>
<path d="M26.5449 7.43848H62.3821V55.2448C62.3821 55.5833 62.2428 55.908 61.9947 56.1474C61.7466 56.3868 61.4102 56.5212 61.0593 56.5212H27.8706C27.5198 56.5212 27.1833 56.3868 26.9352 56.1474C26.6872 55.908 26.5478 55.5833 26.5478 55.2448V7.43848H26.5449Z" fill="white"/>
<path opacity="0.3" d="M63.2865 4.83252H8.73926V7.43842H63.2865V4.83252Z" fill="#1B1B1B"/>
<path opacity="0.8" d="M10.8639 6.66357C11.1671 6.66357 11.4129 6.42649 11.4129 6.13403C11.4129 5.84158 11.1671 5.60449 10.8639 5.60449C10.5607 5.60449 10.3149 5.84158 10.3149 6.13403C10.3149 6.42649 10.5607 6.66357 10.8639 6.66357Z" fill="url(#paint8_linear)"/>
<path opacity="0.8" d="M13.3673 6.66357C13.6705 6.66357 13.9163 6.42649 13.9163 6.13403C13.9163 5.84158 13.6705 5.60449 13.3673 5.60449C13.0641 5.60449 12.8184 5.84158 12.8184 6.13403C12.8184 6.42649 13.0641 6.66357 13.3673 6.66357Z" fill="url(#paint9_linear)"/>
<path opacity="0.8" d="M15.872 6.66357C16.1752 6.66357 16.421 6.42649 16.421 6.13403C16.421 5.84158 16.1752 5.60449 15.872 5.60449C15.5688 5.60449 15.323 5.84158 15.323 6.13403C15.323 6.42649 15.5688 6.66357 15.872 6.66357Z" fill="url(#paint10_linear)"/>
<path opacity="0.2" d="M51.0219 12.3525H30.1371C29.6825 12.3525 29.314 12.7082 29.314 13.1468V28.9885C29.314 29.4271 29.6825 29.7828 30.1371 29.7828H51.0219C51.4766 29.7828 51.8451 29.4271 51.8451 28.9885V13.1468C51.8451 12.7082 51.4766 12.3525 51.0219 12.3525Z" fill="url(#paint11_linear)"/>
<path opacity="0.2" d="M59.864 26.123H43.8227C43.4734 26.123 43.1902 26.3963 43.1902 26.7334V38.9017C43.1902 39.2388 43.4734 39.512 43.8227 39.512H59.864C60.2133 39.512 60.4965 39.2388 60.4965 38.9017V26.7334C60.4965 26.3963 60.2133 26.123 59.864 26.123Z" fill="url(#paint12_linear)"/>
<path opacity="0.2" d="M50.6269 35.4067H34.5856C34.2363 35.4067 33.9531 35.68 33.9531 36.0171V48.1854C33.9531 48.5225 34.2363 48.7957 34.5856 48.7957H50.6269C50.9762 48.7957 51.2594 48.5225 51.2594 48.1854V36.0171C51.2594 35.68 50.9762 35.4067 50.6269 35.4067Z" fill="url(#paint13_linear)"/>
<path opacity="0.5" d="M63.2865 4.83252H8.73926V57.2068H63.2865V4.83252Z" fill="white"/>
<path d="M58.2794 9.66309H3.73218V62.0374H58.2794V9.66309Z" fill="url(#paint14_linear)"/>
<path opacity="0.1" d="M21.5381 12.2686H3.73218V22.1264H21.5381V12.2686Z" fill="#1B1B1B"/>
<path opacity="0.2" d="M21.5381 31.9844H3.73218V41.8422H21.5381V31.9844Z" fill="#1B1B1B"/>
<path opacity="0.1" d="M21.5381 41.8423H3.73218V51.7001H21.5381V41.8423Z" fill="#1B1B1B"/>
<path d="M21.5391 12.2686H57.3763V60.0776C57.3763 60.4162 57.2369 60.7408 56.9888 60.9802C56.7408 61.2196 56.4043 61.3541 56.0535 61.3541H22.8619C22.511 61.3541 22.1746 61.2196 21.9265 60.9802C21.6784 60.7408 21.5391 60.4162 21.5391 60.0776V12.2686Z" fill="white"/>
<path opacity="0.3" d="M58.2794 9.66309H3.73218V12.269H58.2794V9.66309Z" fill="#1B1B1B"/>
<path opacity="0.8" d="M5.86002 11.4966C6.16322 11.4966 6.40901 11.2595 6.40901 10.967C6.40901 10.6746 6.16322 10.4375 5.86002 10.4375C5.55682 10.4375 5.31104 10.6746 5.31104 10.967C5.31104 11.2595 5.55682 11.4966 5.86002 11.4966Z" fill="url(#paint15_linear)"/>
<path opacity="0.8" d="M8.91234 10.967C8.91291 11.0724 8.88103 11.1756 8.82074 11.2635C8.76045 11.3515 8.67446 11.4201 8.57367 11.4608C8.47288 11.5016 8.36182 11.5125 8.25458 11.4923C8.14733 11.472 8.04873 11.4216 7.97126 11.3472C7.89379 11.2729 7.84094 11.1781 7.81941 11.0747C7.79788 10.9714 7.80864 10.8642 7.85032 10.7668C7.89201 10.6693 7.96274 10.586 8.05356 10.5274C8.14438 10.4688 8.25119 10.4375 8.36046 10.4375C8.4328 10.4371 8.5045 10.4506 8.57144 10.477C8.63838 10.5035 8.69924 10.5424 8.75052 10.5916C8.80181 10.6408 8.8425 10.6993 8.87027 10.7638C8.89804 10.8282 8.91234 10.8973 8.91234 10.967Z" fill="url(#paint16_linear)"/>
<path opacity="0.8" d="M10.8639 11.4966C11.1671 11.4966 11.4129 11.2595 11.4129 10.967C11.4129 10.6746 11.1671 10.4375 10.8639 10.4375C10.5607 10.4375 10.3149 10.6746 10.3149 10.967C10.3149 11.2595 10.5607 11.4966 10.8639 11.4966Z" fill="url(#paint17_linear)"/>
<path opacity="0.2" d="M33.3324 8.37817H1.95174C1.26903 8.37817 0.715576 8.91223 0.715576 9.57103V33.3752C0.715576 34.034 1.26903 34.5681 1.95174 34.5681H33.3324C34.0151 34.5681 34.5686 34.034 34.5686 33.3752V9.57103C34.5686 8.91223 34.0151 8.37817 33.3324 8.37817Z" fill="url(#paint18_linear)"/>
<path opacity="0.2" d="M50.3043 21.1733H26.2019C25.6771 21.1733 25.2517 21.5839 25.2517 22.0903V40.3733C25.2517 40.8797 25.6771 41.2903 26.2019 41.2903H50.3043C50.8291 41.2903 51.2545 40.8797 51.2545 40.3733V22.0903C51.2545 21.5839 50.8291 21.1733 50.3043 21.1733Z" fill="url(#paint19_linear)"/>
<path opacity="0.2" d="M59.0057 46.0195H34.9034C34.3786 46.0195 33.9531 46.4301 33.9531 46.9365V65.2195C33.9531 65.7259 34.3786 66.1365 34.9034 66.1365H59.0057C59.5305 66.1365 59.9559 65.7259 59.9559 65.2195V46.9365C59.9559 46.4301 59.5305 46.0195 59.0057 46.0195Z" fill="url(#paint20_linear)"/>
<defs>
<linearGradient id="paint0_linear" x1="41.0217" y1="0" x2="41.0217" y2="110.51" gradientUnits="userSpaceOnUse">
<stop stop-color="#5199FF"/>
<stop offset="1" stop-color="#0351C1"/>
</linearGradient>
<linearGradient id="paint1_linear" x1="15.872" y1="0.774414" x2="15.872" y2="3.00907" gradientUnits="userSpaceOnUse">
<stop stop-color="#5199FF"/>
<stop offset="1" stop-color="#0351C1"/>
</linearGradient>
<linearGradient id="paint2_linear" x1="18.3774" y1="0.774414" x2="18.3774" y2="3.00907" gradientUnits="userSpaceOnUse">
<stop stop-color="#5199FF"/>
<stop offset="1" stop-color="#0351C1"/>
</linearGradient>
<linearGradient id="paint3_linear" x1="20.8788" y1="0.774414" x2="20.8788" y2="3.00907" gradientUnits="userSpaceOnUse">
<stop stop-color="#5199FF"/>
<stop offset="1" stop-color="#0351C1"/>
</linearGradient>
<linearGradient id="paint4_linear" x1="45.5854" y1="7.52002" x2="45.5854" y2="44.2978" gradientUnits="userSpaceOnUse">
<stop stop-color="#5199FF"/>
<stop offset="1" stop-color="#0351C1"/>
</linearGradient>
<linearGradient id="paint5_linear" x1="56.585" y1="6.13428" x2="56.585" y2="34.3851" gradientUnits="userSpaceOnUse">
<stop stop-color="#5199FF"/>
<stop offset="1" stop-color="#0351C1"/>
</linearGradient>
<linearGradient id="paint6_linear" x1="47.6112" y1="30.5742" x2="47.6112" y2="58.825" gradientUnits="userSpaceOnUse">
<stop stop-color="#5199FF"/>
<stop offset="1" stop-color="#0351C1"/>
</linearGradient>
<linearGradient id="paint7_linear" x1="36.0129" y1="4.83252" x2="36.0129" y2="115.342" gradientUnits="userSpaceOnUse">
<stop stop-color="#5199FF"/>
<stop offset="1" stop-color="#0351C1"/>
</linearGradient>
<linearGradient id="paint8_linear" x1="10.8639" y1="5.60449" x2="10.8639" y2="7.83915" gradientUnits="userSpaceOnUse">
<stop stop-color="#5199FF"/>
<stop offset="1" stop-color="#0351C1"/>
</linearGradient>
<linearGradient id="paint9_linear" x1="13.3673" y1="5.60449" x2="13.3673" y2="7.83915" gradientUnits="userSpaceOnUse">
<stop stop-color="#5199FF"/>
<stop offset="1" stop-color="#0351C1"/>
</linearGradient>
<linearGradient id="paint10_linear" x1="15.872" y1="5.60449" x2="15.872" y2="7.83915" gradientUnits="userSpaceOnUse">
<stop stop-color="#5199FF"/>
<stop offset="1" stop-color="#0351C1"/>
</linearGradient>
<linearGradient id="paint11_linear" x1="40.5795" y1="12.3525" x2="40.5795" y2="49.1303" gradientUnits="userSpaceOnUse">
<stop stop-color="#5199FF"/>
<stop offset="1" stop-color="#0351C1"/>
</linearGradient>
<linearGradient id="paint12_linear" x1="51.8433" y1="26.123" x2="51.8433" y2="54.3738" gradientUnits="userSpaceOnUse">
<stop stop-color="#5199FF"/>
<stop offset="1" stop-color="#0351C1"/>
</linearGradient>
<linearGradient id="paint13_linear" x1="42.6063" y1="35.4067" x2="42.6063" y2="63.6575" gradientUnits="userSpaceOnUse">
<stop stop-color="#5199FF"/>
<stop offset="1" stop-color="#0351C1"/>
</linearGradient>
<linearGradient id="paint14_linear" x1="31.0058" y1="9.66309" x2="31.0058" y2="120.173" gradientUnits="userSpaceOnUse">
<stop stop-color="#5199FF"/>
<stop offset="1" stop-color="#0351C1"/>
</linearGradient>
<linearGradient id="paint15_linear" x1="5.86002" y1="10.4375" x2="5.86002" y2="12.6722" gradientUnits="userSpaceOnUse">
<stop stop-color="#5199FF"/>
<stop offset="1" stop-color="#0351C1"/>
</linearGradient>
<linearGradient id="paint16_linear" x1="8.36047" y1="10.4375" x2="8.36047" y2="12.6839" gradientUnits="userSpaceOnUse">
<stop stop-color="#5199FF"/>
<stop offset="1" stop-color="#0351C1"/>
</linearGradient>
<linearGradient id="paint17_linear" x1="10.8639" y1="10.4375" x2="10.8639" y2="12.6722" gradientUnits="userSpaceOnUse">
<stop stop-color="#5199FF"/>
<stop offset="1" stop-color="#0351C1"/>
</linearGradient>
<linearGradient id="paint18_linear" x1="17.6421" y1="8.37817" x2="17.6421" y2="63.6389" gradientUnits="userSpaceOnUse">
<stop stop-color="#5199FF"/>
<stop offset="1" stop-color="#0351C1"/>
</linearGradient>
<linearGradient id="paint19_linear" x1="38.2531" y1="21.1733" x2="38.2531" y2="63.6201" gradientUnits="userSpaceOnUse">
<stop stop-color="#5199FF"/>
<stop offset="1" stop-color="#0351C1"/>
</linearGradient>
<linearGradient id="paint20_linear" x1="46.9545" y1="46.0195" x2="46.9545" y2="88.4663" gradientUnits="userSpaceOnUse">
<stop stop-color="#5199FF"/>
<stop offset="1" stop-color="#0351C1"/>
</linearGradient>
</defs>
</svg>
