<svg width="112" height="96" viewBox="0 0 112 96" fill="none" xmlns="http://www.w3.org/2000/svg">
<path d="M56 95.9999C86.9279 95.9999 112 94.5379 112 92.7344C112 90.931 86.9279 89.469 56 89.469C25.0721 89.469 0 90.931 0 92.7344C0 94.5379 25.0721 95.9999 56 95.9999Z" fill="#F1F2F2"/>
<path d="M65.6083 0.0210595L48.6804 4.17499L47.5713 1.8211C47.525 1.72167 47.4455 1.64141 47.3464 1.59405C47.2474 1.5467 47.1349 1.53518 47.0283 1.56148L36.544 4.13461C36.4375 4.16109 36.3434 4.22349 36.2776 4.31127C36.2118 4.39904 36.1784 4.5068 36.183 4.61635L36.2928 7.21256L29.5285 8.87413C29.3395 8.92119 29.1769 9.0411 29.0763 9.2076C28.9756 9.37411 28.945 9.57367 28.9913 9.76261L34.5714 32.439C34.594 32.533 34.6351 32.6215 34.6921 32.6995C34.7492 32.7775 34.8211 32.8434 34.9038 32.8936C34.9865 32.9437 35.0783 32.977 35.1739 32.9916C35.2695 33.0062 35.3671 33.0017 35.4609 32.9785L71.535 24.1225C71.7245 24.0761 71.8878 23.9565 71.9891 23.7899C72.0903 23.6233 72.1213 23.4234 72.0751 23.234L66.4979 0.557609C66.4508 0.368876 66.3307 0.206468 66.164 0.105915C65.9973 0.0053621 65.7975 -0.0251485 65.6083 0.0210595Z" fill="url(#paint0_linear)"/>
<path opacity="0.5" d="M65.6083 0.0210595L48.6804 4.17499L47.5713 1.8211C47.525 1.72167 47.4455 1.64141 47.3464 1.59405C47.2474 1.5467 47.1349 1.53518 47.0283 1.56148L36.544 4.13461C36.4375 4.16109 36.3434 4.22349 36.2776 4.31127C36.2118 4.39904 36.1784 4.5068 36.183 4.61635L36.2928 7.21256L29.5285 8.87413C29.3395 8.92119 29.1769 9.0411 29.0763 9.2076C28.9756 9.37411 28.945 9.57367 28.9913 9.76261L34.5714 32.439C34.594 32.533 34.6351 32.6215 34.6921 32.6995C34.7492 32.7775 34.8211 32.8434 34.9038 32.8936C34.9865 32.9437 35.0783 32.977 35.1739 32.9916C35.2695 33.0062 35.3671 33.0017 35.4609 32.9785L71.535 24.1225C71.7245 24.0761 71.8878 23.9565 71.9891 23.7899C72.0903 23.6233 72.1213 23.4234 72.0751 23.234L66.4979 0.557609C66.4508 0.368876 66.3307 0.206468 66.164 0.105915C65.9973 0.0053621 65.7975 -0.0251485 65.6083 0.0210595Z" fill="white"/>
<path d="M46.3519 2.62063L37.6348 4.76074L37.9195 5.91767L46.6366 3.77756L46.3519 2.62063Z" fill="white"/>
<path d="M66.1131 7.56768L47.9173 12.0332L46.8082 9.67926C46.7618 9.57983 46.6823 9.49957 46.5833 9.45222C46.4842 9.40486 46.3718 9.39334 46.2652 9.41964L35.7809 11.9928C35.6746 12.0187 35.5806 12.0805 35.5148 12.1678C35.4489 12.2551 35.4154 12.3624 35.4199 12.4716L35.5296 15.0678L30.042 16.415C29.8525 16.4614 29.6892 16.581 29.5879 16.7476C29.4866 16.9142 29.4557 17.1141 29.5019 17.3035L35.0819 39.9799C35.1284 40.1692 35.2482 40.3323 35.415 40.4334C35.5818 40.5345 35.7819 40.5654 35.9715 40.5193L72.0485 31.6634C72.1422 31.6404 72.2305 31.5992 72.3083 31.5421C72.3861 31.4849 72.4518 31.4131 72.5017 31.3305C72.5517 31.248 72.5848 31.1564 72.5992 31.0611C72.6136 30.9657 72.609 30.8685 72.5857 30.7749L67.0085 8.09846C66.9602 7.90952 66.8387 7.74749 66.6708 7.64796C66.5029 7.54843 66.3023 7.51955 66.1131 7.56768Z" fill="url(#paint1_linear)"/>
<path opacity="0.4" d="M66.1131 7.56768L47.9173 12.0332L46.8082 9.67926C46.7618 9.57983 46.6823 9.49957 46.5833 9.45222C46.4842 9.40486 46.3718 9.39334 46.2652 9.41964L35.7809 11.9928C35.6746 12.0187 35.5806 12.0805 35.5148 12.1678C35.4489 12.2551 35.4154 12.3624 35.4199 12.4716L35.5296 15.0678L30.042 16.415C29.8525 16.4614 29.6892 16.581 29.5879 16.7476C29.4866 16.9142 29.4557 17.1141 29.5019 17.3035L35.0819 39.9799C35.1284 40.1692 35.2482 40.3323 35.415 40.4334C35.5818 40.5345 35.7819 40.5654 35.9715 40.5193L72.0485 31.6634C72.1422 31.6404 72.2305 31.5992 72.3083 31.5421C72.3861 31.4849 72.4518 31.4131 72.5017 31.3305C72.5517 31.248 72.5848 31.1564 72.5992 31.0611C72.6136 30.9657 72.609 30.8685 72.5857 30.7749L67.0085 8.09846C66.9602 7.90952 66.8387 7.74749 66.6708 7.64796C66.5029 7.54843 66.3023 7.51955 66.1131 7.56768Z" fill="white"/>
<path d="M45.5892 10.4683L36.8721 12.6084L37.1568 13.7653L45.874 11.6252L45.5892 10.4683Z" fill="white"/>
<path d="M66.6226 15.091L47.1472 19.8681L46.0381 17.5142C45.9918 17.4147 45.9123 17.3345 45.8132 17.2871C45.7142 17.2398 45.6018 17.2282 45.4951 17.2545L35.0166 19.8277C34.9098 19.8537 34.8154 19.9159 34.7495 20.0038C34.6837 20.0917 34.6505 20.1997 34.6556 20.3094L34.7654 22.9056L30.5456 23.9412C30.3561 23.9877 30.1928 24.1073 30.0916 24.2739C29.9903 24.4405 29.9594 24.6404 30.0055 24.8297L35.5943 47.509C35.6408 47.6983 35.7606 47.8614 35.9273 47.9625C36.0941 48.0637 36.2943 48.0946 36.4839 48.0485L72.5637 39.1925C72.6577 39.1699 72.7463 39.1289 72.8244 39.0719C72.9025 39.0149 72.9686 38.943 73.0188 38.8605C73.069 38.7779 73.1023 38.6862 73.1169 38.5907C73.1315 38.4952 73.1271 38.3978 73.1038 38.304L67.5237 15.6276C67.5012 15.5325 67.4597 15.4429 67.4019 15.3641C67.344 15.2853 67.2709 15.2189 67.1868 15.1689C67.1028 15.1188 67.0095 15.0861 66.9126 15.0728C66.8157 15.0594 66.7171 15.0656 66.6226 15.091Z" fill="url(#paint2_linear)"/>
<path opacity="0.3" d="M66.6226 15.091L47.1472 19.8681L46.0381 17.5142C45.9918 17.4147 45.9123 17.3345 45.8132 17.2871C45.7142 17.2398 45.6018 17.2282 45.4951 17.2545L35.0166 19.8277C34.9098 19.8537 34.8154 19.9159 34.7495 20.0038C34.6837 20.0917 34.6505 20.1997 34.6556 20.3094L34.7654 22.9056L30.5456 23.9412C30.3561 23.9877 30.1928 24.1073 30.0916 24.2739C29.9903 24.4405 29.9594 24.6404 30.0055 24.8297L35.5943 47.509C35.6408 47.6983 35.7606 47.8614 35.9273 47.9625C36.0941 48.0637 36.2943 48.0946 36.4839 48.0485L72.5637 39.1925C72.6577 39.1699 72.7463 39.1289 72.8244 39.0719C72.9025 39.0149 72.9686 38.943 73.0188 38.8605C73.069 38.7779 73.1023 38.6862 73.1169 38.5907C73.1315 38.4952 73.1271 38.3978 73.1038 38.304L67.5237 15.6276C67.5012 15.5325 67.4597 15.4429 67.4019 15.3641C67.344 15.2853 67.2709 15.2189 67.1868 15.1689C67.1028 15.1188 67.0095 15.0861 66.9126 15.0728C66.8157 15.0594 66.7171 15.0656 66.6226 15.091Z" fill="white"/>
<path d="M44.8295 18.3125L36.1123 20.4526L36.397 21.6096L45.1142 19.4695L44.8295 18.3125Z" fill="white"/>
<path d="M81.1092 23.2167L59.7853 24.2984L59.1412 21.7772C59.1141 21.6709 59.0509 21.5771 58.9625 21.512C58.8741 21.4468 58.7658 21.4141 58.656 21.4195L47.8742 21.9676C47.7644 21.973 47.6599 22.0162 47.5783 22.0898C47.4967 22.1634 47.4431 22.2629 47.4266 22.3715L47.0424 24.9446L44.0098 25.1004C43.9131 25.1048 43.8183 25.1283 43.7308 25.1694C43.6433 25.2106 43.5648 25.2687 43.4999 25.3402C43.4349 25.4118 43.3848 25.4955 43.3523 25.5866C43.3199 25.6776 43.3058 25.7741 43.3108 25.8706L44.5008 49.1903C44.5105 49.3849 44.5972 49.5678 44.7417 49.6987C44.8863 49.8296 45.077 49.8978 45.2719 49.8884L82.3829 48.0047C82.5778 47.995 82.7608 47.9084 82.8919 47.764C83.0229 47.6196 83.0913 47.4292 83.0818 47.2345L81.8919 23.9119C81.8871 23.8146 81.863 23.7192 81.8209 23.6314C81.7788 23.5435 81.7195 23.4649 81.6466 23.4002C81.5738 23.3354 81.4887 23.2859 81.3964 23.2544C81.3041 23.2228 81.2065 23.21 81.1092 23.2167Z" fill="url(#paint3_linear)"/>
<path opacity="0.2" d="M81.1092 23.2167L59.7853 24.2984L59.1412 21.7772C59.1141 21.6709 59.0509 21.5771 58.9625 21.512C58.8741 21.4468 58.7658 21.4141 58.656 21.4195L47.8742 21.9676C47.7644 21.973 47.6599 22.0162 47.5783 22.0898C47.4967 22.1634 47.4431 22.2629 47.4266 22.3715L47.0424 24.9446L44.0098 25.1004C43.9131 25.1048 43.8183 25.1283 43.7308 25.1694C43.6433 25.2106 43.5648 25.2687 43.4999 25.3402C43.4349 25.4118 43.3848 25.4955 43.3523 25.5866C43.3199 25.6776 43.3058 25.7741 43.3108 25.8706L44.5008 49.1903C44.5105 49.3849 44.5972 49.5678 44.7417 49.6987C44.8863 49.8296 45.077 49.8978 45.2719 49.8884L82.3829 48.0047C82.5778 47.995 82.7608 47.9084 82.8919 47.764C83.0229 47.6196 83.0913 47.4292 83.0818 47.2345L81.8919 23.9119C81.8871 23.8146 81.863 23.7192 81.8209 23.6314C81.7788 23.5435 81.7195 23.4649 81.6466 23.4002C81.5738 23.3354 81.4887 23.2859 81.3964 23.2544C81.3041 23.2228 81.2065 23.21 81.1092 23.2167Z" fill="white"/>
<path d="M57.7895 22.3417L48.8245 22.7969L48.885 23.9867L57.8501 23.5315L57.7895 22.3417Z" fill="white"/>
<path d="M67.6354 30.1572L45.6299 35.5487L44.5237 33.1948C44.4733 33.0969 44.3906 33.0193 44.2896 32.9752C44.1886 32.931 44.0754 32.923 43.9692 32.9525L33.4849 35.5256C33.3781 35.5516 33.2837 35.6138 33.2178 35.7017C33.152 35.7896 33.1187 35.8977 33.1239 36.0073L33.2336 38.6035L31.5498 39.0103C31.3603 39.0567 31.197 39.1763 31.0957 39.3429C30.9945 39.5095 30.9635 39.7094 31.0097 39.8988L36.5898 62.5752C36.6369 62.7647 36.7573 62.9278 36.9245 63.0289C37.0918 63.13 37.2923 63.1608 37.4822 63.1146L73.5563 54.2587C73.7453 54.2116 73.9079 54.0917 74.0085 53.9252C74.1092 53.7587 74.1398 53.5591 74.0935 53.3702L68.5192 30.6966C68.472 30.509 68.3529 30.3474 68.1877 30.2465C68.0224 30.1457 67.8241 30.1136 67.6354 30.1572Z" fill="url(#paint4_linear)"/>
<path opacity="0.1" d="M67.6354 30.1572L45.6299 35.5487L44.5237 33.1948C44.4733 33.0969 44.3906 33.0193 44.2896 32.9752C44.1886 32.931 44.0754 32.923 43.9692 32.9525L33.4849 35.5256C33.3781 35.5516 33.2837 35.6138 33.2178 35.7017C33.152 35.7896 33.1187 35.8977 33.1239 36.0073L33.2336 38.6035L31.5498 39.0103C31.3603 39.0567 31.197 39.1763 31.0957 39.3429C30.9945 39.5095 30.9635 39.7094 31.0097 39.8988L36.5898 62.5752C36.6369 62.7647 36.7573 62.9278 36.9245 63.0289C37.0918 63.13 37.2923 63.1608 37.4822 63.1146L73.5563 54.2587C73.7453 54.2116 73.9079 54.0917 74.0085 53.9252C74.1092 53.7587 74.1398 53.5591 74.0935 53.3702L68.5192 30.6966C68.472 30.509 68.3529 30.3474 68.1877 30.2465C68.0224 30.1457 67.8241 30.1136 67.6354 30.1572Z" fill="white"/>
<path d="M43.3043 34.0074L34.5872 36.1475L34.8719 37.3044L43.589 35.1643L43.3043 34.0074Z" fill="white"/>
<path d="M68.1445 37.6912L32.0726 46.5471C31.6776 46.644 31.4361 47.0425 31.5332 47.437L37.1135 70.1106C37.2106 70.5051 37.6095 70.7463 38.0045 70.6493L74.0763 61.7935C74.4713 61.6965 74.7128 61.2981 74.6157 60.9036L69.0355 38.23C68.9384 37.8355 68.5394 37.5943 68.1445 37.6912Z" fill="url(#paint5_linear)"/>
<path d="M44.5815 44.1337L33.0719 46.9578C33.0043 46.9726 32.9343 46.9724 32.8667 46.9574C32.7991 46.9424 32.7357 46.9128 32.6807 46.8708C32.6257 46.8288 32.5805 46.7754 32.5484 46.7142C32.5162 46.653 32.4977 46.5855 32.4943 46.5165L32.3816 43.8481C32.3765 43.7385 32.4097 43.6304 32.4756 43.5425C32.5414 43.4547 32.6359 43.3924 32.7427 43.3664L43.2269 40.7933C43.3339 40.7674 43.4466 40.779 43.546 40.8263C43.6454 40.8736 43.7255 40.9536 43.7728 41.0529L44.9108 43.4674C44.9405 43.5321 44.9553 43.6026 44.9543 43.6737C44.9533 43.7449 44.9364 43.8149 44.9049 43.8788C44.8733 43.9426 44.8279 43.9986 44.772 44.0427C44.7161 44.0868 44.651 44.1179 44.5815 44.1337Z" fill="url(#paint6_linear)"/>
<path d="M42.5406 41.8521L33.8235 43.9922L34.1082 45.1491L42.8254 43.009L42.5406 41.8521Z" fill="white"/>
<defs>
<linearGradient id="paint0_linear" x1="50.5331" y1="0" x2="50.5331" y2="69.63" gradientUnits="userSpaceOnUse">
<stop stop-color="#5199FF"/>
<stop offset="1" stop-color="#0351C1"/>
</linearGradient>
<linearGradient id="paint1_linear" x1="51.0442" y1="7.54492" x2="51.0442" y2="77.165" gradientUnits="userSpaceOnUse">
<stop stop-color="#5199FF"/>
<stop offset="1" stop-color="#0351C1"/>
</linearGradient>
<linearGradient id="paint2_linear" x1="51.555" y1="15.0659" x2="51.555" y2="84.7031" gradientUnits="userSpaceOnUse">
<stop stop-color="#5199FF"/>
<stop offset="1" stop-color="#0351C1"/>
</linearGradient>
<linearGradient id="paint3_linear" x1="63.1962" y1="21.4189" x2="63.1962" y2="81.4913" gradientUnits="userSpaceOnUse">
<stop stop-color="#5199FF"/>
<stop offset="1" stop-color="#0351C1"/>
</linearGradient>
<linearGradient id="paint4_linear" x1="52.5517" y1="30.1382" x2="52.5517" y2="99.7627" gradientUnits="userSpaceOnUse">
<stop stop-color="#5199FF"/>
<stop offset="1" stop-color="#0351C1"/>
</linearGradient>
<linearGradient id="paint5_linear" x1="50.1085" y1="42.1192" x2="62.5957" y2="92.9821" gradientUnits="userSpaceOnUse">
<stop stop-color="#5199FF"/>
<stop offset="1" stop-color="#0351C1"/>
</linearGradient>
<linearGradient id="paint6_linear" x1="38.6677" y1="40.7798" x2="38.6677" y2="53.8386" gradientUnits="userSpaceOnUse">
<stop stop-color="#5199FF"/>
<stop offset="1" stop-color="#0351C1"/>
</linearGradient>
</defs>
</svg>
