<svg width="104" height="96" viewBox="0 0 104 96" fill="none" xmlns="http://www.w3.org/2000/svg">
<path d="M52 95.9998C80.7188 95.9998 104 94.6264 104 92.9323C104 91.2381 80.7188 89.8647 52 89.8647C23.2812 89.8647 0 91.2381 0 92.9323C0 94.6264 23.2812 95.9998 52 95.9998Z" fill="#F1F2F2"/>
<path d="M21.7249 29.5683C21.6438 29.5683 21.5661 29.5357 21.5087 29.4778C21.4514 29.4198 21.4192 29.3413 21.4192 29.2593V4.44808C21.4192 4.36615 21.4514 4.28758 21.5087 4.22964C21.5661 4.17171 21.6438 4.13916 21.7249 4.13916C21.806 4.13916 21.8838 4.17171 21.9411 4.22964C21.9985 4.28758 22.0307 4.36615 22.0307 4.44808V29.2593C22.0307 29.3413 21.9985 29.4198 21.9411 29.4778C21.8838 29.5357 21.806 29.5683 21.7249 29.5683Z" fill="url(#paint0_linear)"/>
<path d="M29.9106 29.5688C29.8295 29.5688 29.7517 29.5362 29.6944 29.4783C29.6371 29.4203 29.6049 29.3418 29.6049 29.2598V4.44857C29.6009 4.40539 29.6058 4.36184 29.6194 4.3207C29.6331 4.27957 29.655 4.24176 29.6839 4.2097C29.7128 4.17763 29.748 4.15202 29.7873 4.13449C29.8266 4.11696 29.869 4.10791 29.9119 4.10791C29.9549 4.10791 29.9973 4.11696 30.0366 4.13449C30.0758 4.15202 30.1111 4.17763 30.14 4.2097C30.1689 4.24176 30.1908 4.27957 30.2044 4.3207C30.2181 4.36184 30.223 4.40539 30.219 4.44857V29.2598C30.2183 29.342 30.1855 29.4206 30.1277 29.4784C30.07 29.5363 29.9919 29.5688 29.9106 29.5688Z" fill="url(#paint1_linear)"/>
<path d="M29.9111 13.0275C29.8298 13.0277 29.7518 12.9956 29.6938 12.938L25.8184 9.02232L21.943 12.9272C21.8839 12.9772 21.8084 13.003 21.7314 12.9996C21.6544 12.9961 21.5815 12.9637 21.527 12.9086C21.4724 12.8535 21.4403 12.7798 21.4369 12.702C21.4335 12.6242 21.4591 12.5479 21.5086 12.4882L25.384 8.59145L21.5086 4.66761C21.4619 4.62472 21.4294 4.56843 21.4154 4.5063C21.4014 4.44417 21.4066 4.3792 21.4303 4.32014C21.4539 4.26108 21.495 4.21077 21.5478 4.176C21.6006 4.14122 21.6628 4.12365 21.7258 4.12564H29.9111C29.9719 4.12577 30.0314 4.14412 30.082 4.17836C30.1326 4.2126 30.172 4.2612 30.1953 4.31804C30.2188 4.37483 30.225 4.43741 30.2131 4.49776C30.2011 4.55811 30.1716 4.61348 30.1283 4.65677L26.2529 8.59145L30.1283 12.5072C30.1765 12.5494 30.2105 12.6057 30.2254 12.6684C30.2403 12.7311 30.2355 12.7969 30.2115 12.8567C30.1876 12.9164 30.1457 12.9671 30.0919 13.0016C30.038 13.0361 29.9748 13.0527 29.9111 13.0491V13.0275ZM22.466 4.75703L25.8184 8.14433L29.1708 4.75703H22.466Z" fill="url(#paint2_linear)"/>
<path d="M21.7251 4.75712C21.6643 4.75755 21.6048 4.73966 21.5541 4.70574C21.5035 4.67183 21.4639 4.62342 21.4406 4.56671C21.4173 4.51 21.4113 4.44756 21.4232 4.38735C21.4352 4.32715 21.4647 4.27192 21.5078 4.22871L25.6005 0.0934953C25.6289 0.0644915 25.6627 0.0414681 25.7 0.0257556C25.7373 0.010043 25.7773 0.00195312 25.8177 0.00195312C25.8581 0.00195312 25.8981 0.010043 25.9354 0.0257556C25.9727 0.0414681 26.0065 0.0644915 26.0349 0.0934953L30.1276 4.22871C30.1563 4.25743 30.1791 4.29162 30.1946 4.32929C30.2102 4.36697 30.2182 4.40738 30.2182 4.4482C30.2182 4.48902 30.2102 4.52944 30.1946 4.56711C30.1791 4.60479 30.1563 4.63897 30.1276 4.6677C30.0695 4.72497 29.9915 4.75703 29.9103 4.75703C29.8292 4.75703 29.7512 4.72497 29.6931 4.6677L25.8177 0.751985L21.9423 4.6677C21.8844 4.72525 21.8063 4.75739 21.7251 4.75712Z" fill="url(#paint3_linear)"/>
<path d="M38.0956 4.75712C38.0145 4.75681 37.9366 4.72476 37.8784 4.6677L34.003 0.751985L30.1276 4.6677C30.0695 4.72497 29.9915 4.75703 29.9104 4.75703C29.8292 4.75703 29.7512 4.72497 29.6931 4.6677C29.6644 4.63897 29.6416 4.60479 29.6261 4.56711C29.6105 4.52944 29.6025 4.48902 29.6025 4.4482C29.6025 4.40738 29.6105 4.36697 29.6261 4.32929C29.6416 4.29162 29.6644 4.25743 29.6931 4.22871L33.7858 0.0934953C33.8142 0.0644915 33.848 0.0414681 33.8853 0.0257556C33.9226 0.010043 33.9626 0.00195312 34.003 0.00195312C34.0434 0.00195312 34.0834 0.010043 34.1207 0.0257556C34.158 0.0414681 34.1918 0.0644915 34.2202 0.0934953L38.3209 4.22871C38.3641 4.27192 38.3936 4.32715 38.4055 4.38735C38.4175 4.44756 38.4114 4.51 38.3881 4.56671C38.3648 4.62342 38.3253 4.67183 38.2746 4.70574C38.224 4.73966 38.1645 4.75755 38.1037 4.75712H38.0956Z" fill="url(#paint4_linear)"/>
<path d="M38.0949 4.75712C38.0138 4.75681 37.936 4.72476 37.8777 4.6677C37.849 4.63897 37.8262 4.60479 37.8107 4.56711C37.7951 4.52944 37.7871 4.48902 37.7871 4.4482C37.7871 4.40738 37.7951 4.36697 37.8107 4.32929C37.8262 4.29162 37.849 4.25743 37.8777 4.22871L41.9703 0.0934953C41.9988 0.0644915 42.0326 0.0414681 42.0699 0.0257556C42.1072 0.010043 42.1472 0.00195312 42.1876 0.00195312C42.228 0.00195312 42.268 0.010043 42.3053 0.0257556C42.3425 0.0414681 42.3764 0.0644915 42.4048 0.0934953L46.4974 4.22871C46.5261 4.25743 46.5489 4.29162 46.5645 4.32929C46.58 4.36697 46.588 4.40738 46.588 4.4482C46.588 4.48902 46.58 4.52944 46.5645 4.56711C46.5489 4.60479 46.5261 4.63897 46.4974 4.6677C46.4393 4.72497 46.3614 4.75703 46.2802 4.75703C46.199 4.75703 46.1211 4.72497 46.063 4.6677L42.1876 0.751985L38.3202 4.6677C38.2906 4.69718 38.2553 4.72031 38.2166 4.73567C38.1779 4.75104 38.1365 4.75834 38.0949 4.75712Z" fill="url(#paint5_linear)"/>
<path d="M21.7251 21.2978C21.6643 21.2982 21.6048 21.2803 21.5541 21.2464C21.5035 21.2125 21.4639 21.1641 21.4406 21.1074C21.4173 21.0507 21.4113 20.9882 21.4232 20.928C21.4352 20.8678 21.4647 20.8126 21.5078 20.7694L29.6931 12.499C29.7522 12.449 29.8277 12.4231 29.9047 12.4266C29.9817 12.43 30.0547 12.4625 30.1092 12.5175C30.1637 12.5726 30.1958 12.6463 30.1992 12.7241C30.2026 12.8019 30.1771 12.8782 30.1276 12.938L21.9423 21.2084C21.8844 21.2659 21.8063 21.2981 21.7251 21.2978Z" fill="url(#paint6_linear)"/>
<path d="M29.91 21.2979C29.8287 21.2982 29.7507 21.266 29.6927 21.2085L21.5075 12.9272C21.458 12.8675 21.4324 12.7912 21.4358 12.7134C21.4393 12.6356 21.4714 12.5619 21.5259 12.5068C21.5804 12.4517 21.6533 12.4193 21.7303 12.4158C21.8074 12.4124 21.8828 12.4382 21.942 12.4882L30.1272 20.7586C30.1704 20.8018 30.1999 20.8571 30.2118 20.9173C30.2238 20.9775 30.2177 21.0399 30.1944 21.0966C30.1711 21.1534 30.1316 21.2018 30.0809 21.2357C30.0303 21.2696 29.9708 21.2875 29.91 21.2871V21.2979Z" fill="url(#paint7_linear)"/>
<path d="M29.9104 29.5686H21.7252C21.6645 29.569 21.6051 29.5512 21.5545 29.5174C21.5039 29.4837 21.4643 29.4354 21.4409 29.3789C21.4181 29.322 21.4123 29.2596 21.4243 29.1994C21.4362 29.1392 21.4653 29.0838 21.508 29.0402L25.3833 25.1217L21.508 21.206C21.4585 21.1463 21.4329 21.07 21.4363 20.9922C21.4397 20.9144 21.4718 20.8407 21.5263 20.7856C21.5809 20.7305 21.6538 20.6981 21.7308 20.6946C21.8078 20.6912 21.8833 20.717 21.9424 20.767L25.8178 24.6827L29.6932 20.767C29.7523 20.717 29.8278 20.6912 29.9048 20.6946C29.9818 20.6981 30.0548 20.7305 30.1093 20.7856C30.1638 20.8407 30.1959 20.9144 30.1993 20.9922C30.2027 21.07 30.1772 21.1463 30.1277 21.206L26.2523 25.1217L30.1277 29.0374C30.1709 29.0807 30.2003 29.1359 30.2123 29.1961C30.2243 29.2563 30.2182 29.3187 30.1949 29.3755C30.1716 29.4322 30.1321 29.4806 30.0814 29.5145C30.0307 29.5484 29.9712 29.5663 29.9104 29.5659V29.5686ZM22.4654 28.9507H29.1702L25.8178 25.5634L22.4654 28.9507Z" fill="#1B1B1B"/>
<path d="M18.8611 8.91405H14.4895L15.0393 4.44824H18.3086L18.8611 8.91405Z" fill="url(#paint8_linear)"/>
<path d="M18.8602 9.22281H14.4887C14.4453 9.2227 14.4024 9.21349 14.3627 9.19577C14.323 9.17804 14.2873 9.15219 14.258 9.11984C14.2297 9.0865 14.2085 9.04767 14.1956 9.00573C14.1826 8.96379 14.1783 8.91963 14.1829 8.87595L14.7354 4.41014C14.7446 4.33542 14.7804 4.26664 14.8362 4.21674C14.892 4.16684 14.9639 4.13925 15.0385 4.13916H18.3077C18.3826 4.13917 18.4548 4.16667 18.5111 4.21652C18.5673 4.26637 18.6037 4.33519 18.6135 4.41014L19.1499 8.87595C19.1552 8.91936 19.1513 8.96342 19.1385 9.0052C19.1257 9.04699 19.1043 9.08555 19.0756 9.11834C19.047 9.15113 19.0118 9.1774 18.9723 9.19541C18.9329 9.21342 18.8901 9.22276 18.8468 9.22281H18.8602ZM14.8373 8.60226H18.5116L18.0369 4.757H15.312L14.8373 8.60226Z" fill="url(#paint9_linear)"/>
<path d="M46.2812 4.75741H13.7976C13.7549 4.76145 13.7118 4.75643 13.6711 4.74267C13.6303 4.72892 13.5929 4.70673 13.5612 4.67752C13.5295 4.64832 13.5041 4.61274 13.4868 4.57307C13.4694 4.53339 13.4604 4.4905 13.4604 4.44713C13.4604 4.40376 13.4694 4.36086 13.4868 4.32119C13.5041 4.28152 13.5295 4.24594 13.5612 4.21674C13.5929 4.18753 13.6303 4.16534 13.6711 4.15159C13.7118 4.13783 13.7549 4.13281 13.7976 4.13685H46.2812C46.3239 4.13281 46.367 4.13783 46.4077 4.15159C46.4484 4.16534 46.4859 4.18753 46.5176 4.21674C46.5493 4.24594 46.5747 4.28152 46.592 4.32119C46.6094 4.36086 46.6183 4.40376 46.6183 4.44713C46.6183 4.4905 46.6094 4.53339 46.592 4.57307C46.5747 4.61274 46.5493 4.64832 46.5176 4.67752C46.4859 4.70673 46.4484 4.72892 46.4077 4.74267C46.367 4.75643 46.3239 4.76145 46.2812 4.75741Z" fill="#1B1B1B"/>
<path d="M42.1876 0.621906H25.8278C25.7513 0.614675 25.6802 0.578862 25.6285 0.521474C25.5768 0.464085 25.5481 0.389255 25.5481 0.31163C25.5481 0.234006 25.5768 0.159176 25.6285 0.101787C25.6802 0.044399 25.7513 0.00858579 25.8278 0.00135515H42.1876C42.2303 -0.00268485 42.2734 0.00233195 42.3141 0.0160877C42.3548 0.0298435 42.3923 0.052034 42.424 0.081239C42.4557 0.110444 42.4811 0.14602 42.4984 0.185692C42.5158 0.225364 42.5247 0.268259 42.5247 0.31163C42.5247 0.355002 42.5158 0.397897 42.4984 0.437569C42.4811 0.477241 42.4557 0.512817 42.424 0.542022C42.3923 0.571227 42.3548 0.593417 42.3141 0.607173C42.2734 0.620929 42.2303 0.625946 42.1876 0.621906Z" fill="url(#paint10_linear)"/>
<path d="M50.5799 18.3335H19.0216C17.3523 18.3335 15.999 19.7008 15.999 21.3875V88.6212C15.999 90.3079 17.3523 91.6752 19.0216 91.6752H50.5799C52.2492 91.6752 53.6024 90.3079 53.6024 88.6212V21.3875C53.6024 19.7008 52.2492 18.3335 50.5799 18.3335Z" fill="url(#paint11_linear)"/>
<path opacity="0.2" d="M50.5799 18.3335H19.0216C17.3523 18.3335 15.999 19.7008 15.999 21.3875V88.6212C15.999 90.3079 17.3523 91.6752 19.0216 91.6752H50.5799C52.2492 91.6752 53.6024 90.3079 53.6024 88.6212V21.3875C53.6024 19.7008 52.2492 18.3335 50.5799 18.3335Z" fill="#1B1B1B"/>
<path d="M54.4422 18.3335H22.8839C21.2146 18.3335 19.8613 19.7008 19.8613 21.3875V88.6212C19.8613 90.3079 21.2146 91.6752 22.8839 91.6752H54.4422C56.1115 91.6752 57.4647 90.3079 57.4647 88.6212V21.3875C57.4647 19.7008 56.1115 18.3335 54.4422 18.3335Z" fill="url(#paint12_linear)"/>
<path d="M56.2039 88.6208L56.2039 21.3844C56.2039 20.4011 55.415 19.604 54.4418 19.604L22.8808 19.604C21.9077 19.604 21.1188 20.4011 21.1188 21.3844L21.1188 88.6208C21.1188 89.6041 21.9077 90.4012 22.8808 90.4012H54.4418C55.415 90.4012 56.2039 89.6041 56.2039 88.6208Z" fill="white"/>
<path opacity="0.1" d="M55.7012 60.4186L54.2558 30.3424C54.1973 29.1256 53.1736 28.1871 51.9694 28.2461L26.2049 29.5102C25.0006 29.5693 24.0718 30.6036 24.1303 31.8204L25.5757 61.8967C25.6342 63.1135 26.6578 64.052 27.8621 63.9929L53.6266 62.7288C54.8308 62.6697 55.7597 61.6354 55.7012 60.4186Z" fill="#1B1B1B"/>
<path d="M55.1978 23.0836V21.81C55.1978 21.1544 54.6718 20.623 54.0231 20.623L23.3015 20.623C22.6528 20.623 22.1268 21.1544 22.1268 21.81V23.0836C22.1268 23.7391 22.6528 24.2705 23.3015 24.2705H54.0231C54.6718 24.2705 55.1978 23.7391 55.1978 23.0836Z" fill="url(#paint13_linear)"/>
<path d="M25.6253 23.3007C25.401 23.3007 25.1859 23.2109 25.027 23.0509C24.8681 22.8909 24.7785 22.6738 24.7778 22.4471C24.7785 22.2202 24.8681 22.0028 25.0268 21.8424C25.1856 21.682 25.4008 21.5915 25.6253 21.5908C25.8499 21.5915 26.065 21.682 26.2238 21.8424C26.3826 22.0028 26.4721 22.2202 26.4728 22.4471C26.4721 22.6738 26.3825 22.8909 26.2236 23.0509C26.0648 23.2109 25.8496 23.3007 25.6253 23.3007Z" fill="white"/>
<path d="M28.1431 23.3007C27.9188 23.3007 27.7037 23.2109 27.5448 23.0509C27.386 22.8909 27.2964 22.6738 27.2957 22.4471C27.2964 22.2202 27.3859 22.0028 27.5447 21.8424C27.7034 21.682 27.9186 21.5915 28.1431 21.5908C28.3674 21.5915 28.5823 21.6821 28.7407 21.8426C28.899 22.0031 28.988 22.2205 28.988 22.4471C28.9872 22.6733 28.898 22.89 28.7397 23.0499C28.5815 23.2099 28.367 23.3 28.1431 23.3007Z" fill="white"/>
<path d="M30.6607 23.3007C30.4364 23.3007 30.2213 23.2109 30.0624 23.0509C29.9035 22.8909 29.8139 22.6738 29.8132 22.4471C29.8139 22.2202 29.9035 22.0028 30.0622 21.8424C30.221 21.682 30.4362 21.5915 30.6607 21.5908C30.885 21.5915 31.0999 21.6821 31.2583 21.8426C31.4166 22.0031 31.5055 22.2205 31.5055 22.4471C31.5048 22.6733 31.4156 22.89 31.2573 23.0499C31.099 23.2099 30.8846 23.3 30.6607 23.3007Z" fill="white"/>
<path d="M52.8401 21.3848H51.6654C51.4106 21.3848 51.2041 21.5934 51.2041 21.8509V23.0378C51.2041 23.2952 51.4106 23.5039 51.6654 23.5039H52.8401C53.0948 23.5039 53.3014 23.2952 53.3014 23.0378V21.8509C53.3014 21.5934 53.0948 21.3848 52.8401 21.3848Z" fill="white"/>
<path d="M32.6308 75.9832C35.629 74.7283 37.0528 71.2553 35.8109 68.2258C34.569 65.1963 31.1317 63.7577 28.1334 65.0126C25.1352 66.2674 23.7114 69.7405 24.9533 72.77C26.1952 75.7994 29.6325 77.238 32.6308 75.9832Z" fill="url(#paint14_linear)"/>
<path d="M51.3583 67.7985H39.9011C39.7064 67.7977 39.5199 67.7193 39.3823 67.5802C39.2446 67.4411 39.167 67.2527 39.1663 67.056C39.167 66.8593 39.2446 66.6708 39.3823 66.5317C39.5199 66.3926 39.7064 66.3142 39.9011 66.3135H51.3583C51.5532 66.3135 51.7401 66.3917 51.8779 66.5309C52.0158 66.6702 52.0932 66.859 52.0932 67.056C52.0932 67.2529 52.0158 67.4417 51.8779 67.581C51.7401 67.7202 51.5532 67.7985 51.3583 67.7985Z" fill="url(#paint15_linear)"/>
<path d="M51.3583 71.2399H39.9011C39.7064 71.2392 39.5199 71.1607 39.3823 71.0216C39.2446 70.8825 39.167 70.6941 39.1663 70.4974C39.167 70.3007 39.2446 70.1122 39.3823 69.9731C39.5199 69.8341 39.7064 69.7556 39.9011 69.7549H51.3583C51.5532 69.7549 51.7401 69.8331 51.8779 69.9724C52.0158 70.1116 52.0932 70.3005 52.0932 70.4974C52.0932 70.6943 52.0158 70.8832 51.8779 71.0224C51.7401 71.1617 51.5532 71.2399 51.3583 71.2399Z" fill="url(#paint16_linear)"/>
<path d="M51.3583 73.1968H39.9011C39.4953 73.1968 39.1663 73.5292 39.1663 73.9393C39.1663 74.3493 39.4953 74.6818 39.9011 74.6818H51.3583C51.7642 74.6818 52.0932 74.3493 52.0932 73.9393C52.0932 73.5292 51.7642 73.1968 51.3583 73.1968Z" fill="url(#paint17_linear)"/>
<path d="M50.1885 79.7681H27.14C25.6855 79.7681 24.5063 80.9595 24.5063 82.4291V85.7378C24.5063 87.2075 25.6855 88.3989 27.14 88.3989H50.1885C51.6431 88.3989 52.8222 87.2075 52.8222 85.7378V82.4291C52.8222 80.9595 51.6431 79.7681 50.1885 79.7681Z" fill="#E6E7E8"/>
<path d="M58.8747 58.2421L56.5572 28.2216C56.4635 27.007 55.413 26.0993 54.211 26.194L28.4942 28.2207C27.2922 28.3155 26.3938 29.3769 26.4875 30.5914L28.805 60.6119C28.8988 61.8265 29.9492 62.7342 31.1512 62.6395L56.868 60.6128C58.07 60.518 58.9684 59.4566 58.8747 58.2421Z" fill="white"/>
<path d="M30.9748 62.7879C30.3908 62.7868 29.8286 62.5629 29.401 62.1609C28.9733 61.7589 28.7116 61.2086 28.6684 60.6201L26.3512 30.5978C26.3045 29.9792 26.5025 29.3672 26.9016 28.8958C27.3008 28.4245 27.8686 28.1322 28.4806 28.0831L54.2004 26.0561C54.8126 26.009 55.4183 26.209 55.8848 26.6123C56.3513 27.0156 56.6406 27.5893 56.6892 28.2077L59.0064 58.23C59.0538 58.849 58.8562 59.4617 58.457 59.9337C58.0577 60.4057 57.4895 60.6983 56.877 60.7474L31.1572 62.7717C31.0955 62.7879 31.0365 62.7879 30.9748 62.7879ZM28.9366 60.6201C28.9804 61.1658 29.2364 61.6718 29.6485 62.0273C30.0607 62.3828 30.5954 62.5589 31.1358 62.5169L56.8555 60.49C57.3959 60.445 57.8967 60.1858 58.2484 59.7689C58.6002 59.3521 58.7744 58.8114 58.7328 58.2652L56.4157 28.2429C56.3719 27.6967 56.1155 27.1902 55.7027 26.8347C55.29 26.4791 54.7546 26.3034 54.2138 26.3461L28.4967 28.373C27.9564 28.4179 27.4556 28.6772 27.1038 29.0941C26.752 29.5109 26.5779 30.0516 26.6194 30.5978L28.9366 60.6201Z" fill="url(#paint18_linear)"/>
<path d="M57.7562 57.7101L57.2425 51.056C57.1684 50.0966 56.3387 49.3795 55.3891 49.4543L30.897 51.3846C29.9475 51.4594 29.2378 52.2978 29.3119 53.2572L29.8255 59.9113C29.8996 60.8707 30.7294 61.5878 31.6789 61.513L56.171 59.5828C57.1205 59.5079 57.8302 58.6695 57.7562 57.7101Z" fill="url(#paint19_linear)"/>
<path opacity="0.2" d="M43.2277 47.6213L41.8692 30.0229C41.7942 29.0516 40.9541 28.3256 39.9927 28.4013L29.2119 29.251C28.2506 29.3267 27.5321 30.1756 27.6071 31.1469L28.9656 48.7453C29.0406 49.7167 29.8807 50.4427 30.842 50.3669L41.6228 49.5173C42.5842 49.4415 43.3027 48.5927 43.2277 47.6213Z" fill="url(#paint20_linear)"/>
<path opacity="0.2" d="M55.6503 31.5921L55.4199 28.6068C55.3596 27.8264 54.6847 27.2432 53.9124 27.3041L44.6744 28.0321C43.9021 28.093 43.3248 28.7749 43.385 29.5553L43.6155 32.5406C43.6757 33.3209 44.3507 33.9042 45.123 33.8433L54.361 33.1153C55.1333 33.0544 55.7106 32.3725 55.6503 31.5921Z" fill="url(#paint21_linear)"/>
<path opacity="0.4" d="M56.2389 39.2444L56.0085 36.2591C55.9482 35.4788 55.2733 34.8955 54.501 34.9564L45.263 35.6845C44.4907 35.7453 43.9134 36.4273 43.9737 37.2076L44.2041 40.1929C44.2644 40.9733 44.9393 41.5565 45.7116 41.4957L54.9496 40.7676C55.7219 40.7067 56.2992 40.0248 56.2389 39.2444Z" fill="url(#paint22_linear)"/>
<path opacity="0.6" d="M56.8315 46.8968L56.601 43.9115C56.5408 43.1311 55.8659 42.5479 55.0935 42.6087L45.8555 43.3368C45.0832 43.3977 44.506 44.0796 44.5662 44.86L44.7967 47.8453C44.8569 48.6256 45.5318 49.2089 46.3041 49.148L55.5421 48.4199C56.3145 48.3591 56.8917 47.6771 56.8315 46.8968Z" fill="url(#paint23_linear)"/>
<path d="M45.6285 22.5856C45.5922 22.5856 45.5574 22.571 45.5318 22.5451C45.5061 22.5192 45.4917 22.484 45.4917 22.4474V4.44864C45.4877 4.42858 45.4882 4.40788 45.4931 4.38803C45.498 4.36817 45.5071 4.34966 45.52 4.33384C45.5328 4.31801 45.5489 4.30526 45.5672 4.2965C45.5855 4.28774 45.6055 4.2832 45.6258 4.2832C45.646 4.2832 45.666 4.28774 45.6843 4.2965C45.7026 4.30526 45.7188 4.31801 45.7316 4.33384C45.7444 4.34966 45.7536 4.36817 45.7585 4.38803C45.7634 4.40788 45.7639 4.42858 45.7599 4.44864V22.4474C45.7599 22.4831 45.7462 22.5175 45.7217 22.5432C45.6972 22.569 45.6638 22.5842 45.6285 22.5856Z" fill="#1B1B1B"/>
<path d="M47.3317 25.3923H43.9256C43.7899 25.3922 43.6579 25.3478 43.5492 25.2658C43.4405 25.1837 43.3609 25.0685 43.3222 24.9371L42.59 22.4223C42.5631 22.3277 42.5582 22.228 42.5758 22.1312C42.5934 22.0343 42.633 21.9429 42.6915 21.8641C42.75 21.7853 42.8257 21.7213 42.9128 21.6771C42.9999 21.6329 43.096 21.6097 43.1935 21.6094H48.0638C48.1613 21.6097 48.2574 21.6329 48.3445 21.6771C48.4316 21.7213 48.5073 21.7853 48.5658 21.8641C48.6243 21.9429 48.6639 22.0343 48.6815 22.1312C48.6991 22.228 48.6942 22.3277 48.6673 22.4223L47.9351 24.9371C47.8968 25.0687 47.8173 25.1842 47.7085 25.2663C47.5997 25.3484 47.4675 25.3926 47.3317 25.3923Z" fill="#1B1B1B"/>
<path d="M45.6287 29.2892C45.5477 29.2892 45.4699 29.2567 45.4125 29.1987C45.3552 29.1408 45.323 29.0622 45.323 28.9803C45.323 28.8984 45.3552 28.8198 45.4125 28.7618C45.4699 28.7039 45.5477 28.6714 45.6287 28.6714C45.9133 28.6714 46.1861 28.5572 46.3873 28.3539C46.5885 28.1506 46.7015 27.8749 46.7015 27.5874C46.7015 27.3 46.5885 27.0243 46.3873 26.821C46.1861 26.6177 45.9133 26.5035 45.6287 26.5035C45.5477 26.5035 45.4699 26.471 45.4125 26.413C45.3552 26.3551 45.323 26.2765 45.323 26.1946V25.3925C45.3302 25.3152 45.3656 25.2434 45.4224 25.1911C45.4792 25.1388 45.5533 25.1099 45.6301 25.1099C45.7069 25.1099 45.781 25.1388 45.8378 25.1911C45.8946 25.2434 45.93 25.3152 45.9372 25.3925V25.91C46.3488 25.9889 46.7165 26.22 46.9686 26.5581C47.2207 26.8962 47.339 27.317 47.3005 27.7385C47.2619 28.1601 47.0693 28.5519 46.7602 28.8376C46.4511 29.1234 46.0477 29.2824 45.6287 29.2838V29.2892Z" fill="#1B1B1B"/>
<defs>
<linearGradient id="paint0_linear" x1="21.7249" y1="4.13916" x2="21.7249" y2="57.7946" gradientUnits="userSpaceOnUse">
<stop stop-color="#5199FF"/>
<stop offset="1" stop-color="#0351C1"/>
</linearGradient>
<linearGradient id="paint1_linear" x1="29.9119" y1="4.10791" x2="29.9119" y2="57.8303" gradientUnits="userSpaceOnUse">
<stop stop-color="#5199FF"/>
<stop offset="1" stop-color="#0351C1"/>
</linearGradient>
<linearGradient id="paint2_linear" x1="25.8208" y1="4.12549" x2="25.8208" y2="22.9554" gradientUnits="userSpaceOnUse">
<stop stop-color="#5199FF"/>
<stop offset="1" stop-color="#0351C1"/>
</linearGradient>
<linearGradient id="paint3_linear" x1="25.8177" y1="0.00195312" x2="25.8177" y2="10.0354" gradientUnits="userSpaceOnUse">
<stop stop-color="#5199FF"/>
<stop offset="1" stop-color="#0351C1"/>
</linearGradient>
<linearGradient id="paint4_linear" x1="34.007" y1="0.00195312" x2="34.007" y2="10.0354" gradientUnits="userSpaceOnUse">
<stop stop-color="#5199FF"/>
<stop offset="1" stop-color="#0351C1"/>
</linearGradient>
<linearGradient id="paint5_linear" x1="42.1876" y1="0.00195312" x2="42.1876" y2="10.0356" gradientUnits="userSpaceOnUse">
<stop stop-color="#5199FF"/>
<stop offset="1" stop-color="#0351C1"/>
</linearGradient>
<linearGradient id="paint6_linear" x1="25.8084" y1="12.4263" x2="25.8084" y2="31.1452" gradientUnits="userSpaceOnUse">
<stop stop-color="#5199FF"/>
<stop offset="1" stop-color="#0351C1"/>
</linearGradient>
<linearGradient id="paint7_linear" x1="25.8267" y1="12.4155" x2="25.8267" y2="31.1573" gradientUnits="userSpaceOnUse">
<stop stop-color="#5199FF"/>
<stop offset="1" stop-color="#0351C1"/>
</linearGradient>
<linearGradient id="paint8_linear" x1="16.6753" y1="4.44824" x2="16.6753" y2="13.8711" gradientUnits="userSpaceOnUse">
<stop stop-color="#5199FF"/>
<stop offset="1" stop-color="#0351C1"/>
</linearGradient>
<linearGradient id="paint9_linear" x1="16.6667" y1="4.13916" x2="16.6667" y2="14.8657" gradientUnits="userSpaceOnUse">
<stop stop-color="#5199FF"/>
<stop offset="1" stop-color="#0351C1"/>
</linearGradient>
<linearGradient id="paint10_linear" x1="34.0364" y1="0" x2="34.0364" y2="1.31508" gradientUnits="userSpaceOnUse">
<stop stop-color="#5199FF"/>
<stop offset="1" stop-color="#0351C1"/>
</linearGradient>
<linearGradient id="paint11_linear" x1="34.8007" y1="18.3335" x2="34.8007" y2="173.085" gradientUnits="userSpaceOnUse">
<stop stop-color="#5199FF"/>
<stop offset="1" stop-color="#0351C1"/>
</linearGradient>
<linearGradient id="paint12_linear" x1="38.663" y1="18.3335" x2="38.663" y2="173.085" gradientUnits="userSpaceOnUse">
<stop stop-color="#5199FF"/>
<stop offset="1" stop-color="#0351C1"/>
</linearGradient>
<linearGradient id="paint13_linear" x1="55.1978" y1="22.4468" x2="-14.5819" y2="22.4468" gradientUnits="userSpaceOnUse">
<stop stop-color="#5199FF"/>
<stop offset="1" stop-color="#0351C1"/>
</linearGradient>
<linearGradient id="paint14_linear" x1="28.1334" y1="65.0126" x2="37.7918" y2="88.0899" gradientUnits="userSpaceOnUse">
<stop stop-color="#5199FF"/>
<stop offset="1" stop-color="#0351C1"/>
</linearGradient>
<linearGradient id="paint15_linear" x1="45.6297" y1="66.3135" x2="45.6297" y2="69.4468" gradientUnits="userSpaceOnUse">
<stop stop-color="#5199FF"/>
<stop offset="1" stop-color="#0351C1"/>
</linearGradient>
<linearGradient id="paint16_linear" x1="45.6297" y1="69.7549" x2="45.6297" y2="72.8882" gradientUnits="userSpaceOnUse">
<stop stop-color="#5199FF"/>
<stop offset="1" stop-color="#0351C1"/>
</linearGradient>
<linearGradient id="paint17_linear" x1="45.6297" y1="73.1968" x2="45.6297" y2="76.3301" gradientUnits="userSpaceOnUse">
<stop stop-color="#5199FF"/>
<stop offset="1" stop-color="#0351C1"/>
</linearGradient>
<linearGradient id="paint18_linear" x1="42.6789" y1="26.0493" x2="42.6789" y2="103.568" gradientUnits="userSpaceOnUse">
<stop stop-color="#5199FF"/>
<stop offset="1" stop-color="#0351C1"/>
</linearGradient>
<linearGradient id="paint19_linear" x1="57.4993" y1="54.3831" x2="-1.44161" y2="58.9331" gradientUnits="userSpaceOnUse">
<stop stop-color="#5199FF"/>
<stop offset="1" stop-color="#0351C1"/>
</linearGradient>
<linearGradient id="paint20_linear" x1="42.5484" y1="38.8221" x2="12.4517" y2="41.1455" gradientUnits="userSpaceOnUse">
<stop stop-color="#5199FF"/>
<stop offset="1" stop-color="#0351C1"/>
</linearGradient>
<linearGradient id="paint21_linear" x1="55.5351" y1="30.0994" x2="30.1385" y2="32.06" gradientUnits="userSpaceOnUse">
<stop stop-color="#5199FF"/>
<stop offset="1" stop-color="#0351C1"/>
</linearGradient>
<linearGradient id="paint22_linear" x1="56.1237" y1="37.7518" x2="30.7271" y2="39.7123" gradientUnits="userSpaceOnUse">
<stop stop-color="#5199FF"/>
<stop offset="1" stop-color="#0351C1"/>
</linearGradient>
<linearGradient id="paint23_linear" x1="56.7162" y1="45.4041" x2="31.3196" y2="47.3647" gradientUnits="userSpaceOnUse">
<stop stop-color="#5199FF"/>
<stop offset="1" stop-color="#0351C1"/>
</linearGradient>
</defs>
</svg>
