<svg width="68" height="73" viewBox="0 0 68 73" fill="none" xmlns="http://www.w3.org/2000/svg">
<path d="M21.5111 58.1774H4.43586C3.94246 58.185 3.45315 58.0853 3.00067 57.8848C2.54819 57.6844 2.14297 57.388 1.81212 57.0153C1.48127 56.6427 1.23242 56.2024 1.0822 55.724C0.931991 55.2456 0.883886 54.74 0.941101 54.2411L2.71736 35.4621C2.83838 34.3956 3.33427 33.4097 4.11353 32.6863C4.8928 31.9628 5.90284 31.5506 6.95729 31.5258H24.0297C24.5231 31.5182 25.0124 31.618 25.4649 31.8184C25.9173 32.0188 26.3225 32.3152 26.6534 32.6879C26.9842 33.0605 27.2331 33.5008 27.3833 33.9792C27.5335 34.4577 27.5816 34.9632 27.5244 35.4621L25.7482 54.2411C25.6278 55.3073 25.1325 56.2932 24.3537 57.0167C23.5749 57.7402 22.5652 58.1525 21.5111 58.1774Z" fill="white"/>
<path d="M21.5125 58.3396H4.43721C3.92113 58.3483 3.40919 58.2445 2.93576 58.0352C2.46233 57.8259 2.03837 57.5159 1.69233 57.1261C1.34628 56.7363 1.08616 56.2757 0.929426 55.7751C0.772691 55.2746 0.72297 54.7457 0.783595 54.224L2.5743 35.4449C2.6978 34.3377 3.21167 33.3137 4.02058 32.5628C4.82949 31.8119 5.87852 31.3851 6.97308 31.3616H24.0454C24.5591 31.3549 25.0683 31.4587 25.5397 31.6665C26.0111 31.8742 26.434 32.1811 26.7806 32.5669C27.1267 32.9588 27.3876 33.4205 27.5464 33.922C27.7051 34.4235 27.7581 34.9535 27.7019 35.4773L25.9228 54.2592C25.7996 55.3684 25.2841 56.394 24.4726 57.1448C23.6611 57.8956 22.609 58.3203 21.5125 58.3396ZM6.95864 31.6909C5.94359 31.7122 4.97064 32.1077 4.22056 32.8041C3.47048 33.5005 2.99429 34.4504 2.88045 35.4773L1.10419 54.2592C1.04893 54.7352 1.09432 55.2176 1.23732 55.6742C1.38033 56.1308 1.61763 56.5509 1.93331 56.9065C2.24899 57.2621 2.63574 57.5448 3.0676 57.7357C3.49946 57.9266 3.96645 58.0212 4.43721 58.0133H21.5125C22.5272 57.9919 23.4998 57.5963 24.2494 56.8998C24.999 56.2033 25.4746 55.2535 25.5878 54.2269L27.3669 35.4449C27.4166 34.9688 27.3677 34.4874 27.2234 34.0318C27.0792 33.5761 26.8427 33.1562 26.5293 32.7992C26.2124 32.4474 25.826 32.1678 25.3954 31.9789C24.9648 31.7899 24.4999 31.6957 24.031 31.7027L6.95864 31.6909Z" fill="url(#paint0_linear)"/>
<path d="M21.1798 48.2794L19.288 43.5405L18.6584 41.9619C18.5456 41.6994 18.3374 41.4915 18.0773 41.3818C17.8172 41.2722 17.5255 41.2694 17.2634 41.374C17.0998 41.4274 16.9484 41.5136 16.818 41.6273C16.6875 41.7411 16.5807 41.8802 16.5038 42.0366C16.4269 42.1929 16.3814 42.3633 16.37 42.5377C16.3585 42.7122 16.3815 42.8872 16.4373 43.0525L16.1196 42.2559C16.0074 41.9935 15.7997 41.7857 15.5401 41.6761C15.2805 41.5664 14.9892 41.5635 14.7275 41.6679C14.5642 41.7217 14.413 41.8081 14.2828 41.9219C14.1526 42.0358 14.0459 42.1749 13.969 42.3311C13.8922 42.4873 13.8466 42.6576 13.835 42.8319C13.8234 43.0062 13.846 43.1812 13.9015 43.3465L11.7844 38.055C11.6716 37.7924 11.4634 37.5846 11.2033 37.4749C10.9432 37.3653 10.6515 37.3625 10.3894 37.467C10.2258 37.5205 10.0745 37.6066 9.94416 37.7205C9.81383 37.8343 9.70719 37.9735 9.6305 38.1299C9.5538 38.2863 9.50861 38.4567 9.49757 38.6312C9.48653 38.8056 9.50987 38.9805 9.56622 39.1456L9.73374 39.566C9.62098 39.3035 9.41271 39.0956 9.15261 38.986C8.89252 38.8763 8.60082 38.8735 8.33872 38.9781C8.17521 39.0315 8.02383 39.1176 7.89351 39.2315C7.76318 39.3453 7.65654 39.4845 7.57985 39.6409C7.50315 39.7973 7.45796 39.9677 7.44692 40.1422C7.43588 40.3166 7.45922 40.4915 7.51557 40.6567L9.53734 45.6954L10.8919 50.3637C10.4463 50.4493 9.98878 50.4493 9.54312 50.3637C8.18276 50.1373 6.28518 50.8428 6.60289 52.2245C6.72997 52.786 8.50046 52.6978 9.11854 53.0418C9.73663 53.3857 13.0408 54.7292 14.6322 54.6851C14.783 54.8276 14.9725 54.9207 15.1759 54.9521C15.3794 54.9836 15.5874 54.952 15.773 54.8615L20.7292 52.4421C20.8552 52.3806 20.9676 52.2936 21.0595 52.1865C21.1513 52.0793 21.2208 51.9542 21.2636 51.8188C21.6575 50.6676 21.6277 49.41 21.1798 48.2794Z" fill="url(#paint1_linear)"/>
<path d="M21.5898 38.9488C21.5755 38.9516 21.5608 38.9516 21.5465 38.9488L15.9664 37.3025C15.9293 37.2872 15.8992 37.2585 15.8817 37.2218C15.8642 37.1852 15.8607 37.1433 15.8719 37.1042C15.883 37.0651 15.908 37.0315 15.942 37.0101C15.976 36.9886 16.0166 36.9807 16.0559 36.988L21.636 38.6283C21.6764 38.6413 21.7104 38.6696 21.7308 38.7074C21.7513 38.7451 21.7566 38.7895 21.7458 38.8312C21.7362 38.8656 21.7157 38.8958 21.6875 38.917C21.6592 38.9383 21.6249 38.9495 21.5898 38.9488Z" fill="#1B1B1B"/>
<path d="M16.5503 36.2769L14.6787 36.7472L16.0131 38.1612L16.5503 36.2769Z" fill="#1B1B1B"/>
<path d="M58.4701 72.3176H33.0536C32.5604 72.3248 32.0714 72.2247 31.6193 72.0241C31.1672 71.8235 30.7623 71.527 30.4318 71.1544C30.1012 70.7818 29.8526 70.3417 29.7026 69.8635C29.5526 69.3853 29.5045 68.8799 29.5617 68.3813L34.4717 16.4274C34.5921 15.3615 35.0875 14.3759 35.8664 13.6529C36.6452 12.9299 37.6549 12.5182 38.7087 12.494H64.1252C64.6181 12.4869 65.1068 12.5869 65.5587 12.7873C66.0106 12.9878 66.4153 13.284 66.7458 13.6563C67.0763 14.0285 67.325 14.4683 67.4752 14.9461C67.6255 15.424 67.6738 15.929 67.6171 16.4274L62.7071 68.3813C62.5867 69.4475 62.0914 70.4334 61.3126 71.1569C60.5339 71.8804 59.5242 72.2927 58.4701 72.3176Z" fill="white"/>
<path d="M58.4664 72.4882H33.0499C32.5339 72.4964 32.0222 72.3923 31.549 72.1828C31.0758 71.9734 30.6521 71.6634 30.3061 71.2737C29.9602 70.884 29.7 70.4236 29.5431 69.9233C29.3862 69.4229 29.3361 68.8942 29.3963 68.3726L34.3063 16.4187C34.4325 15.3126 34.9483 14.2906 35.7582 13.542C36.568 12.7933 37.617 12.3688 38.7108 12.3471H64.1273C64.6432 12.3389 65.155 12.4431 65.6282 12.6525C66.1014 12.862 66.5251 13.1719 66.8711 13.5616C67.217 13.9513 67.4772 14.4118 67.6341 14.9121C67.791 15.4124 67.841 15.9411 67.7809 16.4628L62.8709 68.4167C62.7447 69.5228 62.2288 70.5448 61.419 71.2934C60.6091 72.042 59.5601 72.4665 58.4664 72.4882ZM38.7108 12.6646C37.694 12.6862 36.7196 13.0835 35.9693 13.7823C35.2189 14.4811 34.7439 15.4338 34.6326 16.4628L29.7226 68.4049C29.6717 68.8811 29.72 69.3628 29.8643 69.8187C30.0086 70.2746 30.2457 70.6944 30.5602 71.0507C30.8763 71.4027 31.2622 71.6824 31.6924 71.8715C32.1225 72.0605 32.5872 72.1545 33.0557 72.1472H58.4721C59.4872 72.126 60.4601 71.7304 61.2102 71.034C61.9603 70.3376 62.4365 69.3877 62.5503 68.3609L67.4603 16.4069C67.5166 15.9308 67.4718 15.448 67.3292 14.991C67.1866 14.5339 66.9493 14.1134 66.6334 13.7576C66.3176 13.4018 65.9304 13.1191 65.4981 12.9285C65.0658 12.738 64.5983 12.644 64.1273 12.6529L38.7108 12.6646Z" fill="url(#paint2_linear)"/>
<path opacity="0.1" d="M37.7672 72.3236H33.3511L47.515 12.5H51.9282L37.7672 72.3236Z" fill="url(#paint3_linear)"/>
<path opacity="0.1" d="M45.4316 72.3236H39.2046L53.3656 12.5H59.5927L45.4316 72.3236Z" fill="url(#paint4_linear)"/>
<path d="M45.3855 70.3367C45.1408 70.3423 44.8978 70.2943 44.673 70.1959C44.4481 70.0975 44.2467 69.9511 44.0823 69.7665C43.918 69.5819 43.7945 69.3635 43.7204 69.1261C43.6462 68.8887 43.6231 68.6379 43.6526 68.3906C43.7099 67.8713 43.9506 67.3909 44.33 67.0389C44.7094 66.6868 45.2015 66.4871 45.7147 66.4768C45.9576 66.4728 46.1985 66.5212 46.4216 66.619C46.6446 66.7169 46.8448 66.8618 47.0087 67.0442C47.1726 67.2297 47.296 67.4485 47.3707 67.6862C47.4453 67.9239 47.4696 68.175 47.4419 68.4229C47.3847 68.9412 47.1448 69.4208 46.7666 69.7727C46.3885 70.1246 45.8978 70.325 45.3855 70.3367ZM45.7205 66.809C45.288 66.8199 44.874 66.99 44.5554 67.2878C44.2367 67.5857 44.035 67.9911 43.9876 68.4288C43.9649 68.6309 43.9844 68.8356 44.0446 69.0296C44.1048 69.2236 44.2044 69.4025 44.3371 69.5547C44.4716 69.7026 44.6353 69.8199 44.8175 69.8989C44.9997 69.9779 45.1962 70.0169 45.3942 70.0133C45.826 70.0019 46.2393 69.832 46.5578 69.5348C46.8763 69.2377 47.0785 68.8334 47.1271 68.3964C47.1499 68.1941 47.1303 67.9891 47.0696 67.795C47.0088 67.6009 46.9083 67.4222 46.7747 67.2705C46.6416 67.121 46.4788 67.002 46.297 66.9214C46.1153 66.8408 45.9188 66.8005 45.7205 66.8031V66.809Z" fill="url(#paint5_linear)"/>
<path d="M57.1787 72.4882V72.1589C58.1938 72.1376 59.1667 71.7421 59.9168 71.0457C60.6669 70.3492 61.1431 69.3994 61.2569 68.3725L66.1669 16.4186C66.2164 15.9425 66.1674 15.4611 66.0232 15.0055C65.8789 14.5498 65.6426 14.1299 65.3293 13.7728C65.0119 13.4219 64.6253 13.1431 64.1948 12.9546C63.7643 12.7662 63.2996 12.6723 62.831 12.6792V12.347C63.3444 12.3397 63.8536 12.443 64.325 12.6503C64.7964 12.8575 65.2194 13.1639 65.5661 13.5494C65.9121 13.9419 66.173 14.4042 66.3317 14.9061C66.4905 15.4081 66.5436 15.9385 66.4875 16.4627L61.5775 68.4166C61.4514 69.5217 60.9364 70.5429 60.1277 71.2914C59.3191 72.0399 58.2715 72.465 57.1787 72.4882Z" fill="url(#paint6_linear)"/>
<path d="M39.3122 26.8169H22.237C21.744 26.8236 21.2554 26.7233 20.8036 26.5225C20.3518 26.3217 19.9473 26.0251 19.6171 25.6526C19.2869 25.28 19.0385 24.84 18.8887 24.362C18.7388 23.884 18.6908 23.379 18.748 22.8806L20.5214 4.11627C20.6417 3.05007 21.137 2.06419 21.9158 1.34068C22.6946 0.617173 23.7043 0.204893 24.7584 0.179966H41.8336C42.3263 0.17366 42.8147 0.274351 43.2661 0.475319C43.7175 0.676288 44.1217 0.972915 44.4516 1.34542C44.7815 1.71793 45.0295 2.15775 45.1793 2.63555C45.329 3.11335 45.3769 3.61814 45.3197 4.11627L43.5435 22.8953C43.42 23.9579 42.9242 24.9394 42.1469 25.6598C41.3696 26.3802 40.3631 26.7911 39.3122 26.8169Z" fill="white"/>
<path d="M39.3112 26.9783H22.2359C21.72 26.9865 21.2083 26.8824 20.7351 26.6729C20.2619 26.4635 19.8381 26.1535 19.4921 25.7638C19.1462 25.3741 18.8861 24.9137 18.7291 24.4133C18.5722 23.913 18.5222 23.3843 18.5823 22.8627L20.3586 4.0807C20.4827 2.97402 20.9969 1.95069 21.8057 1.2004C22.6146 0.450105 23.6632 0.0237445 24.7573 0.000350137H41.8326C42.3483 -0.00687829 42.8595 0.0978896 43.3323 0.307666C43.805 0.517443 44.2284 0.827406 44.5742 1.21688C44.9199 1.60636 45.1801 2.0664 45.3374 2.56631C45.4946 3.06623 45.5454 3.59453 45.4862 4.11598L43.7099 22.895C43.5864 24.0022 43.0726 25.0263 42.2637 25.7772C41.4548 26.528 40.4057 26.9548 39.3112 26.9783ZM24.7573 0.329601C23.7425 0.351479 22.7699 0.747274 22.0199 1.44356C21.27 2.13985 20.7936 3.08937 20.6792 4.11598L18.9029 22.895C18.85 23.3735 18.8974 23.858 19.0417 24.3166C19.1861 24.7751 19.4242 25.1973 19.7405 25.5555C20.0566 25.9075 20.4425 26.1872 20.8726 26.3762C21.3028 26.5652 21.7674 26.6592 22.2359 26.652H39.3112C40.326 26.6301 41.2986 26.2343 42.0486 25.538C42.7986 24.8417 43.2749 23.8922 43.3894 22.8656L45.1656 4.08364C45.2166 3.60749 45.1683 3.12575 45.024 2.66987C44.8796 2.21398 44.6425 1.79419 44.328 1.43788C44.0119 1.08589 43.626 0.806152 43.1959 0.617136C42.7657 0.42812 42.3011 0.334128 41.8326 0.341361L24.7573 0.329601Z" fill="url(#paint7_linear)"/>
<path d="M30.6451 8.44945C30.3773 8.45421 30.1115 8.40083 29.8654 8.29286C29.6194 8.1849 29.3988 8.02481 29.2183 7.82328C29.0372 7.61895 28.9009 7.3778 28.8182 7.11579C28.7356 6.85377 28.7085 6.57688 28.7389 6.30344C28.8024 5.72955 29.0685 5.19865 29.4876 4.80936C29.9067 4.42007 30.4504 4.19886 31.0177 4.18683C31.2872 4.18192 31.5546 4.23587 31.8019 4.34505C32.0492 4.45422 32.2707 4.61609 32.4513 4.81974C32.632 5.02338 32.7676 5.26407 32.8492 5.52559C32.9307 5.78711 32.9562 6.06338 32.9239 6.33578C32.8597 6.90914 32.5934 7.43933 32.1744 7.82802C31.7553 8.21671 31.212 8.43751 30.6451 8.44945ZM31.0177 4.51608C30.5307 4.52835 30.0644 4.71921 29.7046 5.05355C29.3448 5.38789 29.1157 5.84322 29.0595 6.33578C29.0321 6.56246 29.0529 6.79247 29.1206 7.01024C29.1882 7.22801 29.301 7.42844 29.4514 7.59795C29.6017 7.76746 29.7862 7.90208 29.9921 7.99269C30.1981 8.0833 30.4208 8.12779 30.6451 8.12314C31.1322 8.11087 31.5985 7.92001 31.9583 7.58567C32.318 7.25133 32.5471 6.796 32.6034 6.30344C32.6307 6.07676 32.6099 5.84674 32.5423 5.62898C32.4747 5.41121 32.3618 5.21077 32.2115 5.04127C32.0611 4.87176 31.8767 4.73714 31.6707 4.64653C31.4647 4.55591 31.2421 4.51143 31.0177 4.51608Z" fill="#1B1B1B"/>
<path d="M30.5205 9.76329C30.0865 9.77104 29.656 9.68408 29.2578 9.50826C28.8597 9.33244 28.5031 9.07183 28.2122 8.74398C27.9213 8.41614 27.7028 8.02867 27.5714 7.60765C27.4399 7.18663 27.3987 6.74184 27.4503 6.30322C27.5536 5.37386 27.9846 4.51422 28.6635 3.88384C29.3423 3.25347 30.2228 2.89518 31.1415 2.87548C31.5747 2.86771 32.0047 2.95357 32.403 3.12738C32.8013 3.30119 33.1589 3.55901 33.452 3.88381C33.7427 4.21431 33.9617 4.6035 34.0945 5.02597C34.2274 5.44843 34.2713 5.89467 34.2232 6.33555C34.119 7.26663 33.6861 8.12751 33.005 8.75803C32.3239 9.38855 31.441 9.74579 30.5205 9.76329ZM31.1415 3.20474C30.3025 3.22282 29.4984 3.55013 28.8785 4.1259C28.2587 4.70168 27.8651 5.48681 27.7709 6.33555C27.7236 6.72855 27.7599 7.12729 27.8772 7.50477C27.9946 7.88225 28.1902 8.22966 28.451 8.52348C28.7117 8.8173 29.0314 9.05066 29.3885 9.20775C29.7455 9.36485 30.1316 9.44202 30.5205 9.43403C31.36 9.41665 32.1647 9.08966 32.7852 8.51382C33.4057 7.93798 33.7997 7.15246 33.8939 6.30322C33.9375 5.90789 33.8985 5.50765 33.7795 5.12872C33.6606 4.74978 33.4643 4.40069 33.2037 4.10429C32.9416 3.81493 32.6224 3.5852 32.267 3.43017C31.9116 3.27515 31.5281 3.19832 31.1415 3.20474Z" fill="#1B1B1B"/>
<path d="M37.5467 12.0354C37.2 12.0024 36.8543 12.1093 36.5843 12.333C36.3142 12.5568 36.1412 12.8796 36.1026 13.2319L36.1863 12.3499C36.2033 12.2102 36.193 12.0683 36.1559 11.9326C36.1189 11.7969 36.0559 11.67 35.9706 11.5591C35.8853 11.4482 35.7793 11.3555 35.6587 11.2864C35.5381 11.2173 35.4053 11.1732 35.2679 11.1564C34.9214 11.1226 34.5758 11.2288 34.3056 11.4521C34.0354 11.6754 33.8624 11.9979 33.8238 12.3499L33.8758 11.8002C33.8927 11.6603 33.8824 11.5183 33.8454 11.3824C33.8084 11.2465 33.7455 11.1193 33.6602 11.0082C33.5749 10.8971 33.4689 10.8042 33.3483 10.7348C33.2277 10.6654 33.0948 10.6208 32.9573 10.6037C32.6106 10.5707 32.2649 10.6776 31.9949 10.9014C31.7248 11.1252 31.5518 11.4479 31.5132 11.8002V11.8796L31.984 6.88204C32.0009 6.74208 31.9906 6.6001 31.9536 6.4642C31.9166 6.3283 31.8537 6.20115 31.7684 6.09003C31.6831 5.97891 31.5771 5.88599 31.4565 5.81659C31.3359 5.74719 31.203 5.70266 31.0655 5.68557C30.7188 5.65256 30.3731 5.75945 30.1031 5.98322C29.833 6.20699 29.66 6.52976 29.6214 6.88204L29.09 12.5234L28.1628 17.5209C27.7443 17.3942 27.3559 17.1811 27.022 16.8948C25.9649 16.0599 24.0384 15.8541 23.6889 17.2946C23.5503 17.8825 25.0955 18.6057 25.4652 19.2084C25.8349 19.811 28.0502 22.5832 29.4221 23.2681C29.4851 23.468 29.6089 23.6423 29.7755 23.7659C29.9421 23.8895 30.143 23.9561 30.3492 23.956H35.6C35.7355 23.9555 35.8694 23.9269 35.9936 23.8718C36.1178 23.8167 36.2296 23.7363 36.3221 23.6356C37.1646 22.7222 37.6874 21.5515 37.8095 20.3049L38.1937 16.2245L38.3467 14.6018L38.4074 13.9639L38.4767 13.2319C38.4936 13.091 38.4829 12.9482 38.4452 12.8116C38.4075 12.675 38.3435 12.5474 38.257 12.4361C38.1705 12.3248 38.0632 12.2321 37.9413 12.1633C37.8194 12.0945 37.6853 12.0511 37.5467 12.0354ZM33.7285 13.2289L33.8007 12.4617L33.7285 13.2289Z" fill="url(#paint8_linear)"/>
<path d="M51.3524 43.5849C51.2528 43.1005 51.1048 42.6276 50.9105 42.1739L51.3813 40.9833L49.2931 38.6315L48.0887 38.9931C47.6671 38.7507 47.2218 38.5537 46.7601 38.4051L46.2893 37.3057H43.0227L42.344 38.4051C41.846 38.5557 41.3626 38.7525 40.8999 38.9931L39.7648 38.6315L37.2318 40.9833L37.4773 42.1739C37.1994 42.6211 36.9625 43.0935 36.7697 43.5849L35.6346 44.1729L35.3198 47.4977L36.3451 48.0857C36.4434 48.5705 36.5915 49.0435 36.787 49.4967L36.3163 50.6873L38.4016 53.0391L39.606 52.6746C40.0284 52.9175 40.4746 53.1145 40.9374 53.2625L41.4053 54.362H44.6719L45.3507 53.2625C45.8485 53.1113 46.3318 52.9145 46.7948 52.6746L47.9299 53.0391L50.4599 50.6873L50.2173 49.4967C50.493 49.0482 50.7298 48.5761 50.925 48.0857L52.0571 47.4977L52.372 44.1729L51.3524 43.5849ZM43.482 49.7349C42.9921 49.7444 42.5059 49.6468 42.0562 49.4486C41.6065 49.2505 41.2038 48.9565 40.8753 48.5865C40.5468 48.2165 40.3001 47.779 40.1519 47.3036C40.0036 46.8282 39.9573 46.326 40.0161 45.8309C40.1352 44.772 40.6271 43.7929 41.4007 43.0746C42.1743 42.3564 43.1774 41.9476 44.2242 41.924C44.7144 41.9144 45.2009 42.0121 45.6508 42.2104C46.1007 42.4087 46.5036 42.703 46.8322 43.0733C47.1607 43.4437 47.4073 43.8815 47.5554 44.3573C47.7034 44.833 47.7493 45.3355 47.6901 45.8309C47.5704 46.8892 47.0782 47.8677 46.3046 48.5853C45.5311 49.303 44.5284 49.7113 43.482 49.7349Z" fill="url(#paint9_linear)"/>
<path d="M60.2956 31.9849L59.5504 31.9114C59.3817 31.6687 59.188 31.445 58.9728 31.2441V30.4797L57.1619 29.6919L56.5322 30.1828C56.224 30.1505 55.9133 30.1505 55.6051 30.1828L55.0708 29.6919L53.1183 30.4797L52.9739 31.2441C52.7161 31.4454 52.4755 31.6687 52.2547 31.9114L51.4951 31.9849L50.542 33.8869L50.9666 34.4748C50.9079 34.7859 50.8779 35.1018 50.8771 35.4185L50.3398 36.0064L50.9348 37.9055L51.68 37.979C51.8534 38.2223 52.0519 38.446 52.2721 38.6463V39.4136L54.0657 40.2014L54.6953 39.7105C55.0035 39.7429 55.3142 39.7429 55.6224 39.7105L56.1596 40.2014L58.1005 39.4136L58.2449 38.6463C58.5054 38.4482 58.7462 38.2247 58.9641 37.979L59.7237 37.9055L60.6768 36.0064L60.2523 35.4185C60.3124 35.1077 60.3424 34.7916 60.3418 34.4748L60.879 33.8869L60.2956 31.9849ZM56.6969 38.3965C54.7531 39.1843 52.6966 38.2818 52.1017 36.3798C51.5067 34.4778 52.6013 32.2965 54.5451 31.5086C56.4889 30.7208 58.5453 31.6233 59.1403 33.5253C59.7353 35.4273 58.6406 37.6086 56.6969 38.3965Z" fill="#1B1B1B"/>
<defs>
<linearGradient id="paint0_linear" x1="14.2411" y1="31.3613" x2="14.2411" y2="88.2865" gradientUnits="userSpaceOnUse">
<stop stop-color="#5199FF"/>
<stop offset="1" stop-color="#0351C1"/>
</linearGradient>
<linearGradient id="paint1_linear" x1="14.0532" y1="37.3906" x2="14.0532" y2="74.4704" gradientUnits="userSpaceOnUse">
<stop stop-color="#5199FF"/>
<stop offset="1" stop-color="#0351C1"/>
</linearGradient>
<linearGradient id="paint2_linear" x1="48.5886" y1="12.3467" x2="48.5886" y2="139.246" gradientUnits="userSpaceOnUse">
<stop stop-color="#5199FF"/>
<stop offset="1" stop-color="#0351C1"/>
</linearGradient>
<linearGradient id="paint3_linear" x1="42.6396" y1="12.5" x2="42.6396" y2="138.728" gradientUnits="userSpaceOnUse">
<stop stop-color="#5199FF"/>
<stop offset="1" stop-color="#0351C1"/>
</linearGradient>
<linearGradient id="paint4_linear" x1="49.3986" y1="12.5" x2="49.3986" y2="138.728" gradientUnits="userSpaceOnUse">
<stop stop-color="#5199FF"/>
<stop offset="1" stop-color="#0351C1"/>
</linearGradient>
<linearGradient id="paint5_linear" x1="45.5466" y1="66.4766" x2="45.5466" y2="74.6223" gradientUnits="userSpaceOnUse">
<stop stop-color="#5199FF"/>
<stop offset="1" stop-color="#0351C1"/>
</linearGradient>
<linearGradient id="paint6_linear" x1="61.8439" y1="12.3467" x2="61.8439" y2="139.245" gradientUnits="userSpaceOnUse">
<stop stop-color="#5199FF"/>
<stop offset="1" stop-color="#0351C1"/>
</linearGradient>
<linearGradient id="paint7_linear" x1="32.0339" y1="0" x2="32.0339" y2="56.9252" gradientUnits="userSpaceOnUse">
<stop stop-color="#5199FF"/>
<stop offset="1" stop-color="#0351C1"/>
</linearGradient>
<linearGradient id="paint8_linear" x1="31.0823" y1="5.67969" x2="31.0823" y2="44.2428" gradientUnits="userSpaceOnUse">
<stop stop-color="#5199FF"/>
<stop offset="1" stop-color="#0351C1"/>
</linearGradient>
<linearGradient id="paint9_linear" x1="43.8459" y1="37.3057" x2="43.8459" y2="73.2946" gradientUnits="userSpaceOnUse">
<stop stop-color="#5199FF"/>
<stop offset="1" stop-color="#0351C1"/>
</linearGradient>
</defs>
</svg>
