<svg width="153" height="160" viewBox="0 0 153 160" fill="none" xmlns="http://www.w3.org/2000/svg">
<ellipse cx="83.5" cy="75" rx="62.5" ry="62" fill="#F4F4F4"/>
<path d="M7.35217 84.7525C5.95619 84.4742 5.30473 83.5464 5.5374 82.2476C6.00272 79.6499 4.93247 78.7686 2.4197 79.1397C1.11679 79.3252 0 78.8613 0 77.377C0 75.939 1.07025 75.2896 2.37317 75.5215C5.16513 75.9854 5.86313 74.6865 5.5374 72.228C5.3978 71.022 6.00272 70.0478 7.35217 70.0015C8.84122 69.9551 9.44615 71.022 9.21348 72.3208C8.79469 74.9648 9.81841 75.939 12.4708 75.5215C13.8202 75.2896 14.7974 76.0317 14.7509 77.4697C14.7043 78.7686 13.7272 79.418 12.5173 79.2324C9.63228 78.7686 8.88775 80.0674 9.21348 82.6651C9.35308 83.8247 8.60856 84.5669 7.35217 84.7525Z" fill="#DDA960"/>
<path d="M121.866 150.512C121.903 151.669 121.754 152.789 120.339 152.752C119.035 152.714 118.886 151.669 118.886 150.586C118.886 149.429 119.035 148.346 120.451 148.346C121.717 148.384 121.941 149.429 121.866 150.512Z" fill="#DDA960"/>
<path d="M115.124 146.853C114.044 146.928 113.038 146.704 113.001 145.435C112.964 144.016 114.081 143.867 115.199 143.867C116.279 143.867 117.322 143.979 117.359 145.285C117.396 146.704 116.279 146.891 115.124 146.853Z" fill="#DDA960"/>
<path d="M121.456 138.267C121.605 138.528 121.754 138.752 121.903 139.014C121.903 139.499 121.866 139.984 121.866 140.507C121.866 141.59 121.456 142.374 120.302 142.336C119.11 142.299 118.886 141.403 118.886 140.358C118.849 138.155 119.519 137.595 121.456 138.267Z" fill="#DDA960"/>
<path d="M125.591 143.829C126.671 143.792 127.714 143.979 127.752 145.248C127.789 146.667 126.709 146.816 125.554 146.816C124.474 146.816 123.431 146.667 123.393 145.36C123.356 143.979 124.436 143.792 125.591 143.829Z" fill="#DDA960"/>
<path d="M18.9453 22.6899C18.9825 23.8472 18.8335 24.9671 17.4181 24.9298C16.1144 24.8925 15.9654 23.8472 15.9654 22.7646C15.9654 21.6073 16.1144 20.5247 17.5298 20.5247C18.7963 20.562 19.0198 21.6073 18.9453 22.6899Z" fill="#DDA960"/>
<path d="M12.2032 19.0315C11.123 19.1061 10.1173 18.8821 10.08 17.6129C10.0428 16.1943 11.1602 16.045 12.2777 16.045C13.3579 16.045 14.4009 16.157 14.4381 17.4636C14.4754 18.8821 13.3579 19.0688 12.2032 19.0315Z" fill="#DDA960"/>
<path d="M18.5355 10.4453C18.6845 10.7066 18.8335 10.9306 18.9825 11.1919C18.9825 11.6772 18.9453 12.1625 18.9453 12.6852C18.9453 13.7678 18.5355 14.5517 17.3808 14.5144C16.1889 14.4771 15.9654 13.5811 15.9654 12.5359C15.9281 10.3333 16.5986 9.77335 18.5355 10.4453Z" fill="#DDA960"/>
<path d="M22.6702 16.0076C23.7504 15.9703 24.7934 16.157 24.8306 17.4262C24.8679 18.8448 23.7877 18.9941 22.6329 18.9941C21.5527 18.9941 20.5097 18.8448 20.4725 17.5382C20.4353 16.157 21.5155 15.9703 22.6702 16.0076Z" fill="#DDA960"/>
<g clip-path="url(#clip0)">
<path d="M54.8165 115.602C52.1104 115.653 49.3788 115.628 46.6728 115.628C43.5072 115.628 43.5328 115.628 43.6349 118.804C43.6604 119.541 43.9412 119.719 44.605 119.719C46.2899 119.693 48.0003 119.719 49.7107 119.719C50.7829 119.719 51.8296 119.719 52.9018 119.719C55.9908 119.719 55.9653 119.719 55.9397 116.669C55.9397 115.78 55.6334 115.602 54.8165 115.602Z" fill="#DDA960"/>
<path d="M60.0237 63.0514C60.1003 66.2279 62.8829 68.8706 66.0995 68.8706C69.3417 68.8706 72.1243 66.3041 72.252 63.1277C72.303 61.8571 72.252 60.5865 72.252 59.316C72.252 58.7569 72.252 58.2233 72.252 57.6642C72.252 54.5386 72.252 54.564 69.1375 54.6149C68.3205 54.6149 68.1418 54.8944 68.1674 55.6313C68.2184 57.9183 68.1929 60.2054 68.1929 62.4924C68.1929 63.89 67.4015 64.7794 66.2016 64.8048C64.9507 64.8302 64.1338 63.9154 64.1083 62.4416C64.0827 60.8407 64.1083 59.2143 64.1083 57.6134C64.1083 54.5132 64.1083 54.5386 60.9427 54.6149C60.2024 54.6403 59.9981 54.8436 60.0237 55.5551C60.0237 58.0454 59.9726 60.5611 60.0237 63.0514Z" fill="#1D1C1A"/>
<path d="M75.8009 76.2908C78.5325 74.4866 78.4815 74.4866 76.1328 72.352C75.3925 71.6913 74.984 71.793 74.2692 72.352C70.1336 75.6047 63.6748 75.9096 59.1306 73.1906C58.3648 72.7332 57.7521 71.6151 56.8586 71.8692C56.0417 72.0979 55.4545 73.0381 54.6886 73.5972C53.9738 74.1054 54.1015 74.4357 54.6886 74.944C57.9818 77.79 61.8112 79.1368 66.4063 79.0352C69.6996 79.1877 72.8907 78.222 75.8009 76.2908Z" fill="#1D1C1A"/>
<path d="M78.3792 56.6732C79.5025 56.6732 80.396 55.7838 80.4216 54.6911C80.4471 53.5984 79.5536 52.6582 78.4558 52.6328C77.3581 52.582 76.388 53.4459 76.3369 54.564C76.2859 55.6821 77.2304 56.6732 78.3792 56.6732Z" fill="#1D1C1A"/>
<path d="M55.9132 54.6149C55.9132 53.4968 55.0197 52.6074 53.8965 52.582C52.7477 52.5565 51.8031 53.5222 51.8286 54.6911C51.8797 55.8092 52.7987 56.6732 53.8965 56.6478C55.0197 56.6478 55.9132 55.733 55.9132 54.6149Z" fill="#1D1C1A"/>
<path d="M113.073 81.6526C114.043 81.6526 114.604 81.0681 114.604 80.1279C114.604 79.1369 114.017 78.5778 113.047 78.5778C112.077 78.5778 111.515 79.1623 111.515 80.1025C111.49 81.0935 112.077 81.6526 113.073 81.6526Z" fill="black"/>
<path d="M153 97.8401C153 95.9342 153 91.1315 153 89.2256C153 88.26 152.77 87.4722 151.876 86.9894C151.008 86.532 150.243 86.7861 149.502 87.2943C148.2 88.1837 146.873 88.9969 145.596 89.9117C145.009 90.3437 144.575 90.3691 144.039 89.8863C142.992 88.9461 141.895 88.26 140.746 87.7772V88.1329C140.669 88.0821 140.593 88.0313 140.516 88.0059C140.644 87.828 140.797 87.6755 140.925 87.4976C141.384 86.9386 141.486 86.3287 141.18 85.668C141.027 85.3631 140.874 85.0327 140.72 84.7278C140.593 84.4737 140.618 84.2704 140.797 84.0417C141.078 83.7113 141.333 83.3556 141.512 82.949C143.095 79.5439 142.099 75.5289 139.061 73.3689C137.478 72.2508 135.742 71.5139 133.674 72.2C133.368 72.3525 133.062 72.4795 132.781 72.632C132.449 72.8607 132.245 73.1402 132.168 73.5214C132.117 73.8771 132.168 74.1821 132.321 74.5124C132.577 75.0715 132.857 75.6051 133.113 76.1896C132.909 76.2404 132.755 76.1642 132.602 76.1387C132.449 76.1133 132.321 76.0625 132.168 76.0117C130.968 75.6305 129.973 76.2912 129.947 77.5364C129.896 79.8488 130.636 81.8817 132.321 83.5335C133.649 84.8294 135.206 85.6172 137.121 85.7188C137.376 85.7188 137.631 85.6934 137.785 85.973C137.938 86.2779 137.759 86.4812 137.58 86.6845C137.453 86.8369 137.325 87.0148 137.197 87.1673H136.151C135.895 87.2181 135.666 87.2689 135.385 87.3452C135.41 87.2943 135.461 87.2181 135.487 87.1673H130.024C129.871 87.1927 129.717 87.1927 129.513 87.1673H129.488H123.948C124.356 86.2779 124.739 85.3885 124.995 84.4229C125.48 82.6949 125.48 80.9923 124.663 79.366C124.305 78.6291 124.305 78.6291 124.867 78.0446C125.684 77.1806 125.48 75.9609 124.433 75.4272C122.263 74.3091 119.94 73.7247 117.489 73.6738C114.221 73.623 111.209 74.5378 108.477 76.342C104.444 78.9848 101.814 82.6695 100.436 87.1927H95.7386C94.3345 87.3198 93.7218 88.0313 93.7218 89.4543C93.7218 90.4454 93.6963 91.411 93.6963 92.402V92.5037C93.6963 93.0881 93.7218 93.6726 93.7473 94.2571C93.7729 94.7653 93.7473 95.2481 93.6963 95.7563V97.5351C93.4665 97.4843 93.2367 97.4081 93.007 97.3572C89.0756 96.29 85.1441 95.2735 81.1872 94.2825C80.8808 94.2062 80.651 94.1046 80.4979 93.9775C80.4979 93.7742 80.4979 93.571 80.4979 93.3423C80.4723 93.2152 80.4468 93.0627 80.4468 92.8848C80.4468 92.7832 80.4468 92.707 80.4468 92.6053C80.4468 92.5291 80.4468 92.4274 80.4468 92.3512C80.4468 92.1987 80.4468 92.0717 80.4468 91.9192C80.4724 90.6741 80.4723 89.4289 80.4213 88.1583C80.3958 87.5739 80.6255 87.2435 81.1106 86.9386C87.6715 82.8982 91.8837 77.1298 93.8494 69.7097C94.0281 69.0744 94.2579 68.8711 94.9216 68.8203C99.0063 68.5662 102.274 65.3389 102.58 61.3239C102.887 57.3597 100.206 53.7767 96.2236 52.8111C95.9173 52.7349 95.6365 52.6078 95.2791 52.5062C98.802 50.2446 100.666 43.0531 97.1171 39.4701C96.6831 39.0382 96.7342 38.5553 96.7342 38.0725C96.7342 34.2608 96.7342 30.4491 96.7342 26.6374C96.7342 21.4789 93.6963 17.591 88.6671 16.295C84.608 15.2277 80.5234 14.2367 76.4133 13.3727C71.0267 12.2292 65.6401 11.543 60.1004 12.4324C54.05 13.4235 48.1018 14.7449 42.2557 16.5745C38.1966 17.8451 35.4906 21.8092 35.4651 26.0784C35.4395 29.4581 35.4395 32.8632 35.4651 36.2429C35.4906 37.8692 35.5416 39.4193 34.2397 40.6899C33.9333 40.9948 33.8057 41.5031 33.6525 41.935C32.3505 45.4418 33.678 49.838 36.9202 52.5824C36.6394 52.6841 36.4862 52.7349 36.3075 52.7857C32.0442 53.8022 29.3637 57.2073 29.619 61.2731C29.8742 65.4152 33.0398 68.5153 37.4563 68.8711C38.1711 68.9219 38.2477 69.2777 38.4009 69.7859C40.3666 77.1552 44.5533 82.8982 51.0632 86.9386C51.6503 87.2943 51.8546 87.7009 51.829 88.387C51.778 89.8355 51.7524 91.2585 51.829 92.707C51.8801 93.5455 51.5482 93.8759 50.7568 94.0538C46.7998 95.0448 42.8684 96.0613 38.937 97.1285C35.0566 98.1958 31.0486 98.8565 27.449 100.813C19.2543 105.235 14.4548 111.994 13.2295 121.219C12.7955 124.547 13.0763 127.902 13.0252 131.231C12.9742 133.314 13.6635 133.95 15.7568 133.95C42.5876 133.95 69.4184 133.95 96.2492 133.95C96.3257 133.95 96.4278 133.95 96.5044 133.95C98.1893 133.95 99.8742 133.95 101.534 133.95C101.738 133.95 101.968 133.95 102.172 133.95C112.537 133.924 122.901 133.848 133.24 134.026C137.274 134.102 140.899 133.594 143.937 130.824C144.473 130.341 144.907 130.367 145.494 130.799C146.771 131.713 148.098 132.552 149.4 133.416C150.14 133.924 150.906 134.178 151.774 133.721C152.668 133.238 152.898 132.45 152.898 131.485C152.898 120.278 152.898 109.072 152.898 97.8655L153 97.8401ZM137.299 82.822C136.559 82.949 135.895 82.7457 135.308 82.3391C134.287 81.6276 133.7 80.6366 133.215 79.4168C134.057 79.6709 134.798 79.8996 135.538 80.1283C136.176 80.3316 136.738 80.23 137.197 79.7472C137.657 79.2389 137.682 78.6799 137.402 78.0954C136.891 77.0282 136.38 75.9609 135.844 74.8174C136.38 74.919 136.789 75.1223 137.146 75.4272C138.576 76.6724 139.367 78.2479 139.393 80.1538C139.393 81.5768 138.55 82.6187 137.299 82.822ZM108.069 80.4079C111.771 77.2823 115.957 76.1642 120.706 77.4093C120.731 77.4093 120.757 77.4347 120.782 77.4602C120.757 77.6634 120.578 77.7651 120.45 77.8667C119.582 78.7307 118.715 79.5947 117.847 80.4587C117.106 81.1956 117.081 82.1613 117.744 82.822C118.434 83.5081 119.404 83.4572 120.144 82.7203C120.706 82.1612 121.267 81.5768 121.88 80.9669C122.263 81.6784 122.237 82.3645 122.059 83.0507C121.752 84.2958 121.165 85.4139 120.655 86.5574C120.553 86.7607 120.476 86.964 120.374 87.1673H117.898C117.847 87.1673 117.77 87.1673 117.693 87.1673H112.996C110.545 85.973 108.86 83.94 107.941 81.0432C107.89 80.8399 107.788 80.6112 108.069 80.4079ZM105.184 83.8892C105.235 83.7876 105.312 83.6859 105.414 83.5335C105.516 83.7368 105.593 83.8892 105.669 84.0417C106.256 85.236 106.971 86.2779 107.814 87.1927H103.704C104.061 86.0492 104.546 84.9565 105.184 83.8892ZM95.5343 56.7245C97.3724 57.0802 98.802 58.8082 98.802 60.7141C98.802 62.6199 97.3979 64.3479 95.5599 64.729C94.8451 64.8815 94.6664 64.6274 94.6919 63.9667C94.743 62.874 94.6919 61.7813 94.6919 60.6886H94.7174C94.7174 59.596 94.743 58.5033 94.7174 57.4106C94.6919 56.7499 94.9472 56.6228 95.5343 56.7245ZM89.5606 21.8092C89.8414 21.1485 90.0457 21.1485 90.5307 21.5805C91.8582 22.8257 92.6751 24.2996 92.6751 26.1546C92.6751 27.7301 92.6751 29.2802 92.6751 30.8557C92.6751 32.4566 92.6496 34.0829 92.7006 35.6839C92.7262 36.5478 92.3432 36.6749 91.6284 36.5224C89.484 36.0142 87.3396 35.5314 85.1952 35.0486C84.4548 34.8961 84.1996 34.642 84.5314 33.8542C86.2163 29.8646 87.9012 25.8497 89.5606 21.8092ZM46.7488 19.4206C52.3396 17.8451 58.0325 16.7524 63.8276 16.2187C68.4993 15.7867 72.9924 16.9048 77.5365 17.6672C80.1149 18.0992 82.6423 18.8361 85.1696 19.5222C85.91 19.7255 85.91 19.9796 85.6547 20.5641C83.9698 24.5791 82.2594 28.5687 80.651 32.6345C80.166 33.8542 79.5533 33.9559 78.4045 33.7272C74.371 32.8632 70.2864 32.5074 66.2528 32.2787C61.2747 32.5328 56.3987 33.1173 51.5737 34.1338C50.8334 34.2862 50.5271 34.21 50.2973 33.4731C48.8932 29.2294 47.4891 24.9857 46.0085 20.742C45.7276 19.9034 45.9829 19.6493 46.7488 19.4206ZM39.6007 25.7226C39.6263 24.0709 40.4687 22.5462 41.9494 21.3772C43.43 25.7988 44.8341 30.0934 46.2893 34.3625C46.4935 34.9469 46.3659 35.201 45.7532 35.3281C44.0172 35.7093 42.2812 36.1413 40.5708 36.5478C39.8815 36.7003 39.5752 36.5478 39.5752 35.7601C39.6007 32.4058 39.5497 29.0769 39.6007 25.7226ZM36.6649 64.729C34.8524 64.3225 33.4738 62.6707 33.4483 60.8157C33.4228 58.8844 34.7758 57.2073 36.6394 56.7499C37.2776 56.5974 37.5839 56.6991 37.5584 57.436C37.5074 58.5795 37.5584 59.723 37.5584 60.8411H37.5839C37.5839 61.883 37.5584 62.9503 37.5839 63.9921C37.6095 64.7799 37.3031 64.8561 36.6649 64.729ZM37.8648 47.1952C37.1244 45.2131 36.8691 43.3327 38.6306 41.7063C39.1667 41.1981 39.805 40.8678 40.5198 40.6899C46.7488 39.2414 52.9778 37.8184 59.309 36.929C61.581 36.5987 63.8531 36.2429 66.1507 36.3191C71.4607 36.497 76.6685 37.4626 81.8764 38.5045C85.1441 39.1652 88.4118 39.953 91.6795 40.6899C94.1558 41.2489 95.5088 43.6122 94.7685 46.0263C94.6408 46.4583 94.4877 46.9157 94.3345 47.3477C93.6963 49.2027 92.7517 49.5839 90.9136 48.7961C86.4971 46.9157 82.1828 44.8319 77.6897 43.1548C73.9625 41.7572 70.1842 40.4104 66.1252 40.4104C62.0916 40.4104 58.3644 41.7318 54.6883 43.104C50.1952 44.7811 45.8808 46.8903 41.4643 48.7453C39.4475 49.6093 38.6051 49.2027 37.8648 47.1952ZM46.6211 77.4347C43.1748 73.064 41.592 68.0071 41.6175 62.442C41.643 59.8501 41.6686 57.2835 41.592 54.6916C41.5409 53.5226 41.8473 52.9382 42.9961 52.4808C47.9486 50.4987 52.7225 48.0846 57.7772 46.3058C59.9727 45.5181 62.2192 44.8828 64.5424 44.5778C67.5803 44.1712 70.4395 45.0352 73.2732 45.9246C79.0683 47.7797 84.4548 50.5749 90.0712 52.8619C90.6073 53.0906 90.6073 53.421 90.6073 53.853C90.6073 55.6318 90.6073 57.4106 90.6073 59.9517C90.7349 63.2552 90.6328 67.2956 89.0756 71.1581C85.5781 79.8742 79.1959 85.3123 69.929 86.7861C60.4578 88.3108 52.5694 84.9819 46.6211 77.4347ZM76.3367 94.5112C76.2346 95.9342 76.4643 97.6368 76.1325 99.3139C75.1113 104.371 70.4395 107.903 65.2572 107.471C60.0748 107.039 55.9647 102.643 55.9392 97.4589C55.9136 95.121 55.9647 92.8086 55.9136 90.4708C55.9136 89.6576 55.9647 89.3527 56.9348 89.683C63.0872 91.7922 69.2652 91.7667 75.4176 89.6576C76.1835 89.4035 76.3622 89.5305 76.3367 90.3183C76.3112 91.6143 76.3367 92.9357 76.3367 94.5112ZM39.0136 129.884C37.7116 129.884 37.4818 129.503 37.5074 128.308C37.5839 124.446 37.5074 120.609 37.5584 116.746C37.5584 115.882 37.3287 115.577 36.4352 115.603C33.4738 115.603 33.4738 115.577 33.4738 118.474C33.4738 121.854 33.4483 125.259 33.4993 128.639C33.4993 129.528 33.3462 129.909 32.325 129.884C27.6532 129.833 22.9559 129.833 18.2842 129.884C17.4162 129.884 17.0843 129.706 17.1098 128.766C17.1864 125.132 16.9311 121.498 18.0799 117.966C20.4286 110.647 25.1004 105.514 32.4527 103.202C38.503 101.296 44.732 99.873 50.8589 98.2212C51.5737 98.0179 51.829 98.2212 51.9311 98.9328C52.3396 101.804 53.4373 104.345 55.3009 106.607C59.9217 112.223 69.112 113.214 74.8305 108.64C77.8684 106.226 79.7065 103.176 80.2426 99.3393C80.2426 99.2631 80.2681 99.2123 80.2681 99.136C80.2936 98.9328 80.2936 98.704 80.3192 98.4753C80.4724 98.3483 80.7276 98.3229 81.1106 98.4245C85.2973 99.568 89.5095 100.584 93.6963 101.728V106.302C93.6963 106.455 93.6963 106.607 93.6963 106.785C93.6707 114.485 93.6963 122.184 93.6963 129.858C93.5431 129.858 93.3899 129.858 93.2623 129.858C75.1623 129.858 57.088 129.833 39.0136 129.884ZM136.61 128.791C136.61 129.706 136.355 129.884 135.487 129.884C123.284 129.858 111.056 129.858 98.8531 129.884C97.934 129.884 97.7553 129.63 97.7553 128.766C97.7809 116.619 97.7809 104.447 97.7553 92.3004C97.7553 91.3856 98.0106 91.2077 98.8786 91.2077C105.006 91.2585 111.132 91.2331 117.259 91.2331C123.31 91.2331 129.334 91.2585 135.385 91.2077C136.253 91.2077 136.61 91.2839 136.61 92.3258C136.559 104.472 136.585 116.644 136.61 128.791ZM148.787 128.029C147.792 127.393 146.924 126.834 146.056 126.225C145.188 125.615 144.32 125.615 143.452 126.225C142.584 126.809 141.716 127.368 140.72 128.029C140.72 117.737 140.72 107.573 140.72 97.3318C140.72 96.2646 140.72 95.1973 140.72 94.1046C140.72 93.7488 140.72 93.3931 140.72 93.0373V92.5291C141.69 93.1644 142.661 93.8505 143.503 94.4095C144.371 95.0194 145.239 94.994 146.107 94.4095C146.975 93.8251 147.843 93.266 148.838 92.6053C148.838 93.3423 148.838 96.2137 148.838 97.3064H148.787C148.787 107.573 148.787 117.737 148.787 128.029Z" fill="#1D1C1A"/>
<path d="M111.894 108.743C112.042 108.819 112.22 108.758 112.309 108.606C112.383 108.454 112.323 108.271 112.175 108.195C112.027 108.118 111.849 108.179 111.761 108.332C111.687 108.484 111.731 108.667 111.894 108.743Z" fill="#1D1C1A"/>
<path d="M116.752 111.531L118.411 109.84L115.523 110.465C115.849 111.379 116.752 111.531 116.752 111.531Z" fill="#1D1C1A"/>
<path d="M111.568 111.836C112.161 111.836 112.634 111.897 113.02 112.004C114.427 109.749 113.79 107.189 113.582 106.503C110.457 106.701 108.813 108.042 108.813 108.042L110.916 109.81L108.532 110.373L110.22 111.988C110.591 111.912 111.02 111.836 111.568 111.836ZM112.042 107.859C112.368 107.859 112.634 108.134 112.634 108.469C112.634 108.804 112.368 109.078 112.042 109.078C111.716 109.078 111.45 108.804 111.45 108.469C111.435 108.134 111.701 107.859 112.042 107.859Z" fill="#1D1C1A"/>
<path d="M107.658 109.185L107.673 109.078C107.688 108.895 107.717 108.758 107.732 108.636C107.747 108.499 107.791 108.286 107.836 107.996L107.747 107.966C107.732 108.073 107.717 108.164 107.688 108.21C107.673 108.255 107.628 108.286 107.584 108.301C107.539 108.316 107.48 108.316 107.376 108.301L106.591 108.195L106.606 108.073C106.636 107.829 106.814 107.722 107.11 107.707L107.125 107.631C106.917 107.616 106.754 107.6 106.636 107.57L106.473 107.555C106.355 107.539 106.251 107.524 106.147 107.494L106.132 107.57C106.251 107.616 106.355 107.676 106.429 107.753C106.503 107.829 106.532 107.936 106.517 108.057L106.503 108.179L105.644 108.057C105.57 108.042 105.525 108.042 105.495 108.012C105.466 107.996 105.436 107.966 105.436 107.936C105.421 107.905 105.436 107.844 105.436 107.783L105.451 107.676C105.466 107.509 105.555 107.387 105.658 107.311C105.777 107.235 105.969 107.189 106.236 107.189L106.251 107.113C106.192 107.113 106.103 107.098 105.984 107.098C105.836 107.082 105.658 107.037 105.466 106.991C105.451 107.143 105.421 107.387 105.377 107.722C105.303 108.225 105.244 108.606 105.199 108.865L105.258 108.88C105.273 108.804 105.288 108.743 105.318 108.713C105.333 108.682 105.362 108.652 105.407 108.652C105.451 108.636 105.51 108.652 105.599 108.667L107.302 108.88C107.391 108.895 107.451 108.911 107.495 108.926C107.525 108.941 107.554 108.972 107.554 109.017C107.569 109.048 107.569 109.124 107.554 109.185H107.658Z" fill="#1D1C1A"/>
<path d="M107.984 107.204C108.013 107.098 108.058 106.915 108.132 106.671C108.191 106.458 108.25 106.29 108.295 106.168L108.236 106.153C108.206 106.229 108.176 106.275 108.161 106.305C108.147 106.336 108.102 106.351 108.058 106.351C108.013 106.351 107.954 106.336 107.865 106.305L106.221 105.772C106.132 105.757 106.073 105.711 106.043 105.696C106.014 105.681 105.984 105.635 105.984 105.604C105.984 105.574 105.984 105.513 105.999 105.437L105.94 105.422C105.91 105.543 105.866 105.711 105.792 105.924C105.718 106.168 105.658 106.336 105.614 106.458L105.673 106.473C105.688 106.412 105.732 106.351 105.747 106.32C105.792 106.275 105.821 106.275 105.866 106.275C105.91 106.275 105.969 106.29 106.058 106.32L107.702 106.854C107.791 106.869 107.85 106.915 107.88 106.93C107.91 106.945 107.939 106.991 107.939 107.021C107.939 107.052 107.925 107.128 107.925 107.189L107.984 107.204Z" fill="#1D1C1A"/>
<path d="M108.413 105.665C108.473 105.62 108.547 105.559 108.606 105.498C108.665 105.437 108.724 105.345 108.784 105.208C108.843 105.056 108.887 104.919 108.902 104.782C108.917 104.629 108.887 104.507 108.843 104.401C108.784 104.294 108.695 104.203 108.561 104.126C108.458 104.066 108.354 104.05 108.25 104.05C108.147 104.05 108.058 104.066 107.954 104.111C107.85 104.157 107.747 104.218 107.599 104.294L107.48 104.355C107.347 104.431 107.243 104.492 107.169 104.523C107.095 104.553 107.021 104.584 106.962 104.584C106.903 104.584 106.814 104.568 106.754 104.538C106.651 104.492 106.606 104.416 106.562 104.325C106.547 104.233 106.547 104.126 106.591 104.035C106.651 103.928 106.725 103.852 106.828 103.807C106.932 103.761 107.036 103.746 107.154 103.746C107.273 103.761 107.391 103.776 107.51 103.837L107.539 103.776C107.214 103.608 106.977 103.487 106.843 103.41L106.814 103.471C106.858 103.502 106.888 103.532 106.903 103.547C106.917 103.563 106.917 103.593 106.917 103.608C106.903 103.624 106.903 103.624 106.888 103.639C106.873 103.654 106.858 103.669 106.828 103.685C106.754 103.73 106.695 103.791 106.636 103.837C106.577 103.898 106.532 103.974 106.488 104.081C106.429 104.203 106.384 104.34 106.384 104.462C106.369 104.584 106.399 104.705 106.443 104.812C106.503 104.919 106.591 105.01 106.71 105.071C106.814 105.132 106.917 105.147 107.036 105.132C107.14 105.117 107.243 105.102 107.332 105.056C107.436 105.01 107.554 104.949 107.688 104.858C107.88 104.751 108.013 104.675 108.147 104.644C108.28 104.614 108.384 104.629 108.502 104.675C108.606 104.736 108.68 104.812 108.695 104.919C108.71 105.025 108.71 105.132 108.65 105.239C108.561 105.437 108.413 105.528 108.236 105.543C108.043 105.559 107.836 105.528 107.599 105.422L107.569 105.482C107.999 105.696 108.28 105.848 108.398 105.924L108.428 105.863C108.384 105.833 108.354 105.802 108.339 105.787C108.324 105.772 108.324 105.741 108.324 105.726C108.324 105.741 108.354 105.711 108.413 105.665Z" fill="#1D1C1A"/>
<path d="M107.999 101.887L107.939 101.841C107.865 101.948 107.747 102.085 107.613 102.252C107.465 102.45 107.332 102.588 107.258 102.664L107.317 102.709C107.376 102.649 107.421 102.618 107.451 102.603C107.48 102.588 107.51 102.588 107.554 102.603C107.599 102.618 107.643 102.664 107.702 102.709L109.021 103.822C109.08 103.883 109.124 103.928 109.154 103.959C109.169 103.989 109.169 104.02 109.169 104.066C109.154 104.096 109.124 104.157 109.08 104.218L109.139 104.264C109.198 104.157 109.332 104.02 109.48 103.822C109.628 103.639 109.731 103.502 109.82 103.41L109.761 103.365C109.702 103.426 109.657 103.471 109.628 103.471C109.598 103.487 109.569 103.487 109.524 103.471C109.495 103.456 109.435 103.41 109.376 103.365L108.739 102.816L109.332 102.1L109.968 102.649C110.028 102.709 110.072 102.755 110.102 102.786C110.117 102.816 110.117 102.847 110.117 102.892C110.102 102.923 110.072 102.984 110.028 103.045L110.087 103.09C110.161 102.984 110.28 102.847 110.428 102.664C110.576 102.466 110.694 102.344 110.768 102.252L110.709 102.207C110.65 102.268 110.605 102.313 110.576 102.313C110.546 102.329 110.516 102.329 110.472 102.313C110.442 102.298 110.383 102.252 110.324 102.207L109.006 101.094C108.946 101.034 108.902 100.988 108.872 100.957C108.858 100.927 108.858 100.896 108.858 100.851C108.872 100.82 108.902 100.759 108.946 100.698L108.887 100.653C108.828 100.744 108.71 100.896 108.561 101.064C108.413 101.247 108.295 101.384 108.206 101.475L108.265 101.521C108.324 101.46 108.369 101.43 108.398 101.414C108.428 101.399 108.458 101.399 108.502 101.414C108.532 101.43 108.591 101.475 108.65 101.521L109.287 102.054L108.695 102.77L108.058 102.237C107.999 102.176 107.954 102.131 107.925 102.1C107.91 102.07 107.91 102.039 107.91 101.993C107.925 102.009 107.954 101.963 107.999 101.887Z" fill="#1D1C1A"/>
<path d="M111.05 100.348L110.072 101.14L110.25 101.369L111.227 100.576L111.05 100.348Z" fill="#1D1C1A"/>
<path d="M112.916 99.5404C113.02 99.388 113.064 99.2509 113.064 99.129C113.064 98.9919 113.049 98.87 112.975 98.7633C112.871 98.5653 112.723 98.4738 112.516 98.4434C112.323 98.4129 112.072 98.4586 111.79 98.6262C111.731 98.6567 111.687 98.6872 111.642 98.7024L111.316 98.9005C111.109 99.0071 110.946 99.0985 110.857 99.1442L110.887 99.2052C110.946 99.1747 111.005 99.1442 111.05 99.1442C111.079 99.1442 111.124 99.1595 111.153 99.1747C111.183 99.2052 111.213 99.2509 111.257 99.3271L112.072 100.866C112.116 100.942 112.131 101.003 112.146 101.049C112.161 101.094 112.146 101.125 112.131 101.155C112.116 101.171 112.042 101.216 111.983 101.262L112.012 101.323L112.116 101.262C112.264 101.171 112.398 101.11 112.486 101.049C112.605 100.988 112.797 100.881 113.049 100.759L113.02 100.698C112.916 100.744 112.857 100.775 112.797 100.79C112.738 100.805 112.694 100.79 112.664 100.775C112.634 100.744 112.59 100.683 112.546 100.607L112.264 100.058L112.427 99.967C112.664 99.8146 112.827 99.6775 112.916 99.5404ZM112.249 99.967L111.761 99.0376C111.716 98.9614 111.701 98.9005 111.687 98.8547C111.672 98.809 111.687 98.7786 111.701 98.7481C111.716 98.7176 111.761 98.6872 111.805 98.6567C111.938 98.5805 112.057 98.5805 112.175 98.6414C112.279 98.7024 112.383 98.8395 112.501 99.0376C112.605 99.2204 112.649 99.388 112.634 99.5251C112.62 99.6775 112.546 99.7842 112.383 99.8756L112.249 99.967Z" fill="#1D1C1A"/>
<path d="M115.271 98.4129C115.345 98.2605 115.375 98.0929 115.33 97.9406C115.271 97.7425 115.167 97.6206 114.975 97.5749C114.782 97.514 114.545 97.5292 114.249 97.6206C114.19 97.6359 114.145 97.6511 114.101 97.6663L113.731 97.773C113.508 97.8339 113.331 97.8796 113.227 97.9101L113.242 97.9711C113.316 97.9558 113.375 97.9558 113.405 97.9558C113.434 97.9558 113.464 97.9711 113.494 98.0168C113.508 98.0472 113.538 98.1082 113.553 98.1996L114.012 99.8756C114.027 99.967 114.042 100.028 114.042 100.074C114.042 100.119 114.027 100.15 113.997 100.18C113.968 100.196 113.923 100.226 113.849 100.256L113.864 100.317C113.968 100.287 114.145 100.226 114.382 100.165C114.59 100.104 114.767 100.058 114.886 100.028L114.871 99.967C114.797 99.9822 114.738 99.9822 114.708 99.9822C114.678 99.9822 114.649 99.967 114.619 99.9213C114.604 99.8756 114.59 99.8146 114.56 99.7232L114.353 98.9462L114.575 98.8852C114.678 98.87 114.753 98.87 114.812 98.9462C114.871 99.0071 114.945 99.129 115.019 99.2814L115.167 99.6013C115.226 99.7232 115.301 99.7994 115.389 99.8451C115.478 99.8756 115.582 99.8756 115.715 99.8451C115.819 99.8299 115.893 99.7842 115.952 99.7384C116.011 99.6927 116.056 99.6166 116.1 99.5404L116.041 99.5251C116.026 99.5556 116.011 99.5861 115.997 99.6013C115.982 99.6166 115.967 99.6318 115.937 99.647C115.893 99.6623 115.863 99.647 115.834 99.6318C115.804 99.6013 115.774 99.5404 115.73 99.4642L115.552 99.1138C115.493 98.9766 115.404 98.9005 115.271 98.8547C115.152 98.809 114.989 98.809 114.782 98.8547C115.019 98.6872 115.182 98.5653 115.271 98.4129ZM114.797 98.5805C114.753 98.6872 114.649 98.7786 114.471 98.8395L114.323 98.8852L114.086 98.0472C114.071 97.9711 114.056 97.8949 114.056 97.8492C114.056 97.8035 114.071 97.773 114.086 97.7425C114.101 97.7273 114.145 97.6968 114.204 97.6816C114.353 97.6359 114.471 97.6663 114.56 97.7425C114.649 97.8187 114.723 97.9406 114.767 98.1386C114.827 98.3062 114.841 98.4586 114.797 98.5805Z" fill="#1D1C1A"/>
<path d="M117.063 97.1483C116.559 97.1788 116.189 97.194 115.937 97.2092V97.2854C116.011 97.2854 116.071 97.3007 116.1 97.3007C116.13 97.3159 116.16 97.3311 116.174 97.3768C116.189 97.4073 116.189 97.4835 116.204 97.5749L116.308 99.3271C116.308 99.4185 116.308 99.4794 116.293 99.5251C116.278 99.5708 116.263 99.5861 116.234 99.6166C116.204 99.6318 116.145 99.647 116.071 99.647V99.708C116.308 99.6927 116.693 99.6623 117.196 99.6318C117.567 99.6166 117.833 99.6013 117.996 99.6013C117.981 99.4642 117.952 99.2814 117.937 99.0681C117.922 98.9462 117.922 98.8547 117.922 98.7786H117.848C117.833 99.0528 117.759 99.2509 117.67 99.3728C117.581 99.4947 117.448 99.5556 117.285 99.5708L117.122 99.5861C117.063 99.5861 117.004 99.5861 116.974 99.5708C116.945 99.5556 116.915 99.5404 116.915 99.5099C116.9 99.4794 116.9 99.4185 116.9 99.3575L116.856 98.4738L116.959 98.4586C117.196 98.4434 117.344 98.5957 117.404 98.9005H117.478C117.463 98.6872 117.433 98.5196 117.433 98.3977L117.419 98.2301C117.404 98.1082 117.404 97.9863 117.404 97.9101H117.33C117.315 98.032 117.27 98.1539 117.226 98.2453C117.167 98.3367 117.078 98.3977 116.959 98.3977L116.856 98.4129L116.811 97.5444C116.811 97.4683 116.811 97.4073 116.826 97.3768C116.841 97.3464 116.856 97.3159 116.885 97.3159C116.915 97.3007 116.974 97.3007 117.033 97.3007L117.182 97.2854C117.344 97.2702 117.463 97.3159 117.567 97.4225C117.67 97.5292 117.73 97.6968 117.774 97.9406H117.848C117.833 97.8796 117.833 97.8035 117.833 97.6968C117.818 97.5444 117.818 97.3768 117.833 97.1788C117.641 97.1178 117.404 97.1331 117.063 97.1483Z" fill="#1D1C1A"/>
<path d="M118.485 99.0681C118.47 99.1747 118.441 99.2661 118.426 99.3271C118.411 99.388 118.366 99.4337 118.322 99.4337C118.278 99.449 118.218 99.4642 118.144 99.449L118.129 99.5099C118.204 99.5251 118.307 99.5251 118.426 99.5556C118.574 99.5861 118.707 99.6166 118.796 99.647L118.811 99.5861C118.707 99.5556 118.648 99.5251 118.603 99.4794C118.559 99.449 118.544 99.388 118.544 99.3271C118.544 99.2661 118.559 99.1595 118.589 99.0223L118.914 97.3616L119.388 99.7689L119.448 99.7842L120.707 97.773L120.351 99.5708C120.336 99.6623 120.322 99.7232 120.292 99.7689C120.277 99.7994 120.233 99.8299 120.203 99.8299C120.159 99.8451 120.099 99.8299 120.011 99.8146L119.996 99.8756C120.114 99.8908 120.292 99.9213 120.544 99.9822C120.781 100.028 120.958 100.074 121.077 100.104L121.092 100.043C121.018 100.028 120.973 99.9975 120.944 99.9822C120.914 99.967 120.884 99.9213 120.884 99.8908C120.884 99.8451 120.884 99.7842 120.899 99.6927L121.24 97.9711C121.255 97.8796 121.269 97.8187 121.299 97.773C121.314 97.7425 121.344 97.712 121.388 97.712C121.418 97.6968 121.477 97.712 121.566 97.7273L121.581 97.6663C121.462 97.6511 121.284 97.6054 121.047 97.5597L120.81 97.514L119.848 99.0528L119.448 97.255C119.3 97.2397 119.122 97.194 118.9 97.1483C118.781 97.1331 118.677 97.1026 118.618 97.0874L118.603 97.1483C118.677 97.1635 118.722 97.194 118.752 97.2092C118.781 97.2245 118.811 97.2702 118.811 97.3007C118.811 97.3464 118.811 97.4073 118.796 97.4987L118.485 99.0681Z" fill="#1D1C1A"/>
<path d="M121.506 100.028C121.477 100.104 121.447 100.165 121.403 100.196C121.388 100.226 121.344 100.241 121.299 100.241C121.269 100.241 121.21 100.226 121.136 100.196L121.107 100.256C121.21 100.302 121.388 100.363 121.61 100.47C121.817 100.561 121.98 100.637 122.084 100.698L122.114 100.637C122.054 100.607 121.995 100.576 121.966 100.546C121.951 100.531 121.936 100.485 121.936 100.439C121.936 100.394 121.951 100.333 121.995 100.256L122.691 98.6567C122.721 98.5805 122.751 98.5196 122.795 98.4891C122.81 98.4586 122.854 98.4434 122.899 98.4434C122.928 98.4434 122.988 98.4586 123.062 98.4891L123.091 98.4281C122.973 98.3824 122.81 98.3215 122.602 98.2301C122.38 98.1234 122.217 98.0472 122.099 97.9863L122.069 98.0472C122.129 98.0777 122.173 98.1082 122.217 98.1386C122.232 98.1539 122.247 98.1996 122.247 98.2453C122.247 98.291 122.232 98.352 122.188 98.4281L121.506 100.028Z" fill="#1D1C1A"/>
<path d="M123.58 99.0833L122.973 100.013C122.839 100.211 122.751 100.378 122.706 100.515C122.662 100.653 122.662 100.775 122.706 100.912C122.765 101.094 122.899 101.262 123.121 101.414C123.269 101.521 123.402 101.567 123.536 101.582C123.669 101.597 123.773 101.582 123.891 101.536C124.054 101.46 124.232 101.277 124.424 100.988L124.928 100.211C124.987 100.104 125.046 100.043 125.091 99.9975C125.135 99.9518 125.18 99.9365 125.224 99.9365C125.269 99.9365 125.328 99.9518 125.402 99.9822L125.431 99.9213C125.372 99.8908 125.283 99.8299 125.18 99.7689C125.046 99.6775 124.943 99.6013 124.869 99.5404L124.839 99.6013C124.913 99.6623 124.957 99.7232 124.987 99.7842C125.002 99.8451 125.002 99.8908 124.987 99.9518C124.972 100.013 124.928 100.104 124.839 100.226L124.335 101.003C124.187 101.247 124.01 101.414 123.847 101.491C123.684 101.567 123.506 101.552 123.313 101.414C123.165 101.308 123.091 101.201 123.106 101.049C123.106 100.912 123.18 100.744 123.313 100.546L124.039 99.4337C124.084 99.3575 124.128 99.3118 124.158 99.2814C124.187 99.2661 124.217 99.2509 124.261 99.2661C124.306 99.2814 124.365 99.2966 124.424 99.3423L124.484 99.2661C124.38 99.2052 124.217 99.0985 124.024 98.9614C123.832 98.8243 123.669 98.7176 123.58 98.6414L123.55 98.7024C123.61 98.7481 123.654 98.7938 123.669 98.8243C123.684 98.8547 123.684 98.8852 123.684 98.9309C123.669 98.9462 123.624 99.0071 123.58 99.0833Z" fill="#1D1C1A"/>
<path d="M125.891 100.79L124.72 101.826C124.632 101.902 124.572 101.963 124.513 101.978C124.454 102.009 124.409 102.024 124.365 102.009C124.321 101.993 124.261 101.978 124.217 101.917L124.158 101.963C124.217 102.024 124.276 102.085 124.365 102.191C124.469 102.313 124.558 102.42 124.602 102.481L124.661 102.435C124.602 102.344 124.572 102.283 124.558 102.222C124.543 102.161 124.572 102.115 124.602 102.07C124.646 102.009 124.706 101.948 124.809 101.856L126.068 100.744L124.987 102.953L125.017 102.999L127.209 102.191L125.831 103.395C125.772 103.456 125.713 103.487 125.683 103.502C125.639 103.517 125.609 103.517 125.58 103.487C125.55 103.471 125.505 103.426 125.431 103.365L125.372 103.41C125.446 103.502 125.565 103.639 125.742 103.822C125.891 104.005 126.009 104.142 126.083 104.248L126.142 104.203C126.098 104.142 126.068 104.096 126.054 104.05C126.039 104.02 126.039 103.989 126.068 103.944C126.083 103.913 126.128 103.867 126.202 103.791L127.505 102.633C127.564 102.572 127.624 102.527 127.653 102.527C127.683 102.511 127.727 102.511 127.757 102.527C127.786 102.542 127.831 102.588 127.89 102.633L127.949 102.588C127.86 102.496 127.742 102.359 127.579 102.176L127.416 101.978L125.728 102.603L126.542 100.927C126.439 100.82 126.305 100.683 126.172 100.515C126.083 100.409 126.024 100.333 125.979 100.272L125.92 100.317C125.965 100.378 125.994 100.424 126.009 100.47C126.024 100.5 126.024 100.531 125.994 100.576C126.009 100.668 125.965 100.729 125.891 100.79Z" fill="#1D1C1A"/>
<path d="M126.498 104.34C126.439 104.325 126.365 104.325 126.29 104.355C126.216 104.401 126.187 104.462 126.157 104.523C126.142 104.584 126.157 104.675 126.202 104.751C126.246 104.827 126.305 104.888 126.365 104.904C126.424 104.919 126.498 104.919 126.572 104.888C126.646 104.843 126.676 104.782 126.705 104.721C126.72 104.66 126.705 104.568 126.661 104.492C126.616 104.416 126.557 104.37 126.498 104.34Z" fill="#1D1C1A"/>
<path d="M126.972 106.153C126.957 106.077 126.942 106.016 126.942 105.985C126.942 105.955 126.957 105.924 127.001 105.879C127.031 105.863 127.09 105.818 127.179 105.787L127.92 105.498L127.994 105.711C128.023 105.802 128.009 105.894 127.964 105.955C127.905 106.016 127.801 106.107 127.653 106.199L127.357 106.381C127.238 106.442 127.164 106.534 127.135 106.625C127.105 106.717 127.12 106.823 127.164 106.96C127.194 107.067 127.238 107.128 127.298 107.204C127.357 107.265 127.416 107.311 127.505 107.341L127.52 107.28C127.49 107.265 127.461 107.25 127.446 107.235C127.431 107.219 127.416 107.204 127.401 107.174C127.387 107.128 127.387 107.098 127.416 107.067C127.431 107.037 127.49 106.991 127.564 106.93L127.875 106.732C127.994 106.656 128.068 106.549 128.112 106.427C128.142 106.305 128.127 106.138 128.083 105.924C128.216 106.168 128.349 106.336 128.512 106.412C128.66 106.473 128.823 106.488 128.971 106.427C129.149 106.366 129.253 106.229 129.297 106.031C129.342 105.833 129.312 105.589 129.194 105.284C129.179 105.223 129.149 105.178 129.134 105.132L129.001 104.766C128.927 104.538 128.853 104.37 128.823 104.264L128.764 104.279C128.779 104.355 128.794 104.416 128.794 104.446C128.794 104.477 128.779 104.507 128.749 104.553C128.72 104.568 128.66 104.614 128.571 104.644L126.957 105.239C126.883 105.269 126.809 105.284 126.764 105.284C126.72 105.284 126.69 105.269 126.661 105.239C126.646 105.208 126.602 105.163 126.572 105.086L126.513 105.102C126.557 105.208 126.616 105.391 126.705 105.62C126.779 105.833 126.839 106.001 126.883 106.122L126.972 106.153ZM128.764 105.193C128.838 105.163 128.897 105.147 128.942 105.147C128.986 105.147 129.016 105.147 129.045 105.163C129.06 105.178 129.09 105.223 129.105 105.284C129.164 105.437 129.149 105.559 129.09 105.65C129.031 105.741 128.897 105.833 128.72 105.894C128.557 105.955 128.394 105.97 128.29 105.94C128.172 105.909 128.083 105.802 128.009 105.62L127.964 105.482L128.764 105.193Z" fill="#1D1C1A"/>
<path d="M129.964 109.231L130.023 109.215C130.008 109.154 129.993 109.048 129.978 108.911C129.964 108.758 129.949 108.621 129.949 108.53L129.89 108.545C129.89 108.652 129.875 108.728 129.86 108.773C129.845 108.819 129.801 108.865 129.742 108.88C129.682 108.895 129.593 108.926 129.46 108.941L128.557 109.063C128.275 109.093 128.053 109.078 127.875 109.002C127.712 108.926 127.609 108.773 127.579 108.545C127.564 108.362 127.594 108.225 127.698 108.149C127.801 108.057 127.979 107.996 128.216 107.966L129.519 107.798C129.608 107.783 129.667 107.783 129.712 107.798C129.756 107.814 129.771 107.829 129.801 107.859C129.816 107.89 129.83 107.966 129.86 108.042L129.919 108.027C129.904 107.905 129.86 107.707 129.845 107.478C129.816 107.235 129.786 107.052 129.786 106.93L129.727 106.945C129.727 107.021 129.727 107.082 129.712 107.113C129.697 107.143 129.682 107.174 129.653 107.189C129.623 107.204 129.549 107.219 129.46 107.235L128.379 107.387C128.142 107.417 127.964 107.463 127.831 107.509C127.712 107.57 127.609 107.661 127.549 107.768C127.446 107.936 127.431 108.149 127.461 108.423C127.475 108.591 127.52 108.743 127.609 108.85C127.668 108.956 127.772 109.048 127.875 109.093C128.038 109.17 128.29 109.185 128.616 109.139L129.519 109.017C129.638 109.002 129.727 109.002 129.786 109.002C129.845 109.002 129.89 109.017 129.934 109.063C129.919 109.109 129.934 109.154 129.964 109.231Z" fill="#1D1C1A"/>
<path d="M110.546 118.327C110.531 118.159 110.442 117.961 110.265 117.748L110.324 117.687C110.368 117.656 110.398 117.626 110.428 117.61C110.442 117.595 110.472 117.595 110.487 117.61C110.502 117.626 110.546 117.641 110.576 117.671L110.605 117.641C110.546 117.58 110.472 117.504 110.368 117.397C110.265 117.291 110.176 117.199 110.131 117.123L110.102 117.153C110.131 117.184 110.161 117.214 110.161 117.245C110.176 117.26 110.176 117.291 110.146 117.306C110.131 117.321 110.102 117.367 110.072 117.397L110.013 117.458C109.82 117.275 109.643 117.169 109.465 117.138C109.287 117.108 109.139 117.153 109.006 117.275C108.858 117.412 108.813 117.565 108.813 117.732C108.828 117.915 108.917 118.098 109.08 118.311L109.021 118.372C108.976 118.403 108.946 118.433 108.917 118.448C108.902 118.464 108.872 118.464 108.858 118.448C108.843 118.433 108.798 118.418 108.769 118.388L108.739 118.418C108.798 118.479 108.872 118.555 108.976 118.677C109.08 118.784 109.139 118.875 109.198 118.936L109.228 118.906C109.198 118.86 109.169 118.845 109.169 118.814C109.154 118.799 109.154 118.768 109.183 118.753C109.198 118.738 109.228 118.692 109.258 118.662L109.317 118.601C109.509 118.784 109.687 118.89 109.865 118.906C110.043 118.921 110.191 118.89 110.324 118.753C110.502 118.662 110.561 118.509 110.546 118.327ZM109.124 118.342C109.05 118.22 109.021 118.083 109.035 117.976C109.05 117.854 109.139 117.732 109.272 117.61C109.406 117.489 109.524 117.412 109.643 117.412C109.746 117.397 109.88 117.443 109.998 117.55L109.124 118.342ZM110.324 118.159C110.309 118.281 110.22 118.403 110.087 118.525C109.954 118.647 109.835 118.723 109.717 118.738C109.598 118.753 109.48 118.723 109.361 118.616L110.22 117.809C110.324 117.915 110.354 118.037 110.324 118.159Z" fill="#1D1C1A"/>
<path d="M111.257 120.414C111.242 120.399 111.242 120.368 111.257 120.353C111.272 120.338 111.287 120.292 111.316 120.246L111.983 119.363C112.012 119.317 112.042 119.286 112.057 119.271C112.072 119.256 112.101 119.256 112.116 119.256C112.131 119.271 112.175 119.271 112.22 119.317L112.235 119.286C112.175 119.241 112.086 119.18 111.953 119.073C111.849 118.982 111.761 118.921 111.687 118.86L111.672 118.89C111.701 118.921 111.731 118.951 111.731 118.966C111.746 118.982 111.746 119.012 111.746 119.027C111.746 119.043 111.731 119.088 111.701 119.119L110.561 119.591L111.183 118.753C111.213 118.707 111.242 118.677 111.257 118.662C111.272 118.647 111.301 118.647 111.316 118.647C111.331 118.662 111.376 118.662 111.42 118.707L111.435 118.677C111.376 118.631 111.287 118.57 111.168 118.479C111.05 118.372 110.946 118.311 110.887 118.266L110.872 118.296C110.902 118.327 110.931 118.357 110.946 118.372C110.961 118.388 110.961 118.418 110.961 118.433C110.946 118.448 110.931 118.494 110.902 118.54L110.235 119.424C110.205 119.469 110.176 119.5 110.161 119.515C110.146 119.53 110.117 119.53 110.102 119.53C110.087 119.515 110.043 119.515 109.998 119.469L109.983 119.5C110.043 119.545 110.131 119.606 110.265 119.713C110.368 119.804 110.457 119.865 110.531 119.926L110.546 119.896C110.516 119.865 110.487 119.835 110.472 119.82C110.457 119.804 110.457 119.774 110.457 119.759C110.472 119.744 110.472 119.698 110.502 119.667L111.642 119.195L111.02 120.033C110.99 120.079 110.961 120.109 110.946 120.124C110.931 120.14 110.902 120.14 110.887 120.14C110.872 120.124 110.828 120.124 110.783 120.079L110.768 120.109C110.828 120.155 110.916 120.216 111.035 120.307C111.153 120.414 111.257 120.475 111.316 120.521L111.331 120.49C111.287 120.46 111.272 120.444 111.257 120.414Z" fill="#1D1C1A"/>
<path d="M113.76 120.048L113.745 120.094C113.775 120.109 113.805 120.14 113.819 120.155C113.834 120.17 113.834 120.185 113.834 120.216C113.834 120.231 113.819 120.277 113.79 120.323L113.316 121.328C113.301 121.389 113.271 121.42 113.257 121.435C113.242 121.45 113.212 121.465 113.197 121.45C113.183 121.45 113.138 121.435 113.094 121.42L112.99 121.374C112.946 121.359 112.916 121.328 112.901 121.313C112.886 121.298 112.886 121.267 112.886 121.252C112.886 121.237 112.901 121.191 112.916 121.145L113.39 120.14C113.405 120.079 113.434 120.048 113.449 120.033C113.464 120.018 113.479 120.003 113.508 120.003C113.523 120.003 113.568 120.018 113.597 120.018L113.612 119.972C113.553 119.957 113.449 119.896 113.316 119.835C113.197 119.774 113.108 119.728 113.034 119.683L113.02 119.728C113.049 119.744 113.079 119.774 113.094 119.789C113.108 119.804 113.108 119.82 113.108 119.85C113.108 119.865 113.094 119.911 113.064 119.957L112.59 120.962C112.575 121.023 112.546 121.054 112.531 121.069C112.516 121.084 112.486 121.1 112.472 121.084C112.457 121.084 112.412 121.069 112.368 121.054L112.264 121.008C112.22 120.993 112.19 120.962 112.161 120.947C112.146 120.932 112.146 120.901 112.146 120.886C112.146 120.871 112.161 120.825 112.19 120.78L112.664 119.774C112.679 119.713 112.709 119.683 112.723 119.667C112.738 119.652 112.753 119.637 112.783 119.637C112.797 119.637 112.842 119.652 112.871 119.652L112.886 119.606C112.827 119.576 112.723 119.53 112.605 119.469C112.457 119.408 112.368 119.347 112.294 119.317L112.279 119.363C112.323 119.378 112.338 119.408 112.368 119.424C112.383 119.439 112.383 119.469 112.383 119.485C112.383 119.5 112.368 119.545 112.338 119.591L111.864 120.597C111.849 120.658 111.82 120.688 111.805 120.703C111.79 120.719 111.761 120.719 111.746 120.719C111.731 120.719 111.687 120.703 111.642 120.688L111.627 120.734C111.687 120.749 111.79 120.81 111.924 120.886C111.968 120.901 112.027 120.947 112.116 120.993L112.294 121.084L112.472 121.16C112.56 121.206 112.62 121.221 112.664 121.252C112.709 121.267 112.768 121.313 112.857 121.359L113.02 121.435L113.197 121.511C113.286 121.557 113.345 121.587 113.39 121.602C113.523 121.663 113.627 121.724 113.686 121.755L113.701 121.709C113.656 121.694 113.642 121.663 113.612 121.648C113.597 121.633 113.597 121.602 113.597 121.587C113.597 121.572 113.612 121.526 113.642 121.48L114.116 120.475C114.13 120.414 114.16 120.383 114.175 120.368C114.19 120.353 114.219 120.353 114.234 120.353C114.249 120.353 114.293 120.368 114.338 120.383L114.353 120.338C114.293 120.307 114.175 120.262 114.027 120.185C113.923 120.14 113.834 120.094 113.76 120.048Z" fill="#1D1C1A"/>
<path d="M116.441 120.825C116.367 120.81 116.248 120.795 116.1 120.764C116.041 120.749 115.937 120.734 115.819 120.703L115.656 120.673L115.478 120.642C115.375 120.627 115.271 120.597 115.197 120.582C115.049 120.551 114.93 120.521 114.856 120.505L114.841 120.551C114.886 120.566 114.915 120.566 114.945 120.597C114.96 120.612 114.975 120.627 114.975 120.658C114.975 120.688 114.975 120.719 114.96 120.78L114.723 121.877C114.708 121.938 114.708 121.968 114.693 121.983C114.678 121.998 114.664 122.014 114.634 122.029C114.619 122.029 114.575 122.029 114.53 122.029L114.516 122.075C114.59 122.09 114.708 122.105 114.856 122.136C115.004 122.166 115.093 122.197 115.182 122.212L115.197 122.166C115.152 122.151 115.123 122.151 115.093 122.12C115.078 122.105 115.064 122.09 115.064 122.059C115.064 122.029 115.064 121.998 115.078 121.938L115.315 120.841C115.33 120.78 115.33 120.749 115.345 120.719C115.36 120.703 115.375 120.688 115.404 120.673C115.419 120.673 115.463 120.673 115.508 120.688L115.73 120.734C115.789 120.749 115.819 120.749 115.834 120.764C115.849 120.78 115.863 120.795 115.863 120.825C115.863 120.841 115.863 120.886 115.849 120.947L115.612 122.044C115.597 122.105 115.597 122.136 115.582 122.151C115.567 122.166 115.552 122.181 115.523 122.197C115.508 122.197 115.463 122.197 115.419 122.197L115.404 122.242C115.478 122.257 115.597 122.273 115.73 122.303C115.878 122.334 115.997 122.364 116.071 122.379L116.086 122.334C116.041 122.318 116.011 122.318 115.982 122.288C115.967 122.273 115.952 122.257 115.952 122.227C115.952 122.197 115.952 122.166 115.967 122.105L116.204 121.008C116.219 120.947 116.219 120.917 116.234 120.901C116.248 120.886 116.263 120.871 116.293 120.856C116.308 120.856 116.352 120.856 116.397 120.856L116.441 120.825Z" fill="#1D1C1A"/>
<path d="M117.196 120.871C117.167 120.871 117.137 120.871 117.093 120.871L116.856 120.856C116.708 120.841 116.604 120.841 116.53 120.825V120.871C116.574 120.886 116.619 120.886 116.634 120.886C116.648 120.901 116.663 120.917 116.678 120.947C116.693 120.962 116.693 121.008 116.678 121.069L116.619 122.181C116.619 122.242 116.604 122.288 116.604 122.303C116.589 122.318 116.589 122.349 116.559 122.349C116.545 122.364 116.5 122.364 116.456 122.364V122.41H116.485C116.589 122.41 116.678 122.425 116.767 122.425C116.856 122.44 116.989 122.44 117.167 122.456V122.41C117.108 122.395 117.048 122.395 117.019 122.395C116.989 122.379 116.959 122.364 116.959 122.334C116.945 122.303 116.945 122.273 116.945 122.197L116.959 121.8L117.078 121.816C117.241 121.831 117.359 121.8 117.463 121.77C117.567 121.739 117.641 121.663 117.685 121.587C117.73 121.526 117.744 121.435 117.759 121.343C117.774 121.206 117.73 121.1 117.626 121.023C117.537 120.917 117.389 120.871 117.196 120.871ZM117.419 121.343C117.404 121.48 117.389 121.587 117.33 121.663C117.27 121.739 117.196 121.77 117.078 121.77L116.974 121.755L117.019 121.084C117.019 121.023 117.033 120.993 117.033 120.962C117.048 120.947 117.048 120.917 117.078 120.901C117.093 120.886 117.122 120.886 117.167 120.886C117.27 120.901 117.33 120.932 117.359 120.993C117.404 121.1 117.419 121.206 117.419 121.343Z" fill="#1D1C1A"/>
<path d="M119.107 121.877H119.048C119.033 122.059 118.989 122.181 118.944 122.242C118.885 122.318 118.796 122.349 118.707 122.364L118.603 122.379C118.559 122.379 118.529 122.379 118.5 122.379C118.485 122.364 118.47 122.364 118.455 122.334C118.441 122.318 118.441 122.273 118.441 122.227L118.411 121.663H118.47C118.618 121.648 118.707 121.739 118.752 121.953H118.811C118.796 121.816 118.781 121.709 118.781 121.633L118.766 121.526C118.766 121.45 118.752 121.374 118.752 121.313H118.692C118.677 121.389 118.663 121.465 118.633 121.526C118.603 121.587 118.544 121.618 118.455 121.633H118.396L118.366 121.084C118.366 121.039 118.366 121.008 118.366 120.978C118.381 120.962 118.381 120.947 118.411 120.932C118.426 120.917 118.47 120.917 118.515 120.917L118.603 120.901C118.707 120.886 118.796 120.917 118.84 120.978C118.9 121.039 118.944 121.145 118.989 121.298H119.048C119.033 121.267 119.033 121.206 119.033 121.145C119.018 121.039 119.018 120.947 119.033 120.825C118.944 120.841 118.796 120.841 118.574 120.856C118.248 120.871 118.026 120.886 117.848 120.886V120.932C117.892 120.932 117.937 120.932 117.952 120.947C117.967 120.962 117.996 120.962 117.996 120.993C118.011 121.008 118.011 121.054 118.011 121.115L118.07 122.227C118.07 122.288 118.07 122.334 118.07 122.349C118.055 122.364 118.055 122.395 118.026 122.41C118.011 122.425 117.967 122.425 117.922 122.425V122.471C118.07 122.456 118.322 122.44 118.648 122.41C118.885 122.395 119.048 122.395 119.151 122.395C119.137 122.303 119.122 122.197 119.122 122.059C119.107 121.998 119.107 121.922 119.107 121.877Z" fill="#1D1C1A"/>
<path d="M121.21 121.922C121.195 121.922 121.166 121.907 121.151 121.877C121.136 121.861 121.136 121.816 121.121 121.77L120.884 120.688C120.87 120.627 120.87 120.582 120.87 120.566C120.87 120.551 120.884 120.521 120.899 120.505C120.914 120.49 120.958 120.49 121.003 120.46L120.988 120.414C120.914 120.429 120.796 120.46 120.662 120.49L120.514 120.521L120.366 121.679L119.685 120.703C119.596 120.719 119.477 120.764 119.344 120.795C119.27 120.81 119.196 120.825 119.151 120.825L119.166 120.871C119.211 120.856 119.255 120.856 119.27 120.856C119.285 120.856 119.314 120.871 119.329 120.901C119.344 120.917 119.344 120.962 119.359 121.008L119.581 121.983C119.596 122.059 119.596 122.12 119.596 122.151C119.596 122.197 119.581 122.212 119.581 122.242C119.566 122.257 119.522 122.288 119.477 122.303L119.492 122.349C119.537 122.334 119.596 122.318 119.685 122.303C119.788 122.288 119.862 122.273 119.922 122.257L119.907 122.212C119.848 122.227 119.803 122.212 119.759 122.197C119.729 122.181 119.699 122.166 119.685 122.12C119.67 122.09 119.655 122.014 119.625 121.922L119.388 120.871L120.292 122.151L120.322 122.136L120.529 120.642L120.781 121.8C120.796 121.861 120.796 121.907 120.796 121.922C120.796 121.938 120.781 121.968 120.766 121.983C120.751 121.998 120.707 122.014 120.662 122.029L120.677 122.075C120.751 122.059 120.87 122.029 121.018 121.983C121.166 121.953 121.269 121.922 121.358 121.922L121.344 121.877C121.284 121.922 121.255 121.922 121.21 121.922Z" fill="#1D1C1A"/>
<path d="M126.113 118.951C126.098 118.966 126.068 118.966 126.054 118.936C126.039 118.921 125.994 118.89 125.965 118.845L125.254 117.991C125.224 117.946 125.194 117.915 125.194 117.885C125.18 117.869 125.18 117.839 125.194 117.824C125.209 117.809 125.224 117.778 125.254 117.732L125.224 117.702C125.165 117.763 125.076 117.839 124.972 117.946L124.854 118.052L125.239 119.149L124.202 118.616C124.143 118.677 124.054 118.768 123.95 118.86C123.906 118.89 123.876 118.921 123.847 118.951L123.832 118.936C123.802 118.951 123.758 118.997 123.684 119.043C123.624 119.088 123.536 119.134 123.447 119.18L123.462 119.21C123.521 119.18 123.565 119.165 123.595 119.165C123.624 119.165 123.654 119.18 123.699 119.225C123.728 119.286 123.758 119.378 123.758 119.5L123.802 120.003L123.106 119.606C123.076 119.591 123.047 119.561 123.047 119.545C123.017 119.5 123.032 119.454 123.106 119.408L123.091 119.378C123.032 119.424 122.928 119.485 122.795 119.576C122.677 119.637 122.602 119.698 122.543 119.728C122.484 119.759 122.395 119.804 122.262 119.85C122.129 119.911 122.025 119.957 121.951 119.972L121.966 120.018C122.01 120.003 122.04 120.003 122.069 120.003C122.084 120.003 122.114 120.003 122.129 120.018C122.143 120.033 122.158 120.063 122.188 120.094L122.025 121.343L121.625 120.383C121.61 120.323 121.595 120.292 121.595 120.262C121.595 120.246 121.595 120.216 121.61 120.201C121.625 120.185 121.655 120.17 121.699 120.14L121.684 120.094C121.625 120.124 121.506 120.17 121.388 120.231C121.24 120.292 121.136 120.338 121.062 120.368L121.077 120.414C121.121 120.399 121.151 120.399 121.181 120.399C121.195 120.399 121.225 120.414 121.24 120.429C121.255 120.444 121.269 120.49 121.299 120.536L121.729 121.557C121.743 121.618 121.758 121.648 121.758 121.663C121.758 121.679 121.758 121.709 121.743 121.724C121.729 121.739 121.699 121.755 121.655 121.785L121.669 121.831C121.729 121.8 121.847 121.755 121.995 121.679C122.129 121.618 122.232 121.572 122.306 121.557L122.262 121.511C122.217 121.526 122.188 121.526 122.158 121.526C122.143 121.526 122.114 121.511 122.099 121.511C122.084 121.496 122.069 121.465 122.04 121.42L122.203 120.185L122.602 121.16C122.617 121.221 122.632 121.252 122.632 121.282C122.632 121.298 122.632 121.328 122.617 121.343C122.602 121.359 122.573 121.374 122.528 121.404L122.543 121.45C122.602 121.42 122.706 121.374 122.839 121.313C122.988 121.252 123.091 121.206 123.165 121.176L123.151 121.13C123.106 121.145 123.076 121.145 123.047 121.145C123.032 121.145 123.002 121.13 122.988 121.115C122.973 121.1 122.958 121.054 122.928 121.008L122.499 119.987C122.484 119.926 122.469 119.896 122.469 119.865C122.469 119.85 122.469 119.82 122.484 119.804C122.499 119.789 122.528 119.774 122.573 119.744C122.617 119.728 122.677 119.759 122.736 119.789L123.832 120.414L123.847 120.536C123.861 120.597 123.847 120.642 123.832 120.688C123.817 120.734 123.802 120.764 123.773 120.78C123.758 120.795 123.743 120.795 123.728 120.795C123.758 120.764 123.773 120.719 123.787 120.688C123.802 120.658 123.787 120.612 123.773 120.582C123.758 120.551 123.713 120.521 123.669 120.521C123.624 120.521 123.58 120.536 123.536 120.566C123.491 120.597 123.462 120.627 123.447 120.673C123.432 120.719 123.432 120.764 123.462 120.81C123.491 120.856 123.521 120.886 123.58 120.886C123.639 120.901 123.684 120.871 123.758 120.825C123.817 120.78 123.861 120.734 123.876 120.673C123.891 120.627 123.891 120.566 123.876 120.49L123.861 120.246L123.773 119.256C123.758 119.165 123.773 119.104 123.773 119.043C123.773 119.012 123.787 118.982 123.787 118.951C123.817 118.936 123.847 118.906 123.861 118.906C123.876 118.89 123.906 118.89 123.921 118.921C123.935 118.936 123.98 118.966 124.01 119.012L124.646 119.774C124.691 119.835 124.72 119.881 124.75 119.911C124.765 119.942 124.765 119.972 124.765 120.003C124.75 120.033 124.75 120.063 124.706 120.109L124.735 120.14C124.765 120.109 124.809 120.063 124.883 120.003C124.957 119.942 125.032 119.896 125.076 119.85L125.046 119.82C124.987 119.85 124.943 119.881 124.913 119.881C124.883 119.881 124.854 119.881 124.809 119.85C124.78 119.835 124.735 119.789 124.676 119.713L123.995 118.906L125.372 119.606L125.387 119.591L124.883 118.174L125.639 119.058C125.668 119.104 125.698 119.134 125.698 119.165C125.698 119.195 125.713 119.21 125.698 119.225C125.683 119.241 125.668 119.286 125.624 119.317L125.654 119.347C125.713 119.286 125.802 119.21 125.905 119.104C126.009 118.997 126.098 118.936 126.172 118.875L126.142 118.845C126.172 118.921 126.142 118.936 126.113 118.951Z" fill="#1D1C1A"/>
<path d="M127.001 111.272C126.972 111.394 126.942 111.516 126.913 111.623L126.898 111.866H126.883C126.794 112.308 126.794 112.659 126.824 112.933C127.446 112.842 127.846 112.643 128.275 112.445C128.468 112.354 128.66 112.263 128.868 112.186C128.764 110.952 129.875 109.84 129.875 109.84C128.838 110.114 127.742 111.059 127.001 111.272Z" fill="#1D1C1A"/>
<path d="M122.854 105.711C121.418 106.031 120.099 106.656 119.211 107.174C120.144 107.463 121.136 107.798 122.114 108.225L122.854 105.711Z" fill="#1D1C1A"/>
<path d="M118.292 106.899L118.455 105.711C117.626 105.863 116.752 106.168 116.219 106.397C116.752 106.503 117.463 106.671 118.292 106.899Z" fill="#1D1C1A"/>
<path d="M126.75 111.318C126.631 111.318 126.513 111.303 126.424 111.227C124.854 110.084 123.387 109.2 122.01 108.514L122.025 108.423C119.596 107.387 117.033 106.793 115.834 106.549C115.819 106.564 115.804 106.564 115.789 106.564C115.108 106.488 114.471 106.458 113.879 106.488C114.042 107.067 114.367 108.469 114.071 110.023L115.552 110.19L119.092 109.429L118.055 110.48L126.631 111.47C126.72 111.44 126.735 111.379 126.75 111.318Z" fill="#1D1C1A"/>
<path d="M117.818 110.8L116.826 111.805L116.767 111.79C116.722 111.775 115.641 111.592 115.241 110.495L114.042 110.358C113.908 110.937 113.686 111.531 113.331 112.11C113.597 112.202 113.834 112.308 114.056 112.43C114.649 112.72 115.197 112.979 116.323 112.979C117.448 112.979 118.011 112.72 118.589 112.43C119.196 112.141 119.848 111.851 121.092 111.851C121.107 111.851 121.151 111.851 121.166 111.851C122.425 111.851 123.047 112.156 123.669 112.43C124.261 112.72 124.809 112.979 125.935 112.979C126.157 112.979 126.35 112.963 126.527 112.948C126.498 112.659 126.513 112.278 126.587 111.836L117.818 110.8Z" fill="#1D1C1A"/>
<path d="M109.643 107.098C109.82 107.021 110.013 106.945 110.205 106.854C111.42 103.913 114.279 101.826 117.611 101.826C122.04 101.826 125.639 105.498 125.639 109.992C125.639 110.069 125.639 110.16 125.624 110.236C125.772 110.343 125.92 110.434 126.054 110.526C126.068 110.343 126.068 110.175 126.068 109.992C126.068 105.239 122.262 101.369 117.596 101.369C113.938 101.384 110.813 103.776 109.643 107.098Z" fill="#1D1C1A"/>
<path d="M131.682 111.912C131.874 111.943 132.052 111.973 132.23 112.019C132.319 111.348 132.363 110.678 132.363 109.992V109.977C132.378 109.977 132.378 109.977 132.378 109.992C132.378 109.779 132.378 109.581 132.363 109.383C132.348 109.383 132.348 109.383 132.333 109.368C132.304 108.423 132.171 107.494 131.963 106.61C131.978 106.61 131.978 106.61 131.993 106.625C131.948 106.397 131.889 106.199 131.845 106.001C131.83 106.001 131.83 106.001 131.815 106.001C130.112 99.6775 124.38 95 117.611 95C109.48 95 102.874 101.734 102.874 110.008C102.874 110.648 102.918 111.287 102.992 111.927C103.2 111.958 103.392 112.004 103.57 112.049C103.481 111.379 103.422 110.693 103.422 110.008C103.422 102.039 109.791 95.5637 117.611 95.5637C125.431 95.5637 131.8 102.039 131.8 110.008C131.8 110.648 131.756 111.287 131.682 111.912Z" fill="#1D1C1A"/>
<path d="M133 112.796C132.97 112.781 132.319 112.552 131.697 112.491C131.652 112.476 131.608 112.476 131.563 112.476C131.312 112.445 131.03 112.415 130.704 112.415C129.445 112.415 128.823 112.72 128.201 112.994C127.609 113.283 127.061 113.542 125.935 113.542C124.809 113.542 124.247 113.283 123.669 112.994C123.062 112.704 122.41 112.415 121.166 112.415C121.151 112.415 121.121 112.415 121.092 112.415C120.899 112.415 120.707 112.43 120.544 112.43L120.559 112.415C120.396 112.43 120.233 112.445 120.099 112.476C119.462 112.583 119.018 112.796 118.589 112.994C118.218 113.177 117.848 113.344 117.33 113.451C117.048 113.497 116.708 113.527 116.323 113.527C115.923 113.527 115.597 113.497 115.286 113.451C114.782 113.344 114.427 113.177 114.042 112.994C113.434 112.704 112.797 112.415 111.553 112.415L111.568 112.4C111.553 112.4 111.553 112.4 111.538 112.4C111.213 112.4 110.946 112.415 110.709 112.461C109.968 112.567 109.495 112.781 109.035 113.009C108.443 113.299 107.895 113.558 106.769 113.558C105.644 113.558 105.081 113.299 104.503 113.009C103.896 112.72 103.244 112.43 102 112.43V112.994C102.474 112.994 102.844 113.04 103.155 113.116C104.622 119.896 110.546 125 117.641 125C123.062 125 127.801 122.014 130.364 117.58C130.749 116.879 131.075 116.194 131.341 115.523C131.637 114.761 131.889 113.954 132.052 113.131C132.067 113.131 132.067 113.131 132.067 113.131C132.082 113.085 132.082 113.04 132.097 112.994C132.526 113.085 132.882 113.207 132.882 113.207L133 112.796ZM111.583 112.994C112.709 112.994 113.271 113.253 113.849 113.542C114.441 113.832 115.078 114.121 116.337 114.121C117.596 114.121 118.218 113.817 118.84 113.527C119.433 113.238 119.981 112.979 121.107 112.979C122.232 112.979 122.795 113.238 123.373 113.527C123.743 113.695 124.098 113.862 124.602 113.984C123.225 116.483 120.603 118.174 117.596 118.174C114.264 118.174 111.405 116.102 110.205 113.162C110.576 113.055 111.005 112.994 111.583 112.994ZM117.611 124.436C110.887 124.436 105.258 119.683 103.792 113.283C103.97 113.344 104.118 113.436 104.296 113.512C104.903 113.801 105.555 114.106 106.799 114.106C108.043 114.106 108.68 113.801 109.302 113.512C109.465 113.436 109.628 113.36 109.791 113.283C111.065 116.392 114.086 118.601 117.611 118.601C120.84 118.601 123.639 116.757 125.076 114.045C125.313 114.076 125.58 114.091 125.891 114.091C125.905 114.091 125.935 114.091 125.965 114.091C126.957 114.091 127.579 113.893 128.083 113.68L128.186 113.725L128.453 113.512C128.453 113.512 128.468 113.512 128.468 113.497C129.06 113.207 129.608 112.948 130.734 112.948C131.015 112.948 131.267 112.963 131.489 112.994C130.112 119.545 124.424 124.436 117.611 124.436Z" fill="#1D1C1A"/>
</g>
<path d="M135.567 48.2307C136.448 47.4527 137.422 46.6747 138.535 47.7731C139.695 48.963 139.509 50.4732 138.906 51.7546C138.303 53.036 137.097 52.9445 135.984 52.258C135.242 50.9309 135.567 49.5579 135.567 48.2307Z" fill="#DDA960"/>
<path d="M135.567 39.032C136.541 38.1625 137.654 37.3845 138.675 38.7117C139.649 39.9931 139.695 41.5949 138.675 42.8763C137.608 44.2035 136.541 43.3797 135.567 42.5102C135.567 41.4118 135.567 40.2219 135.567 39.032Z" fill="#DDA960"/>
<path d="M135.056 44.0204C135.706 44.9357 135.659 45.851 135.103 46.7663C134.082 47.4527 132.876 47.3154 131.763 47.1782C130.696 47.0866 130 46.4459 130 45.3933C130 44.3407 130.649 43.7 131.67 43.6085C132.83 43.517 133.989 43.3339 135.056 44.0204Z" fill="#DDA960"/>
<path d="M142.014 47.2239C140.669 47.2697 139.37 47.0409 139.324 45.4849C139.231 43.7458 140.623 43.517 142.061 43.517C143.406 43.517 144.705 43.7 144.751 45.3018C144.798 47.0409 143.452 47.3154 142.014 47.2239Z" fill="#DDA960"/>
<defs>
<clipPath id="clip0">
<rect x="13" y="12" width="140" height="122" fill="white"/>
</clipPath>
</defs>
</svg>
