<svg width="133" height="96" fill="none" xmlns="http://www.w3.org/2000/svg"><circle cx="53.001" cy="54" r="35" fill="#F4F4F4"/><path d="M95.707 81.672c-2.844-1.239-3.776-3.343-2.587-5.852.773-1.65 2.58-2.369 4.914-1.95.356.2.695.385 1.036.601.52.349.748.855.349 1.398-.37.51-.877.444-1.35.077-.18-.131-.314-.313-.58-.282-.31.113-.639.147-.968.182-.863.065-1.474.446-1.717 1.31-.258.882.043 1.605.76 2.13.23.177.428.386.686.528.752.257 1.367-.062 1.912-.534.483-.437.98-.592 1.429-.066.449.525.174 1.03-.28 1.433-1.059.911-2.274 1.17-3.604 1.025zM51.984 10c-.947-.189-1.388-.818-1.23-1.698.315-1.76-.41-2.358-2.114-2.107C47.757 6.321 47 6.007 47 5c0-.974.725-1.414 1.609-1.257 1.892.314 2.365-.566 2.145-2.233-.095-.817.315-1.478 1.23-1.509 1.009-.031 1.42.692 1.261 1.572-.283 1.792.41 2.453 2.208 2.17.915-.157 1.578.346 1.546 1.32-.032.88-.694 1.321-1.514 1.195-1.956-.314-2.46.566-2.24 2.327.095.786-.41 1.29-1.261 1.415zM6.773 92.935c.598-.527 1.258-1.055 2.013-.31.786.806.66 1.83.251 2.699-.409.868-1.226.806-1.98.34-.504-.899-.284-1.83-.284-2.73zM6.773 86.7c.66-.59 1.415-1.117 2.107-.218.66.869.692 1.955 0 2.823-.723.9-1.446.342-2.107-.248V86.7zM6.427 90.08c.44.621.41 1.242.032 1.862-.692.466-1.51.373-2.264.28C3.472 92.158 3 91.724 3 91.011c0-.714.44-1.148 1.132-1.21.786-.062 1.572-.186 2.295.279zM11.144 92.252c-.912.032-1.792-.124-1.824-1.178-.063-1.18.88-1.334 1.855-1.334.912 0 1.793.124 1.824 1.21.032 1.178-.88 1.364-1.855 1.302zM6.01 37.481c.025.785-.076 1.544-1.035 1.518-.884-.025-.985-.733-.985-1.467 0-.785.101-1.519 1.06-1.519.859.026 1.01.734.96 1.468zM1.44 35.001C.708 35.051.026 34.9 0 34.04c-.025-.962.733-1.063 1.49-1.063.733 0 1.44.076 1.465.961.025.962-.732 1.088-1.515 1.063zM5.732 29.181c.101.177.202.329.303.506 0 .33-.025.658-.025 1.012 0 .734-.278 1.266-1.06 1.24-.808-.025-.96-.632-.96-1.34-.025-1.494.43-1.873 1.742-1.418zM8.535 32.952c.732-.026 1.44.1 1.464.961.026.962-.707 1.063-1.49 1.063-.732 0-1.439-.101-1.464-.987-.025-.936.707-1.063 1.49-1.037zM93 23.57c.025.785-.076 1.544-1.035 1.519-.884-.026-.985-.734-.985-1.468 0-.784.101-1.518 1.06-1.518.86.025 1.01.733.96 1.467zM88.43 21.09c-.732.051-1.414-.1-1.44-.961-.024-.962.733-1.063 1.49-1.063.733 0 1.44.076 1.465.962.025.961-.732 1.088-1.515 1.062zM92.722 15.27c.102.177.203.33.303.506 0 .33-.025.658-.025 1.013 0 .733-.278 1.265-1.06 1.24-.808-.026-.96-.633-.96-1.342-.025-1.493.43-1.872 1.742-1.417zM95.525 19.04c.732-.025 1.44.102 1.465.962.025.962-.707 1.063-1.49 1.063-.732 0-1.44-.101-1.465-.987-.025-.936.707-1.063 1.49-1.037z" fill="#DDA960"/><g clip-path="url(#clip0)"><path d="M92.373 59.596c-.23-.442-.412-.425-.792-.229a531.2 531.2 0 0 1-6.851 3.391 2.992 2.992 0 0 0-1.42 1.393c-2.179 4.374-4.391 8.716-6.57 13.074-.297.573-.627 1.098-1.37.819-.727-.279-.71-.852-.512-1.49.627-2.082 1.205-4.195 1.816-6.276.198-.688.313-1.343-.363-1.851-.677-.508-1.272-.213-1.882.18-3.682 2.343-7.363 4.653-11.044 6.98-.512.31-1.008.556-1.618.36-.66-.197-1.09-.639-1.222-1.31-.148-.77.182-1.36.809-1.836 2.69-1.982 5.365-3.98 8.056-5.98.842-.622 1.057-1.18.693-1.85-.412-.77-1.04-.82-1.832-.623a3205.139 3205.139 0 0 1-13.405 3.063c-1.519.344-2.79-.868-2.46-2.359.215-1.032.974-1.425 1.932-1.638l14.577-3.097c.924-.196 1.386-.671 1.32-1.392-.066-.803-.577-1.147-1.353-1.278-3.484-.623-6.967-1.262-10.45-1.9-1.47-.28-2.245-1.262-2.047-2.556.181-1.196 1.205-1.885 2.625-1.77 4.028.328 8.056.656 12.084 1 .677.065 1.271-.033 1.618-.688.346-.623.099-1.131-.28-1.655a2200.86 2200.86 0 0 1-4.656-6.455c-.727-1.016-.71-1.95.033-2.654.776-.721 1.733-.656 2.724.196 2.591 2.245 5.183 4.473 7.759 6.75.66.59 1.27.672 2.096.344 3.682-1.49 7.38-2.932 11.06-4.407 1.75-.704 1.734-.688 1.04-2.457-.23-.59-.478-.607-1.023-.394-3.681 1.491-7.379 2.95-11.06 4.407-.231.082-.578.28-.677.18-.743-.671-1.816-1.064-2.03-2.227-1.503-8.044-3.005-16.072-4.491-24.116-.314-1.672-.726-1.95-2.41-1.639-3.995.754-7.99 1.491-11.985 2.212-10.351 1.9-20.718 3.817-31.086 5.701-.627.115-1.04.394-1.386.901-2.675 3.867-5.35 7.733-8.04 11.583-.38.541-.495 1.065-.38 1.688.908 4.816 1.816 9.65 2.708 14.466.33 1.737.643 3.473.99 5.341-2.03-.803-3.929-1.556-5.827-2.31-1.915-.754-1.882-.737-2.642 1.147-.198.491-.066.639.38.803 4.127 1.622 8.254 3.26 12.365 4.898.693.279 1.254.197 1.816-.311.94-.852 1.898-1.655 2.856-2.49 1.733-1.508 3.466-3.031 5.216-4.522.71-.623 1.486-.705 2.196-.279.71.426.99 1.082.875 1.885-.05.425-.314.737-.561 1.08-1.569 2.18-3.137 4.342-4.689 6.521-.61.869-.363 1.835.529 2.147.396.147.825.049 1.221.016 3.979-.328 7.94-.672 11.92-.983 1.303-.098 2.343.704 2.475 1.884.133 1.229-.594 2.195-1.898 2.441-1.486.279-2.971.54-4.457.82-2.08.376-4.16.77-6.24 1.13-.743.13-1.239.508-1.255 1.278-.033.77.43 1.196 1.172 1.36.264.065.545.114.809.163 4.705 1 9.393 1.983 14.098 2.998 1.354.295 2.03 1.295 1.767 2.49-.248 1.131-1.305 1.72-2.625 1.41a3942.137 3942.137 0 0 1-13.405-3.064c-.842-.197-1.502.115-1.733.82-.248.753.131 1.244.71 1.67 2.69 1.983 5.365 3.998 8.055 5.98.463.344.826.72.892 1.31.082.722-.182 1.295-.809 1.672-.693.426-1.354.295-2.014-.115-3.731-2.359-7.462-4.718-11.176-7.077-.628-.41-1.255-.623-1.882-.066-.66.574-.512 1.229-.149 1.917.826 1.59 1.651 3.195 2.427 4.817.512 1.032-.017 2.13-1.09 2.375-.776.18-1.485-.23-1.948-1.147-2.063-4.096-4.127-8.175-6.157-12.27-.314-.64-.743-1.098-1.404-1.41-1.898-.9-3.78-1.867-5.678-2.801-.562-.279-1.238-.852-1.668-.705-.429.164-.594 1.032-.924 1.573-.297.475-.215.705.313.967 2.08 1 4.111 2.048 6.191 3.047.495.246.825.54 1.073 1.049 2.014 4.03 4.028 8.044 6.075 12.041 1.106 2.146 3.566 2.916 5.696 1.884 2.113-1.032 2.938-3.473 1.948-5.636-.132-.278-.38-.524-.33-.933 2.46 1.556 4.886 3.08 7.313 4.62.99.622 2.047.933 3.219.704 1.882-.377 3.103-1.49 3.516-3.358.396-1.803-.214-3.277-1.684-4.407-1.056-.82-2.13-1.59-3.384-2.524.413.066.578.082.727.115 2.36.54 4.704 1.098 7.065 1.59a4.59 4.59 0 0 0 5.2-2.802c.826-2.048.066-4.39-1.816-5.603-.247-.164-.495-.295-.924-.54 1.618-.296 3.054-.542 4.507-.82.313-.066.363.147.478.328 1.552 2.473 4.029 3.03 6.505 1.474 2.757-1.737 5.514-3.473 8.452-5.34-.38 1.31-.677 2.407-1.007 3.505-.248.836-.314 1.671.017 2.49.577 1.426 1.65 2.245 3.186 2.327 1.568.082 2.757-.655 3.467-2.048a3124.84 3124.84 0 0 0 6.47-12.86c.215-.443.513-.738.958-.951 1.7-.82 3.401-1.671 5.085-2.507 1.865-.934 1.849-.917.891-2.769zM56.104 22.947c4.21-.753 8.403-1.523 12.794-2.326-2.13 3.063-4.143 5.98-6.157 8.896-.132.196-.297.278-.529.328-4.127.753-8.254 1.507-12.38 2.277-.1.016-.216 0-.414 0 .512-.754.99-1.442 1.47-2.13 1.469-2.13 2.955-4.26 4.424-6.39.198-.31.38-.573.792-.655zm-9.261 1.704c1.684-.18 3.335-.59 5.167-.934-.363.54-.644.95-.94 1.376-1.668 2.409-3.336 4.8-4.986 7.209-.281.426-.611.623-1.106.72-1.948.328-3.88.705-6.026 1.099 1.865-2.687 3.665-5.227 5.382-7.815.627-.967 1.32-1.524 2.509-1.655zm-21.66 8.077c.958-1.393 1.932-2.785 2.89-4.178.181-.262.347-.508.726-.573 4.127-.738 8.255-1.508 12.382-2.261.082-.017.165 0 .38 0-2.064 2.982-4.078 5.881-6.076 8.765a.882.882 0 0 1-.594.393c-4.177.77-8.353 1.524-12.546 2.294-.05 0-.1-.033-.215-.066 1.04-1.474 2.047-2.932 3.054-4.374zm8.684 22.166c-2.278 2.016-4.589 3.998-6.884 5.98-.792.688-2.36.164-2.559-.884-1.122-6.03-2.261-12.042-3.367-18.071-.116-.59-.561-1.343-.165-1.753.33-.36 1.122-.279 1.717-.393 3.945-.721 7.874-1.442 11.803-2.18.479-.098.595-.016.677.46.858 4.718 1.75 9.42 2.625 14.138.099.508.148 1.032.528 1.54-1.75-.377-3.136.082-4.375 1.163zm4.028-16.3c-.28-1.574-.264-1.574 1.288-1.869 1.948-.36 3.88-.704 5.894-1.065.264-.081.346.082.412.377.81 4.391 1.635 8.782 2.46 13.156.083.459-.05.606-.495.688-2.212.393-4.424.787-6.637 1.229-.66.131-.643-.262-.726-.655-.726-3.949-1.47-7.897-2.196-11.862zm11.82 26.327c-2.08-.852-4.16-.213-6.24-.115-1.997.099-3.995.312-6.14.492 1.089-1.524 2.112-2.933 3.12-4.342 1.799-2.523 1.403-4.964-1.206-6.88 1.519-.28 2.955-.558 4.391-.82 1.998-.377 3.995-.72 5.993-1.114 1.073-.213 1.403-.754 1.205-1.819-.891-4.767-1.766-9.535-2.674-14.302-.132-.705 0-.95.743-1.081a824.913 824.913 0 0 0 12.711-2.327c.578-.114.76.082.825.606.083.656.265 1.278.347 1.934.05.442.248.442.595.393 2.113-.262 2.228-.279 1.7-2.327-.38-1.441-.066-2.506.809-3.67 1.618-2.13 3.07-4.39 4.59-6.585.164-.246.346-.476.61-.836 1.189 6.39 2.36 12.615 3.566 19.086-.925-.802-1.635-1.425-2.36-2.047-1.965-1.704-4.425-1.786-6.192-.197-1.782 1.573-1.964 4.03-.462 6.127 1.024 1.426 2.047 2.835 3.07 4.26.017.016 0 .049.017.18-1.238-.098-2.443-.18-3.665-.262-2.03-.164-4.06-.344-6.075-.492-2.608-.196-4.87 1.59-5.216 4.096-.347 2.573 1.337 4.915 3.912 5.423 1.37.279 2.757.492 4.16.852-1.502.328-3.004.655-4.523.983-1.123.246-2.245.492-3.384.705-2.328.393-3.731 1.72-4.227 4.079zm8.387 7.962c-.116.36-.33.443-.644.508-3.483.64-6.967 1.278-10.45 1.917-.924.164-1.75-.311-2.674-.54 1.353-.246 2.707-.46 4.044-.722 2.344-.475 3.649-1.966 4.061-4.358 2.147.983 4.127-.081 6.175-.442 1.403-.246 2.773-.622 4.226-.819-.974.737-1.948 1.474-2.939 2.195-.842.574-1.486 1.295-1.8 2.261z" fill="#1D1C1A"/></g><defs><clipPath id="clip0"><path fill="#fff" d="M13 17h80v79H13z"/></clipPath></defs></svg>