<svg width="115" height="101" fill="none" xmlns="http://www.w3.org/2000/svg"><circle cx="60" cy="50" r="35" fill="#F4F4F4"/><path d="M94.994 7.62c-2.942.983-5.044.044-5.84-2.616-.531-1.744.331-3.487 2.344-4.74.399-.089.775-.178 1.173-.245.62-.09 1.128.134 1.194.805.067.625-.353.916-.95.96-.222.023-.443-.022-.62.18-.155.29-.376.536-.597.782-.598.626-.797 1.319-.399 2.124.398.827 1.106 1.162 1.991 1.073.288-.023.575 0 .863-.067.73-.313.973-.962 1.062-1.677.066-.648.332-1.095 1.018-1.006.685.09.818.648.752 1.252-.177 1.386-.907 2.392-1.991 3.174zM4.984 60c-.947-.189-1.388-.818-1.23-1.698.315-1.76-.41-2.358-2.114-2.107-.883.126-1.64-.188-1.64-1.194 0-.975.725-1.415 1.609-1.258 1.892.314 2.365-.566 2.145-2.233-.095-.817.315-1.478 1.23-1.509 1.009-.032 1.42.692 1.261 1.572-.284 1.792.41 2.453 2.208 2.17.915-.157 1.578.346 1.546 1.32-.032.88-.694 1.321-1.514 1.195-1.956-.314-2.46.566-2.24 2.327.095.786-.41 1.29-1.261 1.415zM108.773 60.935c.598-.527 1.258-1.055 2.013-.31.786.806.66 1.83.251 2.699-.409.868-1.226.806-1.981.34-.503-.899-.283-1.83-.283-2.73zM108.773 54.7c.661-.59 1.415-1.117 2.107-.218.66.869.692 1.955 0 2.823-.723.9-1.446.342-2.107-.248V54.7zM108.427 58.08c.441.621.409 1.242.032 1.862-.692.466-1.509.373-2.264.28-.723-.063-1.195-.497-1.195-1.21 0-.714.44-1.148 1.132-1.21.786-.062 1.572-.186 2.295.279zM113.144 60.252c-.912.031-1.792-.124-1.824-1.178-.063-1.18.881-1.334 1.855-1.334.912 0 1.793.124 1.824 1.21.032 1.178-.88 1.364-1.855 1.302zM52.01 99.481c.025.785-.076 1.544-1.035 1.518-.884-.025-.985-.733-.985-1.467 0-.785.101-1.519 1.06-1.519.859.026 1.01.734.96 1.468zM47.44 97.001c-.732.05-1.414-.101-1.44-.961-.025-.962.733-1.063 1.49-1.063.733 0 1.44.076 1.465.961.025.962-.732 1.088-1.515 1.063zM51.732 91.181c.101.177.202.329.303.506 0 .33-.025.658-.025 1.012 0 .734-.278 1.266-1.06 1.24-.809-.025-.96-.632-.96-1.34-.025-1.494.43-1.873 1.742-1.418zM54.535 94.951c.732-.025 1.44.102 1.464.962.026.962-.707 1.063-1.49 1.063-.732 0-1.439-.101-1.464-.987-.025-.936.707-1.063 1.49-1.038zM23.01 21.481c.025.784-.076 1.544-1.035 1.518-.884-.025-.985-.733-.985-1.467 0-.785.101-1.519 1.06-1.519.859.026 1.01.734.96 1.468zM18.44 19.001c-.732.05-1.414-.101-1.44-.961-.025-.962.733-1.063 1.49-1.063.733 0 1.44.076 1.465.961.025.962-.732 1.088-1.515 1.063zM22.732 13.181c.101.177.202.329.303.506 0 .33-.025.658-.025 1.012 0 .734-.278 1.266-1.06 1.24-.808-.025-.96-.632-.96-1.34-.025-1.494.43-1.873 1.742-1.418zM25.535 16.951c.732-.025 1.44.102 1.464.962.026.962-.707 1.063-1.49 1.063-.732 0-1.439-.101-1.464-.987-.025-.936.707-1.063 1.49-1.038z" fill="#DDA960"/><g clip-path="url(#clip0)"><path d="M102.474 43.496c-1.586.484-3.172.912-4.776 1.377-9.2 2.587-18.402 5.192-27.621 7.779-1.623.447-3.006-.298-3.374-1.805-.314-1.229.313-2.364 1.677-3.052 9.312-4.709 18.642-9.398 27.954-14.107 1.954-.986 1.936-.967.995-2.94-.276-.577-.46-.67-1.05-.372-2.97 1.544-5.975 3.015-8.944 4.54-.497.261-.866.242-1.327-.037-2.6-1.526-5.218-2.996-7.8-4.54-.885-.522-1.585-.522-2.452.037-5.882 3.852-11.8 7.667-17.72 11.5-1.106.708-2.065.615-2.692-.26-.608-.856-.369-1.842.645-2.642l22.238-17.475c.387-.317.737-.41 1.254-.298 7.21 1.73 14.437 3.443 21.665 5.155 2.102.502 2.065.484 2.582-1.582.166-.689-.019-.875-.646-1.023a9086.98 9086.98 0 0 1-23.989-5.677c-.663-.148-1.198-.055-1.715.354-7.8 6.141-15.599 12.264-23.398 18.387-.83.651-1.42 1.451-1.678 2.475-.553 2.084.11 3.76 1.733 5.21a2103.279 2103.279 0 0 1-7.56 3.444c-9.127 4.15-18.254 8.318-27.382 12.468-2.876 1.322-3.448 4.448-1.18 6.663 1.733 1.712 3.835 2.159 6.122 1.414 8.26-2.661 16.503-5.36 24.763-8.02 2.195-.708 3.928-1.974 5.182-3.928a10.922 10.922 0 0 1 4.683-4.056c1.475-.69 3.08-1.024 4.61-1.564.405-.149.516.038.608.41.996 3.591 3.688 5.117 7.247 4.112 10.215-2.884 20.412-5.75 30.627-8.635 2.286-.632 2.268-.632 1.585-2.884-.184-.484-.405-.558-.866-.428zm-25.76-10.199c.425-.279.665.056 1.144.336-1.512.688-2.895 1.32-4.26 1.935-.036-.056-.055-.13-.092-.186 1.07-.689 2.158-1.377 3.209-2.084zM64.6 47.218c-.22.373-.626.392-.958.485-2.066.688-4.186 1.172-6.177 2.065-2.36 1.043-4.315 2.643-5.735 4.802-1.088 1.656-2.526 2.661-4.407 3.257-8.057 2.55-16.097 5.192-24.136 7.797-1.18.372-2.231.298-3.172-.558-.885-.819-.793-1.452.295-1.954 4.74-2.159 9.478-4.318 14.235-6.476 15.175-6.923 30.35-13.828 45.507-20.77.72-.334 1.272-.372 1.918.112.442.335.94.559 1.475.875C78.06 39.57 72.75 42.268 67.44 44.93c-1.125.558-2.157 1.19-2.84 2.289z" fill="#1D1C1A"/><path d="M104.834 72.416c-.369-.763-1.032-.856-1.788-.856H16.844c-.811 0-1.475.204-1.77 1.023-.277.8.11 1.34.7 1.843 2.766 2.307 5.532 4.634 8.28 6.96.497.428 1.014.614 1.678.614 5.162-.019 10.325-.019 15.488-.019h52.92c.553 0 1.088-.018 1.548-.409 2.895-2.457 5.809-4.894 8.704-7.332.59-.484.774-1.098.442-1.824zm-6.048 2.661c-1.364 1.173-2.747 2.29-4.093 3.462-.406.353-.812.465-1.328.465a39900.6 39900.6 0 0 0-66.73 0c-.572 0-.977-.168-1.383-.54-1.475-1.284-3.005-2.53-4.665-3.927h78.605c.055.354-.258.41-.406.54z" fill="#DDA960"/></g><defs><clipPath id="clip0"><path fill="#fff" d="M15 18h90v64H15z"/></clipPath></defs></svg>