<svg width="114" height="102" fill="none" xmlns="http://www.w3.org/2000/svg"><circle cx="59" cy="52" r="35" fill="#F4F4F4"/><path d="M111.498 59.937c-2.942.984-5.044.045-5.84-2.615-.531-1.744.332-3.488 2.345-4.74.398-.089.774-.178 1.172-.245.62-.09 1.129.134 1.195.804.066.626-.354.917-.951.962-.222.022-.443-.023-.62.179-.155.29-.376.536-.597.782-.597.626-.797 1.319-.398 2.124.398.827 1.106 1.162 1.991 1.073.287-.023.575 0 .862-.068.731-.312.974-.96 1.062-1.676.067-.648.332-1.095 1.018-1.006.686.09.819.648.752 1.252-.177 1.386-.907 2.392-1.991 3.174zM21.32 10.608c-.945-.189-1.387-.818-1.23-1.698.316-1.761-.41-2.359-2.113-2.107-.883.126-1.64-.189-1.64-1.195 0-.975.726-1.415 1.609-1.258 1.892.315 2.365-.566 2.145-2.232-.095-.818.315-1.478 1.23-1.51 1.01-.03 1.42.692 1.261 1.573-.283 1.792.41 2.452 2.209 2.17.914-.158 1.577.345 1.545 1.32-.031.88-.694 1.32-1.514 1.195-1.956-.315-2.46.566-2.24 2.327.095.786-.41 1.289-1.261 1.415zM68.604 98.765c.597-.527 1.257-1.055 2.012-.31.786.806.66 1.83.252 2.699-.41.868-1.227.806-1.981.341-.504-.9-.283-1.83-.283-2.73zM68.604 92.53c.66-.59 1.415-1.117 2.106-.218.66.87.692 1.955 0 2.823-.723.9-1.446.342-2.106-.248V92.53zM68.258 95.911c.44.62.409 1.24.031 1.861-.692.466-1.51.373-2.264.28-.723-.063-1.195-.497-1.195-1.21 0-.714.44-1.148 1.132-1.21.786-.062 1.572-.186 2.296.279zM72.974 98.082c-.912.032-1.792-.124-1.823-1.178-.063-1.18.88-1.334 1.855-1.334.912 0 1.792.124 1.823 1.21.032 1.178-.88 1.365-1.855 1.302zM2.349 74.84c-.784.025-1.544-.076-1.518-1.035.025-.884.734-.985 1.467-.985.785 0 1.519.101 1.519 1.06-.026.859-.734 1.01-1.468.96zM4.829 70.27c-.05-.732.101-1.414.961-1.44.962-.025 1.063.733 1.063 1.49 0 .733-.076 1.44-.961 1.465-.962.025-1.088-.732-1.063-1.515zM10.649 74.562c-.177.101-.329.202-.506.303-.329 0-.658-.025-1.012-.025-.734 0-1.266-.278-1.24-1.06.025-.808.632-.96 1.34-.96 1.494-.025 1.873.43 1.418 1.742zM6.879 77.365c.025.732-.102 1.44-.962 1.464-.962.026-1.063-.706-1.063-1.49 0-.731.101-1.439.987-1.464.936-.025 1.063.707 1.038 1.49zM81.89 14.311c.025.785-.076 1.544-1.035 1.518-.884-.025-.985-.733-.985-1.467 0-.785.1-1.518 1.06-1.518.859.025 1.01.733.96 1.467zM77.32 11.831c-.732.05-1.414-.1-1.44-.961-.025-.962.733-1.063 1.49-1.063.732 0 1.44.076 1.465.961.025.962-.733 1.089-1.515 1.063zM81.612 6.011c.101.177.202.33.303.506 0 .33-.025.658-.025 1.012 0 .734-.278 1.266-1.06 1.24-.809-.025-.96-.632-.96-1.34-.025-1.494.43-1.873 1.742-1.418zM84.415 9.782c.732-.026 1.439.1 1.464.961.025.962-.707 1.063-1.49 1.063-.732 0-1.439-.101-1.464-.987-.025-.936.707-1.063 1.49-1.037z" fill="#DDA960"/><g clip-path="url(#clip0)"><path d="M92.983 64.267c0-.834-.1-1.667-.233-2.484-.917-5.016-3.567-8.866-7.833-11.666-4.017-2.65-6.117-6.434-6.55-11.234.35.034.516.284.733.434 1.617 1.15 3.4 1.866 5.383 2 1.334.083 1.834-.4 1.834-1.734v-12.5c0-1.366-.517-1.883-1.9-1.733-3.367.35-6.067 1.867-7.867 4.783-.267.417-.517.534-.967.534-3.416-.017-6.833-.017-10.25 0-1.25 0-1.683.45-1.683 1.716v4.75c0 1.034.5 1.534 1.533 1.534 1.534.016 3.05.016 4.584 0 .416 0 .566.1.566.55-.016 8.966-.016 17.95 0 26.916 0 .534-.2.567-.633.55a900.705 900.705 0 0 0-9.5 0c-.517 0-.65-.166-.7-.65-.183-1.983-.75-3.85-1.633-5.633-1.417-2.883-3.484-5.167-6.334-7.067H59.2c1.367 0 1.783-.416 1.783-1.783V21.8c0-1.367-.416-1.8-1.766-1.8H14.8c-1.4 0-1.8.417-1.8 1.833v35c0 1.434.4 1.834 1.817 1.834h7.433c.033.1.067.133.05.15-.1.166-.183.333-.283.5-1.2 2.1-1.967 4.316-2.234 6.733-.25 2.3-.083 4.6-.116 6.9-.034 1.267.433 1.717 1.683 1.717 2.367 0 4.717.016 7.083 0 .434 0 .65.033.75.583.934 5.1 5.317 8.75 10.45 8.767 5.134 0 9.55-3.634 10.484-8.717.1-.567.333-.633.8-.633 6.25.016 12.5.016 18.75 0 .516 0 .75.066.85.666.916 5 5.366 8.667 10.433 8.667 5.133 0 9.55-3.65 10.517-8.7.05-.283-.034-.567.433-.667.8-.166 1.1-.733 1.083-1.533 0-2.95.034-5.9 0-8.833zM15.65 23.5c0-.7.167-.85.85-.85 13.667.017 27.333.017 41 0 .7 0 .85.167.85.85-.033 8.783-.033 17.55 0 26.333 0 .7-.167.85-.85.85-6.833-.033-13.667-.016-20.5-.016s-13.667-.017-20.5.016c-.7 0-.85-.166-.85-.85.033-8.783.033-17.55 0-26.333zm.6 32.517c-.467 0-.583-.134-.6-.6-.017-2.084-.033-2.084 2.017-2.084H27.8c-1.183.784-2.117 1.5-2.917 2.334a1.034 1.034 0 0 1-.8.333c-2.616 0-5.216-.017-7.833.017zM41.5 81.133c-4.233.984-8.467-1.6-9.583-5.8-.167-.6-.017-.75.55-.666h.166c1.15-.134 1.934.05 2.534 1.35.9 1.933 2.75 2.783 4.9 2.633 2.15-.167 3.683-1.317 4.5-3.3.216-.517.433-.733 1-.683.633.05 1.266.016 1.916.016-.25 2.884-2.9 5.734-5.983 6.45zm-4.017-6.416h4.35c-.633 1.566-3.433 1.8-4.35 0zM51 72.017C47.217 71.983 43.45 72 39.667 72H28.333c-.333 0-.666.117-.683-.5-.267-6.083 3.633-11.233 9.583-12.583 6.55-1.484 13.4 3.283 14.284 9.916.116.834.116 1.65.166 2.484.017.55-.133.7-.683.7zM56.533 72c-.7-.033-1.55.233-2.033-.083-.483-.317-.15-1.234-.167-1.884-.266-8.4-8.116-15.05-16.45-13.916C30.367 57.133 25 63.283 25 70.867c0 1.116 0 1.116-1.133 1.116-1.534 0-1.517 0-1.55-1.55-.034-2.5-.067-5 .866-7.383 2.284-5.767 6.534-9.083 12.684-9.667a40.9 40.9 0 0 1 8.566.084c6.167.716 11.65 6.233 12.4 12.383.134 1.117.15 2.217.15 3.317 0 .783-.016 1.55.017 2.333.017.417-.1.517-.467.5zm11.817 0h-3.417c-1.55 0-3.116-.017-4.666.017-.45 0-.6-.1-.617-.584-.033-2.1-.05-2.1 2-2.1 2.667 0 5.333.017 8-.016.517 0 .7.1.7.666-.017 2.017.017 2.017-2 2.017zm-.083-36c-1.95 0-1.934 0-1.934-1.983 0-.534.1-.717.667-.684a32.1 32.1 0 0 0 2.833 0c.384-.016.5.084.517.5C70.433 36 70.45 36 68.267 36zm10.883-4.983c1.117-1.5 2.65-2.384 4.483-2.85v10.366c-2.25-.666-4.15-1.733-5.083-3.983-.517-1.267-.2-2.467.6-3.533zm3.683 50.116c-4.233.984-8.483-1.6-9.583-5.8-.167-.6 0-.75.55-.666.117.016.217.016.333 0 1.117-.167 1.75.133 2.3 1.283.95 1.95 2.767 2.85 4.95 2.683 2.15-.166 3.684-1.316 4.5-3.3.217-.533.45-.733 1-.683.634.05 1.267.017 1.917.017-.233 2.916-2.883 5.75-5.967 6.466zm-4.05-6.466h4.4c-.583 1.55-3.366 1.933-4.4 0zm10.884-2.65c-5.334-.017-10.667-.017-16 0-.55 0-.684-.134-.684-.684.017-12.433.017-24.883 0-37.316 0-.534.117-.7.667-.7 2.017.016 2.017-.017 2 2.016-.033 2.8-.017 5.6.95 8.3 1.25 3.45 3.333 6.234 6.317 8.367.15.1.366.15.416.417-4.4 1.583-7 4.583-7.633 9.216-.15 1.05-.117 1.05.917 1.05.533 0 1.166.167 1.55-.05.416-.25.216-.95.3-1.466.65-3.467 3.716-6.217 7.216-6.467.434-.033.717.083 1 .417 2.35 2.7 3.567 5.833 3.634 9.416.05 2.284-.017 4.55.016 6.834.017.516-.133.65-.666.65z" fill="#1D1C1A"/><path d="M77.05 65.333c1.283 0 1.283 0 1.283 1.3 0 1.367 0 1.367-1.383 1.367-1.283 0-1.283 0-1.283-1.3 0-1.367 0-1.367 1.383-1.367z" fill="#1D1C1A"/><path d="M45.955 29.335c0-.106-.016-.228-.016-.335-.03-.487-.35-.853-.839-.914a11.001 11.001 0 0 0-3.738.168c-2.09.441-3.922 1.416-5.432 2.91-2.015 1.98-3.129 4.432-3.312 7.28-.015.29-.015.58-.015.854v.076l-3.51-.168c-.472-.03-.839.168-1.006.564-.168.38-.092.777.228 1.112l4.807 4.798c.214.213.443.32.702.32.122 0 .244-.03.381-.076.382-.152.595-.518.58-.96-.015-.518-.046-1.036-.06-1.538v-.046c-.031-.655-.062-1.31-.092-1.98.198-.015.412-.03.61-.03.55-.031 1.114-.062 1.663-.153 2.289-.396 4.303-1.462 5.951-3.153 1.877-1.92 2.915-4.235 3.113-6.886.061-.64.015-1.249-.015-1.843zm-4.608 7.525c-1.862 1.828-4.334 2.758-6.821 2.605-.153-2.529.808-5.012 2.67-6.87 1.862-1.858 4.364-2.818 6.897-2.666.122 2.636-.854 5.088-2.747 6.931zm-8.576 5.667l-.656-.655-.656-.655h.152l1.099.046.046.929c0 .122 0 .228.015.335z" fill="#DDA960"/><path d="M41.636 30.904c-.381 0-.747.153-1.037.427-.29.274-.443.64-.443 1.036s.153.761.428 1.036a1.49 1.49 0 0 0 1.052.426c.81 0 1.465-.655 1.465-1.462 0-.808-.656-1.463-1.465-1.463zm.046 1.463c0 .015 0 .03-.015.03 0 .015-.015.015-.03.015-.016 0-.031 0-.031-.015 0 0-.015-.015-.015-.03 0 0 0-.016.015-.03.015-.016.03-.016.03-.016.016 0 .046.03.046.046z" fill="#DDA960"/></g><defs><clipPath id="clip0"><path fill="#fff" d="M13 4h80v80H13z"/></clipPath></defs></svg>