<svg width="151" height="101" fill="none" xmlns="http://www.w3.org/2000/svg"><circle cx="62.001" cy="54" r="35" fill="#F4F4F4"/><path d="M103.708 85.672c-2.845-1.239-3.777-3.343-2.588-5.852.773-1.65 2.581-2.369 4.914-1.95.356.2.695.385 1.036.601.52.349.748.855.349 1.398-.37.51-.877.444-1.351.077-.179-.131-.313-.313-.579-.282-.31.113-.639.147-.968.182-.863.065-1.474.446-1.717 1.31-.258.882.043 1.605.76 2.13.229.177.428.386.686.528.752.257 1.367-.062 1.911-.534.484-.437.98-.592 1.43-.066.449.525.174 1.03-.279 1.433-1.06.911-2.275 1.17-3.604 1.025zM60.984 10c-.947-.189-1.388-.818-1.23-1.698.315-1.76-.41-2.358-2.114-2.107C56.757 6.321 56 6.007 56 5c0-.974.725-1.414 1.609-1.257 1.892.314 2.365-.566 2.145-2.233-.095-.817.315-1.478 1.23-1.509 1.009-.031 1.42.692 1.261 1.572-.283 1.792.41 2.453 2.208 2.17.915-.157 1.578.346 1.546 1.32-.032.88-.694 1.321-1.514 1.195-1.956-.314-2.46.566-2.24 2.327.095.786-.41 1.29-1.261 1.415zM41.773 97.935c.598-.527 1.258-1.055 2.013-.31.786.806.66 1.83.251 2.699-.408.868-1.226.806-1.98.341-.504-.9-.284-1.83-.284-2.73zM41.773 91.7c.66-.59 1.415-1.117 2.107-.218.66.869.692 1.955 0 2.823-.723.9-1.446.342-2.107-.248V91.7zM41.427 95.08c.44.621.41 1.242.032 1.862-.692.466-1.51.373-2.264.28-.723-.063-1.195-.497-1.195-1.21 0-.714.44-1.148 1.132-1.21.786-.062 1.572-.186 2.295.279zM46.144 97.252c-.912.032-1.792-.124-1.824-1.178-.063-1.18.88-1.334 1.855-1.334.912 0 1.793.124 1.824 1.21.032 1.178-.88 1.364-1.855 1.302zM12.01 31.481c.025.785-.076 1.544-1.035 1.518-.884-.025-.985-.733-.985-1.467 0-.785.101-1.519 1.06-1.519.859.026 1.01.734.96 1.468zM7.44 29.001c-.732.05-1.414-.101-1.44-.961-.025-.962.733-1.063 1.49-1.063.733 0 1.44.076 1.465.961.025.962-.732 1.088-1.515 1.063zM11.732 23.181c.101.177.202.329.303.506 0 .33-.025.658-.025 1.012 0 .734-.278 1.266-1.06 1.24-.808-.025-.96-.632-.96-1.34-.025-1.494.43-1.873 1.742-1.418zM14.535 26.951c.732-.025 1.44.102 1.464.962.026.962-.707 1.063-1.49 1.063-.732 0-1.439-.101-1.464-.987-.025-.936.707-1.063 1.49-1.038zM102 23.57c.025.785-.076 1.544-1.035 1.519-.884-.026-.985-.734-.985-1.468 0-.784.101-1.518 1.061-1.518.858.025 1.01.733.959 1.467zM97.43 21.09c-.732.051-1.414-.1-1.44-.961-.024-.962.733-1.063 1.49-1.063.733 0 1.44.076 1.465.962.025.961-.732 1.088-1.515 1.062zM101.722 15.27c.101.177.202.33.303.506 0 .33-.025.658-.025 1.013 0 .733-.278 1.265-1.06 1.24-.808-.026-.96-.633-.96-1.342-.025-1.493.429-1.872 1.742-1.417zM104.525 19.04c.732-.025 1.439.102 1.465.962.025.962-.707 1.063-1.49 1.063-.732 0-1.439-.101-1.465-.987-.025-.936.707-1.063 1.49-1.037z" fill="#DDA960"/><path d="M59.22 57.21V48.7l-7.101 8.51h7.1zm0 3.103H48.321l-.71-2.703L59.62 43.478h3.241V57.21h3.087v3.103h-3.087v4.823H59.22v-4.823zM69.613 60.928h4.106v4.209h-4.106v-4.21zM85.837 54.415c.68 0 1.287-.103 1.822-.308.555-.204 1.018-.48 1.389-.829a3.53 3.53 0 0 0 .864-1.229 3.72 3.72 0 0 0 .309-1.505v-.062c0-1.126-.412-2.068-1.235-2.826-.803-.758-1.893-1.137-3.272-1.137-.68 0-1.287.103-1.822.307a3.904 3.904 0 0 0-1.327.86c-.37.37-.659.8-.864 1.29a4.162 4.162 0 0 0-.278 1.537v.062c0 1.126.39 2.048 1.173 2.764.802.717 1.883 1.076 3.241 1.076zm-.802 11.09c-1.503 0-2.8-.235-3.89-.706a13.547 13.547 0 0 1-3.026-1.874l2.069-2.888c.823.696 1.615 1.208 2.377 1.536a6.564 6.564 0 0 0 2.562.491c.803 0 1.513-.163 2.13-.491a4.514 4.514 0 0 0 1.606-1.383 6.993 6.993 0 0 0 1.05-2.15c.246-.84.39-1.751.431-2.734-.535.655-1.224 1.198-2.068 1.628-.823.43-1.821.645-2.994.645-1.153 0-2.203-.154-3.15-.46a7.327 7.327 0 0 1-2.407-1.383 6.26 6.26 0 0 1-1.544-2.15c-.37-.84-.555-1.783-.555-2.827v-.062a7.25 7.25 0 0 1 .586-2.918 6.878 6.878 0 0 1 1.636-2.366 7.56 7.56 0 0 1 2.563-1.567c.987-.389 2.078-.583 3.272-.583 1.358 0 2.5.194 3.427.583.946.37 1.8.932 2.562 1.69.803.799 1.44 1.843 1.914 3.134.473 1.27.71 2.96.71 5.069v.061c0 1.72-.216 3.308-.648 4.762-.412 1.434-1.019 2.663-1.822 3.687a8.204 8.204 0 0 1-2.902 2.396c-1.152.574-2.449.86-3.89.86zM106.236 42.897h1.723l-7.417 13.655h-1.723l7.417-13.655zM112.775 54.841c-.886 0-1.673-.142-2.363-.428a7.086 7.086 0 0 1-1.854-1.15l1.247-1.312c.46.383.93.688 1.412.914a3.791 3.791 0 0 0 1.542.325c.689 0 1.242-.163 1.658-.487.415-.325.623-.757.623-1.298v-.03c0-.53-.224-.948-.673-1.253-.437-.304-1.006-.457-1.706-.457-.416 0-.799.044-1.149.133-.35.088-.673.197-.968.324l-1.215-.722.329-5.058h6.859v1.607h-5.12l-.18 2.419c.273-.089.547-.158.82-.207a4.976 4.976 0 0 1 1.001-.088 5.65 5.65 0 0 1 1.559.206c.492.128.914.33 1.264.605.361.265.645.604.853 1.017.208.403.312.875.312 1.416v.03c0 .53-.104 1.012-.312 1.444a3.077 3.077 0 0 1-.853 1.092c-.372.304-.821.54-1.346.707a5.716 5.716 0 0 1-1.74.251z" fill="#1D1C1A"/><path d="M12.038 47.066h-1.807l1.448 1.081c3.93 2.934 7.666 5.717 11.401 8.5.108.082.204.152.295.217.141.103.268.196.403.304h0l.006.005c.97.76 1.3 1.832.92 3.03h-.001c-.706 2.234-1.417 4.471-2.127 6.71l-.001.001c-.71 2.237-1.42 4.473-2.127 6.706l-.027.083c-.034.1-.073.215-.104.346a5.325 5.325 0 0 0-.106.712l-.132 1.349 1.087-.808c1.386-1.03 2.762-2.055 4.134-3.078 2.009-1.496 4.009-2.987 6.016-4.472.319-.235.637-.474.953-.71v-.002c.318-.237.632-.473.947-.705.577-.425 1.175-.563 1.704-.483.528.08 1.043.383 1.445.947.367.525.471 1.07.367 1.576-.105.513-.437 1.043-1.047 1.496l-.001.001-.002.002c-2.274 1.7-4.546 3.398-6.817 5.08l-.002.002a7757.924 7757.924 0 0 1-5.904 4.4l-.002.002a7427.704 7427.704 0 0 0-5.902 4.4c-.568.424-1.045.61-1.448.638-.389.028-.773-.086-1.18-.39h-.002c-.872-.645-1.194-1.648-.793-2.883l.002-.005A9546.512 9546.512 0 0 1 20 61.067h0l.002-.008c.09-.297.159-.64.053-.99-.108-.358-.361-.605-.63-.802-4.882-3.58-9.728-7.197-14.582-10.822L2.798 46.92l-.001-.002c-.668-.495-1.024-.978-1.165-1.434-.137-.444-.096-.944.194-1.538l.001-.003c.23-.48.52-.78.853-.969.339-.192.765-.29 1.301-.29 3.974.01 7.942.007 11.91.003 1.986-.002 3.97-.004 5.957-.004.306 0 .597-.007.88-.013.599-.014 1.16-.027 1.743.027.445.043.863-.028 1.199-.319.302-.262.448-.632.55-.943h0l.001-.006c2.062-6.582 4.14-13.165 6.22-19.748v-.003h0l.002-.005c.16-.522.394-.974.74-1.316.346-.34.68-.569 1.01-.679.315-.105.658-.114 1.064.044h.001c.467.181.801.438 1.037.754.237.318.398.728.468 1.246a.917.917 0 0 1 0 .165c-.002.052-.004.121-.004.177V54.9c0 .571-.131 1.006-.353 1.344-.222.339-.563.622-1.05.843h0l-.006.003c-.73.341-1.414.254-1.914-.082-.503-.338-.879-.973-.886-1.846v-.002a648.889 648.889 0 0 1-.018-7.304l.002-2.441V38.022l-1.068 1.335c-.374.467-.506.99-.586 1.311a3.31 3.31 0 0 1-.052.194 132 132 0 0 0-.805 2.534c-.181.585-.362 1.167-.544 1.736-.212.66-.549 1.135-.968 1.446-.419.31-.959.488-1.628.488H12.038zm0 .6v.6H12.616l-.578-.6z" fill="#DDA960" stroke="#fff" stroke-width="1.2"/></svg>