<svg width="122" height="83" fill="none" xmlns="http://www.w3.org/2000/svg"><path d="M28.07 38.005c.439.219.94.063 1.16-.374a.838.838 0 0 0-.377-1.155c-.439-.218-.94-.062-1.16.375a.838.838 0 0 0 .376 1.154zM41.837 45.712l4.705-4.68-8.154 1.716c.878 2.559 3.45 2.964 3.45 2.964z" fill="#DDA960"/><path d="M4.516 47.148a42 42 0 0 1-.408-5.648c0-22.03 18.002-39.94 40.144-39.94S84.396 19.47 84.396 41.5c0 1.779-.125 3.557-.345 5.273.565.094 1.067.188 1.537.312.251-1.84.377-3.713.377-5.616v-.031c.658.218 1.254.499 1.85.78 1.725.81 3.544 1.622 7.088 1.622s5.331-.842 7.088-1.622c1.662-.78 3.23-1.498 6.429-1.498 3.199 0 4.767.718 6.429 1.498 1.725.81 3.544 1.622 7.088 1.622v-1.56c-3.199 0-4.767-.718-6.429-1.498-1.725-.81-3.544-1.622-7.088-1.622s-5.332.842-7.088 1.622c-1.662.78-3.23 1.498-6.43 1.498-3.198 0-4.766-.718-6.428-1.498a19.49 19.49 0 0 0-2.54-1.03c-.095-2.62-.471-5.18-1.036-7.644 1.13.28 2.007.686 2.917 1.092 1.725.811 3.544 1.623 7.088 1.623s5.331-.843 7.088-1.623c1.662-.78 3.23-1.498 6.429-1.498 3.199 0 4.767.718 6.429 1.498 1.725.811 3.544 1.623 7.088 1.623v-1.56c-3.199 0-4.767-.718-6.429-1.498-1.725-.812-3.544-1.623-7.088-1.623s-5.332.843-7.088 1.623c-1.662.78-3.23 1.497-6.43 1.497-3.198 0-4.766-.717-6.428-1.497-1.16-.53-2.321-1.061-4.015-1.373C79.598 12.918 63.415 0 44.252 0 21.232 0 2.54 18.628 2.54 41.5c0 1.779.126 3.557.345 5.304.596.094 1.13.219 1.631.344z" fill="#DDA960"/><path d="M27.16 46.586c1.694 0 3.01.187 4.108.468 3.983-6.24 2.196-13.324 1.6-15.227-8.844.53-13.486 4.244-13.486 4.244l5.959 4.899-6.743 1.56 4.767 4.462a17.844 17.844 0 0 1 3.795-.406zm1.317-11.015c.941 0 1.694.75 1.694 1.685 0 .937-.753 1.685-1.694 1.685-.94 0-1.694-.748-1.694-1.685 0-.936.753-1.685 1.694-1.685zM16.089 39.222l.031-.312c.063-.5.126-.905.157-1.217.063-.374.157-.967.282-1.778l-.22-.032c-.062.313-.093.53-.156.656a.444.444 0 0 1-.282.25c-.126.03-.314.03-.596 0l-2.227-.313.063-.343c.094-.655.596-.967 1.443-.998l.03-.219a10.033 10.033 0 0 1-1.379-.156l-.47-.062c-.346-.063-.628-.094-.91-.156l-.031.218c.345.125.627.281.846.5.22.218.314.499.251.842l-.062.343-2.447-.343c-.22-.031-.345-.063-.439-.125a.235.235 0 0 1-.157-.218c-.03-.094 0-.25 0-.437l.032-.312c.063-.468.282-.811.596-1.03.345-.218.878-.343 1.63-.343l.032-.219c-.188 0-.44-.03-.753-.062-.439-.062-.91-.156-1.474-.28-.031.405-.125 1.091-.25 2.027-.22 1.404-.377 2.465-.503 3.152l.189.031c.031-.218.094-.374.156-.468.063-.094.126-.156.251-.156.126-.031.283 0 .534.031l4.83.687c.25.03.407.093.532.124a.388.388 0 0 1 .189.25c.031.094.031.281 0 .468h.282zM16.998 33.762c.095-.312.22-.812.44-1.467a36.2 36.2 0 0 1 .47-1.404l-.188-.062a2.747 2.747 0 0 1-.22.436c-.063.094-.157.125-.282.125-.125 0-.282-.031-.533-.125L12.043 29.8a1.546 1.546 0 0 1-.502-.218c-.094-.063-.156-.157-.156-.25 0-.094 0-.25.062-.468l-.188-.063c-.094.344-.22.812-.408 1.404-.22.656-.376 1.155-.501 1.467l.188.063c.063-.188.157-.344.22-.437.062-.094.156-.125.282-.125.125 0 .282.031.533.125l4.641 1.466c.251.063.408.156.502.219.094.062.157.156.157.25 0 .093-.031.28-.063.467l.189.063zM18.222 29.518c.188-.125.376-.28.533-.468.157-.187.345-.437.502-.78.188-.406.313-.811.345-1.186.03-.405-.032-.749-.189-1.06-.156-.313-.439-.562-.784-.75a1.919 1.919 0 0 0-.878-.218c-.282 0-.564.062-.847.187-.282.125-.596.281-1.003.5l-.345.187a8.877 8.877 0 0 1-.878.468c-.22.093-.408.156-.596.156s-.408-.031-.596-.125c-.282-.125-.44-.343-.533-.593-.063-.25-.032-.53.094-.811.157-.281.376-.5.658-.624.283-.125.596-.188.941-.156.345.03.69.093 1.004.25l.094-.188c-.94-.468-1.6-.811-1.976-1.03l-.094.188c.126.093.22.156.25.218.032.063.064.125.032.156l-.094.094c-.063.03-.094.093-.188.125-.22.124-.376.28-.533.436a2.002 2.002 0 0 0-.44.687 2.738 2.738 0 0 0-.313 1.06c-.031.344.031.687.188.968.157.312.408.53.753.718.314.156.596.218.91.187.313-.031.595-.094.846-.219a10.97 10.97 0 0 0 1.004-.53c.533-.312.94-.5 1.286-.593.345-.093.658-.062 1.003.094.314.156.502.374.565.655.063.28.031.593-.126.905-.25.53-.658.811-1.191.842-.534.063-1.13-.062-1.82-.343l-.093.187c1.223.593 2.007.999 2.352 1.217l.094-.187c-.126-.093-.22-.156-.251-.218-.031-.063-.063-.125-.031-.156.094-.063.188-.156.345-.25zM17.061 19.065l-.157-.125c-.22.281-.533.655-.91 1.155-.438.53-.783.936-1.003 1.154l.157.125a2.42 2.42 0 0 1 .376-.312c.095-.062.189-.062.314 0 .126.062.25.156.44.312l3.731 3.09c.188.155.314.28.377.374.062.093.062.187.031.312-.031.093-.126.25-.25.405l.156.125c.188-.28.533-.655.972-1.217.408-.5.721-.873.972-1.123l-.157-.125c-.156.156-.282.28-.376.312-.094.063-.188.063-.313 0-.095-.031-.251-.156-.44-.312l-1.819-1.498 1.663-1.997 1.819 1.498c.188.156.313.28.376.375.063.093.063.187.031.311-.03.094-.125.25-.25.406l.156.125c.22-.28.534-.686.973-1.186.439-.53.752-.905.972-1.123L24.745 20c-.157.156-.282.281-.376.312-.095.063-.189.063-.314 0-.094-.031-.25-.156-.44-.312l-3.731-3.089c-.188-.156-.314-.28-.377-.374-.062-.094-.062-.188-.03-.312.03-.094.125-.25.25-.406l-.157-.125c-.188.25-.502.655-.94 1.155-.408.499-.753.904-1.004 1.154l.156.125c.157-.156.283-.25.377-.312.094-.063.188-.063.314 0 .094.031.25.156.439.312l1.787 1.466-1.662 1.998-1.788-1.467c-.188-.156-.313-.28-.376-.375-.063-.093-.063-.187-.031-.312 0-.062.094-.187.22-.374zM25.7 14.784l-2.77 2.2.508.634 2.77-2.2-.508-.634zM30.986 12.544c.282-.406.408-.78.44-1.155 0-.374-.063-.718-.252-1.03-.282-.53-.721-.81-1.286-.904-.564-.094-1.254.062-2.038.499-.157.093-.282.156-.408.218l-.94.53c-.597.313-1.036.531-1.318.687l.094.187c.188-.093.345-.156.47-.156.095 0 .22.031.283.094.094.094.188.218.314.437l2.32 4.275c.126.218.189.374.22.499s0 .218-.063.28c-.063.063-.25.157-.439.282l.094.187.282-.156c.44-.25.784-.437 1.067-.593.345-.187.878-.468 1.6-.812l-.095-.187c-.282.125-.47.219-.627.25a.488.488 0 0 1-.377-.063 2.265 2.265 0 0 1-.345-.468l-.815-1.497.47-.25c.628-.374 1.098-.749 1.35-1.154zm-1.913 1.185l-1.38-2.558a1.997 1.997 0 0 1-.22-.5.39.39 0 0 1 .032-.28c.063-.094.157-.156.314-.25.376-.218.72-.218 1.035-.031.313.187.595.53.909 1.092.282.5.408.967.376 1.342-.031.405-.25.717-.721.967l-.345.218zM37.635 9.423c.22-.437.282-.873.157-1.31-.157-.53-.47-.874-1.004-1.03-.533-.156-1.223-.125-2.07.125-.157.031-.313.093-.439.125l-1.035.312c-.627.187-1.129.312-1.442.374l.062.187c.22-.03.377-.062.47-.062.095 0 .189.062.252.156.062.094.125.25.188.5l1.317 4.648c.063.25.094.406.094.53a.394.394 0 0 1-.125.282c-.094.062-.22.125-.44.218l.063.187c.314-.093.816-.25 1.474-.436.596-.156 1.098-.281 1.443-.375l-.063-.187c-.22.062-.376.062-.47.062-.094 0-.188-.062-.251-.156-.063-.093-.126-.25-.188-.499l-.596-2.153.627-.187c.282-.063.502-.031.659.156.188.187.376.5.596.936l.439.905c.157.343.376.562.627.655.25.094.565.094.94 0 .283-.062.503-.187.66-.312.156-.125.313-.343.439-.562l-.157-.062c-.063.094-.094.156-.126.218a.481.481 0 0 1-.188.125.366.366 0 0 1-.314-.062c-.094-.094-.188-.25-.313-.468l-.502-.905c-.188-.375-.44-.593-.784-.718-.345-.125-.784-.125-1.38 0 .659-.437 1.13-.78 1.38-1.217zm-1.349.468c-.125.312-.439.562-.94.718l-.408.125-.659-2.31a2.097 2.097 0 0 1-.094-.53c0-.124.032-.218.094-.28a.71.71 0 0 1 .345-.156c.408-.125.753-.063 1.004.156.25.218.47.561.596 1.092.157.436.188.842.062 1.185z" fill="#DDA960"/><path d="M42.684 5.96c-1.411.093-2.477.125-3.199.156v.187c.22 0 .377.031.47.062.095.032.189.094.22.219.032.093.063.28.094.53l.283 4.837c0 .25 0 .437-.032.53a.388.388 0 0 1-.188.25c-.094.062-.25.093-.47.093v.188c.69-.063 1.756-.125 3.199-.219 1.066-.062 1.787-.093 2.258-.093a13.147 13.147 0 0 1-.157-1.467c-.031-.343-.031-.593-.031-.811h-.22c-.063.749-.25 1.31-.502 1.622-.25.344-.627.5-1.097.53l-.47.032c-.189 0-.346 0-.44-.031a.282.282 0 0 1-.188-.187 1.438 1.438 0 0 1-.063-.437l-.125-2.465.313-.031c.659-.032 1.098.374 1.255 1.216h.22c-.063-.592-.126-1.06-.126-1.372l-.031-.469c-.032-.343-.032-.655-.032-.904h-.22a3 3 0 0 1-.313.936c-.157.25-.408.405-.753.437l-.313.03-.126-2.402c0-.218 0-.374.032-.468a.282.282 0 0 1 .188-.187c.094-.031.25-.063.439-.063l.408-.03c.47-.032.815.093 1.097.374.282.28.47.748.596 1.435h.22a3.292 3.292 0 0 1-.063-.655 10.92 10.92 0 0 1 0-1.436c-.47-.03-1.16 0-2.133.063zM46.73 11.233a4.54 4.54 0 0 1-.188.718c-.063.156-.157.28-.282.312a.824.824 0 0 1-.502.062l-.032.187c.22.032.502.063.847.125.44.094.784.156 1.035.25l.032-.187c-.283-.094-.47-.188-.596-.281-.126-.094-.157-.25-.157-.437s.031-.468.125-.842l.941-4.587 1.349 6.677.157.031 3.544-5.554-1.004 4.993c-.063.25-.094.405-.157.53a.488.488 0 0 1-.25.187c-.126.031-.283 0-.534-.03l-.031.186c.345.031.846.125 1.536.281.66.125 1.16.25 1.506.343l.031-.187c-.22-.062-.345-.125-.439-.156-.094-.062-.157-.156-.157-.25 0-.124 0-.28.063-.53l.972-4.743c.063-.25.094-.405.157-.53a.39.39 0 0 1 .251-.187c.094-.032.25 0 .502.03l.031-.186c-.345-.063-.847-.157-1.505-.281l-.69-.125-2.729 4.275L49.46 6.24c-.44-.063-.941-.156-1.537-.281a6.534 6.534 0 0 1-.816-.187l-.03.187c.219.062.344.125.438.156.094.062.157.156.157.25 0 .124 0 .28-.063.53l-.878 4.337zM55.292 13.916c-.094.219-.188.375-.282.469-.063.093-.157.124-.282.124-.095 0-.251-.03-.47-.124l-.095.187c.314.125.784.312 1.443.593.596.25 1.035.468 1.348.624l.094-.188c-.188-.093-.345-.187-.407-.25-.063-.062-.094-.155-.094-.28 0-.125.062-.28.156-.5l1.976-4.43c.094-.218.188-.374.282-.468.063-.094.157-.125.283-.125.094 0 .25.031.47.125l.094-.187c-.345-.125-.784-.312-1.38-.562-.627-.28-1.097-.5-1.411-.655l-.094.156c.188.093.313.187.408.25.062.062.094.187.094.28 0 .125-.063.281-.157.5l-1.976 4.461zM61.157 11.296l-1.725 2.558c-.377.562-.627.999-.753 1.373a1.631 1.631 0 0 0 0 1.092c.157.5.565.968 1.192 1.373.408.28.784.437 1.16.468.377.063.69 0 1.004-.125.47-.218.972-.717 1.505-1.497l1.443-2.153c.188-.281.345-.469.47-.593.126-.125.251-.188.377-.188.125 0 .282.032.502.125l.094-.156c-.189-.093-.408-.25-.722-.437-.376-.25-.658-.468-.878-.624l-.094.156c.22.188.345.344.408.5a.605.605 0 0 1 0 .468c-.063.187-.188.437-.408.749l-1.443 2.153c-.439.655-.91 1.123-1.38 1.341-.47.219-.972.156-1.505-.218-.408-.28-.627-.593-.596-.999 0-.374.22-.842.596-1.404l2.07-3.058c.126-.218.25-.343.345-.405a.366.366 0 0 1 .314-.063c.125.032.282.094.47.219l.094-.156a35.354 35.354 0 0 1-1.317-.843 29.548 29.548 0 0 1-1.255-.873l-.094.156c.157.124.283.25.345.343.063.093.063.187.032.312a3.687 3.687 0 0 0-.251.405zM67.68 16.007l-3.324 2.87c-.251.22-.44.375-.596.438-.157.093-.282.124-.408.093a.916.916 0 0 1-.439-.25l-.157.125c.157.156.345.344.596.624.282.344.533.625.659.812l.157-.125c-.157-.25-.251-.437-.283-.593-.031-.156.032-.312.126-.437a5.2 5.2 0 0 1 .596-.593l3.544-3.057-3.074 6.115.094.125 6.21-2.247-3.889 3.34c-.188.155-.345.249-.439.311-.126.032-.22.032-.314-.03a2.593 2.593 0 0 1-.407-.344l-.157.125c.22.25.564.624 1.035 1.154.439.5.753.905.972 1.186l.157-.125a1.579 1.579 0 0 1-.251-.406.376.376 0 0 1 .031-.312c.063-.093.189-.218.377-.405l3.669-3.183c.188-.156.345-.28.44-.312a.537.537 0 0 1 .313 0c.094.062.22.156.376.312l.157-.125c-.251-.25-.596-.624-1.035-1.154l-.47-.53-4.768 1.747 2.321-4.618c-.282-.312-.658-.687-1.035-1.155-.25-.28-.407-.5-.533-.655l-.157.125c.126.156.22.312.251.405a.376.376 0 0 1-.031.312c0 .125-.126.281-.314.437zM69.374 25.836c-.188-.062-.377-.031-.596.063a.773.773 0 0 0-.377.467.938.938 0 0 0 .126.625c.125.218.282.374.47.436.189.063.377.032.596-.062a.773.773 0 0 0 .377-.468.939.939 0 0 0-.126-.624c-.125-.218-.282-.375-.47-.437zM70.722 30.86a1.97 1.97 0 0 1-.094-.468c0-.094.063-.188.157-.281.094-.063.251-.156.502-.25l2.101-.78.22.593c.094.25.062.5-.094.686-.157.188-.47.406-.879.656l-.846.499c-.345.187-.534.437-.628.687-.094.25-.03.561.094.936.095.28.22.468.377.655.157.156.345.28.596.374l.063-.156a.673.673 0 0 1-.22-.125c-.063-.03-.094-.093-.126-.156-.03-.124-.03-.218.032-.312.063-.093.22-.218.439-.374l.878-.562c.345-.218.565-.499.659-.842.094-.343.062-.78-.094-1.373.376.686.752 1.154 1.223 1.342.439.187.878.218 1.317.062.502-.187.815-.562.94-1.092.126-.53.032-1.217-.313-2.06-.063-.155-.125-.311-.157-.405l-.376-.999c-.22-.624-.408-1.092-.502-1.404l-.188.063c.063.218.094.374.094.468 0 .093-.063.187-.125.28-.094.063-.251.157-.502.25l-4.548 1.654c-.22.094-.407.125-.533.125-.125 0-.22-.031-.282-.125-.063-.094-.157-.218-.251-.406l-.188.063c.125.312.313.78.564 1.435.22.593.377 1.06.502 1.404l.188-.062zm5.081-2.684c.22-.093.376-.124.502-.124.125 0 .22 0 .282.062.063.062.126.187.188.343.157.406.126.749-.062.999-.189.25-.534.499-1.035.686-.47.187-.91.218-1.224.125-.344-.094-.595-.375-.784-.874l-.125-.374 2.258-.843zM79.19 39.378l.188-.031c-.031-.187-.094-.468-.125-.843a8.076 8.076 0 0 1-.094-1.06l-.188.03c0 .282-.032.5-.094.625a.679.679 0 0 1-.345.312c-.189.062-.44.125-.816.187l-2.572.343c-.815.094-1.442.063-1.913-.156-.47-.218-.752-.624-.846-1.279-.063-.5.062-.874.345-1.092.282-.25.784-.406 1.474-.5l3.669-.467c.25-.032.44-.032.533 0a.39.39 0 0 1 .251.187c.063.093.094.28.157.5l.188-.032a17.498 17.498 0 0 1-.22-1.53c-.094-.686-.156-1.185-.156-1.528l-.189.031c0 .219 0 .375-.03.468-.032.094-.095.187-.189.219-.094.062-.282.093-.533.124l-3.042.406a8.859 8.859 0 0 0-1.537.343 1.824 1.824 0 0 0-.816.718c-.282.468-.345 1.06-.25 1.81.062.468.188.873.407 1.186.188.312.47.53.753.655.47.218 1.192.25 2.101.125l2.572-.344c.345-.03.596-.062.753-.03.188 0 .313.061.407.155.032.094.094.25.157.468zM24.243 64.528c-.063-.468-.313-.999-.784-1.592l.157-.156c.125-.093.22-.187.282-.218a.2.2 0 0 1 .188 0c.063.031.157.094.251.187l.094-.093c-.156-.156-.376-.375-.658-.687-.314-.312-.533-.562-.659-.749l-.094.094c.094.093.157.187.157.25.031.062.031.124-.032.187-.03.062-.125.156-.219.25l-.157.155c-.533-.499-1.066-.78-1.537-.873-.501-.094-.94.03-1.285.374-.408.375-.565.78-.534 1.28.032.499.283 1.03.753 1.622l-.157.156c-.125.094-.22.187-.282.218a.2.2 0 0 1-.188 0 1.027 1.027 0 0 1-.251-.187l-.094.094c.157.156.376.374.69.718.282.28.47.53.627.717l.094-.093c-.094-.125-.157-.188-.157-.25-.031-.062-.031-.125.032-.187.031-.063.125-.156.22-.25l.156-.156c.533.5 1.066.78 1.568.843.502.062.941-.063 1.317-.406.377-.343.565-.749.502-1.248zm-3.983.031c-.22-.343-.314-.718-.25-1.03.062-.343.281-.686.658-1.03.376-.343.721-.53 1.035-.561.314-.031.658.094 1.003.374L20.26 64.56zm3.387-.5c-.062.344-.282.656-.658 1-.377.343-.722.53-1.067.592-.345.031-.658-.062-1.003-.343l2.446-2.247c.25.312.345.656.282.999zM26.282 70.3a.198.198 0 0 1 0-.187c.031-.062.094-.156.188-.28l1.882-2.466c.094-.124.188-.218.22-.25.062-.03.125-.062.187-.03.063.03.157.062.283.156l.062-.094c-.188-.125-.439-.312-.784-.593-.313-.25-.564-.437-.752-.593l-.063.094a.998.998 0 0 1 .188.218c.031.063.063.125.031.187 0 .063-.062.156-.125.25l-3.23 1.31 1.756-2.309c.094-.124.188-.218.22-.25.062-.03.125-.061.188-.03.062.03.156.062.282.156l.063-.094a11.572 11.572 0 0 1-.753-.562c-.345-.28-.627-.468-.784-.592l-.063.093c.094.094.188.156.22.219.031.062.031.124.031.187a2.105 2.105 0 0 1-.188.28l-1.882 2.466a2.345 2.345 0 0 1-.22.25c-.062.03-.125.062-.188.03-.062-.03-.156-.062-.282-.156l-.063.094c.189.125.44.312.785.593.313.25.564.437.752.593l.063-.094-.22-.218c-.031-.063-.031-.125-.031-.187.031-.063.063-.156.125-.25l3.23-1.31-1.756 2.309c-.094.124-.188.218-.219.25-.063.03-.125.062-.188.03-.063-.03-.157-.062-.282-.156l-.063.094c.188.125.439.312.752.561.346.281.628.469.785.593l.062-.093c-.125-.094-.188-.156-.22-.219zM33.37 69.302l-.063.125c.094.062.188.124.22.156.03.03.062.093.03.187 0 .062-.062.187-.125.312l-1.348 2.777c-.063.156-.126.25-.188.28-.063.063-.126.095-.189.063a.834.834 0 0 1-.313-.093l-.282-.125c-.126-.063-.22-.125-.251-.187-.063-.063-.063-.125-.063-.188 0-.062.031-.187.094-.312l1.349-2.777c.062-.156.125-.25.188-.28.063-.063.094-.094.157-.094.062 0 .156.031.25.062l.063-.124c-.188-.063-.47-.219-.847-.375a5.773 5.773 0 0 1-.784-.406l-.062.125c.094.063.188.125.22.156.03.031.062.094.03.187 0 .063-.062.188-.125.313l-1.348 2.776c-.063.156-.126.25-.189.281-.062.063-.125.094-.188.063a.834.834 0 0 1-.314-.094l-.282-.125a1.094 1.094 0 0 1-.282-.187c-.063-.062-.063-.125-.063-.187 0-.063.063-.187.126-.312l1.348-2.777c.063-.156.126-.25.189-.281.062-.062.094-.094.156-.094.063 0 .157.032.251.063l.063-.125c-.188-.094-.47-.218-.815-.374-.408-.188-.69-.344-.879-.437l-.062.124c.125.063.188.125.25.188.032.062.063.124.063.187 0 .062-.063.187-.125.312l-1.349 2.777c-.063.156-.125.25-.188.28-.063.063-.125.063-.188.063a.725.725 0 0 1-.282-.093l-.063.125c.188.062.47.218.847.405l.564.28.502.25.502.219c.25.125.439.187.564.25l.565.28.47.219.502.218c.251.125.44.219.565.25.376.187.658.343.846.437l.063-.125c-.125-.063-.188-.125-.25-.187-.063-.063-.063-.125-.063-.188 0-.062.062-.187.125-.311l1.348-2.778c.063-.156.126-.25.189-.28.062-.063.125-.063.188-.063s.157.031.282.094l.063-.125c-.188-.094-.502-.218-.91-.406l-.752-.374zM40.96 71.424a16.04 16.04 0 0 1-.973-.188 6.743 6.743 0 0 1-.784-.187l-.47-.093-.502-.094c-.314-.062-.596-.125-.784-.156-.44-.094-.753-.156-.972-.218l-.032.124c.126.032.22.063.282.125a.171.171 0 0 1 .094.156c0 .063 0 .188-.03.344l-.66 3.026c-.03.156-.062.25-.093.312-.032.063-.095.094-.157.125h-.314l-.031.125c.22.031.533.093.972.187.408.094.69.156.91.219l.03-.125c-.125-.032-.219-.063-.282-.125a.172.172 0 0 1-.094-.156c0-.063 0-.187.032-.343l.658-3.027a2.52 2.52 0 0 1 .095-.343c.03-.063.094-.094.156-.125.063 0 .188 0 .314.031l.627.125c.157.031.251.062.314.094.063.03.094.093.094.187 0 .062 0 .187-.032.343l-.658 3.027c-.031.156-.063.25-.094.312-.032.062-.094.093-.157.125h-.314l-.031.124c.22.031.533.094.94.188.44.093.754.155.973.218l.032-.125c-.126-.031-.22-.062-.283-.125a.171.171 0 0 1-.094-.156c0-.062 0-.187.031-.343l.66-3.027c.03-.156.062-.25.093-.312.032-.062.094-.093.157-.124h.314l.062-.125zM43.06 71.549h-.282l-.69-.032a15.642 15.642 0 0 1-.94-.093v.124c.125.032.25.032.313.063s.094.093.126.156c.031.062.031.187 0 .343l-.189 3.09a.83.83 0 0 1-.062.343c-.032.062-.063.124-.126.124-.062.031-.157.031-.313.031v.125h.188c.313 0 .564.032.784.032.25.03.627.062 1.129.093v-.125c-.188-.03-.345-.03-.44-.062a.32.32 0 0 1-.187-.156c-.032-.094-.032-.187-.032-.374l.063-1.093.345.031c.47.032.816-.03 1.098-.124.282-.094.502-.281.627-.5.125-.187.188-.405.22-.655.03-.374-.095-.686-.377-.905-.282-.28-.69-.405-1.254-.436zm.628 1.31c-.031.375-.094.655-.251.874-.157.218-.376.312-.721.28l-.283-.03.126-1.842c0-.156.031-.25.063-.343.031-.062.062-.125.125-.156s.126-.031.25-.031c.283.031.471.125.566.312.094.25.125.562.125.936zM48.486 74.357h-.156c-.032.499-.157.842-.314 1.03-.157.218-.408.311-.69.343l-.314.03h-.282a.245.245 0 0 1-.125-.124c-.032-.062-.032-.156-.063-.28l-.094-1.56h.188c.408-.032.69.217.815.78h.157a5.542 5.542 0 0 1-.094-.874l-.031-.313c0-.218-.032-.405-.032-.592h-.156a1.651 1.651 0 0 1-.189.593c-.094.156-.25.25-.501.28h-.188l-.095-1.529v-.28a.244.244 0 0 1 .126-.125c.063-.032.157-.032.282-.063l.251-.03a.845.845 0 0 1 .69.218c.188.155.314.468.408.904h.157c-.032-.093-.032-.25-.032-.405a4.347 4.347 0 0 1 0-.905c-.25.031-.69.062-1.286.094-.91.062-1.568.093-2.038.093v.125c.125 0 .25 0 .313.031s.126.063.126.125c.031.062.031.187.063.343l.188 3.09v.343c-.032.062-.063.124-.126.156a.678.678 0 0 1-.313.062v.125c.439-.032 1.129-.094 2.038-.156.659-.031 1.13-.063 1.443-.063-.032-.25-.094-.561-.094-.936-.032-.218-.032-.405-.032-.53zM54.445 74.482c-.063 0-.125-.032-.157-.125-.03-.063-.062-.188-.094-.312l-.69-2.996c-.031-.156-.062-.28-.031-.343 0-.062.031-.125.094-.156s.157-.062.282-.125l-.031-.125c-.22.063-.533.125-.94.219l-.44.093-.439 3.183-1.913-2.683c-.251.062-.596.156-.972.25-.22.062-.408.093-.533.093l.03.125c.126-.031.252-.031.314-.031.063 0 .126.03.157.124.032.063.063.188.094.312l.628 2.715c.031.218.062.374.062.468a.481.481 0 0 1-.062.25.607.607 0 0 1-.283.156l.032.124c.125-.03.313-.093.533-.124.282-.063.502-.094.659-.125l-.032-.125a.795.795 0 0 1-.408-.031c-.094-.031-.156-.094-.22-.219-.062-.093-.093-.28-.156-.53l-.659-2.902 2.54 3.526.095-.031.596-4.15.721 3.183c.032.156.063.28.032.343a.172.172 0 0 1-.095.156c-.062.031-.156.093-.313.125l.031.124c.22-.062.533-.124.972-.25.408-.093.722-.155.973-.186l-.032-.125c-.157.125-.25.125-.345.125zM68.308 66.244c-.063.031-.126.031-.189-.031-.062-.031-.156-.125-.25-.25l-2.008-2.34a2.118 2.118 0 0 1-.188-.28.198.198 0 0 1 0-.188c.031-.063.094-.125.188-.25l-.094-.093c-.157.156-.408.374-.721.655l-.345.28 1.098 3.027-2.949-1.466c-.188.187-.439.405-.72.655-.126.094-.22.187-.315.25l-.03-.031c-.095.062-.22.156-.409.28-.188.125-.407.25-.658.375l.063.093a.75.75 0 0 1 .376-.124c.094 0 .188.062.282.187.094.156.157.406.188.749l.126 1.404-1.976-1.092a.532.532 0 0 1-.188-.188c-.094-.124-.032-.25.157-.374l-.063-.094c-.188.125-.47.313-.847.53-.345.188-.564.344-.721.407-.189.093-.44.218-.816.343-.376.156-.658.28-.878.343l.063.125c.125-.031.22-.063.282-.063.063 0 .126 0 .157.063.063.031.094.125.157.218l-.47 3.464-1.13-2.652c-.063-.157-.094-.25-.094-.344 0-.062 0-.124.063-.187.063-.062.125-.093.25-.156l-.062-.125c-.188.094-.502.219-.847.375-.407.187-.721.28-.91.374l.063.125c.126-.031.22-.062.314-.062.063 0 .126.03.188.093.063.063.094.156.157.312l1.223 2.84c.063.156.094.25.094.312s0 .124-.062.187c-.063.062-.126.093-.251.156l.062.125c.189-.094.502-.219.91-.406.376-.156.658-.28.878-.343l-.063-.125c-.125.031-.22.063-.282.063a.24.24 0 0 1-.157-.063 1.182 1.182 0 0 1-.157-.25l.47-3.432 1.13 2.684c.063.156.094.25.094.343 0 .062 0 .125-.063.187-.062.062-.125.094-.25.156l.062.125c.188-.094.47-.219.847-.375.408-.187.721-.28.91-.374l-.063-.125c-.126.063-.22.063-.314.063-.063 0-.125-.032-.188-.094s-.094-.156-.157-.312l-1.223-2.84c-.063-.156-.094-.25-.094-.343 0-.062 0-.125.063-.187.03-.031.125-.094.25-.156.126-.031.283.031.47.125l3.106 1.716.031.343c.032.187 0 .312-.031.437-.032.125-.094.219-.188.25-.063.03-.094.062-.126.062.094-.093.126-.218.157-.312s0-.218-.063-.312a.457.457 0 0 0-.282-.187.605.605 0 0 0-.376.125c-.126.093-.22.187-.251.312-.032.124-.032.25.063.374.093.125.188.219.344.219.157.03.314-.032.502-.157.188-.124.314-.25.345-.436.032-.125.032-.281 0-.5l-.063-.655-.25-2.746c-.032-.25 0-.437 0-.593 0-.093.031-.187.062-.25.094-.062.189-.124.22-.124.063-.031.125-.031.188.031a.919.919 0 0 1 .25.25l1.82 2.122c.125.156.22.28.282.374a.418.418 0 0 1 .063.25.865.865 0 0 1-.157.28l.094.094c.094-.094.22-.218.408-.374.22-.188.408-.312.533-.437l-.094-.094a2.066 2.066 0 0 1-.376.187c-.094 0-.189 0-.283-.093-.094-.063-.22-.187-.376-.375l-1.944-2.246 3.889 1.934.062-.062-1.411-3.932 2.133 2.465c.094.125.156.219.188.281a.199.199 0 0 1 0 .188.719.719 0 0 1-.22.25l.094.093c.157-.156.408-.375.722-.656.313-.28.564-.468.752-.624l-.094-.093c0 .28-.094.312-.156.343z" fill="#DDA960"/><path d="M115.539 58.35c-1.725-.812-3.544-1.623-7.088-1.623s-5.331.843-7.087 1.623c-1.663.78-3.23 1.497-6.43 1.497-3.199 0-4.767-.717-6.43-1.497-1.473-.687-2.979-1.373-5.519-1.56a39.358 39.358 0 0 0 2.007-6.616c1.067.281 1.913.656 2.76 1.061 1.725.812 3.544 1.623 7.088 1.623s5.332-.843 7.088-1.623c1.662-.78 3.23-1.497 6.429-1.497 3.199 0 4.767.717 6.43 1.497 1.725.812 3.544 1.623 7.088 1.623v-1.56c-3.199 0-4.768-.718-6.43-1.498-1.725-.811-3.544-1.623-7.088-1.623s-5.331.843-7.088 1.623c-1.662.78-3.23 1.498-6.429 1.498-3.199 0-4.767-.718-6.43-1.498-1.191-.562-2.414-1.123-4.233-1.404a1.86 1.86 0 0 0-.44-.063 18.439 18.439 0 0 0-2.414-.156c-3.544 0-5.332.843-7.088 1.623-1.662.78-3.23 1.498-6.43 1.498-3.198 0-4.766-.718-6.429-1.498-1.725-.811-3.544-1.623-7.088-1.623h-.22a23.4 23.4 0 0 0-1.567.063l.031-.031a7.47 7.47 0 0 0-1.286.187c-1.819.312-3.042.873-4.265 1.435-1.066.5-2.101.967-3.575 1.248-.816.125-1.757.219-2.854.219-1.13 0-2.07-.094-2.917-.219-1.443-.28-2.446-.748-3.513-1.248-1.725-.811-3.512-1.622-7.025-1.622l.031-.032h-.094c-.91 0-1.662.063-2.352.157-2.101.28-3.418.873-4.735 1.497-1.663.78-3.23 1.498-6.43 1.498-3.199 0-4.767-.718-6.43-1.498C5.364 49.02 3.545 48.21 0 48.21v1.56c1.349 0 2.384.125 3.262.343C7.402 68.865 24.18 83 44.252 83c16.999 0 31.645-10.172 38.137-24.682 2.603.125 4.015.78 5.489 1.467 1.725.811 3.544 1.623 7.088 1.623s5.331-.843 7.087-1.623c1.663-.78 3.231-1.498 6.43-1.498s4.767.718 6.429 1.498c1.725.811 3.544 1.623 7.088 1.623v-1.56c-3.23 0-4.798-.718-6.461-1.498zm-74.893-5.492c3.544 0 5.331-.843 7.088-1.623 1.662-.78 3.23-1.497 6.429-1.497 3.199 0 4.767.717 6.43 1.497 1.034.468 2.07.936 3.48 1.28-3.888 6.895-11.321 11.576-19.82 11.576-9.41 0-17.5-5.741-20.92-13.854 1.004-.281 2.227-.468 3.858-.468 3.2 0 4.767.718 6.43 1.498 1.693.78 3.48 1.59 7.025 1.59zm3.606 28.582c-19.005 0-34.937-13.168-39.109-30.829.502.188.941.406 1.412.624 1.725.812 3.544 1.623 7.088 1.623s5.331-.843 7.088-1.623c.47-.218.91-.405 1.38-.624 3.606 8.612 12.137 14.697 22.11 14.697 9.127 0 17.061-5.117 21.107-12.606.69.093 1.443.125 2.32.125h.22c2.823 0 4.548-.53 5.99-1.155l.283.125.753-.593s.03 0 .03-.031c1.663-.78 3.231-1.498 6.43-1.498.816 0 1.506.031 2.133.125-3.858 18.098-19.978 31.64-39.235 31.64z" fill="#DDA960"/><path d="M70.817 45.026c-.095.343-.189.655-.251.967l-.063.655h-.063a10.073 10.073 0 0 0-.188 2.934c1.756-.25 2.885-.78 4.108-1.342.534-.25 1.098-.5 1.694-.718-.282-3.4 2.854-6.49 2.854-6.49-2.885.78-5.99 3.401-8.091 3.994zM59.087 29.643c-4.077.873-7.81 2.62-10.318 4.025a81.345 81.345 0 0 1 8.217 2.902l2.1-6.927zM46.166 32.92l.47-3.277c-2.352.405-4.83 1.28-6.335 1.903 1.505.281 3.544.75 5.865 1.373zM70.126 45.12c-.345 0-.658-.063-.909-.25-4.422-3.152-8.593-5.617-12.482-7.489l.062-.25c-6.868-2.87-14.113-4.524-17.5-5.18-.031.032-.094.032-.125.063a36.087 36.087 0 0 0-5.395-.218c.47 1.591 1.38 5.46.565 9.798l4.203.468 10.035-2.09-2.916 2.9 24.274 2.747c.094-.156.126-.312.188-.5zM44.848 43.715l-2.79 2.777-.158-.03c-.125-.032-3.167-.562-4.328-3.59l-3.387-.373a15.87 15.87 0 0 1-2.007 4.836c.753.25 1.411.562 2.07.874 1.662.78 3.23 1.497 6.43 1.497 3.198 0 4.766-.717 6.428-1.497 1.725-.812 3.544-1.623 7.088-1.623h.22c3.544 0 5.331.843 7.088 1.623 1.662.78 3.23 1.497 6.43 1.497.626 0 1.19-.03 1.693-.093-.094-.812-.063-1.841.188-3.09l-24.965-2.808z" fill="#DDA960"/><path d="M21.703 33.48a41.88 41.88 0 0 1 1.6-.654c3.418-8.144 11.51-13.917 20.95-13.917 12.513 0 22.706 10.141 22.706 22.591 0 .218 0 .468-.032.687.44.28.847.53 1.224.78.031-.5.062-.968.062-1.467 0-13.137-10.757-23.84-23.96-23.84-10.382 0-19.226 6.616-22.55 15.82z" fill="#DDA960"/></svg>