<?xml version="1.0" standalone="no"?>
<!DOCTYPE svg PUBLIC "-//W3C//DTD SVG 20010904//EN"
 "http://www.w3.org/TR/2001/REC-SVG-20010904/DTD/svg10.dtd">
<svg version="1.0" xmlns="http://www.w3.org/2000/svg"
 width="1068.000000pt" height="1068.000000pt" viewBox="0 0 1068.000000 1068.000000"
 preserveAspectRatio="xMidYMid meet">
<metadata>
Created by potrace 1.11, written by Peter Selinger 2001-2013
</metadata>
<g transform="translate(0.000000,1068.000000) scale(0.100000,-0.100000)"
fill="#000000" stroke="none">
<path d="M9779 10642 c-35 -21 -71 -42 -79 -46 -8 -4 -24 -12 -35 -19 -11 -7
-47 -27 -80 -46 -33 -19 -63 -39 -67 -45 -4 -6 -8 -7 -8 -3 0 5 -12 0 -28 -10
-48 -32 -66 -43 -92 -55 -14 -7 -27 -15 -30 -18 -7 -8 -59 -37 -110 -62 -25
-13 -46 -26 -48 -30 -2 -5 -10 -8 -18 -8 -8 0 -14 -4 -14 -10 0 -5 -4 -10 -9
-10 -14 0 -205 -111 -213 -124 -4 -6 -8 -8 -8 -4 0 7 -97 -47 -150 -83 -8 -5
-27 -15 -42 -22 -16 -6 -28 -15 -28 -19 0 -4 -4 -8 -9 -8 -6 0 -52 -25 -104
-55 -51 -30 -99 -55 -105 -55 -5 0 -12 -4 -14 -8 -1 -5 -24 -20 -49 -34 -84
-47 -94 -53 -99 -60 -3 -4 -17 -11 -30 -17 -14 -6 -43 -22 -65 -36 -22 -14
-47 -28 -55 -32 -8 -3 -56 -31 -107 -61 -50 -30 -95 -53 -99 -52 -4 1 -10 -2
-13 -7 -6 -9 -108 -73 -116 -73 -2 0 -38 -20 -78 -45 -41 -25 -79 -45 -85 -45
-6 0 -12 -3 -14 -7 -4 -10 -76 -52 -100 -60 -10 -3 -18 -10 -18 -15 0 -5 -4
-6 -10 -3 -5 3 -10 1 -10 -4 0 -6 -7 -11 -15 -11 -8 0 -15 -4 -15 -8 0 -5 -16
-14 -35 -22 -19 -8 -35 -17 -35 -22 0 -4 -5 -8 -11 -8 -6 0 -64 -31 -129 -70
-65 -38 -123 -70 -129 -70 -5 0 -11 -3 -13 -8 -1 -4 -88 -56 -193 -116 -104
-60 -203 -117 -220 -127 -16 -11 -37 -22 -45 -26 -8 -4 -59 -33 -112 -65 -54
-31 -119 -69 -145 -83 -26 -15 -66 -37 -88 -51 -22 -13 -58 -34 -80 -45 -22
-12 -48 -28 -57 -37 -10 -8 -18 -11 -18 -6 0 5 -4 5 -8 -1 -4 -5 -18 -16 -32
-24 -102 -58 -248 -143 -260 -151 -8 -6 -22 -13 -30 -17 -8 -4 -43 -24 -78
-45 -34 -21 -67 -38 -72 -38 -6 0 -10 -4 -10 -8 0 -4 -12 -13 -27 -20 -16 -6
-50 -25 -78 -42 -27 -17 -58 -33 -67 -36 -10 -4 -18 -10 -18 -15 0 -5 -5 -9
-11 -9 -6 0 -48 -22 -95 -50 -47 -27 -92 -50 -101 -50 -9 0 -38 14 -65 30 -26
17 -53 30 -58 30 -6 0 -10 5 -10 10 0 6 -5 10 -10 10 -6 0 -27 10 -48 23 -20
13 -68 41 -107 62 -38 21 -88 49 -110 63 -22 14 -65 39 -95 55 -30 16 -61 34
-68 39 -19 16 -75 48 -94 54 -10 4 -18 11 -18 17 0 6 -3 7 -6 4 -4 -4 -19 2
-33 12 -14 10 -46 29 -71 43 -25 14 -85 48 -133 77 -49 28 -93 51 -98 51 -5 0
-9 5 -9 10 0 6 -6 10 -14 10 -7 0 -19 7 -26 15 -7 9 -15 13 -17 11 -3 -3 -36
15 -74 40 -38 24 -69 41 -69 37 0 -3 -8 1 -18 10 -20 18 -92 61 -134 79 -16 7
-28 16 -28 20 0 4 -4 8 -9 8 -9 0 -276 154 -297 171 -6 5 -13 7 -16 4 -3 -3
-11 1 -18 10 -7 8 -19 15 -26 15 -8 0 -14 3 -14 8 0 4 -10 12 -23 17 -31 15
-111 59 -117 65 -7 7 -37 25 -95 56 -27 15 -74 42 -103 60 -29 19 -54 34 -57
34 -2 0 -42 22 -87 49 -46 27 -99 58 -118 68 -19 11 -91 53 -160 93 -69 40
-138 80 -155 90 -68 39 -288 166 -318 184 -18 10 -50 29 -72 41 -22 13 -107
62 -188 109 -82 47 -152 86 -158 86 -5 0 -9 5 -9 10 0 6 -4 10 -10 10 -5 0
-50 24 -99 54 -49 30 -92 51 -95 48 -3 -3 -6 -1 -6 5 0 6 -8 13 -17 16 -10 4
-36 18 -58 31 -22 14 -49 30 -60 36 -11 5 -27 14 -35 20 -52 34 -311 180 -320
180 -5 0 -10 4 -10 10 0 5 -11 12 -25 16 -14 3 -25 10 -25 15 0 5 -4 9 -9 9
-9 0 -152 79 -161 89 -3 3 -24 16 -47 27 l-42 22 -3 -37 c-2 -20 0 -60 3 -89
3 -29 1 -55 -3 -58 -5 -3 -6 -9 -3 -14 3 -5 5 -44 5 -87 0 -76 0 -119 1 -165
0 -13 0 -45 0 -73 0 -27 1 -63 2 -80 2 -16 -1 -40 -5 -52 -4 -12 -3 -25 1 -28
5 -3 6 -20 2 -38 -5 -18 -5 -41 -1 -52 4 -11 4 -30 -1 -42 -5 -12 -4 -25 0
-28 5 -3 6 -20 2 -37 -4 -18 -5 -44 -4 -58 2 -14 3 -41 2 -60 0 -19 0 -39 0
-45 2 -44 1 -125 -2 -145 -2 -14 0 -32 4 -40 4 -9 4 -31 0 -50 -4 -19 -4 -54
-1 -78 4 -23 3 -45 -2 -48 -4 -3 -4 -12 1 -21 5 -9 5 -29 1 -44 -5 -15 -6 -30
-3 -33 8 -8 7 -112 -1 -125 -4 -5 -2 -12 3 -15 5 -3 6 -21 2 -39 -5 -18 -5
-41 -1 -52 4 -11 4 -30 -1 -42 -5 -13 -4 -25 2 -28 5 -4 7 -11 3 -16 -3 -6 -5
-36 -4 -67 1 -31 1 -63 1 -69 -2 -32 -2 -71 1 -106 2 -21 0 -41 -4 -44 -5 -2
-6 -8 -3 -13 3 -5 5 -44 5 -87 0 -76 0 -119 1 -165 0 -38 0 -132 0 -145 -1 -7
-1 -21 -1 -30 0 -10 0 -34 -1 -53 0 -19 0 -39 0 -45 2 -44 1 -125 -2 -145 -2
-14 0 -32 4 -40 4 -9 4 -31 0 -50 -4 -19 -4 -54 -1 -78 4 -23 3 -45 -2 -48 -4
-3 -4 -12 1 -21 5 -9 5 -28 1 -43 -4 -15 -4 -33 0 -40 4 -6 4 -26 0 -44 -4
-17 -4 -40 0 -51 4 -11 4 -34 0 -52 -4 -18 -5 -34 -3 -37 5 -5 5 -95 0 -136
-2 -14 0 -32 4 -40 4 -9 4 -31 0 -50 -4 -19 -4 -54 -1 -78 4 -23 3 -45 -2 -48
-4 -3 -4 -12 1 -21 5 -9 5 -29 1 -44 -5 -15 -6 -30 -3 -33 3 -2 4 -37 4 -75
-2 -104 -2 -122 1 -164 2 -21 0 -41 -4 -44 -5 -2 -6 -8 -3 -13 3 -5 5 -44 5
-87 0 -76 0 -119 1 -165 0 -13 0 -45 0 -73 0 -27 1 -63 2 -80 2 -16 -1 -40 -5
-52 -4 -12 -3 -25 1 -28 5 -3 6 -20 2 -38 -5 -18 -5 -41 -1 -52 4 -11 4 -30
-1 -42 -5 -12 -4 -25 0 -28 5 -3 6 -20 2 -37 -4 -18 -5 -44 -4 -58 2 -14 3
-41 2 -60 0 -19 0 -39 0 -45 2 -44 1 -125 -2 -145 -2 -14 0 -32 4 -40 4 -9 4
-31 0 -50 -4 -19 -4 -54 -1 -78 4 -23 3 -45 -2 -48 -4 -3 -4 -12 1 -21 5 -9 5
-29 1 -44 -5 -15 -6 -30 -3 -33 8 -8 7 -112 -1 -125 -4 -5 -2 -12 3 -15 5 -3
6 -21 2 -39 -5 -18 -5 -41 -1 -52 4 -11 4 -30 -1 -42 -5 -13 -4 -25 2 -28 5
-4 7 -11 3 -16 -3 -6 -5 -36 -4 -67 1 -31 1 -63 1 -69 -2 -32 -2 -71 1 -106 2
-21 0 -41 -4 -44 -5 -2 -6 -8 -3 -13 3 -5 5 -44 5 -87 0 -76 0 -119 1 -165 0
-38 0 -132 0 -145 -1 -7 -1 -21 -1 -30 0 -10 0 -34 -1 -53 0 -19 0 -39 0 -45
2 -44 1 -125 -2 -145 -2 -14 0 -32 4 -40 4 -9 4 -31 0 -50 -4 -19 -4 -54 -1
-78 4 -23 3 -45 -2 -48 -4 -3 -4 -12 1 -21 5 -9 5 -28 1 -43 -4 -15 -4 -33 0
-40 4 -6 4 -26 0 -44 -4 -17 -4 -40 0 -51 4 -11 4 -34 0 -52 -4 -18 -5 -34 -3
-37 5 -5 5 -95 0 -136 -2 -14 0 -32 4 -40 4 -9 4 -31 0 -50 -4 -19 -4 -54 -1
-78 4 -23 3 -45 -2 -48 -4 -3 -4 -12 1 -21 5 -9 5 -29 1 -44 -5 -15 -6 -30 -3
-33 3 -2 4 -37 4 -75 -1 -39 -2 -84 -1 -101 0 -16 1 -40 1 -52 0 -13 0 -48 0
-78 0 -30 1 -82 2 -114 l2 -59 50 -29 c28 -16 62 -34 78 -41 15 -6 27 -15 27
-19 0 -4 7 -8 15 -8 8 0 15 -5 15 -11 0 -5 4 -8 9 -5 5 3 14 -1 21 -9 7 -8 16
-15 20 -15 7 0 116 -62 160 -91 8 -5 26 -15 40 -22 14 -7 44 -25 67 -40 24
-15 45 -27 48 -27 3 0 22 -11 43 -23 20 -13 57 -35 82 -49 25 -14 84 -48 132
-77 48 -28 91 -51 97 -51 6 0 11 -3 11 -7 0 -5 23 -19 50 -32 28 -14 50 -29
50 -33 0 -4 9 -8 20 -8 11 0 20 -4 20 -8 0 -4 22 -19 50 -33 27 -13 50 -27 50
-31 0 -5 5 -8 11 -8 10 0 78 -39 171 -97 21 -13 40 -23 43 -23 3 0 5 1449 5
3221 0 2787 2 3220 14 3216 8 -3 81 -44 161 -91 81 -47 151 -86 156 -86 5 0 9
-4 9 -10 0 -5 4 -10 9 -10 5 0 48 -22 96 -50 48 -27 90 -50 95 -50 5 0 10 -3
12 -7 4 -10 57 -42 80 -50 10 -3 18 -9 18 -14 0 -5 5 -9 10 -9 6 0 75 -37 153
-83 79 -46 150 -86 157 -90 8 -4 33 -18 55 -32 22 -14 47 -28 55 -32 8 -3 34
-19 57 -35 23 -15 45 -28 49 -28 3 0 40 -20 81 -45 40 -25 75 -45 77 -45 3 0
91 -51 156 -90 83 -50 244 -140 251 -140 5 0 9 -4 9 -10 0 -5 4 -10 9 -10 6 0
61 -30 123 -67 62 -36 138 -80 168 -96 30 -16 71 -40 90 -53 19 -13 40 -24 46
-24 7 0 14 -4 16 -8 2 -4 30 -23 63 -41 75 -42 98 -56 208 -120 49 -28 93 -51
98 -51 5 0 9 -4 9 -10 0 -5 4 -10 10 -10 5 0 44 -20 86 -45 41 -25 80 -45 85
-45 5 0 9 -4 9 -9 0 -5 8 -11 18 -15 9 -3 44 -22 77 -42 33 -19 68 -38 78 -41
9 -3 17 -9 17 -14 0 -5 6 -9 13 -9 6 0 32 -14 56 -30 41 -28 46 -29 67 -15 20
13 73 43 139 79 11 6 27 16 35 22 8 6 35 23 60 36 25 14 65 37 90 52 25 15 57
32 73 39 15 6 27 15 27 19 0 4 4 8 10 8 5 0 33 15 62 32 55 34 76 46 150 87
23 13 135 77 247 142 112 66 207 119 212 119 5 0 9 5 9 10 0 6 4 10 8 10 7 0
126 66 182 101 26 16 252 144 305 173 11 6 22 13 25 16 9 9 84 51 113 63 15 6
27 15 27 19 0 4 5 8 11 8 6 0 23 8 37 19 15 10 50 31 77 45 28 15 64 36 80 47
17 10 36 22 43 25 12 6 239 137 347 200 22 13 52 29 68 36 15 7 27 16 27 20 0
4 6 8 14 8 8 0 21 6 28 13 7 6 31 21 53 32 22 11 42 23 45 26 3 3 39 24 80 47
41 23 93 54 115 67 22 14 52 30 68 36 15 6 27 15 27 20 0 5 5 9 10 9 6 0 40
18 76 40 36 22 68 40 71 40 3 0 18 9 33 20 20 14 29 16 32 7 2 -6 4 -376 4
-822 l-1 -809 -75 -43 c-41 -23 -80 -46 -87 -52 -7 -6 -14 -11 -17 -11 -3 0
-43 -23 -90 -50 -47 -28 -88 -50 -92 -50 -4 0 -15 -6 -23 -14 -9 -8 -43 -28
-76 -46 -33 -18 -62 -35 -65 -39 -3 -3 -21 -14 -40 -24 -19 -9 -51 -27 -70
-38 -128 -76 -188 -109 -198 -109 -7 0 -12 -4 -12 -8 0 -5 -15 -16 -32 -25
-18 -9 -53 -28 -78 -43 -108 -64 -448 -259 -475 -273 -16 -9 -32 -19 -35 -22
-3 -3 -30 -19 -60 -36 -30 -17 -71 -40 -90 -51 -19 -12 -46 -27 -60 -35 -35
-19 -86 -49 -148 -86 -29 -17 -55 -31 -57 -31 -3 0 -29 -16 -60 -35 -30 -20
-55 -32 -55 -28 0 4 -4 3 -8 -3 -7 -11 -22 -21 -132 -82 -25 -14 -48 -29 -51
-34 -3 -6 -10 -10 -15 -10 -9 0 -79 -39 -219 -121 -38 -23 -79 -47 -90 -53
-94 -51 -331 -190 -333 -196 -2 -5 -8 -8 -13 -8 -6 0 -64 -32 -129 -70 -65
-39 -123 -70 -128 -70 -6 0 -12 -6 -14 -12 -4 -11 -3 -1577 1 -1602 0 -5 7 -4
14 1 6 6 89 54 182 108 305 176 419 241 510 295 50 28 108 62 130 75 89 50
271 155 285 165 8 6 22 13 30 17 8 4 71 40 139 80 67 40 125 73 127 73 3 0 23
12 45 26 23 14 62 37 87 51 26 15 61 34 77 44 54 32 129 75 190 109 33 18 67
38 75 45 8 7 29 19 45 27 17 8 97 54 179 101 82 48 153 87 158 87 4 0 8 4 8 8
0 4 15 15 33 23 32 15 204 114 262 150 17 10 39 23 50 29 11 5 43 23 70 39 28
16 61 36 75 44 14 8 70 40 125 72 190 110 217 125 224 125 9 0 7 -1572 -2
-1587 -5 -7 -12 -13 -17 -13 -5 0 -43 -20 -83 -45 -41 -25 -80 -45 -86 -45 -6
0 -11 -4 -11 -8 0 -5 -22 -19 -50 -32 -27 -13 -50 -27 -50 -32 0 -4 -5 -8 -10
-8 -8 0 -317 -174 -390 -220 -8 -5 -37 -21 -65 -36 -27 -15 -61 -35 -74 -45
-13 -11 -30 -19 -37 -19 -8 0 -14 -4 -14 -10 0 -5 -6 -10 -13 -10 -7 0 -28
-11 -47 -23 -19 -13 -55 -35 -80 -49 -77 -43 -112 -63 -235 -135 -66 -38 -131
-76 -145 -84 -14 -8 -28 -18 -32 -24 -4 -5 -8 -6 -8 -1 0 5 -6 4 -12 -2 -17
-13 -341 -201 -428 -248 -19 -11 -37 -21 -40 -24 -8 -8 -41 -27 -97 -57 -29
-15 -53 -31 -53 -35 0 -4 -6 -8 -13 -8 -8 0 -43 -19 -78 -41 -35 -23 -65 -40
-65 -38 -1 2 -24 -11 -51 -28 -28 -18 -59 -36 -69 -40 -10 -4 -23 -11 -29 -15
-9 -8 -287 -170 -379 -221 -21 -12 -46 -27 -55 -32 -9 -6 -52 -30 -96 -54 -44
-25 -82 -47 -85 -51 -3 -4 -18 -13 -35 -22 -16 -8 -44 -23 -60 -33 l-30 -18 1
-796 c1 -438 2 -799 3 -803 0 -4 58 27 127 68 69 41 127 74 128 74 3 0 308
176 346 200 61 37 174 100 181 100 5 0 9 4 9 9 0 5 8 11 18 14 17 6 106 55
152 85 14 9 34 21 45 26 17 9 298 172 360 209 11 7 32 20 46 29 14 10 29 15
33 11 3 -3 6 -2 6 4 0 6 8 13 18 16 9 4 40 20 67 36 48 30 158 94 234 137 20
11 97 56 171 99 74 43 153 88 175 99 22 12 42 24 45 27 3 3 30 19 60 36 30 16
73 41 95 55 22 13 47 28 55 31 8 4 31 17 50 28 81 49 336 196 350 202 8 4 29
16 45 27 17 11 37 23 45 27 8 4 43 24 78 45 34 21 64 38 67 38 3 0 28 15 57
33 30 17 66 39 81 47 15 8 158 91 319 184 161 93 306 177 323 185 16 9 32 18
35 21 9 11 273 160 282 160 4 0 8 5 8 10 0 6 5 10 10 10 6 0 77 39 158 86 81
48 167 98 192 111 l45 23 0 4030 c0 2217 0 4030 0 4030 0 0 -30 -17 -66 -38z"/>
</g>
</svg>
