<svg width="68" height="71" viewBox="0 0 68 71" fill="none" xmlns="http://www.w3.org/2000/svg">
<rect x="18" y="21" width="50" height="50" rx="1" fill="#86C7FF" fill-opacity="0.3"/>
<path d="M59.4374 18.6503L56.1055 20.0964C58.2668 25.0768 58.895 30.5445 57.9222 35.9089C56.9269 41.3962 54.3081 46.3895 50.3489 50.3488C45.6712 55.0265 39.4649 57.8501 32.8733 58.2993C32.2485 58.3421 31.6253 58.363 31.0025 58.363C25.6582 58.3628 20.4313 56.8038 15.9838 53.8805C16.2659 53.175 16.4148 52.4155 16.4148 51.6329C16.4148 50.0175 15.7858 48.4989 14.6436 47.3567C13.5013 46.2144 11.9827 45.5853 10.3673 45.5853C8.75204 45.5853 7.2334 46.2144 6.09112 47.3567C4.94885 48.4989 4.31989 50.0175 4.31989 51.6329C4.31989 53.2481 4.94897 54.7668 6.09112 55.9089C7.2334 57.0512 8.75204 57.6803 10.3673 57.6803C11.5575 57.6803 12.6946 57.3377 13.668 56.701C18.7769 60.1517 24.8203 61.9952 31.0028 61.9952C31.7072 61.9952 32.4135 61.9714 33.1202 61.9231C40.5878 61.414 47.6185 58.2157 52.9172 52.917C57.4017 48.4323 60.3682 42.7751 61.496 36.5568C62.5975 30.4837 61.8857 24.2917 59.4374 18.6503ZM10.3673 54.048C9.03346 54.048 7.95209 52.9666 7.95209 51.6328C7.95209 50.2989 9.03334 49.2175 10.3673 49.2175C11.7013 49.2175 12.7825 50.2988 12.7825 51.6328C12.7825 52.9667 11.7013 54.048 10.3673 54.048Z" fill="white"/>
<path d="M31.0001 12.7825C20.9549 12.7825 12.7824 20.9549 12.7824 31.0001C12.7824 41.0453 20.9548 49.2178 31.0001 49.2178C41.0454 49.2178 49.2178 41.0453 49.2178 31.0001C49.2178 20.9549 41.0454 12.7825 31.0001 12.7825ZM32.8163 45.4726V42.3594H29.184V45.4726C22.5906 44.65 17.3502 39.4096 16.5276 32.8163H19.6408V29.184H16.5276C17.3502 22.5906 22.5906 17.3503 29.184 16.5277V19.6409H32.8163V16.5277C39.4096 17.3503 44.6499 22.5906 45.4725 29.184H42.3593V32.8163H45.4725C44.65 39.4096 39.4096 44.65 32.8163 45.4726Z" fill="white"/>
<path d="M29.1839 31.545L25.5821 34.5245L27.8973 37.3232L32.8162 33.2544V23.5485H29.1839V31.545Z" fill="white"/>
<path d="M55.9092 6.09157C54.767 4.9493 53.2483 4.32021 51.6331 4.32021C50.443 4.32021 49.3059 4.66267 48.3326 5.29926C42.6477 1.45937 35.806 -0.390938 28.9021 0.0758781C21.426 0.580112 14.3875 3.77905 9.08325 9.08344C4.53909 13.6276 1.55837 19.3651 0.463195 25.6756C-0.607153 31.844 0.186011 38.1071 2.75695 43.7879L6.06608 42.2904C3.79642 37.2754 3.0965 31.7449 4.042 26.2967C5.00833 20.7278 7.6397 15.6637 11.6517 11.6517C16.3343 6.9689 22.5475 4.14487 29.1466 3.69973C35.1291 3.29624 41.0562 4.86041 46.0164 8.12074C45.7343 8.82599 45.5855 9.58513 45.5855 10.3675C45.5855 11.9829 46.2145 13.5015 47.3568 14.6437C48.499 15.786 50.0177 16.4151 51.6331 16.4151C53.2483 16.4151 54.767 15.786 55.9091 14.6438C57.0514 13.5015 57.6805 11.9829 57.6805 10.3675C57.6805 8.75237 57.0514 7.23373 55.9092 6.09157ZM51.6331 12.7828C50.2992 12.7828 49.2178 11.7016 49.2178 10.3676C49.2178 9.03379 50.2991 7.95254 51.6331 7.95254C52.967 7.95254 54.0483 9.03379 54.0483 10.3676C54.0482 11.7015 52.9669 12.7828 51.6331 12.7828Z" fill="white"/>
</svg>
