<svg width="68" height="71" viewBox="0 0 68 71" fill="none" xmlns="http://www.w3.org/2000/svg">
<rect x="18" y="21" width="50" height="50" rx="1" fill="#86C7FF" fill-opacity="0.3"/>
<path d="M31.0001 6.98773C21.3908 6.98773 13.5731 14.8054 13.5731 24.4147C13.5731 34.024 21.3908 41.8416 31.0001 41.8416C40.6093 41.8416 48.427 34.024 48.427 24.4147C48.427 14.8054 40.6093 6.98773 31.0001 6.98773ZM31.0001 38.2145C23.3908 38.2145 17.2004 32.024 17.2004 24.4148C17.2004 16.8056 23.3908 10.6151 31.0001 10.6151C38.6093 10.6151 44.7998 16.8056 44.7998 24.4148C44.7998 32.024 38.6093 38.2145 31.0001 38.2145Z" fill="white"/>
<path d="M55.4147 24.4147C55.4147 10.9523 44.4623 0 31 0C17.5378 0 6.58521 10.9523 6.58521 24.4147C6.58521 33.102 11.1469 40.7431 18 45.0713V62L31 56.919L44 62V45.0714C50.853 40.7431 55.4147 33.102 55.4147 24.4147ZM40.3728 56.6879L31 53.0245L21.6272 56.6879V46.9576C24.5148 48.1627 27.6809 48.8296 31 48.8296C34.3192 48.8296 37.4853 48.1627 40.3728 46.9576V56.6879ZM31 45.2023C19.5377 45.2023 10.2124 35.877 10.2124 24.4147C10.2124 12.9524 19.5377 3.62724 31 3.62724C42.4623 3.62724 51.7876 12.9524 51.7876 24.4147C51.7876 35.877 42.4622 45.2023 31 45.2023Z" fill="white"/>
<path d="M33.3585 21.543L31 16.7775L28.6412 21.543L23.3801 22.3135L27.1835 26.0294L26.2906 31.2713L31 28.8022L35.7092 31.2713L34.8163 26.0294L38.6197 22.3135L33.3585 21.543Z" fill="white"/>
</svg>
