<svg width="71" height="71" viewBox="0 0 71 71" fill="none" xmlns="http://www.w3.org/2000/svg">
<rect x="21" y="21" width="50" height="50" rx="1" fill="#86C7FF" fill-opacity="0.3"/>
<g clip-path="url(#clip0)">
<path d="M31.0001 22.3458C28.8968 22.3458 27.1857 20.9461 27.1857 19.2256H23.5529C23.5529 22.3812 25.9525 25.0373 29.1837 25.7746V28.5781H32.8165V25.7746C36.0478 25.0373 38.4474 22.3812 38.4474 19.2256C38.4474 15.5019 35.1065 12.4727 31.0001 12.4727C28.8968 12.4727 27.1857 11.0729 27.1857 9.35256C27.1857 7.63218 28.8968 6.23233 31.0001 6.23233C33.1034 6.23233 34.8146 7.63205 34.8146 9.35256H38.4474C38.4474 6.19697 36.0478 3.54078 32.8165 2.80356V0H29.1837V2.80356C25.9525 3.54078 23.5529 6.19685 23.5529 9.35256C23.5529 13.0762 26.8937 16.1055 31.0001 16.1055C33.1034 16.1055 34.8146 17.5052 34.8146 19.2256C34.8146 20.9459 33.1035 22.3458 31.0001 22.3458Z" fill="white"/>
<path d="M60.176 30.2614C59.0516 29.1835 57.5732 28.6004 56.0172 28.6158C54.4597 28.6325 52.9957 29.2485 51.8913 30.3538L41.9848 40.3231H38.0968C38.3855 39.6288 38.5449 38.8676 38.5449 38.0698C38.5449 34.8243 35.9059 32.1838 32.6619 32.1838H19.2927C15.8302 32.1838 12.5756 33.5327 10.1282 35.9819L0 46.3733V62H9.07852L18.4042 54.0003H45.6315L60.2812 38.7097C61.4066 37.5757 62.0168 36.0722 61.9998 34.4738C61.9824 32.8686 61.3348 31.3725 60.176 30.2614ZM57.6968 36.1566L44.081 50.3676H17.0596L7.73389 58.3672H3.63281V47.8508L12.7058 38.5417C14.466 36.7842 16.8047 35.8164 19.2927 35.8164H32.662C33.9027 35.8164 34.9122 36.8271 34.9122 38.0696C34.9122 39.312 33.9029 40.3229 32.662 40.3229H20.6879V43.9557H43.4964L54.4648 32.9178C55.3371 32.0449 56.7712 32.0295 57.6618 32.8835C58.11 33.3131 58.3605 33.8917 58.3672 34.5127C58.3737 35.1336 58.1357 35.7174 57.6968 36.1566Z" fill="white"/>
</g>
<defs>
<clipPath id="clip0">
<rect width="62" height="62" fill="white"/>
</clipPath>
</defs>
</svg>
