<svg width="67" height="71" viewBox="0 0 67 71" fill="none" xmlns="http://www.w3.org/2000/svg">
<rect x="17" y="21" width="50" height="50" rx="1" fill="#86C7FF" fill-opacity="0.3"/>
<g clip-path="url(#clip0)">
<path d="M52.5524 48.0259L40.2085 44.8795L39.584 40.0748C41.6295 38.0416 43.0286 35.2925 43.4179 32.2109H47.3135C49.8697 32.2109 51.9492 30.1314 51.9492 27.5753V22.6105C51.9492 21.1316 51.2523 19.8132 50.1705 18.9639C50.0577 8.48794 41.5021 0 31 0C20.4979 0 11.9423 8.48794 11.8295 18.9639C10.7477 19.8134 10.0508 21.1316 10.0508 22.6105V27.5753C10.0508 30.1314 12.1303 32.2109 14.6864 32.2109H18.582C18.9713 35.2924 20.3704 38.0415 22.4158 40.0746L21.7914 44.8795L9.44761 48.0259C3.88493 49.4437 0 54.4431 0 60.1836V62H62V60.1836C62 54.4431 58.1151 49.4437 52.5524 48.0259ZM41.1704 48.8737L38.4637 57.0467L33.7647 53.0301L39.0516 48.3337L41.1704 48.8737ZM31 55.4459L34.4176 58.3672H27.5824L31 55.4459ZM39.8959 30.4553C39.8959 35.7412 35.9053 40.0417 31 40.0417C28.4345 40.0417 26.1206 38.8639 24.4956 36.9855H31V33.3527H22.5204C22.2507 32.4381 22.1041 31.465 22.1041 30.4553V21.6077H39.8959V30.4553ZM22.247 17.9749C22.9939 13.8198 26.6331 10.6562 31 10.6562C35.3669 10.6562 39.0061 13.8198 39.753 17.9749H22.247ZM48.3164 27.5753C48.3164 28.1283 47.8665 28.5781 47.3136 28.5781H43.5287V21.6077H47.3136C47.8665 21.6077 48.3164 22.0576 48.3164 22.6105V27.5753ZM31 3.63281C39.1658 3.63281 45.8807 9.96372 46.4945 17.9749H43.5287H43.4298C42.6518 11.8083 37.3743 7.02344 31 7.02344C24.6257 7.02344 19.3482 11.8083 18.5702 17.9749H18.4713H15.5054C16.1193 9.96372 22.8342 3.63281 31 3.63281ZM13.6836 27.5753V22.6105C13.6836 22.0576 14.1335 21.6077 14.6864 21.6077H18.4713V28.5781H14.6864C14.1335 28.5781 13.6836 28.1283 13.6836 27.5753ZM31 43.6745C32.8664 43.6745 34.6385 43.241 36.2315 42.4654L36.641 45.616L31 50.6269L25.3591 45.6159L25.7685 42.4653C27.3615 43.2409 29.1336 43.6745 31 43.6745ZM22.9484 48.3336L28.2353 53.03L23.5363 57.0465L20.8296 48.8736L22.9484 48.3336ZM10.3449 51.5461L17.3008 49.7732L20.1469 58.3672H3.81869C4.4996 55.0842 6.99377 52.4003 10.3449 51.5461ZM41.8531 58.3672L44.6993 49.7732L51.6552 51.5461C55.0064 52.4003 57.5005 55.0842 58.1814 58.3672H41.8531Z" fill="#333333"/>
</g>
<defs>
<clipPath id="clip0">
<rect width="62" height="62" fill="white"/>
</clipPath>
</defs>
</svg>
