<svg width="72" height="72" viewBox="0 0 72 72" fill="none" xmlns="http://www.w3.org/2000/svg">
<rect x="21.738" y="22" width="49.4048" height="50" rx="1" fill="#86C7FF" fill-opacity="0.3"/>
<g clip-path="url(#clip0)">
<path d="M-0.352906 47.3969H10.7826V28.6235H3.28079V27.3529C3.28079 24.746 3.70473 22.2364 4.48536 19.8881H11.5957L12.1172 18.9649C15.1466 13.6025 20.8494 10.2713 26.9999 10.2713C33.1504 10.2713 38.8531 13.6025 41.8827 18.9649L42.4042 19.8881H49.5145C50.2951 22.2363 50.7191 24.7459 50.7191 27.3529V28.6235H43.2172V47.3968H46.9682V54.8485H32.0154C31.2706 52.7989 29.3037 51.3309 26.9999 51.3309C24.0584 51.3309 21.6654 53.7239 21.6654 56.6654C21.6654 59.6068 24.0584 61.9999 26.9999 61.9999C29.3037 61.9999 31.2706 60.5319 32.0154 58.4822H50.6019V47.3968H54.3528V27.3529C54.3528 20.0468 51.5076 13.1777 46.3413 8.01146C41.1751 2.84519 34.3062 0 26.9999 0C19.6937 0 12.8247 2.84519 7.65843 8.01158C2.49216 13.1777 -0.353027 20.0468 -0.353027 27.353V47.3969H-0.352906ZM7.14887 43.7632H3.28079V32.2573H7.14887V43.7632ZM26.9999 58.3663C26.062 58.3663 25.2991 57.6033 25.2991 56.6655C25.2991 55.7276 26.062 54.9647 26.9999 54.9647C27.9377 54.9647 28.7007 55.7276 28.7007 56.6655C28.7007 57.6033 27.9377 58.3663 26.9999 58.3663ZM50.7191 43.7632H46.8509V32.2573H50.7191V43.7632ZM44.4928 16.2544C40.7054 10.2961 34.0988 6.63756 26.9999 6.63756C19.901 6.63756 13.2945 10.2961 9.50702 16.2544H6.04301C10.0315 8.75346 17.9285 3.6337 26.9999 3.6337C36.0714 3.6337 43.9683 8.75346 47.9569 16.2544H44.4928Z" fill="white"/>
<path d="M27.0029 48.2211L30.5727 44.4251H38.5335V28.6318H15.4663V44.4252H23.4168L27.0029 48.2211ZM19.1 32.2655H34.8998V40.7915H29.0017L26.9969 42.9235L24.9828 40.7915H19.1V32.2655Z" fill="white"/>
</g>
<defs>
<clipPath id="clip0">
<rect width="54" height="62" fill="white"/>
</clipPath>
</defs>
</svg>
