<svg width="71" height="72" viewBox="0 0 71 72" fill="none" xmlns="http://www.w3.org/2000/svg">
<rect x="20.738" y="22" width="49.4048" height="50" rx="1" fill="#86C7FF" fill-opacity="0.3"/>
<path d="M52.9238 21.6098V0H9.07605V21.6098L0.00830078 26.3903V62H61.9916V26.3903L52.9238 21.6098ZM20.2791 42.0206L3.64131 56.2412V30.8874L20.2791 42.0206ZM23.4152 44.1192L30.9998 49.1945L38.5852 44.1187L55.2542 58.3669H6.74584L23.4152 44.1192ZM41.7216 42.0201L58.3586 30.8874V56.2411L41.7216 42.0201ZM56.6317 27.6714L52.9238 30.1525V25.7166L56.6317 27.6714ZM49.2908 3.63301V32.5836L30.9999 44.8231L12.7091 32.5836V3.63301H49.2908ZM9.07605 30.1527L5.3682 27.6714L9.07605 25.7166V30.1527Z" fill="white"/>
<path d="M25.2275 26.917L33.6577 15.6768L36.564 17.8566L28.1339 29.0967L25.2275 26.917Z" fill="white"/>
<path d="M24.5073 15.8662H28.1403V19.4995H24.5073V15.8662Z" fill="white"/>
<path d="M33.8596 24.8506H37.4926V28.4837H33.8596V24.8506Z" fill="white"/>
<path d="M30.9999 37.1106C39.2354 37.1106 45.9356 30.4105 45.9356 22.1749C45.9356 13.9394 39.2354 7.23926 30.9999 7.23926C22.7643 7.23926 16.0642 13.9394 16.0642 22.1749C16.0642 30.4105 22.7642 37.1106 30.9999 37.1106ZM30.9999 10.8723C37.2322 10.8723 42.3025 15.9426 42.3025 22.1749C42.3025 28.4072 37.2322 33.4776 30.9999 33.4776C24.7676 33.4776 19.6972 28.4072 19.6972 22.1749C19.6972 15.9426 24.7674 10.8723 30.9999 10.8723Z" fill="white"/>
</svg>
