<svg width="73" height="72" viewBox="0 0 73 72" fill="none" xmlns="http://www.w3.org/2000/svg">
<rect x="22.7381" y="22" width="49.4048" height="50" rx="1" fill="#86C7FF" fill-opacity="0.3"/>
<g clip-path="url(#clip0)">
<path d="M1.82355 0V62H45.5883V12.0094L33.5789 0L1.82355 0ZM34.6471 6.22589L39.3624 10.9412H34.6471V6.22589ZM5.47061 58.3529V3.64706H31V14.5882H41.9412V58.3529H5.47061Z" fill="white"/>
<path d="M29.8837 46.5723L22.6945 51.3651L24.7174 54.3997L28.4693 51.8984L29.873 54.7059H38.2941V51.0589H32.1271L29.8837 46.5723Z" fill="white"/>
<path d="M54.7059 7.29395C51.6895 7.29395 49.2354 9.74805 49.2354 12.7645V53.4145L54.7059 61.9851L60.1765 53.4145C60.1765 51.626 60.1765 14.8159 60.1765 12.7645C60.1765 9.74805 57.7224 7.29395 54.7059 7.29395ZM56.5295 23.7057H52.8824V20.0587H56.5295V23.7057ZM54.7059 10.941C55.7114 10.941 56.5295 11.759 56.5295 12.7645V16.4116H52.8824V12.7645C52.8824 11.759 53.7004 10.941 54.7059 10.941ZM56.5295 52.3498L54.7059 55.2067L52.8824 52.3498V49.2351H56.5295V52.3498ZM52.8824 45.5881V27.3528H56.5295V45.5881H52.8824Z" fill="white"/>
<path d="M9.11768 38.2939H38.2941V41.941H9.11768V38.2939Z" fill="white"/>
<path d="M9.11768 31H38.2941V34.6471H9.11768V31Z" fill="white"/>
<path d="M9.11768 23.7061H38.2941V27.3531H9.11768V23.7061Z" fill="white"/>
<path d="M9.11768 16.4121H23.7059V20.0592H9.11768V16.4121Z" fill="white"/>
<path d="M9.11768 9.11719H23.7059V12.7642H9.11768V9.11719Z" fill="white"/>
</g>
<defs>
<clipPath id="clip0">
<rect width="62" height="62" fill="white"/>
</clipPath>
</defs>
</svg>
