<svg width="72" height="72" viewBox="0 0 72 72" fill="none" xmlns="http://www.w3.org/2000/svg">
<rect x="21.738" y="22" width="49.4048" height="50" rx="1" fill="#86C7FF" fill-opacity="0.3"/>
<g clip-path="url(#clip0)">
<path d="M12.1255 25.3564H15.9736V28.9974H12.1255V25.3564Z" fill="white"/>
<path d="M62 27.1959C62 25.1208 60.9132 23.2961 59.2804 22.258C59.8507 21.3555 60.1825 20.2878 60.1825 19.1434C60.1825 15.9212 57.5609 13.2996 54.3388 13.2996H43.0196V10.6825C43.0196 5.56717 38.858 1.39041 33.7489 1.37176L30.4673 1.34863V5.49307C30.4673 8.3091 29.5239 11.0708 27.8058 13.298L21.0934 18.0291H4.66683V37.2759C1.81277 39.7132 0 43.3358 0 47.3743C0 54.6959 5.95648 60.6524 13.2781 60.6524C20.5996 60.6524 26.5561 54.6959 26.5561 47.3743C26.5561 46.5773 26.4854 45.7965 26.3501 45.0377L33.7959 49.1948H52.0557C55.2778 49.1948 57.8994 46.5733 57.8994 43.3511C57.8994 42.2836 57.6124 41.2827 57.114 40.4194C58.9397 39.4243 60.1824 37.4796 60.1824 35.2485C60.1824 34.104 59.8507 33.0362 59.2802 32.1338C60.9132 31.0956 62 29.2708 62 27.1959ZM8.30776 21.6699H19.8042V35.8143C17.8756 34.7213 15.6486 34.0961 13.2781 34.0961C11.5215 34.0961 9.84383 34.4398 8.30776 35.0622V21.6699ZM13.2781 57.0114C7.96409 57.0114 3.64093 52.6883 3.64093 47.3742C3.64093 42.0602 7.96409 37.7371 13.2781 37.7371C18.592 37.7371 22.9152 42.0602 22.9152 47.3742C22.9152 52.6883 18.592 57.0114 13.2781 57.0114ZM52.0557 45.5538H34.7434L26.7273 41.0782H24.9659C24.5347 40.281 24.024 39.533 23.4451 38.8441V20.826L30.4908 15.7731C32.8234 12.869 34.1081 9.21815 34.1081 5.49307V5.02649C37.0472 5.23259 39.3786 7.69455 39.3786 10.6824V16.9404H54.3386C55.5532 16.9404 56.5415 17.9287 56.5415 19.1432C56.5415 20.3591 55.5532 21.3485 54.3386 21.3485H51.2011V24.9894H56.1563C57.3708 24.9894 58.3591 25.9792 58.3591 27.1959C58.3591 28.4125 57.3708 29.4022 56.1563 29.4022H51.2011V33.0431H54.3386C55.5532 33.0431 56.5415 34.0324 56.5415 35.2483C56.5415 36.4816 55.5532 37.4848 54.3386 37.4848H51.2011V41.1257H52.0557C53.2702 41.1257 54.2585 42.124 54.2585 43.3511C54.2585 44.5657 53.2702 45.5538 52.0557 45.5538Z" fill="white"/>
<line x1="9.06066" y1="45.9393" x2="13.0607" y2="49.9393" stroke="white" stroke-width="3"/>
<line x1="19.0607" y1="44.0607" x2="12.0607" y2="51.0607" stroke="white" stroke-width="3"/>
</g>
<defs>
<clipPath id="clip0">
<rect width="62" height="62" fill="white"/>
</clipPath>
</defs>
</svg>
