<svg width="72" height="64" viewBox="0 0 72 64" fill="none" xmlns="http://www.w3.org/2000/svg">
<rect x="21.738" y="14" width="49.4048" height="50" rx="1" fill="#86C7FF" fill-opacity="0.3"/>
<g clip-path="url(#clip0)">
<path d="M62 34.5868C62 29.6706 58.7221 25.5061 54.2372 24.1623L46.7152 9.11816H29.1765V21.8829H25.5V9.5H0V23.0285V47.4123H7.52485C8.33669 50.5548 11.1956 52.8829 14.5882 52.8829C17.9807 52.8829 20.8398 50.5548 21.6516 47.4123H40.3485C41.1603 50.5548 44.0193 52.8829 47.4119 52.8829C50.8044 52.8829 53.6634 50.5548 54.4753 47.4123H62V34.5868ZM49.9318 23.7064H40.1176V12.7652H44.4612L49.9318 23.7064ZM29.1765 25.5299V29.177H3.64706V25.5299H29.1765ZM3.64706 12.5H18L22 12.5V21.8829H3.64706V12.5ZM14.5882 49.2358C12.5772 49.2358 10.9412 47.5997 10.9412 45.5888C10.9412 43.5778 12.5772 41.9417 14.5882 41.9417C16.5992 41.9417 18.2353 43.5778 18.2353 45.5888C18.2353 47.5997 16.5992 49.2358 14.5882 49.2358ZM21.6516 43.7652C20.8398 40.6227 17.9809 38.2946 14.5882 38.2946C11.1957 38.2946 8.33669 40.6227 7.52485 43.7652H3.64706V32.824H29.1765V43.7652H21.6516ZM47.4118 49.2358C45.4008 49.2358 43.7647 47.5997 43.7647 45.5888C43.7647 43.5778 45.4008 41.9417 47.4118 41.9417C49.4228 41.9417 51.0588 43.5778 51.0588 45.5888C51.0588 47.5997 49.4228 49.2358 47.4118 49.2358ZM54.4751 43.7652C53.6633 40.6227 50.8044 38.2946 47.4118 38.2946C44.0193 38.2946 41.1602 40.6227 40.3484 43.7652H32.8235C32.8235 42.2179 32.8235 13.8648 32.8235 12.7652H36.4706V27.3535H51.1196C53.8036 27.3535 56.149 28.824 57.3974 31.0005H51.0588V34.6476H58.3529V43.7652H54.4751Z" fill="white"/>
</g>
<defs>
<clipPath id="clip0">
<rect width="62" height="62" fill="white"/>
</clipPath>
</defs>
</svg>
