<svg width="71" height="72" viewBox="0 0 71 72" fill="none" xmlns="http://www.w3.org/2000/svg">
<rect x="20.738" y="22" width="49.4048" height="50" rx="1" fill="#86C7FF" fill-opacity="0.3"/>
<g clip-path="url(#clip0)">
<path d="M31 43.289C24.0713 43.289 18.4346 37.6522 18.4346 30.7236C18.4346 23.7949 24.0713 18.1582 31 18.1582C37.9285 18.1582 43.5653 23.7949 43.5653 30.7236C43.5653 37.6522 37.9285 43.289 31 43.289ZM31 21.7462C26.0498 21.7462 22.0226 25.7735 22.0226 30.7236C22.0226 35.6737 26.0498 39.701 31 39.701C35.9501 39.701 39.9773 35.6737 39.9773 30.7236C39.9773 25.7735 35.9501 21.7462 31 21.7462Z" fill="white"/>
<path d="M34.8158 61.5289L32.7429 55.8338C31.5826 55.9133 30.4177 55.9133 29.2572 55.8338L27.1843 61.5289L14.1216 56.7744L16.1944 51.0797C15.2555 50.3956 14.3637 49.6462 13.5261 48.8378L8.2757 51.8693L1.32516 39.8304L6.56985 36.8025C6.29058 35.6755 6.08942 34.5272 5.96826 33.3673L0 32.315L2.41388 18.6251L8.37856 19.6769C8.88925 18.6332 9.47313 17.6243 10.1252 16.6586L6.22971 12.0163L16.8785 3.08085L20.7714 7.72012C21.8351 7.24674 22.9307 6.848 24.0497 6.52699V0.470703H37.9507V6.52699C39.0695 6.84788 40.1655 7.24674 41.229 7.72012L45.122 3.08085L55.7706 12.0163L51.8752 16.6586C52.5272 17.6244 53.111 18.6335 53.6218 19.6769L59.5864 18.6251L62.0004 32.315L56.0322 33.3673C55.9109 34.5272 55.7099 35.6755 55.4306 36.8025L60.6753 39.8304L53.7248 51.869L48.4745 48.8375C47.6368 49.6459 46.7449 50.3953 45.8061 51.0794L47.8789 56.7742L34.8158 61.5289ZM35.1496 51.9554L36.9602 56.93L43.2798 54.6299L41.4689 49.6549L42.6728 48.8792C44.2028 47.8932 45.6079 46.7127 46.849 45.3705L47.8221 44.3181L52.4111 46.9677L55.7736 41.1437L51.1912 38.498L51.616 37.1292C52.1542 35.3954 52.4707 33.5882 52.557 31.7579L52.6245 30.3247L57.8436 29.4045L56.6758 22.7817L51.4642 23.7007L50.9096 22.3792C50.2062 20.7028 49.2874 19.1147 48.1786 17.6592L47.3092 16.518L50.7154 12.4585L45.5639 8.13573L42.1603 12.1918L40.8854 11.5337C39.2647 10.6971 37.5411 10.0699 35.7623 9.66935L34.3624 9.35421V4.05869H27.6375V9.35409L26.2375 9.66935C24.4586 10.0699 22.7351 10.6971 21.1146 11.5337L19.8397 12.1918L16.4361 8.13561L11.2845 12.4584L14.6908 16.518L13.8214 17.6592C12.7127 19.1145 11.7938 20.7025 11.0904 22.3792L10.5358 23.7006L5.32434 22.7817L4.15657 29.4045L9.37554 30.3247L9.44311 31.7579C9.52934 33.5881 9.84604 35.3954 10.3841 37.1292L10.8089 38.498L6.22648 41.1437L9.58902 46.9677L14.1782 44.3181L15.1512 45.3705C16.3923 46.7127 17.7974 47.8932 19.3274 48.8792L20.5313 49.6549L18.7206 54.6299L25.0401 56.93L26.8507 51.9554L28.2713 52.1345C30.0705 52.3614 31.9304 52.3614 33.7293 52.1345L35.1496 51.9554Z" fill="white"/>
</g>
<defs>
<clipPath id="clip0">
<rect width="62" height="62" fill="white"/>
</clipPath>
</defs>
</svg>
