<svg width="67" height="72" viewBox="0 0 67 72" fill="none" xmlns="http://www.w3.org/2000/svg">
<rect x="17" y="22" width="50" height="50" rx="1" fill="#86C7FF" fill-opacity="0.3"/>
<path d="M60.063 25.9233C59.5257 25.0647 59.0183 24.2536 58.8284 23.5435C58.6239 22.7783 58.656 21.7889 58.6901 20.7412C58.7448 19.0578 58.8068 17.1497 57.8498 15.4957C56.8795 13.8187 55.1827 12.9163 53.6858 12.1201C52.7721 11.6343 51.9093 11.1754 51.3669 10.633C50.8246 10.0907 50.3657 9.22775 49.8797 8.31422C49.0836 6.81707 48.1812 5.12037 46.504 4.15009C44.85 3.19312 42.9422 3.25463 41.2586 3.3098C40.2108 3.34361 39.2213 3.37583 38.4562 3.1714C37.746 2.98149 36.935 2.47402 36.0763 1.93677C34.6255 1.0291 32.9809 0 31 0C29.0191 0 27.3745 1.0291 25.9234 1.93689C25.0648 2.47414 24.2537 2.98174 23.5435 3.17152C22.7783 3.37595 21.789 3.34373 20.7412 3.30992C19.0579 3.255 17.1498 3.19324 15.4959 4.15022C13.8187 5.12049 12.9164 6.81732 12.1201 8.31435C11.6343 9.22787 11.1753 10.0909 10.633 10.6331C10.0907 11.1753 9.22787 11.6343 8.31422 12.1201C6.81719 12.9163 5.12049 13.8187 4.15009 15.4959C3.19312 17.1498 3.25512 19.0579 3.30968 20.7413C3.34373 21.789 3.37583 22.7785 3.17128 23.5438C2.98137 24.254 2.47402 25.065 1.93665 25.9236C1.0291 27.3745 0 29.0191 0 31C0 32.9809 1.0291 34.6255 1.93701 36.0767C2.47426 36.9353 2.98174 37.7464 3.17164 38.4565C3.37607 39.2217 3.34397 40.2112 3.30992 41.2588C3.25524 42.9422 3.19324 44.8503 4.15022 46.5043C5.12049 48.1813 6.81732 49.0837 8.31422 49.8799C9.22787 50.3657 10.0907 50.8246 10.6331 51.367C11.1754 51.9093 11.6343 52.7723 12.1203 53.6858C12.9164 55.1829 13.8188 56.8796 15.496 57.8499C17.15 58.8069 19.0577 58.7454 20.7414 58.6902C21.7891 58.6563 22.7787 58.6242 23.5438 58.8286C24.254 59.0185 25.065 59.526 25.9237 60.0632C27.3745 60.9709 29.0191 62 31 62C32.9809 62 34.6255 60.9709 36.0766 60.0631C36.9352 59.5259 37.7463 59.0183 38.4565 58.8285C39.2217 58.6239 40.211 58.6562 41.2588 58.6901C42.9421 58.7452 44.8503 58.8069 46.5042 57.8498C48.1813 56.8795 49.0836 55.1827 49.8799 53.6857C50.3657 52.7721 50.8247 51.9091 51.367 51.3669C51.9093 50.8247 52.7721 50.3657 53.6858 49.8799C55.1828 49.0837 56.8795 48.1813 57.8499 46.5042C58.8069 44.8502 58.7449 42.9421 58.6903 41.2587C58.6563 40.211 58.6242 39.2215 58.8287 38.4562C59.0186 37.746 59.526 36.935 60.0634 36.0764C60.9709 34.6255 62 32.9809 62 31C62 29.0191 60.9709 27.3745 60.063 25.9233ZM56.9592 34.1344C56.3022 35.1843 55.6229 36.2699 55.2912 37.511C54.9469 38.7993 54.9894 40.11 55.0305 41.3777C55.073 42.6866 55.1131 43.9228 54.6805 44.6706C54.2349 45.4408 53.1329 46.0267 51.9663 46.6472C50.8554 47.238 49.7068 47.8489 48.7778 48.7779C47.8487 49.7069 47.2378 50.8555 46.6471 51.9664C46.0266 53.1331 45.4405 54.2351 44.6705 54.6806C43.9227 55.1132 42.6864 55.0732 41.3776 55.0306C40.11 54.9895 38.7993 54.9468 37.511 55.2912C36.2699 55.6229 35.1843 56.3022 34.1343 56.9592C33.0007 57.6685 31.9299 58.3386 31 58.3386C30.0701 58.3386 28.9994 57.6685 27.8657 56.9592C26.8157 56.3022 25.7301 55.6229 24.489 55.2912C23.6249 55.0602 22.7507 55.0034 21.8861 55.0034C21.4618 55.0034 21.0397 55.0171 20.6224 55.0307C19.3135 55.0731 18.0773 55.1135 17.3295 54.6807C16.5594 54.2352 15.9734 53.1331 15.3529 51.9665C14.7621 50.8556 14.1513 49.707 13.2222 48.778C12.2932 47.849 11.1445 47.238 10.0336 46.6472C8.86698 46.0267 7.76501 45.4406 7.31954 44.6708C6.88688 43.9229 6.92704 42.6866 6.96951 41.3778C7.01064 40.1102 7.05323 38.7994 6.70894 37.5111C6.37721 36.2701 5.6979 35.1845 5.04104 34.1347C4.33146 33.0008 3.66142 31.9299 3.66142 31C3.66142 30.0701 4.33146 28.9993 5.0408 27.8656C5.69778 26.8157 6.37709 25.7301 6.70882 24.489C7.05311 23.2007 7.01064 21.89 6.96951 20.6223C6.92704 19.3134 6.88688 18.0772 7.31954 17.3294C7.76513 16.5592 8.8671 15.9733 10.0337 15.3528C11.1446 14.762 12.2932 14.1511 13.2222 13.2221C14.1513 12.2931 14.7622 11.1445 15.3529 10.0336C15.9734 8.86685 16.5595 7.76489 17.3295 7.31942C18.0774 6.88676 19.3137 6.92704 20.6224 6.96939C21.89 7.01076 23.2008 7.05335 24.489 6.70882C25.7301 6.37709 26.8157 5.69778 27.8657 5.0408C28.9993 4.33146 30.0701 3.66142 31 3.66142C31.9299 3.66142 33.0006 4.33146 34.1343 5.0408C35.1843 5.69778 36.2699 6.37709 37.511 6.70882C38.7992 7.05311 40.1101 7.01064 41.3776 6.96939C42.6866 6.92716 43.9227 6.88676 44.6705 7.31942C45.4406 7.76489 46.0266 8.86698 46.6471 10.0336C47.2379 11.1445 47.8487 12.2931 48.7778 13.2221C49.7068 14.1511 50.8555 14.7621 51.9664 15.3529C53.133 15.9734 54.235 16.5595 54.6805 17.3294C55.1131 18.0773 55.073 19.3135 55.0305 20.6223C54.9894 21.8899 54.9468 23.2007 55.2911 24.489C55.6228 25.73 56.3021 26.8156 56.959 27.8655C57.6685 28.9992 58.3386 30.0701 58.3386 31C58.3386 31.9299 57.6685 33.0007 56.9592 34.1344Z" fill="white"/>
<path d="M27.5955 34.7701L22.5306 29.7052L19.9417 32.2941L27.5433 39.8958L42.0315 25.9872L39.4959 23.3457L27.5955 34.7701Z" fill="white"/>
<path d="M31 9.6416C19.223 9.6416 9.64172 19.2229 9.64172 30.9999C9.64172 42.7768 19.223 52.3581 31 52.3581C42.7769 52.3581 52.3583 42.7768 52.3583 30.9999C52.3583 19.2229 42.7769 9.6416 31 9.6416ZM31 48.6967C21.2419 48.6967 13.3031 40.7579 13.3031 30.9999C13.3031 21.2418 21.2419 13.303 31 13.303C40.758 13.303 48.6968 21.2418 48.6968 30.9999C48.6968 40.7579 40.758 48.6967 31 48.6967Z" fill="white"/>
</svg>
