<svg width="67" height="72" viewBox="0 0 67 72" fill="none" xmlns="http://www.w3.org/2000/svg">
<rect x="17" y="22" width="50" height="50" rx="1" fill="#86C7FF" fill-opacity="0.3"/>
<path d="M50.3396 46.4552L40.5484 48.5111C41.1215 45.7257 39.6735 42.9083 37.006 41.8505L21.6322 35.3897C20.3842 34.8654 19.0652 34.5996 17.712 34.5996C14.6244 34.5996 11.8571 35.9912 9.99956 38.1783L0 42.1921V60.1199L15.4049 54.9512L34.1528 62.0002L62 56.2587L61.5277 53.9046C60.4971 48.7662 55.4781 45.4249 50.3396 46.4552ZM34.4485 58.224L15.4743 51.0897L3.63887 55.0608V44.6524L7.74068 43.0059C7.64525 43.5631 7.5927 44.1348 7.5927 44.7188V46.1935H11.2314V44.7188C11.2314 41.1455 14.1385 38.2384 17.712 38.2384C18.5787 38.2384 19.4236 38.4087 20.2227 38.7444L35.615 45.213L35.6562 45.2297C36.7438 45.6558 37.2998 46.945 36.8953 48.1031C36.684 48.7086 36.2564 49.1851 35.6914 49.4447C35.1657 49.6862 34.5845 49.7051 34.0552 49.4977L21.3672 44.5258L20.0397 47.9136L32.7276 52.8856C33.4029 53.1502 34.1068 53.276 34.8102 53.2821C36.3602 53.2954 51.0639 50.0214 51.0639 50.0214C52.5976 49.7162 54.1583 50.0251 55.4601 50.8918C56.4195 51.5307 57.1537 52.4161 57.5974 53.4514L34.4485 58.224Z" fill="white"/>
<path d="M42.7784 38.443C53.3772 38.443 61.9999 29.8203 61.9999 19.2216C61.9999 8.62284 53.3772 0 42.7784 0C32.1797 0 23.5568 8.62272 23.5568 19.2215C23.5568 29.8202 32.1796 38.443 42.7784 38.443ZM40.962 3.73925V7.1673H44.5948V3.73925C51.7417 4.5725 57.4275 10.2583 58.2607 17.4052H54.8327V21.038H58.2607C57.4275 28.1848 51.7418 33.8706 44.5948 34.7039V31.276H40.962V34.7039C33.8152 33.8706 28.1293 28.1848 27.2961 21.038H30.724V17.4052H27.2961C28.1293 10.2583 33.8152 4.5725 40.962 3.73925Z" fill="white"/>
<path d="M44.5949 21.5619V11.3145H40.9621V19.8523L37.0995 23.0472L39.415 25.8466L44.5949 21.5619Z" fill="white"/>
</svg>
