<svg width="79" height="62" viewBox="0 0 79 62" fill="none" xmlns="http://www.w3.org/2000/svg">
<rect x="40" y="22" width="49.4048" height="50" rx="1" fill="#86C7FF" fill-opacity="0.3"/>
<path d="M15.7059 0L-0.441132 -7.05811e-07L-0.441134 62L15.7059 62L15.7059 0ZM3.1471 58.353L3.1471 54.7059L6.73534 54.7059L6.73534 51.0588L3.1471 51.0588L3.1471 47.4118L8.52946 47.4118L8.52946 43.7647L3.1471 43.7647L3.1471 40.1177L6.73534 40.1177L6.73534 36.4706L3.1471 36.4706L3.1471 32.8235L8.52946 32.8235L8.52946 29.1765L3.1471 29.1765L3.1471 25.5294L6.73534 25.5294L6.73534 21.8824L3.1471 21.8824L3.1471 18.2353L8.52946 18.2353L8.52946 14.5882L3.1471 14.5882L3.1471 10.9412L6.73534 10.9412L6.73534 7.29412L3.1471 7.29412L3.14711 3.64706L12.1177 3.64706L12.1177 58.353L3.1471 58.353Z" fill="white"/>
<path d="M79 61.9984H63.0942L58.3528 48.7961H39.1145L34.6323 61.9984H19L41.6918 0.00146484H55.7036L79 61.9984ZM65.5393 58.3658H73.8639L53.2975 3.6341H44.1206L24.088 58.3658H32.1401L36.6223 45.1635H60.7979L65.5393 58.3658ZM58.5536 39.0033H38.7585L48.5572 10.1892L58.5536 39.0033ZM43.72 35.3706H53.5589L48.5903 21.0491L43.72 35.3706Z" fill="white"/>
</svg>
