<svg width="62" height="62" viewBox="0 0 62 62" fill="none" xmlns="http://www.w3.org/2000/svg">
<rect x="21.7262" y="22" width="49.4048" height="50" rx="1" fill="#86C7FF" fill-opacity="0.3"/>
<path d="M43.5819 4.46178C38.8879 0.646965 32.7353 -0.81839 26.7005 0.441711C18.8594 2.07914 12.6749 8.51176 11.311 16.4487C10.0997 23.4983 12.5802 30.4669 17.9463 35.0898C20.4628 37.2577 21.9061 40.6573 21.9061 44.4167V52.9179C21.9061 57.9258 25.9803 62 30.9881 62C35.9959 62 40.0701 57.9258 40.0701 52.9179C40.0701 52.0912 40.0701 45.1551 40.0701 44.2896C40.0701 40.7742 41.7068 37.2996 44.6786 34.5061C48.7348 30.6932 50.9686 25.5325 50.9686 19.9744C50.9686 13.9313 48.2763 8.2772 43.5819 4.46178ZM30.9881 58.3671C28.6201 58.3671 26.6011 56.8485 25.8513 54.7343H36.1249C35.3751 56.8485 33.3561 58.3671 30.9881 58.3671ZM36.4373 51.1015H25.5389V47.2205H36.4373V51.1015ZM42.1905 31.8591C38.6725 35.1661 36.6532 39.3068 36.4537 43.5877H25.52C25.3147 39.0964 23.4443 35.0313 20.3173 32.3374C15.9264 28.5547 13.8979 22.845 14.8912 17.0639C16.0047 10.5839 21.049 5.33293 27.4431 3.99775C32.4019 2.96228 37.4492 4.1588 41.2906 7.28097C45.1325 10.4034 47.3358 15.0299 47.3358 19.9744C47.3358 24.5194 45.5085 28.7401 42.1905 31.8591Z" fill="white"/>
<path d="M29.1717 10.8923H32.8045V29.0564H29.1717V10.8923Z" fill="white"/>
<path d="M29.1717 32.6892H32.8045V36.322H29.1717V32.6892Z" fill="white"/>
<path d="M0.640839 3.09521L3.20924 0.526816L10.4738 7.79136L7.90538 10.3598L0.640839 3.09521Z" fill="white"/>
<path d="M0.637939 36.8501L7.90248 29.5856L10.4709 32.154L3.20634 39.4185L0.637939 36.8501Z" fill="white"/>
<path d="M51.4945 7.79639L58.759 0.531845L61.3274 3.10024L54.0629 10.3648L51.4945 7.79639Z" fill="white"/>
<path d="M51.4916 32.1599L54.06 29.5915L61.3246 36.8561L58.7562 39.4244L51.4916 32.1599Z" fill="white"/>
</svg>
