<svg width="72" height="71" viewBox="0 0 72 71" fill="none" xmlns="http://www.w3.org/2000/svg">
<rect x="21.6667" y="21" width="49.4048" height="50" rx="1" fill="#86C7FF" fill-opacity="0.3"/>
<path d="M62 2.59747L59.4401 0.0229492L52.4182 7.00517C48.8818 4.05464 44.4676 2.44765 39.8049 2.44765C34.5387 2.44765 29.5866 4.49745 25.8608 8.21934L0 34.0558L27.8843 61.9765L53.7493 36.1362C61.0136 28.8793 61.4258 17.3207 54.9838 9.57413L62 2.59747ZM51.1833 33.5678L27.8873 56.8417L5.13392 34.0586L28.4267 10.7879C31.4669 7.75088 35.5077 6.0783 39.8049 6.0783C43.4929 6.0783 46.9903 7.31074 49.8298 9.57897L45.5125 13.8719C44.8643 13.5838 44.1574 13.4308 43.4267 13.4308C42.0558 13.4308 40.7667 13.9643 39.7967 14.933C37.7925 16.9345 37.7903 20.1935 39.792 22.1977C40.7625 23.1695 42.0534 23.7046 43.4267 23.7046C44.7976 23.7046 46.0867 23.1712 47.0568 22.2024C48.6178 20.6433 48.9638 18.3216 48.0949 16.4241L52.397 12.1462C57.4374 18.4638 57.0324 27.7247 51.1833 33.5678ZM44.9334 18.566C44.9334 19.4011 44.2564 20.0781 43.4213 20.0781C42.5861 20.0781 41.9092 19.4011 41.9092 18.566C41.9092 17.7308 42.5861 17.0539 43.4213 17.0539C44.2564 17.0539 44.9334 17.7308 44.9334 18.566Z" fill="white"/>
<path d="M15.4946 33.6758L40.2869 30.1197L40.8025 33.7142L16.0101 37.2702L15.4946 33.6758Z" fill="white"/>
<path d="M28.2128 28.7257C29.5508 28.7257 30.8088 28.2046 31.7551 27.2585C33.7084 25.3051 33.7084 22.1271 31.7551 20.1738C30.8088 19.2276 29.5508 18.7065 28.2128 18.7065C26.8747 18.7065 25.6167 19.2276 24.6703 20.1738C22.7171 22.1271 22.7171 25.3051 24.6705 27.2586C25.6167 28.2047 26.8747 28.7257 28.2128 28.7257ZM28.213 22.3363C28.9754 22.3363 29.5934 22.9544 29.5934 23.7168C29.5934 24.4792 28.9754 25.0972 28.213 25.0972C27.4506 25.0972 26.8326 24.4792 26.8326 23.7168C26.8326 22.9544 27.4506 22.3363 28.213 22.3363Z" fill="white"/>
<path d="M28.4349 38.5593C27.0968 38.5593 25.8388 39.0804 24.8925 40.0265C22.9392 41.9799 22.9392 45.1579 24.8926 47.1114C25.8388 48.0574 27.0968 48.5785 28.4349 48.5785C29.773 48.5785 31.0309 48.0574 31.9772 47.1113C33.9304 45.1579 33.9304 41.9799 31.9772 40.0265C31.0309 39.0804 29.773 38.5593 28.4349 38.5593ZM28.4345 44.9523C27.6721 44.9523 27.0541 44.3343 27.0541 43.5719C27.0541 42.8095 27.6721 42.1914 28.4345 42.1914C29.1969 42.1914 29.815 42.8095 29.815 43.5719C29.815 44.3343 29.1968 44.9523 28.4345 44.9523Z" fill="white"/>
</svg>
