<svg width="78" height="72" viewBox="0 0 78 72" fill="none" xmlns="http://www.w3.org/2000/svg">
<rect x="28" y="22" width="50" height="50" rx="1" fill="#86C7FF" fill-opacity="0.3"/>
<g clip-path="url(#clip0)">
<path d="M14.6156 17.0303L5.67517 31.2235L34 62.0134L62.3247 31.2236L53.3845 17.0304H14.6156V17.0303ZM39.9227 32.9756L34 52.2905L28.0772 32.9756H39.9227ZM29.2542 29.0222L34 22.4134L38.7457 29.0222H29.2542ZM37.8656 20.9836H48.1353L42.7034 27.7207L37.8656 20.9836ZM25.2966 27.7207L19.8647 20.9836H30.1344L25.2966 27.7207ZM21.2437 29.0222H11.7604L15.9197 22.4191L21.2437 29.0222ZM23.9123 32.9756L29.5276 51.2877L12.6817 32.9756H23.9123ZM44.0876 32.9756H55.3182L38.4723 51.2877L44.0876 32.9756ZM46.7562 29.0222L52.0801 22.4191L56.2394 29.0222H46.7562Z" fill="white"/>
<path d="M32.0078 -0.013916H35.9922V10.7313H32.0078V-0.013916Z" fill="white"/>
<path d="M54.8772 12.6411L61.7194 4.1576L64.8311 6.62837L57.9889 15.1119L54.8772 12.6411Z" fill="white"/>
<path d="M44.1351 6.76318H48.1195V10.7316H44.1351V6.76318Z" fill="white"/>
<path d="M64.0005 19.5737H68V23.5271H64.0005V19.5737Z" fill="white"/>
<path d="M3.19397 6.6311L6.30566 4.16034L13.1479 12.6438L10.0362 15.1146L3.19397 6.6311Z" fill="white"/>
<path d="M19.8805 6.76318H23.8649V10.7316H19.8805V6.76318Z" fill="white"/>
<path d="M0 19.5737H3.99952V23.5271H0V19.5737Z" fill="white"/>
</g>
<defs>
<clipPath id="clip0">
<rect width="68" height="62" fill="white"/>
</clipPath>
</defs>
</svg>
